<svg width="80" height="80" viewBox="0 0 80 80" fill="none" xmlns="http://www.w3.org/2000/svg">
<path d="M6.45148 70.9405H40V68.3594H6.45148C4.31371 68.3594 2.58053 66.6262 2.58053 64.4884V7.71418C2.58053 5.57576 4.31371 3.84322 6.45148 3.84322H63.2257C65.3645 3.84322 67.0967 5.57576 67.0967 7.71418V37.3914H69.6778V7.71418C69.6736 4.15273 66.7875 1.2669 63.2257 1.2627H6.45148C2.89068 1.2669 0.00452781 4.15273 0 7.71418V64.4884C0.00452781 68.0499 2.89068 70.9357 6.45148 70.9405Z" fill="black"/>
<path d="M5.16171 6.42432H7.74192V9.00452H5.16171V6.42432Z" fill="#1D73F8"/>
<path d="M10.3225 6.42432H12.9036V9.00452H10.3225V6.42432Z" fill="#1D73F8"/>
<path d="M15.4838 6.42432H18.0647V9.00452H15.4838V6.42432Z" fill="#1D73F8"/>
<path d="M5.16171 11.5852H64.5161V14.1664H5.16171V11.5852Z" fill="black"/>
<path d="M18.4427 17.1248L15.1652 20.4022C12.3948 18.5682 8.68495 19.1309 6.58243 21.704C4.48023 24.2768 4.66878 28.0245 7.01807 30.3734C9.36703 32.7234 13.1151 32.9119 15.6882 30.8094C18.2609 28.7072 18.824 24.9967 16.9896 22.2269L20.2668 18.9495L18.4427 17.1248ZM11.6125 29.6496C9.47505 29.6496 7.74187 27.9168 7.74187 25.779C7.74187 23.6409 9.47505 21.9084 11.6125 21.9084C12.1882 21.9103 12.7545 22.0423 13.271 22.2949L10.7008 24.8654L12.5249 26.6901L15.097 24.1212C15.3496 24.6374 15.4818 25.2037 15.4838 25.779C15.4838 27.9168 13.7512 29.6496 11.6125 29.6496Z" fill="black"/>
<path d="M21.9356 21.9082H43.8706V24.4884H21.9356V21.9082Z" fill="black"/>
<path d="M21.9356 27.0693H30.9676V29.6496H21.9356V27.0693Z" fill="black"/>
<path d="M33.5485 27.0693H51.6125V29.6496H33.5485V27.0693Z" fill="black"/>
<path d="M46.4515 21.9082H59.3548V24.4884H46.4515V21.9082Z" fill="#1D73F8"/>
<path d="M18.4427 32.6084L15.1652 35.8859C12.3948 34.0518 8.68495 34.6145 6.58243 37.1876C4.48023 39.7607 4.66878 43.5081 7.01807 45.8577C9.36703 48.207 13.1151 48.3956 15.6882 46.2931C18.2609 44.1905 18.824 40.4813 16.9896 37.7106L20.2668 34.4331L18.4427 32.6084ZM11.6125 45.1336C9.47505 45.1336 7.74187 43.4004 7.74187 41.2627C7.74187 39.1246 9.47505 37.3914 11.6125 37.3914C12.1882 37.3936 12.7545 37.5259 13.271 37.7785L10.7008 40.3497L12.5249 42.1737L15.097 39.6045C15.3496 40.121 15.4818 40.6873 15.4838 41.2627C15.4838 43.4004 13.7512 45.1336 11.6125 45.1336Z" fill="#1D73F8"/>
<path d="M21.9356 37.3914H43.8706V39.9722H21.9356V37.3914Z" fill="black"/>
<path d="M21.9356 42.5532H30.9676V45.1338H21.9356V42.5532Z" fill="black"/>
<path d="M33.5485 42.5532H43.8706V45.1338H33.5485V42.5532Z" fill="#1D73F8"/>
<path d="M46.4515 37.3914H51.6125V39.9722H46.4515V37.3914Z" fill="black"/>
<path d="M18.4427 48.0923L15.1652 51.3698C12.3948 49.5357 8.68495 50.0984 6.58243 52.6715C4.48023 55.2446 4.66878 58.9921 7.01807 61.3417C9.36703 63.6913 13.1151 63.8792 15.6882 61.777C18.2609 59.6745 18.824 55.9649 16.9896 53.1942L20.2668 49.917L18.4427 48.0923ZM11.6125 60.6175C9.47505 60.6175 7.74187 58.8844 7.74187 56.7466C7.74187 54.6085 9.47505 52.8756 11.6125 52.8756C12.1882 52.8775 12.7545 53.0095 13.271 53.2624L10.7008 55.8336L12.5249 57.6576L15.097 55.0884C15.3496 55.6049 15.4818 56.1715 15.4838 56.7466C15.4838 58.8844 13.7512 60.6175 11.6125 60.6175Z" fill="black"/>
<path d="M21.9356 52.8755H38.7096V55.4566H21.9356V52.8755Z" fill="black"/>
<path d="M21.9356 58.0369H30.9676V60.6174H21.9356V58.0369Z" fill="#1D73F8"/>
<path d="M33.5485 58.0369H38.7095V60.6174H33.5485V58.0369Z" fill="black"/>
<path d="M60.6455 78.6826C71.3354 78.6826 80 70.0164 80 59.3275C80 48.6377 71.3354 39.9724 60.6455 39.9724C49.9557 39.9724 41.2904 48.6377 41.2904 59.3275C41.303 70.0116 49.9608 78.6697 60.6455 78.6826ZM60.6455 42.5533C69.9091 42.5533 77.4198 50.0633 77.4198 59.3275C77.4198 68.5918 69.9091 76.1015 60.6455 76.1015C51.381 76.1015 43.8706 68.5918 43.8706 59.3275C43.8816 50.0678 51.3852 42.5636 60.6455 42.5533Z" fill="black"/>
<path d="M52.7746 60.0404L50.4647 61.1937L53.0456 66.3551C53.2306 66.7263 53.5837 66.986 53.9935 67.0523C54.0601 67.0627 54.1267 67.0682 54.1937 67.0692C54.5355 67.0692 54.8638 66.933 55.1064 66.6911L70.5895 51.2073L68.7655 49.3826L54.5469 63.6005L52.7746 60.0404Z" fill="#1D73F8"/>
</svg>
