<svg width="96" height="80" viewBox="0 0 96 80" fill="none" xmlns="http://www.w3.org/2000/svg">
<path d="M95.196 18.5953V1.52131C95.196 0.63027 94.4727 0 93.5825 0H1.61349C0.722447 0 0 0.63027 0 1.52131V77.5397C0 78.4308 0.722447 79.0611 1.61349 79.0611H93.5825C94.4735 79.0611 95.196 78.4308 95.196 77.5397V18.626C95.196 18.6205 95.196 18.6158 95.196 18.6103C95.196 18.6048 95.196 18.6001 95.196 18.5953ZM91.969 3.22698V16.9417H3.22698V3.22698H91.969ZM3.22698 75.8341V20.1686H91.969V75.8341H3.22698Z" fill="#565656"/>
<path d="M20.8361 15.1554C23.5391 15.1554 25.7388 12.884 25.7388 10.0919C25.7388 7.29984 23.5399 5.0293 20.8361 5.0293C18.1322 5.0293 15.9333 7.30063 15.9333 10.0919C15.9333 12.8825 18.133 15.1554 20.8361 15.1554ZM20.8361 8.25549C21.7602 8.25549 22.5118 9.07878 22.5118 10.0904C22.5118 11.1027 21.7602 11.9276 20.8361 11.9276C19.9127 11.9276 19.1603 11.1043 19.1603 10.0919C19.1603 9.07878 19.9127 8.25549 20.8361 8.25549Z" fill="#565656"/>
<path d="M31.5237 15.1554C34.226 15.1554 36.4256 12.884 36.4256 10.0919C36.4256 7.29984 34.2276 5.0293 31.5237 5.0293C28.8198 5.0293 26.6226 7.30063 26.6226 10.0919C26.6226 12.8825 28.8206 15.1554 31.5237 15.1554ZM31.5237 8.25549C32.447 8.25549 33.1986 9.07878 33.1986 10.0904C33.1986 11.1027 32.447 11.9276 31.5237 11.9276C30.5996 11.9276 29.8495 11.1043 29.8495 10.0919C29.8495 9.07878 30.6003 8.25549 31.5237 8.25549Z" fill="#565656"/>
<path d="M10.1481 15.1554C12.8512 15.1554 15.0501 12.884 15.0501 10.0919C15.0501 7.29984 12.852 5.0293 10.1481 5.0293C7.44428 5.0293 5.24622 7.30063 5.24622 10.0919C5.24622 12.8825 7.44507 15.1554 10.1481 15.1554ZM10.1481 8.25549C11.0723 8.25549 11.8231 9.07878 11.8231 10.0904C11.8231 11.1027 11.0723 11.9276 10.1481 11.9276C9.22479 11.9276 8.4732 11.1035 8.4732 10.0904C8.4732 9.07799 9.22479 8.25549 10.1481 8.25549Z" fill="#565656"/>
<path d="M76.677 52.2367H58.3417L60.134 45.5117C60.2451 45.0949 60.186 44.6506 59.9694 44.2779L48.9916 25.44C48.7033 24.9436 48.1723 24.6387 47.5987 24.6379C47.0244 24.6379 46.4934 24.9428 46.2043 25.4384L35.2265 44.2724C35.0083 44.6514 34.95 45.102 35.065 45.5243L36.9141 52.2367H18.5189C18.0974 52.2335 17.6916 52.4005 17.3946 52.7007C17.0976 53.0009 16.9345 53.4082 16.9416 53.8297V69.5179C16.9416 70.4089 17.627 71.196 18.5189 71.196H76.677C77.5681 71.196 78.2543 70.4089 78.2543 69.5179V53.8297C78.2614 53.4082 78.0983 53.0009 77.8013 52.7007C77.5042 52.4005 77.0985 52.2335 76.677 52.2367ZM48.3503 40.2954C48.3503 40.7106 48.0131 41.047 47.5979 41.047C47.1828 41.047 46.8456 40.7106 46.8456 40.2954C46.8456 39.8802 47.1828 39.543 47.5979 39.543C48.0131 39.5438 48.3495 39.8802 48.3503 40.2954ZM38.3566 45.321L45.9845 32.2232V36.6603C44.2662 37.423 43.3161 39.2838 43.7052 41.1226C44.0952 42.9615 45.7182 44.2771 47.5979 44.2771C49.4777 44.2771 51.1007 42.9615 51.4907 41.1226C51.8798 39.2838 50.9297 37.423 49.2114 36.6603V32.2232L56.8432 45.3281L55.002 52.2367H40.2624L38.3566 45.321ZM75.0273 55.4636V57.4805H20.1686V55.4636H75.0273ZM72.2037 67.9682V66.5855C72.2037 65.6945 71.4812 64.9721 70.5902 64.9721C69.6991 64.9721 68.9767 65.6945 68.9767 66.5855V67.9682H67.1615V64.5395C67.1615 63.6485 66.4391 62.926 65.548 62.926C64.657 62.926 63.9345 63.6485 63.9345 64.5395V67.9682H61.9177V66.5855C61.9177 65.6945 61.1952 64.9721 60.3042 64.9721C59.4131 64.9721 58.6907 65.6945 58.6907 66.5855V67.9682H56.8755V64.5395C56.8755 63.6485 56.1531 62.926 55.262 62.926C54.371 62.926 53.6485 63.6485 53.6485 64.5395V67.9682H51.8334V66.5855C51.8334 65.6945 51.1109 64.9721 50.2199 64.9721C49.3288 64.9721 48.6064 65.6945 48.6064 66.5855V67.9682H46.5895V64.5395C46.5895 63.6485 45.8671 62.926 44.976 62.926C44.085 62.926 43.3625 63.6485 43.3625 64.5395V67.9682H41.5474V66.5855C41.5474 65.6945 40.8249 64.9721 39.9339 64.9721C39.0428 64.9721 38.3204 65.6945 38.3204 66.5855V67.9682H36.5052V64.5395C36.5052 63.6485 35.7828 62.926 34.8917 62.926C34.0007 62.926 33.2782 63.6485 33.2782 64.5395V67.9682H31.2614V66.5855C31.2614 65.6945 30.5389 64.9721 29.6479 64.9721C28.7568 64.9721 28.0344 65.6945 28.0344 66.5855V67.9682H26.2192V64.5395C26.2192 63.6485 25.4968 62.926 24.6057 62.926C23.7147 62.926 22.9922 63.6485 22.9922 64.5395V67.9682H20.1686V60.7075H75.0273V67.9682H72.2037Z" fill="#1D73F8"/>
</svg>
