<svg width="95" height="98" viewBox="0 0 95 98" fill="none" xmlns="http://www.w3.org/2000/svg">
<path d="M39.1424 44.587C39.4253 45.1132 39.9744 45.4405 40.5719 45.4405C40.7668 45.4397 40.9602 45.4056 41.1432 45.3382L66.8335 35.7032H87.6353C90.324 35.7032 92.5039 33.5233 92.5039 30.8346V11.3601C92.5039 8.6714 90.324 6.49146 87.6353 6.49146H61.6693C58.9806 6.49146 56.8007 8.6714 56.8007 11.3601V30.0089L39.6178 42.5046C38.9601 42.9816 38.7573 43.8715 39.1424 44.587ZM59.3776 32.1476C59.7976 31.8418 60.0464 31.3536 60.0464 30.8346V11.3601C60.0464 10.4639 60.7731 9.73721 61.6693 9.73721H87.6353C88.5315 9.73721 89.2582 10.4639 89.2582 11.3601V30.8346C89.2582 31.7308 88.5315 32.4575 87.6353 32.4575H66.5379C66.343 32.4575 66.1496 32.4915 65.9666 32.5597L51.1887 38.1035L59.3776 32.1476Z" fill="#565656"/>
<path d="M30.8346 71.4064H27.5889V67.4729C30.5422 66.1836 32.4535 63.2691 32.4575 60.0463V53.5548C32.4519 49.0753 28.8227 45.446 24.3431 45.4404H21.0974C16.6178 45.446 12.9885 49.0753 12.983 53.5548V60.0463C12.9869 63.2691 14.8983 66.1836 17.8516 67.4729V71.4064H14.6059C8.33465 71.4136 3.25286 76.4954 3.24573 82.7666V92.5038C3.24573 95.1925 5.42567 97.3724 8.11435 97.3724H37.3261C40.0148 97.3724 42.1947 95.1925 42.1947 92.5038V82.7666C42.1876 76.4954 37.1058 71.4136 30.8346 71.4064ZM21.0974 48.6862H24.3431C27.0318 48.6862 29.2117 50.8661 29.2117 53.5548H28.2608L27.1134 52.4074C26.6792 51.9731 26.0365 51.821 25.4533 52.0143L20.8343 53.5548H16.2287C16.2287 50.8661 18.4087 48.6862 21.0974 48.6862ZM16.2287 60.0463V56.8006H21.0974C21.2717 56.8006 21.4444 56.7728 21.6101 56.7181L25.5262 55.4194L26.4414 56.333C26.7473 56.6349 27.1594 56.8029 27.5889 56.8006H29.2117V60.0463C29.2117 62.735 27.0318 64.9149 24.3431 64.9149H21.0974C18.4087 64.9149 16.2287 62.735 16.2287 60.0463ZM21.0974 68.1607H24.3431V71.4064H21.0974V68.1607ZM28.8544 74.6522L26.2584 87.6352H19.1805L16.5845 74.6522H28.8544ZM38.949 92.5038C38.949 93.4 38.2223 94.1267 37.3261 94.1267H8.11435C7.21813 94.1267 6.49148 93.4 6.49148 92.5038V82.7666C6.50495 78.7965 9.38857 75.4185 13.3079 74.7837L16.2612 89.583C16.4157 90.3381 17.0806 90.8809 17.8516 90.8809H27.5889C28.3599 90.8809 29.0247 90.3381 29.1792 89.583L32.1326 74.7837C36.0519 75.4185 38.9355 78.7965 38.949 82.7666V92.5038Z" fill="#565656"/>
<path d="M82.7666 71.4064H79.5209V67.4729C82.4742 66.1836 84.3855 63.2691 84.3895 60.0463V53.5548C84.3839 49.0753 80.7547 45.446 76.2751 45.4404H73.0294C68.5498 45.446 64.9205 49.0753 64.915 53.5548V60.0463C64.9189 63.2691 66.8303 66.1836 69.7836 67.4729V71.4064H66.5379C60.2667 71.4136 55.1849 76.4954 55.1777 82.7666V92.5038C55.1777 95.1925 57.3577 97.3724 60.0464 97.3724H89.2581C91.9468 97.3724 94.1267 95.1925 94.1267 92.5038V82.7666C94.1196 76.4954 89.0378 71.4136 82.7666 71.4064ZM73.0294 48.6862H76.2751C78.9638 48.6862 81.1437 50.8661 81.1437 53.5548H76.9471L75.7997 52.4074C75.3654 51.9731 74.7228 51.821 74.1395 52.0143L69.5205 53.5548H68.1607C68.1607 50.8661 70.3407 48.6862 73.0294 48.6862ZM68.1607 60.0463V56.8006H69.7836C69.9579 56.8006 70.1307 56.7728 70.2963 56.7181L74.2124 55.4194L75.1277 56.333C75.4336 56.6349 75.8456 56.8029 76.2751 56.8006H81.1437V60.0463C81.1437 62.735 78.9638 64.9149 76.2751 64.9149H73.0294C70.3407 64.9149 68.1607 62.735 68.1607 60.0463ZM73.0294 68.1607H76.2751V71.4064H73.0294V68.1607ZM80.7864 74.6522L78.1904 87.6352H71.1125L68.5165 74.6522H80.7864ZM90.881 92.5038C90.881 93.4 90.1543 94.1267 89.2581 94.1267H60.0464C59.1501 94.1267 58.4235 93.4 58.4235 92.5038V82.7666C58.437 78.7965 61.3206 75.4185 65.2399 74.7837L68.1932 89.583C68.3477 90.3381 69.0126 90.8809 69.7836 90.8809H79.5209C80.2919 90.8809 80.9567 90.3381 81.1112 89.583L84.0646 74.7837C87.9839 75.4185 90.8675 78.7965 90.881 82.7666V92.5038Z" fill="#1D73F8"/>
<path d="M28.9487 27.5889L43.3049 32.3751C43.4706 32.429 43.6433 32.4567 43.8176 32.4575C44.4421 32.4575 45.0102 32.1001 45.2812 31.5375C45.5515 30.9749 45.4754 30.3077 45.0847 29.8203L38.949 22.1505V4.86863C38.949 2.17995 36.7691 0 34.0804 0H4.86863C2.17995 0 0 2.17995 0 4.86863V22.7203C0 25.4089 2.17995 27.5889 4.86863 27.5889H28.9487ZM3.24575 22.7203V4.86863C3.24575 3.9724 3.9724 3.24575 4.86863 3.24575H34.0804C34.9766 3.24575 35.7033 3.9724 35.7033 4.86863V22.7203C35.7033 23.0887 35.8285 23.4469 36.0591 23.7346L39.1115 27.5564L29.7181 24.4255C29.5549 24.3717 29.3837 24.3439 29.2118 24.3431H4.86863C3.9724 24.3431 3.24575 23.6165 3.24575 22.7203Z" fill="#1D73F8"/>
<path d="M63.292 12.9829H86.0123V16.2287H63.292V12.9829Z" fill="#565656"/>
<path d="M63.292 19.4744H86.0123V22.7201H63.292V19.4744Z" fill="#565656"/>
<path d="M63.292 25.9661H86.0123V29.2118H63.292V25.9661Z" fill="#565656"/>
</svg>
