<svg xmlns="http://www.w3.org/2000/svg" viewBox="0 0 68.451 68.466"><path
    d="M34.233 0c-3.066 7.468-4.89 12.353-8.314 19.606a53.305 53.305 0 008.8 7.673 36.84 36.84 0 01-9.781-5.59C20.6 30.751 13.8 43.662 0 68.466c10.852-6.26 19.263-10.128 27.108-11.6a19.978 19.978 0 01-.518-4.646v-.352c.171-6.949 3.79-12.295 8.074-11.933s7.614 6.3 7.438 13.248a18.936 18.936 0 01-.435 3.736c7.756 1.516 16.08 5.379 26.785 11.546-2.108-3.883-4-7.385-5.8-10.725-2.832-2.2-5.79-5.057-11.82-8.152a35.466 35.466 0 019.433 3.712C41.975 19.239 40.493 14.715 34.233 0z"
    fill="#1793d1"
  /></svg>
