<svg width="90" height="90" viewBox="0 0 90 90" fill="none" xmlns="http://www.w3.org/2000/svg">
<g clip-path="url(#clip0)">
<path d="M85.166 0H56.3286C53.663 0 51.4946 2.16844 51.4946 4.83398V54.9795C51.4946 57.2008 53.0012 59.0759 55.0459 59.6394V62.4016C55.0459 64.8911 57.0711 66.9162 59.5605 66.9162H69.4283V69.6059H49.9584V69.5043C49.9584 66.8192 47.7738 64.6346 45.0886 64.6346C42.4035 64.6346 40.2189 66.8192 40.2189 69.5043V69.6059H20.5717V66.9162H30.4395C32.9289 66.9162 34.9541 64.8911 34.9541 62.4016V59.6394C36.9988 59.0759 38.5054 57.201 38.5054 54.9795V30.1611C38.5054 29.433 37.9151 28.8427 37.187 28.8427C36.459 28.8427 35.8687 29.433 35.8687 30.1611V54.9795C35.8687 56.1911 34.8831 57.1767 33.6714 57.1767H33.6357H4.86967H4.83398C3.62232 57.1767 2.63672 56.1911 2.63672 54.9795V13.2908H35.8687V23.9887C35.8687 24.7168 36.459 25.307 37.187 25.307C37.9151 25.307 38.5054 24.7168 38.5054 23.9887V4.83398C38.5054 2.16844 36.337 0 33.6714 0H4.83398C2.16844 0 0 2.16844 0 4.83398V54.9795C0 57.2008 1.50662 59.0759 3.55131 59.6394V62.4016C3.55131 64.8911 5.57648 66.9162 8.0659 66.9162H17.935V70.9242C17.935 71.6523 18.5252 72.2426 19.2533 72.2426H40.2191V80.2605H33.9908C31.5014 80.2605 29.4762 82.2857 29.4762 84.7751V88.6816C29.4762 89.4097 30.0665 90 30.7946 90H47.8893C48.6174 90 49.2077 89.4097 49.2077 88.6816C49.2077 87.9536 48.6174 87.3633 47.8893 87.3633H32.1129V84.7751C32.1129 83.7395 32.9553 82.8972 33.9908 82.8972H56.1867C57.2222 82.8972 58.0646 83.7395 58.0646 84.7751V87.3633H54.0234C53.2953 87.3633 52.705 87.9536 52.705 88.6816C52.705 89.4097 53.2953 90 54.0234 90H59.3829C60.111 90 60.7013 89.4097 60.7013 88.6816V84.7751C60.7013 82.2857 58.6761 80.2605 56.1867 80.2605H49.9584V72.2426H70.7467C71.4748 72.2426 72.065 71.6523 72.065 70.9242V66.9162H81.9341C84.4235 66.9162 86.4487 64.8911 86.4487 62.4016V59.6394C88.4934 59.0759 90 57.201 90 54.9795V30.1611C90 29.433 89.4097 28.8427 88.6816 28.8427C87.9536 28.8427 87.3633 29.433 87.3633 30.1611V54.9795C87.3633 56.1911 86.3777 57.1767 85.166 57.1767H85.1303H56.3643H56.3286C55.1169 57.1767 54.1313 56.1911 54.1313 54.9795V13.2908H87.3633V23.9887C87.3633 24.7168 87.9536 25.307 88.6816 25.307C89.4097 25.307 90 24.7168 90 23.9887V4.83398C90 2.16844 87.8316 0 85.166 0ZM4.83398 2.63672H33.6714C34.8831 2.63672 35.8687 3.62232 35.8687 4.83398V10.6541H2.63672V4.83398C2.63672 3.62232 3.62232 2.63672 4.83398 2.63672ZM6.18803 62.4016V59.8134H32.3174V62.4016C32.3174 63.4372 31.475 64.2795 30.4395 64.2795H8.0659C7.03055 64.2795 6.18803 63.4372 6.18803 62.4016ZM42.8558 80.2605V69.5043C42.8558 68.2731 43.8576 67.2713 45.0888 67.2713C46.3201 67.2713 47.3219 68.2731 47.3219 69.5043V80.2605H42.8558ZM83.812 59.8134V62.4016C83.812 63.4372 82.9696 64.2795 81.9341 64.2795H59.5607C58.5251 64.2795 57.6828 63.4372 57.6828 62.4016V59.8134H83.812ZM54.1313 10.6541V4.83398C54.1313 3.62232 55.1169 2.63672 56.3286 2.63672H85.166C86.3777 2.63672 87.3633 3.62232 87.3633 4.83398V10.6541H54.1313Z" fill="black"/>
<path d="M32.8233 16.9443C32.8233 16.2162 32.233 15.626 31.5049 15.626H7.00049C6.2724 15.626 5.68213 16.2162 5.68213 16.9443V40.5609C5.68213 41.289 6.2724 41.8793 7.00049 41.8793H31.5047C32.2328 41.8793 32.8231 41.289 32.8231 40.5609V16.9443H32.8233ZM30.1866 39.2424H8.31885V18.2627H30.1864V39.2424H30.1866Z" fill="black"/>
<path d="M32.8233 46.2432C32.8233 45.5151 32.233 44.9248 31.5049 44.9248H7.00049C6.2724 44.9248 5.68213 45.5151 5.68213 46.2432C5.68213 46.9713 6.2724 47.5615 7.00049 47.5615H31.5047C32.233 47.5615 32.8233 46.9713 32.8233 46.2432Z" fill="black"/>
<path d="M7.00049 50.4292C6.2724 50.4292 5.68213 51.0195 5.68213 51.7476C5.68213 52.4756 6.2724 53.0659 7.00049 53.0659H26.1779C26.906 53.0659 27.4962 52.4756 27.4962 51.7476C27.4962 51.0195 26.906 50.4292 26.1779 50.4292H7.00049Z" fill="black"/>
<path d="M7.00049 7.96387H10.5518C11.2799 7.96387 11.8702 7.37359 11.8702 6.64551C11.8702 5.91742 11.2799 5.32715 10.5518 5.32715H7.00049C6.2724 5.32715 5.68213 5.91742 5.68213 6.64551C5.68213 7.37359 6.2724 7.96387 7.00049 7.96387Z" fill="black"/>
<path d="M14.8135 37.085C15.5416 37.085 16.1318 36.4947 16.1318 35.7666V29.9822H22.3735V35.7666C22.3735 36.4947 22.9637 37.085 23.6918 37.085C24.4199 37.085 25.0102 36.4947 25.0102 35.7666V23.3368C25.0102 22.9871 24.8713 22.6518 24.624 22.4046L22.8483 20.6289C22.6011 20.3815 22.2657 20.2427 21.9161 20.2427H16.5892C16.2396 20.2427 15.9042 20.3815 15.6571 20.6289L13.8813 22.4046C13.634 22.6518 13.4951 22.9871 13.4951 23.3368V35.7665C13.4951 36.4947 14.0854 37.085 14.8135 37.085ZM17.1352 22.8796H21.3701L22.3735 23.8829V27.3455H16.1318V23.8829L17.1352 22.8796Z" fill="#1D73F8"/>
<path d="M84.3179 16.9443C84.3179 16.2162 83.7276 15.626 82.9995 15.626H58.4951C57.767 15.626 57.1768 16.2162 57.1768 16.9443V40.5609C57.1768 41.289 57.767 41.8793 58.4951 41.8793H82.9994C83.7275 41.8793 84.3177 41.289 84.3177 40.5609V16.9443H84.3179ZM81.6812 39.2424H59.8135V18.2627H81.681V39.2424H81.6812Z" fill="black"/>
<path d="M84.3179 46.2432C84.3179 45.5151 83.7276 44.9248 82.9995 44.9248H58.4951C57.767 44.9248 57.1768 45.5151 57.1768 46.2432C57.1768 46.9713 57.767 47.5615 58.4951 47.5615H82.9994C83.7276 47.5615 84.3179 46.9713 84.3179 46.2432Z" fill="black"/>
<path d="M58.4951 50.4292C57.767 50.4292 57.1768 51.0195 57.1768 51.7476C57.1768 52.4756 57.767 53.0659 58.4951 53.0659H77.6725C78.4006 53.0659 78.9909 52.4756 78.9909 51.7476C78.9909 51.0195 78.4006 50.4292 77.6725 50.4292H58.4951Z" fill="black"/>
<path d="M62.0464 5.32715H58.4951C57.767 5.32715 57.1768 5.91742 57.1768 6.64551C57.1768 7.37359 57.767 7.96387 58.4951 7.96387H62.0464C62.7745 7.96387 63.3648 7.37359 63.3648 6.64551C63.3648 5.91742 62.7745 5.32715 62.0464 5.32715Z" fill="black"/>
<path d="M66.3081 37.1739H71.6708C73.2557 37.1739 74.7669 36.3716 75.6618 35.0647C76.5704 33.7379 76.7592 31.9795 76.164 30.4859C75.734 29.407 74.9112 28.5031 73.8793 27.9706C74.8758 26.5227 75.0061 24.5693 74.2163 22.9999C73.5113 21.5988 72.1324 20.6005 70.5782 20.3797C70.3519 20.3475 70.1236 20.3315 69.8953 20.3315H66.3081C65.58 20.3315 64.9897 20.9218 64.9897 21.6499V35.8553C64.9897 36.5836 65.58 37.1739 66.3081 37.1739ZM73.8681 32.3399C73.8681 33.5515 72.8825 34.5371 71.6708 34.5371H67.6265V30.0711H71.6708C72.9187 30.0711 73.8734 31.1173 73.8681 32.3399ZM67.6265 22.9684H69.8951C71.1192 22.9684 72.0924 23.9922 72.0924 25.2014C72.0924 26.4106 71.1192 27.4343 69.8951 27.4343H67.6265V22.9684Z" fill="#1D73F8"/>
</g>
<defs>
<clipPath id="clip0">
<rect width="90" height="90" fill="white"/>
</clipPath>
</defs>
</svg>
