<svg width="90" height="90" viewBox="0 0 90 90" fill="none" xmlns="http://www.w3.org/2000/svg">
<path d="M37.8051 80.4955C37.4783 80.1684 37.0248 79.9805 36.5625 79.9805C36.1002 79.9805 35.6467 80.1684 35.3197 80.4955C34.9928 80.8226 34.8047 81.276 34.8047 81.7383C34.8047 82.2006 34.9926 82.6541 35.3197 82.9809C35.6467 83.3078 36.1002 83.4961 36.5625 83.4961C37.0248 83.4961 37.4783 83.308 37.8051 82.9809C38.1322 82.6541 38.3203 82.2006 38.3203 81.7383C38.3203 81.276 38.1322 80.8225 37.8051 80.4955Z" fill="black"/>
<path d="M61.4151 4.90381H50.3813C49.4107 4.90381 48.6235 5.69078 48.6235 6.66162C48.6235 7.63246 49.4107 8.41943 50.3813 8.41943H61.4151C62.3858 8.41943 63.173 7.63246 63.173 6.66162C63.173 5.69078 62.3858 4.90381 61.4151 4.90381Z" fill="black"/>
<path d="M30.4863 18.8036L30.6344 18.6835V18.4929V6.3552C30.6344 3.07174 33.3063 0.4 36.5896 0.4H75.2073C78.4906 0.4 81.1625 3.07174 81.1625 6.3552V37.9688C81.1625 38.7187 80.5545 39.3266 79.8047 39.3266C79.0549 39.3266 78.4469 38.7187 78.4469 37.9688V13.3668V12.9668H78.0469H33.75H33.35V13.3668V53.4375V55.601C33.35 57.1213 34.586 58.3575 36.1065 58.3575C36.6964 58.3575 37.2803 58.164 37.7533 57.8116L48.8553 49.5408C49.8383 48.8087 51.0558 48.4052 52.2809 48.4052C54.4354 48.4052 56.3864 49.5934 57.3752 51.5077C58.3641 53.4219 58.2038 55.7005 56.9569 57.4574L57.2831 57.6889L56.9569 57.4575L51.3665 65.3349L50.9183 65.9664H51.6927H78.0469H78.4469V65.5664V52.5813C78.4469 51.8315 79.0549 51.2235 79.8047 51.2235C80.5544 51.2235 81.1625 51.8315 81.1625 52.5813V74.1526C81.1625 77.4359 78.4906 80.1078 75.2073 80.1078H46.658H46.258V80.5078V88.2422C46.258 88.9919 45.6499 89.6 44.9002 89.6C44.1504 89.6 43.5423 88.9919 43.5423 88.2422V75.4102V75.0102H43.1423H11.9531H11.5531V75.4102V88.2422C11.5531 88.9919 10.9451 89.6 10.1953 89.6C9.44556 89.6 8.8375 88.9919 8.8375 88.2422V75.4102C8.8375 73.6926 10.2355 72.2945 11.9531 72.2945H13.5329H13.9329V71.8945V53.5131C13.9329 46.7538 15.5017 39.97 18.4694 33.8971C21.3111 28.0823 25.4574 22.8816 30.4863 18.8036ZM78.4469 69.082V68.682H78.0469H49.2196C49.219 68.682 49.2164 68.6819 49.2101 68.6815L49.1917 68.6802C49.1842 68.6798 49.1745 68.6792 49.1638 68.6788L48.9652 68.6713L48.8392 68.8252C47.7389 70.1696 46.4464 71.323 45.0164 72.2572L44.5366 72.5706L44.9963 72.9129C45.7618 73.4828 46.258 74.3893 46.258 75.4102V76.9922V77.3922H46.658H75.2073C76.9939 77.3922 78.4469 75.9392 78.4469 74.1526V69.082ZM50.4777 51.7185L50.4776 51.7186L39.3758 59.9894C38.438 60.6879 37.276 61.0732 36.1065 61.0732C33.0895 61.0732 30.6344 58.618 30.6344 55.601V53.4375V23.1423V22.2235L29.9618 22.8495C21.4583 30.7653 16.6485 41.7466 16.6485 53.5131V71.8945V72.2945H17.0485H35.7938C40.3672 72.2945 44.6773 70.068 47.3241 66.3384L54.7419 55.8858C55.4063 54.9495 55.4889 53.7739 54.9622 52.754C54.4355 51.7339 53.4287 51.1208 52.2807 51.1208C51.635 51.1208 50.9958 51.3328 50.4777 51.7185ZM33.35 9.85113V10.2511H33.75H78.0469H78.4469V9.85113V6.3552C78.4469 4.56858 76.9939 3.11562 75.2071 3.11562H36.5896C34.803 3.11562 33.35 4.5686 33.35 6.3552V9.85113Z" fill="black" stroke="white" stroke-width="0.8"/>
<path d="M57.141 71.645C56.8143 71.318 56.3607 71.1298 55.8984 71.1298C55.4361 71.1298 54.9826 71.3178 54.6557 71.645C54.3287 71.9718 54.1406 72.4253 54.1406 72.8876C54.1406 73.3518 54.3285 73.8034 54.6557 74.1303C54.9826 74.4592 55.4361 74.6454 55.8984 74.6454C56.3607 74.6454 56.8143 74.4591 57.141 74.1303C57.468 73.8034 57.6562 73.3516 57.6562 72.8876C57.6562 72.4253 57.4682 71.9718 57.141 71.645Z" fill="black"/>
<path d="M69.1465 27.9117C68.4072 27.0047 67.3119 26.4844 66.1417 26.4844H61.3385L59.8501 23.9062C59.3648 23.0654 58.2897 22.7775 57.4489 23.2628C56.6082 23.7482 56.3201 24.8232 56.8056 25.664L57.2791 26.4844H54.5185L54.9921 25.664C55.4776 24.8232 55.1895 23.7482 54.3487 23.2628C53.5076 22.7773 52.4332 23.0654 51.9475 23.9062L50.459 26.4844H45.6558C44.4856 26.4844 43.3903 27.0045 42.651 27.9117C41.9116 28.8189 41.6228 29.9963 41.8587 31.1426L44.1711 42.3743C44.5406 44.1674 46.1374 45.4687 47.968 45.4687H63.8295C65.66 45.4687 67.2568 44.1674 67.6265 42.3741L69.9387 31.1426C70.1746 29.9963 69.8858 28.8187 69.1465 27.9117ZM66.4954 30.4336L64.1833 41.6648C64.1489 41.832 64.0001 41.9533 63.8296 41.9533H47.9682C47.7977 41.9533 47.6491 41.832 47.6147 41.6652L45.3025 30.4338C45.2738 30.295 45.3269 30.1937 45.3761 30.1331C45.4255 30.0724 45.5143 30.0002 45.656 30.0002H48.4294L47.4315 31.7286C46.946 32.5694 47.2341 33.6445 48.0749 34.1298C48.3517 34.2896 48.6539 34.3655 48.952 34.3655C49.5595 34.3655 50.1503 34.0503 50.4761 33.4864L52.4889 30.0002H59.3089V30L61.3218 33.4863C61.6475 34.0502 62.2381 34.3653 62.8458 34.3653C63.1439 34.3653 63.4463 34.2894 63.7229 34.1296C64.5637 33.6443 64.8518 32.5692 64.3663 31.7285L63.3684 30H66.1419C66.2835 30 66.3723 30.0722 66.4217 30.1329C66.4709 30.1935 66.524 30.295 66.4954 30.4336Z" fill="#1D73F8"/>
<path d="M81.0473 43.7572C80.7205 43.4303 80.267 43.2422 79.8047 43.2422C79.3424 43.2422 78.8889 43.4303 78.5619 43.7572C78.235 44.0842 78.0469 44.5377 78.0469 45C78.0469 45.4623 78.2348 45.9158 78.5619 46.2426C78.8889 46.5696 79.3424 46.7578 79.8047 46.7578C80.267 46.7578 80.7205 46.5697 81.0473 46.2426C81.3744 45.9158 81.5625 45.4623 81.5625 45C81.5625 44.5377 81.3744 44.0842 81.0473 43.7572Z" fill="black"/>
</svg>
