<svg width="90" height="90" viewBox="0 0 90 90" fill="none" xmlns="http://www.w3.org/2000/svg">
<path d="M84.4383 86.9664H81.9102V7.58426C81.9102 6.74631 81.231 6.06744 80.3934 6.06744H52.0787C51.241 6.06744 50.5619 6.74631 50.5619 7.58426V14.1572H47.5283V7.58426C47.5283 6.74631 46.8491 6.06744 46.0115 6.06744H39.4383V1.51682C39.4383 0.678867 38.7591 0 37.9215 0C37.0839 0 36.4047 0.678867 36.4047 1.51682V6.06744H29.8317C28.9939 6.06744 28.3149 6.74631 28.3149 7.58426V14.1572H23.7642C22.9265 14.1572 22.2474 14.8361 22.2474 15.6741V28.3145H9.60699C8.76922 28.3145 8.09018 28.9934 8.09018 29.8313V86.9662H5.56174C4.72396 86.9662 4.04492 87.6451 4.04492 88.483C4.04492 89.321 4.72414 90 5.56174 90H84.4383C85.2761 90 85.9551 89.3211 85.9551 88.4832C85.9551 87.6452 85.2759 86.9664 84.4383 86.9664ZM31.3483 9.10107H44.4943V14.1572H31.3483V9.10107ZM26.2921 86.9664H25.2809V84.4383C25.2809 83.6003 24.6017 82.9215 23.7641 82.9215C22.9265 82.9215 22.2472 83.6003 22.2472 84.4383V86.9664H21.236V81.9102H26.2921V86.9664ZM36.4045 48.0336V50.6431V86.9664H29.3258V80.3934C29.3258 79.5554 28.6466 78.8766 27.809 78.8766H19.7192C18.8814 78.8766 18.2023 79.5554 18.2023 80.3934V86.9664H11.1236V31.3483H36.4045V48.0336ZM37.9213 28.3147H25.2809V17.1911H50.5617V46.5168H39.4383V41.4606H43.9889C44.8267 41.4606 45.5057 40.7818 45.5057 39.9438C45.5057 39.1059 44.8265 38.427 43.9889 38.427H39.4383V33.3708H43.9889C44.8267 33.3708 45.5057 32.692 45.5057 31.854C45.5057 31.0161 44.8265 30.3372 43.9889 30.3372H39.4383V29.8317C39.4383 28.9935 38.7591 28.3147 37.9213 28.3147ZM64.7192 86.9664H39.4383V50.6431V49.5506H64.7192V86.9664ZM78.8764 86.9664H67.7528V48.0336V46.0111C67.7528 45.1731 67.0736 44.4943 66.236 44.4943C65.3984 44.4943 64.7192 45.1731 64.7192 46.0111V46.5166H61.6855V46.0111C61.6855 45.1731 61.0063 44.4943 60.1687 44.4943C59.3311 44.4943 58.6519 45.1731 58.6519 46.0111V46.5166H53.5957V15.6742V9.10107H78.8766L78.8764 86.9664Z" fill="black"/>
<path d="M46.0114 83.9331C46.8492 83.9331 47.5283 83.2539 47.5283 82.4163V54.1018C47.5283 53.2638 46.849 52.585 46.0114 52.585C45.1738 52.585 44.4946 53.2638 44.4946 54.1018V82.4165C44.4946 83.254 45.1737 83.9331 46.0114 83.9331Z" fill="#1D73F8"/>
<path d="M52.0788 83.9331C52.9166 83.9331 53.5956 83.2539 53.5956 82.4163V54.1018C53.5956 53.2638 52.9164 52.585 52.0788 52.585C51.2412 52.585 50.562 53.2638 50.562 54.1018V82.4165C50.5618 83.254 51.2411 83.9331 52.0788 83.9331Z" fill="#1D73F8"/>
<path d="M58.1462 83.9331C58.984 83.9331 59.663 83.2539 59.663 82.4163V54.1018C59.663 53.2638 58.9838 52.585 58.1462 52.585C57.3086 52.585 56.6294 53.2638 56.6294 54.1018V82.4165C56.6294 83.254 57.3086 83.9331 58.1462 83.9331Z" fill="#1D73F8"/>
<path d="M60.1687 19.2132C61.0064 19.2132 61.6855 18.5344 61.6855 17.6964V15.674C61.6855 14.8361 61.0063 14.1572 60.1687 14.1572C59.3311 14.1572 58.6519 14.8361 58.6519 15.674V17.6966C58.6519 18.5344 59.3309 19.2132 60.1687 19.2132Z" fill="black"/>
<path d="M66.2361 19.2132C67.0738 19.2132 67.7529 18.5344 67.7529 17.6964V15.674C67.7529 14.8361 67.0737 14.1572 66.2361 14.1572C65.3985 14.1572 64.7192 14.8361 64.7192 15.674V17.6966C64.7192 18.5344 65.3983 19.2132 66.2361 19.2132Z" fill="black"/>
<path d="M72.3034 19.2132C73.1412 19.2132 73.8203 18.5344 73.8203 17.6964V15.674C73.8203 14.8361 73.141 14.1572 72.3034 14.1572C71.4658 14.1572 70.7866 14.8361 70.7866 15.674V17.6966C70.7866 18.5344 71.4657 19.2132 72.3034 19.2132Z" fill="black"/>
<path d="M60.1687 29.3257C61.0064 29.3257 61.6855 28.6468 61.6855 27.8089V25.7863C61.6855 24.9484 61.0063 24.2695 60.1687 24.2695C59.3311 24.2695 58.6519 24.9484 58.6519 25.7863V27.8089C58.6519 28.6468 59.3309 29.3257 60.1687 29.3257Z" fill="black"/>
<path d="M66.2361 29.3257C67.0738 29.3257 67.7529 28.6468 67.7529 27.8089V25.7863C67.7529 24.9484 67.0737 24.2695 66.2361 24.2695C65.3985 24.2695 64.7192 24.9484 64.7192 25.7863V27.8089C64.7192 28.6468 65.3983 29.3257 66.2361 29.3257Z" fill="black"/>
<path d="M72.3034 29.3257C73.1412 29.3257 73.8203 28.6468 73.8203 27.8089V25.7863C73.8203 24.9484 73.141 24.2695 72.3034 24.2695C71.4658 24.2695 70.7866 24.9484 70.7866 25.7863V27.8089C70.7866 28.6468 71.4657 29.3257 72.3034 29.3257Z" fill="black"/>
<path d="M60.1687 39.438C61.0064 39.438 61.6855 38.7591 61.6855 37.9212V35.8987C61.6855 35.0607 61.0063 34.3818 60.1687 34.3818C59.3311 34.3818 58.6519 35.0607 58.6519 35.8987V37.9212C58.6519 38.759 59.3309 39.438 60.1687 39.438Z" fill="black"/>
<path d="M66.2361 39.438C67.0738 39.438 67.7529 38.7591 67.7529 37.9212V35.8987C67.7529 35.0607 67.0737 34.3818 66.2361 34.3818C65.3985 34.3818 64.7192 35.0607 64.7192 35.8987V37.9212C64.7192 38.759 65.3983 39.438 66.2361 39.438Z" fill="black"/>
<path d="M72.3034 39.438C73.1412 39.438 73.8203 38.7591 73.8203 37.9212V35.8987C73.8203 35.0607 73.141 34.3818 72.3034 34.3818C71.4658 34.3818 70.7866 35.0607 70.7866 35.8987V37.9212C70.7866 38.759 71.4657 39.438 72.3034 39.438Z" fill="black"/>
<path d="M17.6965 43.4834C18.5343 43.4834 19.2133 42.8046 19.2133 41.9666V39.9441C19.2133 39.1061 18.5341 38.4272 17.6965 38.4272C16.8589 38.4272 16.1797 39.1061 16.1797 39.9441V41.9666C16.1797 42.8044 16.8589 43.4834 17.6965 43.4834Z" fill="black"/>
<path d="M23.7644 43.4834C24.6021 43.4834 25.2812 42.8046 25.2812 41.9666V39.9441C25.2812 39.1061 24.602 38.4272 23.7644 38.4272C22.9268 38.4272 22.2476 39.1061 22.2476 39.9441V41.9666C22.2476 42.8044 22.9266 43.4834 23.7644 43.4834Z" fill="black"/>
<path d="M29.8318 43.4834C30.6695 43.4834 31.3486 42.8046 31.3486 41.9666V39.9441C31.3486 39.1061 30.6694 38.4272 29.8318 38.4272C28.9942 38.4272 28.3149 39.1061 28.3149 39.9441V41.9666C28.3149 42.8044 28.994 43.4834 29.8318 43.4834Z" fill="black"/>
<path d="M17.6965 53.5957C18.5343 53.5957 19.2133 52.9169 19.2133 52.0789V50.0564C19.2133 49.2184 18.5341 48.5396 17.6965 48.5396C16.8589 48.5396 16.1797 49.2184 16.1797 50.0564V52.0789C16.1797 52.9167 16.8589 53.5957 17.6965 53.5957Z" fill="black"/>
<path d="M23.7644 53.5957C24.6021 53.5957 25.2812 52.9169 25.2812 52.0789V50.0564C25.2812 49.2184 24.602 48.5396 23.7644 48.5396C22.9268 48.5396 22.2476 49.2184 22.2476 50.0564V52.0789C22.2476 52.9167 22.9266 53.5957 23.7644 53.5957Z" fill="black"/>
<path d="M29.8318 53.5957C30.6695 53.5957 31.3486 52.9169 31.3486 52.0789V50.0564C31.3486 49.2184 30.6694 48.5396 29.8318 48.5396C28.9942 48.5396 28.3149 49.2184 28.3149 50.0564V52.0789C28.3149 52.9167 28.994 53.5957 29.8318 53.5957Z" fill="black"/>
<path d="M17.6965 63.708C18.5343 63.708 19.2133 63.0292 19.2133 62.1912V60.1687C19.2133 59.3307 18.5341 58.6519 17.6965 58.6519C16.8589 58.6519 16.1797 59.3307 16.1797 60.1687V62.1912C16.1797 63.0292 16.8589 63.708 17.6965 63.708Z" fill="black"/>
<path d="M23.7644 63.708C24.6021 63.708 25.2812 63.0292 25.2812 62.1912V60.1687C25.2812 59.3307 24.602 58.6519 23.7644 58.6519C22.9268 58.6519 22.2476 59.3307 22.2476 60.1687V62.1912C22.2476 63.0292 22.9266 63.708 23.7644 63.708Z" fill="black"/>
<path d="M29.8318 63.708C30.6695 63.708 31.3486 63.0292 31.3486 62.1912V60.1687C31.3486 59.3307 30.6694 58.6519 29.8318 58.6519C28.9942 58.6519 28.3149 59.3307 28.3149 60.1687V62.1912C28.3149 63.0292 28.994 63.708 29.8318 63.708Z" fill="black"/>
<path d="M17.6965 73.8203C18.5343 73.8203 19.2133 73.1415 19.2133 72.3035V70.281C19.2133 69.443 18.5341 68.7642 17.6965 68.7642C16.8589 68.7642 16.1797 69.443 16.1797 70.281V72.3035C16.1797 73.1415 16.8589 73.8203 17.6965 73.8203Z" fill="black"/>
<path d="M23.7644 73.8203C24.6021 73.8203 25.2812 73.1415 25.2812 72.3035V70.281C25.2812 69.443 24.602 68.7642 23.7644 68.7642C22.9268 68.7642 22.2476 69.443 22.2476 70.281V72.3035C22.2476 73.1415 22.9266 73.8203 23.7644 73.8203Z" fill="black"/>
<path d="M29.8318 73.8203C30.6695 73.8203 31.3486 73.1415 31.3486 72.3035V70.281C31.3486 69.443 30.6694 68.7642 29.8318 68.7642C28.9942 68.7642 28.3149 69.443 28.3149 70.281V72.3035C28.3149 73.1415 28.994 73.8203 29.8318 73.8203Z" fill="black"/>
<path d="M72.3034 49.5508C73.1412 49.5508 73.8203 48.8719 73.8203 48.034V46.0114C73.8203 45.1735 73.141 44.4946 72.3034 44.4946C71.4658 44.4946 70.7866 45.1735 70.7866 46.0114V48.034C70.7866 48.8718 71.4657 49.5508 72.3034 49.5508Z" fill="black"/>
<path d="M72.3034 59.6631C73.1412 59.6631 73.8203 58.9842 73.8203 58.1463V56.1237C73.8203 55.2858 73.141 54.6069 72.3034 54.6069C71.4658 54.6069 70.7866 55.2858 70.7866 56.1237V58.1463C70.7866 58.9841 71.4657 59.6631 72.3034 59.6631Z" fill="black"/>
<path d="M72.3034 69.7749C73.1412 69.7749 73.8203 69.0961 73.8203 68.2581V66.2356C73.8203 65.3976 73.141 64.7188 72.3034 64.7188C71.4658 64.7188 70.7866 65.3976 70.7866 66.2356V68.2581C70.7866 69.0959 71.4657 69.7749 72.3034 69.7749Z" fill="black"/>
<path d="M72.3034 79.8877C73.1412 79.8877 73.8203 79.2089 73.8203 78.3709V76.3484C73.8203 75.5104 73.141 74.8315 72.3034 74.8315C71.4658 74.8315 70.7866 75.5104 70.7866 76.3484V78.3709C70.7866 79.2087 71.4657 79.8877 72.3034 79.8877Z" fill="black"/>
<path d="M45.5059 23.7639C45.5059 22.9259 44.8267 22.2471 43.9891 22.2471H31.8542C31.0164 22.2471 30.3374 22.9259 30.3374 23.7639C30.3374 24.6018 31.0166 25.2807 31.8542 25.2807H43.9891C44.8269 25.2807 45.5059 24.6018 45.5059 23.7639Z" fill="#1D73F8"/>
</svg>
