<svg xmlns="http://www.w3.org/2000/svg" viewBox="0 0 60.162 60.196"><path
    d="M60.152 30.076a30.076 30.076 0 00-60.152 0V53.35a6.847 6.847 0 006.847 6.847h23.249A30.076 30.076 0 0060.162 30.12"
    fill="#294172"
  />
  <path
    d="M38.904 7.12a14.124 14.124 0 00-14.109 14.1v7.5h-7.458a14.109 14.109 0 1014.109 14.105v-7.487h7.458a14.109 14.109 0 100-28.218zm-14.055 35.7a7.512 7.512 0 11-7.512-7.512h7.458v.024h.054zm14.055-14.089h-7.507v-7.512a7.512 7.512 0 117.508 7.507z"
    fill="#3c6eb4"
  />
  <path
    d="M42.024 7.526a11.336 11.336 0 00-3.12-.421A14.119 14.119 0 0024.79 21.244v7.482h-5.912a3.287 3.287 0 10-.034 6.573h4.89a1.051 1.051 0 011.051 1.051v6.47a7.453 7.453 0 01-7.453 7.438c-1.389 0-1.736-.181-2.685-.181a3.12 3.12 0 00-3.335 3.179 3.648 3.648 0 002.9 3.252 11.322 11.322 0 003.115.416 14.119 14.119 0 0014.124-14.113v-7.482h5.908a3.287 3.287 0 10.034-6.573h-4.891a1.051 1.051 0 01-1.051-1.051V21.22a7.448 7.448 0 017.448-7.438c1.394 0 1.736.186 2.69.186a3.116 3.116 0 003.33-3.179 3.644 3.644 0 00-2.9-3.252"
    fill="#fff"
  /></svg>
