<svg width="68" height="68" viewBox="0 0 68 68" fill="none" xmlns="http://www.w3.org/2000/svg">
<path d="M53.2578 10.9128L34.6641 0.177818C34.2532 -0.0592728 33.7468 -0.0592728 33.3359 0.177818L14.7422 10.9128C14.3313 11.1504 14.0781 11.5888 14.0781 12.063V21.641C14.0781 22.1152 14.3313 22.5541 14.7422 22.7912L19.3055 25.4257L14.7422 28.0612C14.3313 28.2983 14.0781 28.7367 14.0781 29.2108V38.7889C14.0781 39.2631 14.3313 39.702 14.7422 39.9391L19.3055 42.5735L14.7422 45.2085C14.3313 45.4456 14.0781 45.8845 14.0781 46.3587V55.9368C14.0781 56.4109 14.3313 56.8498 14.7422 57.0869L33.3359 67.8219C33.5414 67.9407 33.7707 67.9999 34 67.9999C34.2293 67.9999 34.4586 67.9407 34.6641 67.8219L53.2578 57.0869C53.6687 56.8498 53.9219 56.4109 53.9219 55.9368V46.3587C53.9219 45.8845 53.6687 45.4456 53.2578 45.2085L48.6939 42.5741L53.2578 39.9391C53.6687 39.702 53.9219 39.2631 53.9219 38.7889V29.2108C53.9219 28.7367 53.6687 28.2983 53.2578 28.0612L48.6945 25.4262L53.2578 22.7912C53.6687 22.5541 53.9219 22.1157 53.9219 21.641V12.0635C53.9219 11.5888 53.6687 11.1504 53.2578 10.9128ZM34 2.86156L49.9375 12.0635L34 21.2649L18.0625 12.0635L34 2.86156ZM16.7344 14.3633L32.6719 23.5653V30.0757L16.7344 20.8743V14.3633ZM16.7344 31.5112L32.6719 40.7131V47.2235L16.7344 38.0221V31.5112ZM16.7344 48.659L32.6719 57.8605V64.3714L16.7344 55.17V48.659ZM35.3281 64.3714V57.861L51.2656 48.659V55.17L35.3281 64.3714ZM49.9375 46.3587L34 55.5601L18.0625 46.3587L21.9618 44.1071L33.3359 50.6741C33.5414 50.7929 33.7707 50.852 34 50.852C34.2293 50.852 34.4586 50.7929 34.6641 50.6741L46.0377 44.1076L49.9375 46.3587ZM35.3281 47.2235V40.7131L51.2656 31.5117V38.0221L35.3281 47.2235ZM49.9375 29.2108L34 38.4128L18.0625 29.2108L21.9618 26.9598L33.3359 33.5262C33.5414 33.645 33.7707 33.7042 34 33.7042C34.2293 33.7042 34.4586 33.645 34.6641 33.5262L46.0382 26.9598L49.9375 29.2108ZM35.3281 30.0762V23.5653L51.2656 14.3639V20.8743L35.3281 30.0762Z" fill="black"/>
<path d="M62.1562 34.5166C61.8071 34.5166 61.4642 34.6577 61.2172 34.9057C60.9703 35.1526 60.8281 35.494 60.8281 35.8447C60.8281 36.1939 60.9703 36.5368 61.2172 36.7838C61.4642 37.0307 61.8071 37.1729 62.1562 37.1729C62.5054 37.1729 62.8483 37.0307 63.0953 36.7838C63.3422 36.5368 63.4844 36.1939 63.4844 35.8447C63.4844 35.494 63.3422 35.1516 63.0953 34.9057C62.8483 34.6577 62.5054 34.5166 62.1562 34.5166Z" fill="#1D73F8"/>
<path d="M66.6719 13.8784C66.6719 11.3887 64.6465 9.36279 62.1562 9.36279C59.6665 9.36279 57.6406 11.3887 57.6406 13.8784C57.6406 15.9064 58.9843 17.6262 60.8281 18.1948V29.8678C60.8281 30.6014 61.4227 31.1959 62.1562 31.1959C62.8898 31.1959 63.4844 30.6014 63.4844 29.8678V18.1948C65.3282 17.6262 66.6719 15.9064 66.6719 13.8784ZM62.1562 15.7378C61.1311 15.7378 60.2969 14.9041 60.2969 13.8784C60.2969 12.8533 61.1311 12.019 62.1562 12.019C63.1814 12.019 64.0156 12.8533 64.0156 13.8784C64.0156 14.9041 63.1814 15.7378 62.1562 15.7378Z" fill="#1D73F8"/>
<path d="M5.84375 60.4126C5.11017 60.4126 4.51562 61.0077 4.51562 61.7407V66.6719C4.51562 67.4055 5.11017 68 5.84375 68C6.57733 68 7.17188 67.4055 7.17188 66.6719V61.7407C7.17188 61.0071 6.57733 60.4126 5.84375 60.4126Z" fill="#1D73F8"/>
<path d="M5.84375 35.2588C3.35403 35.2588 1.32812 37.2847 1.32812 39.7744C1.32812 41.8024 2.67181 43.5222 4.51562 44.0903V55.107C4.51562 55.8406 5.11017 56.4351 5.84375 56.4351C6.57733 56.4351 7.17188 55.8406 7.17188 55.107V44.0903C9.01569 43.5217 10.3594 41.8024 10.3594 39.7744C10.3594 37.2847 8.33398 35.2588 5.84375 35.2588ZM5.84375 41.6338C4.8186 41.6338 3.98438 40.8001 3.98438 39.7744C3.98438 38.7493 4.8186 37.915 5.84375 37.915C6.8689 37.915 7.70312 38.7493 7.70312 39.7744C7.70312 40.8001 6.8689 41.6338 5.84375 41.6338Z" fill="#1D73F8"/>
</svg>
