<?xml version="1.0" encoding="utf-8"?>
<!-- Generator: Adobe Illustrator 26.0.3, SVG Export Plug-In . SVG Version: 6.00 Build 0)  -->
<svg version="1.1" id="body_1" xmlns="http://www.w3.org/2000/svg" xmlns:xlink="http://www.w3.org/1999/xlink" x="0px" y="0px"
	 viewBox="0 0 147 110" style="enable-background:new 0 0 147 110;" xml:space="preserve">
<style type="text/css">
	.st0{fill:#5AC8F5;}
	.st1{fill:#393F45;}
</style>
<g transform="matrix(0.34571967 0 0 0.34571967 -0 1.1005782)">
	<path class="st0" d="M216.2,104.4c13.9,1,25.5,6.8,34.6,17.3c9.2,10.6,13.2,22.8,12.2,36.7c-1,13.9-6.8,25.5-17.3,34.6
		c-10.6,9.2-22.8,13.2-36.7,12.2c-13.9-1-25.5-6.8-34.6-17.3c-9.2-10.6-13.2-22.8-12.2-36.7c1-13.9,6.8-25.5,17.3-34.6
		C190,107.5,202.3,103.4,216.2,104.4c0.6,0,1.2,0.1,1.8,0.2"/>
	<path class="st1" d="M303.3,64.2c-38.7-38.7-97.6-48.6-146.7-24.7s-77.8,76.3-71.3,130.6c6.5,54.3,46.7,98.5,100.1,110.1
		c2.7,0.6,5.4-1.1,5.9-3.8s-1.1-5.4-3.8-5.9c-55-11.9-94-61-93.3-117.3C95,96.8,135.3,48.8,190.7,38.4S301,58,322.2,110.2
		c21.2,52.2,2.7,112.1-44.2,143.2c-0.5,0.1-1,0.3-1.4,0.6c-5.7,4-11.9,7.3-18.4,9.8c-4.7,1.9-9.7,2.9-14.7,3
		c-3.5,0.1-7-0.7-10.2-2.2c-2.2-1.1-4.1-2.6-5.8-4.4c-2.8-3.2-4.9-7.1-6.1-11.2c-1.4-4.8-2.2-9.8-2.2-14.8c0-0.2,0-0.3,0-0.5
		c0-1.2,0-2.5-0.1-3.8c0.3-7.6,1.6-15.2,3.9-22.5c4.1-12.7,11.3-24.2,20.9-33.4c9.5-9.4,22-17.8,37.7-25.1l0,0l-6.2,11.2
		c-0.9,1.6-0.8,3.5,0.1,5c0.9,1.5,2.6,2.5,4.4,2.4c1.8,0,3.4-1,4.3-2.6l0,0l11.7-21.2c0.6-1.2,0.8-2.5,0.4-3.8s-1.2-2.4-2.4-3l0,0
		l-21.2-11.7c-1.6-0.9-3.5-0.9-5.1,0c-1.6,0.9-2.5,2.6-2.5,4.4c0,1.8,1.1,3.5,2.7,4.3l0,0l10,5.6c-10.2,4.5-19.8,10.2-28.8,16.7
		c-13.3,9.9-23.3,21.4-30,34.3l0,0V89.8l8.3,8.3c2,1.9,5.1,1.9,7-0.1c1.9-1.9,2-5,0.1-7l0,0L217.4,74c-2-2-5.1-2-7.1,0l0,0
		l-17.1,17.1c-1.9,2-1.9,5.1,0.1,7c1.9,1.9,5,2,7,0.1l0,0l8.8-8.8v101.4c-4.5-8.7-10.4-16.7-17.4-23.5
		c-10.7-10.6-24.5-19.8-41.4-27.5l0,0l9.9-5.5c2.4-1.4,3.2-4.4,1.9-6.8c-1.3-2.4-4.3-3.3-6.7-2l0,0l-21.2,11.7c-1.2,0.6-2,1.7-2.4,3
		c-0.4,1.3-0.2,2.6,0.4,3.8l0,0l11.7,21.2c1.3,2.4,4.4,3.3,6.8,1.9c2.4-1.3,3.3-4.4,1.9-6.8l0,0l-6.2-11.3c9.5,4.3,18.6,9.6,27,15.8
		c12.3,9.2,21.1,19.6,27,31.1c5.4,10.7,8.3,22.4,8.6,34.3l0,0v0.2c0,1.2-0.1,2.3-0.1,3.5c0,0.3,0,0.7,0.1,1
		c0.1,5.1,0.8,10.2,2.1,15.2c1,3.8,2.5,7.5,4.5,11c2.7,4.8,6.7,8.9,11.5,11.7c5,2.8,10.6,4.2,16.3,4.1c5.3,0,10.5-0.9,15.5-2.6
		c0.6,0,1.2-0.1,1.8-0.4c39.9-16.2,69-51.2,77.5-93.4C346.8,138.2,333.7,94.6,303.3,64.2z"/>
</g>
</svg>
