<?xml version="1.0" encoding="UTF-8"?><svg xmlns="http://www.w3.org/2000/svg" viewBox="0 0 147 110"><defs><style>.a{fill:#393f45;}.b{fill:#5ac8f5;}</style></defs><path class="b" d="M64.04,29.47c-14.08,0-25.53,11.45-25.53,25.53s11.45,25.53,25.53,25.53,25.53-11.45,25.53-25.53-11.45-25.53-25.53-25.53Zm0,29.74c-2.32,0-4.2-1.89-4.2-4.2s1.89-4.2,4.2-4.2,4.2,1.89,4.2,4.2-1.89,4.2-4.2,4.2Z"/><path class="a" d="M36.76,55c0,15.07,12.22,27.28,27.28,27.28s27.28-12.22,27.28-27.28-12.22-27.28-27.28-27.28-27.28,12.22-27.28,27.28Zm51.07,0c0,13.11-10.67,23.78-23.78,23.78s-23.78-10.67-23.78-23.78,10.67-23.78,23.78-23.78,23.78,10.67,23.78,23.78Zm-29.74,0c0,3.29,2.67,5.95,5.95,5.95s5.95-2.67,5.95-5.95-2.67-5.95-5.95-5.95-5.95,2.67-5.95,5.95Zm8.41,0c0,1.35-1.1,2.45-2.45,2.45s-2.45-1.1-2.45-2.45,1.1-2.45,2.45-2.45,2.45,1.1,2.45,2.45Zm70.56-24.21v48.42c0,6.45-5.22,11.67-11.67,11.67-.97,0-1.75-.78-1.75-1.75s.78-1.75,1.75-1.75c2.26,0,4.29-.91,5.78-2.39,1.48-1.48,2.39-3.52,2.39-5.78V30.79c0-2.26-.91-4.29-2.39-5.78-1.48-1.48-3.52-2.39-5.78-2.39H21.61c-2.26,0-4.29,.91-5.78,2.39-1.48,1.48-2.39,3.52-2.39,5.78v48.42c0,2.26,.91,4.29,2.39,5.78,1.48,1.48,3.52,2.39,5.78,2.39H105.79c2.26,0,4.29-.91,5.78-2.39,1.48-1.48,2.39-3.52,2.39-5.78V32.83h0c0-.97,.78-1.75,1.75-1.75s1.75,.78,1.75,1.75v46.38c0,6.45-5.22,11.67-11.67,11.67H21.61c-6.45,0-11.67-5.22-11.67-11.67V30.79c0-6.45,5.22-11.67,11.67-11.67H125.39c6.45,0,11.67,5.22,11.67,11.67Z"/></svg>