<?xml version="1.0" encoding="utf-8"?>
<!-- Generator: Adobe Illustrator 26.0.3, SVG Export Plug-In . SVG Version: 6.00 Build 0)  -->
<svg version="1.1" id="body_1" xmlns="http://www.w3.org/2000/svg" xmlns:xlink="http://www.w3.org/1999/xlink" x="0px" y="0px"
	 viewBox="0 0 147 110" style="enable-background:new 0 0 147 110;" xml:space="preserve">
<style type="text/css">
	.st0{fill:#5AC8F5;}
	.st1{fill:#393F45;}
</style>
<g transform="matrix(0.34571967 0 0 0.34571967 -0 1.1005782)">
	<path class="st0" d="M136.8,277.1l8,11.1H49.2c-7.5,0-14.7-3-20-8.3c-5.3-5.3-8.3-12.5-8.3-20l0,0V143.5c0-7.5,3-14.7,8.3-20
		c5.3-5.3,12.5-8.3,20-8.3l0,0h87.7V277.1z M284.5,190.3c-6.2,0-11.2,5-11.2,11.2s5,11.2,11.2,11.2s11.2-5,11.2-11.2
		C295.6,195.3,290.6,190.3,284.5,190.3z M370.1,97.1c0-8.5-3.4-16.6-9.3-22.6c-6-6-14.1-9.4-22.6-9.3l0,0H87c-2.8,0-5,2.2-5,5
		c0,2.8,2.2,5,5,5l0,0h251.2c5.8,0,11.4,2.3,15.5,6.4c4.1,4.1,6.4,9.7,6.4,15.5l0,0v117.7c0,2.8,2.2,5,5,5c2.8,0,5-2.2,5-5V97.1z
		 M407.7,169.2V51.5c0-8.5-3.4-16.6-9.3-22.6c-6-6-14.1-9.3-22.6-9.3l0,0H124.6c-2.8,0-5,2.2-5,5s2.2,5,5,5l0,0h251.2
		c5.8,0,11.4,2.3,15.5,6.4c4.1,4.1,6.4,9.7,6.4,15.5l0,0v117.7c0,2.8,2.2,5,5,5S407.7,171.9,407.7,169.2L407.7,169.2z"/>
	<path class="st1" d="M60,144.4c2.8,0,5,2.2,5,5l0,0v104.2c0,1.8-1,3.4-2.5,4.3c-1.5,0.9-3.5,0.9-5,0c-1.5-0.9-2.5-2.5-2.5-4.3l0,0
		V149.4C55,146.6,57.2,144.4,60,144.4z M284.5,217.7c-8.9,0-16.2-7.2-16.2-16.2c0-8.9,7.2-16.2,16.2-16.2s16.2,7.2,16.2,16.2
		c0,4.3-1.7,8.4-4.7,11.4S288.8,217.7,284.5,217.7L284.5,217.7z M284.5,207.7c2.5,0,4.7-1.5,5.7-3.8c1-2.3,0.4-5-1.3-6.7
		s-4.4-2.3-6.7-1.3c-2.3,1-3.8,3.2-3.8,5.7C278.3,204.9,281.1,207.6,284.5,207.7L284.5,207.7z M98.6,144.4c-2.8,0-5,2.2-5,5l0,0
		v104.2c0,2.8,2.2,5,5,5c2.8,0,5-2.2,5-5l0,0V149.4C103.6,146.6,101.4,144.4,98.6,144.4z M323.2,120.1c-6-6-14.1-9.4-22.6-9.3l0,0
		H49.4c-8.5,0-16.6,3.4-22.6,9.3s-9.4,14.1-9.4,22.6l0,0v117.7c0,8.4,2.6,16.4,7.7,22.3c2.5,3,5.7,5.4,9.3,7.1
		c3.8,1.7,7.9,2.6,12.1,2.6l0,0h51.8c1.8,0,3.4-1,4.3-2.5c0.9-1.5,0.9-3.5,0-5c-0.9-1.5-2.5-2.5-4.3-2.5l0,0H46.5
		c-2.7,0-5.4-0.5-7.9-1.6c-3.4-1.6-6.3-4.3-8.1-7.6c-2.1-3.9-3.1-8.2-3.1-12.6l0,0V142.6c0-5.8,2.3-11.4,6.4-15.5s9.7-6.4,15.5-6.4
		l0,0h251.2c12.1,0,21.9,9.8,21.9,21.9l0,0v117.7c0,12.1-9.8,21.9-21.9,21.9l0,0h-150c-2.2,0-4.4-0.9-6-2.5c-1.6-1.6-2.5-3.7-2.5-6
		l0,0V149.4c0-2.8-2.2-5-5-5s-5,2.2-5,5l0,0v124.4c0,4.9,1.9,9.6,5.4,13.1c3.5,3.5,8.2,5.4,13.1,5.4l0,0h150
		c8.5,0,16.6-3.4,22.6-9.3c6-6,9.3-14.1,9.3-22.6l0,0V142.6C332.6,134.2,329.2,126.1,323.2,120.1z"/>
</g>
</svg>
