<svg xmlns="http://www.w3.org/2000/svg" width="147" height="110">
  <path d="M90.755 51.237v19a4.158 4.158 0 0 1-4.152 4.153H61.009a4.158 4.158 0 0 1-4.152-4.152V51.237a4.158 4.158 0 0 1 4.152-4.152h25.594a4.158 4.158 0 0 1 4.152 4.152zm32.27 11.595h-8.82a4.9 4.9 0 0 0-4.899 4.9v3.92a4.9 4.9 0 0 0 4.899 4.898h8.82a4.9 4.9 0 0 0 4.898-4.898v-3.92a4.9 4.9 0 0 0-4.899-4.9zM98.823 6.134h-8.82a4.9 4.9 0 0 0-4.898 4.9v3.92a4.9 4.9 0 0 0 4.899 4.898h8.819a4.9 4.9 0 0 0 4.899-4.898v-3.92a4.9 4.9 0 0 0-4.899-4.9zM32.792 57.992h-8.82a4.9 4.9 0 0 0-4.899 4.9v3.92a4.9 4.9 0 0 0 4.9 4.898h8.819a4.9 4.9 0 0 0 4.898-4.898v-3.92a4.9 4.9 0 0 0-4.898-4.9z" fill="#5AC8F5"/>
  <path d="M47.72 23.137v3.92a4.9 4.9 0 0 1-4.9 4.9h-8.818a4.9 4.9 0 0 1-4.9-4.9v-3.92a4.9 4.9 0 0 1 4.9-4.9h8.819a4.9 4.9 0 0 1 4.899 4.9zm51.107 67.01h-8.819a4.9 4.9 0 0 0-4.899 4.9v3.92a4.9 4.9 0 0 0 4.9 4.899h8.818a4.9 4.9 0 0 0 4.9-4.9v-3.92a4.9 4.9 0 0 0-4.9-4.898z" fill="#FFF"/>
  <path d="M86.603 45.356h-.083V41.84c0-3.505-1.425-6.696-3.724-8.992a12.686 12.686 0 0 0-8.992-3.723 12.686 12.686 0 0 0-8.992 3.723 12.686 12.686 0 0 0-3.723 8.992v3.516h-.083a5.88 5.88 0 0 0-5.881 5.88v19.002a5.88 5.88 0 0 0 5.88 5.88H86.6a5.88 5.88 0 0 0 5.881-5.88V51.237a5.88 5.88 0 0 0-5.88-5.88h.003zM64.549 41.84a9.217 9.217 0 0 1 2.71-6.544 9.22 9.22 0 0 1 6.549-2.71 9.217 9.217 0 0 1 6.544 2.71 9.217 9.217 0 0 1 2.71 6.544v3.516H64.547V41.84zm24.477 28.398a2.426 2.426 0 0 1-2.423 2.423H61.009a2.426 2.426 0 0 1-2.423-2.423V51.237a2.426 2.426 0 0 1 2.423-2.424h25.594a2.426 2.426 0 0 1 2.423 2.424v19zM78.105 57.944a4.28 4.28 0 0 1-1.718 3.436v4.72c0 .95-.771 1.718-1.718 1.718H72.95c-.95 0-1.718-.771-1.718-1.719V61.38a4.297 4.297 0 1 1 6.876-3.436zm49.552 5.158a6.54 6.54 0 0 0-4.633-1.919h-1.338c.26-2.026.398-4.086.398-6.181 0-13.328-5.407-25.407-14.14-34.137a47.667 47.667 0 0 0-3.27-2.98 6.528 6.528 0 0 0 .698-2.928v-3.92c0-1.805-.736-3.45-1.919-4.63a6.54 6.54 0 0 0-4.632-1.918H90a6.547 6.547 0 0 0-5.735 3.384A48.342 48.342 0 0 0 73.8 6.725a48.092 48.092 0 0 0-29.48 10.047 6.596 6.596 0 0 0-1.51-.183h-8.82c-1.804 0-3.45.736-4.632 1.919a6.539 6.539 0 0 0-1.92 4.629v3.92a6.532 6.532 0 0 0 3.468 5.774A48.072 48.072 0 0 0 25.521 55c0 .45.01.896.024 1.342h-1.58c-1.804 0-3.45.737-4.632 1.919a6.539 6.539 0 0 0-1.92 4.629v3.92c0 1.805.737 3.45 1.92 4.63a6.54 6.54 0 0 0 4.632 1.918h5.176a48.334 48.334 0 0 0 10.52 15.78c8.733 8.732 20.812 14.139 34.136 14.139a48.35 48.35 0 0 0 10.469-1.148 6.54 6.54 0 0 0 5.732 3.381h8.82c1.804 0 3.45-.736 4.632-1.918a6.538 6.538 0 0 0 1.918-4.63v-3.92a6.546 6.546 0 0 0-.694-2.925A48.337 48.337 0 0 0 116.145 78.2h6.876c1.805 0 3.45-.736 4.633-1.918a6.538 6.538 0 0 0 1.918-4.63v-3.92c0-1.805-.736-3.45-1.918-4.63zM86.755 11.037c0-.903.36-1.705.95-2.3a3.231 3.231 0 0 1 2.3-.95h8.819a3.246 3.246 0 0 1 3.25 3.25v3.92c0 .902-.36 1.704-.951 2.3a3.231 3.231 0 0 1-2.299.95h-8.82a3.246 3.246 0 0 1-3.25-3.25v-3.92zm-56.007 12.1c0-.903.36-1.705.951-2.3a3.231 3.231 0 0 1 2.3-.95h8.818a3.246 3.246 0 0 1 3.25 3.25v3.92c0 .903-.36 1.705-.95 2.3a3.231 3.231 0 0 1-2.3.95h-8.819a3.246 3.246 0 0 1-3.25-3.25v-3.92zm-9.075 45.977a3.231 3.231 0 0 1-.95-2.299v-3.92c0-.903.359-1.705.95-2.3a3.231 3.231 0 0 1 2.3-.95h8.819a3.246 3.246 0 0 1 3.25 3.25v3.92c0 .902-.36 1.704-.951 2.299a3.231 3.231 0 0 1-2.3.95h-8.819a3.246 3.246 0 0 1-2.299-.95zm80.4 29.853c0 .902-.359 1.704-.95 2.299a3.231 3.231 0 0 1-2.299.95h-8.82a3.246 3.246 0 0 1-3.25-3.25v-3.92c0-.902.36-1.704.952-2.299a3.231 3.231 0 0 1 2.299-.95h8.819a3.246 3.246 0 0 1 3.25 3.25v3.92zm3.423-12.27c-.999 1-2.046 1.943-3.135 2.846a6.534 6.534 0 0 0-3.54-1.044H90c-1.804 0-3.45.736-4.632 1.918a6.539 6.539 0 0 0-1.92 4.63v3.733a45.041 45.041 0 0 1-9.648 1.044c-12.384 0-23.578-5.013-31.692-13.127a44.87 44.87 0 0 1-9.203-13.338 6.539 6.539 0 0 0 6.434-6.541v-3.92c0-1.805-.737-3.45-1.92-4.63a6.538 6.538 0 0 0-4.628-1.918h-3.783a43.18 43.18 0 0 1-.027-1.341 44.574 44.574 0 0 1 5.438-21.397h8.397c1.805 0 3.45-.736 4.63-1.919a6.538 6.538 0 0 0 1.918-4.629v-3.92a6.54 6.54 0 0 0-1.784-4.484 44.586 44.586 0 0 1 26.223-8.47c3.316 0 6.541.363 9.65 1.044v3.73c0 1.805.736 3.45 1.918 4.63a6.54 6.54 0 0 0 4.633 1.918h8.819c1.3 0 2.517-.387 3.54-1.044a44.455 44.455 0 0 1 3.136 2.849c8.114 8.117 13.127 19.311 13.127 31.692 0 2.098-.149 4.162-.429 6.181h-3.993c-1.805 0-3.45.736-4.633 1.919a6.538 6.538 0 0 0-1.918 4.629v3.92c0 1.805.736 3.45 1.918 4.63a6.513 6.513 0 0 0 2.745 1.638 44.831 44.831 0 0 1-6.82 8.771zm20.778-15.042c0 .902-.36 1.704-.95 2.3a3.231 3.231 0 0 1-2.3.95h-8.819a3.246 3.246 0 0 1-3.25-3.25v-3.92c0-.903.36-1.705.951-2.3a3.231 3.231 0 0 1 2.299-.95h8.82a3.246 3.246 0 0 1 3.25 3.25v3.92z" fill="#323C46"/>
</svg>
