<svg xmlns="http://www.w3.org/2000/svg" width="147" height="110">
  <path d="M132.594 57.598v3.92a4.9 4.9 0 0 1-4.899 4.9h-8.82a4.9 4.9 0 0 1-4.898-4.9v-3.92a4.9 4.9 0 0 1 4.899-4.899h8.819a4.9 4.9 0 0 1 4.899 4.9zM47.92 76.61H36.16a4.9 4.9 0 0 0-4.899 4.9v5.88a4.9 4.9 0 0 0 4.899 4.899H47.92a4.9 4.9 0 0 0 4.9-4.9v-5.88a4.9 4.9 0 0 0-4.9-4.899z" fill="#FFF"/>
  <path d="M92.065 46.991v10.78c0 3.789-3.07 6.859-6.859 6.859h-20.58c-3.79 0-6.86-3.07-6.86-6.86V46.992c0-3.789 3.07-6.859 6.86-6.859h20.58c3.79 0 6.86 3.07 6.86 6.86zM117.451 5.61H105.69a4.9 4.9 0 0 0-4.899 4.899v5.88a4.9 4.9 0 0 0 4.899 4.9h11.761a4.9 4.9 0 0 0 4.9-4.9v-5.88a4.9 4.9 0 0 0-4.9-4.9zm-89.327 13.21h-8.819a4.9 4.9 0 0 0-4.899 4.899v3.92a4.9 4.9 0 0 0 4.899 4.899h8.82a4.9 4.9 0 0 0 4.898-4.899v-3.92a4.9 4.9 0 0 0-4.899-4.9zm87.208 69.894h-11.761a4.9 4.9 0 0 0-4.9 4.899v5.88a4.9 4.9 0 0 0 4.9 4.9h11.761a4.9 4.9 0 0 0 4.899-4.9v-5.88a4.9 4.9 0 0 0-4.899-4.9z" fill="#5AC8F5"/>
  <path d="M69.555 47.482v9.801a1.73 1.73 0 0 1-3.457 0v-9.8a1.73 1.73 0 0 1 3.457 0zm11.952 1.47a3.429 3.429 0 1 0-.001 6.858 3.429 3.429 0 0 0 0-6.858zm52.732 8.646v3.92c0 1.805-.736 3.45-1.918 4.63a6.539 6.539 0 0 1-4.63 1.918h-8.819a6.532 6.532 0 0 1-4.629-1.918 6.538 6.538 0 0 1-1.919-4.63v-1.984l-18.61-2.873v1.11c0 2.344-.954 4.48-2.492 6.015a8.49 8.49 0 0 1-3.617 2.147l16.522 21.127h11.209c1.804 0 3.45.737 4.629 1.92a6.538 6.538 0 0 1 1.918 4.628v5.88c0 1.806-.736 3.451-1.918 4.63a6.538 6.538 0 0 1-4.63 1.919h-11.76a6.532 6.532 0 0 1-4.63-1.919 6.538 6.538 0 0 1-1.919-4.63v-5.88a6.532 6.532 0 0 1 3.506-5.794l-16.84-21.535H64.625a8.56 8.56 0 0 1-1.465-.128L52.349 76.696c.066.062.138.117.2.183a6.539 6.539 0 0 1 1.92 4.63v5.88c0 1.804-.737 3.45-1.92 4.629a6.538 6.538 0 0 1-4.629 1.919H36.16a6.532 6.532 0 0 1-4.63-1.919 6.538 6.538 0 0 1-1.918-4.63v-5.88c0-1.805.736-3.45 1.919-4.63a6.538 6.538 0 0 1 4.629-1.918H47.92c.46 0 .91.049 1.345.138L59.83 64.793a8.487 8.487 0 0 1-3.71-7.025v-10.78c0-.875.135-1.725.381-2.52l-23.63-12.325c-.038.041-.073.083-.11.124a6.538 6.538 0 0 1-4.63 1.919h-8.82a6.532 6.532 0 0 1-4.628-1.919 6.538 6.538 0 0 1-1.919-4.629v-3.92c0-1.805.736-3.45 1.919-4.63a6.538 6.538 0 0 1 4.629-1.918h8.82c1.804 0 3.45.736 4.628 1.918a6.538 6.538 0 0 1 1.92 4.63v3.92c0 .56-.08 1.1-.212 1.621l23.603 12.312a8.487 8.487 0 0 1 6.558-3.087h20.439l16.235-17.245c-.08-.073-.163-.142-.242-.218a6.538 6.538 0 0 1-1.919-4.63v-5.883c0-1.805.736-3.45 1.919-4.63a6.538 6.538 0 0 1 4.629-1.918h11.761c1.805 0 3.45.736 4.63 1.918a6.538 6.538 0 0 1 1.918 4.63v5.88c0 1.805-.736 3.45-1.918 4.63a6.538 6.538 0 0 1-4.63 1.918H105.69c-.456 0-.902-.048-1.331-.138l-15.526 16.49a8.45 8.45 0 0 1 2.389 1.681 8.487 8.487 0 0 1 2.492 6.015v6.334l18.759 2.897a6.53 6.53 0 0 1 1.77-3.253 6.538 6.538 0 0 1 4.63-1.919h8.819c1.804 0 3.45.737 4.629 1.919a6.538 6.538 0 0 1 1.918 4.63zm-31.802-41.21c0 .903.36 1.705.95 2.3.595.59 1.397.95 2.3.95h11.76a3.246 3.246 0 0 0 3.25-3.25v-5.88c0-.903-.359-1.705-.95-2.3a3.231 3.231 0 0 0-2.3-.95h-11.76a3.246 3.246 0 0 0-3.25 3.25v5.88zm-74.313 14.5a3.246 3.246 0 0 0 3.25-3.25v-3.92c0-.903-.36-1.705-.95-2.3a3.231 3.231 0 0 0-2.3-.95h-8.819a3.246 3.246 0 0 0-3.25 3.25v3.92c0 .902.36 1.704.95 2.3.596.59 1.398.95 2.3.95h8.82zm23.046 50.62c0-.902-.36-1.704-.95-2.299a3.231 3.231 0 0 0-2.3-.95H36.16a3.246 3.246 0 0 0-3.25 3.25v5.88c0 .902.36 1.704.95 2.299.595.591 1.397.95 2.3.95H47.92a3.246 3.246 0 0 0 3.25-3.25v-5.88zm64.166 8.85h-11.762a3.246 3.246 0 0 0-3.25 3.25v5.88c0 .903.36 1.705.951 2.3.595.591 1.397.95 2.3.95h11.76a3.246 3.246 0 0 0 3.25-3.25v-5.88c0-.902-.36-1.704-.95-2.299a3.231 3.231 0 0 0-2.3-.95zm-24.92-43.37c0-1.445-.58-2.738-1.525-3.685a5.174 5.174 0 0 0-3.685-1.525h-20.58c-1.446 0-2.739.58-3.686 1.525a5.174 5.174 0 0 0-1.525 3.685v10.78c0 1.445.581 2.738 1.525 3.685a5.188 5.188 0 0 0 3.685 1.524h20.581c1.445 0 2.738-.58 3.685-1.524a5.174 5.174 0 0 0 1.525-3.686V46.988zm40.529 10.607c0-.903-.36-1.705-.95-2.3a3.231 3.231 0 0 0-2.3-.95h-8.82a3.246 3.246 0 0 0-3.249 3.25v3.92c0 .902.36 1.704.95 2.3.595.59 1.397.95 2.3.95h8.819a3.246 3.246 0 0 0 3.25-3.25v-3.92z" fill="#323C46"/>
</svg>
