<?xml version="1.0" encoding="UTF-8"?><svg xmlns="http://www.w3.org/2000/svg" viewBox="0 0 147 110"><defs><style>.a{fill:#5ac8f5;}.b{fill:#323c46;}</style></defs><path class="a" d="M87.22,80.3l5.71,22.61H53.73l5.87-22.61h27.62ZM132.27,7.9H14.79c-2.74,0-4.96,2.22-4.96,4.96v5.95h127.4v-5.95c0-2.74-2.22-4.96-4.96-4.96Zm-35.51,41.29l-21.35-16.38c-.31-.24-.69-.36-1.07-.36-.26,0-.53,.06-.77,.18-.6,.29-.98,.9-.98,1.57v26.45c0,.68,.4,1.31,1.02,1.59,.23,.11,.48,.16,.73,.16,.41,0,.82-.15,1.15-.43l5.34-4.63,4.71,9.64c.3,.62,.93,.98,1.57,.98,.26,0,.52-.06,.77-.18l5.21-2.54c.42-.2,.74-.57,.89-1.01,.15-.44,.12-.92-.08-1.34l-4.65-9.47,6.73-1.13c.69-.12,1.24-.63,1.41-1.3,.17-.68-.08-1.39-.63-1.81ZM30.59,34.1h-12.94c-.97,0-1.75,.78-1.75,1.75s.78,1.75,1.75,1.75h12.94c.97,0,1.75-.78,1.75-1.75s-.78-1.75-1.75-1.75Zm0,11.2h-12.94c-.97,0-1.75,.78-1.75,1.75s.78,1.75,1.75,1.75h12.94c.97,0,1.75-.78,1.75-1.75s-.78-1.75-1.75-1.75Zm0,11.2h-12.94c-.97,0-1.75,.78-1.75,1.75s.78,1.75,1.75,1.75h12.94c.97,0,1.75-.78,1.75-1.75s-.78-1.75-1.75-1.75Z"/><path class="b" d="M137.25,25.68c-.97,0-1.75,.78-1.75,1.75h0s-.01,47.69-.01,47.69c0,.9-.36,1.7-.95,2.3-.59,.59-1.39,.95-2.3,.95H40.28V20.14h96.97c.46,0,.91-.19,1.24-.51,.33-.33,.51-.78,.51-1.24v-5.25c0-1.86-.76-3.56-1.98-4.77-1.22-1.22-2.91-1.98-4.77-1.98H14.75c-1.86,0-3.56,.76-4.77,1.98-1.22,1.22-1.98,2.91-1.98,4.77v61.98c0,1.86,.76,3.56,1.98,4.77,1.22,1.22,2.91,1.98,4.77,1.98H57.16l-5.13,19.54c-.14,.53-.02,1.08,.31,1.51s.84,.68,1.39,.68h39.2c.54,0,1.05-.25,1.39-.68,.33-.43,.45-.99,.31-1.51l-5.13-19.54h42.73c1.86,0,3.56-.76,4.77-1.98,1.22-1.22,1.98-2.91,1.98-4.77V27.43c.01-.97-.77-1.75-1.74-1.75ZM12.46,10.84c.59-.59,1.39-.95,2.3-.95h117.49c.9,0,1.7,.36,2.3,.95,.59,.59,.95,1.39,.95,2.3v3.5H11.5v-3.5c0-.9,.36-1.7,.95-2.3Zm0,66.58c-.59-.59-.95-1.39-.95-2.3V20.14h25.27v58.23H14.75c-.9,0-1.7-.36-2.3-.95Zm78.21,22.69H56l4.78-18.23h25.1l4.78,18.23Zm8.43-48.69c.34-1.35-.16-2.77-1.27-3.62l-21.35-16.38c-.62-.48-1.37-.72-2.13-.72-.53,0-1.06,.12-1.55,.36-1.2,.59-1.95,1.81-1.95,3.14v26.45c0,1.37,.8,2.61,2.05,3.18,.47,.21,.96,.32,1.45,.32,.83,0,1.64-.29,2.29-.85l3.62-3.14,3.72,7.6c.61,1.24,1.85,1.96,3.15,1.96,.52,0,1.04-.11,1.53-.36l5.21-2.54c.83-.41,1.47-1.13,1.77-2.01,.3-.88,.24-1.84-.17-2.68l-3.61-7.36,4.42-.74c1.37-.23,2.48-1.25,2.82-2.61Zm-12.44,.67l5.68,11.58-5.21,2.54-5.71-11.69-7.06,6.11v-26.45l21.35,16.38-9.05,1.52Z"/></svg>