<svg xmlns="http://www.w3.org/2000/svg" width="147" height="110">
  <path d="m112.608 10.867-18.358 1.01a7.28 7.28 0 0 0-4.816 2.074L45.922 57.453c-1.068 1.072-.878 2.994.425 4.297l12.692 6.49 6.489 12.69c1.303 1.304 3.225 1.49 4.294.422l43.512-43.512a7.302 7.302 0 0 0 2.074-4.816l1.01-18.357c.09-1.995-1.815-3.91-3.81-3.8z" fill="#FFF"/>
  <path d="M77.59 26.044 50.216 53.53 36.107 39.752 47.17 28.343l15.557-.691 14.863-1.608zM73.88 77.63l13.74 12.944 11.408-10.026v-16.94l2.99-14.334z" fill="#5AC8F5"/>
  <path d="M118.143 14.504v.26l-1.01 18.357a9.556 9.556 0 0 1-.746 3.24 8.584 8.584 0 0 1-1.826 2.703L104.535 49.09a.045.045 0 0 1 0 .02c-2.766 9.463-3.982 18.151-3.982 25.473 0 1.463.048 2.873.141 4.222v.345a4.678 4.678 0 0 1-1.365 3.32l-8.135 8.134a4.667 4.667 0 0 1-6.607 0L73.804 79.82l-2.766 2.766c-.4.399-.879.708-1.407.909a4.318 4.318 0 0 1-1.58.29 5.376 5.376 0 0 1-3.754-1.625 1.808 1.808 0 0 1-.318-.435l-6.223-12.194-12.194-6.223a1.642 1.642 0 0 1-.435-.318 5.366 5.366 0 0 1-1.622-3.754 4.38 4.38 0 0 1 .287-1.577 4.014 4.014 0 0 1 .913-1.407l2.593-2.593-10.783-10.783a4.667 4.667 0 0 1 0-6.606l8.135-8.139a4.688 4.688 0 0 1 3.319-1.362h.345c1.349.097 2.756.145 4.222.145 7.322 0 16.01-1.22 25.472-3.986h.02l10.2-10.195a8.563 8.563 0 0 1 2.696-1.84 9.514 9.514 0 0 1 3.24-.742l18.357-1.013h.26a5.22 5.22 0 0 1 2.966.968 5.76 5.76 0 0 1 1.943 2.326 5.02 5.02 0 0 1 .453 2.071zM49.739 51.195 73.165 27.77c-7.523 1.774-14.493 2.593-20.643 2.593-1.542 0-3.03-.05-4.464-.152h-.093a1.217 1.217 0 0 0-.875.346l-8.134 8.135a1.213 1.213 0 0 0 0 1.718zm49.932 2.766L76.245 77.387 87.028 88.17a1.213 1.213 0 0 0 1.718 0l8.135-8.135a1.23 1.23 0 0 0 .346-.874v-.094a63.289 63.289 0 0 1-.152-4.463c.003-6.164.819-13.134 2.596-20.657zm15.011-39.377v-.07a1.75 1.75 0 0 0-.346-.988 2.295 2.295 0 0 0-.92-.775 3.039 3.039 0 0 0-.715-.148l-18.358 1.01a6.06 6.06 0 0 0-2.074.47 5.155 5.155 0 0 0-1.621 1.092L47.146 58.677a.532.532 0 0 0-.132.204.965.965 0 0 0-.055.345c.018.418.177.818.45 1.134l12.4 6.337c.323.168.587.431.754.754l6.348 12.415c.316.274.715.433 1.134.453a.902.902 0 0 0 .345-.059.64.64 0 0 0 .204-.128L112.11 36.62a5.186 5.186 0 0 0 1.092-1.625 6.02 6.02 0 0 0 .47-2.074l1.01-18.337zm-62.478 62.92a1.729 1.729 0 0 0-2.445-2.444l-7.343 7.354a1.729 1.729 0 1 0 2.445 2.444zm52.124-50.775-4.121-4.125a7.806 7.806 0 0 0-1.96-1.43 5.106 5.106 0 0 0-2.272-.589h-.242l-3.357.222a1.732 1.732 0 0 0 .215 3.457l3.36-.211h.024c.253.02.499.096.72.221a4.1 4.1 0 0 1 1.064.785l4.125 4.114c.318.312.586.671.795 1.065.124.222.2.469.221.722v.025l-.221 3.36a1.732 1.732 0 0 0 3.457.214l.21-3.36v-.239a5.12 5.12 0 0 0-.587-2.274 7.72 7.72 0 0 0-1.431-1.957zM38.064 69.363l-8.702 8.698a1.73 1.73 0 1 0 2.444 2.448l8.702-8.702a1.729 1.729 0 0 0-2.444-2.444zM55.47 86.766 44.32 97.902a1.729 1.729 0 1 0 2.444 2.444l11.15-11.15a1.729 1.729 0 1 0-2.444-2.443z" fill="#323C46"/>
  <path d="M80.484 46.794c.674.675.674 1.77 0 2.445L68.072 61.646a1.729 1.729 0 0 1-2.444-2.444l12.411-12.408a1.729 1.729 0 0 1 2.445 0z" fill="#5AC8F5"/>
</svg>
