<svg xmlns="http://www.w3.org/2000/svg" width="147" height="110">
  <path d="M21.535 42.048a4.899 4.899 0 0 1 4.899-4.9h68.68a4.899 4.899 0 0 1 4.9 4.9v28.231a4.899 4.899 0 0 1-4.9 4.899h-68.68a4.899 4.899 0 0 1-4.9-4.899V42.048z" fill="#5AC8F5"/>
  <path d="M66.032 9.197a1.729 1.729 0 0 1 1.325-2.053 49.065 49.065 0 0 1 10.43-1.11c.49 0 .985 0 1.473.02a1.73 1.73 0 0 1-.1 3.458c-.457 0-.913-.02-1.383-.02-3.255 0-6.5.348-9.68 1.036a1.729 1.729 0 0 1-2.065-1.33zm-13.296 7.776a45.744 45.744 0 0 1 6.185-3.427A1.729 1.729 0 0 0 57.49 10.4a49.092 49.092 0 0 0-6.652 3.672 1.729 1.729 0 1 0 1.898 2.89zm40.999 80.93a45.455 45.455 0 0 1-7.872 2.153 1.729 1.729 0 0 0 .608 3.402 48.962 48.962 0 0 0 8.474-2.317 1.729 1.729 0 1 0-1.21-3.239zm22.793-72.927A49.151 49.151 0 0 0 90.454 7.69a1.73 1.73 0 0 0-.892 3.343 45.635 45.635 0 0 1 13.919 81.818 1.729 1.729 0 0 0 1.95 2.856 49.092 49.092 0 0 0 11.097-70.724zM32.532 46.217v19.948a1.729 1.729 0 1 0 3.457 0V46.217a1.729 1.729 0 0 0-3.457 0zm62.316-10.866H26.873a6.828 6.828 0 0 0-6.821 6.825v28.03a6.821 6.821 0 0 0 6.824 6.825H34.8a1.729 1.729 0 1 0 0-3.457h-7.927a3.37 3.37 0 0 1-3.364-3.368v-28.03a3.37 3.37 0 0 1 3.367-3.368h67.972a3.37 3.37 0 0 1 3.368 3.368v28.03a3.37 3.37 0 0 1-3.368 3.368H49.027a.826.826 0 0 1-.82-.82V46.217a1.729 1.729 0 1 0-3.457 0v26.537a4.283 4.283 0 0 0 4.277 4.277h45.821a6.821 6.821 0 0 0 6.825-6.825v-28.03a6.828 6.828 0 0 0-6.825-6.825zM71.284 65.059l16.142-15.212a1.729 1.729 0 0 0-2.369-2.517L70.098 61.418l-6.14-5.794a1.73 1.73 0 1 0-2.371 2.517l7.34 6.914c.662.62 1.692.622 2.357.004zm2.939 35.57a45.345 45.345 0 0 1-17.034-4.76 1.729 1.729 0 1 0-1.563 3.07 48.778 48.778 0 0 0 18.323 5.124 1.734 1.734 0 1 0 .263-3.457z" fill="#393F45"/>
</svg>
