<?xml version="1.0" encoding="UTF-8"?><svg xmlns="http://www.w3.org/2000/svg" viewBox="0 0 147 110"><defs><style>.a{fill:#5ac8f5;}.b{fill:#323c46;}</style></defs><path class="a" d="M44.06,40.1h-9.68c-.09,0-.18,.04-.25,.1s-.1,.16-.1,.25v28c0,.09,.04,.18,.1,.25s.16,.1,.25,.1h9.49c4.34,0,7.84-1.35,10.25-3.84,2.41-2.49,3.7-6.1,3.69-10.54,0-4.43-1.29-8.02-3.67-10.5-2.38-2.48-5.84-3.82-10.08-3.82Zm7.48,18.44c-.54,1.75-1.45,3.02-2.76,3.87-1.3,.85-3.02,1.29-5.16,1.29h-3.82v-18.52h3.97c1.39,0,2.6,.19,3.63,.57,1.55,.57,2.69,1.55,3.48,2.98,.78,1.43,1.2,3.32,1.2,5.68,0,1.58-.18,2.96-.54,4.12Zm34.95-18.34c.07,.07,.1,.16,.1,.25v28c0,.09-.04,.18-.1,.25s-.16,.1-.25,.1h-4.51c-.11,0-.22-.06-.29-.15l-12.79-18.49v18.29c0,.09-.04,.18-.1,.25s-.16,.1-.25,.1h-5.07c-.09,0-.18-.04-.25-.1s-.1-.16-.1-.25v-28c0-.09,.04-.18,.1-.25s.16-.1,.25-.1h4.54c.11,0,.22,.06,.29,.15l12.79,18.52v-18.32c0-.09,.04-.18,.1-.25s.16-.1,.25-.1h5.04c.09,0,.18,.04,.25,.1Zm27.06,20.38h0c0,2.56-1.03,4.75-2.93,6.27-1.9,1.52-4.63,2.37-8.04,2.37-3.31,0-6.06-.79-8.02-2.34-1.96-1.54-3.1-3.83-3.2-6.7,0-.09,.03-.19,.1-.26,.07-.07,.16-.11,.25-.11h4.99c.18,0,.34,.14,.35,.33,.05,.69,.23,1.27,.51,1.77,.28,.5,.67,.91,1.15,1.25,.96,.67,2.3,1.02,3.83,1.02,1.2,0,2.24-.22,3.07-.6,.83-.38,1.44-.92,1.8-1.58,.24-.44,.37-.92,.37-1.46,0-.49-.12-.89-.32-1.24-.2-.35-.51-.66-.92-.94-.81-.56-2.04-.99-3.53-1.36h0s-3.19-.82-3.19-.82c-2.34-.6-4.26-1.5-5.61-2.78-1.36-1.29-2.12-2.98-2.11-5.07h0s0-.02,0-.02c0-2.57,1.16-4.75,3.07-6.24,1.91-1.5,4.56-2.34,7.56-2.34,3.05,0,5.62,.86,7.46,2.34,1.84,1.49,2.93,3.61,2.98,6.08,0,.09-.03,.19-.1,.25-.07,.07-.16,.11-.25,.11h-4.88c-.18,0-.33-.13-.35-.31-.12-1.1-.63-1.94-1.46-2.54-.83-.6-2.01-.94-3.47-.94-1.53,0-2.72,.37-3.51,.97-.79,.6-1.2,1.39-1.21,2.34h0s0,.04,0,.04c0,.52,.13,.94,.37,1.31,.23,.37,.58,.69,1,.97,.84,.56,2,.93,3.12,1.2h0s2.62,.66,2.62,.66h0c1.6,.38,3.18,.93,4.55,1.75,1.36,.82,2.51,1.9,3.21,3.33,.47,.95,.73,2.06,.74,3.32Z"/><path class="b" d="M107.86,17.9c0,.46-.19,.91-.51,1.24l-5.99,5.99c-.68,.68-1.79,.68-2.47,0s-.68-1.79,0-2.47l3.09-3.09H25.17c-3.63,0-6.9,1.47-9.29,3.85-2.38,2.38-3.85,5.65-3.85,9.29v44.65c0,3.63,1.47,6.9,3.85,9.29,2.38,2.38,5.65,3.85,9.29,3.85h5.62c.97,0,1.75,.78,1.75,1.75s-.78,1.75-1.75,1.75h-5.62c-4.59,0-8.76-1.86-11.76-4.87-3.01-3-4.87-7.17-4.87-11.76V32.69c0-4.59,1.86-8.76,4.87-11.76,3-3.01,7.17-4.87,11.76-4.87H101.8l-2.91-2.91c-.68-.68-.68-1.79,0-2.47,.68-.68,1.79-.68,2.47,0l5.99,5.99c.33,.33,.51,.78,.51,1.24Zm25.72,3.03c-3-3.01-7.17-4.87-11.76-4.87h-5.81c-.97,0-1.75,.78-1.75,1.75s.78,1.75,1.75,1.75h5.81c3.63,0,6.9,1.47,9.29,3.85,2.38,2.38,3.85,5.65,3.85,9.29v44.65c0,3.63-1.47,6.9-3.85,9.29-2.38,2.38-5.65,3.85-9.29,3.85H45.04l3.12-3.12c.68-.68,.68-1.79,0-2.47s-1.79-.68-2.47,0l-5.99,5.99c-.68,.68-.68,1.79,0,2.47l5.99,5.99c.68,.68,1.79,.68,2.47,0,.68-.68,.68-1.79,0-2.47h0l-2.88-2.88H121.83c4.59,0,8.76-1.86,11.76-4.87,3.01-3,4.87-7.17,4.87-11.76V32.69c0-4.59-1.86-8.76-4.87-11.76Z"/></svg>