<?xml version="1.0" encoding="utf-8"?>
<!-- Generator: Adobe Illustrator 26.0.3, SVG Export Plug-In . SVG Version: 6.00 Build 0)  -->
<svg version="1.1" id="body_1" xmlns="http://www.w3.org/2000/svg" xmlns:xlink="http://www.w3.org/1999/xlink" x="0px" y="0px"
	 viewBox="0 0 147 110" style="enable-background:new 0 0 147 110;" xml:space="preserve">
<style type="text/css">
	.st0{fill:#5AC8F5;}
	.st1{fill:#323C46;}
</style>
<g transform="matrix(0.34571967 0 0 0.34571967 -0 1.1005782)">
	<path class="st0" d="M246,147.4L169.4,224c-4.2,4.6-10.6,6.5-16.7,4.9c-6-1.5-10.7-6.2-12.3-12.3c-1.5-6,0.3-12.4,4.9-16.7l0,0
		l76.6-76.7c-1.9-10.3,1.7-20.8,9.5-27.8c7.8-7,18.7-9.4,28.7-6.4l0,0l-8.6,8.6c-4.4,4.4-4.4,11.6,0,16l0,0l4,4
		c4.4,4.4,11.6,4.4,16,0l0,0l8.6-8.5c3,10,0.6,20.9-6.3,28.7C266.8,145.7,256.3,149.3,246,147.4z M282.2,209.7c-0.8-2-2-3.9-3.6-5.4
		l0,0l-34.1-34c-1.3-1.3-3.1-1.8-4.9-1.4c-1.7,0.5-3.1,1.8-3.6,3.6c-0.5,1.7,0.1,3.6,1.4,4.9l0,0l34.1,34c1.2,1.2,1.9,2.8,1.9,4.5
		s-0.7,3.3-1.9,4.5l0,0l-2.1,2.1c-0.6,0.6-1.3,1.1-2.1,1.4c-2.4,1-5.1,0.4-6.9-1.4l0,0l-33.9-33.9c-2-1.9-5.1-1.9-7,0.1
		c-1.9,1.9-2,5-0.1,7l0,0l33.8,33.9c3.1,3,7.2,4.7,11.6,4.7c4.3,0,8.5-1.7,11.5-4.8l0,0l2.1-2.1c1.5-1.5,2.8-3.4,3.6-5.4
		C283.8,218.1,283.8,213.7,282.2,209.7L282.2,209.7z M143.9,119.9c1.7,1.7,3.7,3,5.9,3.9c2.1,0.9,4.4,1.3,6.7,1.3
		c0.5,0,1.1,0,1.6-0.1l0,0l19.8,19.8c2,1.9,5.1,1.9,7-0.1c1.9-1.9,2-5,0.1-7l0,0l-21.7-21.7c-1.3-1.3-3.1-1.7-4.8-1.3
		c-0.7,0.2-1.3,0.3-2,0.3c-1,0-2-0.2-2.9-0.6c-0.7-0.3-1.4-0.7-2-1.2l0,0L141.6,93l20.9,9.4c0.5,0.6,0.9,1.3,1.2,2
		c0.4,0.9,0.6,1.9,0.6,2.9c0,0.7-0.1,1.3-0.3,2c-0.5,1.7,0,3.6,1.3,4.8l0,0l22.4,22.3c2,1.9,5.1,1.9,7-0.1c1.9-1.9,2-5,0.1-7l0,0
		l-20.5-20.5c0.1-0.5,0.1-1.1,0.1-1.6c0-2.3-0.4-4.6-1.3-6.7c-0.9-2.2-2.2-4.2-3.9-5.9c-0.4-0.4-0.9-0.8-1.5-1l0,0l-26.7-12.1
		c-0.1-0.1-0.3-0.1-0.4-0.2c-0.9-0.3-1.8-0.4-2.7-0.4c-1.1,0-2.2,0.2-3.2,0.7c-4,1.7-6,6.3-4.4,10.4c0,0.1,0.1,0.3,0.2,0.4l0,0
		l12.6,26C143.2,119.1,143.5,119.5,143.9,119.9z"/>
	<path class="st1" d="M344.6,204.1c-0.1,0.4-0.1,0.7-0.3,1.1c-20.7,54.9-73.3,91.3-132,91.4c-3.1,0-6.2-0.1-9.3-0.3
		c-74.2-4.8-132-66.4-132.1-140.8c0-3.1,0.1-6.2,0.3-9.3c0.2-2.8,2.6-4.9,5.3-4.7c2.8,0.2,4.9,2.6,4.7,5.3c-0.2,2.9-0.3,5.8-0.3,8.6
		c0,22.1,5.6,43.8,16.2,63.1c0.2,0.3,0.4,0.6,0.6,0.9c11.6,20.6,28.5,37.7,49,49.5c40.6,23.3,90.6,23.2,131.1-0.3
		c40.5-23.5,65.4-66.8,65.4-113.7c0-2.2-0.1-4.4-0.2-6.5c0,0,0-0.1,0-0.1c-0.3-5.3-0.9-10.6-1.8-15.9c0-0.1,0-0.1,0-0.2
		c-0.2-1-0.3-1.9-0.5-2.9l0,0l-0.1-0.6c-2.5-12.4-6.9-24.4-12.9-35.6c-0.2-0.2-0.4-0.5-0.5-0.8C316,71.5,299.1,54,278.5,42
		c-37.6-22-83.7-23.9-123-5c-0.3,0.2-0.7,0.3-1,0.4c-29.1,14.3-51.9,38.8-64,68.9l0,0l11-4.7c2.5-1.1,5.5,0.1,6.6,2.6
		c1.1,2.5-0.1,5.5-2.6,6.6l0,0l-21.7,9.2c-1.2,0.6-2.6,0.6-3.9,0.1s-2.3-1.5-2.8-2.7l0,0l-9.2-21.7c-1.1-2.6,0.1-5.5,2.7-6.6
		c2.6-1.1,5.5,0.1,6.6,2.7l0,0l4.3,10.2C104.6,44.8,162.4,9.3,224,14.5c61.6,5.2,112.7,49.8,126.1,110.1c0,0,0,0.1,0,0.1
		c0.1,0.7,0.3,1.3,0.4,2c0,0.3,0.1,0.5,0.2,0.8c0.2,1,0.4,2,0.5,2.9c0,0.1,0,0.2,0.1,0.4C355.6,155.4,353.3,180.7,344.6,204.1
		L344.6,204.1L344.6,204.1z M141.8,196.4l74.8-74.8c-1-9.9,2.2-19.7,8.8-27.1c6.6-7.4,16.1-11.6,26-11.6c3.4,0,6.8,0.5,10.1,1.5
		c1.7,0.5,3,1.9,3.4,3.6c0.4,1.7-0.1,3.5-1.3,4.8l0,0l-8.6,8.6c-0.6,0.6-1.1,1.3-1.4,2.1c-0.6,1.5-0.6,3.2,0,4.8
		c0.3,0.8,0.8,1.5,1.4,2.1l0,0l4,4c1.2,1.2,2.8,1.9,4.5,1.9c0.8,0,1.6-0.2,2.4-0.5c0.8-0.3,1.5-0.8,2.1-1.4l0,0l8.6-8.6
		c1.2-1.2,3-1.7,4.8-1.3c1.7,0.4,3.1,1.7,3.6,3.4c3.4,11.2,0.9,23.4-6.5,32.4c-7.5,9-19,13.7-30.6,12.5l0,0L173,227.5
		c-5.6,5.6-13.7,7.7-21.3,5.7c-7.6-2-13.5-8-15.6-15.6S136.3,201.9,141.8,196.4L141.8,196.4z M145.4,211.9c0,3.2,1.3,6.2,3.5,8.5
		c1.1,1.1,2.5,2,4,2.6c2.9,1.2,6.1,1.2,9.1,0c1.5-0.6,2.9-1.5,4-2.6l0,0l76.6-76.6c1.2-1.2,2.8-1.7,4.4-1.4
		c6.9,1.3,14.1-0.4,19.7-4.7c5.6-4.3,9.2-10.7,9.8-17.7l0,0l-1.2,1.2c-3.1,3.1-7.2,4.8-11.5,4.8c-4.3,0-8.5-1.7-11.5-4.8l0,0l-4-4
		c-3.1-3.1-4.8-7.2-4.8-11.5c0-4.3,1.7-8.5,4.8-11.5l0,0l1.2-1.2c-12.9,1.1-22.8,11.9-22.8,24.9c0,1.5,0.1,3,0.4,4.5
		c0.3,1.6-0.2,3.3-1.4,4.4l0,0L149,203.4C146.7,205.7,145.5,208.7,145.4,211.9L145.4,211.9z"/>
</g>
</svg>
