<svg width="90" height="90" viewBox="0 0 90 90" fill="none" xmlns="http://www.w3.org/2000/svg">
<path d="M82.5625 8.4375V7.4375H81.5625H47.3438H42.75H8.4375H7.4375V8.4375V71.625V72.393L8.17952 72.5912L43.7848 82.0983C43.8497 82.1362 43.9044 82.1602 43.9369 82.1729C44.109 82.2403 44.2769 82.258 44.3587 82.2654C44.5341 82.2814 44.7613 82.2813 44.9653 82.2812H45C45.27 82.2812 45.4987 82.2475 45.6594 82.2182C45.6799 82.2145 45.7018 82.2104 45.7231 82.2062C45.7604 82.199 45.7958 82.1919 45.818 82.1875H45.8812L46.008 82.1536L81.8205 72.5912L82.5625 72.393V71.625V8.4375ZM43.1185 85.5697L43.1094 85.5671L43.1004 85.5647L5.34027 75.5391C4.96341 75.4186 4.57125 75.1369 4.26982 74.7493C3.96216 74.3538 3.8125 73.931 3.8125 73.5938V5.0625C3.8125 4.39603 4.39603 3.8125 5.0625 3.8125H42.6563H42.6634H42.6706H42.6778H42.685H42.6922H42.6995H42.7068H42.7141H42.7214H42.7287H42.7361H42.7435H42.7509H42.7583H42.7657H42.7732H42.7807H42.7882H42.7957H42.8033H42.8108H42.8184H42.826H42.8336H42.8413H42.8489H42.8566H42.8643H42.872H42.8798H42.8875H42.8953H42.9031H42.9109H42.9187H42.9266H42.9345H42.9423H42.9502H42.9582H42.9661H42.9741H42.982H42.99H42.9981H43.0061H43.0141H43.0222H43.0303H43.0384H43.0465H43.0546H43.0628H43.071H43.0791H43.0873H43.0956H43.1038H43.1121H43.1203H43.1286H43.1369H43.1452H43.1536H43.1619H43.1703H43.1787H43.1871H43.1955H43.2039H43.2124H43.2208H43.2293H43.2378H43.2463H43.2548H43.2634H43.2719H43.2805H43.2891H43.2976H43.3063H43.3149H43.3235H43.3322H43.3409H43.3495H43.3582H43.3669H43.3757H43.3844H43.3932H43.4019H43.4107H43.4195H43.4283H43.4371H43.446H43.4548H43.4637H43.4726H43.4814H43.4903H43.4993H43.5082H43.5171H43.5261H43.535H43.544H43.553H43.562H43.571H43.58H43.5891H43.5981H43.6072H43.6163H43.6253H43.6344H43.6435H43.6527H43.6618H43.6709H43.6801H43.6892H43.6984H43.7076H43.7168H43.726H43.7352H43.7444H43.7537H43.7629H43.7722H43.7815H43.7907H43.8H43.8093H43.8186H43.828H43.8373H43.8466H43.856H43.8653H43.8747H43.8841H43.8935H43.9029H43.9123H43.9217H43.9311H43.9405H43.95H43.9594H43.9689H43.9783H43.9878H43.9973H44.0068H44.0163H44.0258H44.0353H44.0448H44.0543H44.0639H44.0734H44.083H44.0925H44.1021H44.1117H44.1213H44.1308H44.1404H44.15H44.1596H44.1693H44.1789H44.1885H44.1982H44.2078H44.2174H44.2271H44.2368H44.2464H44.2561H44.2658H44.2755H44.2852H44.2949H44.3046H44.3143H44.324H44.3337H44.3434H44.3531H44.3629H44.3726H44.3824H44.3921H44.4019H44.4116H44.4214H44.4312H44.4409H44.4507H44.4605H44.4703H44.4801H44.4899H44.4997H44.5095H44.5193H44.5291H44.5389H44.5487H44.5585H44.5683H44.5782H44.588H44.5978H44.6077H44.6175H44.6273H44.6372H44.647H44.6569H44.6667H44.6766H44.6864H44.6963H44.7062H44.716H44.7259H44.7357H44.7456H44.7555H44.7654H44.7752H44.7851H44.795H44.8049H44.8147H44.8246H44.8345H44.8444H44.8543H44.8642H44.874H44.8839H44.8938H44.9037H44.9136H44.9235H44.9334H44.9432H44.9531H44.963H44.9729H44.9828H44.9927H45.0026H45.0125H45.0223H45.0322H45.0421H45.052H45.0619H45.0718H45.0816H45.0915H45.1014H45.1113H45.1212H45.131H45.1409H45.1508H45.1606H45.1705H45.1804H45.1902H45.2001H45.21H45.2198H45.2297H45.2395H45.2494H45.2592H45.2691H45.2789H45.2888H45.2986H45.3084H45.3183H45.3281H45.3379H45.3477H45.3576H45.3674H45.3772H45.387H45.3968H45.4066H45.4164H45.4262H45.436H45.4458H45.4555H45.4653H45.4751H45.4849H45.4946H45.5044H45.5141H45.5239H45.5336H45.5434H45.5531H45.5628H45.5726H45.5823H45.592H45.6017H45.6114H45.6211H45.6308H45.6405H45.6502H45.6598H45.6695H45.6792H45.6888H45.6985H45.7081H45.7177H45.7274H45.737H45.7466H45.7562H45.7658H45.7754H45.785H45.7946H45.8042H45.8137H45.8233H45.8328H45.8424H45.8519H45.8614H45.871H45.8805H45.89H45.8995H45.909H45.9185H45.9279H45.9374H45.9468H45.9563H45.9657H45.9752H45.9846H45.994H46.0034H46.0128H46.0222H46.0316H46.0409H46.0503H46.0596H46.069H46.0783H46.0876H46.0969H46.1062H46.1155H46.1248H46.1341H46.1433H46.1526H46.1618H46.171H46.1803H46.1895H46.1987H46.2078H46.217H46.2262H46.2353H46.2445H46.2536H46.2627H46.2718H46.2809H46.29H46.2991H46.3081H46.3172H46.3262H46.3352H46.3443H46.3533H46.3622H46.3712H46.3802H46.3891H46.3981H46.407H46.4159H46.4248H46.4337H46.4426H46.4514H46.4603H46.4691H46.4779H46.4867H46.4955H46.5043H46.5131H46.5218H46.5306H46.5393H46.548H46.5567H46.5654H46.5741H46.5827H46.5914H46.6H46.6086H46.6172H46.6258H46.6344H46.6429H46.6514H46.66H46.6685H46.677H46.6854H46.6939H46.7023H46.7108H46.7192H46.7276H46.736H46.7443H46.7527H46.761H46.7693H46.7776H46.7859H46.7942H46.8025H46.8107H46.8189H46.8271H46.8353H46.8435H46.8516H46.8598H46.8679H46.876H46.8841H46.8921H46.9002H46.9082H46.9162H46.9242H46.9322H46.9401H46.9481H46.956H46.9639H46.9718H46.9797H46.9875H46.9954H47.0032H47.011H47.0187H47.0265H47.0342H47.042H47.0496H47.0573H47.065H47.0726H47.0803H47.0879H47.0954H47.103H47.1105H47.1181H47.1256H47.1331H47.1405H47.148H47.1554H47.1628H47.1702H47.1775H47.1849H47.1922H47.1995H47.2068H47.214H47.2213H47.2285H47.2357H47.2429H47.25H84.9375C85.5622 3.8125 86.2234 4.36527 86.375 5.14763V73.5938C86.375 73.9941 86.2134 74.4394 85.9177 74.8197C85.6206 75.2017 85.2447 75.4461 84.9001 75.5256L84.8842 75.5293L84.8684 75.5335L47.0871 85.5647L47.0781 85.5671L47.069 85.5697C46.5203 85.7265 45.8656 85.8125 45.0938 85.8125C44.3219 85.8125 43.6672 85.7265 43.1185 85.5697Z" fill="black" stroke="white" stroke-width="2"/>
<path d="M6 17L84 16.9955" stroke="black" stroke-width="2" stroke-miterlimit="10"/>
<path d="M5 66L42.6364 76.7155C43.9091 77.0948 46 77.0948 47.2727 76.7155L85 66" stroke="black" stroke-width="2" stroke-miterlimit="10"/>
<path d="M26.625 38.9062C26.625 37.875 27.375 37.2188 28.3125 37.2188C29.3438 37.2188 30 37.875 30 38.9062C30 39.9375 29.25 40.6875 28.3125 40.6875C27.375 40.6875 26.625 39.9375 26.625 38.9062ZM26.25 42.1875H30V56.25H26.25V42.1875Z" fill="#1D73F8"/>
<path d="M31.9688 44.9063C31.9688 37.7813 35.625 33.75 41.0625 33.75C46.5 33.75 50.1563 37.875 50.1563 44.9063C50.1563 52.0313 46.5 56.25 41.0625 56.25C35.625 56.25 31.9688 52.0313 31.9688 44.9063ZM45.4688 44.9063C45.4688 40.5938 43.7813 37.9688 41.0625 37.9688C38.3438 37.9688 36.6562 40.5938 36.6562 44.9063C36.6562 49.3125 38.3438 52.0312 41.0625 52.0312C43.7813 52.0312 45.4688 49.2188 45.4688 44.9063Z" fill="#1D73F8"/>
<path d="M49.9688 53.1563L52.5 49.7812C53.9063 51.0937 55.7813 52.0313 57.375 52.0313C59.25 52.0313 60.0938 51.1875 60.0938 49.9688C60.0938 48.5625 58.9688 48.1875 57.2813 47.3438L54.75 46.125C52.6875 45.1875 50.8125 43.4063 50.8125 40.2188C50.8125 36.6563 53.7188 33.75 57.8438 33.75C60.0938 33.75 62.5313 34.7812 64.2188 36.6562L61.875 39.75C60.5625 38.625 59.3438 38.0625 57.75 38.0625C56.25 38.0625 55.2188 38.8125 55.2188 40.0313C55.2188 41.3438 56.5313 41.8125 58.2188 42.5625L60.75 43.6875C63.0938 44.7187 64.6875 46.5 64.6875 49.5938C64.6875 53.1563 61.9688 56.3438 57.2813 56.3438C54.6563 56.25 51.9375 55.2188 49.9688 53.1563Z" fill="#1D73F8"/>
</svg>
