<svg xmlns="http://www.w3.org/2000/svg" viewBox="0 0 127.202 53.902"><defs />
  <g fill-rule="evenodd">
    <path
      fill="#1b4c86"
      d="M102.845 0c1.224.293 21.835 9.975 24.094 29.807 1.813 10.638-6.161 18.4-12.42 21.361-1.571.742-7.135 3.3-8.943 2.236v-.249a3.633 3.633 0 01.124-1.862c1.354-.861 3.3-.964 4.968-1.615 3.924-1.531 7.871-3.787 10.06-7.08 9.012-13.556-3-30.718-12.3-35.892.754 6.567.472 10.2-3.726 12.668-2.03 1.194-4.7 1.133-6.458 2.484-2.862 2.2-2.765 4.841-4.223 5.961-.041-.124-2.484-.248-2.608-.745a14.079 14.079 0 016.831-8.943c2.279-1.135 5.253-.93 6.582-2.98 3.215-4.948-1.417-11.965-1.981-15.151z"
    />
    <path
      fill="#fc7d01"
      d="M112.533 15.525c11.327 8.473 10.6 30.376-7.576 31.173l.372-2.36c2.2-12.514-3.153-13.982-7.079-14.9.316-4.992 6.654-5.772 9.19-7.328 2.391-1.516 3.608-4.157 5.093-6.585z"
    />
    <path
      fill="#1b4c86"
      d="M.01 33.906h6.458v17.139h14.407v2.857H6.096C-.03 53.902.01 50.673.01 48.685c0-.912-.023-12.259 0-14.779z"
    />
    <path
      fill="#fc7d01"
      d="M50.189 33.906s22.766-1.111 24.963 1.863c2.008 2.722 1.237 18.13 1.237 18.13h-5.961s.342-15.928-1.366-17.015a2.289 2.289 0 00-2.732 0c-.772 4.961-.621 17.015-.621 17.015H60.37s.129-12.811-.621-16.891c-.21-.168-.494-1.074-3.85-.249.029 5.4.124 17.139.124 17.139h-5.834z"
    />
    <path
      fill="#1b4c86"
      d="M46.336 53.902s0-11.943-.019-12.936c.019-2.764-.569-4.456-1.224-5.321-2.136-2.612-20.617-1.739-20.617-1.739v20h5.838V46.33h9.812v7.576zm-16.022-10.06s.031-6.614 0-6.955c.311-.5 4.281-.248 5.837-.248 2.538-.033 3.938.551 3.974 2.609.062 1.985 0 4.6 0 4.6zM101.851 38.501a6.385 6.385 0 00-.745-3.1c-1.6-2.327-20.492-1.491-20.492-1.491v20h6.334v-8.818s12.509.495 14.158-1.366c.766-1.114.811-3.379.745-5.225zm-6.706 3.726c-1.839.887-8.2.5-8.2.5l-.124-5.961h8.569a27.7 27.7 0 01-.245 5.461z"
    />
  </g></svg>
