<svg width="90" height="90" viewBox="0 0 90 90" fill="none" xmlns="http://www.w3.org/2000/svg">
<path d="M37.9688 28.125C38.7454 28.125 39.375 27.4954 39.375 26.7188C39.375 25.9421 38.7454 25.3125 37.9688 25.3125C37.1921 25.3125 36.5625 25.9421 36.5625 26.7188C36.5625 27.4954 37.1921 28.125 37.9688 28.125Z" fill="black"/>
<path d="M46.4062 28.125C47.1829 28.125 47.8125 27.4954 47.8125 26.7188C47.8125 25.9421 47.1829 25.3125 46.4062 25.3125C45.6296 25.3125 45 25.9421 45 26.7188C45 27.4954 45.6296 28.125 46.4062 28.125Z" fill="black"/>
<path d="M85.7812 56.25H71.7144L65.1575 43.8646C64.4415 42.5079 63.3685 41.3726 62.0542 40.5814C60.74 39.7901 59.2346 39.373 57.7006 39.375H57.6562V21.5136C57.6507 16.5555 55.6786 11.802 52.1726 8.29612C48.6667 4.79019 43.9132 2.8181 38.9551 2.8125C33.474 2.81868 28.2191 4.9988 24.3433 8.87457C20.4676 12.7503 18.2874 18.0052 18.2812 23.4864V39.8602C16.2902 40.5669 14.6376 41.9962 13.6515 43.8646C13.6308 43.9038 13.6119 43.9438 13.595 43.9848L3.90041 67.4045C3.00051 69.5786 2.6506 71.9411 2.88167 74.2827C3.11274 76.6243 3.91765 78.8728 5.22513 80.8291C6.53261 82.7854 8.30231 84.3891 10.3775 85.4981C12.4527 86.6072 14.7694 87.1875 17.1224 87.1875H85.7812C86.1542 87.1875 86.5119 87.0393 86.7756 86.7756C87.0393 86.5119 87.1875 86.1542 87.1875 85.7812V57.6562C87.1875 57.2833 87.0393 56.9256 86.7756 56.6619C86.5119 56.3982 86.1542 56.25 85.7812 56.25ZM49.2188 39.375V38.3668C50.7108 36.6784 51.6592 34.5794 51.9402 32.3438H52.0312C53.0192 32.3445 53.9896 32.0834 54.8438 31.587V39.375H49.2188ZM39.375 47.23L32.3438 40.1987V38.3668C33.9329 40.1782 36.063 41.4298 38.4189 41.9366C40.7747 42.4433 43.231 42.1782 45.4245 41.1805L39.375 47.23ZM34.6147 23.9062C36.4811 23.9122 38.3253 23.5011 40.0125 22.7028C41.6996 21.9046 43.1871 20.7395 44.3662 19.2927C44.7117 20.3969 45.3422 21.3905 46.1941 22.1733C47.0461 22.9562 48.0893 23.5006 49.2188 23.7517V30.9375C49.2197 32.6459 48.7017 34.3144 47.7334 35.7219C46.765 37.1294 45.392 38.2096 43.7961 38.8194C42.2002 39.4293 40.4568 39.54 38.7966 39.137C37.1363 38.734 35.6377 37.8362 34.499 36.5625H37.9688V33.75H32.8275C32.507 32.847 32.3434 31.8957 32.3438 30.9375V23.9062H34.6147ZM54.8438 26.7188C54.8429 27.4644 54.5463 28.1793 54.019 28.7065C53.4918 29.2338 52.7769 29.5304 52.0312 29.5312V23.9062C52.7769 23.9071 53.4918 24.2037 54.019 24.731C54.5463 25.2582 54.8429 25.9731 54.8438 26.7188ZM47.8715 40.8402L47.8125 40.7812H47.8715V40.8402ZM29.5312 29.5312C28.7853 29.5312 28.07 29.2349 27.5425 28.7075C27.0151 28.18 26.7188 27.4647 26.7188 26.7188C26.7188 25.9728 27.0151 25.2575 27.5425 24.73C28.07 24.2026 28.7853 23.9062 29.5312 23.9062V29.5312ZM28.125 32.1657C28.5843 32.2842 29.0569 32.3441 29.5312 32.3438V33.75C29.1584 33.7496 28.801 33.6013 28.5374 33.3376C28.2737 33.074 28.1254 32.7166 28.125 32.3438V32.1657ZM30.355 42.1875L37.3863 49.2188L34.1352 52.4698L28.9941 42.1875H30.355ZM48.395 42.1875H49.7559L44.6148 52.4698L41.3637 49.2188L48.395 42.1875ZM21.0937 23.4864C21.0991 18.7509 22.9826 14.2109 26.3311 10.8624C29.6796 7.5139 34.2196 5.63036 38.9551 5.625C43.1676 5.62976 47.2062 7.30526 50.1848 10.2839C53.1635 13.2626 54.839 17.3012 54.8438 21.5136V21.8505C53.9896 21.3541 53.0192 21.093 52.0312 21.0938H50.625C49.7609 21.0919 48.924 20.7916 48.2558 20.2438C47.5876 19.696 47.1291 18.9342 46.9579 18.0873L46.379 15.1929C46.3195 14.8957 46.1657 14.6258 45.9404 14.4231C45.7151 14.2205 45.4303 14.096 45.1286 14.0683C44.8268 14.0406 44.5242 14.1111 44.2658 14.2694C44.0073 14.4276 43.8069 14.665 43.6943 14.9464C42.9739 16.7648 41.7222 18.3239 40.1026 19.4205C38.483 20.517 36.5706 21.1001 34.6147 21.0938H29.5312C28.4491 21.0929 27.3896 21.4045 26.4802 21.9911C25.5708 22.5777 24.8501 23.4144 24.4046 24.4006C23.9591 25.3869 23.8078 26.4808 23.9688 27.5509C24.1299 28.621 24.5965 29.6219 25.3125 30.4334V32.3438C25.3138 33.4622 25.7587 34.5346 26.5496 35.3254C27.3404 36.1163 28.4128 36.5612 29.5312 36.5625V39.375H21.1084C21.1035 39.375 21.0986 39.3753 21.0937 39.3753V23.4864ZM22.5722 69.351C22.6655 69.631 22.8446 69.8745 23.084 70.0471C23.3235 70.2197 23.6111 70.3125 23.9062 70.3125H32.3438V84.375H17.1224C15.2318 84.375 13.3705 83.9088 11.7032 83.0177C10.0358 82.1266 8.61394 80.8381 7.56343 79.2663C6.51293 77.6945 5.86622 75.8879 5.68057 74.0065C5.49492 72.1251 5.77606 70.227 6.4991 68.4802L16.1668 45.1251C16.6491 44.2354 17.363 43.4927 18.2329 42.9755C19.1028 42.4584 20.0964 42.1861 21.1084 42.1875H25.8496L32.4922 55.4727C32.5919 55.672 32.7375 55.8447 32.917 55.9767C33.0965 56.1087 33.3048 56.1962 33.5248 56.2318C33.7447 56.2675 33.97 56.2505 34.182 56.182C34.394 56.1136 34.5868 55.9957 34.7443 55.8382L39.375 51.2075L44.0057 55.8382C44.1632 55.9957 44.356 56.1135 44.568 56.182C44.78 56.2504 45.0053 56.2675 45.2252 56.2318C45.4452 56.1961 45.6535 56.1087 45.833 55.9767C46.0125 55.8447 46.1581 55.672 46.2578 55.4727L52.9004 42.1875H57.7006C58.7232 42.1861 59.7269 42.4642 60.603 42.9917C61.4792 43.5192 62.1946 44.2761 62.6719 45.1806L68.5321 56.25H52.0312C51.8465 56.25 51.6636 56.2864 51.493 56.357C51.3224 56.4277 51.1673 56.5313 51.0368 56.6619C50.9062 56.7924 50.8026 56.9475 50.7319 57.1181C50.6613 57.2887 50.6249 57.4716 50.6249 57.6562L50.6249 70.4639C49.7103 69.5254 48.6169 68.7796 47.4092 68.2705C46.2016 67.7615 44.9043 67.4995 43.5938 67.5H24.9198L22.4278 60.024L19.7597 60.9135L22.5722 69.351ZM43.4932 78.2278L40.8818 79.2722L42.923 84.375H35.1562V70.3125H43.5938C45.4577 70.3146 47.2448 71.056 48.5629 72.3739C49.881 73.6918 50.6226 75.4787 50.625 77.3427L50.625 82.2114L47.6988 75.3835L45.1137 76.4915L48.4924 84.375H45.952L43.4932 78.2278ZM84.375 84.375H53.4375V77.3438L53.4374 59.0625H84.375V84.375Z" fill="black"/>
<path d="M68.9063 77.3438C70.0188 77.3438 71.1063 77.0139 72.0313 76.3958C72.9564 75.7777 73.6773 74.8992 74.1031 73.8714C74.5288 72.8435 74.6402 71.7125 74.4232 70.6214C74.2061 69.5302 73.6704 68.528 72.8837 67.7413C72.0971 66.9546 71.0948 66.4189 70.0036 66.2018C68.9125 65.9848 67.7815 66.0962 66.7537 66.5219C65.7258 66.9477 64.8473 67.6686 64.2292 68.5937C63.6112 69.5187 63.2812 70.6062 63.2812 71.7188C63.2829 73.2101 63.8761 74.6398 64.9306 75.6944C65.9852 76.7489 67.4149 77.3421 68.9063 77.3438ZM68.9063 68.9063C69.4625 68.9063 70.0063 69.0712 70.4688 69.3802C70.9313 69.6893 71.2918 70.1285 71.5047 70.6425C71.7175 71.1564 71.7732 71.7219 71.6647 72.2675C71.5562 72.813 71.2883 73.3142 70.895 73.7075C70.5017 74.1008 70.0005 74.3687 69.455 74.4772C68.9094 74.5857 68.3439 74.53 67.83 74.3172C67.316 74.1043 66.8768 73.7438 66.5677 73.2813C66.2587 72.8188 66.0938 72.275 66.0938 71.7188C66.0946 70.9731 66.3912 70.2582 66.9185 69.731C67.4457 69.2037 68.1606 68.9071 68.9063 68.9063Z" fill="#1D73F8"/>
</svg>
