<svg width="91" height="90" viewBox="0 0 91 90" fill="none" xmlns="http://www.w3.org/2000/svg">
<path d="M30.2763 34.4994H16.5002C16.1027 34.4994 15.7202 34.6569 15.4397 34.9389L9.87911 40.4995H8.7241C8.10309 38.758 6.45307 37.4995 4.50005 37.4995C2.01902 37.4995 0 39.5185 0 41.9995C0 44.4805 2.01902 46.4996 4.50005 46.4996C6.45307 46.4996 8.10309 45.2411 8.7241 43.4995H10.5001C10.8976 43.4995 11.2801 43.342 11.5606 43.06L17.1212 37.4995H30.2763C30.8974 39.241 32.5474 40.4995 34.5004 40.4995C35.6404 40.4995 36.6694 40.06 37.4629 39.3595L43.5755 42.76C43.535 43.0015 43.5005 43.246 43.5005 43.4995C43.5005 45.9806 45.5195 47.9996 48.0005 47.9996C50.4816 47.9996 52.5006 45.9806 52.5006 43.4995C52.5006 43.246 52.4661 43.0015 52.4256 42.76L58.5382 39.3595C59.3317 40.06 60.3607 40.4995 61.5007 40.4995C63.9817 40.4995 66.0007 38.4805 66.0007 35.9995C66.0007 34.0464 64.7422 32.3964 63.0007 31.7754V25.2218C64.7422 24.6008 66.0007 22.9508 66.0007 20.9978C66.0007 18.5168 63.9817 16.4977 61.5007 16.4977C60.3607 16.4977 59.3317 16.9372 58.5382 17.6377L52.4256 14.2372C52.4661 13.9972 52.5006 13.7527 52.5006 13.4992C52.5006 11.0182 50.4816 8.99915 48.0005 8.99915C45.5195 8.99915 43.5005 11.0182 43.5005 13.4992C43.5005 13.7527 43.535 13.9972 43.5755 14.2387L37.4629 17.6392C36.6694 16.9387 35.6404 16.4992 34.5004 16.4992C32.5474 16.4992 30.8974 17.7577 30.2763 19.4993H17.1212L11.5606 13.9387C11.2801 13.6567 10.8976 13.4992 10.5001 13.4992H8.7241C8.10309 11.7577 6.45307 10.4992 4.50005 10.4992C2.01902 10.4992 0 12.5182 0 14.9992C0 17.4802 2.01902 19.4993 4.50005 19.4993C6.45307 19.4993 8.10309 18.2408 8.7241 16.4992H9.87911L15.4397 22.0598C15.7202 22.3418 16.1027 22.4993 16.5002 22.4993H30.2763C30.7293 23.7698 31.7299 24.7703 33.0004 25.2233V26.9993H8.7241C8.10309 25.2578 6.45307 23.9993 4.50005 23.9993C2.01902 23.9993 0 26.0183 0 28.4994C0 30.9804 2.01902 32.9994 4.50005 32.9994C6.45307 32.9994 8.10309 31.7409 8.7241 29.9994H33.0004V31.7754C31.7299 32.2284 30.7293 33.2289 30.2763 34.4994ZM4.50005 43.4995C3.67354 43.4995 3.00003 42.826 3.00003 41.9995C3.00003 41.173 3.67354 40.4995 4.50005 40.4995C5.32656 40.4995 6.00007 41.173 6.00007 41.9995C6.00007 42.826 5.32656 43.4995 4.50005 43.4995ZM4.50005 16.4992C3.67354 16.4992 3.00003 15.8257 3.00003 14.9992C3.00003 14.1727 3.67354 13.4992 4.50005 13.4992C5.32656 13.4992 6.00007 14.1727 6.00007 14.9992C6.00007 15.8257 5.32656 16.4992 4.50005 16.4992ZM4.50005 29.9994C3.67354 29.9994 3.00003 29.3259 3.00003 28.4994C3.00003 27.6729 3.67354 26.9993 4.50005 26.9993C5.32656 26.9993 6.00007 27.6729 6.00007 28.4994C6.00007 29.3259 5.32656 29.9994 4.50005 29.9994ZM34.5004 37.4995C33.6739 37.4995 33.0004 36.826 33.0004 35.9995C33.0004 35.1729 33.6739 34.4994 34.5004 34.4994C35.3269 34.4994 36.0004 35.1729 36.0004 35.9995C36.0004 36.826 35.3269 37.4995 34.5004 37.4995ZM37.4629 24.3593L43.5755 27.7599C43.535 28.0014 43.5005 28.2459 43.5005 28.4994C43.5005 28.7529 43.535 28.9974 43.5755 29.2389L37.4629 32.6394C37.0369 32.2644 36.5449 31.9704 36.0004 31.7754V25.2218C36.5449 25.0283 37.0384 24.7358 37.4629 24.3593ZM58.5382 32.6394L52.4256 29.2389C52.4661 28.9974 52.5006 28.7529 52.5006 28.4994C52.5006 28.2459 52.4661 28.0014 52.4256 27.7599L58.5382 24.3593C58.9642 24.7343 59.4562 25.0283 60.0007 25.2233V31.7769C59.4562 31.9704 58.9627 32.2629 58.5382 32.6394ZM38.9254 35.2599L45.038 31.8594C45.464 32.2344 45.956 32.5284 46.5005 32.7234V39.277C45.956 39.472 45.4625 39.7645 45.038 40.141L38.9254 36.7405C38.9659 36.4975 39.0004 36.253 39.0004 35.9995C39.0004 35.7459 38.9659 35.5014 38.9254 35.2599ZM48.0005 26.9993C48.8271 26.9993 49.5006 27.6729 49.5006 28.4994C49.5006 29.3259 48.8271 29.9994 48.0005 29.9994C47.174 29.9994 46.5005 29.3259 46.5005 28.4994C46.5005 27.6729 47.174 26.9993 48.0005 26.9993ZM49.5006 32.7234C50.0451 32.5284 50.5386 32.2359 50.9631 31.8594L57.0756 35.2599C57.0351 35.5014 57.0006 35.7459 57.0006 35.9995C57.0006 36.253 57.0351 36.4975 57.0756 36.739L50.9631 40.1395C50.5371 39.7645 50.0451 39.4705 49.5006 39.2755V32.7234ZM57.0756 21.7388L50.9631 25.1393C50.5371 24.7643 50.0451 24.4703 49.5006 24.2753V17.7217C50.0451 17.5267 50.5386 17.2342 50.9631 16.8577L57.0756 20.2583C57.0351 20.5013 57.0006 20.7458 57.0006 20.9993C57.0006 21.2528 57.0351 21.4973 57.0756 21.7388ZM46.5005 24.2753C45.956 24.4703 45.4625 24.7628 45.038 25.1393L38.9254 21.7388C38.9659 21.4973 39.0004 21.2528 39.0004 20.9993C39.0004 20.7458 38.9659 20.5013 38.9254 20.2598L45.038 16.8592C45.464 17.2342 45.956 17.5282 46.5005 17.7232V24.2753ZM48.0005 44.9996C47.174 44.9996 46.5005 44.326 46.5005 43.4995C46.5005 42.673 47.174 41.9995 48.0005 41.9995C48.8271 41.9995 49.5006 42.673 49.5006 43.4995C49.5006 44.326 48.8271 44.9996 48.0005 44.9996ZM61.5007 37.4995C60.6742 37.4995 60.0007 36.826 60.0007 35.9995C60.0007 35.1729 60.6742 34.4994 61.5007 34.4994C62.3272 34.4994 63.0007 35.1729 63.0007 35.9995C63.0007 36.826 62.3272 37.4995 61.5007 37.4995ZM61.5007 19.4993C62.3272 19.4993 63.0007 20.1728 63.0007 20.9993C63.0007 21.8258 62.3272 22.4993 61.5007 22.4993C60.6742 22.4993 60.0007 21.8258 60.0007 20.9993C60.0007 20.1728 60.6742 19.4993 61.5007 19.4993ZM48.0005 11.9992C48.8271 11.9992 49.5006 12.6727 49.5006 13.4992C49.5006 14.3257 48.8271 14.9992 48.0005 14.9992C47.174 14.9992 46.5005 14.3257 46.5005 13.4992C46.5005 12.6727 47.174 11.9992 48.0005 11.9992ZM34.5004 19.4993C35.3269 19.4993 36.0004 20.1728 36.0004 20.9993C36.0004 21.8258 35.3269 22.4993 34.5004 22.4993C33.6739 22.4993 33.0004 21.8258 33.0004 20.9993C33.0004 20.1728 33.6739 19.4993 34.5004 19.4993Z" fill="#1D73F8"/>
<path d="M31.5004 90H55.5006C56.3286 90 57.0006 89.328 57.0006 88.5V77.9999H76.5009C77.3289 77.9999 78.0009 77.3279 78.0009 76.4998V58.4996H88.501C88.978 58.4996 89.4265 58.2731 89.71 57.8876C89.9935 57.5021 90.076 57.0071 89.9335 56.5511L82.4544 32.6198C82.1544 23.5177 78.3114 15.1176 71.6033 8.92708C64.8172 2.66601 55.9746 -0.47803 46.724 0.0589763C36.0769 0.681483 26.2128 6.52405 20.3372 15.6892L22.8633 17.3077C28.2228 8.94808 37.2079 3.62002 46.901 3.05301C55.3326 2.5565 63.3892 5.42904 69.5678 11.1321C75.7674 16.8517 79.2819 24.6443 79.4649 33.0729C79.4709 33.3324 79.5474 33.5769 79.6764 33.7884L86.461 55.4996H76.5009C75.6729 55.4996 75.0008 56.1716 75.0008 56.9996V62.9997H70.5008C68.0198 62.9997 66.0007 60.9807 66.0007 58.4996H63.0007C63.0007 62.6352 66.3652 65.9997 70.5008 65.9997H75.0008V74.9998H55.5006C54.6726 74.9998 54.0006 75.6718 54.0006 76.4998V87H33.0004V85.5494C33.0004 73.4128 29.3523 61.0032 22.4492 49.6615C20.9222 47.1535 19.7687 44.446 19.0187 41.6154L16.1177 42.3835C16.9412 45.493 18.2087 48.466 19.8857 51.2216C26.5023 62.0937 30.0003 73.9633 30.0003 85.5494V88.5C30.0003 89.328 30.6723 90 31.5004 90V90Z" fill="black"/>
</svg>
