<svg width="90" height="90" viewBox="0 0 90 90" fill="none" xmlns="http://www.w3.org/2000/svg">
<path d="M29.5312 19.6875C29.5312 22.0134 31.4241 23.9062 33.75 23.9062C36.0759 23.9062 37.9688 22.0134 37.9688 19.6875C37.9688 17.3616 36.0759 15.4688 33.75 15.4688C31.4241 15.4688 29.5312 17.3616 29.5312 19.6875ZM33.75 18.2812C34.5248 18.2812 35.1562 18.9127 35.1562 19.6875C35.1562 20.4623 34.5248 21.0938 33.75 21.0938C32.9752 21.0938 32.3438 20.4623 32.3438 19.6875C32.3438 18.9127 32.9752 18.2812 33.75 18.2812Z" fill="black"/>
<path d="M57.6562 15.4688H60.4688V23.9062H57.6562V15.4688Z" fill="black"/>
<path d="M52.0312 15.4688H54.8438V23.9062H52.0312V15.4688Z" fill="black"/>
<path d="M56.25 32.3438C53.9241 32.3438 52.0312 34.2366 52.0312 36.5625C52.0312 38.8884 53.9241 40.7812 56.25 40.7812C58.5759 40.7812 60.4688 38.8884 60.4688 36.5625C60.4688 34.2366 58.5759 32.3438 56.25 32.3438ZM56.25 37.9688C55.4752 37.9688 54.8438 37.3373 54.8438 36.5625C54.8438 35.7877 55.4752 35.1562 56.25 35.1562C57.0248 35.1562 57.6562 35.7877 57.6562 36.5625C57.6562 37.3373 57.0248 37.9688 56.25 37.9688Z" fill="black"/>
<path d="M29.5312 32.3438H32.3438V40.7812H29.5312V32.3438Z" fill="#1D73F8"/>
<path d="M35.1562 32.3438H37.9688V40.7812H35.1562V32.3438Z" fill="#1D73F8"/>
<path d="M7.03125 60.7275V45H4.21875V60.7275C2.58609 61.3097 1.40625 62.8566 1.40625 64.6875C1.40625 67.0134 3.29906 68.9062 5.625 68.9062C7.95094 68.9062 9.84375 67.0134 9.84375 64.6875C9.84375 62.8566 8.66391 61.3097 7.03125 60.7275ZM5.625 66.0938C4.85016 66.0938 4.21875 65.4623 4.21875 64.6875C4.21875 63.9127 4.85016 63.2812 5.625 63.2812C6.39984 63.2812 7.03125 63.9127 7.03125 64.6875C7.03125 65.4623 6.39984 66.0938 5.625 66.0938Z" fill="#1D73F8"/>
<path d="M15.4688 46.4062V53.6962C13.8361 54.2784 12.6562 55.8253 12.6562 57.6562C12.6562 59.9822 14.5491 61.875 16.875 61.875C19.2009 61.875 21.0938 59.9822 21.0938 57.6562C21.0938 55.8253 19.9139 54.2784 18.2812 53.6962V46.4062H15.4688ZM16.875 59.0625C16.1002 59.0625 15.4688 58.4311 15.4688 57.6562C15.4688 56.8814 16.1002 56.25 16.875 56.25C17.6498 56.25 18.2812 56.8814 18.2812 57.6562C18.2812 58.4311 17.6498 59.0625 16.875 59.0625Z" fill="#1D73F8"/>
<path d="M85.7812 54.585C87.4139 54.0028 88.5938 52.4559 88.5938 50.625C88.5938 48.2991 86.7009 46.4062 84.375 46.4062C82.0491 46.4062 80.1562 48.2991 80.1562 50.625C80.1562 52.4559 81.3361 54.0028 82.9688 54.585V65.4216C80.9564 64.0716 78.5377 63.2812 75.9375 63.2812C75.8644 63.2812 75.7912 63.2812 75.7167 63.2827C75.4973 61.7512 75.0825 60.2873 74.5312 58.8938V46.1475C76.1639 45.5653 77.3438 44.0184 77.3438 42.1875C77.3438 39.8616 75.4509 37.9688 73.125 37.9688C70.7991 37.9688 68.9062 39.8616 68.9062 42.1875C68.9062 44.0184 70.0861 45.5653 71.7188 46.1475V53.9817C70.1719 52.0116 68.2622 50.3452 66.0938 49.0809V35.1562H78.75C81.0759 35.1562 82.9688 33.2634 82.9688 30.9375V9.585C84.6014 9.00281 85.7812 7.45594 85.7812 5.625C85.7812 3.29906 83.8884 1.40625 81.5625 1.40625C79.2366 1.40625 77.3438 3.29906 77.3438 5.625C77.3438 7.45594 78.5236 9.00281 80.1562 9.585V30.9375C80.1562 31.7123 79.5248 32.3438 78.75 32.3438H66.0938V26.7188H70.3125C72.6384 26.7188 74.5312 24.8259 74.5312 22.5V20.835C76.1639 20.2528 77.3438 18.7059 77.3438 16.875C77.3438 14.5491 75.4509 12.6562 73.125 12.6562C70.7991 12.6562 68.9062 14.5491 68.9062 16.875C68.9062 18.7059 70.0861 20.2528 71.7188 20.835V22.5C71.7188 23.2748 71.0873 23.9062 70.3125 23.9062H66.0938V16.875C66.0938 12.998 62.9395 9.84375 59.0625 9.84375H49.867C46.177 4.56047 40.2258 1.40625 33.75 1.40625C23.9484 1.40625 15.6572 8.71172 14.2833 18.2827C14.2087 18.2813 14.1356 18.2812 14.0625 18.2812C7.08469 18.2812 1.40625 23.9597 1.40625 30.9375C1.40625 37.9153 7.08469 43.5938 14.0625 43.5938H23.9062V61.702C23.6405 62.2195 23.407 62.7581 23.2116 63.3178C22.9753 63.3038 22.7405 63.2812 22.5 63.2812C15.5222 63.2812 9.84375 68.9597 9.84375 75.9375C9.84375 82.9153 15.5222 88.5938 22.5 88.5938H75.9375C82.9153 88.5938 88.5938 82.9153 88.5938 75.9375C88.5938 72.9338 87.5362 70.1733 85.7812 68.0006V54.585ZM73.125 40.7812C73.8998 40.7812 74.5312 41.4127 74.5312 42.1875C74.5312 42.9623 73.8998 43.5938 73.125 43.5938C72.3502 43.5938 71.7188 42.9623 71.7188 42.1875C71.7188 41.4127 72.3502 40.7812 73.125 40.7812ZM81.5625 4.21875C82.3373 4.21875 82.9688 4.85016 82.9688 5.625C82.9688 6.39984 82.3373 7.03125 81.5625 7.03125C80.7877 7.03125 80.1562 6.39984 80.1562 5.625C80.1562 4.85016 80.7877 4.21875 81.5625 4.21875ZM73.125 15.4688C73.8998 15.4688 74.5312 16.1002 74.5312 16.875C74.5312 17.6498 73.8998 18.2812 73.125 18.2812C72.3502 18.2812 71.7188 17.6498 71.7188 16.875C71.7188 16.1002 72.3502 15.4688 73.125 15.4688ZM84.375 49.2188C85.1498 49.2188 85.7812 49.8502 85.7812 50.625C85.7812 51.3998 85.1498 52.0312 84.375 52.0312C83.6002 52.0312 82.9688 51.3998 82.9688 50.625C82.9688 49.8502 83.6002 49.2188 84.375 49.2188ZM56.25 46.4062C49.4353 46.4062 43.1508 49.9205 39.5606 55.6509C38.9362 55.4189 38.295 55.2234 37.6298 55.0912C37.8478 54.5822 37.9688 54.0239 37.9688 53.4375C37.9688 51.1116 36.0759 49.2188 33.75 49.2188C31.4241 49.2188 29.5312 51.1116 29.5312 53.4375C29.5312 54.3234 29.8083 55.1447 30.2766 55.8239C28.9688 56.3681 27.7664 57.1247 26.7188 58.0612V46.4062H56.25H63.2812V47.7183C61.0903 46.8717 58.718 46.4062 56.25 46.4062ZM32.3438 53.4375C32.3438 52.6627 32.9752 52.0312 33.75 52.0312C34.5248 52.0312 35.1562 52.6627 35.1562 53.4375C35.1562 54.2123 34.5248 54.8438 33.75 54.8438C32.9752 54.8438 32.3438 54.2123 32.3438 53.4375ZM26.7188 29.5312H63.2812V43.5938H26.7188V29.5312ZM63.2812 16.875V26.7188H26.7188V16.875C26.7188 14.5491 28.6116 12.6562 30.9375 12.6562H59.0625C61.3884 12.6562 63.2812 14.5491 63.2812 16.875ZM14.0625 40.7812C8.63438 40.7812 4.21875 36.3656 4.21875 30.9375C4.21875 25.5094 8.63438 21.0938 14.0625 21.0938C14.445 21.0938 14.8542 21.1233 15.352 21.1894L16.8314 21.382L16.9369 19.8928C17.557 11.1038 24.9412 4.21875 33.75 4.21875C38.6086 4.21875 43.1212 6.29438 46.2966 9.84375H30.9375C27.0605 9.84375 23.9062 12.998 23.9062 16.875V40.7812H14.0625ZM75.9375 85.7812H22.5C17.0719 85.7812 12.6562 81.3656 12.6562 75.9375C12.6562 70.5094 17.0719 66.0938 22.5 66.0938C27.9281 66.0938 32.3438 70.5094 32.3438 75.9375H35.1562C35.1562 70.1916 31.3031 65.3358 26.0494 63.7973C27.5344 60.1256 31.0894 57.6562 35.1562 57.6562C40.5844 57.6562 45 62.0719 45 67.5H47.8125C47.8125 63.0914 45.5442 59.2073 42.1158 56.9405C45.2152 52.162 50.4984 49.2188 56.25 49.2188C65.0588 49.2188 72.443 56.1037 73.0631 64.8928L73.1686 66.382L74.648 66.1894C75.1458 66.1233 75.555 66.0938 75.9375 66.0938C81.3656 66.0938 85.7812 70.5094 85.7812 75.9375C85.7812 81.3656 81.3656 85.7812 75.9375 85.7812Z" fill="black"/>
<path d="M56.25 52.0312V54.8438C62.453 54.8438 67.5 59.8908 67.5 66.0938H70.3125C70.3125 58.3397 64.0041 52.0312 56.25 52.0312Z" fill="#1D73F8"/>
<path d="M18.2812 75.9375C18.2812 73.6116 20.1741 71.7188 22.5 71.7188V68.9062C18.623 68.9062 15.4688 72.0605 15.4688 75.9375C15.4688 79.8145 18.623 82.9688 22.5 82.9688H42.1875V80.1562H22.5C20.1741 80.1562 18.2812 78.2634 18.2812 75.9375Z" fill="#1D73F8"/>
<path d="M45 80.1562H47.8125V82.9688H45V80.1562Z" fill="#1D73F8"/>
<path d="M50.625 80.1562H53.4375V82.9688H50.625V80.1562Z" fill="#1D73F8"/>
<path d="M77.3438 70.3125V73.125C78.8948 73.125 80.1562 74.3864 80.1562 75.9375H82.9688C82.9688 72.8353 80.4459 70.3125 77.3438 70.3125Z" fill="#1D73F8"/>
<path d="M9.84375 30.9375H7.03125C7.03125 34.8145 10.1855 37.9688 14.0625 37.9688H15.4688V35.1562H14.0625C11.7366 35.1562 9.84375 33.2634 9.84375 30.9375Z" fill="black"/>
<path d="M18.2812 35.1562H21.0938V37.9688H18.2812V35.1562Z" fill="black"/>
</svg>
