<svg width="90" height="90" viewBox="0 0 90 90" fill="none" xmlns="http://www.w3.org/2000/svg">
<g clip-path="url(#clip0)">
<path d="M65.9269 0H35.5351C34.8069 0 34.2165 0.590415 34.2165 1.31868C34.2165 2.04694 34.8069 2.63735 35.5351 2.63735H65.9269C67.5215 2.63735 68.8189 3.93458 68.8189 5.5293V11.5055H21.1818V5.5293C21.1818 3.93458 22.4792 2.63735 24.0737 2.63735H29.44C30.1683 2.63735 30.7587 2.04694 30.7587 1.31868C30.7587 0.590415 30.1683 0 29.44 0H24.0737C21.0248 0 18.5444 2.48034 18.5444 5.5293V84.4705C18.5444 87.5195 21.0248 89.9998 24.0737 89.9998H65.9269C68.9759 89.9998 71.4562 87.5195 71.4562 84.4705V5.5293C71.4562 2.48034 68.9759 0 65.9269 0V0ZM68.8189 84.4707C68.8189 86.0654 67.5215 87.3627 65.9269 87.3627H24.0737C22.4792 87.3627 21.1818 86.0654 21.1818 84.4707V78.4945H68.8191V84.4707H68.8189ZM68.8189 75.8569H21.1818V14.1429H68.8191V75.8569H68.8189Z" fill="black"/>
<path d="M42.8748 84.2472H47.1259C47.8541 84.2472 48.4446 83.6568 48.4446 82.9285C48.4446 82.2003 47.8541 81.6099 47.1259 81.6099H42.8748C42.1466 81.6099 41.5562 82.2003 41.5562 82.9285C41.5562 83.6568 42.1466 84.2472 42.8748 84.2472V84.2472Z" fill="black"/>
<path d="M39.4419 8.82C40.4076 8.82 41.1905 8.03714 41.1905 7.07144C41.1905 6.10573 40.4076 5.32288 39.4419 5.32288C38.4762 5.32288 37.6934 6.10573 37.6934 7.07144C37.6934 8.03714 38.4762 8.82 39.4419 8.82Z" fill="black"/>
<path d="M52.3074 8.38992C53.0356 8.38992 53.6261 7.7995 53.6261 7.07124C53.6261 6.34298 53.0356 5.75256 52.3074 5.75256H45.0003C44.2721 5.75256 43.6816 6.34298 43.6816 7.07124C43.6816 7.7995 44.2721 8.38992 45.0003 8.38992H52.3074Z" fill="black"/>
<path d="M57.5203 21.0472C58.2486 21.0472 58.839 20.4567 58.839 19.7285V18.9227C58.839 18.1944 58.2486 17.604 57.5203 17.604C56.7921 17.604 56.2017 18.1944 56.2017 18.9227V19.7285C56.2017 20.4567 56.7921 21.0472 57.5203 21.0472Z" fill="black"/>
<path d="M61.5677 21.0471C62.296 21.0471 62.8864 20.4567 62.8864 19.7284V18.1167C62.8864 17.3884 62.296 16.798 61.5677 16.798C60.8394 16.798 60.249 17.3884 60.249 18.1167V19.7284C60.249 20.4567 60.8394 21.0471 61.5677 21.0471Z" fill="black"/>
<path d="M65.6146 21.047C66.3428 21.047 66.9333 20.4566 66.9333 19.7283V17.3107C66.9333 16.5825 66.3428 15.9921 65.6146 15.9921C64.8863 15.9921 64.2959 16.5825 64.2959 17.3107V19.7283C64.2959 20.4566 64.8863 21.047 65.6146 21.047Z" fill="black"/>
<path d="M61.0398 54.8995C59.7271 54.1115 56.9966 52.4708 56.9966 48.2029C56.9966 44.6008 59.4073 42.7829 60.702 41.8064L60.729 41.7859C61.2489 41.3939 61.3727 40.6642 61.0119 40.1222C58.1191 35.7788 53.151 35.6534 52.1851 35.6714H52.1793C51.5168 35.6722 50.8846 35.7485 50.2852 35.869C50.5066 35.6919 50.7214 35.5033 50.9281 35.3033C52.9976 33.3009 54.1349 30.3466 54.0472 27.1955C54.0283 26.5305 53.4839 26 52.8181 26C50.5796 26 48.0344 27.3374 46.1756 29.4906C44.3028 31.6602 43.4279 34.2595 43.7764 36.6209C43.8051 36.8169 43.8805 36.9957 43.9887 37.149C43.6608 37.0391 43.3139 36.9112 42.9712 36.7849C41.6691 36.3053 40.1923 35.7616 38.8099 35.7616C38.782 35.7616 35.9712 35.7821 33.1644 37.5254C30.7095 39.0513 27.7822 42.227 27.7822 48.6957C27.7822 52.06 29.0966 56.7698 31.1309 60.6958C32.5364 63.4082 35.453 67.9606 39.1985 67.982H39.2387C41.97 67.982 44.2331 66.3691 45.7722 66.3691C48.4009 66.3691 49.3365 68 52.1793 68C54.7278 68 57.1975 66.0641 59.5204 62.2472C60.3732 60.845 61.0365 59.4585 61.4424 58.5418C62.2173 56.7952 62.2173 56.5624 62.2173 56.3918C62.2173 55.6071 61.6187 55.2472 61.0398 54.8995ZM48.0377 31.0977C49.0471 29.9284 50.3188 29.0609 51.5234 28.678C51.2929 30.5877 50.4861 32.3088 49.2176 33.5354C48.3288 34.3956 47.262 34.9548 46.1788 35.1475C46.2936 33.7962 46.9398 32.3695 48.0377 31.0977ZM57.3 61.1615C55.5444 63.9855 53.7258 65.5401 52.1793 65.5401C50.0515 65.5401 49.0569 63.9092 45.7722 63.9092C43.5558 63.9092 41.4411 65.5336 39.2125 65.5221C37.4742 65.5122 35.2143 63.2295 33.3153 59.5642C31.4483 55.9622 30.2421 51.6959 30.2421 48.6957C30.2421 44.4483 31.6385 41.4087 34.3903 39.6605C36.5328 38.3002 38.7246 38.224 38.8172 38.2215C40.7376 38.2264 43.4033 39.9262 45.3458 39.9262C47.0947 39.9262 49.4366 38.1313 52.1883 38.1313H52.2334C52.9009 38.1182 56.052 38.1928 58.2659 40.5953C56.7014 41.913 54.5367 44.2827 54.5367 48.2029C54.5367 53.5277 57.9043 55.8654 59.495 56.8403C59.099 57.7997 58.3438 59.4831 57.3 61.1615Z" fill="#1D73F8"/>
</g>
<defs>
<clipPath id="clip0">
<rect width="90" height="90" fill="white"/>
</clipPath>
</defs>
</svg>
