<svg width="90" height="90" viewBox="0 0 90 90" fill="none" xmlns="http://www.w3.org/2000/svg">
<g clip-path="url(#clip0)">
<path d="M37.3661 40.8925H52.6349C54.6309 40.8925 56.2544 39.2688 56.2544 37.273V35.5427C56.2544 31.5522 54.165 28.043 51.0246 26.0442L51.7196 24.7549C52.0653 24.1138 51.8258 23.314 51.1848 22.9683C50.5437 22.6227 49.7437 22.862 49.3982 23.5032L48.6462 24.8982C47.502 24.5052 46.2765 24.2888 45.0005 24.2888C43.7246 24.2888 42.4991 24.5052 41.3548 24.8982L40.6028 23.5032C40.2571 22.8621 39.4573 22.6227 38.8163 22.9683C38.1752 23.3138 37.9358 24.1138 38.2814 24.7549L38.9764 26.0442C35.8359 28.043 33.7466 31.5524 33.7466 35.5427V37.273C33.7464 39.2688 35.3701 40.8925 37.3661 40.8925ZM36.3838 35.5427C36.3838 30.7916 40.2491 26.9261 45.0003 26.9261C49.7516 26.9261 53.6169 30.7914 53.6169 35.5427V37.273C53.6169 37.8147 53.1763 38.2551 52.6348 38.2551H37.3659C36.8242 38.2551 36.3838 37.8145 36.3838 37.273V35.5427Z" fill="#1D73F8"/>
<path d="M41.1903 35.6537C41.9185 35.6537 42.5089 35.0633 42.5089 34.335V33.0682C42.5089 32.3399 41.9185 31.7495 41.1903 31.7495C40.462 31.7495 39.8716 32.3399 39.8716 33.0682V34.335C39.8716 35.0633 40.462 35.6537 41.1903 35.6537Z" fill="#1D73F8"/>
<path d="M48.8104 35.6537C49.5386 35.6537 50.1291 35.0633 50.1291 34.335V33.0682C50.1291 32.3399 49.5386 31.7495 48.8104 31.7495C48.0821 31.7495 47.4917 32.3399 47.4917 33.0682V34.335C47.4917 35.0633 48.0821 35.6537 48.8104 35.6537Z" fill="#1D73F8"/>
<path d="M36.3742 58.2381V63.4638C36.3742 65.5182 38.0455 67.1894 40.0999 67.1894C42.1542 67.1894 43.8256 65.5181 43.8256 63.4638V58.3172H46.1739V63.4638C46.1739 65.5182 47.8452 67.1894 49.8996 67.1894C51.9539 67.1894 53.6253 65.5181 53.6253 63.4638V58.2381C55.1261 57.9088 56.2535 56.5708 56.2535 54.9725V54.5824C56.2535 53.8541 55.663 53.2637 54.9348 53.2637C54.2065 53.2637 53.6161 53.8541 53.6161 54.5824V54.9725C53.6161 55.3627 53.2988 55.68 52.9086 55.68H52.3066H37.6925H37.0905C36.7003 55.68 36.383 55.3627 36.383 54.9725V45.7072C36.383 45.317 36.7003 44.9997 37.0905 44.9997H52.9088C53.2989 44.9997 53.6163 45.317 53.6163 45.7072V48.4286C53.6163 49.1568 54.2067 49.7472 54.935 49.7472C55.6632 49.7472 56.2536 49.1568 56.2536 48.4286V45.7072C56.2536 43.8628 54.7532 42.3623 52.9088 42.3623H37.0905C35.2461 42.3623 33.7456 43.8628 33.7456 45.7072V54.9725C33.746 56.5708 34.8733 57.9088 36.3742 58.2381ZM48.8116 58.3174H50.9884V63.4639C50.9884 64.0642 50.5002 64.5523 49.9001 64.5523C49.3 64.5523 48.8117 64.064 48.8117 63.4639V58.3174H48.8116ZM39.0115 58.3174H41.1884V63.4639C41.1884 64.0642 40.7001 64.5523 40.1 64.5523C39.5 64.5523 39.0117 64.064 39.0117 63.4639V58.3174H39.0115Z" fill="#1D73F8"/>
<path d="M58.0293 51.0302C58.0293 53.0847 59.7007 54.7559 61.755 54.7559C63.8093 54.7559 65.4807 53.0845 65.4807 51.0302V46.0885C65.4807 44.034 63.8093 42.3628 61.755 42.3628C59.7007 42.3628 58.0293 44.0342 58.0293 46.0885V51.0302ZM60.6666 46.0885C60.6666 45.4882 61.1549 45.0001 61.755 45.0001C62.3551 45.0001 62.8433 45.4884 62.8433 46.0885V51.0302C62.8433 51.6304 62.3551 52.1185 61.755 52.1185C61.1549 52.1185 60.6666 51.6303 60.6666 51.0302V46.0885Z" fill="#1D73F8"/>
<path d="M28.2457 54.7561C30.3002 54.7561 31.9714 53.0847 31.9714 51.0304V46.0885C31.9714 44.034 30.3 42.3628 28.2457 42.3628C26.1914 42.3628 24.52 44.0342 24.52 46.0885V51.0302C24.5198 53.0847 26.1912 54.7561 28.2457 54.7561ZM27.1572 46.0885C27.1572 45.4882 27.6455 45.0001 28.2455 45.0001C28.8456 45.0001 29.3339 45.4884 29.3339 46.0885V51.0302C29.3339 51.6304 28.8456 52.1185 28.2455 52.1185C27.6455 52.1185 27.1572 51.6303 27.1572 51.0302V46.0885Z" fill="#1D73F8"/>
<path d="M65.9269 0H35.5351C34.8069 0 34.2165 0.590415 34.2165 1.31868C34.2165 2.04694 34.8069 2.63735 35.5351 2.63735H65.9269C67.5215 2.63735 68.8189 3.93458 68.8189 5.5293V11.5055H21.1818V5.5293C21.1818 3.93458 22.4792 2.63735 24.0737 2.63735H29.44C30.1683 2.63735 30.7587 2.04694 30.7587 1.31868C30.7587 0.590415 30.1683 0 29.44 0H24.0737C21.0248 0 18.5444 2.48034 18.5444 5.5293V84.4705C18.5444 87.5195 21.0248 89.9998 24.0737 89.9998H65.9269C68.9759 89.9998 71.4562 87.5195 71.4562 84.4705V5.5293C71.4562 2.48034 68.9759 0 65.9269 0V0ZM68.8189 84.4707C68.8189 86.0654 67.5215 87.3627 65.9269 87.3627H24.0737C22.4792 87.3627 21.1818 86.0654 21.1818 84.4707V78.4945H68.8191V84.4707H68.8189ZM68.8189 75.8569H21.1818V14.1429H68.8191V75.8569H68.8189Z" fill="black"/>
<path d="M42.8748 84.2472H47.1259C47.8541 84.2472 48.4446 83.6568 48.4446 82.9285C48.4446 82.2003 47.8541 81.6099 47.1259 81.6099H42.8748C42.1466 81.6099 41.5562 82.2003 41.5562 82.9285C41.5562 83.6568 42.1466 84.2472 42.8748 84.2472Z" fill="black"/>
<path d="M39.4419 8.81988C40.4076 8.81988 41.1905 8.03702 41.1905 7.07132C41.1905 6.10561 40.4076 5.32275 39.4419 5.32275C38.4762 5.32275 37.6934 6.10561 37.6934 7.07132C37.6934 8.03702 38.4762 8.81988 39.4419 8.81988Z" fill="black"/>
<path d="M52.3074 8.38979C53.0356 8.38979 53.6261 7.79938 53.6261 7.07112C53.6261 6.34286 53.0356 5.75244 52.3074 5.75244H45.0003C44.2721 5.75244 43.6816 6.34286 43.6816 7.07112C43.6816 7.79938 44.2721 8.38979 45.0003 8.38979H52.3074Z" fill="black"/>
<path d="M57.5203 21.0472C58.2486 21.0472 58.839 20.4567 58.839 19.7285V18.9227C58.839 18.1944 58.2486 17.604 57.5203 17.604C56.7921 17.604 56.2017 18.1944 56.2017 18.9227V19.7285C56.2017 20.4567 56.7921 21.0472 57.5203 21.0472Z" fill="black"/>
<path d="M61.5677 21.047C62.296 21.047 62.8864 20.4566 62.8864 19.7283V18.1165C62.8864 17.3883 62.296 16.7979 61.5677 16.7979C60.8394 16.7979 60.249 17.3883 60.249 18.1165V19.7283C60.249 20.4566 60.8394 21.047 61.5677 21.047Z" fill="black"/>
<path d="M65.6146 21.0471C66.3428 21.0471 66.9333 20.4567 66.9333 19.7284V17.3109C66.9333 16.5826 66.3428 15.9922 65.6146 15.9922C64.8863 15.9922 64.2959 16.5826 64.2959 17.3109V19.7284C64.2959 20.4567 64.8863 21.0471 65.6146 21.0471Z" fill="black"/>
</g>
<defs>
<clipPath id="clip0">
<rect width="90" height="90" fill="white"/>
</clipPath>
</defs>
</svg>
