<svg width="68" height="69" viewBox="0 0 68 69" fill="none" xmlns="http://www.w3.org/2000/svg">
<path d="M61.668 10.2229H37.5458C36.8831 10.2229 36.3456 10.7602 36.3456 11.423C36.3456 12.0858 36.8831 12.6231 37.5458 12.6231H60.4679V56.3072H3.82259V12.6231H26.7447C27.4074 12.6231 27.9449 12.0858 27.9449 11.423C27.9449 10.7602 27.4074 10.2229 26.7447 10.2229H2.62248C1.95977 10.2229 1.42236 10.7602 1.42236 11.423V57.5074C1.42236 58.1701 1.95977 58.7075 2.62248 58.7075H61.668C62.3307 58.7075 62.8681 58.1701 62.8681 57.5074V11.423C62.8681 10.7602 62.3307 10.2229 61.668 10.2229Z" fill="black"/>
<path d="M11.2631 52.9469C13.2484 52.9469 14.8635 51.3318 14.8635 49.3465V30.3165C15.7535 29.407 16.3036 28.1637 16.3036 26.7937C16.3036 25.4236 15.7535 24.1803 14.8635 23.2708V19.5837C14.8635 17.5985 13.2484 15.9834 11.2631 15.9834C9.2779 15.9834 7.66279 17.5985 7.66279 19.5837V23.2708C6.77279 24.1803 6.22266 25.4236 6.22266 26.7937C6.22266 28.1637 6.77279 29.407 7.66279 30.3165V49.3465C7.66279 51.3318 9.2779 52.9469 11.2631 52.9469ZM13.9034 26.7937C13.9034 28.2495 12.719 29.4339 11.2631 29.4339C9.80727 29.4339 8.62288 28.2495 8.62288 26.7937C8.62288 25.3378 9.80727 24.1534 11.2631 24.1534C12.719 24.1534 13.9034 25.3378 13.9034 26.7937ZM11.2631 50.5466C10.6014 50.5466 10.063 50.0083 10.063 49.3465V31.6887C10.4479 31.783 10.8496 31.8343 11.2631 31.8343C11.6767 31.8343 12.0784 31.7831 12.4632 31.6887V49.3465C12.4632 50.0083 11.9249 50.5466 11.2631 50.5466ZM11.2631 18.3836C11.9249 18.3836 12.4632 18.922 12.4632 19.5837V21.8988C12.0784 21.8044 11.6767 21.7532 11.2631 21.7532C10.8496 21.7532 10.4479 21.8043 10.063 21.8988V19.5837C10.063 18.922 10.6014 18.3836 11.2631 18.3836Z" fill="#1D73F8"/>
<path d="M22.3046 52.9469C24.2899 52.9469 25.905 51.3318 25.905 49.3465V42.3084C26.795 41.3989 27.3451 40.1556 27.3451 38.7855C27.3451 37.4155 26.795 36.1722 25.905 35.2627V19.5837C25.905 17.5985 24.2899 15.9834 22.3046 15.9834C20.3194 15.9834 18.7043 17.5985 18.7043 19.5837V35.2627C17.8143 36.1722 17.2642 37.4155 17.2642 38.7855C17.2642 40.1556 17.8143 41.3989 18.7043 42.3084V49.3465C18.7043 51.3318 20.3194 52.9469 22.3046 52.9469ZM24.9449 38.7855C24.9449 40.2414 23.7605 41.4258 22.3046 41.4258C20.8488 41.4258 19.6644 40.2414 19.6644 38.7855C19.6644 37.3297 20.8488 36.1453 22.3046 36.1453C23.7605 36.1453 24.9449 37.3297 24.9449 38.7855ZM22.3046 50.5466C21.6429 50.5466 21.1045 50.0083 21.1045 49.3465V43.6804C21.4894 43.7748 21.8911 43.826 22.3046 43.826C22.7182 43.826 23.1199 43.7749 23.5047 43.6804V49.3465C23.5047 50.0083 22.9664 50.5466 22.3046 50.5466ZM22.3046 18.3836C22.9664 18.3836 23.5047 18.922 23.5047 19.5837V33.8906C23.1199 33.7963 22.7182 33.7451 22.3046 33.7451C21.8911 33.7451 21.4894 33.7962 21.1045 33.8906V19.5837C21.1045 18.922 21.6429 18.3836 22.3046 18.3836Z" fill="#1D73F8"/>
<path d="M29.7453 30.3165V49.3465C29.7453 51.3318 31.3604 52.9469 33.3457 52.9469C35.3309 52.9469 36.946 51.3318 36.946 49.3465V30.3165C37.836 29.407 38.3861 28.1637 38.3861 26.7937C38.3861 25.4236 37.836 24.1803 36.946 23.2708V19.5837C36.946 17.5985 35.3309 15.9834 33.3457 15.9834C31.3604 15.9834 29.7453 17.5985 29.7453 19.5837V23.2708C28.8553 24.1803 28.3052 25.4236 28.3052 26.7937C28.3052 28.1637 28.8553 29.407 29.7453 30.3165ZM35.9859 26.7937C35.9859 28.2495 34.8015 29.4339 33.3457 29.4339C31.8898 29.4339 30.7054 28.2495 30.7054 26.7937C30.7054 25.3378 31.8898 24.1534 33.3457 24.1534C34.8015 24.1534 35.9859 25.3378 35.9859 26.7937ZM33.3457 50.5466C32.6839 50.5466 32.1455 50.0083 32.1455 49.3465V31.6887C32.5304 31.783 32.9321 31.8343 33.3457 31.8343C33.7592 31.8343 34.1609 31.7831 34.5458 31.6887V49.3465C34.5458 50.0083 34.0074 50.5466 33.3457 50.5466ZM33.3457 18.3836C34.0074 18.3836 34.5458 18.922 34.5458 19.5837V21.8988C34.1609 21.8044 33.7592 21.7532 33.3457 21.7532C32.9321 21.7532 32.5304 21.8043 32.1455 21.8988V19.5837C32.1455 18.922 32.6839 18.3836 33.3457 18.3836Z" fill="#1D73F8"/>
<path d="M49.4269 32.3051C54.1915 32.3051 58.0678 28.4288 58.0678 23.6643C58.0678 18.8997 54.1915 15.0234 49.4269 15.0234C44.6624 15.0234 40.7861 18.8997 40.7861 23.6643C40.7861 28.4288 44.6624 32.3051 49.4269 32.3051ZM49.4269 17.4237C52.868 17.4237 55.6675 20.2232 55.6675 23.6643C55.6675 27.1053 52.868 29.9048 49.4269 29.9048C45.9859 29.9048 43.1864 27.1053 43.1864 23.6643C43.1864 20.2232 45.9859 17.4237 49.4269 17.4237Z" fill="black"/>
<path d="M46.7939 24.8643C47.4566 24.8643 47.994 24.327 47.994 23.6642C47.994 22.8742 48.6366 22.2315 49.4267 22.2315C50.0894 22.2315 50.6268 21.6942 50.6268 21.0314C50.6268 20.3686 50.0894 19.8313 49.4267 19.8313C47.3133 19.8313 45.5938 21.5507 45.5938 23.6642C45.5938 24.327 46.131 24.8643 46.7939 24.8643Z" fill="black"/>
<path d="M49.4269 52.9472C54.1915 52.9472 58.0678 49.0709 58.0678 44.3063C58.0678 39.5418 54.1915 35.6655 49.4269 35.6655C44.6624 35.6655 40.7861 39.5418 40.7861 44.3063C40.7861 49.0709 44.6624 52.9472 49.4269 52.9472ZM49.4269 38.0658C52.868 38.0658 55.6675 40.8653 55.6675 44.3063C55.6675 47.7474 52.868 50.5469 49.4269 50.5469C45.9859 50.5469 43.1864 47.7474 43.1864 44.3063C43.1864 40.8653 45.9859 38.0658 49.4269 38.0658Z" fill="black"/>
<path d="M46.7939 45.5062C47.4566 45.5062 47.994 44.9688 47.994 44.3061C47.994 43.5161 48.6366 42.8734 49.4267 42.8734C50.0894 42.8734 50.6268 42.336 50.6268 41.6733C50.6268 41.0106 50.0894 40.4731 49.4267 40.4731C47.3133 40.4731 45.5938 42.1925 45.5938 44.3061C45.5938 44.9688 46.131 45.5062 46.7939 45.5062Z" fill="black"/>
<path d="M32.1454 12.6231C32.4611 12.6231 32.7707 12.4947 32.9938 12.2715C33.2171 12.0483 33.3455 11.7386 33.3455 11.423C33.3455 11.1074 33.2171 10.7978 32.9938 10.5745C32.7707 10.3513 32.4611 10.2229 32.1454 10.2229C31.8298 10.2229 31.5202 10.3513 31.2969 10.5745C31.0737 10.7978 30.9453 11.1074 30.9453 11.423C30.9453 11.7386 31.0736 12.0483 31.2969 12.2715C31.5203 12.4947 31.8298 12.6231 32.1454 12.6231Z" fill="black"/>
</svg>
