<svg width="90" height="90" viewBox="0 0 90 90" fill="none" xmlns="http://www.w3.org/2000/svg">
<g clip-path="url(#clip0)">
<path d="M7.03125 25.3125C6.65829 25.3125 6.3006 25.4607 6.03688 25.7244C5.77316 25.9881 5.625 26.3458 5.625 26.7188V88.5938C5.625 88.9667 5.77316 89.3244 6.03688 89.5881C6.3006 89.8519 6.65829 90 7.03125 90H29.5312C29.9042 90 30.2619 89.8519 30.5256 89.5881C30.7893 89.3244 30.9375 88.9667 30.9375 88.5938V64.6875C30.9375 60.585 32.5672 56.6504 35.4682 53.7495C38.3691 50.8485 42.3037 49.2188 46.4062 49.2188H57.6562C58.0292 49.2188 58.3869 49.0706 58.6506 48.8069C58.9143 48.5432 59.0625 48.1855 59.0625 47.8125C59.0625 47.4396 58.9143 47.0819 58.6506 46.8182C58.3869 46.5544 58.0292 46.4063 57.6562 46.4063H46.4062C41.5578 46.4063 36.9079 48.3323 33.4795 51.7607C30.0511 55.1891 28.125 59.839 28.125 64.6875V87.1875H12.8953L23.6953 19.6875H61.875C62.248 19.6875 62.6056 19.5394 62.8694 19.2756C63.1331 19.0119 63.2812 18.6542 63.2812 18.2813C63.2812 17.9083 63.1331 17.5506 62.8694 17.2869C62.6056 17.0232 62.248 16.875 61.875 16.875H23.1188L10.2234 2.81252H49.2188C49.5917 2.81252 49.9494 2.66436 50.2131 2.40064C50.4768 2.13692 50.625 1.77923 50.625 1.40627C50.625 1.03331 50.4768 0.675626 50.2131 0.411903C49.9494 0.14818 49.5917 2.19731e-05 49.2188 2.19731e-05H7.03125C6.96105 -0.00559702 6.89051 -0.00559702 6.82031 2.19731e-05C6.72215 -0.0103426 6.62316 -0.0103426 6.525 2.19731e-05C6.42988 0.0460544 6.34025 0.102662 6.25781 0.168772C6.19919 0.197331 6.14278 0.230236 6.08906 0.267209V0.267209C6.01312 0.348189 5.94704 0.437875 5.89219 0.534397C5.83298 0.631458 5.78576 0.735341 5.75156 0.843772C5.74628 0.913985 5.74628 0.984496 5.75156 1.05471C5.69392 1.16575 5.65136 1.28398 5.625 1.40627V21.0938C5.625 21.4667 5.77316 21.8244 6.03688 22.0881C6.3006 22.3519 6.65829 22.5 7.03125 22.5C7.40421 22.5 7.7619 22.3519 8.02562 22.0881C8.28934 21.8244 8.4375 21.4667 8.4375 21.0938V5.02033L21.0094 18.7313L10.0547 87.1875H8.4375V26.7188C8.4375 26.3458 8.28934 25.9881 8.02562 25.7244C7.7619 25.4607 7.40421 25.3125 7.03125 25.3125Z" fill="black"/>
<path d="M78.6656 17.8875C78.6325 17.7742 78.5853 17.6655 78.525 17.5641C78.5269 17.5219 78.5269 17.4797 78.525 17.4375L65.8688 0.562494C65.7322 0.380029 65.5533 0.233493 65.3475 0.135504C65.1418 0.0375151 64.9152 -0.00898951 64.6875 -5.58623e-06H54.8438C54.4708 -5.58623e-06 54.1131 0.148152 53.8494 0.411876C53.5857 0.675599 53.4375 1.03328 53.4375 1.40624C53.4375 1.77921 53.5857 2.13689 53.8494 2.40061C54.1131 2.66434 54.4708 2.81249 54.8438 2.81249H63.9844L74.5312 16.875H67.5C67.127 16.875 66.7694 17.0232 66.5056 17.2869C66.2419 17.5506 66.0938 17.9083 66.0938 18.2812C66.0938 18.6542 66.2419 19.0119 66.5056 19.2756C66.7694 19.5393 67.127 19.6875 67.5 19.6875H75.5578L69.075 46.9547C67.6402 46.5942 66.1669 46.41 64.6875 46.4062H63.2812C62.9083 46.4062 62.5506 46.5544 62.2869 46.8181C62.0232 47.0818 61.875 47.4395 61.875 47.8125C61.875 48.1855 62.0232 48.5431 62.2869 48.8069C62.5506 49.0706 62.9083 49.2187 63.2812 49.2187H64.6875C68.7901 49.2187 72.7246 50.8485 75.6256 53.7494C78.5265 56.6504 80.1562 60.5849 80.1562 64.6875V88.5937C80.1562 88.9667 80.3044 89.3244 80.5681 89.5881C80.8319 89.8518 81.1895 90 81.5625 90C81.9355 90 82.2931 89.8518 82.5569 89.5881C82.8206 89.3244 82.9688 88.9667 82.9688 88.5937V64.6875C82.9687 61.0783 81.9004 57.5499 79.8984 54.5469C77.8964 51.5439 75.0503 49.2006 71.7188 47.8125L78.75 18.6047C78.7523 18.5578 78.7523 18.5109 78.75 18.4641C78.7542 18.4032 78.7542 18.3421 78.75 18.2812C78.7531 18.2297 78.7531 18.1781 78.75 18.1266C78.7291 18.0445 78.7009 17.9645 78.6656 17.8875V17.8875Z" fill="black"/>
<path d="M43.5938 80.1562H73.125C73.498 80.1562 73.8556 80.0081 74.1194 79.7444C74.3831 79.4806 74.5312 79.123 74.5312 78.75V63.2812C74.5313 60.6705 73.4941 58.1667 71.6481 56.3207C69.802 54.4746 67.2982 53.4375 64.6875 53.4375H52.0312C49.4205 53.4375 46.9167 54.4746 45.0707 56.3207C43.2246 58.1667 42.1875 60.6705 42.1875 63.2812V78.75C42.1875 79.123 42.3357 79.4806 42.5994 79.7444C42.8631 80.0081 43.2208 80.1562 43.5938 80.1562ZM45 63.2812C45 61.4164 45.7408 59.628 47.0594 58.3094C48.378 56.9908 50.1664 56.25 52.0312 56.25H64.6875C66.5523 56.25 68.3407 56.9908 69.6593 58.3094C70.978 59.628 71.7188 61.4164 71.7188 63.2812V77.3438H45V63.2812Z" fill="black"/>
<path d="M30.9374 26.7188C30.5919 26.7163 30.2576 26.8411 29.9982 27.0693C29.7389 27.2976 29.5726 27.6133 29.5312 27.9563L28.1249 39.2063C28.1009 39.4046 28.1195 39.6058 28.1793 39.7964C28.2392 39.987 28.339 40.1626 28.472 40.3117C28.6051 40.4607 28.7684 40.5796 28.951 40.6606C29.1336 40.7416 29.3314 40.7827 29.5312 40.7813H37.9687C38.3142 40.7838 38.6485 40.659 38.9078 40.4308C39.1672 40.2025 39.3335 39.8868 39.3749 39.5438L40.7812 28.2938C40.8051 28.0955 40.7866 27.8943 40.7267 27.7037C40.6669 27.5131 40.5671 27.3374 40.4341 27.1884C40.301 27.0394 40.1377 26.9204 39.9551 26.8395C39.7725 26.7585 39.5747 26.7173 39.3749 26.7188H30.9374ZM36.7312 37.9688H31.1062L32.1609 29.5313H37.7859L36.7312 37.9688Z" fill="#1D73F8"/>
<path d="M52.0313 29.5313C52.4042 29.5313 52.7619 29.3831 53.0256 29.1194C53.2894 28.8557 53.4375 28.498 53.4375 28.125C53.4375 27.7521 53.2894 27.3944 53.0256 27.1307C52.7619 26.8669 52.4042 26.7188 52.0313 26.7188H45C44.6545 26.7163 44.3202 26.8411 44.0609 27.0693C43.8015 27.2976 43.6352 27.6133 43.5938 27.9563L42.1875 39.2063C42.164 39.3912 42.1774 39.5789 42.2271 39.7585C42.2767 39.9382 42.3616 40.1061 42.4768 40.2527C42.5919 40.3992 42.735 40.5214 42.8978 40.6122C43.0606 40.7029 43.2398 40.7604 43.425 40.7813H43.5938C43.9393 40.7838 44.2736 40.659 44.5329 40.4308C44.7923 40.2025 44.9586 39.8868 45 39.5438L45.7172 33.75H50.625C50.998 33.75 51.3557 33.6019 51.6194 33.3382C51.8831 33.0744 52.0313 32.7167 52.0313 32.3438C52.0313 31.9708 51.8831 31.6131 51.6194 31.3494C51.3557 31.0857 50.998 30.9375 50.625 30.9375H46.0688L46.2516 29.5313H52.0313Z" fill="#1D73F8"/>
<path d="M64.6875 29.5313C65.0605 29.5313 65.4182 29.3831 65.6819 29.1194C65.9456 28.8557 66.0938 28.498 66.0938 28.125C66.0938 27.7521 65.9456 27.3944 65.6819 27.1307C65.4182 26.8669 65.0605 26.7188 64.6875 26.7188H57.6563C57.3108 26.7163 56.9765 26.8411 56.7171 27.0693C56.4577 27.2976 56.2915 27.6133 56.25 27.9563L54.8438 39.2063C54.8202 39.3912 54.8337 39.5789 54.8833 39.7585C54.933 39.9382 55.0179 40.1061 55.133 40.2527C55.2482 40.3992 55.3913 40.5214 55.5541 40.6122C55.7169 40.7029 55.8961 40.7604 56.0813 40.7813H56.25C56.5955 40.7838 56.9298 40.659 57.1892 40.4308C57.4486 40.2025 57.6148 39.8868 57.6563 39.5438L58.3735 33.75H63.2813C63.6542 33.75 64.0119 33.6019 64.2757 33.3382C64.5394 33.0744 64.6875 32.7167 64.6875 32.3438C64.6875 31.9708 64.5394 31.6131 64.2757 31.3494C64.0119 31.0857 63.6542 30.9375 63.2813 30.9375H58.725L58.9078 29.5313H64.6875Z" fill="#1D73F8"/>
<path d="M42.1875 88.5938C42.1875 88.9667 42.3357 89.3244 42.5994 89.5881C42.8631 89.8518 43.2208 90 43.5938 90C43.9667 90 44.3244 89.8518 44.5881 89.5881C44.8518 89.3244 45 88.9667 45 88.5938V84.375C45 84.002 44.8518 83.6444 44.5881 83.3806C44.3244 83.1169 43.9667 82.9688 43.5938 82.9688C43.2208 82.9688 42.8631 83.1169 42.5994 83.3806C42.3357 83.6444 42.1875 84.002 42.1875 84.375V88.5938Z" fill="black"/>
</g>
<defs>
<clipPath id="clip0">
<rect width="90" height="90" fill="white"/>
</clipPath>
</defs>
</svg>
