<?xml version="1.0" encoding="UTF-8"?>
<svg id="German_Quality" data-name="German Quality" xmlns="http://www.w3.org/2000/svg" viewBox="0 0 850 380">
  <defs>
    <style>
      .cls-1 {
        fill: #b4becd;
      }

      .cls-1, .cls-2, .cls-3, .cls-4, .cls-5, .cls-6, .cls-7 {
        stroke-width: 0px;
      }

      .cls-2 {
        fill: #e1e6f0;
      }

      .cls-3 {
        fill: #f5f5fa;
      }

      .cls-4 {
        fill: #323c46;
      }

      .cls-5 {
        fill: #5ac8f5;
      }

      .cls-6 {
        fill: #fff;
      }

      .cls-7 {
        fill: #393f45;
      }
    </style>
  </defs>
  <path class="cls-3" d="M845.67,305.02c0,40.65-188.15,73.61-420.24,73.61S5.2,345.68,5.2,305.02s188.15-73.61,420.24-73.61,420.24,32.95,420.24,73.61Z"/>
  <path class="cls-2" d="M675.62,153.35L344.78,4.38c-8.47-3.82-18.13-4.03-26.76-.6l-123.22,49.05c-10.22,4.18-15.38,15.63-11.76,26.05l44.92,124.82c3.16,8.74,9.72,15.83,18.19,19.65l330.84,148.97c17.28,7.77,37.58.08,45.37-17.2l70.46-156.41c7.78-17.26.1-37.57-17.16-45.35l-.04-.02h0ZM308.88,119.89c-5.46,12.09-19.69,17.46-31.78,12-12.09-5.46-17.46-19.69-12-31.78,5.46-12.09,19.69-17.46,31.78-12,12.09,5.46,17.46,19.69,12,31.78Z"/>
  <path class="cls-1" d="M108.74,125.63c-25.52,0-46.29-20.76-46.29-46.29s20.76-46.29,46.29-46.29,46.28,20.76,46.28,46.29-20.76,46.29-46.28,46.29Z"/>
  <path class="cls-4" d="M108.74,37.06c23.32,0,42.28,18.97,42.28,42.28s-18.97,42.28-42.28,42.28-42.28-18.97-42.28-42.28,18.97-42.28,42.28-42.28M108.74,29.06c-27.77,0-50.28,22.51-50.28,50.28s22.51,50.28,50.28,50.28,50.28-22.51,50.28-50.28-22.51-50.28-50.28-50.28Z"/>
  <path class="cls-4" d="M107,73.27c-3.58-1.07-6.32-2.79-6.24-5.96,0-2.89,2.2-5.14,6.24-5.7v11.66ZM111.2,96.59v-12.35c4.55,1.28,7.06,2.92,7.08,6.06-.03,3.3-2.74,5.7-7.08,6.29ZM107,111.84h4.19v-5.86c11.53-.64,18.23-6.6,18.26-15.65-.03-8.72-6.6-13.35-15.7-15.4l-2.56-.61v-12.74c4.09.54,6.57,2.84,6.93,6.39h10.61c-.15-8.8-6.98-15.04-17.54-15.73v-5.88h-4.19v5.91c-10.31.79-17.65,6.91-17.59,15.78-.03,7.72,5.42,12.15,14.27,14.27l3.32.84v13.48c-4.71-.56-7.95-3.2-8.26-7.8h-10.72c.26,10.69,7.49,16.5,18.98,17.13v5.86Z"/>
  <path class="cls-1" d="M159.49,314.84c-25.52,0-46.29-20.76-46.29-46.29s20.76-46.29,46.29-46.29,46.29,20.76,46.29,46.29-20.76,46.29-46.29,46.29Z"/>
  <path class="cls-4" d="M159.49,226.27c23.32,0,42.28,18.97,42.28,42.28s-18.97,42.28-42.28,42.28-42.28-18.97-42.28-42.28,18.97-42.28,42.28-42.28M159.49,218.27c-27.77,0-50.28,22.51-50.28,50.28s22.51,50.28,50.28,50.28,50.28-22.51,50.28-50.28-22.51-50.28-50.28-50.28Z"/>
  <path class="cls-4" d="M171.9,260.16h-18.05c1.71-6.11,5.55-8.87,10.74-8.87,4.53,0,7.83,2.2,9.87,3.63l4.09-8.75c-3.79-3.07-8.49-4.76-13.96-4.76-11.05,0-19.41,6.83-21.99,18.75h-5.34l-2.07,5.6h6.65c-.05.84-.08,1.71-.08,2.61,0,.84.03,1.69.08,2.51h-4.58l-2.07,5.73h7.42c2.58,11.89,10.95,18.62,21.99,18.62,5.27,0,10.1-1.56,13.81-4.63l-4.14-8.75c-1.87,1.38-5.17,3.5-9.67,3.5-5.19,0-9.03-2.66-10.74-8.75h10.38l2.79-5.73h-14.07c-.05-.79-.08-1.64-.08-2.51,0-.92.03-1.79.08-2.61h16.42l2.53-5.6Z"/>
  <path class="cls-1" d="M655.47,150.43c-25.52,0-46.29-20.76-46.29-46.29s20.76-46.29,46.29-46.29,46.29,20.76,46.29,46.29-20.76,46.29-46.29,46.29Z"/>
  <path class="cls-4" d="M655.47,61.86c23.32,0,42.28,18.97,42.28,42.28s-18.97,42.28-42.28,42.28-42.28-18.97-42.28-42.28,18.97-42.28,42.28-42.28M655.47,53.86c-27.77,0-50.28,22.51-50.28,50.28s22.51,50.28,50.28,50.28,50.28-22.51,50.28-50.28-22.51-50.28-50.28-50.28Z"/>
  <path class="cls-4" d="M667.88,95.74h-18.05c1.71-6.11,5.55-8.87,10.74-8.87,4.53,0,7.83,2.2,9.87,3.63l4.09-8.75c-3.79-3.07-8.49-4.76-13.96-4.76-11.05,0-19.41,6.83-21.99,18.75h-5.34l-2.07,5.6h6.65c-.05.84-.08,1.71-.08,2.61,0,.84.03,1.69.08,2.51h-4.58l-2.07,5.73h7.42c2.58,11.89,10.95,18.62,21.99,18.62,5.27,0,10.1-1.56,13.81-4.63l-4.14-8.75c-1.87,1.38-5.17,3.5-9.67,3.5-5.19,0-9.03-2.66-10.74-8.75h10.38l2.79-5.73h-14.07c-.05-.79-.08-1.64-.08-2.51,0-.92.03-1.79.08-2.61h16.42l2.53-5.6Z"/>
  <path class="cls-1" d="M726.83,187.27c-25.52,0-46.29-20.76-46.29-46.29s20.76-46.29,46.29-46.29,46.28,20.76,46.28,46.29-20.76,46.29-46.28,46.29Z"/>
  <path class="cls-4" d="M726.83,98.7c23.32,0,42.28,18.97,42.28,42.28s-18.97,42.28-42.28,42.28-42.28-18.97-42.28-42.28,18.97-42.28,42.28-42.28M726.83,90.7c-27.77,0-50.28,22.51-50.28,50.28s22.51,50.28,50.28,50.28,50.28-22.51,50.28-50.28-22.51-50.28-50.28-50.28Z"/>
  <path class="cls-4" d="M709.42,124.37c0-2.43.97-5.09,4.02-5.09,3.22,0,4.07,2.58,4.07,5.09v2.76c0,2.51-.95,5.04-4.07,5.04s-4.02-2.53-4.02-5.04v-2.76ZM736.25,154.34c0-2.51,1.02-5.09,4.09-5.09,3.22,0,4.04,2.58,4.04,5.09v2.76c0,2.51-.92,5.04-4.04,5.04s-4.09-2.61-4.09-5.04v-2.76ZM705.33,166.93h6.67l36.01-52.38h-6.67l-36.01,52.38ZM701.92,127.13c0,6.29,4.04,11.58,11.51,11.58s11.56-5.24,11.56-11.58v-2.76c0-6.34-4.02-11.64-11.56-11.64s-11.51,5.29-11.51,11.64v2.76ZM728.8,157.11c0,6.29,4.04,11.64,11.53,11.64s11.53-5.34,11.53-11.64v-2.76c0-6.34-4.02-11.64-11.53-11.64s-11.53,5.35-11.53,11.64v2.76Z"/>
  <path class="cls-1" d="M785.97,359.14c-25.52,0-46.29-20.76-46.29-46.28s20.76-46.29,46.29-46.29,46.29,20.76,46.29,46.29-20.76,46.28-46.29,46.28Z"/>
  <path class="cls-4" d="M785.97,270.57c23.32,0,42.28,18.97,42.28,42.28s-18.97,42.28-42.28,42.28-42.28-18.97-42.28-42.28,18.97-42.28,42.28-42.28M785.97,262.57c-27.77,0-50.28,22.51-50.28,50.28s22.51,50.28,50.28,50.28,50.28-22.51,50.28-50.28-22.51-50.28-50.28-50.28Z"/>
  <path class="cls-4" d="M804.91,338.09v-9.13h-23.14c1.51-1.76,2.12-3.91,2.02-6.67l-.18-5.04h11.18v-8.72h-11.51l-.31-8c-.03-4.5,2.46-6.65,5.68-6.65s6.14,1.61,6.01,5.96l10.36.28c.36-8.82-5.88-15.11-16.55-15.11-9.54,0-16.78,5.55-16.39,15.52l.28,8h-5.63v8.72h5.91l.2,5.65c.08,2.71-.41,5.57-2.63,6.06h-3.35v9.13h38.05Z"/>
  <path class="cls-6" d="M419.21,129.79c-52.07,0-95.71,29.84-107.47,70.01h-24.61c-4.38,0-7.94,3.55-7.94,7.94v27.53c0,4.38,3.55,7.94,7.94,7.94h24.61c6.05,20.66,20.53,38.58,40.26,51.12v32.42c0,2.19,1.78,3.97,3.97,3.97h18.9c4.38,0,7.94-3.55,7.94-7.94v-14.67c11.4,3.3,23.65,5.11,36.4,5.11,14.34,0,28.03-2.29,40.6-6.41v19.94c0,2.19,1.78,3.97,3.97,3.97h18.9c4.38,0,7.94-3.55,7.94-7.94v-31.26c23.97-16.82,39.2-41.94,39.2-70.01,0-50.65-49.52-91.71-110.61-91.71Z"/>
  <circle class="cls-5" cx="421.71" cy="57.68" r="35.09" transform="translate(45.88 257.47) rotate(-35.78)"/>
  <path class="cls-6" d="M326.07,155.49l-22.61-36.75h31.23c9.37,0,17.78,7,20.31,16.96l-28.93,19.79Z"/>
  <path class="cls-7" d="M360.56,183.26c0,6.67-5.41,12.08-12.08,12.08s-12.08-5.41-12.08-12.08,5.41-12.08,12.08-12.08,12.08,5.41,12.08,12.08ZM604.2,187.98c-.2,1.66-.88,3.2-1.74,4.37-.86,1.19-1.87,2.06-2.9,2.77-2.07,1.4-4.27,2.21-6.66,2.84-1.59.41-3.27.72-5.01.94-2.33.3-4.78.44-7.29.44-1.13,0-2.28-.04-3.43-.1-.77,1.69-1.58,3.34-2.47,4.89-1.7,2.92-3.6,5.55-5.89,7.72-1.32,1.24-2.78,2.34-4.49,3.17-5.39,2.6-10.51,3.54-14.86,3.54-2.89,0-5.43-.4-7.56-.94.06,1.29.09,2.59.09,3.89,0,29.08-14.21,56.51-39.2,76.13v25.14c0,11.09-9.02,20.11-20.11,20.11h-18.9c-8.9,0-16.14-7.24-16.14-16.14v-4.17c-9.28,1.87-18.79,2.81-28.43,2.81-8.17,0-16.28-.68-24.24-2.03-.3,10.82-9.2,19.54-20.1,19.54h-18.9c-8.9,0-16.14-7.24-16.14-16.14v-25.96c-16.83-12.08-29.55-27.83-36.71-45.41h-15.98c-11.09,0-20.11-9.02-20.11-20.11v-27.53c0-11.09,9.02-20.11,20.11-20.11h15.97c4.36-10.77,10.71-20.65,18.61-29.38-.8-.49-1.52-1.14-2.04-1.99l-22.61-36.75c-1.16-1.89-1.21-4.23-.13-6.16,1.08-1.93,3.1-3.12,5.31-3.12h31.23c6.22,0,12.04,2.33,16.62,6.16,4.32,3.61,7.59,8.58,9.27,14.33,17.82-8.39,38.28-13.1,59.84-13.1,32.38,0,62.91,10.53,85.98,29.66,18.7,15.51,30.78,35.17,35.06,56.6.35.14.69.32,1.02.53h0s0,0,0,0h.02s.15.1.31.19c.32.17.86.43,1.58.69,1.45.53,3.6,1.09,6.26,1.09,2.66,0,5.84-.53,9.58-2.33.43-.19,1.38-.88,2.42-2.11,1-1.16,2.09-2.77,3.12-4.65-2.71-.73-5.31-1.66-7.72-2.92-2.33-1.22-4.5-2.73-6.31-4.77-1.03-1.16-1.94-2.5-2.6-4.02-.76-1.73-1.19-3.68-1.18-5.65,0-1.78.33-3.56.93-5.28.6-1.72,1.46-3.39,2.55-5.04,2.19-3.29,5.27-6.5,9.41-9.89.34-.28.68-.5,1.08-.7,1.55-.79,3.06-1.42,4.58-1.86,1.52-.44,3.05-.69,4.6-.69,1.89,0,3.83.4,5.55,1.27,1.72.85,3.15,2.13,4.2,3.53.71.93,1.26,1.93,1.71,2.93.59,1.35.99,2.73,1.26,4.14.36,1.88.51,3.8.51,5.78,0,4.17-.66,8.61-1.76,13.03,2.07-.03,4.05-.18,5.77-.44,1.93-.29,3.56-.72,4.56-1.14.3-.12.54-.24.71-.34.92-2.65,3.59-4.39,6.48-4.03,3.34.41,5.71,3.45,5.3,6.78ZM330.04,149.87h0s.03.07.03.07c5.63-5.02,11.85-9.54,18.54-13.51-.31-.51-.57-1.05-.73-1.66-.95-3.75-3-6.89-5.59-9.05-2.6-2.16-5.66-3.33-8.82-3.33h-20.34s16.91,27.47,16.91,27.47ZM529.82,221.5c0-50.65-49.52-91.71-110.61-91.71-52.07,0-95.71,29.84-107.47,70.01h-24.61c-4.38,0-7.94,3.55-7.94,7.94v27.53c0,4.38,3.55,7.94,7.94,7.94h24.61c6.05,20.66,20.53,38.58,40.26,51.12v32.42c0,2.19,1.78,3.97,3.97,3.97h18.9c4.38,0,7.94-3.55,7.94-7.94v-14.67c11.4,3.3,23.65,5.11,36.4,5.11,14.34,0,28.03-2.29,40.6-6.41v19.94c0,2.19,1.78,3.97,3.97,3.97h18.9c4.38,0,7.94-3.55,7.94-7.94v-31.26c23.97-16.82,39.2-41.94,39.2-70.01ZM562.41,183.55c.99.52,2.18,1.03,3.52,1.47.99.33,2.07.62,3.19.88.26-.94.51-1.88.72-2.82.74-3.25,1.13-6.41,1.13-8.97,0-1.56-.15-2.89-.37-3.85-.21-.92-.49-1.45-.62-1.62h-.07c-.2,0-.61.03-1.23.21-.48.14-1.1.37-1.81.71-2.35,1.97-4.13,3.75-5.36,5.26-1.32,1.62-2.02,2.94-2.32,3.83-.21.6-.25,1-.25,1.28,0,.27.04.44.11.64.07.2.2.44.43.74.46.6,1.44,1.44,2.94,2.23ZM382.03,57.68c0-21.91,17.76-39.68,39.68-39.68s39.68,17.76,39.68,39.68-17.76,39.68-39.68,39.68-39.68-17.76-39.68-39.68ZM394.2,57.68c0,15.17,12.34,27.51,27.51,27.51s27.51-12.34,27.51-27.51-12.34-27.51-27.51-27.51-27.51,12.34-27.51,27.51Z"/>
  <path class="cls-5" d="M461.26,155.52c-12.49-4.38-26.17-6.79-40.51-6.79-14.35,0-28.05,2.41-40.55,6.8-3.17,1.11-4.84,4.59-3.73,7.76,1.11,3.17,4.59,4.84,7.76,3.73h0c11.19-3.93,23.53-6.11,36.52-6.11,12.97,0,25.3,2.18,36.48,6.1,3.17,1.11,6.64-.56,7.76-3.73,1.11-3.17-.56-6.64-3.73-7.76Z"/>
</svg>