<?xml version="1.0" encoding="UTF-8"?>
<svg id="German_Quality" data-name="German Quality" xmlns="http://www.w3.org/2000/svg" viewBox="0 0 850 380">
  <defs>
    <style>
      .cls-1 {
        fill: #b4becd;
      }

      .cls-1, .cls-2, .cls-3, .cls-4, .cls-5 {
        stroke-width: 0px;
      }

      .cls-2 {
        fill: #f5f5fa;
      }

      .cls-3 {
        fill: #5ac8f5;
      }

      .cls-4 {
        fill: #fff;
      }

      .cls-5 {
        fill: #393f45;
      }
    </style>
  </defs>
  <path class="cls-2" d="M674.42,0H175.58C83.81,44.53,25,113.09,25,190s58.81,145.47,150.58,190h498.83c91.78-44.53,150.58-113.09,150.58-190S766.19,44.53,674.42,0Z"/>
  <path class="cls-1" d="M315.14,128.2c0-19.59-15.66-35.46-34.97-35.46h0c-19.31,0-34.97,15.88-34.97,35.46,0,.43,0,3.28,0,3.39-.05,24.41,34.97,63.95,34.97,63.95,0,0,35.02-39.54,34.97-63.95,0-.11,0-2.96,0-3.39Z"/>
  <path class="cls-5" d="M280.17,100.74c14.87,0,26.97,12.32,26.97,27.46v.9c0,1,0,2.43,0,2.51.03,14.42-16.14,37.85-26.97,51.45-10.83-13.6-27-37.03-26.97-51.47v-.88s0-2.51,0-2.51c0-15.14,12.1-27.46,26.97-27.46h0M280.17,92.74h0c-19.31,0-34.97,15.88-34.97,35.46,0,.43,0,3.28,0,3.39-.05,24.41,34.97,63.95,34.97,63.95,0,0,35.02-39.54,34.97-63.95,0-.11,0-2.96,0-3.39,0-19.59-15.66-35.46-34.97-35.46Z"/>
  <path class="cls-4" d="M280.17,142.04c-8.08,0-14.65-6.57-14.65-14.65s6.57-14.65,14.65-14.65,14.65,6.57,14.65,14.65-6.57,14.65-14.65,14.65Z"/>
  <path class="cls-5" d="M280.17,116.74c5.87,0,10.65,4.78,10.65,10.65s-4.78,10.65-10.65,10.65-10.65-4.78-10.65-10.65,4.78-10.65,10.65-10.65M280.17,108.74c-10.3,0-18.65,8.35-18.65,18.65s8.35,18.65,18.65,18.65,18.65-8.35,18.65-18.65-8.35-18.65-18.65-18.65Z"/>
  <circle class="cls-3" cx="414.06" cy="193.04" r="130.53" transform="translate(-15.22 349.32) rotate(-45)"/>
  <path class="cls-4" d="M396.62,205.34h18.46l-8.2,24.61-13.33,12.31v13.33l-13.33,10.26-3.08,22.56-18.46-6.15-4.1-16.41,3.08-43.07-24.61-4.1-11.05-26.15,8.64-12.02-20.15-14.14-13.9-30.28c14.61-28.36,36.62-49.85,67.07-63.49l8.37,11.73,31.79,8.2v15.02h-15.83l-10.83,22.92-21.54,12.31h-28.12l.43,15.38,8.2,7.18-2.05,13.33,15.38-4.1,7.18,11.28h28.99l11.01,19.49ZM453.03,107.91l35.89,11.28,22.04-13.61c-10.74-12.04-23.29-21.22-37.01-28.56l-17.84,14.48-24.14-7.24-8.67,22.62,13.33,7.18,16.41-6.15ZM521.7,119.2l-30.73,12.11-33.09-7.49-25.14,1.92-9.46,10.45v31.86l33.84,15.77,15.36-10.27,12.1,6.97.23,20.73,14.36,27.69-4.1,15.38,21.54,18.46,5.09,4.1c28.15-47.33,32.3-96.28,0-147.68Z"/>
  <path class="cls-5" d="M509.98,97.28c-9.83-9.85-21.19-18.2-33.67-24.67h0c-18.58-9.62-39.67-15.08-62.02-15.11h-.23c-37.36,0-71.24,15.14-95.75,39.61-24.52,24.46-39.72,58.32-39.78,95.69h0s0,.23,0,.23c0,37.36,15.14,71.24,39.61,95.75,24.46,24.52,58.32,39.72,95.69,39.78h.23c15.35,0,30.13-2.56,43.91-7.27l-6.38,12.1c-1.29,2.44-.35,5.47,2.09,6.76s5.47.35,6.76-2.09l12.59-23.88c.61-1.16.74-2.55.35-3.81-.39-1.26-1.28-2.33-2.44-2.94l-23.88-12.59c-2.44-1.29-5.47-.35-6.76,2.09-1.29,2.44-.35,5.47,2.09,6.76h0s14.22,7.5,14.22,7.5c-13.29,4.79-27.6,7.4-42.55,7.4h-.22s0,0,0,0c-34.65-.06-65.94-14.12-88.63-36.85-22.68-22.73-36.69-54.05-36.69-88.68v-.21s0,0,0,0c.03-15.67,2.93-30.64,8.19-44.46l9.22,20.09c.36.79.96,1.51,1.67,2.01l16.01,11.23-5.69,7.91c-1.01,1.41-1.22,3.26-.55,4.87l11.05,26.15c.66,1.57,2.1,2.71,3.78,2.99l20.12,3.35-2.75,38.53c-.04.51.01,1.07.14,1.57l4.1,16.41c.41,1.65,1.65,2.99,3.27,3.53l18.46,6.15c1.41.47,2.96.29,4.22-.5,1.26-.78,2.11-2.1,2.31-3.57l2.8-20.53,11.7-9c1.23-.95,1.95-2.41,1.95-3.96v-11.14l11.72-10.82c.62-.57,1.08-1.29,1.35-2.09l8.2-24.61c.51-1.52.25-3.2-.69-4.5-.94-1.3-2.45-2.08-4.06-2.08h-15.54l-9.57-16.95c-.89-1.57-2.55-2.54-4.35-2.54h-26.24l-5.71-8.97c-1.17-1.83-3.41-2.71-5.51-2.15l-7.99,2.13.89-5.77c.26-1.69-.37-3.4-1.65-4.52l-6.56-5.74-.22-8.06h22.98c.87,0,1.72-.23,2.48-.66l21.54-12.31c.89-.51,1.6-1.28,2.04-2.2l9.48-20.06h12.66c1.32,0,2.6-.53,3.54-1.46s1.46-2.22,1.46-3.54v-15.02c0-2.28-1.54-4.27-3.75-4.84l-30.03-7.75-3.58-5.01c13.3-4.8,27.65-7.42,42.61-7.42h.21c17.94.03,34.98,3.83,50.4,10.62l-9.65,7.83-21.61-6.48c-2.5-.75-5.17.56-6.1,3l-8.67,22.62c-.9,2.35.08,5,2.3,6.19l13.33,7.18c1.27.69,2.77.79,4.13.28l14.8-5.55,34.25,10.76c1.38.43,2.89.24,4.13-.52l18.43-11.38c1.34,1.58,2.63,3.19,3.89,4.84l-23.29,9.18-31.59-7.15c-.5-.11-.97-.15-1.49-.11l-25.14,1.92c-1.27.1-2.47.68-3.33,1.63l-9.46,10.45c-.83.92-1.29,2.12-1.29,3.36v31.86c0,1.94,1.13,3.71,2.89,4.53l33.84,15.77c1.59.74,3.43.6,4.89-.38l12.78-8.54,6.93,3.99.2,17.88c0,.79.2,1.54.56,2.25l13.47,25.97-3.6,13.51c-.5,1.86.11,3.83,1.58,5.08l21.54,18.46.12.1,1.41,1.14c-5.62,7.56-12.06,14.48-19.2,20.6-2.1,1.8-2.34,4.95-.54,7.05s4.95,2.34,7.05.54c28.95-24.79,47.33-61.63,47.4-102.74h0s0-.23,0-.23c0-37.36-15.14-71.24-39.61-95.75ZM347.19,180.35l5.21,8.19c.92,1.44,2.51,2.32,4.22,2.32h26.07l9.57,16.95c.89,1.57,2.55,2.54,4.35,2.54h11.52l-5.6,16.81-12.39,11.43c-1.02.94-1.61,2.28-1.61,3.67v10.87l-11.38,8.75c-1.04.8-1.73,1.98-1.91,3.29l-2.26,16.59-10.14-3.38-3.24-12.97,3.02-42.28c.18-2.57-1.62-4.86-4.17-5.29l-21.9-3.65-8.89-21.03,6.84-9.51c.28-.03.55-.07.83-.14l11.84-3.16ZM367.94,87.23c.68.96,1.68,1.64,2.82,1.94l28.04,7.24v6.15h-10.83c-1.93,0-3.7,1.12-4.52,2.86l-10.16,21.5-19.02,10.87h-26.79c-1.35,0-2.64.54-3.58,1.51-.94.97-1.45,2.27-1.41,3.62l.43,15.38c.04,1.39.66,2.71,1.71,3.62l6.14,5.37-1,6.49-15.3-10.73-12.34-26.88c6.04-11.87,13.92-22.65,23.25-31.98,10.52-10.5,22.88-19.13,36.56-25.38l6.01,8.42ZM488.24,113.74l-33.71-10.6c-1.06-.33-2.21-.3-3.25.09l-14.28,5.36-7.46-4.02,5.44-14.18,19.7,5.91c1.59.48,3.3.14,4.59-.91l15.27-12.38c10.45,5.76,20,12.96,28.38,21.35l.21.21-14.87,9.18ZM539.59,193.25h0c-.04,24.35-7.02,47.05-19.04,66.27l-.74-.59-19.09-16.36,3.29-12.35c.32-1.2.18-2.49-.39-3.59l-13.81-26.63-.22-19.54c-.02-1.77-.97-3.39-2.5-4.28l-12.1-6.97c-1.64-.95-3.7-.88-5.27.18l-13.02,8.7-28.4-13.23v-26.75l6.83-7.54,22.4-1.71,32.36,7.33c.97.22,2.01.14,2.94-.22l26.97-10.63c12.54,19.54,19.81,42.76,19.81,67.7v.22Z"/>
  <path class="cls-1" d="M513.46,88.81l.07-.03c.36-.15,2.1-.86,5.44-2.13,1.29-.49,1.94-1.93,1.45-3.22-.49-1.29-1.93-1.94-3.22-1.45-3.86,1.47-5.63,2.2-5.66,2.21-1.27.53-1.88,1.99-1.35,3.27.53,1.27,1.99,1.88,3.27,1.35h0Z"/>
  <path class="cls-1" d="M221.29,219.07c2.84-2.57,5.77-5.15,8.79-7.71l-1.62-1.9,1.57,1.94.29-.24c1.07-.87,1.24-2.44.37-3.52-.87-1.07-2.44-1.24-3.52-.37l-.29.24-.05.04c-3.06,2.6-6.03,5.21-8.91,7.82-1.02.93-1.1,2.51-.17,3.53.93,1.02,2.51,1.1,3.53.17h0ZM202.7,237.38c2.64-2.86,5.44-5.75,8.37-8.65.98-.97.99-2.55.02-3.54-.97-.98-2.55-.99-3.54-.02-2.98,2.95-5.83,5.89-8.53,8.81-.94,1.01-.87,2.6.14,3.53,1.01.94,2.6.87,3.53-.14h0ZM186.36,257.53c2.14-3.12,4.53-6.31,7.16-9.57.87-1.07.7-2.65-.37-3.52-1.07-.87-2.65-.7-3.52.37-2.7,3.34-5.17,6.64-7.39,9.88-.78,1.14-.49,2.69.65,3.48,1.14.78,2.69.49,3.48-.65h0ZM175.15,280.21c.85-3.36,2.24-6.99,4.14-10.82.61-1.24.11-2.74-1.13-3.35-1.24-.61-2.74-.11-3.35,1.13-2.03,4.08-3.56,8.03-4.51,11.82-.34,1.34.48,2.7,1.81,3.03,1.34.34,2.7-.48,3.03-1.81h0ZM180.43,302.21c-2.19-2.3-3.84-4.83-4.97-7.6-.22-.55-.42-1.11-.58-1.69-.38-1.33-1.76-2.1-3.09-1.72-1.33.38-2.1,1.76-1.72,3.09.21.75.46,1.48.76,2.2,1.37,3.39,3.39,6.46,5.98,9.17.95,1,2.53,1.04,3.53.09,1-.95,1.04-2.53.09-3.53ZM202.17,313.87c-4.07-1.14-7.73-2.51-10.95-4.07-1.24-.6-2.74-.09-3.34,1.16-.6,1.24-.09,2.74,1.16,3.34,3.54,1.72,7.47,3.18,11.78,4.39,1.33.37,2.71-.4,3.08-1.73.37-1.33-.4-2.71-1.73-3.08ZM227.6,317.9c-4.17-.28-8.14-.69-11.89-1.23-1.37-.2-2.63.75-2.83,2.12-.2,1.37.75,2.63,2.12,2.83,3.89.56,7.98.98,12.27,1.27,1.38.09,2.57-.95,2.66-2.33.09-1.38-.95-2.57-2.33-2.66h0ZM253.62,318.05c-4.14.19-8.15.29-12.03.29-1.38,0-2.5,1.12-2.5,2.5,0,1.38,1.12,2.5,2.5,2.5,3.96,0,8.05-.1,12.26-.3,1.38-.06,2.45-1.23,2.38-2.61s-1.23-2.45-2.61-2.38h0ZM279.65,315.82c-4.09.5-8.09.92-12,1.27-1.38.12-2.39,1.34-2.27,2.71.12,1.38,1.34,2.39,2.71,2.27,3.96-.36,8.02-.78,12.16-1.29,1.37-.17,2.35-1.41,2.18-2.78-.17-1.37-1.41-2.35-2.78-2.18ZM305.54,311.9c-4.04.72-8.01,1.38-11.92,1.98-1.36.21-2.3,1.49-2.09,2.85.21,1.36,1.49,2.3,2.85,2.09,3.95-.61,7.97-1.28,12.04-2,1.36-.24,2.26-1.54,2.02-2.9-.24-1.36-1.54-2.26-2.9-2.02ZM331.21,306.69c-3.99.9-7.93,1.75-11.83,2.55-1.35.28-2.22,1.6-1.95,2.95.28,1.35,1.6,2.22,2.95,1.95,3.93-.81,7.9-1.66,11.92-2.57,1.35-.3,2.19-1.64,1.89-2.99-.3-1.35-1.64-2.19-2.99-1.89h0ZM356.67,300.4c-3.94,1.05-7.85,2.06-11.72,3.03-1.34.33-2.16,1.69-1.82,3.03.33,1.34,1.69,2.16,3.03,1.82,3.9-.97,7.83-1.99,11.8-3.05,1.33-.36,2.13-1.73,1.77-3.06-.36-1.33-1.73-2.13-3.06-1.77ZM381.88,293.17c-3.9,1.19-7.77,2.34-11.61,3.45-1.33.38-2.09,1.77-1.71,3.09.38,1.33,1.77,2.09,3.09,1.71,3.87-1.11,7.76-2.27,11.68-3.47,1.32-.4,2.06-1.8,1.66-3.12-.4-1.32-1.8-2.06-3.12-1.66h0ZM406.85,285.1c-3.85,1.31-7.68,2.59-11.49,3.82-1.31.43-2.03,1.84-1.61,3.15.43,1.31,1.84,2.03,3.15,1.61,3.83-1.24,7.69-2.53,11.56-3.85,1.31-.45,2.01-1.87,1.56-3.17-.45-1.31-1.87-2.01-3.17-1.56ZM431.56,276.26c-3.8,1.43-7.6,2.82-11.37,4.17-1.3.47-1.97,1.9-1.51,3.2.47,1.3,1.9,1.97,3.2,1.51,3.8-1.36,7.61-2.76,11.44-4.2,1.29-.48,1.95-1.93,1.46-3.22-.48-1.29-1.93-1.95-3.22-1.46h0ZM456,266.69c-.8.33-1.6.65-2.41.98-2.95,1.2-5.9,2.37-8.84,3.53-1.29.51-1.92,1.96-1.41,3.24.51,1.28,1.96,1.92,3.24,1.41,2.96-1.16,5.92-2.34,8.88-3.55.81-.33,1.62-.66,2.42-.99,1.28-.52,1.89-1.98,1.37-3.26-.52-1.28-1.98-1.89-3.26-1.37h0ZM480.14,256.4c-3.67,1.63-7.37,3.24-11.11,4.83-1.27.54-1.86,2.01-1.32,3.28.54,1.27,2.01,1.86,3.28,1.32,3.76-1.6,7.48-3.23,11.17-4.86,1.26-.56,1.83-2.04,1.27-3.3-.56-1.26-2.04-1.83-3.3-1.27h0ZM503.97,245.4c-3.61,1.74-7.26,3.46-10.96,5.17-1.25.58-1.8,2.07-1.22,3.32.58,1.25,2.07,1.8,3.32,1.22,3.71-1.72,7.39-3.45,11.02-5.2,1.24-.6,1.77-2.09,1.17-3.34-.6-1.24-2.09-1.77-3.34-1.17h0ZM527.44,233.66c-3.55,1.85-7.14,3.69-10.78,5.51-1.23.62-1.73,2.12-1.11,3.36.62,1.23,2.12,1.73,3.36,1.11,3.66-1.84,7.28-3.69,10.85-5.55,1.22-.64,1.7-2.15,1.06-3.37-.64-1.22-2.15-1.7-3.37-1.06h0ZM550.49,221.13c-3.47,1.97-7,3.93-10.58,5.88-1.21.66-1.66,2.18-1,3.39.66,1.21,2.18,1.66,3.39,1,3.61-1.97,7.16-3.94,10.65-5.93,1.2-.68,1.62-2.21.94-3.41-.68-1.2-2.21-1.62-3.41-.94ZM573.04,207.75c-3.38,2.1-6.83,4.2-10.34,6.29-1.19.71-1.58,2.24-.87,3.43.71,1.19,2.24,1.58,3.43.87,3.54-2.11,7.01-4.22,10.42-6.34,1.17-.73,1.53-2.27.8-3.44-.73-1.17-2.27-1.53-3.44-.8h0ZM594.97,193.41c-3.26,2.25-6.61,4.5-10.04,6.75-1.15.76-1.48,2.31-.72,3.46.76,1.15,2.31,1.48,3.46.72,3.46-2.27,6.84-4.54,10.13-6.81,1.14-.78,1.42-2.34.64-3.48-.78-1.14-2.34-1.42-3.48-.64ZM616.1,177.95c-3.1,2.42-6.32,4.85-9.63,7.28-1.11.82-1.35,2.38-.54,3.49.82,1.11,2.38,1.35,3.49.54,3.35-2.46,6.61-4.92,9.75-7.37,1.09-.85,1.28-2.42.43-3.51-.85-1.09-2.42-1.28-3.51-.43h0ZM636.07,161.13c-2.87,2.63-5.89,5.29-9.04,7.96-1.05.89-1.19,2.47-.29,3.52.89,1.05,2.47,1.19,3.52.29,3.21-2.71,6.28-5.41,9.2-8.09,1.02-.93,1.08-2.52.15-3.53-.93-1.02-2.52-1.09-3.53-.15h0ZM654.2,142.49c-2.47,2.91-5.16,5.87-8.06,8.86-.96.99-.94,2.57.06,3.54.99.96,2.57.93,3.54-.06,2.97-3.07,5.73-6.11,8.28-9.11.89-1.05.76-2.63-.29-3.52-1.05-.89-2.63-.76-3.52.29h0ZM668.64,121.31c-1.62,3.27-3.62,6.66-5.99,10.15-.78,1.14-.48,2.7.66,3.47,1.14.78,2.7.48,3.47-.66,2.48-3.65,4.6-7.23,6.34-10.74.61-1.24.11-2.74-1.13-3.35-1.24-.61-2.74-.11-3.35,1.13h0ZM673.24,97.57c.32,1.6.48,3.26.48,4.99,0,1.95-.2,3.98-.61,6.09-.26,1.36.62,2.67,1.98,2.93,1.36.26,2.67-.62,2.93-1.98.46-2.39.7-4.74.7-7.04,0-2.03-.19-4.02-.57-5.96-.27-1.35-1.58-2.24-2.94-1.97-1.35.27-2.24,1.58-1.97,2.94h0ZM658.18,79.8c3.7,2.04,6.79,4.3,9.17,6.73.97.99,2.55,1,3.54.04.99-.97,1-2.55.04-3.54-2.8-2.86-6.29-5.38-10.33-7.61-1.21-.67-2.73-.23-3.4.98-.67,1.21-.23,2.73.98,3.4h0ZM634.11,71.42c4.05.85,7.9,1.87,11.48,3.04,1.31.43,2.72-.29,3.15-1.6.43-1.31-.29-2.72-1.6-3.15-3.77-1.23-7.78-2.29-12-3.18-1.35-.28-2.68.58-2.96,1.93-.28,1.35.58,2.68,1.93,2.96ZM608.41,68.33c4.07.17,8.06.47,11.94.9,1.37.15,2.61-.83,2.76-2.21.15-1.37-.83-2.61-2.21-2.76-4-.45-8.11-.76-12.29-.93-1.38-.06-2.54,1.02-2.6,2.39-.06,1.38,1.02,2.54,2.4,2.6h0ZM582.47,69.07c4-.39,8-.65,11.96-.79,1.38-.05,2.46-1.2,2.41-2.58-.05-1.38-1.2-2.46-2.58-2.41-4.07.14-8.17.41-12.28.81-1.37.13-2.38,1.36-2.24,2.73.13,1.37,1.36,2.38,2.73,2.24h0ZM556.92,73.45c3.85-.96,7.76-1.79,11.71-2.48,1.36-.24,2.27-1.54,2.03-2.9-.24-1.36-1.54-2.27-2.9-2.03-4.06.71-8.08,1.57-12.05,2.56-1.34.34-2.15,1.69-1.82,3.03.34,1.34,1.69,2.15,3.03,1.82h0ZM532.22,81.8c3.32-1.18,7.12-2.51,11.44-3.99,1.31-.45,2-1.87,1.55-3.18-.45-1.31-1.87-2-3.18-1.55-4.34,1.49-8.16,2.82-11.5,4.01-1.3.46-1.98,1.89-1.52,3.19.46,1.3,1.89,1.98,3.19,1.52h0Z"/>
  <path class="cls-1" d="M241.4,202.21l4.67-3.77c1.07-.87,1.24-2.44.37-3.52-.87-1.07-2.44-1.24-3.52-.37l-4.67,3.77c-1.07.87-1.24,2.44-.37,3.52.87,1.07,2.44,1.24,3.52.37"/>
  <path class="cls-1" d="M317.84,71.02l-5.94-.83c-1.37-.19-2.63.76-2.82,2.13s.76,2.63,2.13,2.82l5.94.83c1.37.19,2.63-.76,2.82-2.13s-.76-2.63-2.13-2.82"/>
  <path class="cls-1" d="M584.61,187.8l-9.84-6.68c-1.14-.78-2.7-.48-3.47.66-.78,1.14-.48,2.7.66,3.47l9.84,6.68c1.14.78,2.7.48,3.47-.66.78-1.14.48-2.7-.66-3.47ZM605.49,203.17c-3.07-2.41-6.25-4.82-9.52-7.24-1.11-.82-2.68-.58-3.5.53-.82,1.11-.58,2.68.53,3.5,3.24,2.39,6.37,4.78,9.41,7.15,1.09.85,2.66.66,3.51-.42.85-1.09.66-2.66-.42-3.51ZM625.3,219.94c-2.86-2.63-5.85-5.28-8.98-7.94-1.05-.89-2.63-.77-3.52.29-.89,1.05-.77,2.63.29,3.52,3.08,2.62,6.03,5.22,8.83,7.81,1.02.94,2.6.87,3.53-.15.94-1.02.87-2.6-.15-3.53h0ZM643.45,238.63c-2.5-2.94-5.2-5.91-8.1-8.92-.96-.99-2.54-1.02-3.53-.06-.99.96-1.02,2.54-.06,3.53,2.84,2.93,5.47,5.83,7.89,8.68.89,1.05,2.47,1.18,3.52.29,1.05-.89,1.18-2.47.29-3.52h0ZM658.33,260.3c-1.73-3.43-3.83-6.92-6.27-10.48-.78-1.14-2.34-1.43-3.48-.65-1.14.78-1.43,2.34-.65,3.48,2.33,3.4,4.31,6.71,5.93,9.91.62,1.23,2.13,1.73,3.36,1.1,1.23-.62,1.73-2.13,1.1-3.36h0ZM663.89,286.57c.23-1.53.35-3.09.35-4.67,0-2.62-.31-5.3-.91-8.04-.29-1.35-1.63-2.2-2.98-1.91-1.35.29-2.2,1.63-1.91,2.98.53,2.43.79,4.75.79,6.97,0,1.34-.1,2.65-.29,3.92-.21,1.37.73,2.64,2.1,2.85,1.37.21,2.64-.73,2.85-2.1h0ZM648.15,308.51c3.84-2.34,7.09-5.07,9.65-8.22.87-1.07.71-2.65-.37-3.52-1.07-.87-2.65-.71-3.52.37-2.14,2.64-4.93,5.01-8.36,7.09-1.18.72-1.56,2.25-.84,3.43.72,1.18,2.25,1.56,3.43.84h0ZM623.13,317.28c4.23-.79,8.18-1.77,11.83-2.93,1.32-.42,2.04-1.83,1.62-3.14-.42-1.32-1.83-2.04-3.14-1.62-3.43,1.1-7.18,2.03-11.23,2.78-1.36.25-2.25,1.56-2,2.92.25,1.36,1.56,2.25,2.92,2h0ZM597.12,319.79c4.17-.1,8.18-.32,12.02-.65,1.38-.12,2.39-1.33,2.28-2.71-.12-1.38-1.33-2.39-2.71-2.28-3.73.32-7.64.53-11.72.63-1.38.03-2.47,1.18-2.44,2.56.03,1.38,1.18,2.47,2.56,2.44ZM571.14,319.1c4.1.29,8.09.5,11.97.63,1.38.04,2.53-1.04,2.58-2.42.04-1.38-1.04-2.53-2.42-2.58-3.81-.12-7.74-.33-11.78-.62-1.38-.1-2.57.94-2.67,2.32-.1,1.38.94,2.57,2.32,2.67h0ZM545.36,316.35c4.03.56,7.99,1.05,11.87,1.48,1.37.15,2.61-.84,2.76-2.21.15-1.37-.84-2.61-2.21-2.76-3.83-.42-7.74-.91-11.73-1.46-1.37-.19-2.63.77-2.82,2.13-.19,1.37.77,2.63,2.13,2.82h0ZM519.82,312.11c3.97.76,7.89,1.47,11.76,2.12,1.36.23,2.65-.69,2.88-2.05.23-1.36-.69-2.65-2.05-2.88-3.82-.64-7.71-1.35-11.65-2.1-1.36-.26-2.67.63-2.93,1.98-.26,1.36.63,2.67,1.98,2.93h0ZM494.53,306.68c3.92.93,7.8,1.81,11.64,2.64,1.35.29,2.68-.56,2.97-1.91.29-1.35-.56-2.68-1.91-2.97-3.81-.82-7.66-1.7-11.55-2.62-1.34-.32-2.69.51-3.01,1.86-.32,1.34.51,2.69,1.86,3.01ZM469.48,300.25c3.87,1.07,7.72,2.1,11.53,3.08,1.34.35,2.7-.46,3.05-1.8.35-1.34-.46-2.7-1.8-3.05-3.78-.98-7.6-2-11.45-3.06-1.33-.37-2.71.41-3.08,1.74-.37,1.33.41,2.71,1.74,3.08h0ZM444.69,292.95c3.83,1.2,7.63,2.35,11.41,3.47,1.32.39,2.71-.36,3.11-1.69.39-1.32-.36-2.71-1.69-3.11-3.75-1.11-7.53-2.26-11.34-3.45-1.32-.41-2.72.32-3.13,1.64-.41,1.32.32,2.72,1.64,3.13h0ZM420.15,284.86c3.78,1.31,7.55,2.59,11.29,3.83,1.31.43,2.73-.28,3.16-1.59.43-1.31-.28-2.73-1.59-3.16-3.72-1.23-7.47-2.5-11.23-3.81-1.3-.45-2.73.24-3.18,1.54-.45,1.3.24,2.73,1.54,3.18h0ZM395.87,276.03c3.74,1.42,7.46,2.81,11.17,4.16,1.3.47,2.73-.19,3.21-1.49.47-1.3-.19-2.73-1.49-3.21-3.69-1.35-7.39-2.73-11.11-4.14-1.29-.49-2.73.16-3.23,1.45-.49,1.29.16,2.73,1.45,3.23h0ZM371.86,266.5c1.95.81,3.91,1.61,5.87,2.4,1.73.7,3.45,1.39,5.17,2.08,1.28.51,2.74-.12,3.25-1.4.51-1.28-.12-2.74-1.4-3.25-1.71-.68-3.43-1.37-5.14-2.07-1.96-.79-3.9-1.59-5.84-2.39-1.28-.53-2.74.08-3.27,1.36-.53,1.28.08,2.74,1.36,3.27h0ZM348.13,256.28c3.61,1.61,7.25,3.21,10.92,4.8,1.27.55,2.74-.04,3.29-1.3.55-1.27-.04-2.74-1.3-3.29-3.65-1.58-7.27-3.17-10.86-4.77-1.26-.56-2.74,0-3.3,1.26-.56,1.26,0,2.74,1.26,3.3h0ZM324.71,245.37c3.55,1.72,7.14,3.43,10.77,5.12,1.25.58,2.74.04,3.32-1.21.58-1.25.04-2.74-1.21-3.32-3.61-1.69-7.18-3.38-10.71-5.09-1.24-.6-2.74-.08-3.34,1.16-.6,1.24-.08,2.74,1.16,3.34ZM301.63,233.73c3.49,1.83,7.03,3.65,10.61,5.46,1.23.62,2.74.13,3.36-1.1.62-1.23.13-2.74-1.1-3.36-3.56-1.8-7.07-3.61-10.54-5.43-1.22-.64-2.73-.17-3.38,1.05-.64,1.22-.17,2.73,1.05,3.38ZM278.95,221.32c3.42,1.95,6.89,3.89,10.42,5.83,1.21.66,2.73.22,3.39-.99.66-1.21.22-2.73-.99-3.39-3.5-1.92-6.95-3.85-10.34-5.79-1.2-.68-2.73-.27-3.41.93-.68,1.2-.27,2.73.93,3.41h0ZM256.73,208.08c3.33,2.08,6.73,4.16,10.19,6.23,1.18.71,2.72.32,3.43-.86.71-1.18.32-2.72-.86-3.43-3.43-2.05-6.8-4.11-10.11-6.18-1.17-.73-2.71-.37-3.44.8-.73,1.17-.37,2.71.8,3.44h0ZM235.09,193.88c3.22,2.23,6.53,4.45,9.91,6.68,1.15.76,2.7.44,3.46-.71.76-1.15.44-2.7-.71-3.46-3.35-2.21-6.62-4.41-9.81-6.62-1.14-.78-2.69-.5-3.48.64-.78,1.14-.5,2.69.64,3.48h0ZM214.19,178.56c3.08,2.4,6.26,4.81,9.54,7.22,1.11.82,2.68.58,3.5-.53.82-1.11.58-2.68-.53-3.5-3.24-2.39-6.39-4.76-9.42-7.14-1.09-.85-2.66-.66-3.51.43-.85,1.09-.66,2.66.43,3.51h0ZM194.33,161.85c2.87,2.62,5.87,5.26,9.01,7.91,1.05.89,2.63.76,3.52-.3.89-1.05.76-2.63-.3-3.52-3.09-2.61-6.05-5.21-8.86-7.78-1.02-.93-2.6-.86-3.53.16-.93,1.02-.86,2.6.16,3.53h0ZM176.11,143.23c2.51,2.93,5.23,5.89,8.15,8.87.96.99,2.55,1.01,3.54.04.99-.96,1.01-2.55.04-3.54-2.85-2.92-5.49-5.8-7.93-8.64-.9-1.05-2.48-1.17-3.53-.27-1.05.9-1.17,2.48-.27,3.53h0ZM161.06,121.7c1.77,3.4,3.9,6.87,6.36,10.4.79,1.13,2.35,1.41,3.48.62,1.13-.79,1.41-2.35.62-3.48-2.36-3.38-4.37-6.67-6.03-9.86-.64-1.22-2.15-1.7-3.37-1.06-1.22.64-1.7,2.15-1.06,3.37h0ZM154.93,95.62c-.14,1.2-.21,2.41-.21,3.65,0,2.92.39,5.92,1.13,8.99.32,1.34,1.67,2.17,3.02,1.84,1.34-.32,2.17-1.67,1.84-3.02-.66-2.73-.99-5.34-.99-7.82,0-1.05.06-2.07.17-3.07.16-1.37-.82-2.61-2.19-2.77-1.37-.16-2.61.82-2.77,2.19h0ZM169.96,73.19c-3.79,2.42-6.97,5.25-9.44,8.5-.83,1.1-.62,2.67.49,3.5,1.1.83,2.67.62,3.5-.49,2.05-2.71,4.76-5.15,8.14-7.3,1.16-.74,1.51-2.29.76-3.45-.74-1.16-2.29-1.51-3.45-.76ZM194.88,64.06c-4.23.83-8.17,1.84-11.81,3.06-1.31.44-2.02,1.85-1.58,3.16.44,1.31,1.85,2.02,3.16,1.58,3.41-1.14,7.15-2.1,11.19-2.89,1.36-.26,2.24-1.58,1.97-2.93-.26-1.36-1.58-2.24-2.93-1.97h0ZM220.88,61.4c-4.17.12-8.18.35-12.02.71-1.37.13-2.39,1.34-2.26,2.72.13,1.37,1.34,2.39,2.72,2.26,3.73-.34,7.63-.57,11.71-.69,1.38-.04,2.47-1.19,2.43-2.57-.04-1.38-1.19-2.47-2.57-2.43h0ZM246.87,62c-4.1-.28-8.09-.48-11.97-.59-1.38-.04-2.53,1.05-2.57,2.43-.04,1.38,1.05,2.53,2.43,2.57,3.81.11,7.74.3,11.77.58,1.38.09,2.57-.95,2.66-2.32.09-1.38-.95-2.57-2.32-2.66h0ZM272.65,64.68c-4.03-.55-7.99-1.03-11.87-1.45-1.37-.15-2.61.85-2.75,2.22-.15,1.37.85,2.61,2.22,2.75,3.83.41,7.74.89,11.73,1.43,1.37.19,2.63-.77,2.82-2.14.19-1.37-.77-2.63-2.14-2.82h0ZM298.16,68.28l-11.78-1.64c-1.37-.19-2.63.76-2.82,2.13s.76,2.63,2.13,2.82l11.78,1.64c1.37.19,2.63-.76,2.82-2.13s-.76-2.63-2.13-2.82Z"/>
  <path class="cls-1" d="M562.91,173.55l-5.09-3.17c-1.17-.73-2.71-.37-3.44.8s-.37,2.71.8,3.44l5.09,3.17c1.17.73,2.71.37,3.44-.8s.37-2.71-.8-3.44"/>
  <path class="cls-1" d="M519.65,35.46c0-19.59-15.66-35.46-34.97-35.46h0c-19.31,0-34.97,15.88-34.97,35.46,0,.43,0,3.28,0,3.39-.05,24.41,34.97,63.95,34.97,63.95,0,0,35.02-39.54,34.97-63.95,0-.11,0-2.96,0-3.39Z"/>
  <path class="cls-5" d="M484.68,8c14.87,0,26.97,12.32,26.97,27.46v.79c0,1,0,2.53,0,2.62.03,14.42-16.14,37.85-26.97,51.45-10.83-13.6-27-37.03-26.97-51.47v-.88s0-2.51,0-2.51c0-15.14,12.1-27.46,26.97-27.46h0M484.68,0h0c-19.31,0-34.97,15.88-34.97,35.46,0,.43,0,3.28,0,3.39-.05,24.41,34.97,63.95,34.97,63.95,0,0,35.02-39.54,34.97-63.95,0-.11,0-2.96,0-3.39,0-19.59-15.66-35.46-34.97-35.46Z"/>
  <path class="cls-4" d="M484.68,49.31c-8.08,0-14.65-6.57-14.65-14.65s6.57-14.65,14.65-14.65,14.65,6.57,14.65,14.65-6.57,14.65-14.65,14.65Z"/>
  <path class="cls-5" d="M484.68,24.01c5.87,0,10.65,4.78,10.65,10.65s-4.78,10.65-10.65,10.65-10.65-4.78-10.65-10.65,4.78-10.65,10.65-10.65M484.68,16.01c-10.3,0-18.65,8.35-18.65,18.65s8.35,18.65,18.65,18.65,18.65-8.35,18.65-18.65-8.35-18.65-18.65-18.65Z"/>
  <path class="cls-1" d="M394.14,57.2c0-19.59-15.66-35.46-34.97-35.46h0c-19.31,0-34.97,15.88-34.97,35.46,0,.43,0,3.28,0,3.39-.05,24.41,34.97,63.95,34.97,63.95,0,0,35.02-39.54,34.97-63.95,0-.11,0-2.96,0-3.39Z"/>
  <path class="cls-5" d="M359.17,29.74c14.87,0,26.97,12.32,26.97,27.46v.9c0,1,0,2.43,0,2.51.03,14.42-16.14,37.85-26.97,51.45-10.83-13.6-27-37.03-26.97-51.47v-.88s0-2.51,0-2.51c0-15.14,12.1-27.46,26.97-27.46h0M359.17,21.74h0c-19.31,0-34.97,15.88-34.97,35.46,0,.43,0,3.28,0,3.39-.05,24.41,34.97,63.95,34.97,63.95,0,0,35.02-39.54,34.97-63.95,0-.11,0-2.96,0-3.39,0-19.59-15.66-35.46-34.97-35.46Z"/>
  <path class="cls-4" d="M359.17,71.04c-8.08,0-14.65-6.57-14.65-14.65s6.57-14.65,14.65-14.65,14.65,6.57,14.65,14.65-6.57,14.65-14.65,14.65Z"/>
  <path class="cls-5" d="M359.17,45.74c5.87,0,10.65,4.78,10.65,10.65s-4.78,10.65-10.65,10.65-10.65-4.78-10.65-10.65,4.78-10.65,10.65-10.65M359.17,37.74c-10.3,0-18.65,8.35-18.65,18.65s8.35,18.65,18.65,18.65,18.65-8.35,18.65-18.65-8.35-18.65-18.65-18.65Z"/>
</svg>