<?xml version="1.0" encoding="UTF-8"?>
<svg id="German_Quality" data-name="German Quality" xmlns="http://www.w3.org/2000/svg" xmlns:xlink="http://www.w3.org/1999/xlink" viewBox="0 0 850 380">
  <defs>
    <style>
      .cls-1 {
        fill: #b4becd;
      }

      .cls-1, .cls-2, .cls-3, .cls-4, .cls-5, .cls-6, .cls-7, .cls-8, .cls-9, .cls-10, .cls-11, .cls-12 {
        stroke-width: 0px;
      }

      .cls-2 {
        fill: #f5f5fa;
      }

      .cls-3 {
        fill: none;
      }

      .cls-4 {
        fill: #feb600;
      }

      .cls-5 {
        fill: #00aaeb;
      }

      .cls-6 {
        fill: #f7b68b;
      }

      .cls-7 {
        fill: #ec9568;
      }

      .cls-13 {
        clip-path: url(#clippath);
      }

      .cls-8 {
        fill: #0078aa;
      }

      .cls-9 {
        fill: #5ac8f5;
      }

      .cls-10 {
        fill: #fff;
      }

      .cls-11 {
        fill: #393f45;
      }

      .cls-12 {
        fill: #004b69;
      }
    </style>
    <clipPath id="clippath">
      <rect class="cls-3" y=".27" width="850" height="380"/>
    </clipPath>
  </defs>
  <rect class="cls-2" y="43.02" width="702" height="262" rx="40" ry="40"/>
  <g class="cls-13">
    <path class="cls-7" d="M657.99,289.59s-49.88,91.46-54.31,101.75c-9.26,21.48-26.1,11.2-25.6-17.12.5-28.33,27.4-87.09,34.4-103.39,6.98-16.31,45.56,8.93,45.52,18.76Z"/>
    <path class="cls-8" d="M667.72,199.81c-9.76-8.91-32.05,14.25-54.35,50.77-5.91,9.67-10.43,20.85-13.31,32.17,34.48,12.23,63.54,6.11,72.91,3.49,2.58-13.82,5.76-31.26,7.29-41,2.79-17.81-12.54-45.43-12.54-45.43Z"/>
    <path class="cls-5" d="M753.86,192.05c21.95,14.32,45.15,46.9,26.82,103.79-18.32,56.89-5.92,113.49-5.92,113.49l-132.87-23.74s3.77-27.77,4.78-61.15c.59-19.55-19.56-41.03-17.55-59.99,2.39-22.45,2.16-20.2,13.84-49.34,11.68-29.14,88.94-37.38,110.89-23.07Z"/>
    <path class="cls-12" d="M646.54,167.49s-44.27-6.92-42.99-26.09c1.28-19.16,23.7-24.18,13.22-41.01-10.48-16.84-27.94-31.03,8.1-36.55,36.04-5.52,18.36-41.8,43.43-39.85,25.06,1.95,27.07,18.51,50.32,22.33,23.24,3.82,54.78-10.49,64.31,20.73,9.51,31.21,4.27,58.89-10.47,59.03-14.73.15,1.26,15.09,3.95,25.74,2.68,10.65-11.68,47.63-67.97,17.26-56.29-30.38-34.61,1.08-61.89-1.59Z"/>
    <path class="cls-6" d="M661.74,67.7s-31.14,42.53-5.27,73.22c25.87,30.7,22.96,31.31,41.77,30.83,18.8-.48,37.45-23.5,42.9-47.59,5.19-22.96-7.2-19.71-31.83-31.3-24.62-11.59-28.14-13.87-28.14-13.87,0,0,2.31,9.78,18.52,18.01,16.22,8.23-29.03,10.58-37.93-29.3Z"/>
    <path class="cls-10" d="M696.74,135.49c6.24-1.6,12.43-3,18.58-4.23,1.99,11.83-5.92,23.57-18.43,26.79-12.26,3.14-24.59-3-28.82-13.9,9.21-3.2,18.77-6.13,28.67-8.67Z"/>
    <path class="cls-6" d="M826.93,406.54s-90.95-3.46-101.41-6.09c-10.46-2.64-32.52-.13-8.74-13.88,23.78-13.76,81.63-18.1,98.58-20.21,16.96-2.14,19.76,35.3,11.57,40.19Z"/>
    <path class="cls-6" d="M812.42,274.76s16.51,102.86,19.3,113.71c5.82,22.65-13.79,24.83-30.73,2.12-16.94-22.71-31.62-85.65-36.06-102.82-4.46-17.17,41.5-20.82,47.48-13.01Z"/>
    <path class="cls-9" d="M752.9,195.53c9.08-9.59,33,11.89,57.88,46.7,6.59,9.22,11.91,20.04,15.61,31.12-33.51,14.7-62.94,10.7-72.47,8.76-3.57-13.6-8.01-30.76-10.24-40.36-4.07-17.57,9.22-46.22,9.22-46.22Z"/>
    <path class="cls-6" d="M684.36,170.65l5.39,44.02c17.08.2,30.17-2.04,34.14-9.88l-12.57-38.77-8.1.29-18.86,4.34Z"/>
    <path class="cls-10" d="M726.38,263.43c0,13.52-16.16,27.35-34.81,45.86-18.65-18.51-34.81-32.34-34.81-45.86,0-19.64,25.68-24.21,34.81-8.54,9.07-15.56,34.81-11.16,34.81,8.54Z"/>
    <path class="cls-4" d="M689.19,284.6c-1.4,1.42-3.31,2.22-5.3,2.22-4.15,0-7.51-3.37-7.5-7.52v-.02c0-4.15,3.35-7.52,7.5-7.52,1.55,0,3.07.48,4.33,1.39l2.32-2.32c-1.89-1.5-4.24-2.32-6.65-2.32h-.02c-5.93.02-10.72,4.84-10.72,10.76,0,5.93,4.8,10.75,10.73,10.77h.02c2.85,0,5.57-1.13,7.59-3.14l2.4-2.44-2.29-2.29-2.4,2.44Z"/>
    <path class="cls-5" d="M706.93,271.66c-2.01-2.02-4.74-3.15-7.59-3.15h-.02c-2.85,0-5.58,1.13-7.59,3.15l-2.44,2.44,2.29,2.29s2.27-2.28,2.44-2.44c2.93-2.93,7.68-2.93,10.61,0,1.41,1.41,2.2,3.33,2.2,5.32,0,4.15-3.35,7.52-7.5,7.53h0c-1.56,0-3.09-.49-4.35-1.41l-2.29,2.34c1.89,1.5,4.24,2.32,6.65,2.32h.02c5.93-.02,10.74-4.83,10.73-10.77v-.02c0-2.86-1.14-5.6-3.16-7.61Z"/>
    <path class="cls-5" d="M683.88,267.2h.02c.17,0,.35,0,.52.01.96-3.18,3.89-5.35,7.21-5.34,3.31,0,6.23,2.18,7.18,5.35.17,0,.35-.01.52-.01h.02c.96,0,1.93.12,2.86.35-.89-5.15-5.36-8.92-10.59-8.92-5.23,0-9.69,3.77-10.59,8.92.93-.23,1.89-.34,2.85-.35Z"/>
  </g>
  <polygon class="cls-9" points="294.28 38.9 326.24 26.46 347.69 53.21 381.58 58.42 386.79 92.31 413.54 113.76 401.1 145.72 413.54 177.67 386.79 199.13 381.58 233.02 347.69 238.23 326.24 264.97 294.28 252.54 262.33 264.97 240.87 238.23 206.98 233.02 201.77 199.13 175.03 177.67 187.46 145.72 175.03 113.76 201.77 92.31 206.98 58.42 240.87 53.21 262.33 26.46 294.28 38.9"/>
  <path class="cls-10" d="M262.33,264.97l20.4-5.37-20.21,78-25.31-39.27-53.76,18.77,38.58-81.6,18.84,2.72,21.45,26.75ZM366.66,236.85l-18.97,1.37-22.91,28.03-18.39-6.51,19.64,76.78,25.31-39.27,53.76,18.77-38.46-79.17ZM363.91,146.9c0-38.42-31.23-69.68-69.63-69.68s-69.63,31.26-69.63,69.68,31.24,69.68,69.63,69.68,69.63-31.26,69.63-69.68Z"/>
  <path class="cls-11" d="M418.57,175.72l-11.68-30,11.68-30c.86-2.2.19-4.69-1.65-6.16l-25.11-20.14-4.89-31.82c-.36-2.33-2.18-4.15-4.51-4.51l-31.82-4.89-20.14-25.11c-1.48-1.84-3.96-2.51-6.16-1.65l-30,11.68-30-11.68c-2.2-.86-4.69-.19-6.16,1.65l-20.14,25.11-31.82,4.89c-2.33.36-4.15,2.18-4.51,4.51l-4.89,31.82-25.11,20.14c-1.84,1.48-2.51,3.96-1.65,6.16l11.68,30-11.68,30c-.86,2.2-.19,4.69,1.65,6.16l25.11,20.14,4.89,31.82c.36,2.33,2.18,4.15,4.51,4.51l7.98,1.23-35.57,75.22c-.93,1.97-.59,4.29.87,5.91,1.46,1.62,3.73,2.2,5.79,1.49l49.75-17.37,23.01,35.7c1.16,1.81,3.27,2.74,5.39,2.4,2.12-.34,3.83-1.89,4.36-3.97l20.21-78,.03-.18,6.3-2.45,6.88,2.68v.08s19.66,76.78,19.66,76.78c.53,2.08,2.24,3.64,4.36,3.99,2.12.34,4.23-.6,5.4-2.4l23.01-35.7,49.75,17.37c2.06.72,4.36.12,5.81-1.51,1.45-1.63,1.78-3.98.82-5.94l-35.96-74.03,8.39-1.29c2.33-.36,4.15-2.18,4.51-4.51l4.89-31.82,25.11-20.14c1.84-1.48,2.51-3.96,1.65-6.16ZM260.39,324.34l-18.64-28.92c-1.35-2.09-3.96-2.99-6.31-2.17l-41.61,14.52,31.43-66.48,12.72,1.95,20.14,25.11c1.48,1.84,3.96,2.51,6.16,1.65l11.32-4.41-15.22,58.74ZM394.56,306.63l-41.43-14.46c-2.35-.82-4.96.08-6.31,2.17l-18.61,28.88-14.69-57.4,10.76,4.19c2.2.86,4.69.19,6.16-1.65l20.14-25.11,12.27-1.88,31.7,65.27ZM383.42,194.92c-1.06.85-1.75,2.05-1.96,3.39l-4.61,29.98-29.98,4.61c-1.34.21-2.54.9-3.39,1.96l-18.98,23.66-28.27-11c-1.26-.49-2.65-.49-3.91,0l-28.27,11-18.98-23.66c-.85-1.06-2.05-1.75-3.39-1.96l-29.98-4.61-4.61-29.98c-.21-1.34-.9-2.54-1.96-3.39l-23.66-18.98,11-28.27c.49-1.26.49-2.65,0-3.91l-11-28.27,23.66-18.98c1.06-.85,1.75-2.05,1.96-3.39l4.61-29.98,29.98-4.61c1.34-.21,2.54-.9,3.39-1.96l18.98-23.66,28.27,11c1.26.49,2.65.49,3.91,0l28.27-11,18.98,23.66c.85,1.06,2.05,1.75,3.39,1.96l29.98,4.61,4.61,29.98c.21,1.34.9,2.54,1.96,3.39l23.66,18.98-11,28.27c-.49,1.26-.49,2.65,0,3.91l11,28.27-23.66,18.98ZM294.28,71.83c-41.43,0-75.02,33.61-75.02,75.07s33.59,75.07,75.02,75.07,75.02-33.61,75.02-75.07-33.59-75.07-75.02-75.07ZM294.28,211.19c-35.42,0-64.23-28.84-64.23-64.29s28.81-64.29,64.23-64.29,64.23,28.84,64.23,64.29-28.81,64.29-64.23,64.29Z"/>
  <path class="cls-9" d="M324.2,126.79c2.04,2.17,1.94,5.58-.23,7.62l-35.74,33.66c-2.07,1.95-5.32,1.95-7.4,0l-16.25-15.3c-2.17-2.04-2.27-5.46-.23-7.62,2.04-2.17,5.46-2.27,7.62-.23l12.55,11.82,32.04-30.18h0c2.17-2.04,5.58-1.94,7.62.23Z"/>
  <path class="cls-1" d="M92.99,105v27.84c0,3.84,3.12,6.96,6.96,6.96h27.84l-34.8-34.8Z"/>
  <path class="cls-11" d="M123.79,153.01v91.91c0,.83-.33,1.54-.87,2.09-.55.54-1.26.86-2.09.87H26.48c-.83,0-1.54-.33-2.09-.87-.54-.55-.86-1.26-.87-2.09V110.96c0-.83.33-1.54.87-2.09.55-.54,1.26-.86,2.09-.87h64.99l33.48,33.64c1.56,1.57,4.09,1.57,5.66.01,1.57-1.56,1.57-4.09.01-5.66l-35.83-35.99H26.48c-3.01,0-5.78,1.23-7.75,3.21-1.98,1.97-3.21,4.74-3.21,7.75v133.96c0,3.01,1.23,5.78,3.21,7.75,1.97,1.98,4.74,3.21,7.75,3.21h94.35c3.01,0,5.78-1.23,7.75-3.21,1.98-1.97,3.21-4.74,3.21-7.75v-91.91c0-2.21-1.79-4-4-4s-4,1.79-4,4h0Z"/>
  <path class="cls-11" d="M88.99,104v27.84c0,3.01,1.23,5.78,3.21,7.75,1.97,1.98,4.74,3.21,7.75,3.21h27.84v-8h-27.84c-.83,0-1.54-.33-2.09-.87-.54-.55-.86-1.26-.87-2.09v-27.84h-8Z"/>
  <path class="cls-11" d="M38.98,182.43h70.27c2.21,0,4-1.79,4-4s-1.79-4-4-4H38.98c-2.21,0-4,1.79-4,4s1.79,4,4,4"/>
  <path class="cls-11" d="M38.98,203.55h70.27c2.21,0,4-1.79,4-4s-1.79-4-4-4H38.98c-2.21,0-4,1.79-4,4s1.79,4,4,4"/>
  <path class="cls-11" d="M38.49,225.15h70.76c2.21,0,4-1.79,4-4s-1.79-4-4-4H38.49c-2.21,0-4,1.79-4,4s1.79,4,4,4"/>
  <path class="cls-11" d="M38.98,161.45h28.31c2.21,0,4-1.79,4-4s-1.79-4-4-4h-28.31c-2.21,0-4,1.79-4,4s1.79,4,4,4"/>
  <path class="cls-1" d="M532.99,105v27.84c0,3.84,3.12,6.96,6.96,6.96h27.84l-34.8-34.8Z"/>
  <path class="cls-11" d="M563.79,153.01v91.91c0,.83-.33,1.54-.87,2.09-.55.54-1.26.86-2.09.87h-94.35c-.83,0-1.54-.33-2.09-.87-.54-.55-.86-1.26-.87-2.09V110.96c0-.83.33-1.54.87-2.09.55-.54,1.26-.86,2.09-.87h64.99l33.48,33.64c1.56,1.57,4.09,1.57,5.66.01,1.57-1.56,1.57-4.09.01-5.66l-35.83-35.99h-68.31c-3.01,0-5.78,1.23-7.75,3.21-1.98,1.97-3.21,4.74-3.21,7.75v133.96c0,3.01,1.23,5.78,3.21,7.75,1.97,1.98,4.74,3.21,7.75,3.21h94.35c3.01,0,5.78-1.23,7.75-3.21,1.98-1.97,3.21-4.74,3.21-7.75v-91.91c0-2.21-1.79-4-4-4s-4,1.79-4,4h0Z"/>
  <path class="cls-11" d="M528.99,104v27.84c0,3.01,1.23,5.78,3.21,7.75,1.97,1.98,4.74,3.21,7.75,3.21h27.84v-8h-27.84c-.83,0-1.54-.33-2.09-.87-.54-.55-.86-1.26-.87-2.09v-27.84h-8Z"/>
  <path class="cls-11" d="M478.98,182.43h70.27c2.21,0,4-1.79,4-4s-1.79-4-4-4h-70.27c-2.21,0-4,1.79-4,4s1.79,4,4,4"/>
  <path class="cls-11" d="M478.98,203.55h70.27c2.21,0,4-1.79,4-4s-1.79-4-4-4h-70.27c-2.21,0-4,1.79-4,4s1.79,4,4,4"/>
  <path class="cls-11" d="M478.49,225.15h70.76c2.21,0,4-1.79,4-4s-1.79-4-4-4h-70.76c-2.21,0-4,1.79-4,4s1.79,4,4,4"/>
  <path class="cls-11" d="M478.98,161.45h28.31c2.21,0,4-1.79,4-4s-1.79-4-4-4h-28.31c-2.21,0-4,1.79-4,4s1.79,4,4,4"/>
</svg>