<?xml version="1.0" encoding="UTF-8"?>
<svg id="German_Quality" data-name="German Quality" xmlns="http://www.w3.org/2000/svg" xmlns:xlink="http://www.w3.org/1999/xlink" viewBox="0 0 850 380">
  <defs>
    <style>
      .cls-1 {
        fill: #b4becd;
      }

      .cls-1, .cls-2, .cls-3, .cls-4, .cls-5, .cls-6, .cls-7, .cls-8, .cls-9, .cls-10, .cls-11, .cls-12 {
        stroke-width: 0px;
      }

      .cls-2 {
        fill: #e1e6f0;
      }

      .cls-3 {
        fill: #f5f5fa;
      }

      .cls-4 {
        fill: none;
      }

      .cls-5 {
        fill: #00aaeb;
      }

      .cls-6 {
        fill: #f7b68b;
      }

      .cls-7 {
        fill: #323c46;
      }

      .cls-13 {
        clip-path: url(#clippath);
      }

      .cls-8 {
        fill: #0078aa;
      }

      .cls-9 {
        fill: #5ac8f5;
      }

      .cls-10 {
        fill: #fff;
      }

      .cls-11 {
        fill: #393f45;
      }

      .cls-12 {
        fill: #004b69;
      }
    </style>
    <clipPath id="clippath">
      <circle class="cls-4" cx="286.55" cy="146.94" r="115.61" transform="translate(-19.97 245.66) rotate(-45)"/>
    </clipPath>
  </defs>
  <path class="cls-2" d="M167.57,0C109.55,0,55.87,21.13,25.07,47.5v182.64c0,72.86,50.73,91.89,142.5,149.86,91.77-57.97,142.5-77,142.5-149.86V47.5C279.27,21.13,225.58,0,167.57,0Z"/>
  <path class="cls-3" d="M167.57,50.67c-37.86,0-72.9,13.79-93,31v125.86c0,47.55,33.11,63.97,93,101.8,59.89-37.83,93-54.25,93-101.8v-125.86c-20.1-17.21-55.14-31-93-31Z"/>
  <path class="cls-11" d="M194,141.6c11.22,0,20.35,9.13,20.35,20.35v33.68c0,11.22-9.13,20.35-20.35,20.35h-53.04c-11.22,0-20.35-9.13-20.35-20.35v-33.68c0-11.22,9.13-20.35,20.35-20.35h53.04M194,133.6h-53.04c-15.66,0-28.35,12.69-28.35,28.35v33.68c0,15.66,12.69,28.35,28.35,28.35h53.04c15.66,0,28.35-12.69,28.35-28.35v-33.68c0-15.66-12.69-28.35-28.35-28.35Z"/>
  <path class="cls-11" d="M139.2,135.51v-12.24c0-7.82,3.16-14.86,8.28-19.99,5.13-5.12,12.17-8.28,19.99-8.28h0c7.82,0,14.86,3.16,19.99,8.28,5.12,5.13,8.28,12.17,8.28,19.99v12.24c0,2.21,1.79,4,4,4s4-1.79,4-4v-12.24c0-10-4.07-19.1-10.62-25.65-6.55-6.56-15.65-10.63-25.65-10.62h0c-10,0-19.1,4.07-25.65,10.62-6.56,6.55-10.63,15.65-10.62,25.65v12.24c0,2.21,1.79,4,4,4s4-1.79,4-4h0Z"/>
  <path class="cls-1" d="M181.96,169.38c0-8-6.48-14.48-14.48-14.48s-14.48,6.48-14.48,14.48c0,4.74,2.28,8.94,5.79,11.58v15.9c0,3.2,2.59,5.79,5.79,5.79h5.79c3.2,0,5.79-2.59,5.79-5.79v-15.9c3.52-2.64,5.79-6.85,5.79-11.58Z"/>
  <path class="cls-11" d="M181.96,169.38h4c0-5.09-2.07-9.74-5.41-13.07-3.33-3.34-7.98-5.41-13.07-5.41-5.09,0-9.74,2.07-13.07,5.41-3.34,3.33-5.41,7.98-5.41,13.07,0,3.01.73,5.88,2.02,8.4,1.29,2.52,3.13,4.7,5.37,6.38l2.4-3.2h-4v15.9c0,2.69,1.1,5.16,2.87,6.92,1.76,1.77,4.23,2.87,6.92,2.87h5.79c2.69,0,5.16-1.1,6.92-2.87,1.77-1.76,2.87-4.23,2.87-6.92v-15.9h-4l2.4,3.2c2.24-1.68,4.09-3.86,5.37-6.38,1.29-2.52,2.02-5.39,2.02-8.4h-8c0,1.73-.41,3.33-1.14,4.76-.73,1.43-1.78,2.67-3.06,3.63-1,.75-1.6,1.94-1.6,3.2v15.9c0,.51-.19.93-.52,1.27-.34.33-.76.52-1.27.53h-5.79c-.51,0-.93-.19-1.27-.53-.33-.34-.52-.76-.52-1.27v-15.9c0-1.26-.59-2.44-1.6-3.2-1.28-.96-2.33-2.2-3.06-3.63-.73-1.43-1.14-3.03-1.14-4.76,0-2.91,1.17-5.5,3.07-7.41,1.91-1.9,4.5-3.07,7.41-3.07,2.91,0,5.5,1.17,7.41,3.07,1.9,1.91,3.07,4.5,3.07,7.41h4Z"/>
  <circle class="cls-10" cx="282.84" cy="146.64" r="115.61" transform="translate(-20.85 242.95) rotate(-45)"/>
  <g class="cls-13">
    <path class="cls-1" d="M247.42,131.09c0-14-11.34-25.35-25.34-25.36-14,0-25.35,11.34-25.36,25.34,0,7.99,3.76,15.51,10.15,20.29v27.84c0,5.6,4.54,10.13,10.14,10.13h10.14c5.6,0,10.13-4.54,10.14-10.13v-27.84c6.39-4.78,10.14-12.3,10.13-20.28Z"/>
    <path class="cls-7" d="M295.52,68.46h-12.96v-18.07c0-33.4-27.08-60.47-60.48-60.48-33.4,0-60.47,27.06-60.48,60.46v18.09h-12.96c-12.48,0-22.6,10.1-22.61,22.57v.02s0,112.98,0,112.98c0,12.48,10.12,22.59,22.59,22.59h146.89c12.48.02,22.6-10.09,22.62-22.56v-.03s0-112.98,0-112.98c0-12.48-10.11-22.59-22.58-22.6h-.04ZM169.57,50.39c0-29,23.51-52.5,52.51-52.5,28.99,0,52.5,23.51,52.51,52.5v18.07h-105.02v-18.07ZM310.17,204.04c0,8.07-6.55,14.61-14.62,14.62h-146.91c-8.08,0-14.63-6.54-14.64-14.62v-112.98c0-8.07,6.55-14.61,14.62-14.63h146.89c8.08,0,14.64,6.54,14.65,14.63v112.98ZM222.08,101.76c-16.19,0-29.33,13.11-29.33,29.3,0,8.52,3.7,16.62,10.14,22.19v25.95c0,7.79,6.31,14.11,14.11,14.12h10.16c7.79,0,14.12-6.3,14.12-14.1v-25.96c2.86-2.47,5.21-5.48,6.94-8.84,7.36-14.43,1.62-32.1-12.82-39.46-4.12-2.1-8.69-3.2-13.31-3.2h0ZM241.11,140.82c-1.49,2.9-3.62,5.43-6.23,7.39-1,.75-1.6,1.93-1.6,3.19v27.84c0,3.4-2.76,6.14-6.15,6.14h-10.13c-3.4,0-6.15-2.75-6.15-6.14v-27.87c0-1.25-.59-2.43-1.59-3.19-9.41-7.1-11.29-20.48-4.2-29.89,7.1-9.41,20.48-11.29,29.89-4.2,8.26,6.23,10.87,17.48,6.19,26.7l-.03.03Z"/>
  </g>
  <path class="cls-7" d="M323.98,260.15c9.4-3.32,18.46-7.85,26.95-13.58l-2.65-3.93-3.35,3.35,89.16,89.16c5.22,5.22,12.1,7.85,18.93,7.84,6.84,0,13.72-2.62,18.93-7.84,5.22-5.22,7.85-12.1,7.84-18.93,0-6.84-2.62-13.72-7.84-18.93l-89.16-89.16-3.35,3.35,3.93,2.65c13.64-20.2,20.44-43.65,20.44-67.1,0-30.85-11.81-61.77-35.39-85.34-23.58-23.59-54.52-35.41-85.39-35.41-30.72,0-61.44,11.7-84.84,35.1-23.4,23.4-35.11,54.12-35.1,84.84,0,30.86,11.82,61.8,35.41,85.39,19.4,19.4,43.79,30.85,69,34.28,2.59.35,4.98-1.46,5.34-4.06.35-2.59-1.46-4.98-4.06-5.34-23.25-3.17-45.67-13.69-63.58-31.59-21.76-21.76-32.62-50.22-32.63-78.68,0-28.33,10.76-56.57,32.33-78.14,21.57-21.57,49.81-32.32,78.14-32.33,28.46,0,56.92,10.87,78.68,32.63,21.75,21.75,32.61,50.19,32.62,78.64,0,21.62-6.27,43.2-18.82,61.79-1.27,1.89-1.03,4.4.58,6l89.16,89.16c3.39,3.39,5.06,7.79,5.07,12.23,0,4.44-1.68,8.84-5.07,12.23-3.39,3.39-7.79,5.06-12.23,5.07-4.44,0-8.84-1.68-12.23-5.07l-89.16-89.16c-1.61-1.61-4.12-1.85-6-.58-7.81,5.27-16.15,9.44-24.8,12.49-2.47.87-3.76,3.58-2.89,6.05.87,2.47,3.58,3.76,6.05,2.89h0Z"/>
  <path class="cls-6" d="M557.74,294.9l-92.53-27.71-12.86,6.06s69.49,52.54,99.72,56.48c30.23,3.94,5.66-34.83,5.66-34.83Z"/>
  <path class="cls-6" d="M474.57,282.21s-1.7-19.85-6.43-23.01c-4.73-3.14-22.85-13.51-22.85-13.51l-4.89-2.21s-5.48,3.99,6.78,10.82c12.27,6.84,4.42,6.76,4.42,6.76l-13.51-1.98-16.78-1.14-7.36-1.45s-4.11-1.14-5.33-.57c-3.51,1.62-.98,3.67-.98,3.67l28.13,8.05-28.05-.41s-3.6.54-4.02,2.4c-.4,1.74.77,1.84.77,1.84l31.54,7.86-14.5,1.4s-3.51.62-4.02,2.41c-.55,1.95-.76,2.47-.76,2.47l56.56,2.24,1.29-5.63Z"/>
  <path class="cls-6" d="M433.89,272.55l-19.76.85s-4.44-.29-6.59.85c-2.47,1.31-1.42,3.47-1.42,3.47l29.89,1.61-2.12-6.77Z"/>
  <path class="cls-8" d="M659.94,252.92l-66.67,96.62-120.35-48.59,10.17-31.08,91.53,24.86s22.74-92.41,37.99-112.75c15.26-20.34,46.31-33.03,46.31-33.03l1.01,103.97Z"/>
  <polygon class="cls-6" points="731.01 183.17 706.07 82.23 665.47 101.43 655.13 213.52 731.01 183.17"/>
  <path class="cls-6" d="M650.92,103.71c-.08,5.1,4.01,9.28,9.09,9.34l41.49.52c5.08.07,9.26-4.01,9.33-9.1l.76-61.44c.08-5.08-4-9.27-9.11-9.34l-41.47-.5c-5.09-.08-9.26,3.99-9.33,9.09l-.76,61.43Z"/>
  <path class="cls-12" d="M651.46,54.94s-5.49-6-6.47-9.68c-.5-1.85,1.38-8.81,6.03-11.45,4.65-2.62,8.41,2.41,8.41,2.41,0,0-7.41,4-7.81,5.53-.4,1.54-.17,13.19-.17,13.19Z"/>
  <path class="cls-12" d="M715.47,70.71s6.56-23.53,5.5-30.45c-1.07-6.95-1.78-11.75-10.21-12.62-12.63-1.3-12.82,1.38-18.92-2.55-6.1-3.9-17.03-13.3-20.82-14.27-6.33-1.63-16.26.37-16.8,12.27-.4,8.79-5.97,10.87-5.82,11.2.48,1.07,2.77,2.11,6.77,4.17,11.46,5.91,18.36,7.15,27.21,4.95,8.88-2.19,25.37-6.98,27.21-.42,1.84,6.55.82,26.52,1.56,28.06.77,1.55,2.75.81,4.31-.34Z"/>
  <path class="cls-6" d="M702.17,89c-.01,1.7,1.35,3.09,3.04,3.11l8.96.11c1.7.03,3.09-1.34,3.12-3.03l.21-16.38c0-1.7-1.34-3.1-3.04-3.13l-8.96-.1c-1.71-.02-3.09,1.34-3.1,3.02l-.23,16.39Z"/>
  <path class="cls-6" d="M648.75,88.31c-.03,1.72,1.33,3.11,3.02,3.12l8.95.12c1.71.02,3.1-1.34,3.12-3.05l.2-16.37c.02-1.68-1.33-3.09-3.03-3.11l-8.97-.12c-1.69,0-3.08,1.36-3.1,3.05l-.2,16.37Z"/>
  <path class="cls-12" d="M711.43,76.06s-.3,24.18-.4,32.25c-.09,7.29-3.21,23.26-44.39,22.73-24.38-.28-23.27-18.2-23.19-24.09.06-4.48,5.3-17.84,7.9-20.38l-.12,9.99s5.2-9.66,16.78-9.51c18.7.23,22.81,11.23,31.05,11.14,6.36-.07,11.24-10.35,12.37-22.11Z"/>
  <path class="cls-6" d="M675.49,103l-12.79-.17c-1.69-.01-3.05-1.41-3.03-3.12l.02-1.79,18.94.25-.02,1.79c-.03,1.7-1.42,3.06-3.12,3.04Z"/>
  <path class="cls-5" d="M761.59,379.92l-2.47-223.94-35.64-11.71s-23.06,39.19-45.07,38.9c-9.18.58-20.18-36.46-20.18-36.46-17.88,7.05-32.78,19.66-45.83,35.71l11.35,197.52h137.84Z"/>
  <path class="cls-6" d="M779.02,333.09l-88.3-26.45-12.27,5.79s66.31,50.14,95.16,53.91c28.85,3.76,5.41-33.24,5.41-33.24Z"/>
  <path class="cls-6" d="M699.65,320.98s-1.62-18.94-6.14-21.95c-4.52-3-21.81-12.9-21.81-12.9l-4.67-2.11s-5.23,3.81,6.47,10.33c11.71,6.53,4.22,6.45,4.22,6.45l-12.89-1.89-16.01-1.08-7.03-1.39s-3.92-1.08-5.08-.54c-3.35,1.55-.94,3.5-.94,3.5l26.84,7.68-26.77-.39s-3.43.52-3.83,2.29c-.38,1.66.74,1.75.74,1.75l30.1,7.5-13.84,1.33s-3.35.59-3.84,2.3c-.53,1.86-.72,2.36-.72,2.36l53.98,2.14,1.23-5.37Z"/>
  <path class="cls-6" d="M660.83,311.75l-18.86.81s-4.24-.28-6.29.81c-2.35,1.25-1.36,3.31-1.36,3.31l28.52,1.54-2.02-6.47Z"/>
  <path class="cls-9" d="M740.59,156.59s-6.29,42.15,8.76,91.46c15.05,49.31,25.54,80.46,25.54,80.46l-68.55-17.22-2.9,36.68,115.22,31.66s13.93,1.69,13.64-12.71c-.29-14.4-26.02-157.24-26.02-157.24,0,0-45.37-73.57-65.69-53.09Z"/>
</svg>