<?xml version="1.0" encoding="UTF-8"?>
<svg id="German_Quality" data-name="German Quality" xmlns="http://www.w3.org/2000/svg" xmlns:xlink="http://www.w3.org/1999/xlink" viewBox="0 0 850 380">
  <defs>
    <style>
      .cls-1 {
        fill: #5a6473;
      }

      .cls-1, .cls-2, .cls-3, .cls-4, .cls-5, .cls-6, .cls-7, .cls-8, .cls-9, .cls-10, .cls-11, .cls-12, .cls-13 {
        stroke-width: 0px;
      }

      .cls-2 {
        fill: #f5f5fa;
      }

      .cls-14 {
        clip-path: url(#clippath-2);
      }

      .cls-3 {
        fill: #828c9b;
      }

      .cls-4 {
        fill: none;
      }

      .cls-15 {
        clip-path: url(#clippath-1);
      }

      .cls-5 {
        fill: #feb600;
      }

      .cls-6 {
        fill: #00aaeb;
      }

      .cls-7 {
        fill: #f7b68b;
      }

      .cls-8 {
        fill: #323c46;
      }

      .cls-9 {
        fill: #ec9568;
      }

      .cls-16 {
        clip-path: url(#clippath);
      }

      .cls-10 {
        fill: #0078aa;
      }

      .cls-11 {
        fill: #5ac8f5;
      }

      .cls-12 {
        fill: #fff;
      }

      .cls-13 {
        fill: #004b69;
      }
    </style>
    <clipPath id="clippath">
      <polygon class="cls-4" points="465.84 222.65 557.34 222.65 534.73 306.53 443.23 306.53 465.84 222.65"/>
    </clipPath>
    <clipPath id="clippath-1">
      <polygon class="cls-4" points="465.84 222.65 557.34 222.65 534.73 306.53 443.23 306.53 465.84 222.65"/>
    </clipPath>
    <clipPath id="clippath-2">
      <rect class="cls-4" y="-408.73" width="850" height="380"/>
    </clipPath>
  </defs>
  <circle class="cls-2" cx="181.61" cy="198.17" r="150.35" transform="translate(-86.94 186.46) rotate(-45)"/>
  <path class="cls-9" d="M469.27,317.8l39.9-7.86,7.34-1.45s3.25,19.08-5.2,27.06c-8.45,7.98-40.78,1.41-45.32-1.59-4.54-3,3.29-16.16,3.29-16.16Z"/>
  <polygon class="cls-9" points="532.66 320.59 520.74 340.74 505.85 339 516.5 308.49 532.66 320.59"/>
  <path class="cls-9" d="M306.46,256.89c-1.87,16.81,44.71,64.4,49.5,66.31,23.35,9.34,117.68,14.94,123.29,13.08,6.09-2.03.15-17.5-6.54-18.68-15.88-2.8-53.49-14.35-90.6-26.15-20.55-6.54-34.76-48.31-56.04-53.24-13.8-3.19-18.24,6.34-19.61,18.68Z"/>
  <path class="cls-10" d="M272.33,162.39s12.14-2.6,22.41,4.87c10.27,7.47,57.91,82.19,59.77,85.93,1.87,3.74-39.23,35.49-39.23,35.49,0,0-66.32-59.98-42.96-126.29Z"/>
  <path class="cls-6" d="M156.17,186.76s15.88-18.68,19.61-20.55c2.97-1.48,67.4-3.36,93.8-4.07,6.84-.18,11.36.77,11.8,2.72,5.59,24.71,43.67,193.22,41.66,193.75h-136.05s-35.49-127.96-30.82-171.86Z"/>
  <path class="cls-7" d="M165.67,288.7l-22.42,35.49,157.22,12.76s5.29,13.39-4.05,16.19c-9.34,2.8-192.4,0-192.4,0,0,0-13.84-6.28-5.03-32.69,10.76-32.75,23.08-73.79,23.08-73.79l43.59,42.03Z"/>
  <path class="cls-11" d="M184.01,165.13c-7.04-3-15.58,2.61-24.35,12.75-26.31,30.43-54.61,101.68-50.11,104.04,15.97,8.36,33.62,16.5,51.88,13.08,15.21-2.85,30.93-40.61,34.03-65.95,2.21-18.06,4.38-57.19-11.45-63.93Z"/>
  <path class="cls-7" d="M294.99,334.71l38.9-11.84,7.15-2.18s5.16,18.65-2.45,27.45c-7.61,8.8-40.43,5.52-45.25,2.99-4.82-2.53,1.64-16.41,1.64-16.41Z"/>
  <polygon class="cls-9" points="358.34 331.09 348.51 352.34 333.52 352.11 341.05 320.69 358.34 331.09"/>
  <path class="cls-13" d="M271.86,64.17s22.73,12.69,34.71,7.4c11.97-5.29-11.28-13.35-4.75-1.86,6.53,11.49,34.4,10.85,34.08-3.08-.32-13.93-7.16-23.29-19.32-21.38-12.16,1.92-6.69,9.23-.17,4.66,6.52-4.58.69-26.67-21.71-10.68-22.4,15.99-17.07,20.78-5.89,8.35,11.17-12.43,6.64-26.14-8.71-12.64-15.35,13.5-9.12,27.12-2.7,20.86,6.43-6.26-7.69-33.41-16.7-19.83-9,13.58-19.1,30.19-8.23,35.95,10.87,5.76,4.36-45.04-21.31-19.16-25.68,25.89-.69,26.67,3.6,20.1,4.3-6.57-39.98-12.67-15.83,12.26,24.16,24.92,19.4,7,25.43,1.18,6.03-5.82-30.48-.91-23.37,21.54,7.12,22.45,22.56,26.7,27.56,9.52,5.01-17.17-15.72-17.34-16.99-1.63-1.28,15.71-2.71,8.89-3.97,12.5-1.39,3.98,8.72,16.58,19.59,6.28,10.86-10.3,41.07-56.41,24.68-70.33Z"/>
  <path class="cls-7" d="M314.44,100.32l3.46-6.53-4.67-24.27s-3.95,5.28-27.2-2.78c-34.67-12.02-10.42,10.7-15.96,25.79-5.54,15.09-15.92,18.6-16.36,10.17-.45-8.43-10.22-17.21-18.87-12.95-8.65,4.26.85,24.05,3.57,27.29,2.71,3.24,5.68,3.5,5.68,3.5l-28.03,46.53s22.13,26.84,35.12,27.33c8.51-13.93,17.65-46.01,17.65-46.01,0,0,3.13,4.48,11.24,9.58,14.89,9.35,19.65-5.62,19.65-5.62l8.64-23.81,7.29-.41c1.73-.1,3-1.67,2.73-3.39l-3.92-24.43Z"/>
  <path class="cls-12" d="M809.59,165.03c19.26,0,34.87-15.61,34.87-34.87V40.3c0-19.26-15.61-34.87-34.87-34.87h-239.61c-19.26,0-34.87,15.61-34.87,34.87v89.86c0,19.26,15.61,34.87,34.87,34.87h82.76l36.83,39.29,36.83-39.29h83.19Z"/>
  <path class="cls-8" d="M848.56,40.3v89.86c0,10.75-4.37,20.52-11.42,27.56-7.04,7.05-16.81,11.42-27.56,11.42h-59.3c-2.26,0-4.1-1.84-4.1-4.1s1.84-4.1,4.1-4.1h59.3c8.51,0,16.18-3.44,21.76-9.01,5.58-5.58,9.01-13.25,9.01-21.76V40.3c0-8.51-3.44-16.18-9.01-21.76-5.58-5.58-13.25-9.01-21.76-9.01h-239.61c-8.51,0-16.18,3.44-21.76,9.01-5.58,5.58-9.01,13.25-9.01,21.76v89.86c0,8.51,3.44,16.18,9.01,21.76,5.58,5.58,13.25,9.01,21.76,9.01h82.76c1.13,0,2.22.47,2.99,1.3l33.84,36.1,33.84-36.1c1.55-1.65,4.14-1.74,5.8-.19,1.65,1.55,1.74,4.14.19,5.8l-36.83,39.29c-.77.82-1.87,1.3-2.99,1.3s-2.22-.47-2.99-1.3l-35.62-38h-80.98c-10.75,0-20.52-4.37-27.56-11.42-7.05-7.04-11.42-16.81-11.42-27.56V40.3c0-10.75,4.37-20.52,11.42-27.56,7.04-7.05,16.81-11.42,27.56-11.42h239.61c10.75,0,20.52,4.37,27.56,11.42,7.05,7.04,11.42,16.81,11.42,27.56Z"/>
  <path class="cls-1" d="M295.97,344.19l-.11-.22.11-6.93h287.26s-9.14,16.52-27.33,15.53h-241.88c-7.34,0-13.74-1.08-17.32-7.09l-.72-1.29Z"/>
  <path class="cls-1" d="M368.16,337.52l37.19-140.94c.98-3.73,4.79-6.74,8.51-6.74h201.24c3.71,0,5.94,3.01,4.95,6.74l-37.19,140.94h-214.7Z"/>
  <rect class="cls-3" y="352.38" width="317.02" height="27.41"/>
  <rect class="cls-1" x="291.94" y="352.38" width="558.06" height="27.41"/>
  <g class="cls-16">
    <g class="cls-15">
      <path class="cls-12" d="M550.98,246.26c-4.79,17.77-30.92,35.94-62,60.27-17.95-24.33-34.29-42.5-29.5-60.27,6.96-25.81,42.33-31.82,48.78-11.22,17.43-20.44,49.71-14.67,42.72,11.22"/>
      <path class="cls-5" d="M494.61,274.08c-2.34,1.86-5.14,2.91-7.76,2.91-5.45,0-8.67-4.43-7.19-9.89v-.02c1.47-5.45,7.07-9.88,12.53-9.89,2.04,0,3.86.63,5.2,1.82l3.87-3.04c-1.95-1.97-4.75-3.05-7.92-3.04h-.02c-7.8.03-15.8,6.35-17.9,14.14-2.11,7.8,2.49,14.13,10.29,14.15h.02c3.74,0,7.72-1.48,11.08-4.13l4.02-3.21-2.19-3.02-4.02,3.21Z"/>
      <path class="cls-6" d="M522.5,257.07c-1.92-2.65-5.11-4.14-8.85-4.14h-.02c-3.74,0-7.73,1.49-11.08,4.14l-4.07,3.21,2.2,3.02s3.79-3,4.07-3.21c4.89-3.85,11.13-3.85,13.94,0,1.35,1.85,1.71,4.37,1,6.99-1.46,5.45-7.07,9.88-12.52,9.89h0c-2.05,0-3.88-.65-5.22-1.85l-3.84,3.07c1.95,1.98,4.74,3.05,7.92,3.05h.02c7.8-.02,15.82-6.35,17.92-14.15v-.02c1.02-3.75.49-7.35-1.45-10"/>
      <path class="cls-6" d="M493.79,251.22h.02c.23,0,.46,0,.68.02,2.39-4.17,7-7.03,11.36-7.02,4.35,0,7.41,2.86,7.54,7.03.23,0,.46-.02.69-.02h.02c1.27,0,2.49.15,3.64.46.66-6.77-3.88-11.72-10.75-11.73-6.87,0-14.07,4.95-17.07,11.72,1.31-.3,2.6-.45,3.87-.46"/>
    </g>
  </g>
  <polygon class="cls-11" points="574.51 56.11 582.47 71.1 599.01 74.13 587.39 86.42 589.65 103.27 574.51 95.88 559.36 103.27 561.63 86.42 550 74.13 566.55 71.1 574.51 56.11"/>
  <polygon class="cls-11" points="632.25 56.11 640.21 71.1 656.76 74.13 645.13 86.42 647.4 103.27 632.25 95.88 617.11 103.27 619.37 86.42 607.75 74.13 624.29 71.1 632.25 56.11"/>
  <polygon class="cls-11" points="690 56.11 697.96 71.1 714.51 74.13 702.88 86.42 705.15 103.27 690 95.88 674.85 103.27 677.12 86.42 665.49 74.13 682.04 71.1 690 56.11"/>
  <polygon class="cls-11" points="747.75 56.11 755.71 71.1 772.25 74.13 760.63 86.42 762.89 103.27 747.75 95.88 732.6 103.27 734.87 86.42 723.24 74.13 739.79 71.1 747.75 56.11"/>
  <polygon class="cls-11" points="805.49 56.11 813.45 71.1 830 74.13 818.37 86.42 820.64 103.27 805.49 95.88 790.35 103.27 792.61 86.42 780.99 74.13 797.53 71.1 805.49 56.11"/>
  <g class="cls-14">
    <path class="cls-6" d="M753.86-216.95c21.95,14.32,45.15,46.9,26.82,103.79-18.32,56.89-5.92,113.49-5.92,113.49l-132.87-23.74s3.77-27.77,4.78-61.15c.59-19.55-19.56-41.03-17.55-59.99,2.39-22.45,2.16-20.2,13.84-49.34,11.68-29.14,88.94-37.38,110.89-23.07Z"/>
  </g>
</svg>