<svg width="68" height="68" viewBox="0 0 68 68" fill="none" xmlns="http://www.w3.org/2000/svg">
<g clip-path="url(#clip0)">
<path d="M64.6 0.147339H3.4C1.52223 0.147339 0 1.66957 0 3.54734V33.014C0 34.8918 1.52223 36.414 3.4 36.414H64.6C66.4778 36.414 68 34.8918 68 33.014V3.54734C68 1.66957 66.4778 0.147339 64.6 0.147339V0.147339ZM65.7333 33.014C65.7333 33.6399 65.2259 34.1473 64.6 34.1473H3.4C2.77408 34.1473 2.26667 33.6399 2.26667 33.014V3.54734C2.26667 2.92142 2.77408 2.41401 3.4 2.41401H64.6C65.2259 2.41401 65.7333 2.92142 65.7333 3.54734V33.014Z" fill="black"/>
<path d="M62.3332 10.3473C59.8295 10.3473 57.7999 8.3177 57.7999 5.81401C57.7999 5.18809 57.2925 4.68068 56.6665 4.68068H11.3332C10.7073 4.68068 10.1999 5.18809 10.1999 5.81401C10.1999 7.01633 9.72225 8.1694 8.87209 9.01956C8.02192 9.86973 6.86885 10.3473 5.66654 10.3473C5.04061 10.3473 4.5332 10.8548 4.5332 11.4807V25.0807C4.5332 25.7066 5.04061 26.214 5.66654 26.214C8.17023 26.214 10.1999 28.2437 10.1999 30.7473C10.1999 31.3733 10.7073 31.8807 11.3332 31.8807H56.6665C57.2925 31.8807 57.7999 31.3733 57.7999 30.7473C57.7999 28.2437 59.8295 26.214 62.3332 26.214C62.9591 26.214 63.4665 25.7066 63.4665 25.0807V11.4807C63.4665 10.8548 62.9591 10.3473 62.3332 10.3473V10.3473ZM12.3759 29.614C11.8947 26.7574 9.65652 24.5192 6.79987 24.038V12.4667C9.6531 11.9869 11.8903 9.75426 12.3759 6.90201H26.4972C22.6986 9.42175 20.4149 13.677 20.4149 18.2353C20.4149 22.7937 22.6986 27.0489 26.4972 29.5687L12.3759 29.614ZM33.9999 6.94735C40.2591 6.94735 45.3332 12.0215 45.3332 18.2807C45.3332 24.5399 40.2591 29.614 33.9999 29.614C27.7406 29.614 22.6665 24.5399 22.6665 18.2807C22.6665 12.0215 27.7406 6.94735 33.9999 6.94735ZM61.1999 24.038C58.3432 24.5192 56.1051 26.7574 55.6239 29.614H41.5025C45.3012 27.0943 47.5849 22.839 47.5849 18.2807C47.5849 13.7223 45.3012 9.46708 41.5025 6.94735H55.6239C56.1268 9.78198 58.3602 11.9927 61.1999 12.4667V24.038Z" fill="black"/>
<path d="M34.0001 23.9473C32.7483 23.9473 31.7335 22.9325 31.7335 21.6807C31.7335 21.0548 31.2261 20.5473 30.6001 20.5473C29.9742 20.5473 29.4668 21.0548 29.4668 21.6807C29.4683 23.7466 30.8665 25.5502 32.8668 26.0667V27.37C32.8668 27.9959 33.3742 28.5033 34.0001 28.5033C34.6261 28.5033 35.1335 27.9959 35.1335 27.37V26.0667C37.2965 25.4588 38.688 23.3583 38.404 21.1295C38.1201 18.9007 36.2465 17.2161 34.0001 17.17C32.7483 17.17 31.7335 16.1552 31.7335 14.9033C31.7335 13.6515 32.7483 12.6367 34.0001 12.6367C35.252 12.6367 36.2668 13.6515 36.2668 14.9033C36.2668 15.5293 36.7742 16.0367 37.4001 16.0367C38.0261 16.0367 38.5335 15.5293 38.5335 14.9033C38.5268 12.8416 37.1297 11.0441 35.1335 10.5287V9.21401C35.1335 8.58808 34.6261 8.08067 34.0001 8.08067C33.3742 8.08067 32.8668 8.58808 32.8668 9.21401V10.506C30.684 11.0986 29.2719 13.2094 29.5574 15.4531C29.8428 17.6969 31.7385 19.3869 34.0001 19.414C35.252 19.414 36.2668 20.4288 36.2668 21.6807C36.2668 22.9325 35.252 23.9473 34.0001 23.9473Z" fill="#1D73F8"/>
<path d="M20.9669 48.8807C21.9058 48.8807 22.6669 48.1196 22.6669 47.1807V40.3807C22.6669 39.4418 21.9058 38.6807 20.9669 38.6807H10.7669C9.82801 38.6807 9.06689 39.4418 9.06689 40.3807V47.1807C9.06689 48.1196 9.82801 48.8807 10.7669 48.8807H20.9669ZM11.3336 40.9473H20.4002V46.614H11.3336V40.9473Z" fill="black"/>
<path d="M39.1002 53.414C40.0391 53.414 40.8002 52.6529 40.8002 51.714V40.3807C40.8002 39.4418 40.0391 38.6807 39.1002 38.6807H28.9002C27.9613 38.6807 27.2002 39.4418 27.2002 40.3807V51.714C27.2002 52.6529 27.9613 53.414 28.9002 53.414H39.1002ZM29.4669 40.9473H38.5335V51.1473H29.4669V40.9473Z" fill="black"/>
<path d="M57.2332 38.6807H47.0332C46.0943 38.6807 45.3332 39.4418 45.3332 40.3807V55.6807H44.3245C43.6603 55.6881 43.0613 56.0817 42.7909 56.6884C42.5204 57.2951 42.6281 58.0037 43.0665 58.5027L50.8752 67.286C51.1978 67.6481 51.6596 67.8552 52.1445 67.8552C52.6294 67.8552 53.0913 67.6481 53.4139 67.286L61.1999 58.5027C61.6396 58.0022 61.7464 57.2909 61.4731 56.6833C61.1998 56.0757 60.5968 55.6837 59.9305 55.6807H58.9332V40.3807C58.9332 39.4418 58.1721 38.6807 57.2332 38.6807V38.6807ZM52.1332 65.3027L45.5939 57.9473H45.8999C46.8387 57.9473 47.5999 57.1862 47.5999 56.2473V40.9473H56.6665V56.2473C56.6665 57.1862 57.4276 57.9473 58.3665 57.9473H58.6725L52.1332 65.3027Z" fill="black"/>
</g>
<defs>
<clipPath id="clip0">
<rect width="68" height="68" fill="white"/>
</clipPath>
</defs>
</svg>
