<svg id="secure-shield" xmlns="http://www.w3.org/2000/svg" width="43.293" height="50.765" viewBox="0 0 43.293 50.765">
  <g id="Group_78199" data-name="Group 78199" transform="translate(0 0)">
    <g id="Group_78198" data-name="Group 78198">
      <path id="Path_301719" data-name="Path 301719" d="M80.188,8.766A84.445,84.445,0,0,1,59.871.148a1.067,1.067,0,0,0-1.086,0A82.132,82.132,0,0,1,38.467,8.766a1.068,1.068,0,0,0-.786,1.03V20.707a31.39,31.39,0,0,0,9.532,22.934c4.681,4.587,10.135,7.124,12.115,7.124s7.433-2.537,12.115-7.124a31.39,31.39,0,0,0,9.532-22.934V9.8A1.068,1.068,0,0,0,80.188,8.766Zm-1.35,11.941a29.3,29.3,0,0,1-8.891,21.409c-4.6,4.511-9.526,6.514-10.62,6.514s-6.016-2-10.62-6.514a29.3,29.3,0,0,1-8.891-21.409v-10.1a84.1,84.1,0,0,0,19.511-8.3,86.762,86.762,0,0,0,19.51,8.3Z" transform="translate(-37.681 0)"/>
      <path id="Path_301720" data-name="Path 301720" d="M88.28,99.62a1.068,1.068,0,0,0-1.385-.6c-1.908.752-3.866,1.444-5.82,2.056a1.068,1.068,0,0,0-.748,1.019v4.124a1.068,1.068,0,0,0,2.136,0v-3.343c1.753-.567,3.5-1.194,5.215-1.869A1.068,1.068,0,0,0,88.28,99.62Z" transform="translate(-76.099 -89.133)" fill="#2196f3"/>
      <path id="Path_301722" data-name="Path 301722" d="M311.361,345.7a1.068,1.068,0,0,0-1.478.31,25.993,25.993,0,0,1-3.069,3.833,27.277,27.277,0,0,1-3.063,2.725,1.068,1.068,0,1,0,1.3,1.7,29.435,29.435,0,0,0,3.3-2.939,28.1,28.1,0,0,0,3.321-4.149A1.068,1.068,0,0,0,311.361,345.7Z" transform="translate(-276.991 -311.269)" fill="#2196f3"/>
      <path id="Path_301724" data-name="Path 301724" d="M128.747,162.474a3.473,3.473,0,1,0-4.911,4.911l6.306,6.305a3.473,3.473,0,0,0,4.911,0l13.163-13.163a3.473,3.473,0,0,0-4.911-4.911L132.6,166.323Zm16.068-5.348a1.337,1.337,0,1,1,1.891,1.89L133.543,172.18a1.338,1.338,0,0,1-1.891,0l-6.305-6.305a1.337,1.337,0,0,1,1.89-1.891l4.605,4.605a1.068,1.068,0,0,0,1.51,0Z" transform="translate(-114.38 -139.27)"/>
    </g>
  </g>
</svg>
