<svg width="90" height="90" viewBox="0 0 90 90" fill="none" xmlns="http://www.w3.org/2000/svg">
<path d="M80.1562 2.8125H9.84375C7.97959 2.81459 6.19238 3.55606 4.87422 4.87422C3.55606 6.19238 2.81459 7.97959 2.8125 9.84375V68.9062C2.81459 70.7704 3.55606 72.5576 4.87422 73.8758C6.19238 75.1939 7.97959 75.9354 9.84375 75.9375H35.148C35.0711 79.2669 33.71 82.4377 31.3494 84.7868C31.1527 84.9835 31.0187 85.2341 30.9645 85.5069C30.9102 85.7797 30.9381 86.0624 31.0445 86.3194C31.1509 86.5764 31.3312 86.796 31.5625 86.9505C31.7937 87.105 32.0656 87.1875 32.3438 87.1875H57.6562C57.9344 87.1875 58.2063 87.105 58.4375 86.9505C58.6688 86.796 58.8491 86.5764 58.9555 86.3194C59.0619 86.0624 59.0898 85.7797 59.0355 85.5069C58.9813 85.2341 58.8473 84.9835 58.6506 84.7868C56.29 82.4377 54.9289 79.2669 54.852 75.9375H80.1562C82.0204 75.9354 83.8076 75.1939 85.1258 73.8758C86.4439 72.5576 87.1854 70.7704 87.1875 68.9062V9.84375C87.1854 7.97959 86.4439 6.19238 85.1258 4.87422C83.8076 3.55606 82.0204 2.81459 80.1562 2.8125ZM5.625 9.84375C5.6263 8.72527 6.07119 7.65297 6.86208 6.86208C7.65297 6.07119 8.72527 5.6263 9.84375 5.625H80.1562C81.2747 5.6263 82.347 6.07119 83.1379 6.86208C83.9288 7.65297 84.3737 8.72527 84.375 9.84375V64.6875H5.625V9.84375ZM54.6866 84.375H35.3134C36.9873 81.8748 37.9069 78.9459 37.9624 75.9375H52.0376C52.0931 78.9459 53.0127 81.8748 54.6866 84.375ZM80.1562 73.125H9.84375C8.72527 73.1237 7.65297 72.6788 6.86208 71.8879C6.07119 71.097 5.6263 70.0247 5.625 68.9062V67.5H84.375V68.9062C84.3737 70.0247 83.9288 71.097 83.1379 71.8879C82.347 72.6788 81.2747 73.1237 80.1562 73.125Z" fill="black"/>
<path d="M80.1562 8.4375H9.84375C9.47079 8.4375 9.1131 8.58566 8.84938 8.84938C8.58566 9.1131 8.4375 9.47079 8.4375 9.84375V60.4688C8.4375 60.8417 8.58566 61.1994 8.84938 61.4631C9.1131 61.7268 9.47079 61.875 9.84375 61.875H80.1562C80.5292 61.875 80.8869 61.7268 81.1506 61.4631C81.4143 61.1994 81.5625 60.8417 81.5625 60.4688V9.84375C81.5625 9.47079 81.4143 9.1131 81.1506 8.84938C80.8869 8.58566 80.5292 8.4375 80.1562 8.4375ZM78.75 59.0625H11.25V11.25H78.75V59.0625Z" fill="black"/>
<path d="M22.3208 56.25H67.6794C67.9411 56.25 68.1976 56.177 68.4201 56.0391C68.6426 55.9013 68.8222 55.7041 68.9387 55.4697C70.7779 51.7817 71.7299 47.7149 71.7188 43.5938C71.7188 28.861 59.7328 16.875 45.0001 16.875C30.2673 16.875 18.2813 28.861 18.2813 43.5938C18.2703 47.7149 19.2223 51.7817 21.0615 55.4697C21.178 55.7041 21.3576 55.9013 21.5801 56.0391C21.8025 56.177 22.0591 56.25 22.3208 56.25ZM45.0001 19.6875C58.1821 19.6875 68.9063 30.4119 68.9063 43.5938C68.9157 46.9888 68.1942 50.3461 66.7908 53.4375H23.2094C21.806 50.3461 21.0845 46.9888 21.0938 43.5938C21.0938 30.4119 31.8181 19.6875 45.0001 19.6875Z" fill="#1D73F8"/>
<path d="M26.1294 50.6251H63.8707C64.1736 50.6252 64.4685 50.5273 64.7114 50.3462C64.9542 50.1651 65.1321 49.9104 65.2186 49.62C66.1547 46.4722 66.343 43.1492 65.7683 39.9158C65.1936 36.6823 63.8719 33.6278 61.9084 30.9953C59.9448 28.3628 57.3938 26.2252 54.4583 24.7526C51.5229 23.28 48.2841 22.5132 45 22.5132C41.7159 22.5132 38.4772 23.28 35.5417 24.7526C32.6062 26.2252 30.0552 28.3628 28.0917 30.9953C26.1281 33.6278 24.8064 36.6823 24.2317 39.9158C23.657 43.1492 23.8453 46.4722 24.7815 49.62C24.8679 49.9104 25.0458 50.1651 25.2886 50.3462C25.5315 50.5273 25.8264 50.6252 26.1294 50.6251ZM34.6723 28.518L36.048 30.9007L38.4836 29.4945L37.1053 27.107C38.1774 26.5912 39.2977 26.1823 40.4499 25.886L40.9291 28.6043L43.6989 28.116L43.2199 25.3995C43.8059 25.3427 44.3995 25.3126 45.0002 25.3126C45.6008 25.3126 46.1944 25.3427 46.7805 25.3995L46.3008 28.116L49.0706 28.6043L49.5498 25.886C50.702 26.1823 51.8223 26.5912 52.8943 27.107L51.516 29.4945L53.9517 30.9007L55.3273 28.518C56.3069 29.1913 57.219 29.9578 58.0509 30.8069L55.9459 32.5736L57.7536 34.7278L59.8611 32.9595C60.555 33.9254 61.1529 34.9567 61.6465 36.0388L59.0557 36.9819L60.0175 39.6247L62.6107 38.681C62.9309 39.8268 63.1378 41.0013 63.2285 42.1876H60.4688V45.0001H63.2259C63.1543 45.9475 63.0089 46.8879 62.791 47.8126H27.2092C26.9913 46.8879 26.8458 45.9475 26.7741 45.0001H29.5313V42.1876H26.7724C26.863 41.0014 27.0699 39.8268 27.3901 38.681L29.9832 39.6247L30.9451 36.9819L28.3535 36.0388C28.8471 34.9566 29.445 33.9252 30.1389 32.9591L32.2464 34.7275L34.0541 32.5733L31.9486 30.8065C32.7805 29.9576 33.6926 29.1912 34.6722 28.518H34.6723Z" fill="#1D73F8"/>
<path d="M49.2186 43.5939C49.2186 43.5672 49.217 43.5412 49.2167 43.5145L56.7436 40.6918L55.7561 38.0586L48.2278 40.8816C47.5895 40.1236 46.7046 39.6146 45.7284 39.4441C44.7523 39.2735 43.7472 39.4523 42.8897 39.949C42.0322 40.4457 41.3771 41.2286 41.0394 42.1603C40.7018 43.0919 40.703 44.1128 41.0431 45.0435C41.3831 45.9743 42.0402 46.7556 42.8989 47.2501C43.7576 47.7447 44.7631 47.9209 45.7389 47.7479C46.7146 47.5749 47.5982 47.0637 48.2346 46.3041C48.8709 45.5444 49.2193 44.5849 49.2186 43.5939ZM44.9999 45.0002C44.7218 45.0002 44.4499 44.9177 44.2186 44.7632C43.9874 44.6087 43.8071 44.389 43.7007 44.1321C43.5942 43.8751 43.5664 43.5924 43.6207 43.3196C43.6749 43.0468 43.8088 42.7962 44.0055 42.5996C44.2022 42.4029 44.4527 42.269 44.7255 42.2147C44.9983 42.1605 45.2811 42.1883 45.538 42.2947C45.795 42.4012 46.0146 42.5814 46.1691 42.8127C46.3237 43.0439 46.4061 43.3158 46.4061 43.5939C46.4057 43.9668 46.2574 44.3242 45.9938 44.5878C45.7302 44.8515 45.3727 44.9998 44.9999 45.0002Z" fill="#1D73F8"/>
<path d="M15.4688 16.875C16.2454 16.875 16.875 16.2454 16.875 15.4688C16.875 14.6921 16.2454 14.0625 15.4688 14.0625C14.6921 14.0625 14.0625 14.6921 14.0625 15.4688C14.0625 16.2454 14.6921 16.875 15.4688 16.875Z" fill="black"/>
<path d="M19.6875 16.875C20.4642 16.875 21.0938 16.2454 21.0938 15.4688C21.0938 14.6921 20.4642 14.0625 19.6875 14.0625C18.9108 14.0625 18.2812 14.6921 18.2812 15.4688C18.2812 16.2454 18.9108 16.875 19.6875 16.875Z" fill="black"/>
<path d="M23.9062 16.875C24.6829 16.875 25.3125 16.2454 25.3125 15.4688C25.3125 14.6921 24.6829 14.0625 23.9062 14.0625C23.1296 14.0625 22.5 14.6921 22.5 15.4688C22.5 16.2454 23.1296 16.875 23.9062 16.875Z" fill="black"/>
<path d="M45 71.7188C45.7767 71.7188 46.4062 71.0892 46.4062 70.3125C46.4062 69.5358 45.7767 68.9062 45 68.9062C44.2233 68.9062 43.5938 69.5358 43.5938 70.3125C43.5938 71.0892 44.2233 71.7188 45 71.7188Z" fill="black"/>
<path d="M67.5 14.0625H75.9375V16.875H67.5V14.0625Z" fill="black"/>
<path d="M61.875 14.0625H64.6875V16.875H61.875V14.0625Z" fill="black"/>
</svg>
