<?xml version="1.0" encoding="utf-8"?>
<!-- Generator: Adobe Illustrator 19.0.0, SVG Export Plug-In . SVG Version: 6.00 Build 0)  -->
<svg version="1.1" id="Capa_1" xmlns="http://www.w3.org/2000/svg" xmlns:xlink="http://www.w3.org/1999/xlink" x="0px" y="0px"
	 viewBox="-49 141 512 512" style="enable-background:new -49 141 512 512;" xml:space="preserve">
<style type="text/css">
	.st0{fill:none;}
	.st1{fill:#1D73F8;}
</style>
<g>
	<path class="st0" d="M364.2,191.1c0-5.6-4.5-10.1-10.1-10.1H-18.8c-5.6,0-10.1,4.5-10.1,10.1v50.4h393.1V191.1z M1.4,221.3
		c-5.6,0-10.1-4.5-10.1-10.1c0-5.6,4.5-10.1,10.1-10.1c5.6,0,10.1,4.5,10.1,10.1C11.5,216.8,7,221.3,1.4,221.3z M46.7,221.3
		c-5.6,0-10.1-4.5-10.1-10.1c0-5.6,4.5-10.1,10.1-10.1c5.6,0,10.1,4.5,10.1,10.1C56.8,216.8,52.3,221.3,46.7,221.3z M92.1,221.3
		c-5.6,0-10.1-4.5-10.1-10.1c0-5.6,4.5-10.1,10.1-10.1s10.1,4.5,10.1,10.1C102.2,216.8,97.7,221.3,92.1,221.3z"/>
	<rect x="11.5" y="301.9" class="st0" width="120.9" height="128"/>
	<path class="st0" d="M389.4,500.2c-6.5-18-6.3-37.8,0-55.9c6.7-19,27.8-24.1,41.3-17.4l12.1,5.7v-42.9h-57
		c-15.7,0-24.2-16.4-18.3-28.7l5.6-12c2.7-6.4-0.9-12-5.9-13.8c-13.3-4.9-29.6-4.6-42.5,0c-5,1.8-8.6,7.4-5.9,13.8l5.6,12
		c5.9,12.3-2.5,28.7-18.3,28.7h-57v42.9l12.1-5.6c13.5-6.7,34.6-1.6,41.3,17.4c6.4,18,6.5,37.9,0,55.9
		c-5.2,14.4-22.3,25.8-41.3,17.4l-12.1-5.6l0,42.9h57c15.7,0,24.2,16.4,18.3,28.7l-5.6,12c-2.9,6.3,1,12.4,5.9,13.8
		c14.7,4.5,26.4,5,42.5,0c4.8-1.5,8.8-7.6,5.9-13.8l-5.6-12c-6-12.3,2.5-28.7,18.3-28.7h57V512l-12.1,5.7
		C411.7,526,394.6,514.6,389.4,500.2z"/>
	<circle cx="46.7" cy="211.2" r="10.1"/>
	<path class="st1" d="M142.5,281.8H1.4c-5.6,0-10.1,4.5-10.1,10.1V440c0,5.6,4.5,10.1,10.1,10.1h141.1c5.6,0,10.1-4.5,10.1-10.1
		V291.9C152.6,286.3,148.1,281.8,142.5,281.8z M132.4,429.9H11.5v-128h120.9V429.9z"/>
	<path d="M182.8,309h103.8c5.6,0,10.1-4.5,10.1-10.1s-4.5-10.1-10.1-10.1H182.8c-5.6,0-10.1,4.5-10.1,10.1S177.2,309,182.8,309z"/>
	<circle cx="1.4" cy="211.2" r="10.1"/>
	<path d="M433.9,493.9l-11.4,5.3c-6.1,2.7-12.2-0.3-14.1-5.8c-4.8-13.7-4.8-28.8,0-42.4c1.7-4.9,7.7-8.6,13.8-5.9l12.1,5.7
		c13.1,5.9,28.7-2.8,28.7-18.7v-42.5c0-11.1-9-20.2-20.2-20.2h-57l5.6-12c6.4-15.2,1.1-27.6-7.1-35.1V191.1
		c0-16.7-13.5-30.2-30.2-30.2H-18.8c-16.7,0-30.2,13.5-30.2,30.2v338.6c0,5.6,4.5,10.1,10.1,10.1h161.3c5.8,0,10.5-4.9,10.1-10.8
		c-0.4-5.3-5.1-9.4-10.4-9.4H-28.8v-258h393.1v51.7c-6-1.3-24.8-5-46.1,2.8c-12.8,4.7-26.3,20.3-17.5,41.4l5.6,12h-57
		c-11.1,0-20.2,9-20.2,20.2v42.5c0,15.9,15.6,24.6,28.7,18.7l12.1-5.6c6.1-2.7,12.1,1,13.8,5.9c4.8,13.6,4.8,28.7,0,42.4
		c-1.9,5.4-7.9,8.5-14.1,5.8l-11.4-5.3c-13.5-6.3-29.1,2.7-29.1,18.1v7.6H213c-5.6,0-10.1,4.5-10.1,10.1c0,5.6,4.5,10.1,10.1,10.1
		h16.1v15.1c0,11.1,9,20.2,20.2,20.2l57,0l-5.6,12c-8.1,17.3,1.5,35.7,17.5,41.4c18,6.4,37.3,6.3,55.9,0c16-5.5,25.6-24.1,17.5-41.4
		l-5.6-12h57c11.1,0,20.2-9,20.2-20.2V512C463,496.6,447.4,487.6,433.9,493.9z M-28.8,241.5v-50.4c0-5.6,4.5-10.1,10.1-10.1h372.9
		c5.6,0,10.1,4.5,10.1,10.1v50.4H-28.8z M442.8,554.9h-57c-15.7,0-24.2,16.4-18.3,28.7l5.6,12c2.9,6.2-1.1,12.3-5.9,13.8
		c-16.1,5-27.8,4.5-42.5,0c-4.9-1.5-8.8-7.6-5.9-13.8l5.6-12c6-12.3-2.5-28.7-18.3-28.7h-57l0-42.9l12.1,5.6
		c19.1,8.4,36.2-3.1,41.3-17.4c6.5-18,6.4-37.8,0-55.9c-6.7-19-27.8-24.1-41.3-17.4l-12.1,5.6v-42.9h57c15.7,0,24.2-16.4,18.3-28.7
		l-5.6-12c-2.7-6.4,0.9-12,5.9-13.8c12.9-4.6,29.2-4.9,42.5,0c5,1.9,8.6,7.4,5.9,13.8l-5.6,12c-5.9,12.3,2.5,28.7,18.3,28.7h57v42.9
		l-12.1-5.7c-13.5-6.7-34.6-1.6-41.3,17.4c-6.3,18-6.5,37.9,0,55.9c5.2,14.4,22.3,25.8,41.3,17.4l12.1-5.7V554.9z"/>
	<circle cx="92.1" cy="211.2" r="10.1"/>
	<path class="st1" d="M1.4,470.2c-5.6,0-10.1,4.5-10.1,10.1c0,5.6,4.5,10.1,10.1,10.1h70.6c5.6,0,10.1-4.5,10.1-10.1
		c0-5.6-4.5-10.1-10.1-10.1H1.4z"/>
	<path d="M167.7,519.6c-5.6,0-10.1,4.5-10.1,10.1s4.5,10.1,10.1,10.1c5.6,0,10.1-4.5,10.1-10.1S173.2,519.6,167.7,519.6z"/>
	<path d="M276.5,339.2c0-5.6-4.5-10.1-10.1-10.1h-83.7c-5.6,0-10.1,4.5-10.1,10.1c0,5.6,4.5,10.1,10.1,10.1h83.7
		C272,349.3,276.5,344.8,276.5,339.2z"/>
</g>
</svg>
