<?xml version="1.0" encoding="utf-8"?>
<!-- Generator: Adobe Illustrator 24.1.1, SVG Export Plug-In . SVG Version: 6.00 Build 0)  -->
<svg version="1.1" id="Layer_1" xmlns="http://www.w3.org/2000/svg" xmlns:xlink="http://www.w3.org/1999/xlink" x="0px" y="0px"
	 viewBox="0 0 80 80" style="enable-background:new 0 0 80 80;" xml:space="preserve">
<style type="text/css">
	.st0{fill:#1D73F8;}
</style>
<path d="M56.4,1H10c-5,0-9,4-9,9v46.4c0,5,4,9,9,9h14.2v-2.6H10c-3.6,0-6.5-2.9-6.5-6.5V34.6h8.3c0.8-0.1,1.3-0.7,1.3-1.5
	c0-0.1,0-0.3-0.1-0.4c-1.1-2.6,0-5.7,2.7-6.8s5.7,0,6.8,2.7c0.6,1.3,0.6,2.8,0,4.2c-0.3,0.7,0,1.5,0.6,1.8c0.2,0.1,0.4,0.1,0.6,0.1
	h8.3v7.7c-0.4-0.1-0.9-0.1-1.3-0.1c-4.3,0-7.7,3.5-7.8,7.7c0,3.1,1.8,5.9,4.7,7.1l1-2.4c-2.6-1.1-3.8-4.2-2.7-6.8
	c0.8-1.9,2.7-3.1,4.7-3.1c0.7,0,1.4,0.1,2.1,0.4c0.7,0.3,1.4,0,1.7-0.7c0.1-0.2,0.1-0.3,0.1-0.5v-9.5h6.6C41,35,41,35.5,41,35.9
	c0,3.7,2.6,6.8,6.2,7.6l0.5-2.5c-2.4-0.5-4.1-2.6-4.1-5.1c0-0.7,0.1-1.4,0.4-2.1c0.3-0.7,0-1.4-0.7-1.7C43.1,32.1,43,32,42.8,32
	h-8.3v-6.6c0.4,0.1,0.9,0.1,1.3,0.1c4.3,0,7.7-3.5,7.7-7.7s-3.5-7.7-7.7-7.7c-0.4,0-0.9,0-1.3,0.1V3.6h22c3.6,0,6.5,2.9,6.5,6.5v22
	h-8.3c-0.7,0-1.3,0.6-1.3,1.3c0,0.2,0,0.4,0.1,0.5c0.3,0.7,0.4,1.4,0.4,2.1h2.6c0-0.4,0-0.9-0.1-1.3h7.9c0.7,0,1.3-0.6,1.3-1.3l0,0
	V10.1C65.5,5.1,61.4,1.1,56.4,1z M35.8,12.7c2.9,0,5.2,2.3,5.2,5.2S38.6,23,35.8,23c-0.7,0-1.4-0.1-2.1-0.4c-0.7-0.3-1.4,0-1.7,0.7
	c-0.1,0.2-0.1,0.3-0.1,0.5v8.2h-6.6c0.1-0.4,0.1-0.8,0.1-1.2v-0.1v0c0-4.3-3.5-7.7-7.7-7.7S10,26.4,10,30.6v0.1c0,0.4,0,0.8,0.1,1.2
	H3.5V10.1c0-3.6,2.9-6.5,6.5-6.5h22v8.3c0,0.7,0.6,1.3,1.3,1.3c0.2,0,0.4,0,0.5-0.1C34.4,12.8,35.1,12.7,35.8,12.7L35.8,12.7z"/>
<path class="st0" d="M75.6,56.5l-10.9-7.5l-4.2-11.1c-0.2-0.7-1-1-1.7-0.8c0,0,0,0-0.1,0l-8.4,3.7c-0.6,0.3-0.9,1-0.7,1.6
	c0.1,0.4,0.3,0.6,0.4,0.9s0.3,0.6,0.4,1c1,2.7-0.3,5.7-3,6.7c-2.7,1-5.6-0.4-6.6-3c-0.3-0.7-0.4-1.4-0.3-2.1c0-0.7-0.5-1.3-1.2-1.4
	c-0.2,0-0.4,0-0.5,0.1l-9,3.4c-0.7,0.3-1,1-0.8,1.7l3.2,8.6c-0.4,0.1-0.8,0.2-1.3,0.3c-4,1.5-6.1,6-4.6,10c1.5,4,6,6.1,10,4.6
	c0.4-0.2,0.8-0.3,1.2-0.6l2.3,6.2c0.3,0.7,1,1,1.7,0.8c0,0,0,0,0,0l0,0l12.8-4.8c0.8,1.7,2.3,3,4.1,3.7l0.8-2.5
	c-1.1-0.4-1.9-1.1-2.5-2.1l3.9-1.5c1.3,3.6,4.7,6,8.5,6v-2.6c-3.6,0-6.4-2.9-6.5-6.5c0-0.3-0.1-0.7-0.4-0.9L58,64
	c-0.7-0.7-0.7-1.7-0.2-2.5c0.3-0.4,0.8-0.7,1.4-0.8c0.6,0,1.1,0.2,1.5,0.6l9,9l1.8-1.8l-2.7-2.7c0.7-2,0.6-4.1-0.1-6l-2.4-6.5
	l7.8,5.4c1,0.7,1.7,1.9,1.7,3.2v16.7h2.6V61.8C78.4,59.7,77.4,57.8,75.6,56.5L75.6,56.5z M66.4,60.7c0.4,0.9,0.5,2,0.4,3l-4.2-4.2
	c-1.7-1.8-4.6-1.8-6.3-0.1c-1.8,1.7-1.8,4.6-0.1,6.3c0,0,0.1,0.1,0.1,0.1l4.1,4.1L42,76.7l-2.5-6.6c-0.2-0.5-0.7-0.8-1.2-0.8
	c-0.3,0-0.7,0.1-0.9,0.4c-2.1,2-5.3,1.9-7.3-0.2c-2-2.1-1.9-5.3,0.2-7.3c0.5-0.5,1.1-0.8,1.7-1.1c0.4-0.2,0.8-0.2,1.3-0.3
	c0.3,0,0.5,0,0.8,0c0.7,0,1.3-0.5,1.4-1.2c0-0.2,0-0.4-0.1-0.5l-3.4-9l6.1-2.3c0.8,4.2,4.9,7,9.1,6.1c0.4-0.1,0.9-0.2,1.3-0.4
	c4-1.5,6-6,4.5-10c-0.1-0.3-0.2-0.5-0.3-0.8l5.9-2.6L66.4,60.7L66.4,60.7z"/>
</svg>
