<?xml version="1.0" encoding="utf-8"?>
<!-- Generator: Adobe Illustrator 24.1.1, SVG Export Plug-In . SVG Version: 6.00 Build 0)  -->
<svg version="1.1" id="Layer_1" xmlns="http://www.w3.org/2000/svg" xmlns:xlink="http://www.w3.org/1999/xlink" x="0px" y="0px"
	 viewBox="0 0 80 80" style="enable-background:new 0 0 80 80;" xml:space="preserve">
<style type="text/css">
	.st0{fill:#1D73F8;}
</style>
<g id="_x30_02---API">
	<path id="Shape_31_" d="M66.4,50.2H17.3c-9.4,0-17-7.6-17-17s7.6-17,17-17c0.1,0,0.2,0,0.3,0c3.1-7.2,10.2-11.8,18-11.8
		s14.9,4.6,18,11.8c5.9,0.1,11.2,3.7,13.5,9.2c6.7,0.4,11.9,6.1,11.7,12.8C78.6,44.9,73.1,50.2,66.4,50.2z M17.3,18.8
		c-7.9,0-14.4,6.4-14.4,14.4s6.4,14.4,14.4,14.4h49.1c5.4,0,9.8-4.4,9.8-9.8S71.8,28,66.4,28h-0.1c-0.6,0-1-0.3-1.2-0.9
		c-1.8-5-6.5-8.3-11.8-8.3c-0.1,0-0.3,0-0.4,0c-0.6,0-1.1-0.3-1.3-0.8c-2.5-6.6-8.8-11-15.9-10.9s-13.4,4.4-15.9,11
		c-0.2,0.6-0.8,0.9-1.4,0.8C18,18.9,17.7,18.8,17.3,18.8L17.3,18.8z"/>
	<path id="Shape_30_" class="st0" d="M9.2,41.1c-0.4,0-0.8-0.2-1-0.5c-2.3-2.8-3.1-6.5-2.3-10s3.2-6.5,6.5-8c0.7-0.3,1.4,0,1.7,0.6
		c0.3,0.7,0,1.4-0.6,1.7c-3.2,1.5-5.2,4.7-5.3,8.3c0,2.1,0.7,4.1,2,5.7c0.3,0.4,0.4,0.9,0.2,1.4S9.7,41.1,9.2,41.1z"/>
	<path id="Shape_29_" class="st0" d="M22.6,42.4c-0.4,0-0.8-0.2-1.1-0.5c-0.2-0.3-0.3-0.8-0.2-1.2L26.5,25c0.2-0.7,1-1.1,1.7-0.8
		c0.7,0.2,1.1,1,0.8,1.7l-5.2,15.7C23.6,42,23.1,42.4,22.6,42.4L22.6,42.4z"/>
	<path id="Shape_28_" class="st0" d="M33,42.4c-0.6,0-1.1-0.4-1.2-0.9l-5.2-15.7c-0.2-0.7,0.1-1.4,0.8-1.7c0.7-0.2,1.4,0.1,1.7,0.8
		l5.2,15.7c0.1,0.4,0.1,0.8-0.2,1.2C33.8,42.2,33.4,42.4,33,42.4L33,42.4z"/>
	<path id="Shape_27_" class="st0" d="M30.8,35.9h-6.1c-0.7,0-1.3-0.6-1.3-1.3c0-0.7,0.6-1.3,1.3-1.3h6.1c0.7,0,1.3,0.6,1.3,1.3
		C32.1,35.3,31.6,35.9,30.8,35.9z"/>
	<path id="Shape_26_" class="st0" d="M36.9,42.4c-0.7,0-1.3-0.6-1.3-1.3V25.4c0-0.7,0.6-1.3,1.3-1.3c0.7,0,1.3,0.6,1.3,1.3v15.7
		C38.3,41.8,37.7,42.4,36.9,42.4z"/>
	<path id="Shape_25_" class="st0" d="M42.2,34.5h-5.2c-0.7,0-1.3-0.6-1.3-1.3v-7.8c0-0.7,0.6-1.3,1.3-1.3h5.2c2.9,0,5.2,2.3,5.2,5.2
		S45.1,34.5,42.2,34.5z M38.3,31.9h3.9c1.4,0,2.6-1.2,2.6-2.6s-1.2-2.6-2.6-2.6h-3.9V31.9z"/>
	<path id="Shape_24_" class="st0" d="M52.6,42.4c-0.7,0-1.3-0.6-1.3-1.3V25.4c0-0.7,0.6-1.3,1.3-1.3s1.3,0.6,1.3,1.3v15.7
		C53.9,41.8,53.4,42.4,52.6,42.4z"/>
	<path id="Shape_23_" class="st0" d="M56.6,26.7h-7.8c-0.7,0-1.3-0.6-1.3-1.3c0-0.7,0.6-1.3,1.3-1.3h7.8c0.7,0,1.3,0.6,1.3,1.3
		C57.9,26.1,57.3,26.7,56.6,26.7z"/>
	<path id="Shape_22_" class="st0" d="M56.6,42.4h-7.8c-0.7,0-1.3-0.6-1.3-1.3s0.6-1.3,1.3-1.3h7.8c0.7,0,1.3,0.6,1.3,1.3
		S57.3,42.4,56.6,42.4z"/>
	<path id="Shape_21_" d="M31.8,76.4c-0.3,0-0.7-0.1-1-0.2l-8.2-3.4c-0.6-0.2-1.1-0.7-1.3-1.3c-0.2-0.6-0.2-1.3,0-1.9l1.9-4.7
		c-1.9-1.5-3.6-3.2-5.1-5.1l-4.8,2c-0.6,0.2-1.3,0.2-1.9,0c-0.6-0.2-1.1-0.7-1.3-1.3l-3.4-8.2c-0.5-1.2,0.1-2.6,1.3-3.1l4.6-1.9
		c0.4-0.2,0.9-0.1,1.3,0.2c0.4,0.3,0.6,0.7,0.5,1.2c-0.1,0.5-0.4,0.9-0.8,1l-4.4,1.8l3.2,7.9l5.5-2.3c0.6-0.2,1.2,0,1.6,0.5
		c1.6,2.3,3.6,4.3,5.9,5.9c0.5,0.4,0.7,1,0.5,1.6l-2.3,5.5l7.9,3.3l2.3-5.5c0.2-0.6,0.8-0.9,1.4-0.8c2.8,0.5,5.6,0.5,8.4,0
		c0.6-0.1,1.2,0.2,1.4,0.8l2.3,5.5l7.8-3.3L53,64.9c-0.2-0.6,0-1.2,0.5-1.6c2.3-1.6,4.3-3.6,5.9-5.9c0.4-0.5,1-0.7,1.6-0.5l5.5,2.3
		l3.3-7.9l-3.1-1.3c-0.6-0.2-0.9-0.8-0.8-1.5c0.1-0.6,0.6-1.1,1.3-1.1c0.2,0,0.4,0,0.5,0.1l3.4,1.4c0.6,0.2,1.1,0.7,1.3,1.3
		c0.2,0.6,0.2,1.3,0,1.8l-3.4,8.2c-0.2,0.6-0.7,1.1-1.3,1.3c-0.6,0.2-1.3,0.2-1.9,0l-4.7-2c-1.5,1.9-3.2,3.6-5.1,5.1l2,4.8
		c0.3,0.6,0.3,1.2,0,1.8c-0.2,0.6-0.7,1.1-1.3,1.3l-8.2,3.4c-0.6,0.2-1.3,0.2-1.9,0c-0.6-0.2-1.1-0.7-1.3-1.3l-2-4.7
		c-2.4,0.3-4.8,0.3-7.2,0l-2,4.7C33.6,75.8,32.8,76.4,31.8,76.4L31.8,76.4z M31.6,73.9L31.6,73.9L31.6,73.9z M31.8,73.8L31.8,73.8
		L31.8,73.8z M55.4,70.7L55.4,70.7L55.4,70.7z M23.7,70.6L23.7,70.6L23.7,70.6z M55.5,70.4L55.5,70.4L55.5,70.4z M23.6,70.4
		L23.6,70.4L23.6,70.4z M66.4,59.5L66.4,59.5L66.4,59.5z M12.4,59.4L12.4,59.4L12.4,59.4z M66.7,59.4L66.7,59.4L66.7,59.4z
		 M69.9,51.5L69.9,51.5L69.9,51.5z M9.3,51.3L9.3,51.3L9.3,51.3z"/>
	<path id="Shape_20_" d="M39.6,62c-8.1,0-15.4-5-18.3-12.6c-0.2-0.4-0.1-0.9,0.2-1.3c0.3-0.4,0.8-0.5,1.2-0.5c0.5,0.1,0.9,0.4,1,0.8
		c2.5,6.6,8.8,10.9,15.9,10.9S52.9,55,55.4,48.5c0.2-0.4,0.6-0.8,1-0.8c0.5-0.1,0.9,0.1,1.2,0.5c0.3,0.4,0.4,0.9,0.2,1.3
		C55,57,47.7,62,39.6,62z"/>
	<path id="Shape_19_" class="st0" d="M25.2,20.2c-0.4,0-0.8-0.2-1.1-0.5s-0.3-0.8-0.2-1.2C26.8,9.8,34,9.7,34.3,9.7
		c0.7,0,1.3,0.6,1.3,1.3c0,0.7-0.6,1.3-1.3,1.3c-0.3,0-5.7,0.2-7.9,7C26.2,19.8,25.7,20.2,25.2,20.2L25.2,20.2z"/>
</g>
</svg>
