<svg width="108" height="108" viewBox="0 0 108 108" fill="none" xmlns="http://www.w3.org/2000/svg">
<path d="M54.2898 0C43.667 0 33.2826 3.15005 24.45 9.0518C15.6174 14.9536 8.73326 23.3419 4.66806 33.1562C0.602862 42.9705 -0.46078 53.7698 1.61164 64.1886C3.68406 74.6073 8.79946 84.1776 16.311 91.6891C23.8225 99.2006 33.3927 104.316 43.8115 106.388C54.2303 108.461 65.0296 107.397 74.8438 103.332C84.6581 99.2668 93.0465 92.3826 98.9482 83.55C104.85 74.7174 108 64.3331 108 53.7102C107.984 39.4703 102.32 25.8183 92.2509 15.7492C82.1818 5.68002 68.5297 0.0161112 54.2898 0ZM54.2898 3.58068C63.3913 3.57656 72.322 6.05152 80.123 10.7398C87.9241 15.4281 94.3008 22.1527 98.5686 30.1915C102.836 38.2303 104.834 47.2797 104.347 56.3682C103.86 65.4566 100.907 74.2407 95.8043 81.7774C93.7736 75.2025 89.6899 69.4512 84.152 65.3667C78.614 61.2822 71.9132 59.0794 65.0319 59.0812H43.5478C36.6637 59.072 29.9587 61.2739 24.4203 65.3625C18.8819 69.4511 14.803 75.2103 12.7844 81.7917C7.67847 74.2555 4.72204 65.4707 4.23261 56.3809C3.74319 47.2911 5.73925 38.2397 10.0064 30.1988C14.2736 22.1579 20.6507 15.4314 28.4527 10.7418C36.2547 6.05208 45.1868 3.57642 54.2898 3.58068ZM62.6471 62.6619L60.0458 71.6136H48.5339L45.9325 62.6619H62.6471ZM23.3366 93.0977H45.5172C45.9281 95.1213 47.0259 96.9406 48.6247 98.2474C50.2235 99.5542 52.2249 100.268 54.2898 100.268C56.3547 100.268 58.3561 99.5542 59.9549 98.2474C61.5537 96.9406 62.6516 95.1213 63.0625 93.0977H85.2448C76.4277 100.056 65.5234 103.84 54.2916 103.84C43.0598 103.84 32.1556 100.056 23.3384 93.0977H23.3366ZM56.0802 91.3074V86.2658C57.2747 86.6881 58.2815 87.5191 58.9226 88.612C59.5637 89.7048 59.7978 90.9891 59.5835 92.2379C59.3693 93.4866 58.7204 94.6194 57.7517 95.4361C56.783 96.2527 55.5568 96.7006 54.2898 96.7006C53.0228 96.7006 51.7966 96.2527 50.8279 95.4361C49.8592 94.6194 49.2104 93.4866 48.9962 92.2379C48.7819 90.9891 49.016 89.7048 49.6571 88.612C50.2982 87.5191 51.305 86.6881 52.4995 86.2658V91.3074H56.0802ZM89.325 89.517H63.0625C62.7082 87.7982 61.8581 86.2209 60.6172 84.98C59.3762 83.7391 57.7989 82.889 56.0802 82.5347V78.775H52.4995V82.5347C50.7807 82.889 49.2034 83.7391 47.9625 84.98C46.7216 86.2209 45.8715 87.7982 45.5172 89.517H19.2547C17.9418 88.2358 16.6998 86.8839 15.5343 85.4673C16.8169 79.2474 20.1383 73.6334 24.9723 69.5148C29.8064 65.3962 35.8766 63.0084 42.2211 62.7299L45.4706 73.9124C45.5788 74.2849 45.8051 74.6122 46.1154 74.845C46.4257 75.0778 46.8032 75.2035 47.1911 75.2033H61.3885C61.7765 75.2035 62.154 75.0778 62.4642 74.845C62.7745 74.6122 63.0008 74.2849 63.1091 73.9124L66.3567 62.7353C72.7028 63.0122 78.7749 65.3991 83.6107 69.5179C88.4465 73.6366 91.7693 79.2515 93.0525 85.4726C91.8843 86.8874 90.6399 88.2375 89.325 89.517Z" fill="#565656"/>
<path d="M72.1018 42.9682H72.1931C73.6176 42.9682 74.9837 42.4023 75.991 41.3951C76.9982 40.3878 77.5641 39.0217 77.5641 37.5972V35.8068C77.5639 34.7533 77.2538 33.7232 76.6725 32.8446C76.0912 31.966 75.2644 31.2777 74.295 30.8655L77.0395 28.1209C77.3753 27.7852 77.564 27.3299 77.5641 26.8551V23.2744C77.5594 19.0024 75.8602 14.9068 72.8395 11.886C69.8187 8.86526 65.723 7.16612 61.451 7.16138H47.1283C42.8563 7.16612 38.7607 8.86526 35.7399 11.886C32.7191 14.9068 31.02 19.0024 31.0153 23.2744V26.8551C31.0154 27.3299 31.2041 27.7852 31.5398 28.1209L34.2844 30.8655C33.315 31.2777 32.4881 31.966 31.9069 32.8446C31.3256 33.7232 31.0155 34.7533 31.0153 35.8068V37.5972C31.0153 39.0217 31.5811 40.3878 32.5884 41.3951C33.5957 42.4023 34.9618 42.9682 36.3863 42.9682H36.4776C36.9209 47.3847 38.989 51.4791 42.2807 54.4569C45.5723 57.4346 49.8528 59.0835 54.2915 59.0835C58.7302 59.0835 63.0106 57.4346 66.3023 54.4569C69.5939 51.4791 71.6621 47.3847 72.1054 42.9682H72.1018ZM73.9834 37.5972C73.9834 38.072 73.7948 38.5274 73.4591 38.8631C73.1233 39.1989 72.6679 39.3875 72.1931 39.3875V34.0165C72.6679 34.0165 73.1233 34.2051 73.4591 34.5409C73.7948 34.8766 73.9834 35.332 73.9834 35.8068V37.5972ZM34.5959 23.2744C34.5997 19.9518 35.9213 16.7664 38.2708 14.4169C40.6202 12.0674 43.8057 10.7458 47.1283 10.7421H61.451C64.7737 10.7458 67.9591 12.0674 70.3086 14.4169C72.6581 16.7664 73.9796 19.9518 73.9834 23.2744V26.1139L72.1931 27.9043V26.8551C72.1932 26.4623 72.064 26.0803 71.8256 25.7681C71.5871 25.4559 71.2526 25.2308 70.8736 25.1274L51.1799 19.7564C50.7896 19.6515 50.3755 19.6805 50.0036 19.8388L37.4712 25.2098C37.1492 25.3478 36.8748 25.5773 36.682 25.8697C36.4891 26.1622 36.3863 26.5048 36.3863 26.8551V27.9043L34.5959 26.1139V23.2744ZM34.5959 37.5972V35.8068C34.5959 35.332 34.7846 34.8766 35.1203 34.5409C35.4561 34.2051 35.9115 34.0165 36.3863 34.0165V39.3875C35.9115 39.3875 35.4561 39.1989 35.1203 38.8631C34.7846 38.5274 34.5959 38.072 34.5959 37.5972ZM54.2897 55.5006C50.4924 55.4963 46.8518 53.9859 44.1667 51.3008C41.4816 48.6157 39.9712 44.9752 39.967 41.1778V28.035L50.8397 23.3801L68.6124 28.2229V41.1778C68.6081 44.9752 67.0978 48.6157 64.4127 51.3008C61.7276 53.9859 58.087 55.4963 54.2897 55.5006Z" fill="#1D73F8"/>
</svg>
