<svg width="90" height="90" viewBox="0 0 90 90" fill="none" xmlns="http://www.w3.org/2000/svg">
<path d="M66.0938 82.9688C66.0933 83.3416 65.945 83.699 65.6814 83.9626C65.4178 84.2263 65.0603 84.3746 64.6875 84.375H25.3125C24.9397 84.3746 24.5822 84.2263 24.3186 83.9626C24.055 83.699 23.9067 83.3416 23.9062 82.9688V67.5H21.0938V82.9688C21.095 84.0872 21.5399 85.1596 22.3308 85.9504C23.1217 86.7413 24.194 87.1862 25.3125 87.1875H64.6875C65.806 87.1862 66.8783 86.7413 67.6692 85.9504C68.4601 85.1596 68.905 84.0872 68.9062 82.9688V53.4375H66.0938V82.9688Z" fill="black"/>
<path d="M23.9062 7.03125C23.9067 6.65842 24.055 6.30098 24.3186 6.03735C24.5822 5.77372 24.9397 5.62543 25.3125 5.625H64.6875C65.0603 5.62543 65.4178 5.77372 65.6814 6.03735C65.945 6.30098 66.0933 6.65842 66.0938 7.03125V28.125H68.9062V7.03125C68.905 5.91276 68.4601 4.84045 67.6692 4.04956C66.8783 3.25866 65.806 2.81378 64.6875 2.8125H25.3125C24.194 2.81378 23.1217 3.25866 22.3308 4.04956C21.5399 4.84045 21.095 5.91276 21.0938 7.03125V19.6875H23.9062V7.03125Z" fill="black"/>
<path d="M64.6875 71.7188V53.4375H61.875V70.3125H28.125V67.5H25.3125V71.7188C25.3125 71.9034 25.3489 72.0863 25.4195 72.2569C25.4902 72.4275 25.5938 72.5825 25.7244 72.7131C25.855 72.8437 26.01 72.9473 26.1806 73.018C26.3512 73.0886 26.5341 73.125 26.7188 73.125H63.2812C63.4659 73.125 63.6488 73.0886 63.8194 73.018C63.99 72.9473 64.145 72.8437 64.2756 72.7131C64.4062 72.5825 64.5098 72.4275 64.5805 72.2569C64.6511 72.0863 64.6875 71.9034 64.6875 71.7188Z" fill="black"/>
<path d="M64.6875 28.125V15.4688C64.6875 15.2841 64.6511 15.1012 64.5805 14.9306C64.5098 14.76 64.4062 14.605 64.2756 14.4744C64.145 14.3438 63.99 14.2402 63.8194 14.1695C63.6488 14.0989 63.4659 14.0625 63.2812 14.0625H26.7188C26.5341 14.0625 26.3512 14.0989 26.1806 14.1695C26.01 14.2402 25.855 14.3438 25.7244 14.4744C25.5938 14.605 25.4902 14.76 25.4195 14.9306C25.3489 15.1012 25.3125 15.2841 25.3125 15.4688V19.6875H28.125V16.875H61.875V28.125H64.6875Z" fill="black"/>
<path d="M42.1875 8.4375H50.625V11.25H42.1875V8.4375Z" fill="black"/>
<path d="M39.375 11.25C40.1517 11.25 40.7812 10.6204 40.7812 9.84375C40.7812 9.0671 40.1517 8.4375 39.375 8.4375C38.5983 8.4375 37.9688 9.0671 37.9688 9.84375C37.9688 10.6204 38.5983 11.25 39.375 11.25Z" fill="black"/>
<path d="M40.7812 78.75C40.7812 79.5844 41.0287 80.4 41.4922 81.0938C41.9558 81.7876 42.6147 82.3283 43.3856 82.6476C44.1564 82.9669 45.0047 83.0505 45.823 82.8877C46.6414 82.7249 47.3931 82.3231 47.9831 81.7331C48.5731 81.1431 48.9749 80.3914 49.1377 79.573C49.3005 78.7547 49.2169 77.9064 48.8976 77.1356C48.5783 76.3647 48.0376 75.7058 47.3438 75.2422C46.65 74.7787 45.8344 74.5312 45 74.5312C43.8815 74.5325 42.8092 74.9774 42.0183 75.7683C41.2274 76.5592 40.7825 77.6315 40.7812 78.75V78.75ZM46.4063 78.75C46.4063 79.0281 46.3238 79.3 46.1693 79.5313C46.0147 79.7625 45.7951 79.9428 45.5382 80.0492C45.2812 80.1556 44.9984 80.1835 44.7257 80.1292C44.4529 80.075 44.2023 79.941 44.0056 79.7444C43.809 79.5477 43.675 79.2971 43.6208 79.0244C43.5665 78.7516 43.5944 78.4688 43.7008 78.2119C43.8072 77.9549 43.9875 77.7353 44.2187 77.5807C44.45 77.4262 44.7219 77.3438 45 77.3438C45.3728 77.3442 45.7303 77.4925 45.9939 77.7561C46.2575 78.0197 46.4058 78.3772 46.4063 78.75V78.75Z" fill="black"/>
<path d="M36.5625 60.4688V52.6138L41.7756 47.4006C41.9723 47.2039 42.1062 46.9534 42.1605 46.6806C42.2148 46.4078 42.1869 46.125 42.0805 45.8681C41.974 45.6111 41.7938 45.3915 41.5625 45.237C41.3313 45.0825 41.0594 45 40.7813 45H7.03125C5.91276 45.0013 4.84045 45.4462 4.04956 46.2371C3.25866 47.0279 2.81378 48.1003 2.8125 49.2188V60.4688C2.81378 61.5872 3.25866 62.6596 4.04956 63.4504C4.84045 64.2413 5.91276 64.6862 7.03125 64.6875H32.3438C33.4622 64.6862 34.5346 64.2413 35.3254 63.4504C36.1163 62.6596 36.5612 61.5872 36.5625 60.4688V60.4688ZM5.625 60.4688V49.2188C5.62543 48.8459 5.77372 48.4885 6.03735 48.2249C6.30098 47.9612 6.65842 47.8129 7.03125 47.8125H37.3862L34.1619 51.0369C34.0313 51.1675 33.9277 51.3225 33.857 51.4931C33.7864 51.6637 33.75 51.8466 33.75 52.0312V60.4688C33.7496 60.8416 33.6013 61.199 33.3377 61.4626C33.074 61.7263 32.7166 61.8746 32.3438 61.875H7.03125C6.65842 61.8746 6.30098 61.7263 6.03735 61.4626C5.77372 61.199 5.62543 60.8416 5.625 60.4688V60.4688Z" fill="black"/>
<path d="M7.03125 42.1875H40.7812C41.0594 42.1875 41.3313 42.105 41.5625 41.9505C41.7938 41.796 41.974 41.5764 42.0805 41.3194C42.1869 41.0625 42.2147 40.7797 42.1605 40.5069C42.1062 40.2341 41.9723 39.9836 41.7756 39.7869L36.5625 34.5737V26.7188C36.5612 25.6003 36.1163 24.5279 35.3254 23.7371C34.5346 22.9462 33.4622 22.5013 32.3438 22.5H7.03125C5.91276 22.5013 4.84045 22.9462 4.04956 23.7371C3.25866 24.5279 2.81378 25.6003 2.8125 26.7188V37.9688C2.81378 39.0872 3.25866 40.1596 4.04956 40.9504C4.84045 41.7413 5.91276 42.1862 7.03125 42.1875V42.1875ZM5.625 26.7188C5.62543 26.3459 5.77372 25.9885 6.03735 25.7249C6.30098 25.4612 6.65842 25.3129 7.03125 25.3125H32.3438C32.7166 25.3129 33.074 25.4612 33.3376 25.7249C33.6013 25.9885 33.7496 26.3459 33.75 26.7188V35.1562C33.75 35.3409 33.7864 35.5238 33.857 35.6944C33.9277 35.865 34.0313 36.02 34.1619 36.1506L37.3862 39.375H7.03125C6.65842 39.3746 6.30098 39.2263 6.03735 38.9626C5.77372 38.699 5.62543 38.3416 5.625 37.9688V26.7188Z" fill="black"/>
<path d="M82.9688 30.9375H57.6563C56.5378 30.9388 55.4655 31.3837 54.6746 32.1746C53.8837 32.9654 53.4388 34.0378 53.4375 35.1562V43.0112L48.2244 48.2244C48.0277 48.4211 47.8938 48.6716 47.8395 48.9444C47.7853 49.2172 47.8131 49.5 47.9195 49.7569C48.026 50.0139 48.2062 50.2335 48.4375 50.388C48.6687 50.5425 48.9406 50.625 49.2188 50.625H82.9688C84.0873 50.6237 85.1596 50.1788 85.9505 49.3879C86.7414 48.5971 87.1862 47.5247 87.1875 46.4062V35.1562C87.1862 34.0378 86.7414 32.9654 85.9505 32.1746C85.1596 31.3837 84.0873 30.9388 82.9688 30.9375ZM84.375 46.4062C84.3746 46.7791 84.2263 47.1365 83.9627 47.4001C83.699 47.6638 83.3416 47.8121 82.9688 47.8125H52.6138L55.8381 44.5881C55.9687 44.4575 56.0723 44.3025 56.143 44.1319C56.2137 43.9613 56.25 43.7784 56.25 43.5938V35.1562C56.2504 34.7834 56.3987 34.426 56.6624 34.1624C56.926 33.8987 57.2834 33.7504 57.6563 33.75H82.9688C83.3416 33.7504 83.699 33.8987 83.9627 34.1624C84.2263 34.426 84.3746 34.7834 84.375 35.1562V46.4062Z" fill="#1D73F8"/>
<path d="M11.25 28.125H16.875V30.9375H11.25V28.125Z" fill="black"/>
<path d="M19.6875 28.125H30.9375V30.9375H19.6875V28.125Z" fill="black"/>
<path d="M8.4375 33.75H14.0625V36.5625H8.4375V33.75Z" fill="black"/>
<path d="M16.875 33.75H25.3125V36.5625H16.875V33.75Z" fill="black"/>
<path d="M61.875 36.5625H70.3125V39.375H61.875V36.5625Z" fill="#1D73F8"/>
<path d="M73.125 36.5625H81.5625V39.375H73.125V36.5625Z" fill="#1D73F8"/>
<path d="M59.0625 42.1875H75.9375V45H59.0625V42.1875Z" fill="#1D73F8"/>
<path d="M11.25 50.625H16.875V53.4375H11.25V50.625Z" fill="black"/>
<path d="M19.6875 50.625H25.3125V53.4375H19.6875V50.625Z" fill="black"/>
<path d="M28.125 50.625H30.9375V53.4375H28.125V50.625Z" fill="black"/>
<path d="M8.4375 56.25H19.6875V59.0625H8.4375V56.25Z" fill="black"/>
<path d="M22.5 56.25H30.9375V59.0625H22.5V56.25Z" fill="black"/>
</svg>
