<svg width="68" height="68" viewBox="0 0 68 68" fill="none" xmlns="http://www.w3.org/2000/svg">
<path d="M64.7275 33.0214C64.3278 32.6248 63.83 32.3415 63.2848 32.2005C62.7397 32.0595 62.1668 32.066 61.625 32.2192V5.3125C61.625 4.46712 61.2892 3.65637 60.6914 3.0586C60.0936 2.46083 59.2829 2.125 58.4375 2.125H15.9375C15.0921 2.125 14.2814 2.46083 13.6836 3.0586C13.0858 3.65637 12.75 4.46712 12.75 5.3125V24.4375H8.5C8.36468 24.4376 8.23058 24.4631 8.10475 24.5129L2.79225 26.6379C2.59512 26.7169 2.42619 26.8532 2.30725 27.0291C2.18832 27.2051 2.12484 27.4126 2.125 27.625V42.5C2.12503 42.6753 2.16841 42.8478 2.25128 43.0022C2.33414 43.1566 2.45392 43.2881 2.59994 43.3851L5.79806 45.5101C5.9722 45.6257 6.17658 45.6874 6.38563 45.6875H12.75V62.6875C12.75 63.5329 13.0858 64.3436 13.6836 64.9414C14.2814 65.5392 15.0921 65.875 15.9375 65.875H58.4375C59.2829 65.875 60.0936 65.5392 60.6914 64.9414C61.2892 64.3436 61.625 63.5329 61.625 62.6875V40.6332L64.7286 37.5296C65.0245 37.2336 65.2593 36.8821 65.4194 36.4953C65.5796 36.1085 65.6619 35.6939 65.6618 35.2753C65.6617 34.8567 65.5792 34.4422 65.4188 34.0554C65.2585 33.6687 65.0236 33.3174 64.7275 33.0214ZM14.875 5.3125C14.875 5.03071 14.9869 4.76046 15.1862 4.5612C15.3855 4.36194 15.6557 4.25 15.9375 4.25H58.4375C58.7193 4.25 58.9895 4.36194 59.1888 4.5612C59.3881 4.76046 59.5 5.03071 59.5 5.3125V33.7418L57.375 35.8668V7.4375C57.375 7.15571 57.2631 6.88546 57.0638 6.6862C56.8645 6.48694 56.5943 6.375 56.3125 6.375H18.0625C17.7807 6.375 17.5105 6.48694 17.3112 6.6862C17.1119 6.88546 17 7.15571 17 7.4375V24.4375H14.875V5.3125ZM40.6863 57.0637C40.8855 57.263 41.1557 57.3749 41.4375 57.375C41.6019 57.3764 41.7643 57.34 41.9124 57.2688L47.9187 54.2576C48.0212 54.2067 48.1145 54.1392 48.195 54.0579L55.25 47.0082V59.5H19.125V32.9375H21.25C21.25 33.2193 21.3619 33.4895 21.5612 33.6888C21.7605 33.8881 22.0307 34 22.3125 34H52.0625C52.3443 34 52.6145 33.8881 52.8138 33.6888C53.0131 33.4895 53.125 33.2193 53.125 32.9375V20.1875C53.125 19.9057 53.0131 19.6355 52.8138 19.4362C52.6145 19.2369 52.3443 19.125 52.0625 19.125H44.625V17H45.6875C45.9693 17 46.2395 16.8881 46.4388 16.6888C46.6381 16.4895 46.75 16.2193 46.75 15.9375V11.6875C46.75 11.4057 46.6381 11.1355 46.4388 10.9362C46.2395 10.7369 45.9693 10.625 45.6875 10.625H28.6875C28.4057 10.625 28.1355 10.7369 27.9362 10.9362C27.7369 11.1355 27.625 11.4057 27.625 11.6875V15.9375C27.625 16.2193 27.7369 16.4895 27.9362 16.6888C28.1355 16.8881 28.4057 17 28.6875 17H29.75V19.125H22.3125C22.0307 19.125 21.7605 19.2369 21.5612 19.4362C21.3619 19.6355 21.25 19.9057 21.25 20.1875V24.4375H19.125V8.5H55.25V37.9918L43.6921 49.5508C43.6108 49.6312 43.5433 49.7246 43.4924 49.827L40.4812 55.8376C40.3823 56.0376 40.3489 56.2637 40.3857 56.4837C40.4226 56.7038 40.5277 56.9067 40.6863 57.0637ZM42.5 31.875H40.375V26.5625C40.375 26.2807 40.2631 26.0105 40.0638 25.8112C39.8645 25.6119 39.5943 25.5 39.3125 25.5H35.0625C34.7807 25.5 34.5105 25.6119 34.3112 25.8112C34.1119 26.0105 34 26.2807 34 26.5625V31.875H31.875V21.25H42.5V31.875ZM38.25 31.875H36.125V27.625H38.25V31.875ZM44.625 25.5H46.75V27.625H44.625V25.5ZM44.625 29.75H46.75V31.875H44.625V29.75ZM48.875 29.75H51V31.875H48.875V29.75ZM51 27.625H48.875V25.5H51V27.625ZM51 23.375H48.875V21.25H51V23.375ZM46.75 23.375H44.625V21.25H46.75V23.375ZM29.75 14.875V12.75H44.625V14.875H29.75ZM42.5 17V19.125H31.875V17H42.5ZM29.75 23.375H27.625V21.25H29.75V23.375ZM25.5 23.375H23.375V21.25H25.5V23.375ZM24.0316 25.5H29.75V27.625H26.5625V29.75H29.75V31.875H24.0316C24.4921 31.4813 24.8618 30.9925 25.1153 30.4422C25.3688 29.892 25.5001 29.2933 25.5001 28.6875C25.5001 28.0817 25.3688 27.483 25.1153 26.9328C24.8618 26.3825 24.4921 25.8937 24.0316 25.5ZM6.7065 43.5625L4.25 41.9305V28.3443L8.704 26.5625H21.25C21.8136 26.5625 22.3541 26.7864 22.7526 27.1849C23.1511 27.5834 23.375 28.1239 23.375 28.6875C23.375 29.2511 23.1511 29.7916 22.7526 30.1901C22.3541 30.5886 21.8136 30.8125 21.25 30.8125H11.6875C11.4057 30.8125 11.1355 30.9244 10.9362 31.1237C10.7369 31.323 10.625 31.5932 10.625 31.875C10.625 32.7204 10.2892 33.5311 9.6914 34.1289C9.09363 34.7267 8.28288 35.0625 7.4375 35.0625V37.1875C8.66177 37.1862 9.84813 36.7627 10.7965 35.9885C11.7449 35.2143 12.3973 34.1367 12.6437 32.9375H12.75V43.5625H6.7065ZM59.5 62.6875C59.5 62.9693 59.3881 63.2395 59.1888 63.4388C58.9895 63.6381 58.7193 63.75 58.4375 63.75H15.9375C15.6557 63.75 15.3855 63.6381 15.1862 63.4388C14.9869 63.2395 14.875 62.9693 14.875 62.6875V32.9375H17V60.5625C17 60.8443 17.1119 61.1145 17.3112 61.3138C17.5105 61.5131 17.7807 61.625 18.0625 61.625H56.3125C56.5943 61.625 56.8645 61.5131 57.0638 61.3138C57.2631 61.1145 57.375 60.8443 57.375 60.5625V44.8832L59.5 42.7582V62.6875ZM63.2251 36.0273L46.818 52.4344L43.8133 53.9367L45.3156 50.932L61.7227 34.5249C61.9231 34.3313 62.1915 34.2242 62.4701 34.2267C62.7487 34.2291 63.0152 34.3408 63.2122 34.5378C63.4092 34.7348 63.5209 35.0013 63.5233 35.2799C63.5258 35.5585 63.4187 35.8269 63.2251 36.0273Z" fill="black"/>
<path d="M38.25 46.75H23.375C23.0932 46.75 22.823 46.8619 22.6237 47.0612C22.4244 47.2605 22.3125 47.5307 22.3125 47.8125V56.3125C22.3125 56.5943 22.4244 56.8645 22.6237 57.0638C22.823 57.2631 23.0932 57.375 23.375 57.375H38.25C38.5318 57.375 38.802 57.2631 39.0013 57.0638C39.2006 56.8645 39.3125 56.5943 39.3125 56.3125V47.8125C39.3125 47.5307 39.2006 47.2605 39.0013 47.0612C38.802 46.8619 38.5318 46.75 38.25 46.75ZM37.1875 55.25H24.4375V48.875H37.1875V55.25Z" fill="#1D73F8"/>
<path d="M29.393 54.1452C29.6158 54.1449 29.8328 54.0747 30.0135 53.9443L32.2277 52.3506L34.442 53.9443L35.683 52.2199L32.8482 50.181C32.6675 50.0509 32.4504 49.981 32.2277 49.981C32.005 49.981 31.788 50.0509 31.6072 50.181L29.393 51.7747L27.184 50.181L25.9409 51.9043L28.7714 53.9443C28.9524 54.0749 29.1698 54.1451 29.393 54.1452Z" fill="#1D73F8"/>
<path d="M27.625 36.125H23.375V38.25H27.625V36.125Z" fill="#1D73F8"/>
<path d="M51 36.125H29.75V38.25H51V36.125Z" fill="#1D73F8"/>
<path d="M46.75 42.5H23.375V44.625H46.75V42.5Z" fill="#1D73F8"/>
</svg>
