<?xml version="1.0" encoding="utf-8"?>
<!-- Generator: Adobe Illustrator 15.0.0, SVG Export Plug-In  -->
<!DOCTYPE svg PUBLIC "-//W3C//DTD SVG 1.1//EN" "http://www.w3.org/Graphics/SVG/1.1/DTD/svg11.dtd" [
	<!ENTITY ns_flows "http://ns.adobe.com/Flows/1.0/">
]>
<svg version="1.1"
	 xmlns="http://www.w3.org/2000/svg" xmlns:xlink="http://www.w3.org/1999/xlink" xmlns:a="http://ns.adobe.com/AdobeSVGViewerExtensions/3.0/"
	 x="0px" y="0px" width="80px" height="80px" viewBox="-3.743 -4.039 80 80" enable-background="new -3.743 -4.039 80 80"
	 xml:space="preserve">
<defs>
</defs>
<path d="M58.181,42.213H14.519l-4.69,9.38h4.242v21.106h44.558V51.593h4.242L58.181,42.213z M56.73,44.558l2.346,4.69H40.592
	l-2.345-4.69H56.73z M15.968,44.558h18.484l-2.346,4.69H13.623L15.968,44.558z M56.283,70.354H37.522v-8.207h-2.346v8.207H16.416
	V51.593h17.141l1.62-3.241v10.277h2.346V48.352l1.62,3.241h17.141V70.354z"/>
<path d="M18.761,60.974h7.035v2.345h-7.035V60.974z"/>
<path d="M18.761,65.663h7.035v2.346h-7.035V65.663z"/>
<path d="M28.142,65.663h2.345v2.346h-2.345V65.663z"/>
<path fill="#1D73F8" d="M30.934,19.071l5.416-1.38l5.415,1.379l0.425-5.814l2.876-4.914l-5.088-2.202L36.35,1.653L32.72,6.139
	l-5.087,2.202l2.876,4.914L30.934,19.071z M34.182,8.061l2.168-2.679l2.168,2.681l3.187,1.38l-1.813,3.099l-0.261,3.565l-3.28-0.835
	l-3.28,0.835l-0.261-3.566l-1.814-3.099L34.182,8.061z"/>
<path d="M12.875,21.464l1.704-2.909l-3.019-1.308l-2.18-2.695l-2.179,2.694l-3.019,1.308l1.704,2.909l0.252,3.47l3.242-0.825
	l3.244,0.826L12.875,21.464z M10.577,20.749l-0.089,1.22L9.38,21.688l-1.105,0.281l-0.09-1.22l-0.641-1.097l1.118-0.484L9.38,18.28
	l0.719,0.889l1.117,0.484L10.577,20.749z"/>
<path d="M66.813,21.464l1.705-2.909l-3.02-1.308l-2.18-2.695l-2.18,2.694l-3.019,1.308l1.705,2.909l0.251,3.47l3.242-0.825
	l3.244,0.826L66.813,21.464z M64.515,20.749l-0.089,1.22l-1.107-0.281l-1.105,0.281l-0.09-1.22l-0.641-1.097l1.118-0.484
	l0.718-0.888l0.719,0.889l1.117,0.484L64.515,20.749z"/>
<path d="M14.592,27.945c2.233,1.489,4.217,3.307,5.893,5.403l4.644,5.803l-0.96-7.683c-0.502-4.011-2.644-7.704-5.878-10.128
	l-1.123-0.842L13.73,27.37L14.592,27.945z M17.972,24.134c1.983,1.876,3.328,4.374,3.789,7.076c-1.481-1.739-3.162-3.29-5.014-4.625
	L17.972,24.134z"/>
<path d="M48.53,31.468l-0.961,7.683l4.645-5.805c1.677-2.097,3.66-3.914,5.893-5.403l0.861-0.575l-3.438-6.872l-1.123,0.844
	C51.175,23.766,49.03,27.457,48.53,31.468z M55.952,26.584c-1.852,1.335-3.533,2.884-5.014,4.625
	c0.463-2.702,1.807-5.199,3.789-7.076L55.952,26.584z"/>
<path d="M41.04,39.868h2.346v-4.914c0-5.632,1.984-11.114,5.592-15.442l-1.803-1.501c-3.956,4.748-6.135,10.765-6.135,16.943V39.868
	z"/>
<path d="M49.248,14.071h2.345v2.345h-2.345V14.071z"/>
<path d="M52.766,9.38h2.345v2.345h-2.345V9.38z"/>
<path d="M29.314,39.868h2.345v-4.914c0-6.179-2.178-12.196-6.133-16.943l-1.803,1.501c3.606,4.328,5.591,9.811,5.591,15.442V39.868z
	"/>
<path d="M21.106,14.071h2.345v2.345h-2.345V14.071z"/>
<path d="M17.588,9.38h2.345v2.345h-2.345V9.38z"/>
<path d="M35.177,19.934h2.346v2.345h-2.346V19.934z"/>
<path d="M35.177,24.624h2.346v15.244h-2.346V24.624z"/>
<path fill="#1D73F8" d="M68.009,31.659h2.345v2.345h-2.345V31.659z"/>
<path fill="#1D73F8" d="M68.009,36.35h2.345v2.346h-2.345V36.35z"/>
<path fill="#1D73F8" d="M70.354,34.004h2.346v2.345h-2.346V34.004z"/>
<path fill="#1D73F8" d="M65.663,34.004h2.346v2.345h-2.346V34.004z"/>
<path fill="#1D73F8" d="M64.491,0h2.345v2.345h-2.345V0z"/>
<path fill="#1D73F8" d="M64.491,4.69h2.345v2.345h-2.345V4.69z"/>
<path fill="#1D73F8" d="M66.836,2.345h2.346V4.69h-2.346V2.345z"/>
<path fill="#1D73F8" d="M62.146,2.345h2.345V4.69h-2.345V2.345z"/>
<path fill="#1D73F8" d="M2.345,36.35H4.69v2.346H2.345V36.35z"/>
<path fill="#1D73F8" d="M2.345,41.04H4.69v2.345H2.345V41.04z"/>
<path fill="#1D73F8" d="M4.69,38.695h2.345v2.345H4.69V38.695z"/>
<path fill="#1D73F8" d="M0,38.695h2.345v2.345H0V38.695z"/>
<path fill="#1D73F8" d="M2.345,0H4.69v2.345H2.345V0z"/>
<path fill="#1D73F8" d="M2.345,4.69H4.69v2.345H2.345V4.69z"/>
<path fill="#1D73F8" d="M4.69,2.345h2.345V4.69H4.69V2.345z"/>
<path fill="#1D73F8" d="M0,2.345h2.345V4.69H0V2.345z"/>
</svg>
