<?xml version="1.0" encoding="utf-8"?>
<!-- Generator: Adobe Illustrator 15.0.0, SVG Export Plug-In  -->
<!DOCTYPE svg PUBLIC "-//W3C//DTD SVG 1.1//EN" "http://www.w3.org/Graphics/SVG/1.1/DTD/svg11.dtd" [
	<!ENTITY ns_flows "http://ns.adobe.com/Flows/1.0/">
]>
<svg version="1.1"
	 xmlns="http://www.w3.org/2000/svg" xmlns:xlink="http://www.w3.org/1999/xlink" xmlns:a="http://ns.adobe.com/AdobeSVGViewerExtensions/3.0/"
	 x="0px" y="0px" width="80px" height="80px" viewBox="-1.17 -1.055 80 80" enable-background="new -1.17 -1.055 80 80"
	 xml:space="preserve">
<defs>
</defs>
<path id="cW8kClqIG_5_" fill="#1D73F8" d="M29.489,12.931l0.227,0.035l0.222,0.048l0.218,0.063l0.21,0.075l0.206,0.087l0.199,0.099
	l0.193,0.111l0.184,0.12l0.177,0.132l0.167,0.142l0.161,0.15l0.15,0.161l0.141,0.168l0.132,0.177l0.122,0.184l0.109,0.193
	l0.098,0.198l0.088,0.206l0.075,0.211l0.063,0.218l0.048,0.221l0.035,0.227l0.021,0.231l0.007,0.236l-0.007,0.234l-0.021,0.231
	l-0.035,0.227l-0.048,0.224l-0.063,0.216l-0.075,0.211l-0.088,0.206l-0.098,0.2l-0.109,0.191l-0.122,0.184l-0.132,0.177
	l-0.141,0.169l-0.15,0.159l-0.161,0.152l-0.167,0.142l-0.177,0.13l-0.184,0.122l-0.193,0.109l-0.199,0.1l-0.206,0.086l-0.21,0.075
	l-0.218,0.063l-0.222,0.048l-0.227,0.036l-0.231,0.023l-0.234,0.008l-0.235-0.008l-0.231-0.023l-0.227-0.036l-0.221-0.048
	l-0.218-0.063l-0.211-0.075l-0.206-0.086l-0.199-0.1l-0.192-0.109L26.9,19.674l-0.177-0.13l-0.168-0.142l-0.16-0.152l-0.15-0.159
	l-0.141-0.169l-0.133-0.177l-0.122-0.184L25.74,18.37l-0.099-0.2l-0.087-0.206l-0.075-0.211l-0.062-0.216l-0.048-0.224l-0.036-0.227
	l-0.021-0.231l-0.007-0.234l0.007-0.236l0.021-0.231l0.036-0.227l0.048-0.221l0.062-0.218l0.075-0.211l0.087-0.206l0.099-0.198
	l0.108-0.193l0.122-0.184l0.133-0.177l0.141-0.168l0.15-0.161l0.16-0.15l0.168-0.142l0.177-0.132l0.184-0.12l0.192-0.111
	l0.199-0.099l0.206-0.087l0.211-0.075l0.218-0.063l0.221-0.048l0.227-0.035l0.231-0.021l0.235-0.007l0.234,0.007L29.489,12.931z
	 M28.542,15.479l-0.21,0.114l-0.184,0.151l-0.153,0.185l-0.114,0.211l-0.072,0.232l-0.025,0.25l0.025,0.248l0.072,0.233l0.114,0.21
	l0.153,0.184l0.184,0.152l0.21,0.114l0.232,0.074l0.25,0.024l0.249-0.024l0.233-0.074l0.21-0.114l0.184-0.152l0.152-0.184
	l0.114-0.21l0.072-0.233l0.024-0.248l-0.024-0.25l-0.072-0.232l-0.114-0.211L29.9,15.745l-0.184-0.151l-0.21-0.114l-0.233-0.071
	l-0.249-0.025l-0.25,0.025L28.542,15.479z"/>
<path id="cW8kClqIG_4_" fill="#1D73F8" fill-opacity="0" stroke="#000000" stroke-opacity="0" d="M29.489,12.931l0.227,0.035
	l0.222,0.048l0.218,0.063l0.21,0.075l0.206,0.087l0.199,0.099l0.193,0.111l0.184,0.12l0.177,0.132l0.167,0.142l0.161,0.15
	l0.15,0.161l0.141,0.168l0.132,0.177l0.122,0.184l0.109,0.193l0.098,0.198l0.088,0.206l0.075,0.211l0.063,0.218l0.048,0.221
	l0.035,0.227l0.021,0.231l0.007,0.236l-0.007,0.234l-0.021,0.231l-0.035,0.227l-0.048,0.224l-0.063,0.216l-0.075,0.211l-0.088,0.206
	l-0.098,0.2l-0.109,0.191l-0.122,0.184l-0.132,0.177l-0.141,0.169l-0.15,0.159l-0.161,0.152l-0.167,0.142l-0.177,0.13l-0.184,0.122
	l-0.193,0.109l-0.199,0.1l-0.206,0.086l-0.21,0.075l-0.218,0.063l-0.222,0.048l-0.227,0.036l-0.231,0.023l-0.234,0.008l-0.235-0.008
	l-0.231-0.023l-0.227-0.036l-0.221-0.048l-0.218-0.063l-0.211-0.075l-0.206-0.086l-0.199-0.1l-0.192-0.109L26.9,19.674l-0.177-0.13
	l-0.168-0.142l-0.16-0.152l-0.15-0.159l-0.141-0.169l-0.133-0.177l-0.122-0.184L25.74,18.37l-0.099-0.2l-0.087-0.206l-0.075-0.211
	l-0.062-0.216l-0.048-0.224l-0.036-0.227l-0.021-0.231l-0.007-0.234l0.007-0.236l0.021-0.231l0.036-0.227l0.048-0.221l0.062-0.218
	l0.075-0.211l0.087-0.206l0.099-0.198l0.108-0.193l0.122-0.184l0.133-0.177l0.141-0.168l0.15-0.161l0.16-0.15l0.168-0.142
	l0.177-0.132l0.184-0.12l0.192-0.111l0.199-0.099l0.206-0.087l0.211-0.075l0.218-0.063l0.221-0.048l0.227-0.035l0.231-0.021
	l0.235-0.007l0.234,0.007L29.489,12.931z M28.542,15.479l-0.21,0.114l-0.184,0.151l-0.153,0.185l-0.114,0.211l-0.072,0.232
	l-0.025,0.25l0.025,0.248l0.072,0.233l0.114,0.21l0.153,0.184l0.184,0.152l0.21,0.114l0.232,0.074l0.25,0.024l0.249-0.024
	l0.233-0.074l0.21-0.114l0.184-0.152l0.152-0.184l0.114-0.21l0.072-0.233l0.024-0.248l-0.024-0.25l-0.072-0.232l-0.114-0.211
	L29.9,15.745l-0.184-0.151l-0.21-0.114l-0.233-0.071l-0.249-0.025l-0.25,0.025L28.542,15.479z"/>
<path id="c13DSHE5_5_" fill="#1D73F8" d="M50.105,12.902h2.481v7.441h-2.481V12.902z"/>
<path id="c13DSHE5_4_" fill="#1D73F8" fill-opacity="0" stroke="#000000" stroke-opacity="0" d="M50.105,12.902h2.481v7.441h-2.481
	V12.902z"/>
<path id="a2hAufRIH2_5_" fill="#1D73F8" d="M45.145,12.902h2.48v7.441h-2.48V12.902z"/>
<path id="a2hAufRIH2_4_" fill="#1D73F8" fill-opacity="0" stroke="#000000" stroke-opacity="0" d="M45.145,12.902h2.48v7.441h-2.48
	V12.902z"/>
<path id="b18tOPerrf_5_" fill="#1D73F8" d="M49.332,27.813l0.227,0.036l0.222,0.048l0.218,0.063l0.212,0.075l0.205,0.088
	l0.199,0.098l0.191,0.109l0.186,0.122l0.176,0.132l0.169,0.141l0.16,0.15l0.15,0.161l0.141,0.168l0.134,0.177l0.119,0.184
	l0.11,0.193l0.099,0.198l0.087,0.205l0.075,0.211l0.061,0.216l0.051,0.224l0.035,0.227l0.021,0.23l0.008,0.233l-0.008,0.236
	l-0.021,0.23l-0.035,0.227l-0.051,0.221l-0.061,0.218l-0.075,0.211l-0.087,0.206L52.15,33.25l-0.11,0.193l-0.119,0.185l-0.134,0.177
	l-0.141,0.168l-0.15,0.161l-0.16,0.15l-0.169,0.141l-0.176,0.133l-0.186,0.119l-0.191,0.111l-0.199,0.098l-0.205,0.088l-0.212,0.074
	l-0.218,0.063l-0.222,0.048l-0.227,0.036l-0.23,0.021l-0.235,0.007l-0.234-0.007l-0.232-0.021l-0.228-0.036l-0.222-0.048
	l-0.216-0.063l-0.21-0.074l-0.205-0.088l-0.201-0.098l-0.191-0.111l-0.184-0.119l-0.178-0.133l-0.169-0.141l-0.159-0.15
	l-0.151-0.161l-0.143-0.168l-0.13-0.177l-0.121-0.185l-0.109-0.193l-0.101-0.198l-0.086-0.206l-0.073-0.211l-0.063-0.218
	l-0.05-0.221l-0.035-0.227l-0.021-0.23l-0.008-0.236l0.008-0.233l0.021-0.23l0.035-0.227l0.05-0.224l0.063-0.216l0.073-0.211
	l0.086-0.205l0.101-0.198l0.109-0.193l0.121-0.184l0.13-0.177l0.143-0.168l0.151-0.161l0.159-0.15l0.169-0.141l0.178-0.132
	l0.184-0.122l0.191-0.109l0.201-0.098l0.205-0.088l0.21-0.075l0.216-0.063l0.222-0.048l0.228-0.036l0.232-0.021l0.234-0.007
	l0.235,0.007L49.332,27.813z M48.383,30.361l-0.21,0.114l-0.184,0.151l-0.151,0.185l-0.115,0.21l-0.072,0.232l-0.025,0.248
	l0.025,0.25l0.072,0.232l0.115,0.211l0.151,0.184l0.184,0.152l0.21,0.115l0.234,0.071l0.248,0.025l0.25-0.025l0.232-0.071
	l0.21-0.115l0.185-0.152l0.15-0.184l0.114-0.211l0.073-0.232l0.024-0.25l-0.024-0.248l-0.073-0.232l-0.114-0.21l-0.15-0.185
	l-0.185-0.151l-0.21-0.114l-0.232-0.072l-0.25-0.027l-0.248,0.027L48.383,30.361z"/>
<path id="b18tOPerrf_4_" fill="#1D73F8" fill-opacity="0" stroke="#000000" stroke-opacity="0" d="M49.332,27.813l0.227,0.036
	l0.222,0.048l0.218,0.063l0.212,0.075l0.205,0.088l0.199,0.098l0.191,0.109l0.186,0.122l0.176,0.132l0.169,0.141l0.16,0.15
	l0.15,0.161l0.141,0.168l0.134,0.177l0.119,0.184l0.11,0.193l0.099,0.198l0.087,0.205l0.075,0.211l0.061,0.216l0.051,0.224
	l0.035,0.227l0.021,0.23l0.008,0.233l-0.008,0.236l-0.021,0.23l-0.035,0.227l-0.051,0.221l-0.061,0.218l-0.075,0.211l-0.087,0.206
	L52.15,33.25l-0.11,0.193l-0.119,0.185l-0.134,0.177l-0.141,0.168l-0.15,0.161l-0.16,0.15l-0.169,0.141l-0.176,0.133l-0.186,0.119
	l-0.191,0.111l-0.199,0.098l-0.205,0.088l-0.212,0.074l-0.218,0.063l-0.222,0.048l-0.227,0.036l-0.23,0.021l-0.235,0.007
	l-0.234-0.007l-0.232-0.021l-0.228-0.036l-0.222-0.048l-0.216-0.063l-0.21-0.074l-0.205-0.088l-0.201-0.098l-0.191-0.111
	l-0.184-0.119l-0.178-0.133l-0.169-0.141l-0.159-0.15l-0.151-0.161l-0.143-0.168l-0.13-0.177l-0.121-0.185l-0.109-0.193
	l-0.101-0.198l-0.086-0.206l-0.073-0.211l-0.063-0.218l-0.05-0.221l-0.035-0.227l-0.021-0.23l-0.008-0.236l0.008-0.233l0.021-0.23
	l0.035-0.227l0.05-0.224l0.063-0.216l0.073-0.211l0.086-0.205l0.101-0.198l0.109-0.193l0.121-0.184l0.13-0.177l0.143-0.168
	l0.151-0.161l0.159-0.15l0.169-0.141l0.178-0.132l0.184-0.122l0.191-0.109l0.201-0.098l0.205-0.088l0.21-0.075l0.216-0.063
	l0.222-0.048l0.228-0.036l0.232-0.021l0.234-0.007l0.235,0.007L49.332,27.813z M48.383,30.361l-0.21,0.114l-0.184,0.151
	l-0.151,0.185l-0.115,0.21l-0.072,0.232l-0.025,0.248l0.025,0.25l0.072,0.232l0.115,0.211l0.151,0.184l0.184,0.152l0.21,0.115
	l0.234,0.071l0.248,0.025l0.25-0.025l0.232-0.071l0.21-0.115l0.185-0.152l0.15-0.184l0.114-0.211l0.073-0.232l0.024-0.25
	l-0.024-0.248l-0.073-0.232l-0.114-0.21l-0.15-0.185l-0.185-0.151l-0.21-0.114l-0.232-0.072l-0.25-0.027l-0.248,0.027L48.383,30.361
	z"/>
<path id="atcKLoWmo_5_" fill="#1D73F8" d="M25.304,27.784h2.48v7.439h-2.48V27.784z"/>
<path id="atcKLoWmo_4_" fill="#1D73F8" fill-opacity="0" stroke="#000000" stroke-opacity="0" d="M25.304,27.784h2.48v7.439h-2.48
	V27.784z"/>
<path id="c3KQprW1Z_5_" fill="#1D73F8" d="M30.263,27.784h2.48v7.439h-2.48V27.784z"/>
<path id="c3KQprW1Z_4_" fill="#1D73F8" fill-opacity="0" stroke="#000000" stroke-opacity="0" d="M30.263,27.784h2.48v7.439h-2.48
	V27.784z"/>
<path id="c4MzxRcsuJ_5_" fill="#1D73F8" d="M5.568,52.854l0.106,0.043l0.103,0.046l0.104,0.051l0.101,0.052l0.098,0.055l0.096,0.059
	l0.097,0.062l0.093,0.063l0.091,0.066l0.087,0.068l0.087,0.072l0.084,0.073l0.082,0.077l0.081,0.078l0.079,0.082l0.075,0.083
	l0.071,0.086l0.07,0.087l0.068,0.091l0.064,0.092l0.062,0.095l0.059,0.097l0.056,0.098l0.054,0.099l0.05,0.102l0.048,0.104
	l0.043,0.105l0.041,0.105l0.038,0.109l0.036,0.108l0.03,0.11l0.027,0.113L7.874,55.6l0.019,0.113l0.019,0.118l0.012,0.116
	l0.011,0.119l0.005,0.12l0.001,0.119l-0.003,0.155l-0.009,0.151l-0.016,0.148l-0.02,0.148l-0.028,0.146L7.832,57.2l-0.038,0.142
	L7.751,57.48l-0.05,0.138l-0.054,0.136l-0.059,0.133l-0.064,0.129l-0.068,0.126l-0.075,0.123l-0.077,0.12l-0.083,0.118l-0.087,0.112
	l-0.091,0.111l-0.095,0.106l-0.1,0.103l-0.102,0.1L6.64,59.13l-0.111,0.091l-0.113,0.088l-0.118,0.082l-0.12,0.079l-0.124,0.073
	l-0.127,0.068l-0.13,0.064l-0.133,0.058l-0.134,0.055l-0.137,0.05l-0.14,0.043l-0.142,0.037l-0.145,0.034l-0.146,0.027L4.674,60
	l-0.15,0.015l-0.15,0.009l-0.153,0.003l-0.154-0.003l-0.152-0.009L3.767,60l-0.148-0.021l-0.146-0.027l-0.145-0.034l-0.141-0.037
	l-0.14-0.043l-0.138-0.05l-0.135-0.055l-0.133-0.058l-0.128-0.064l-0.126-0.068L2.262,59.47l-0.12-0.079l-0.118-0.082l-0.112-0.088
	l-0.11-0.091l-0.107-0.095l-0.102-0.1l-0.1-0.103l-0.095-0.106l-0.091-0.111l-0.087-0.112l-0.082-0.118l-0.079-0.12l-0.074-0.123
	l-0.067-0.126l-0.064-0.129l-0.059-0.133L0.74,57.618l-0.05-0.138l-0.043-0.139L0.609,57.2l-0.034-0.146l-0.027-0.146l-0.021-0.148
	l-0.015-0.148l-0.009-0.151L0.5,56.306l0.001-0.119l0.005-0.12l0.011-0.119l0.013-0.116l0.018-0.118l0.02-0.113l0.025-0.115
	l0.027-0.113l0.03-0.11l0.036-0.108l0.038-0.109l0.041-0.105l0.043-0.105l0.048-0.104l0.05-0.102l0.054-0.099l0.055-0.098
	l0.059-0.097l0.063-0.095l0.064-0.092l0.067-0.091l0.07-0.087l0.072-0.086l0.075-0.083l0.078-0.082l0.079-0.078l0.084-0.077
	L1.81,53.49l0.086-0.072l0.09-0.068l0.091-0.066l0.093-0.063l0.095-0.062l0.098-0.059l0.099-0.055l0.099-0.052l0.104-0.051
	l0.104-0.046l0.105-0.043l0.107-0.04V38.944h2.481v13.871L5.568,52.854z M3.738,55.165l-0.211,0.114l-0.182,0.151l-0.152,0.183
	l-0.114,0.211l-0.073,0.231l-0.025,0.25l0.025,0.251l0.073,0.233L3.193,57l0.152,0.182l0.182,0.152l0.211,0.114l0.232,0.073
	l0.25,0.025l0.25-0.025l0.232-0.073l0.211-0.114l0.182-0.152L5.248,57l0.115-0.21l0.073-0.233l0.025-0.251l-0.025-0.25l-0.073-0.231
	l-0.115-0.211l-0.152-0.183l-0.182-0.151l-0.211-0.114l-0.232-0.074l-0.25-0.024l-0.25,0.024L3.738,55.165z"/>
<path id="c4MzxRcsuJ_4_" fill="#1D73F8" fill-opacity="0" stroke="#000000" stroke-opacity="0" d="M5.568,52.854l0.106,0.043
	l0.103,0.046l0.104,0.051l0.101,0.052l0.098,0.055l0.096,0.059l0.097,0.062l0.093,0.063l0.091,0.066l0.087,0.068l0.087,0.072
	l0.084,0.073l0.082,0.077l0.081,0.078l0.079,0.082l0.075,0.083l0.071,0.086l0.07,0.087l0.068,0.091l0.064,0.092l0.062,0.095
	l0.059,0.097l0.056,0.098l0.054,0.099l0.05,0.102l0.048,0.104l0.043,0.105l0.041,0.105l0.038,0.109l0.036,0.108l0.03,0.11
	l0.027,0.113L7.874,55.6l0.019,0.113l0.019,0.118l0.012,0.116l0.011,0.119l0.005,0.12l0.001,0.119l-0.003,0.155l-0.009,0.151
	l-0.016,0.148l-0.02,0.148l-0.028,0.146L7.832,57.2l-0.038,0.142L7.751,57.48l-0.05,0.138l-0.054,0.136l-0.059,0.133l-0.064,0.129
	l-0.068,0.126l-0.075,0.123l-0.077,0.12l-0.083,0.118l-0.087,0.112l-0.091,0.111l-0.095,0.106l-0.1,0.103l-0.102,0.1L6.64,59.13
	l-0.111,0.091l-0.113,0.088l-0.118,0.082l-0.12,0.079l-0.124,0.073l-0.127,0.068l-0.13,0.064l-0.133,0.058l-0.134,0.055l-0.137,0.05
	l-0.14,0.043l-0.142,0.037l-0.145,0.034l-0.146,0.027L4.674,60l-0.15,0.015l-0.15,0.009l-0.153,0.003l-0.154-0.003l-0.152-0.009
	L3.767,60l-0.148-0.021l-0.146-0.027l-0.145-0.034l-0.141-0.037l-0.14-0.043l-0.138-0.05l-0.135-0.055l-0.133-0.058l-0.128-0.064
	l-0.126-0.068L2.262,59.47l-0.12-0.079l-0.118-0.082l-0.112-0.088l-0.11-0.091l-0.107-0.095l-0.102-0.1l-0.1-0.103l-0.095-0.106
	l-0.091-0.111l-0.087-0.112l-0.082-0.118l-0.079-0.12l-0.074-0.123l-0.067-0.126l-0.064-0.129l-0.059-0.133L0.74,57.618l-0.05-0.138
	l-0.043-0.139L0.609,57.2l-0.034-0.146l-0.027-0.146l-0.021-0.148l-0.015-0.148l-0.009-0.151L0.5,56.306l0.001-0.119l0.005-0.12
	l0.011-0.119l0.013-0.116l0.018-0.118l0.02-0.113l0.025-0.115l0.027-0.113l0.03-0.11l0.036-0.108l0.038-0.109l0.041-0.105
	l0.043-0.105l0.048-0.104l0.05-0.102l0.054-0.099l0.055-0.098l0.059-0.097l0.063-0.095l0.064-0.092l0.067-0.091l0.07-0.087
	l0.072-0.086l0.075-0.083l0.078-0.082l0.079-0.078l0.084-0.077L1.81,53.49l0.086-0.072l0.09-0.068l0.091-0.066l0.093-0.063
	l0.095-0.062l0.098-0.059l0.099-0.055l0.099-0.052l0.104-0.051l0.104-0.046l0.105-0.043l0.107-0.04V38.944h2.481v13.871
	L5.568,52.854z M3.738,55.165l-0.211,0.114l-0.182,0.151l-0.152,0.183l-0.114,0.211l-0.073,0.231l-0.025,0.25l0.025,0.251
	l0.073,0.233L3.193,57l0.152,0.182l0.182,0.152l0.211,0.114l0.232,0.073l0.25,0.025l0.25-0.025l0.232-0.073l0.211-0.114l0.182-0.152
	L5.248,57l0.115-0.21l0.073-0.233l0.025-0.251l-0.025-0.25l-0.073-0.231l-0.115-0.211l-0.152-0.183l-0.182-0.151l-0.211-0.114
	l-0.232-0.074l-0.25-0.024l-0.25,0.024L3.738,55.165z"/>
<path id="i1znVtFlvj_5_" fill="#1D73F8" d="M15.489,46.653l0.106,0.045l0.103,0.044l0.102,0.051l0.101,0.051L16,46.9l0.097,0.059
	l0.095,0.061l0.094,0.063l0.091,0.066l0.087,0.069l0.088,0.071l0.084,0.074l0.083,0.076l0.081,0.078l0.076,0.083l0.075,0.082
	l0.073,0.086l0.07,0.089l0.068,0.089l0.064,0.092l0.062,0.094l0.059,0.098l0.056,0.099l0.054,0.098l0.049,0.102l0.048,0.104
	l0.043,0.105l0.041,0.105l0.038,0.108l0.034,0.109l0.032,0.111l0.027,0.112l0.025,0.113l0.019,0.116l0.019,0.116l0.013,0.116
	l0.009,0.12l0.007,0.119l0.001,0.12l-0.003,0.154l-0.009,0.151l-0.016,0.148l-0.021,0.148l-0.027,0.146l-0.032,0.145l-0.038,0.142
	l-0.045,0.14l-0.048,0.138l-0.054,0.135l-0.059,0.133l-0.063,0.129l-0.07,0.127l-0.074,0.123l-0.076,0.119l-0.084,0.118
	l-0.086,0.114l-0.091,0.109l-0.095,0.107l-0.1,0.104l-0.102,0.099l-0.107,0.095l-0.111,0.091l-0.114,0.087l-0.116,0.083l-0.12,0.078
	l-0.125,0.073l-0.125,0.067l-0.13,0.064l-0.132,0.06l-0.134,0.054l-0.138,0.05l-0.14,0.043l-0.143,0.037l-0.143,0.034l-0.146,0.027
	L14.596,53.8l-0.15,0.014l-0.152,0.009l-0.152,0.004l-0.153-0.004l-0.151-0.009l-0.15-0.014l-0.146-0.021l-0.147-0.027l-0.145-0.034
	l-0.141-0.037l-0.141-0.043l-0.136-0.05l-0.135-0.054l-0.132-0.06l-0.129-0.064l-0.127-0.067l-0.124-0.073l-0.119-0.078
	l-0.118-0.083l-0.114-0.087l-0.11-0.091l-0.107-0.095l-0.103-0.099l-0.099-0.104l-0.095-0.107l-0.091-0.109l-0.087-0.114
	l-0.083-0.118l-0.079-0.119l-0.073-0.123l-0.068-0.127l-0.063-0.129l-0.06-0.133l-0.055-0.135l-0.048-0.138l-0.043-0.14
	l-0.039-0.142l-0.032-0.145l-0.027-0.146l-0.021-0.148l-0.014-0.148l-0.009-0.151l-0.004-0.154l0.001-0.12l0.006-0.119l0.011-0.12
	l0.013-0.116l0.016-0.116l0.021-0.116l0.023-0.113l0.028-0.112l0.031-0.111l0.034-0.109l0.038-0.108l0.041-0.105l0.045-0.105
	l0.046-0.104l0.052-0.102l0.051-0.098l0.058-0.099l0.059-0.098l0.061-0.094l0.066-0.092l0.067-0.089l0.071-0.089l0.071-0.086
	l0.075-0.082l0.079-0.083l0.079-0.078l0.083-0.076l0.085-0.074l0.086-0.071l0.089-0.069l0.091-0.066l0.093-0.063l0.095-0.061
	l0.098-0.059l0.099-0.057l0.1-0.051l0.102-0.051l0.105-0.044l0.105-0.045l0.107-0.039v-6.43h2.48v6.43L15.489,46.653z M13.66,48.964
	l-0.211,0.114l-0.185,0.152l-0.149,0.184l-0.116,0.21l-0.072,0.232l-0.025,0.249l0.025,0.251l0.072,0.231l0.116,0.211l0.149,0.184
	l0.185,0.15l0.211,0.115l0.232,0.073l0.25,0.024l0.249-0.024l0.234-0.073l0.209-0.115l0.184-0.15l0.152-0.184l0.114-0.211
	l0.073-0.231l0.025-0.251l-0.025-0.249l-0.073-0.232l-0.114-0.21l-0.152-0.184l-0.184-0.152l-0.209-0.114l-0.234-0.073l-0.249-0.024
	l-0.25,0.024L13.66,48.964z"/>
<path id="i1znVtFlvj_4_" fill="#1D73F8" fill-opacity="0" stroke="#000000" stroke-opacity="0" d="M15.489,46.653l0.106,0.045
	l0.103,0.044l0.102,0.051l0.101,0.051L16,46.9l0.097,0.059l0.095,0.061l0.094,0.063l0.091,0.066l0.087,0.069l0.088,0.071
	l0.084,0.074l0.083,0.076l0.081,0.078l0.076,0.083l0.075,0.082l0.073,0.086l0.07,0.089l0.068,0.089l0.064,0.092l0.062,0.094
	l0.059,0.098l0.056,0.099l0.054,0.098l0.049,0.102l0.048,0.104l0.043,0.105l0.041,0.105l0.038,0.108l0.034,0.109l0.032,0.111
	l0.027,0.112l0.025,0.113l0.019,0.116l0.019,0.116l0.013,0.116l0.009,0.12l0.007,0.119l0.001,0.12l-0.003,0.154l-0.009,0.151
	l-0.016,0.148l-0.021,0.148l-0.027,0.146l-0.032,0.145l-0.038,0.142l-0.045,0.14l-0.048,0.138l-0.054,0.135l-0.059,0.133
	l-0.063,0.129l-0.07,0.127l-0.074,0.123l-0.076,0.119l-0.084,0.118l-0.086,0.114l-0.091,0.109l-0.095,0.107l-0.1,0.104l-0.102,0.099
	l-0.107,0.095l-0.111,0.091l-0.114,0.087l-0.116,0.083l-0.12,0.078l-0.125,0.073l-0.125,0.067l-0.13,0.064l-0.132,0.06l-0.134,0.054
	l-0.138,0.05l-0.14,0.043l-0.143,0.037l-0.143,0.034l-0.146,0.027L14.596,53.8l-0.15,0.014l-0.152,0.009l-0.152,0.004l-0.153-0.004
	l-0.151-0.009l-0.15-0.014l-0.146-0.021l-0.147-0.027l-0.145-0.034l-0.141-0.037l-0.141-0.043l-0.136-0.05l-0.135-0.054l-0.132-0.06
	l-0.129-0.064l-0.127-0.067l-0.124-0.073l-0.119-0.078l-0.118-0.083l-0.114-0.087l-0.11-0.091l-0.107-0.095l-0.103-0.099
	l-0.099-0.104l-0.095-0.107l-0.091-0.109l-0.087-0.114l-0.083-0.118l-0.079-0.119l-0.073-0.123l-0.068-0.127l-0.063-0.129
	l-0.06-0.133l-0.055-0.135l-0.048-0.138l-0.043-0.14l-0.039-0.142l-0.032-0.145l-0.027-0.146l-0.021-0.148l-0.014-0.148
	l-0.009-0.151l-0.004-0.154l0.001-0.12l0.006-0.119l0.011-0.12l0.013-0.116l0.016-0.116l0.021-0.116l0.023-0.113l0.028-0.112
	l0.031-0.111l0.034-0.109l0.038-0.108l0.041-0.105l0.045-0.105l0.046-0.104l0.052-0.102l0.051-0.098l0.058-0.099l0.059-0.098
	l0.061-0.094l0.066-0.092l0.067-0.089l0.071-0.089l0.071-0.086l0.075-0.082l0.079-0.083l0.079-0.078l0.083-0.076l0.085-0.074
	l0.086-0.071l0.089-0.069l0.091-0.066l0.093-0.063l0.095-0.061l0.098-0.059l0.099-0.057l0.1-0.051l0.102-0.051l0.105-0.044
	l0.105-0.045l0.107-0.039v-6.43h2.48v6.43L15.489,46.653z M13.66,48.964l-0.211,0.114l-0.185,0.152l-0.149,0.184l-0.116,0.21
	l-0.072,0.232l-0.025,0.249l0.025,0.251l0.072,0.231l0.116,0.211l0.149,0.184l0.185,0.15l0.211,0.115l0.232,0.073l0.25,0.024
	l0.249-0.024l0.234-0.073l0.209-0.115l0.184-0.15l0.152-0.184l0.114-0.211l0.073-0.231l0.025-0.251l-0.025-0.249l-0.073-0.232
	l-0.114-0.21l-0.152-0.184l-0.184-0.152l-0.209-0.114l-0.234-0.073l-0.249-0.024l-0.25,0.024L13.66,48.964z"/>
<path id="extrgBDTy_5_" d="M29.877,0.521L30.3,0.546l0.421,0.036l0.419,0.047l0.416,0.055l0.415,0.066l0.411,0.077l0.409,0.085
	l0.404,0.095l0.403,0.105l0.4,0.115l0.395,0.123l0.391,0.132l0.388,0.143l0.385,0.151l0.38,0.161l0.375,0.17l0.372,0.177
	l0.369,0.188l0.362,0.197l0.358,0.204l0.354,0.214l0.347,0.222l0.343,0.23l0.338,0.238l0.332,0.247l0.325,0.256l0.322,0.263
	l0.314,0.27l0.308,0.279l0.304,0.288l0.294,0.292l0.29,0.302l0.284,0.309l0.275,0.318l0.271,0.323l0.262,0.333l0.256,0.338
	l0.247,0.346h8.109l0.255,0.005l0.252,0.015l0.251,0.026l0.246,0.034l0.244,0.045l0.24,0.055l0.236,0.063l0.234,0.073l0.228,0.083
	l0.224,0.089l0.222,0.099l0.214,0.107l0.211,0.114l0.207,0.122l0.201,0.13l0.194,0.138l0.189,0.145l0.185,0.152l0.179,0.159
	l0.172,0.164l0.164,0.172l0.159,0.179l0.151,0.184l0.146,0.189l0.137,0.195l0.129,0.2l0.123,0.208l0.114,0.21l0.108,0.214
	l0.098,0.22l0.089,0.226l0.083,0.228l0.07,0.233l0.064,0.237l0.054,0.24l0.047,0.245l0.034,0.247l0.024,0.25l0.017,0.252
	l0.005,0.255v6.201h3.721l0.051-0.002l0.051-0.003l0.051-0.005l0.049-0.005l0.049-0.009l0.047-0.012l0.048-0.013l0.047-0.014
	l0.047-0.016l0.044-0.018l0.043-0.02l0.043-0.021l0.043-0.023l0.041-0.025l0.042-0.025l0.036-0.027l0.04-0.031l0.035-0.03
	l0.036-0.031l0.034-0.034l0.034-0.034l0.032-0.036l0.03-0.038l0.028-0.037l0.027-0.04l0.026-0.04l0.022-0.041l0.024-0.043
	l0.021-0.043l0.019-0.044l0.019-0.044l0.017-0.044l0.016-0.047l0.012-0.048l0.011-0.048l0.01-0.048l0.007-0.051l0.005-0.05
	l0.002-0.05l0.003-0.05v-1.468l-0.107-0.04l-0.105-0.044l-0.104-0.046l-0.104-0.048l-0.1-0.052l-0.099-0.056l-0.098-0.059
	l-0.096-0.061l-0.093-0.063L61.512,17.1l-0.09-0.07l-0.086-0.071l-0.086-0.073l-0.081-0.077l-0.08-0.079l-0.078-0.082l-0.074-0.083
	l-0.072-0.085l-0.07-0.089l-0.066-0.089l-0.064-0.093l-0.063-0.093l-0.06-0.097l-0.057-0.098l-0.053-0.1l-0.049-0.1l-0.049-0.104
	l-0.045-0.105l-0.039-0.107l-0.037-0.107l-0.036-0.109l-0.031-0.112l-0.026-0.113l-0.024-0.112l-0.02-0.117l-0.019-0.116
	l-0.012-0.116l-0.011-0.12l-0.005-0.12l-0.003-0.12l0.004-0.154l0.008-0.152l0.016-0.15l0.021-0.147l0.026-0.146l0.033-0.145
	l0.038-0.141l0.043-0.142l0.051-0.135l0.054-0.136l0.059-0.132l0.064-0.129l0.068-0.127l0.072-0.124l0.079-0.12l0.082-0.118
	l0.087-0.114l0.092-0.109l0.095-0.106l0.099-0.104l0.104-0.098l0.107-0.095l0.11-0.091l0.112-0.087l0.117-0.082l0.121-0.079
	l0.123-0.073l0.127-0.068l0.129-0.063l0.132-0.059l0.136-0.056l0.138-0.048l0.14-0.043l0.141-0.039l0.145-0.032l0.146-0.027
	l0.148-0.021l0.148-0.014l0.152-0.009l0.153-0.004l0.154,0.004l0.15,0.009l0.148,0.014l0.148,0.021l0.147,0.027l0.146,0.032
	l0.141,0.039l0.14,0.043l0.137,0.048l0.134,0.056l0.133,0.059l0.13,0.063l0.127,0.068l0.124,0.073l0.119,0.079l0.118,0.082
	l0.112,0.087l0.111,0.091l0.107,0.095l0.102,0.098l0.101,0.104l0.094,0.106l0.092,0.109l0.087,0.114l0.083,0.118l0.076,0.12
	l0.075,0.124l0.067,0.127l0.064,0.129l0.06,0.132l0.054,0.136l0.05,0.135l0.042,0.142l0.038,0.141l0.032,0.145l0.029,0.146
	l0.019,0.147l0.017,0.15l0.01,0.152l0.003,0.154l-0.002,0.12l-0.006,0.12l-0.011,0.12l-0.012,0.116l-0.018,0.116l-0.02,0.117
	l-0.026,0.112l-0.026,0.113l-0.031,0.112l-0.034,0.109l-0.038,0.107l-0.041,0.107l-0.043,0.105l-0.048,0.104l-0.051,0.1l-0.054,0.1
	l-0.055,0.098l-0.059,0.097l-0.063,0.093l-0.064,0.093L66.7,16.39l-0.069,0.089l-0.072,0.085l-0.075,0.083l-0.078,0.082
	l-0.081,0.079l-0.081,0.077l-0.084,0.073l-0.088,0.071l-0.087,0.07l-0.092,0.066l-0.094,0.063l-0.096,0.061l-0.097,0.059
	l-0.099,0.056l-0.1,0.052l-0.104,0.048l-0.104,0.046l-0.105,0.044l-0.107,0.04v1.468l-0.004,0.152l-0.008,0.151l-0.017,0.15
	l-0.021,0.148l-0.026,0.146l-0.033,0.143l-0.038,0.143l-0.043,0.14l-0.051,0.138l-0.052,0.134l-0.06,0.132l-0.064,0.13l-0.067,0.125
	l-0.075,0.124l-0.078,0.122l-0.081,0.116l-0.088,0.114l-0.092,0.111l-0.095,0.105l-0.1,0.104l-0.102,0.1l-0.108,0.095l-0.11,0.091
	l-0.112,0.085l-0.117,0.084l-0.12,0.077l-0.123,0.073l-0.128,0.07l-0.13,0.064l-0.132,0.058l-0.135,0.054l-0.138,0.048l-0.14,0.044
	l-0.141,0.038l-0.145,0.032l-0.146,0.027l-0.148,0.021l-0.15,0.016l-0.15,0.008l-0.153,0.004h-3.721v4.961h11.162l0.05-0.002
	l0.052-0.003l0.051-0.005l0.047-0.007l0.049-0.009l0.048-0.011l0.049-0.012l0.046-0.015l0.045-0.016l0.047-0.018l0.043-0.02
	l0.043-0.021l0.043-0.023l0.04-0.025l0.04-0.025l0.04-0.028l0.038-0.029l0.036-0.03l0.036-0.032l0.033-0.032l0.034-0.034l0.03-0.036
	l0.03-0.037l0.031-0.038l0.026-0.04l0.027-0.04l0.022-0.041l0.023-0.043l0.021-0.043l0.02-0.044l0.019-0.045l0.016-0.045
	l0.015-0.046l0.014-0.048l0.011-0.048l0.01-0.048l0.006-0.049l0.005-0.051l0.003-0.05l0.002-0.05V7.712l-0.107-0.04L69.736,7.63
	L69.63,7.584l-0.102-0.05l-0.1-0.052l-0.099-0.056l-0.099-0.059l-0.095-0.061l-0.093-0.062l-0.092-0.066l-0.089-0.07l-0.086-0.071
	l-0.086-0.074l-0.081-0.077l-0.079-0.079l-0.079-0.082l-0.074-0.082l-0.072-0.086L68.234,6.47l-0.065-0.091l-0.066-0.091
	l-0.06-0.094l-0.06-0.097l-0.057-0.099L67.874,5.9l-0.052-0.102l-0.046-0.104L67.73,5.589l-0.04-0.105l-0.038-0.109l-0.033-0.109
	l-0.031-0.111L67.56,5.042l-0.024-0.114l-0.021-0.115l-0.016-0.118L67.486,4.58l-0.01-0.12L67.47,4.34l-0.002-0.12l0.003-0.154
	l0.01-0.152l0.015-0.148l0.021-0.148l0.026-0.146l0.032-0.145l0.039-0.141l0.043-0.14l0.048-0.138l0.056-0.135l0.06-0.133
	l0.063-0.128l0.068-0.126l0.073-0.124l0.078-0.12l0.082-0.118l0.088-0.113l0.092-0.11l0.094-0.107l0.099-0.102l0.104-0.101
	l0.107-0.095l0.108-0.091l0.115-0.087l0.118-0.082l0.119-0.079l0.124-0.074l0.127-0.067l0.129-0.064l0.132-0.059l0.136-0.054
	l0.135-0.05l0.142-0.043l0.142-0.038l0.145-0.034l0.146-0.027l0.146-0.021l0.15-0.015l0.152-0.008L71.189,0.5l0.151,0.004
	l0.152,0.008l0.149,0.015l0.149,0.021l0.146,0.027l0.143,0.034l0.143,0.038l0.14,0.043L72.5,0.74l0.135,0.054l0.132,0.059
	l0.13,0.064l0.125,0.067l0.125,0.074l0.12,0.079l0.115,0.082l0.115,0.087l0.11,0.091l0.107,0.095l0.103,0.101l0.1,0.102l0.095,0.107
	l0.092,0.11l0.086,0.113l0.083,0.118l0.077,0.12l0.072,0.124l0.07,0.126l0.064,0.128l0.059,0.133l0.054,0.135l0.049,0.138
	l0.045,0.14L74.8,3.327l0.032,0.145l0.026,0.146l0.021,0.148l0.017,0.148l0.009,0.152l0.004,0.154l-0.002,0.12l-0.007,0.12
	l-0.01,0.12l-0.012,0.116l-0.019,0.118l-0.02,0.115l-0.025,0.114L74.79,5.155l-0.031,0.111l-0.035,0.109l-0.037,0.109l-0.041,0.105
	l-0.043,0.105l-0.048,0.104L74.503,5.9L74.45,5.999l-0.055,0.099l-0.06,0.097l-0.063,0.094l-0.064,0.091L74.141,6.47l-0.069,0.088
	l-0.073,0.086l-0.075,0.082l-0.077,0.082l-0.081,0.079l-0.082,0.077L73.6,7.037l-0.089,0.071l-0.087,0.07l-0.091,0.066l-0.095,0.062
	l-0.095,0.061l-0.097,0.059l-0.099,0.056l-0.103,0.052l-0.101,0.05L72.641,7.63l-0.105,0.043l-0.107,0.04v18.832l-0.003,0.152
	l-0.009,0.151l-0.016,0.151l-0.021,0.148l-0.027,0.146l-0.032,0.143l-0.037,0.143l-0.045,0.14l-0.049,0.137l-0.054,0.134
	l-0.058,0.133l-0.064,0.128l-0.07,0.127l-0.073,0.124l-0.077,0.121l-0.084,0.116l-0.086,0.114l-0.091,0.111l-0.095,0.106l-0.1,0.104
	l-0.103,0.098l-0.107,0.097l-0.11,0.091l-0.112,0.085l-0.118,0.083l-0.12,0.078l-0.123,0.073l-0.127,0.07l-0.13,0.064l-0.133,0.059
	l-0.134,0.054l-0.138,0.048l-0.14,0.044L69.6,30.155l-0.144,0.032l-0.146,0.027l-0.148,0.021l-0.15,0.016l-0.151,0.009l-0.152,0.002
	H57.546v12.28l0.143,0.084l0.144,0.086l0.142,0.087l0.14,0.089l0.139,0.089l0.14,0.091l0.138,0.093l0.135,0.094l0.137,0.095
	l0.136,0.097l0.134,0.096l0.133,0.099l0.132,0.1l0.132,0.1l0.129,0.103l0.13,0.103l0.127,0.106l0.128,0.105l0.127,0.105l0.124,0.108
	l0.124,0.109l0.124,0.111l0.122,0.11l0.12,0.113l0.119,0.113l0.12,0.115l0.119,0.116l0.115,0.118l0.116,0.117l0.114,0.118
	l0.112,0.121l0.113,0.122l0.11,0.122l0.108,0.124l0.109,0.124l0.109,0.127l0.105,0.126l0.105,0.127l0.104,0.129l0.104,0.13v-6.908
	l-0.107-0.041l-0.105-0.043l-0.104-0.046l-0.104-0.05l-0.1-0.052l-0.099-0.055l-0.098-0.058l-0.096-0.061l-0.093-0.064l-0.091-0.066
	l-0.09-0.068l-0.086-0.071l-0.086-0.075l-0.081-0.076l-0.08-0.079l-0.078-0.081l-0.074-0.084l-0.072-0.086l-0.07-0.087l-0.066-0.089
	l-0.064-0.093l-0.063-0.095l-0.06-0.095l-0.057-0.099l-0.053-0.1l-0.049-0.102l-0.049-0.104l-0.045-0.104l-0.039-0.107l-0.037-0.107
	l-0.036-0.111l-0.031-0.11l-0.026-0.113l-0.024-0.115l-0.02-0.114l-0.019-0.117l-0.012-0.118l-0.011-0.118l-0.005-0.12l-0.003-0.122
	l0.004-0.152l0.008-0.152l0.016-0.15l0.021-0.148l0.026-0.146l0.033-0.143l0.038-0.143l0.043-0.14l0.051-0.137l0.054-0.134
	l0.059-0.132l0.064-0.13l0.068-0.125l0.072-0.124l0.079-0.122l0.082-0.116l0.087-0.114l0.092-0.111l0.095-0.105l0.099-0.104
	l0.104-0.098l0.107-0.097l0.11-0.091l0.112-0.085l0.117-0.082l0.121-0.079l0.123-0.073l0.127-0.07l0.129-0.064l0.132-0.059
	l0.136-0.054l0.138-0.048l0.14-0.044l0.141-0.038l0.145-0.032l0.146-0.027l0.148-0.021l0.148-0.016l0.152-0.009l0.153-0.003
	l0.154,0.003l0.15,0.009l0.148,0.016l0.148,0.021l0.147,0.027l0.146,0.032l0.141,0.038l0.14,0.044l0.137,0.048l0.134,0.054
	l0.133,0.059l0.13,0.064l0.127,0.07l0.124,0.073l0.119,0.079l0.118,0.082l0.112,0.085l0.111,0.091l0.107,0.097l0.102,0.098
	l0.101,0.104l0.094,0.105l0.092,0.111l0.087,0.114l0.083,0.116l0.076,0.122l0.075,0.124l0.067,0.125l0.064,0.13l0.06,0.132
	l0.054,0.134l0.05,0.137l0.042,0.14l0.038,0.143l0.032,0.143l0.029,0.146l0.019,0.148l0.017,0.15l0.01,0.152l0.003,0.152
	l-0.002,0.122l-0.006,0.12l-0.011,0.118l-0.012,0.118l-0.018,0.117l-0.02,0.114l-0.026,0.115l-0.026,0.113l-0.031,0.11l-0.034,0.111
	l-0.038,0.107l-0.041,0.107l-0.043,0.104l-0.048,0.104l-0.051,0.102l-0.054,0.1l-0.055,0.099l-0.059,0.095l-0.063,0.095
	l-0.064,0.093L66.7,38.713l-0.069,0.087l-0.072,0.086l-0.075,0.084l-0.078,0.081l-0.081,0.079l-0.081,0.076l-0.084,0.075
	l-0.088,0.071l-0.087,0.068l-0.092,0.066l-0.094,0.064l-0.096,0.061l-0.097,0.058l-0.099,0.055l-0.1,0.052l-0.104,0.05l-0.104,0.046
	l-0.105,0.043l-0.107,0.041v11.24l0.036,0.092l0.035,0.092l0.036,0.094l0.034,0.093l0.035,0.093l0.033,0.095l0.034,0.093
	l0.033,0.096l0.032,0.092l0.032,0.095l0.029,0.095l0.032,0.096l0.03,0.095l0.031,0.096l0.028,0.096l0.028,0.095l0.029,0.096
	l0.028,0.096l0.026,0.097l0.027,0.097l0.024,0.1l0.027,0.095l0.025,0.097l0.024,0.1l0.023,0.098l0.023,0.099l0.023,0.098
	l0.021,0.099l0.021,0.098l0.021,0.1l0.021,0.1l0.021,0.098l0.017,0.1l0.021,0.102l0.018,0.1l0.018,0.1l0.017,0.101l0.016,0.102
	l0.017,0.101l0.014,0.102h0.01h0.006h0.011l0.008-0.002h0.006h0.009h0.011h0.009h0.011h0.004h0.011h0.005h0.009h0.006h0.009h0.011
	h0.009h0.009h0.02h0.024l0.172,0.002l0.172,0.003l0.17,0.008l0.17,0.009l0.17,0.011l0.168,0.014l0.168,0.017l0.166,0.02l0.166,0.022
	l0.167,0.022l0.164,0.026l0.164,0.029l0.162,0.032l0.164,0.033l0.16,0.036l0.161,0.038l0.158,0.041l0.159,0.043l0.157,0.044
	l0.158,0.046l0.154,0.051l0.154,0.052l0.153,0.054l0.154,0.058l0.151,0.056l0.15,0.062l0.149,0.063l0.148,0.064l0.147,0.068
	l0.146,0.068l0.146,0.07l0.145,0.073l0.144,0.075l0.141,0.077l0.14,0.079l0.14,0.08l0.138,0.082l0.135,0.085l0.136,0.087
	l0.134,0.088v-9.558l-0.107-0.04l-0.104-0.042l-0.105-0.047l-0.103-0.05l-0.1-0.052l-0.1-0.056l-0.097-0.057l-0.095-0.062
	l-0.093-0.063l-0.091-0.066l-0.09-0.069l-0.086-0.071l-0.086-0.074l-0.082-0.076l-0.079-0.079l-0.078-0.08l-0.075-0.085
	l-0.073-0.085l-0.069-0.088l-0.065-0.09l-0.067-0.093l-0.061-0.095l-0.059-0.095l-0.058-0.098l-0.052-0.101l-0.052-0.101
	l-0.046-0.104l-0.045-0.104l-0.041-0.107l-0.038-0.108l-0.034-0.109l-0.03-0.11l-0.028-0.113l-0.022-0.114l-0.021-0.114
	l-0.017-0.116l-0.015-0.117l-0.009-0.118l-0.006-0.12l-0.001-0.122l0.004-0.151l0.008-0.152l0.016-0.149l0.021-0.148l0.025-0.146
	l0.032-0.144l0.04-0.143l0.043-0.14l0.048-0.138l0.056-0.134l0.059-0.132l0.064-0.131l0.067-0.126l0.074-0.124l0.079-0.119
	l0.081-0.117l0.088-0.114l0.092-0.11l0.095-0.107l0.098-0.103l0.104-0.1l0.106-0.095l0.109-0.091l0.113-0.086l0.118-0.084
	l0.121-0.076l0.122-0.074l0.127-0.069l0.129-0.064l0.132-0.059l0.137-0.054l0.135-0.049l0.143-0.044l0.141-0.037l0.145-0.032
	l0.146-0.027l0.146-0.021l0.15-0.016l0.152-0.01l0.153-0.003l0.151,0.003l0.151,0.01l0.15,0.016l0.148,0.021l0.146,0.027
	l0.144,0.032l0.144,0.037l0.139,0.044l0.137,0.049l0.135,0.054l0.132,0.059l0.131,0.064l0.125,0.069l0.126,0.074l0.119,0.076
	l0.116,0.084l0.114,0.086l0.111,0.091l0.106,0.095l0.102,0.1l0.1,0.103l0.096,0.107l0.091,0.11l0.086,0.114l0.084,0.117l0.077,0.119
	l0.073,0.124l0.069,0.126l0.064,0.131l0.06,0.132l0.054,0.134l0.048,0.138l0.044,0.14l0.038,0.143l0.032,0.144l0.026,0.146
	l0.021,0.148l0.017,0.149l0.009,0.152l0.004,0.151l-0.002,0.122l-0.008,0.12l-0.009,0.118l-0.013,0.117l-0.018,0.116l-0.02,0.114
	l-0.025,0.114L77.27,44.84l-0.032,0.11l-0.033,0.109l-0.038,0.108l-0.042,0.107l-0.044,0.104l-0.046,0.104l-0.051,0.101
	l-0.054,0.101l-0.056,0.098l-0.058,0.095l-0.063,0.095l-0.063,0.093l-0.069,0.09l-0.068,0.088l-0.074,0.085l-0.075,0.085
	l-0.076,0.08l-0.081,0.079l-0.081,0.076l-0.085,0.074l-0.087,0.071l-0.09,0.069l-0.089,0.066l-0.096,0.063l-0.095,0.062
	l-0.097,0.057l-0.098,0.056l-0.102,0.052l-0.103,0.05l-0.103,0.047l-0.105,0.042l-0.107,0.04v11.832l0.113,0.145l0.113,0.146
	l0.11,0.148l0.107,0.15l0.105,0.151l0.104,0.156l0.1,0.155l0.098,0.157l0.096,0.159l0.093,0.161l0.089,0.162l0.088,0.164
	l0.085,0.167l0.083,0.165l0.078,0.171l0.077,0.169l0.074,0.172l0.072,0.173l0.067,0.175l0.064,0.178l0.063,0.177l0.062,0.179
	l0.057,0.181l0.054,0.183l0.051,0.183l0.046,0.184l0.044,0.184l0.043,0.188l0.038,0.188l0.036,0.188l0.03,0.189l0.029,0.191
	l0.025,0.193l0.021,0.191l0.021,0.194l0.014,0.195l0.013,0.194l0.009,0.196l0.006,0.198l0.002,0.198l-0.011,0.459l-0.027,0.455
	l-0.047,0.45l-0.063,0.444l-0.08,0.438l-0.098,0.432l-0.115,0.426l-0.13,0.42l-0.146,0.411l-0.163,0.405l-0.176,0.396l-0.193,0.39
	l-0.206,0.379l-0.222,0.369l-0.233,0.361l-0.247,0.352l-0.261,0.342l-0.273,0.33l-0.286,0.32l-0.297,0.31l-0.309,0.296l-0.32,0.286
	l-0.331,0.274l-0.34,0.26l-0.353,0.247l-0.361,0.234l-0.369,0.221l-0.38,0.205l-0.39,0.194l-0.395,0.177l-0.406,0.162l-0.41,0.147
	l-0.42,0.13l-0.426,0.114l-0.433,0.099l-0.438,0.08l-0.444,0.063l-0.45,0.046l-0.455,0.027l-0.46,0.011H19.102l-0.458-0.011
	l-0.456-0.027l-0.448-0.046l-0.446-0.063l-0.437-0.08l-0.433-0.099l-0.427-0.114l-0.419-0.13l-0.413-0.147l-0.404-0.162
	l-0.396-0.177l-0.388-0.194l-0.378-0.205l-0.372-0.221l-0.361-0.234l-0.351-0.247l-0.341-0.26l-0.332-0.274l-0.32-0.286l-0.31-0.296
	l-0.296-0.31l-0.286-0.32l-0.273-0.33l-0.259-0.342L9.85,72.463l-0.234-0.361l-0.22-0.369l-0.208-0.379l-0.191-0.39L8.82,70.568
	l-0.163-0.405l-0.146-0.411l-0.131-0.42l-0.114-0.426l-0.098-0.432l-0.081-0.438l-0.064-0.444l-0.045-0.45L7.95,66.687l-0.009-0.459
	L7.95,65.77l0.029-0.457l0.045-0.448l0.064-0.444l0.081-0.438l0.098-0.432l0.114-0.426l0.131-0.42l0.146-0.413l0.163-0.403
	l0.177-0.396l0.191-0.388l0.208-0.38l0.22-0.371l0.234-0.361l0.249-0.351l0.259-0.341l0.273-0.33l0.286-0.322l0.296-0.308
	l0.31-0.298l0.32-0.284l0.332-0.274l0.341-0.26l0.351-0.249l0.361-0.234l0.372-0.219l0.378-0.208l0.388-0.191l0.396-0.177
	l0.404-0.162l0.413-0.146l0.419-0.131l0.427-0.114l0.433-0.099l0.437-0.079l0.446-0.065l0.448-0.045l0.456-0.027l0.458-0.01h0.016
	h0.015h0.016h0.016l0.016,0.002h0.016h0.016h0.016l0.014,0.001h0.016h0.016l0.016,0.002h0.016h0.014l0.016,0.003h0.016l0.016,0.002
	h0.016l0.014,0.001h0.016l0.016,0.002l0.016,0.001h0.015l0.015,0.002h0.016l0.017,0.003l0.014,0.001h0.016l0.03,0.002l0.016,0.002
	l0.016,0.001h0.016l0.014,0.002h0.016l0.016,0.003h0.016l0.014,0.001l0.016,0.002h0.016l0.013-0.038l0.013-0.035l0.014-0.037
	l0.013-0.036l0.014-0.037l0.012-0.037l0.015-0.036l0.014-0.036l0.014-0.038l0.015-0.035l0.014-0.036l0.014-0.037l0.015-0.036
	l0.014-0.036l0.014-0.035l0.015-0.035l0.015-0.036l0.015-0.036l0.016-0.035l0.014-0.036l0.016-0.036l0.016-0.035l0.014-0.036
	l0.016-0.035l0.016-0.036l0.016-0.034l0.016-0.035l0.016-0.036l0.016-0.033l0.016-0.037l0.018-0.033l0.016-0.035l0.016-0.034
	l0.017-0.036l0.016-0.034l0.019-0.033l0.016-0.036l0.018-0.033l0.017-0.035l0.019-0.034v-15.97h-8.681l-0.46-0.009l-0.456-0.027
	l-0.448-0.046l-0.445-0.064l-0.438-0.081l-0.432-0.098l-0.428-0.114l-0.418-0.131l-0.413-0.146l-0.403-0.161l-0.397-0.177
	l-0.388-0.193l-0.378-0.206l-0.372-0.222l-0.361-0.234l-0.35-0.247l-0.341-0.261l-0.331-0.273l-0.321-0.286l-0.308-0.296
	l-0.298-0.31l-0.287-0.32l-0.271-0.331l-0.261-0.341l-0.248-0.352l-0.234-0.361l-0.22-0.37l-0.207-0.38L1.556,31.28l-0.177-0.397
	l-0.163-0.404L1.07,30.066l-0.13-0.418l-0.114-0.425l-0.099-0.432l-0.08-0.44l-0.064-0.443l-0.044-0.45l-0.028-0.454L0.5,26.544
	l0.009-0.459l0.028-0.456l0.044-0.45l0.064-0.443l0.08-0.438l0.099-0.433l0.114-0.427l0.13-0.418l0.147-0.413l0.163-0.404
	l0.177-0.397l0.191-0.388l0.207-0.38l0.22-0.37l0.234-0.361l0.248-0.352l0.261-0.341l0.271-0.331l0.287-0.32l0.298-0.309
	l0.308-0.296l0.321-0.286l0.331-0.273l0.341-0.259l0.35-0.248l0.361-0.234l0.372-0.22l0.378-0.208l0.388-0.191l0.397-0.179
	l0.403-0.161l0.413-0.146l0.418-0.13l0.428-0.114l0.432-0.099l0.438-0.08l0.445-0.064l0.448-0.046l0.456-0.027l0.46-0.009h0.022
	h0.014h0.016h0.01h0.008h0.005h0.011h0.003h0.011h0.004h0.011h0.008h0.011h0.009h0.011h0.005h0.01h0.008h0.005h0.011l0.102-0.629
	l0.125-0.62l0.147-0.613l0.167-0.606l0.189-0.595l0.209-0.584l0.23-0.576l0.25-0.564l0.269-0.556l0.289-0.541l0.306-0.533
	l0.325-0.518l0.341-0.508l0.359-0.493l0.376-0.48l0.391-0.469l0.407-0.452l0.423-0.438l0.438-0.423l0.452-0.407l0.464-0.392
	l0.479-0.375L19.09,3.65l0.505-0.343l0.517-0.323l0.529-0.307l0.54-0.288l0.55-0.27l0.563-0.25l0.571-0.23l0.58-0.211l0.59-0.189
	l0.599-0.17l0.606-0.148l0.614-0.126l0.621-0.104l0.628-0.082l0.635-0.059l0.64-0.036L29.024,0.5l0.428,0.005L29.877,0.521z
	 M48.108,42.685l-0.376,0.024l-0.375,0.032l-0.371,0.043l-0.37,0.052l-0.366,0.063l-0.365,0.069l-0.362,0.08l-0.359,0.088
	l-0.354,0.097l-0.355,0.107l-0.35,0.113l-0.348,0.124l-0.342,0.13l-0.34,0.14l-0.336,0.148l-0.33,0.157l-0.328,0.164l-0.323,0.172
	l-0.319,0.181l-0.314,0.188l-0.31,0.197l-0.304,0.202l-0.3,0.212l-0.296,0.217l-0.289,0.226l-0.285,0.234l-0.278,0.24l-0.274,0.248
	l-0.268,0.253l-0.261,0.262l-0.256,0.268l-0.248,0.275l-0.243,0.281l-0.236,0.287l-0.229,0.295l-0.223,0.3l-0.214,0.309
	l-0.209,0.313l0.226,0.151l0.22,0.159l0.217,0.162l0.213,0.168l0.209,0.174l0.204,0.177l0.2,0.184l0.194,0.188l0.191,0.191
	l0.186,0.196l0.183,0.202l0.175,0.205l0.17,0.209l0.169,0.214l0.161,0.219l0.155,0.221l0.152,0.226l0.144,0.23l0.142,0.233
	l0.134,0.237l0.129,0.24l0.123,0.244l0.118,0.248l0.111,0.25l0.104,0.254l0.098,0.257l0.094,0.259l0.087,0.264l0.081,0.266
	l0.074,0.268l0.067,0.272l0.06,0.273l0.054,0.275l0.047,0.278l0.04,0.28l0.032,0.284l0.026,0.284l0.019,0.288l0.011,0.288
	l0.003,0.291h-2.48l-0.006-0.358l-0.021-0.354l-0.037-0.35l-0.048-0.345l-0.064-0.342l-0.074-0.335l-0.09-0.331l-0.101-0.327
	l-0.113-0.32l-0.126-0.314l-0.138-0.31l-0.15-0.302l-0.161-0.294l-0.17-0.288l-0.182-0.28l-0.193-0.274l-0.204-0.266l-0.21-0.258
	l-0.224-0.248l-0.23-0.239L36.16,52.42l-0.25-0.223l-0.258-0.212l-0.264-0.201l-0.273-0.193l-0.28-0.183l-0.291-0.171l-0.294-0.161
	l-0.302-0.148l-0.307-0.14l-0.315-0.125l-0.322-0.114l-0.324-0.103l-0.331-0.087l-0.337-0.077l-0.342-0.063l-0.345-0.05l-0.35-0.036
	l-0.354-0.021l-0.357-0.007l-0.269,0.004l-0.265,0.013l-0.266,0.02l-0.26,0.028l-0.261,0.036l-0.258,0.043l-0.256,0.052
	l-0.251,0.057l-0.25,0.066l-0.247,0.073l-0.244,0.08l-0.242,0.086l-0.237,0.095l-0.234,0.101l-0.231,0.107l-0.227,0.113l-0.226,0.12
	l-0.217,0.127l-0.217,0.135l-0.21,0.139l-0.208,0.145l-0.204,0.151l-0.198,0.158l-0.193,0.162l-0.189,0.17l-0.184,0.174L24.04,52.74
	l-0.173,0.184l-0.168,0.189l-0.164,0.196l-0.158,0.2l-0.151,0.206l-0.145,0.208l-0.141,0.218l-0.134,0.217l-0.127,0.226
	l-0.121,0.227l-0.115,0.232l-0.108,0.238l-0.102,0.24l0.345,0.107l0.342,0.118l0.334,0.128l0.33,0.139l0.325,0.149l0.318,0.159
	l0.313,0.169l0.307,0.178l0.302,0.188l0.293,0.196l0.288,0.206l0.28,0.215l0.275,0.224l0.267,0.231l0.259,0.238l0.25,0.249
	l0.245,0.256l0.234,0.263l0.227,0.27l0.22,0.279l0.208,0.283l0.202,0.291l0.191,0.297l0.183,0.307l0.173,0.308l0.165,0.317
	l0.152,0.321l0.144,0.328l0.133,0.333l0.123,0.338l0.11,0.343l0.102,0.349l0.089,0.352l0.08,0.358l0.068,0.359l0.055,0.365
	l0.043,0.368l0.031,0.372l0.019,0.375l0.005,0.379h-2.479l-0.009-0.357l-0.021-0.354l-0.036-0.351l-0.048-0.345l-0.063-0.342
	l-0.076-0.335l-0.09-0.333l-0.101-0.325l-0.113-0.319L27.1,62.853l-0.137-0.31l-0.148-0.302l-0.161-0.295l-0.172-0.288l-0.182-0.28
	l-0.193-0.273l-0.202-0.266l-0.213-0.258l-0.221-0.248l-0.232-0.242l-0.239-0.229l-0.25-0.223l-0.258-0.212l-0.264-0.204
	l-0.273-0.19l-0.281-0.183l-0.29-0.172l-0.294-0.16l-0.302-0.15l-0.307-0.138l-0.315-0.125l-0.32-0.115l-0.327-0.102l-0.331-0.089
	l-0.336-0.075l-0.34-0.063l-0.347-0.05l-0.348-0.036l-0.354-0.021l-0.358-0.007l-0.356,0.007l-0.354,0.021l-0.35,0.036l-0.345,0.05
	l-0.341,0.063l-0.336,0.075l-0.332,0.089l-0.326,0.102l-0.32,0.115l-0.314,0.125l-0.31,0.138l-0.302,0.15l-0.295,0.16l-0.288,0.172
	l-0.281,0.183l-0.274,0.19l-0.264,0.204l-0.258,0.212l-0.248,0.223l-0.241,0.229l-0.231,0.242l-0.221,0.248l-0.213,0.258
	l-0.204,0.266l-0.191,0.273l-0.182,0.28l-0.172,0.288l-0.161,0.295l-0.15,0.302l-0.138,0.31l-0.125,0.314l-0.115,0.319l-0.101,0.325
	l-0.09,0.333l-0.075,0.335l-0.063,0.342l-0.05,0.345l-0.036,0.351l-0.021,0.354l-0.007,0.357l0.007,0.358l0.021,0.354l0.036,0.349
	l0.05,0.347l0.063,0.341l0.075,0.336l0.09,0.33l0.101,0.328l0.115,0.319l0.125,0.314l0.138,0.31l0.15,0.3l0.161,0.297l0.172,0.287
	l0.182,0.281l0.191,0.273l0.204,0.266l0.213,0.258l0.221,0.248l0.231,0.239l0.241,0.232l0.248,0.223l0.258,0.213l0.264,0.201
	l0.274,0.192l0.281,0.183l0.288,0.171l0.295,0.161l0.302,0.148l0.31,0.138l0.314,0.127l0.32,0.114l0.326,0.103l0.332,0.087
	l0.336,0.077l0.341,0.063l0.345,0.05l0.35,0.036l0.354,0.021l0.356,0.007h47.125l0.358-0.007l0.354-0.021l0.348-0.036l0.348-0.05
	l0.34-0.063l0.337-0.077l0.331-0.087l0.326-0.103l0.32-0.114l0.314-0.127l0.309-0.138l0.301-0.148l0.297-0.161l0.287-0.171
	l0.281-0.183l0.272-0.192l0.267-0.201l0.258-0.213l0.248-0.223l0.239-0.232l0.232-0.239l0.222-0.248l0.212-0.258l0.202-0.266
	l0.193-0.273l0.182-0.281l0.172-0.287l0.161-0.297l0.148-0.3l0.138-0.31l0.127-0.314l0.113-0.319l0.103-0.328l0.088-0.33
	l0.076-0.336l0.063-0.341l0.051-0.347l0.035-0.349l0.021-0.354l0.008-0.358l-0.008-0.357l-0.021-0.354l-0.035-0.351l-0.051-0.345
	l-0.063-0.342l-0.076-0.335l-0.088-0.333l-0.103-0.325l-0.113-0.319l-0.127-0.314l-0.138-0.31l-0.148-0.302l-0.161-0.295
	l-0.172-0.288l-0.182-0.28l-0.193-0.273l-0.202-0.266l-0.212-0.258l-0.222-0.248l-0.232-0.242l-0.239-0.229l-0.248-0.223
	l-0.258-0.212l-0.267-0.204l-0.272-0.19l-0.281-0.183l-0.287-0.172l-0.297-0.16l-0.301-0.15l-0.309-0.138l-0.314-0.125l-0.32-0.115
	l-0.326-0.102l-0.331-0.089l-0.337-0.075l-0.34-0.063l-0.348-0.05l-0.348-0.036l-0.354-0.021l-0.358-0.007h-0.024h-0.026h-0.025
	h-0.024l-0.027,0.002h-0.024h-0.026l-0.026,0.001h-0.026l-0.027,0.003h-0.024l-0.027,0.001l-0.026,0.002l-0.027,0.002h-0.027
	l-0.027,0.001l-0.026,0.002l-0.029,0.003l-0.026,0.001l-0.028,0.002l-0.029,0.003l-0.028,0.002l-0.028,0.003l-0.029,0.001
	l-0.027,0.004l-0.029,0.001l-0.03,0.005l-0.029,0.003l-0.029,0.002l-0.031,0.003l-0.03,0.004l-0.03,0.004l-0.03,0.003l-0.032,0.004
	l-0.031,0.004l-0.032,0.003l-0.03,0.004l-0.032,0.004l-0.032,0.006l-0.035,0.003l-1.304,0.17l-0.094-1.314L63.64,55.91l-0.073-0.572
	l-0.097-0.564l-0.115-0.556l-0.138-0.549l-0.157-0.542l-0.177-0.53l-0.197-0.523l-0.215-0.513l-0.234-0.503l-0.251-0.493
	l-0.269-0.48l-0.286-0.47l-0.304-0.459l-0.318-0.447l-0.335-0.434l-0.35-0.423l-0.366-0.407l-0.378-0.394l-0.394-0.382l-0.405-0.364
	l-0.421-0.353l-0.434-0.334l-0.442-0.32l-0.458-0.303l-0.469-0.286l-0.479-0.271l-0.488-0.253l-0.499-0.234l-0.511-0.216
	l-0.516-0.199l-0.527-0.179l-0.534-0.158l-0.544-0.14l-0.55-0.117l-0.556-0.1l-0.564-0.076l-0.568-0.058l-0.575-0.032l-0.581-0.012
	l-0.38,0.005L48.108,42.685z M22.824,50.463l0.069-0.061l0.07-0.063l0.07-0.059l0.072-0.062l0.071-0.059l0.072-0.059l0.073-0.058
	l0.073-0.06l0.073-0.055l0.073-0.058l0.075-0.055l0.075-0.057l0.075-0.054l0.075-0.052l0.076-0.054l0.077-0.052l0.078-0.053
	l0.078-0.052l0.077-0.051l0.078-0.049l0.081-0.049l0.079-0.048l0.081-0.049l0.08-0.048l0.082-0.047l0.081-0.045l0.081-0.046
	l0.082-0.044l0.083-0.043l0.082-0.043l0.084-0.043l0.084-0.043l0.082-0.042l0.086-0.039l0.083-0.041l0.084-0.037l0.086-0.04
	l0.086-0.037l0.086-0.038l0.086-0.035l-0.031-0.045l-0.03-0.047l-0.028-0.046l-0.029-0.046l-0.029-0.047l-0.027-0.048l-0.027-0.046
	l-0.027-0.05l-0.024-0.05l-0.025-0.048l-0.023-0.051l-0.022-0.049l-0.024-0.051l-0.021-0.05l-0.021-0.052l-0.019-0.052l-0.021-0.052
	l-0.017-0.052l-0.021-0.052l-0.016-0.054l-0.015-0.053l-0.016-0.054l-0.016-0.055l-0.015-0.054l-0.012-0.054l-0.013-0.055
	l-0.013-0.056l-0.011-0.056l-0.008-0.056l-0.009-0.056l-0.01-0.057l-0.006-0.057l-0.007-0.057l-0.005-0.057l-0.005-0.057
	l-0.003-0.06l-0.003-0.057l-0.002-0.057l-0.002-0.06v-0.059l0.002-0.153l0.009-0.151l0.016-0.15l0.021-0.148l0.027-0.146
	l0.032-0.143l0.04-0.144l0.042-0.14l0.048-0.138l0.054-0.134l0.061-0.132l0.063-0.131l0.07-0.125l0.073-0.125l0.078-0.12
	l0.083-0.117l0.086-0.113l0.091-0.11l0.095-0.107l0.099-0.102l0.103-0.101l0.105-0.095l0.11-0.091l0.115-0.086l0.116-0.084
	l0.122-0.077l0.124-0.073l0.127-0.069l0.129-0.064l0.132-0.059l0.134-0.054l0.138-0.048l0.14-0.046l0.143-0.037l0.143-0.032
	l0.146-0.027l0.148-0.021l0.15-0.016l0.152-0.009l0.153-0.003l0.153,0.003l0.151,0.009l0.15,0.016l0.148,0.021l0.146,0.027
	l0.143,0.032l0.143,0.037l0.14,0.046l0.138,0.048l0.134,0.054l0.132,0.059l0.129,0.064l0.126,0.069l0.124,0.073l0.122,0.077
	l0.116,0.084l0.114,0.086l0.11,0.091l0.105,0.095l0.104,0.101l0.098,0.102l0.097,0.107l0.091,0.11l0.086,0.113l0.082,0.117
	l0.08,0.12l0.073,0.125l0.07,0.125l0.063,0.131l0.06,0.132l0.054,0.134l0.048,0.138l0.043,0.14l0.04,0.144l0.032,0.143l0.027,0.146
	l0.021,0.148l0.017,0.15l0.008,0.151l0.001,0.153v0.038v0.04l-0.001,0.037v0.04l-0.002,0.037l-0.003,0.037l-0.002,0.04l-0.003,0.037
	l-0.002,0.038l-0.005,0.037l-0.003,0.039l-0.004,0.037l-0.004,0.038l-0.005,0.037l-0.005,0.036l-0.005,0.037l-0.008,0.038
	l-0.007,0.036l-0.006,0.037l-0.008,0.037l-0.007,0.036l-0.009,0.036l-0.008,0.037l-0.008,0.036l-0.011,0.035l-0.008,0.035
	l-0.011,0.037l-0.01,0.035l-0.01,0.036l-0.011,0.036l-0.013,0.033L32.55,47.57l-0.013,0.033l-0.012,0.036l-0.013,0.034L32.5,47.708
	l-0.012,0.033l-0.015,0.034l-0.014,0.033l-0.014,0.035l0.044,0.008l0.043,0.01l0.045,0.011l0.043,0.009l0.044,0.009l0.043,0.011
	l0.043,0.009l0.045,0.011l0.043,0.012l0.043,0.011l0.042,0.01l0.045,0.011l0.043,0.012l0.043,0.012l0.043,0.011l0.043,0.013
	l0.043,0.011l0.041,0.012l0.043,0.013l0.043,0.012l0.043,0.014l0.043,0.013l0.041,0.013l0.043,0.014l0.043,0.014l0.041,0.012
	l0.043,0.015l0.041,0.014l0.043,0.013l0.041,0.015l0.043,0.014l0.041,0.015l0.042,0.015l0.043,0.014l0.041,0.015l0.041,0.016
	l0.043,0.014l0.041,0.016l0.042,0.016l0.041,0.017l0.242-0.377l0.251-0.367l0.259-0.36l0.266-0.353l0.277-0.345l0.283-0.338
	l0.292-0.328l0.299-0.322l0.307-0.313l0.313-0.303l0.322-0.298l0.329-0.287l0.334-0.278l0.342-0.27l0.348-0.264l0.354-0.251
	l0.359-0.243l0.366-0.234l0.372-0.226l0.377-0.216l0.383-0.205l0.388-0.197l0.394-0.188L42,41.599l0.401-0.167l0.407-0.157
	l0.411-0.147l0.414-0.137l0.419-0.127l0.424-0.116l0.425-0.105l0.429-0.095l0.433-0.085l0.436-0.071l0.438-0.063l0.441-0.05
	l0.443-0.042l0.446-0.027l0.447-0.017l0.45-0.007l0.162,0.002l0.163,0.001l0.162,0.004l0.162,0.006l0.164,0.006l0.16,0.01L50,40.222
	l0.161,0.013l0.16,0.012l0.159,0.016l0.159,0.016l0.159,0.017l0.159,0.02l0.159,0.019l0.156,0.021l0.157,0.024l0.158,0.024
	l0.156,0.024l0.156,0.027l0.155,0.028l0.155,0.03l0.155,0.032l0.154,0.032l0.153,0.033l0.153,0.037l0.154,0.037l0.152,0.038
	l0.151,0.041l0.151,0.04l0.15,0.041l0.15,0.045l0.149,0.046l0.148,0.046l0.15,0.048l0.147,0.049l0.147,0.049l0.146,0.053
	l0.146,0.053l0.146,0.054l0.145,0.056v-1.157H22.824V50.463z M28.542,45.243l-0.21,0.114l-0.184,0.152l-0.153,0.184l-0.114,0.21
	l-0.072,0.232l-0.025,0.25l0.025,0.25l0.072,0.232l0.114,0.21l0.153,0.184l0.184,0.15l0.21,0.116l0.232,0.072l0.25,0.024
	l0.249-0.024l0.233-0.072l0.21-0.116l0.184-0.15l0.152-0.184l0.114-0.21l0.072-0.232l0.024-0.25l-0.024-0.25l-0.072-0.232
	l-0.114-0.21L29.9,45.51l-0.184-0.152l-0.21-0.114l-0.233-0.073l-0.249-0.025l-0.25,0.025L28.542,45.243z M73.186,42.763
	l-0.211,0.115l-0.184,0.151l-0.15,0.184l-0.116,0.209l-0.07,0.234l-0.026,0.248l0.026,0.251l0.07,0.231l0.116,0.211l0.15,0.185
	l0.184,0.15l0.211,0.115l0.233,0.072l0.25,0.024l0.248-0.024l0.232-0.072l0.211-0.115l0.185-0.15l0.151-0.185l0.114-0.211
	l0.073-0.231l0.025-0.251l-0.025-0.248l-0.073-0.234l-0.114-0.209l-0.151-0.184l-0.185-0.151l-0.211-0.115l-0.232-0.073
	l-0.248-0.024l-0.25,0.024L73.186,42.763z M63.265,35.321l-0.211,0.115l-0.182,0.152l-0.153,0.184l-0.113,0.211l-0.073,0.232
	l-0.024,0.249l0.024,0.25l0.073,0.232l0.113,0.211l0.153,0.184l0.182,0.152l0.211,0.115l0.232,0.071l0.25,0.025l0.251-0.025
	l0.231-0.071l0.211-0.115l0.183-0.152l0.151-0.184l0.115-0.211l0.072-0.232l0.025-0.25l-0.025-0.249l-0.072-0.232l-0.115-0.211
	l-0.151-0.184l-0.183-0.152l-0.211-0.115l-0.231-0.071l-0.251-0.026l-0.25,0.026L63.265,35.321z M22.824,37.704h32.242v-12.4H22.824
	V37.704z M27.868,3.025l-0.571,0.056l-0.562,0.077l-0.559,0.098l-0.548,0.119l-0.543,0.14l-0.534,0.159l-0.527,0.179l-0.518,0.198
	l-0.509,0.216l-0.498,0.234l-0.49,0.252l-0.479,0.27l-0.466,0.288l-0.458,0.304l-0.445,0.318l-0.432,0.336l-0.42,0.35l-0.406,0.366
	l-0.394,0.381l-0.379,0.393l-0.364,0.41l-0.35,0.421L17.08,9.024l-0.32,0.447l-0.302,0.457l-0.286,0.47l-0.271,0.482l-0.25,0.493
	l-0.234,0.502l-0.217,0.513l-0.194,0.521l-0.179,0.533l-0.158,0.54l-0.135,0.549l-0.118,0.558l-0.095,0.564l-0.075,0.572
	l-0.051,0.578l-0.093,1.313l-1.305-0.17l-0.031-0.005l-0.033-0.004l-0.032-0.003l-0.031-0.003l-0.032-0.005l-0.032-0.004
	l-0.03-0.003l-0.031-0.004l-0.03-0.002l-0.03-0.003l-0.031-0.004l-0.03-0.003l-0.03-0.002l-0.029-0.003l-0.028-0.002l-0.031-0.003
	l-0.028-0.002l-0.029-0.001l-0.029-0.004l-0.027-0.001l-0.028-0.001l-0.029-0.002l-0.027-0.001l-0.027-0.001l-0.028-0.002
	l-0.027-0.001L12,17.87h-0.027l-0.027-0.002l-0.027-0.001h-0.025l-0.027-0.001H11.84h-0.024l-0.027-0.002h-0.026h-0.025h-0.027
	h-0.024h-0.025l-0.358,0.008l-0.354,0.021l-0.35,0.035l-0.345,0.048L9.914,18.04l-0.335,0.075l-0.333,0.09L8.92,18.306l-0.32,0.114
	l-0.314,0.125l-0.31,0.137l-0.302,0.15L7.38,18.994l-0.288,0.172l-0.28,0.18l-0.273,0.193l-0.267,0.204l-0.257,0.21l-0.248,0.224
	l-0.242,0.23l-0.23,0.242l-0.221,0.248L4.86,21.154l-0.204,0.264l-0.191,0.273l-0.183,0.281l-0.171,0.289l-0.161,0.295L3.8,22.859
	l-0.137,0.307l-0.125,0.314l-0.114,0.322l-0.102,0.325l-0.09,0.332l-0.075,0.336l-0.063,0.341l-0.05,0.345l-0.035,0.35l-0.021,0.354
	L2.98,26.544l0.008,0.355l0.021,0.354l0.035,0.35l0.05,0.347l0.063,0.339l0.075,0.338l0.09,0.331l0.102,0.326l0.114,0.322
	l0.125,0.314L3.8,30.227l0.15,0.302l0.161,0.295l0.171,0.29l0.183,0.28l0.191,0.274l0.204,0.264l0.213,0.257l0.221,0.25l0.23,0.239
	l0.242,0.23l0.248,0.223l0.257,0.213l0.267,0.202l0.273,0.193l0.28,0.182l0.288,0.172l0.295,0.159l0.302,0.15l0.31,0.138
	l0.314,0.127l0.32,0.112l0.325,0.103l0.333,0.089l0.335,0.077l0.342,0.063l0.345,0.048l0.35,0.036l0.354,0.021l0.358,0.007h8.681
	V14.142l0.005-0.255l0.014-0.252l0.025-0.25l0.037-0.247l0.044-0.245l0.056-0.24l0.063-0.237l0.073-0.233l0.081-0.228l0.091-0.226
	l0.098-0.22l0.107-0.214l0.115-0.21l0.122-0.208l0.13-0.2l0.138-0.195l0.145-0.189l0.151-0.184l0.159-0.179l0.164-0.172l0.172-0.164
	l0.179-0.159l0.183-0.152l0.191-0.145l0.195-0.138l0.201-0.13l0.205-0.122l0.211-0.114l0.216-0.107l0.22-0.099l0.226-0.089
	l0.228-0.083l0.233-0.073l0.237-0.063l0.24-0.055l0.243-0.045l0.248-0.034l0.25-0.026l0.253-0.015l0.256-0.005h13.544l-0.213-0.232
	l-0.216-0.227l-0.22-0.224l-0.226-0.216L38.986,6.83l-0.234-0.207L38.513,6.42l-0.239-0.197l-0.244-0.193L37.78,5.845l-0.251-0.181
	l-0.256-0.175L37.014,5.32l-0.263-0.165l-0.264-0.159l-0.27-0.153l-0.271-0.148L35.67,4.553l-0.277-0.136l-0.281-0.13l-0.283-0.125
	l-0.287-0.118l-0.287-0.113l-0.293-0.105l-0.293-0.102l-0.296-0.093l-0.299-0.089l-0.3-0.081l-0.302-0.077l-0.306-0.07l-0.307-0.063
	l-0.308-0.057L31.24,3.145l-0.313-0.042l-0.313-0.038l-0.316-0.031l-0.316-0.023l-0.318-0.016l-0.32-0.011l-0.32-0.004l-0.58,0.011
	L27.868,3.025z M26.39,10.425l-0.151,0.009l-0.15,0.014l-0.148,0.021l-0.144,0.027l-0.145,0.032l-0.143,0.039l-0.14,0.043
	l-0.138,0.048l-0.134,0.056l-0.132,0.059l-0.129,0.063l-0.126,0.068l-0.124,0.073l-0.122,0.079l-0.116,0.082l-0.114,0.087
	l-0.111,0.091l-0.105,0.095l-0.104,0.098l-0.098,0.104l-0.097,0.106l-0.091,0.109l-0.086,0.114l-0.082,0.118l-0.08,0.12
	l-0.073,0.124l-0.07,0.127l-0.062,0.129l-0.059,0.132l-0.055,0.136l-0.048,0.135l-0.043,0.142l-0.04,0.141l-0.032,0.145
	l-0.027,0.146l-0.021,0.147l-0.015,0.15l-0.011,0.152l-0.001,0.154v8.681h32.242v-8.681l-0.003-0.154l-0.009-0.152l-0.015-0.15
	l-0.021-0.147l-0.026-0.146l-0.034-0.145l-0.038-0.141l-0.043-0.142l-0.049-0.135l-0.054-0.136l-0.06-0.132l-0.064-0.129
	l-0.067-0.127l-0.073-0.124l-0.079-0.12l-0.082-0.118l-0.088-0.114l-0.091-0.109l-0.096-0.106l-0.098-0.104l-0.104-0.098
	l-0.106-0.095l-0.111-0.091l-0.112-0.087l-0.118-0.082l-0.119-0.079l-0.124-0.073l-0.127-0.068l-0.129-0.063l-0.132-0.059
	l-0.137-0.056l-0.138-0.048l-0.138-0.043l-0.143-0.039l-0.145-0.032l-0.146-0.027l-0.148-0.021l-0.147-0.014L51.5,10.425
	l-0.153-0.004H26.544L26.39,10.425z M63.265,12.998l-0.211,0.117l-0.182,0.15l-0.153,0.184l-0.113,0.211l-0.073,0.232l-0.024,0.25
	l0.024,0.249l0.073,0.234l0.113,0.209l0.153,0.184l0.182,0.152l0.211,0.114l0.232,0.074l0.25,0.025l0.251-0.025l0.231-0.074
	l0.211-0.114l0.183-0.152l0.151-0.184l0.115-0.209l0.072-0.234l0.025-0.249l-0.025-0.25L64.89,13.66l-0.115-0.211l-0.151-0.184
	l-0.183-0.15l-0.211-0.117l-0.231-0.071l-0.251-0.025l-0.25,0.025L63.265,12.998z M70.707,3.079l-0.211,0.114l-0.185,0.152
	l-0.149,0.182l-0.117,0.211l-0.07,0.232l-0.025,0.25l0.025,0.25l0.07,0.232l0.117,0.211l0.149,0.182l0.185,0.152l0.211,0.115
	l0.232,0.073l0.25,0.025l0.248-0.025l0.234-0.073l0.209-0.115l0.185-0.152l0.151-0.182l0.114-0.211l0.073-0.232l0.024-0.25
	l-0.024-0.25l-0.073-0.232l-0.114-0.211l-0.151-0.182L71.88,3.193l-0.209-0.114l-0.234-0.073L71.189,2.98l-0.25,0.025L70.707,3.079z
	"/>
<path id="extrgBDTy_4_" fill-opacity="0" stroke="#000000" stroke-opacity="0" d="M29.877,0.521L30.3,0.546l0.421,0.036l0.419,0.047
	l0.416,0.055l0.415,0.066l0.411,0.077l0.409,0.085l0.404,0.095l0.403,0.105l0.4,0.115l0.395,0.123l0.391,0.132l0.388,0.143
	l0.385,0.151l0.38,0.161l0.375,0.17l0.372,0.177l0.369,0.188l0.362,0.197l0.358,0.204l0.354,0.214l0.347,0.222l0.343,0.23
	l0.338,0.238l0.332,0.247l0.325,0.256l0.322,0.263l0.314,0.27l0.308,0.279l0.304,0.288l0.294,0.292l0.29,0.302l0.284,0.309
	l0.275,0.318l0.271,0.323l0.262,0.333l0.256,0.338l0.247,0.346h8.109l0.255,0.005l0.252,0.015l0.251,0.026l0.246,0.034l0.244,0.045
	l0.24,0.055l0.236,0.063l0.234,0.073l0.228,0.083l0.224,0.089l0.222,0.099l0.214,0.107l0.211,0.114l0.207,0.122l0.201,0.13
	l0.194,0.138l0.189,0.145l0.185,0.152l0.179,0.159l0.172,0.164l0.164,0.172l0.159,0.179l0.151,0.184l0.146,0.189l0.137,0.195
	l0.129,0.2l0.123,0.208l0.114,0.21l0.108,0.214l0.098,0.22l0.089,0.226l0.083,0.228l0.07,0.233l0.064,0.237l0.054,0.24l0.047,0.245
	l0.034,0.247l0.024,0.25l0.017,0.252l0.005,0.255v6.201h3.721l0.051-0.002l0.051-0.003l0.051-0.005l0.049-0.005l0.049-0.009
	l0.047-0.012l0.048-0.013l0.047-0.014l0.047-0.016l0.044-0.018l0.043-0.02l0.043-0.021l0.043-0.023l0.041-0.025l0.042-0.025
	l0.036-0.027l0.04-0.031l0.035-0.03l0.036-0.031l0.034-0.034l0.034-0.034l0.032-0.036l0.03-0.038l0.028-0.037l0.027-0.04l0.026-0.04
	l0.022-0.041l0.024-0.043l0.021-0.043l0.019-0.044l0.019-0.044l0.017-0.044l0.016-0.047l0.012-0.048l0.011-0.048l0.01-0.048
	l0.007-0.051l0.005-0.05l0.002-0.05l0.003-0.05v-1.468l-0.107-0.04l-0.105-0.044l-0.104-0.046l-0.104-0.048l-0.1-0.052l-0.099-0.056
	l-0.098-0.059l-0.096-0.061l-0.093-0.063L61.512,17.1l-0.09-0.07l-0.086-0.071l-0.086-0.073l-0.081-0.077l-0.08-0.079l-0.078-0.082
	l-0.074-0.083l-0.072-0.085l-0.07-0.089l-0.066-0.089l-0.064-0.093l-0.063-0.093l-0.06-0.097l-0.057-0.098l-0.053-0.1l-0.049-0.1
	l-0.049-0.104l-0.045-0.105l-0.039-0.107l-0.037-0.107l-0.036-0.109l-0.031-0.112l-0.026-0.113l-0.024-0.112l-0.02-0.117
	l-0.019-0.116l-0.012-0.116l-0.011-0.12l-0.005-0.12l-0.003-0.12l0.004-0.154l0.008-0.152l0.016-0.15l0.021-0.147l0.026-0.146
	l0.033-0.145l0.038-0.141l0.043-0.142l0.051-0.135l0.054-0.136l0.059-0.132l0.064-0.129l0.068-0.127l0.072-0.124l0.079-0.12
	l0.082-0.118l0.087-0.114l0.092-0.109l0.095-0.106l0.099-0.104l0.104-0.098l0.107-0.095l0.11-0.091l0.112-0.087l0.117-0.082
	l0.121-0.079l0.123-0.073l0.127-0.068l0.129-0.063l0.132-0.059l0.136-0.056l0.138-0.048l0.14-0.043l0.141-0.039l0.145-0.032
	l0.146-0.027l0.148-0.021l0.148-0.014l0.152-0.009l0.153-0.004l0.154,0.004l0.15,0.009l0.148,0.014l0.148,0.021l0.147,0.027
	l0.146,0.032l0.141,0.039l0.14,0.043l0.137,0.048l0.134,0.056l0.133,0.059l0.13,0.063l0.127,0.068l0.124,0.073l0.119,0.079
	l0.118,0.082l0.112,0.087l0.111,0.091l0.107,0.095l0.102,0.098l0.101,0.104l0.094,0.106l0.092,0.109l0.087,0.114l0.083,0.118
	l0.076,0.12l0.075,0.124l0.067,0.127l0.064,0.129l0.06,0.132l0.054,0.136l0.05,0.135l0.042,0.142l0.038,0.141l0.032,0.145
	l0.029,0.146l0.019,0.147l0.017,0.15l0.01,0.152l0.003,0.154l-0.002,0.12l-0.006,0.12l-0.011,0.12l-0.012,0.116l-0.018,0.116
	l-0.02,0.117l-0.026,0.112l-0.026,0.113l-0.031,0.112l-0.034,0.109l-0.038,0.107l-0.041,0.107l-0.043,0.105l-0.048,0.104l-0.051,0.1
	l-0.054,0.1l-0.055,0.098l-0.059,0.097l-0.063,0.093l-0.064,0.093L66.7,16.39l-0.069,0.089l-0.072,0.085l-0.075,0.083l-0.078,0.082
	l-0.081,0.079l-0.081,0.077l-0.084,0.073l-0.088,0.071l-0.087,0.07l-0.092,0.066l-0.094,0.063l-0.096,0.061l-0.097,0.059
	l-0.099,0.056l-0.1,0.052l-0.104,0.048l-0.104,0.046l-0.105,0.044l-0.107,0.04v1.468l-0.004,0.152l-0.008,0.151l-0.017,0.15
	l-0.021,0.148l-0.026,0.146l-0.033,0.143l-0.038,0.143l-0.043,0.14l-0.051,0.138l-0.052,0.134l-0.06,0.132l-0.064,0.13l-0.067,0.125
	l-0.075,0.124l-0.078,0.122l-0.081,0.116l-0.088,0.114l-0.092,0.111l-0.095,0.105l-0.1,0.104l-0.102,0.1l-0.108,0.095l-0.11,0.091
	l-0.112,0.085l-0.117,0.084l-0.12,0.077l-0.123,0.073l-0.128,0.07l-0.13,0.064l-0.132,0.058l-0.135,0.054l-0.138,0.048l-0.14,0.044
	l-0.141,0.038l-0.145,0.032l-0.146,0.027l-0.148,0.021l-0.15,0.016l-0.15,0.008l-0.153,0.004h-3.721v4.961h11.162l0.05-0.002
	l0.052-0.003l0.051-0.005l0.047-0.007l0.049-0.009l0.048-0.011l0.049-0.012l0.046-0.015l0.045-0.016l0.047-0.018l0.043-0.02
	l0.043-0.021l0.043-0.023l0.04-0.025l0.04-0.025l0.04-0.028l0.038-0.029l0.036-0.03l0.036-0.032l0.033-0.032l0.034-0.034l0.03-0.036
	l0.03-0.037l0.031-0.038l0.026-0.04l0.027-0.04l0.022-0.041l0.023-0.043l0.021-0.043l0.02-0.044l0.019-0.045l0.016-0.045
	l0.015-0.046l0.014-0.048l0.011-0.048l0.01-0.048l0.006-0.049l0.005-0.051l0.003-0.05l0.002-0.05V7.712l-0.107-0.04L69.736,7.63
	L69.63,7.584l-0.102-0.05l-0.1-0.052l-0.099-0.056l-0.099-0.059l-0.095-0.061l-0.093-0.062l-0.092-0.066l-0.089-0.07l-0.086-0.071
	l-0.086-0.074l-0.081-0.077l-0.079-0.079l-0.079-0.082l-0.074-0.082l-0.072-0.086L68.234,6.47l-0.065-0.091l-0.066-0.091
	l-0.06-0.094l-0.06-0.097l-0.057-0.099L67.874,5.9l-0.052-0.102l-0.046-0.104L67.73,5.589l-0.04-0.105l-0.038-0.109l-0.033-0.109
	l-0.031-0.111L67.56,5.042l-0.024-0.114l-0.021-0.115l-0.016-0.118L67.486,4.58l-0.01-0.12L67.47,4.34l-0.002-0.12l0.003-0.154
	l0.01-0.152l0.015-0.148l0.021-0.148l0.026-0.146l0.032-0.145l0.039-0.141l0.043-0.14l0.048-0.138l0.056-0.135l0.06-0.133
	l0.063-0.128l0.068-0.126l0.073-0.124l0.078-0.12l0.082-0.118l0.088-0.113l0.092-0.11l0.094-0.107l0.099-0.102l0.104-0.101
	l0.107-0.095l0.108-0.091l0.115-0.087l0.118-0.082l0.119-0.079l0.124-0.074l0.127-0.067l0.129-0.064l0.132-0.059l0.136-0.054
	l0.135-0.05l0.142-0.043l0.142-0.038l0.145-0.034l0.146-0.027l0.146-0.021l0.15-0.015l0.152-0.008L71.189,0.5l0.151,0.004
	l0.152,0.008l0.149,0.015l0.149,0.021l0.146,0.027l0.143,0.034l0.143,0.038l0.14,0.043L72.5,0.74l0.135,0.054l0.132,0.059
	l0.13,0.064l0.125,0.067l0.125,0.074l0.12,0.079l0.115,0.082l0.115,0.087l0.11,0.091l0.107,0.095l0.103,0.101l0.1,0.102l0.095,0.107
	l0.092,0.11l0.086,0.113l0.083,0.118l0.077,0.12l0.072,0.124l0.07,0.126l0.064,0.128l0.059,0.133l0.054,0.135l0.049,0.138
	l0.045,0.14L74.8,3.327l0.032,0.145l0.026,0.146l0.021,0.148l0.017,0.148l0.009,0.152l0.004,0.154l-0.002,0.12l-0.007,0.12
	l-0.01,0.12l-0.012,0.116l-0.019,0.118l-0.02,0.115l-0.025,0.114L74.79,5.155l-0.031,0.111l-0.035,0.109l-0.037,0.109l-0.041,0.105
	l-0.043,0.105l-0.048,0.104L74.503,5.9L74.45,5.999l-0.055,0.099l-0.06,0.097l-0.063,0.094l-0.064,0.091L74.141,6.47l-0.069,0.088
	l-0.073,0.086l-0.075,0.082l-0.077,0.082l-0.081,0.079l-0.082,0.077L73.6,7.037l-0.089,0.071l-0.087,0.07l-0.091,0.066l-0.095,0.062
	l-0.095,0.061l-0.097,0.059l-0.099,0.056l-0.103,0.052l-0.101,0.05L72.641,7.63l-0.105,0.043l-0.107,0.04v18.832l-0.003,0.152
	l-0.009,0.151l-0.016,0.151l-0.021,0.148l-0.027,0.146l-0.032,0.143l-0.037,0.143l-0.045,0.14l-0.049,0.137l-0.054,0.134
	l-0.058,0.133l-0.064,0.128l-0.07,0.127l-0.073,0.124l-0.077,0.121l-0.084,0.116l-0.086,0.114l-0.091,0.111l-0.095,0.106l-0.1,0.104
	l-0.103,0.098l-0.107,0.097l-0.11,0.091l-0.112,0.085l-0.118,0.083l-0.12,0.078l-0.123,0.073l-0.127,0.07l-0.13,0.064l-0.133,0.059
	l-0.134,0.054l-0.138,0.048l-0.14,0.044L69.6,30.155l-0.144,0.032l-0.146,0.027l-0.148,0.021l-0.15,0.016l-0.151,0.009l-0.152,0.002
	H57.546v12.28l0.143,0.084l0.144,0.086l0.142,0.087l0.14,0.089l0.139,0.089l0.14,0.091l0.138,0.093l0.135,0.094l0.137,0.095
	l0.136,0.097l0.134,0.096l0.133,0.099l0.132,0.1l0.132,0.1l0.129,0.103l0.13,0.103l0.127,0.106l0.128,0.105l0.127,0.105l0.124,0.108
	l0.124,0.109l0.124,0.111l0.122,0.11l0.12,0.113l0.119,0.113l0.12,0.115l0.119,0.116l0.115,0.118l0.116,0.117l0.114,0.118
	l0.112,0.121l0.113,0.122l0.11,0.122l0.108,0.124l0.109,0.124l0.109,0.127l0.105,0.126l0.105,0.127l0.104,0.129l0.104,0.13v-6.908
	l-0.107-0.041l-0.105-0.043l-0.104-0.046l-0.104-0.05l-0.1-0.052l-0.099-0.055l-0.098-0.058l-0.096-0.061l-0.093-0.064l-0.091-0.066
	l-0.09-0.068l-0.086-0.071l-0.086-0.075l-0.081-0.076l-0.08-0.079l-0.078-0.081l-0.074-0.084l-0.072-0.086l-0.07-0.087l-0.066-0.089
	l-0.064-0.093l-0.063-0.095l-0.06-0.095l-0.057-0.099l-0.053-0.1l-0.049-0.102l-0.049-0.104l-0.045-0.104l-0.039-0.107l-0.037-0.107
	l-0.036-0.111l-0.031-0.11l-0.026-0.113l-0.024-0.115l-0.02-0.114l-0.019-0.117l-0.012-0.118l-0.011-0.118l-0.005-0.12l-0.003-0.122
	l0.004-0.152l0.008-0.152l0.016-0.15l0.021-0.148l0.026-0.146l0.033-0.143l0.038-0.143l0.043-0.14l0.051-0.137l0.054-0.134
	l0.059-0.132l0.064-0.13l0.068-0.125l0.072-0.124l0.079-0.122l0.082-0.116l0.087-0.114l0.092-0.111l0.095-0.105l0.099-0.104
	l0.104-0.098l0.107-0.097l0.11-0.091l0.112-0.085l0.117-0.082l0.121-0.079l0.123-0.073l0.127-0.07l0.129-0.064l0.132-0.059
	l0.136-0.054l0.138-0.048l0.14-0.044l0.141-0.038l0.145-0.032l0.146-0.027l0.148-0.021l0.148-0.016l0.152-0.009l0.153-0.003
	l0.154,0.003l0.15,0.009l0.148,0.016l0.148,0.021l0.147,0.027l0.146,0.032l0.141,0.038l0.14,0.044l0.137,0.048l0.134,0.054
	l0.133,0.059l0.13,0.064l0.127,0.07l0.124,0.073l0.119,0.079l0.118,0.082l0.112,0.085l0.111,0.091l0.107,0.097l0.102,0.098
	l0.101,0.104l0.094,0.105l0.092,0.111l0.087,0.114l0.083,0.116l0.076,0.122l0.075,0.124l0.067,0.125l0.064,0.13l0.06,0.132
	l0.054,0.134l0.05,0.137l0.042,0.14l0.038,0.143l0.032,0.143l0.029,0.146l0.019,0.148l0.017,0.15l0.01,0.152l0.003,0.152
	l-0.002,0.122l-0.006,0.12l-0.011,0.118l-0.012,0.118l-0.018,0.117l-0.02,0.114l-0.026,0.115l-0.026,0.113l-0.031,0.11l-0.034,0.111
	l-0.038,0.107l-0.041,0.107l-0.043,0.104l-0.048,0.104l-0.051,0.102l-0.054,0.1l-0.055,0.099l-0.059,0.095l-0.063,0.095
	l-0.064,0.093L66.7,38.713l-0.069,0.087l-0.072,0.086l-0.075,0.084l-0.078,0.081l-0.081,0.079l-0.081,0.076l-0.084,0.075
	l-0.088,0.071l-0.087,0.068l-0.092,0.066l-0.094,0.064l-0.096,0.061l-0.097,0.058l-0.099,0.055l-0.1,0.052l-0.104,0.05l-0.104,0.046
	l-0.105,0.043l-0.107,0.041v11.24l0.036,0.092l0.035,0.092l0.036,0.094l0.034,0.093l0.035,0.093l0.033,0.095l0.034,0.093
	l0.033,0.096l0.032,0.092l0.032,0.095l0.029,0.095l0.032,0.096l0.03,0.095l0.031,0.096l0.028,0.096l0.028,0.095l0.029,0.096
	l0.028,0.096l0.026,0.097l0.027,0.097l0.024,0.1l0.027,0.095l0.025,0.097l0.024,0.1l0.023,0.098l0.023,0.099l0.023,0.098
	l0.021,0.099l0.021,0.098l0.021,0.1l0.021,0.1l0.021,0.098l0.017,0.1l0.021,0.102l0.018,0.1l0.018,0.1l0.017,0.101l0.016,0.102
	l0.017,0.101l0.014,0.102h0.01h0.006h0.011l0.008-0.002h0.006h0.009h0.011h0.009h0.011h0.004h0.011h0.005h0.009h0.006h0.009h0.011
	h0.009h0.009h0.02h0.024l0.172,0.002l0.172,0.003l0.17,0.008l0.17,0.009l0.17,0.011l0.168,0.014l0.168,0.017l0.166,0.02l0.166,0.022
	l0.167,0.022l0.164,0.026l0.164,0.029l0.162,0.032l0.164,0.033l0.16,0.036l0.161,0.038l0.158,0.041l0.159,0.043l0.157,0.044
	l0.158,0.046l0.154,0.051l0.154,0.052l0.153,0.054l0.154,0.058l0.151,0.056l0.15,0.062l0.149,0.063l0.148,0.064l0.147,0.068
	l0.146,0.068l0.146,0.07l0.145,0.073l0.144,0.075l0.141,0.077l0.14,0.079l0.14,0.08l0.138,0.082l0.135,0.085l0.136,0.087
	l0.134,0.088v-9.558l-0.107-0.04l-0.104-0.042l-0.105-0.047l-0.103-0.05l-0.1-0.052l-0.1-0.056l-0.097-0.057l-0.095-0.062
	l-0.093-0.063l-0.091-0.066l-0.09-0.069l-0.086-0.071l-0.086-0.074l-0.082-0.076l-0.079-0.079l-0.078-0.08l-0.075-0.085
	l-0.073-0.085l-0.069-0.088l-0.065-0.09l-0.067-0.093l-0.061-0.095l-0.059-0.095l-0.058-0.098l-0.052-0.101l-0.052-0.101
	l-0.046-0.104l-0.045-0.104l-0.041-0.107l-0.038-0.108l-0.034-0.109l-0.03-0.11l-0.028-0.113l-0.022-0.114l-0.021-0.114
	l-0.017-0.116l-0.015-0.117l-0.009-0.118l-0.006-0.12l-0.001-0.122l0.004-0.151l0.008-0.152l0.016-0.149l0.021-0.148l0.025-0.146
	l0.032-0.144l0.04-0.143l0.043-0.14l0.048-0.138l0.056-0.134l0.059-0.132l0.064-0.131l0.067-0.126l0.074-0.124l0.079-0.119
	l0.081-0.117l0.088-0.114l0.092-0.11l0.095-0.107l0.098-0.103l0.104-0.1l0.106-0.095l0.109-0.091l0.113-0.086l0.118-0.084
	l0.121-0.076l0.122-0.074l0.127-0.069l0.129-0.064l0.132-0.059l0.137-0.054l0.135-0.049l0.143-0.044l0.141-0.037l0.145-0.032
	l0.146-0.027l0.146-0.021l0.15-0.016l0.152-0.01l0.153-0.003l0.151,0.003l0.151,0.01l0.15,0.016l0.148,0.021l0.146,0.027
	l0.144,0.032l0.144,0.037l0.139,0.044l0.137,0.049l0.135,0.054l0.132,0.059l0.131,0.064l0.125,0.069l0.126,0.074l0.119,0.076
	l0.116,0.084l0.114,0.086l0.111,0.091l0.106,0.095l0.102,0.1l0.1,0.103l0.096,0.107l0.091,0.11l0.086,0.114l0.084,0.117l0.077,0.119
	l0.073,0.124l0.069,0.126l0.064,0.131l0.06,0.132l0.054,0.134l0.048,0.138l0.044,0.14l0.038,0.143l0.032,0.144l0.026,0.146
	l0.021,0.148l0.017,0.149l0.009,0.152l0.004,0.151l-0.002,0.122l-0.008,0.12l-0.009,0.118l-0.013,0.117l-0.018,0.116l-0.02,0.114
	l-0.025,0.114L77.27,44.84l-0.032,0.11l-0.033,0.109l-0.038,0.108l-0.042,0.107l-0.044,0.104l-0.046,0.104l-0.051,0.101
	l-0.054,0.101l-0.056,0.098l-0.058,0.095l-0.063,0.095l-0.063,0.093l-0.069,0.09l-0.068,0.088l-0.074,0.085l-0.075,0.085
	l-0.076,0.08l-0.081,0.079l-0.081,0.076l-0.085,0.074l-0.087,0.071l-0.09,0.069l-0.089,0.066l-0.096,0.063l-0.095,0.062
	l-0.097,0.057l-0.098,0.056l-0.102,0.052l-0.103,0.05l-0.103,0.047l-0.105,0.042l-0.107,0.04v11.832l0.113,0.145l0.113,0.146
	l0.11,0.148l0.107,0.15l0.105,0.151l0.104,0.156l0.1,0.155l0.098,0.157l0.096,0.159l0.093,0.161l0.089,0.162l0.088,0.164
	l0.085,0.167l0.083,0.165l0.078,0.171l0.077,0.169l0.074,0.172l0.072,0.173l0.067,0.175l0.064,0.178l0.063,0.177l0.062,0.179
	l0.057,0.181l0.054,0.183l0.051,0.183l0.046,0.184l0.044,0.184l0.043,0.188l0.038,0.188l0.036,0.188l0.03,0.189l0.029,0.191
	l0.025,0.193l0.021,0.191l0.021,0.194l0.014,0.195l0.013,0.194l0.009,0.196l0.006,0.198l0.002,0.198l-0.011,0.459l-0.027,0.455
	l-0.047,0.45l-0.063,0.444l-0.08,0.438l-0.098,0.432l-0.115,0.426l-0.13,0.42l-0.146,0.411l-0.163,0.405l-0.176,0.396l-0.193,0.39
	l-0.206,0.379l-0.222,0.369l-0.233,0.361l-0.247,0.352l-0.261,0.342l-0.273,0.33l-0.286,0.32l-0.297,0.31l-0.309,0.296l-0.32,0.286
	l-0.331,0.274l-0.34,0.26l-0.353,0.247l-0.361,0.234l-0.369,0.221l-0.38,0.205l-0.39,0.194l-0.395,0.177l-0.406,0.162l-0.41,0.147
	l-0.42,0.13l-0.426,0.114l-0.433,0.099l-0.438,0.08l-0.444,0.063l-0.45,0.046l-0.455,0.027l-0.46,0.011H19.102l-0.458-0.011
	l-0.456-0.027l-0.448-0.046l-0.446-0.063l-0.437-0.08l-0.433-0.099l-0.427-0.114l-0.419-0.13l-0.413-0.147l-0.404-0.162
	l-0.396-0.177l-0.388-0.194l-0.378-0.205l-0.372-0.221l-0.361-0.234l-0.351-0.247l-0.341-0.26l-0.332-0.274l-0.32-0.286l-0.31-0.296
	l-0.296-0.31l-0.286-0.32l-0.273-0.33l-0.259-0.342L9.85,72.463l-0.234-0.361l-0.22-0.369l-0.208-0.379l-0.191-0.39L8.82,70.568
	l-0.163-0.405l-0.146-0.411l-0.131-0.42l-0.114-0.426l-0.098-0.432l-0.081-0.438l-0.064-0.444l-0.045-0.45L7.95,66.687l-0.009-0.459
	L7.95,65.77l0.029-0.457l0.045-0.448l0.064-0.444l0.081-0.438l0.098-0.432l0.114-0.426l0.131-0.42l0.146-0.413l0.163-0.403
	l0.177-0.396l0.191-0.388l0.208-0.38l0.22-0.371l0.234-0.361l0.249-0.351l0.259-0.341l0.273-0.33l0.286-0.322l0.296-0.308
	l0.31-0.298l0.32-0.284l0.332-0.274l0.341-0.26l0.351-0.249l0.361-0.234l0.372-0.219l0.378-0.208l0.388-0.191l0.396-0.177
	l0.404-0.162l0.413-0.146l0.419-0.131l0.427-0.114l0.433-0.099l0.437-0.079l0.446-0.065l0.448-0.045l0.456-0.027l0.458-0.01h0.016
	h0.015h0.016h0.016l0.016,0.002h0.016h0.016h0.016l0.014,0.001h0.016h0.016l0.016,0.002h0.016h0.014l0.016,0.003h0.016l0.016,0.002
	h0.016l0.014,0.001h0.016l0.016,0.002l0.016,0.001h0.015l0.015,0.002h0.016l0.017,0.003l0.014,0.001h0.016l0.03,0.002l0.016,0.002
	l0.016,0.001h0.016l0.014,0.002h0.016l0.016,0.003h0.016l0.014,0.001l0.016,0.002h0.016l0.013-0.038l0.013-0.035l0.014-0.037
	l0.013-0.036l0.014-0.037l0.012-0.037l0.015-0.036l0.014-0.036l0.014-0.038l0.015-0.035l0.014-0.036l0.014-0.037l0.015-0.036
	l0.014-0.036l0.014-0.035l0.015-0.035l0.015-0.036l0.015-0.036l0.016-0.035l0.014-0.036l0.016-0.036l0.016-0.035l0.014-0.036
	l0.016-0.035l0.016-0.036l0.016-0.034l0.016-0.035l0.016-0.036l0.016-0.033l0.016-0.037l0.018-0.033l0.016-0.035l0.016-0.034
	l0.017-0.036l0.016-0.034l0.019-0.033l0.016-0.036l0.018-0.033l0.017-0.035l0.019-0.034v-15.97h-8.681l-0.46-0.009l-0.456-0.027
	l-0.448-0.046l-0.445-0.064l-0.438-0.081l-0.432-0.098l-0.428-0.114l-0.418-0.131l-0.413-0.146l-0.403-0.161l-0.397-0.177
	l-0.388-0.193l-0.378-0.206l-0.372-0.222l-0.361-0.234l-0.35-0.247l-0.341-0.261l-0.331-0.273l-0.321-0.286l-0.308-0.296
	l-0.298-0.31l-0.287-0.32l-0.271-0.331l-0.261-0.341l-0.248-0.352l-0.234-0.361l-0.22-0.37l-0.207-0.38L1.556,31.28l-0.177-0.397
	l-0.163-0.404L1.07,30.066l-0.13-0.418l-0.114-0.425l-0.099-0.432l-0.08-0.44l-0.064-0.443l-0.044-0.45l-0.028-0.454L0.5,26.544
	l0.009-0.459l0.028-0.456l0.044-0.45l0.064-0.443l0.08-0.438l0.099-0.433l0.114-0.427l0.13-0.418l0.147-0.413l0.163-0.404
	l0.177-0.397l0.191-0.388l0.207-0.38l0.22-0.37l0.234-0.361l0.248-0.352l0.261-0.341l0.271-0.331l0.287-0.32l0.298-0.309
	l0.308-0.296l0.321-0.286l0.331-0.273l0.341-0.259l0.35-0.248l0.361-0.234l0.372-0.22l0.378-0.208l0.388-0.191l0.397-0.179
	l0.403-0.161l0.413-0.146l0.418-0.13l0.428-0.114l0.432-0.099l0.438-0.08l0.445-0.064l0.448-0.046l0.456-0.027l0.46-0.009h0.022
	h0.014h0.016h0.01h0.008h0.005h0.011h0.003h0.011h0.004h0.011h0.008h0.011h0.009h0.011h0.005h0.01h0.008h0.005h0.011l0.102-0.629
	l0.125-0.62l0.147-0.613l0.167-0.606l0.189-0.595l0.209-0.584l0.23-0.576l0.25-0.564l0.269-0.556l0.289-0.541l0.306-0.533
	l0.325-0.518l0.341-0.508l0.359-0.493l0.376-0.48l0.391-0.469l0.407-0.452l0.423-0.438l0.438-0.423l0.452-0.407l0.464-0.392
	l0.479-0.375L19.09,3.65l0.505-0.343l0.517-0.323l0.529-0.307l0.54-0.288l0.55-0.27l0.563-0.25l0.571-0.23l0.58-0.211l0.59-0.189
	l0.599-0.17l0.606-0.148l0.614-0.126l0.621-0.104l0.628-0.082l0.635-0.059l0.64-0.036L29.024,0.5l0.428,0.005L29.877,0.521z
	 M48.108,42.685l-0.376,0.024l-0.375,0.032l-0.371,0.043l-0.37,0.052l-0.366,0.063l-0.365,0.069l-0.362,0.08l-0.359,0.088
	l-0.354,0.097l-0.355,0.107l-0.35,0.113l-0.348,0.124l-0.342,0.13l-0.34,0.14l-0.336,0.148l-0.33,0.157l-0.328,0.164l-0.323,0.172
	l-0.319,0.181l-0.314,0.188l-0.31,0.197l-0.304,0.202l-0.3,0.212l-0.296,0.217l-0.289,0.226l-0.285,0.234l-0.278,0.24l-0.274,0.248
	l-0.268,0.253l-0.261,0.262l-0.256,0.268l-0.248,0.275l-0.243,0.281l-0.236,0.287l-0.229,0.295l-0.223,0.3l-0.214,0.309
	l-0.209,0.313l0.226,0.151l0.22,0.159l0.217,0.162l0.213,0.168l0.209,0.174l0.204,0.177l0.2,0.184l0.194,0.188l0.191,0.191
	l0.186,0.196l0.183,0.202l0.175,0.205l0.17,0.209l0.169,0.214l0.161,0.219l0.155,0.221l0.152,0.226l0.144,0.23l0.142,0.233
	l0.134,0.237l0.129,0.24l0.123,0.244l0.118,0.248l0.111,0.25l0.104,0.254l0.098,0.257l0.094,0.259l0.087,0.264l0.081,0.266
	l0.074,0.268l0.067,0.272l0.06,0.273l0.054,0.275l0.047,0.278l0.04,0.28l0.032,0.284l0.026,0.284l0.019,0.288l0.011,0.288
	l0.003,0.291h-2.48l-0.006-0.358l-0.021-0.354l-0.037-0.35l-0.048-0.345l-0.064-0.342l-0.074-0.335l-0.09-0.331l-0.101-0.327
	l-0.113-0.32l-0.126-0.314l-0.138-0.31l-0.15-0.302l-0.161-0.294l-0.17-0.288l-0.182-0.28l-0.193-0.274l-0.204-0.266l-0.21-0.258
	l-0.224-0.248l-0.23-0.239L36.16,52.42l-0.25-0.223l-0.258-0.212l-0.264-0.201l-0.273-0.193l-0.28-0.183l-0.291-0.171l-0.294-0.161
	l-0.302-0.148l-0.307-0.14l-0.315-0.125l-0.322-0.114l-0.324-0.103l-0.331-0.087l-0.337-0.077l-0.342-0.063l-0.345-0.05l-0.35-0.036
	l-0.354-0.021l-0.357-0.007l-0.269,0.004l-0.265,0.013l-0.266,0.02l-0.26,0.028l-0.261,0.036l-0.258,0.043l-0.256,0.052
	l-0.251,0.057l-0.25,0.066l-0.247,0.073l-0.244,0.08l-0.242,0.086l-0.237,0.095l-0.234,0.101l-0.231,0.107l-0.227,0.113l-0.226,0.12
	l-0.217,0.127l-0.217,0.135l-0.21,0.139l-0.208,0.145l-0.204,0.151l-0.198,0.158l-0.193,0.162l-0.189,0.17l-0.184,0.174L24.04,52.74
	l-0.173,0.184l-0.168,0.189l-0.164,0.196l-0.158,0.2l-0.151,0.206l-0.145,0.208l-0.141,0.218l-0.134,0.217l-0.127,0.226
	l-0.121,0.227l-0.115,0.232l-0.108,0.238l-0.102,0.24l0.345,0.107l0.342,0.118l0.334,0.128l0.33,0.139l0.325,0.149l0.318,0.159
	l0.313,0.169l0.307,0.178l0.302,0.188l0.293,0.196l0.288,0.206l0.28,0.215l0.275,0.224l0.267,0.231l0.259,0.238l0.25,0.249
	l0.245,0.256l0.234,0.263l0.227,0.27l0.22,0.279l0.208,0.283l0.202,0.291l0.191,0.297l0.183,0.307l0.173,0.308l0.165,0.317
	l0.152,0.321l0.144,0.328l0.133,0.333l0.123,0.338l0.11,0.343l0.102,0.349l0.089,0.352l0.08,0.358l0.068,0.359l0.055,0.365
	l0.043,0.368l0.031,0.372l0.019,0.375l0.005,0.379h-2.479l-0.009-0.357l-0.021-0.354l-0.036-0.351l-0.048-0.345l-0.063-0.342
	l-0.076-0.335l-0.09-0.333l-0.101-0.325l-0.113-0.319L27.1,62.853l-0.137-0.31l-0.148-0.302l-0.161-0.295l-0.172-0.288l-0.182-0.28
	l-0.193-0.273l-0.202-0.266l-0.213-0.258l-0.221-0.248l-0.232-0.242l-0.239-0.229l-0.25-0.223l-0.258-0.212l-0.264-0.204
	l-0.273-0.19l-0.281-0.183l-0.29-0.172l-0.294-0.16l-0.302-0.15l-0.307-0.138l-0.315-0.125l-0.32-0.115l-0.327-0.102l-0.331-0.089
	l-0.336-0.075l-0.34-0.063l-0.347-0.05l-0.348-0.036l-0.354-0.021l-0.358-0.007l-0.356,0.007l-0.354,0.021l-0.35,0.036l-0.345,0.05
	l-0.341,0.063l-0.336,0.075l-0.332,0.089l-0.326,0.102l-0.32,0.115l-0.314,0.125l-0.31,0.138l-0.302,0.15l-0.295,0.16l-0.288,0.172
	l-0.281,0.183l-0.274,0.19l-0.264,0.204l-0.258,0.212l-0.248,0.223l-0.241,0.229l-0.231,0.242l-0.221,0.248l-0.213,0.258
	l-0.204,0.266l-0.191,0.273l-0.182,0.28l-0.172,0.288l-0.161,0.295l-0.15,0.302l-0.138,0.31l-0.125,0.314l-0.115,0.319l-0.101,0.325
	l-0.09,0.333l-0.075,0.335l-0.063,0.342l-0.05,0.345l-0.036,0.351l-0.021,0.354l-0.007,0.357l0.007,0.358l0.021,0.354l0.036,0.349
	l0.05,0.347l0.063,0.341l0.075,0.336l0.09,0.33l0.101,0.328l0.115,0.319l0.125,0.314l0.138,0.31l0.15,0.3l0.161,0.297l0.172,0.287
	l0.182,0.281l0.191,0.273l0.204,0.266l0.213,0.258l0.221,0.248l0.231,0.239l0.241,0.232l0.248,0.223l0.258,0.213l0.264,0.201
	l0.274,0.192l0.281,0.183l0.288,0.171l0.295,0.161l0.302,0.148l0.31,0.138l0.314,0.127l0.32,0.114l0.326,0.103l0.332,0.087
	l0.336,0.077l0.341,0.063l0.345,0.05l0.35,0.036l0.354,0.021l0.356,0.007h47.125l0.358-0.007l0.354-0.021l0.348-0.036l0.348-0.05
	l0.34-0.063l0.337-0.077l0.331-0.087l0.326-0.103l0.32-0.114l0.314-0.127l0.309-0.138l0.301-0.148l0.297-0.161l0.287-0.171
	l0.281-0.183l0.272-0.192l0.267-0.201l0.258-0.213l0.248-0.223l0.239-0.232l0.232-0.239l0.222-0.248l0.212-0.258l0.202-0.266
	l0.193-0.273l0.182-0.281l0.172-0.287l0.161-0.297l0.148-0.3l0.138-0.31l0.127-0.314l0.113-0.319l0.103-0.328l0.088-0.33
	l0.076-0.336l0.063-0.341l0.051-0.347l0.035-0.349l0.021-0.354l0.008-0.358l-0.008-0.357l-0.021-0.354l-0.035-0.351l-0.051-0.345
	l-0.063-0.342l-0.076-0.335l-0.088-0.333l-0.103-0.325l-0.113-0.319l-0.127-0.314l-0.138-0.31l-0.148-0.302l-0.161-0.295
	l-0.172-0.288l-0.182-0.28l-0.193-0.273l-0.202-0.266l-0.212-0.258l-0.222-0.248l-0.232-0.242l-0.239-0.229l-0.248-0.223
	l-0.258-0.212l-0.267-0.204l-0.272-0.19l-0.281-0.183l-0.287-0.172l-0.297-0.16l-0.301-0.15l-0.309-0.138l-0.314-0.125l-0.32-0.115
	l-0.326-0.102l-0.331-0.089l-0.337-0.075l-0.34-0.063l-0.348-0.05l-0.348-0.036l-0.354-0.021l-0.358-0.007h-0.024h-0.026h-0.025
	h-0.024l-0.027,0.002h-0.024h-0.026l-0.026,0.001h-0.026l-0.027,0.003h-0.024l-0.027,0.001l-0.026,0.002l-0.027,0.002h-0.027
	l-0.027,0.001l-0.026,0.002l-0.029,0.003l-0.026,0.001l-0.028,0.002l-0.029,0.003l-0.028,0.002l-0.028,0.003l-0.029,0.001
	l-0.027,0.004l-0.029,0.001l-0.03,0.005l-0.029,0.003l-0.029,0.002l-0.031,0.003l-0.03,0.004l-0.03,0.004l-0.03,0.003l-0.032,0.004
	l-0.031,0.004l-0.032,0.003l-0.03,0.004l-0.032,0.004l-0.032,0.006l-0.035,0.003l-1.304,0.17l-0.094-1.314L63.64,55.91l-0.073-0.572
	l-0.097-0.564l-0.115-0.556l-0.138-0.549l-0.157-0.542l-0.177-0.53l-0.197-0.523l-0.215-0.513l-0.234-0.503l-0.251-0.493
	l-0.269-0.48l-0.286-0.47l-0.304-0.459l-0.318-0.447l-0.335-0.434l-0.35-0.423l-0.366-0.407l-0.378-0.394l-0.394-0.382l-0.405-0.364
	l-0.421-0.353l-0.434-0.334l-0.442-0.32l-0.458-0.303l-0.469-0.286l-0.479-0.271l-0.488-0.253l-0.499-0.234l-0.511-0.216
	l-0.516-0.199l-0.527-0.179l-0.534-0.158l-0.544-0.14l-0.55-0.117l-0.556-0.1l-0.564-0.076l-0.568-0.058l-0.575-0.032l-0.581-0.012
	l-0.38,0.005L48.108,42.685z M22.824,50.463l0.069-0.061l0.07-0.063l0.07-0.059l0.072-0.062l0.071-0.059l0.072-0.059l0.073-0.058
	l0.073-0.06l0.073-0.055l0.073-0.058l0.075-0.055l0.075-0.057l0.075-0.054l0.075-0.052l0.076-0.054l0.077-0.052l0.078-0.053
	l0.078-0.052l0.077-0.051l0.078-0.049l0.081-0.049l0.079-0.048l0.081-0.049l0.08-0.048l0.082-0.047l0.081-0.045l0.081-0.046
	l0.082-0.044l0.083-0.043l0.082-0.043l0.084-0.043l0.084-0.043l0.082-0.042l0.086-0.039l0.083-0.041l0.084-0.037l0.086-0.04
	l0.086-0.037l0.086-0.038l0.086-0.035l-0.031-0.045l-0.03-0.047l-0.028-0.046l-0.029-0.046l-0.029-0.047l-0.027-0.048l-0.027-0.046
	l-0.027-0.05l-0.024-0.05l-0.025-0.048l-0.023-0.051l-0.022-0.049l-0.024-0.051l-0.021-0.05l-0.021-0.052l-0.019-0.052l-0.021-0.052
	l-0.017-0.052l-0.021-0.052l-0.016-0.054l-0.015-0.053l-0.016-0.054l-0.016-0.055l-0.015-0.054l-0.012-0.054l-0.013-0.055
	l-0.013-0.056l-0.011-0.056l-0.008-0.056l-0.009-0.056l-0.01-0.057l-0.006-0.057l-0.007-0.057l-0.005-0.057l-0.005-0.057
	l-0.003-0.06l-0.003-0.057l-0.002-0.057l-0.002-0.06v-0.059l0.002-0.153l0.009-0.151l0.016-0.15l0.021-0.148l0.027-0.146
	l0.032-0.143l0.04-0.144l0.042-0.14l0.048-0.138l0.054-0.134l0.061-0.132l0.063-0.131l0.07-0.125l0.073-0.125l0.078-0.12
	l0.083-0.117l0.086-0.113l0.091-0.11l0.095-0.107l0.099-0.102l0.103-0.101l0.105-0.095l0.11-0.091l0.115-0.086l0.116-0.084
	l0.122-0.077l0.124-0.073l0.127-0.069l0.129-0.064l0.132-0.059l0.134-0.054l0.138-0.048l0.14-0.046l0.143-0.037l0.143-0.032
	l0.146-0.027l0.148-0.021l0.15-0.016l0.152-0.009l0.153-0.003l0.153,0.003l0.151,0.009l0.15,0.016l0.148,0.021l0.146,0.027
	l0.143,0.032l0.143,0.037l0.14,0.046l0.138,0.048l0.134,0.054l0.132,0.059l0.129,0.064l0.126,0.069l0.124,0.073l0.122,0.077
	l0.116,0.084l0.114,0.086l0.11,0.091l0.105,0.095l0.104,0.101l0.098,0.102l0.097,0.107l0.091,0.11l0.086,0.113l0.082,0.117
	l0.08,0.12l0.073,0.125l0.07,0.125l0.063,0.131l0.06,0.132l0.054,0.134l0.048,0.138l0.043,0.14l0.04,0.144l0.032,0.143l0.027,0.146
	l0.021,0.148l0.017,0.15l0.008,0.151l0.001,0.153v0.038v0.04l-0.001,0.037v0.04l-0.002,0.037l-0.003,0.037l-0.002,0.04l-0.003,0.037
	l-0.002,0.038l-0.005,0.037l-0.003,0.039l-0.004,0.037l-0.004,0.038l-0.005,0.037l-0.005,0.036l-0.005,0.037l-0.008,0.038
	l-0.007,0.036l-0.006,0.037l-0.008,0.037l-0.007,0.036l-0.009,0.036l-0.008,0.037l-0.008,0.036l-0.011,0.035l-0.008,0.035
	l-0.011,0.037l-0.01,0.035l-0.01,0.036l-0.011,0.036l-0.013,0.033L32.55,47.57l-0.013,0.033l-0.012,0.036l-0.013,0.034L32.5,47.708
	l-0.012,0.033l-0.015,0.034l-0.014,0.033l-0.014,0.035l0.044,0.008l0.043,0.01l0.045,0.011l0.043,0.009l0.044,0.009l0.043,0.011
	l0.043,0.009l0.045,0.011l0.043,0.012l0.043,0.011l0.042,0.01l0.045,0.011l0.043,0.012l0.043,0.012l0.043,0.011l0.043,0.013
	l0.043,0.011l0.041,0.012l0.043,0.013l0.043,0.012l0.043,0.014l0.043,0.013l0.041,0.013l0.043,0.014l0.043,0.014l0.041,0.012
	l0.043,0.015l0.041,0.014l0.043,0.013l0.041,0.015l0.043,0.014l0.041,0.015l0.042,0.015l0.043,0.014l0.041,0.015l0.041,0.016
	l0.043,0.014l0.041,0.016l0.042,0.016l0.041,0.017l0.242-0.377l0.251-0.367l0.259-0.36l0.266-0.353l0.277-0.345l0.283-0.338
	l0.292-0.328l0.299-0.322l0.307-0.313l0.313-0.303l0.322-0.298l0.329-0.287l0.334-0.278l0.342-0.27l0.348-0.264l0.354-0.251
	l0.359-0.243l0.366-0.234l0.372-0.226l0.377-0.216l0.383-0.205l0.388-0.197l0.394-0.188L42,41.599l0.401-0.167l0.407-0.157
	l0.411-0.147l0.414-0.137l0.419-0.127l0.424-0.116l0.425-0.105l0.429-0.095l0.433-0.085l0.436-0.071l0.438-0.063l0.441-0.05
	l0.443-0.042l0.446-0.027l0.447-0.017l0.45-0.007l0.162,0.002l0.163,0.001l0.162,0.004l0.162,0.006l0.164,0.006l0.16,0.01L50,40.222
	l0.161,0.013l0.16,0.012l0.159,0.016l0.159,0.016l0.159,0.017l0.159,0.02l0.159,0.019l0.156,0.021l0.157,0.024l0.158,0.024
	l0.156,0.024l0.156,0.027l0.155,0.028l0.155,0.03l0.155,0.032l0.154,0.032l0.153,0.033l0.153,0.037l0.154,0.037l0.152,0.038
	l0.151,0.041l0.151,0.04l0.15,0.041l0.15,0.045l0.149,0.046l0.148,0.046l0.15,0.048l0.147,0.049l0.147,0.049l0.146,0.053
	l0.146,0.053l0.146,0.054l0.145,0.056v-1.157H22.824V50.463z M28.542,45.243l-0.21,0.114l-0.184,0.152l-0.153,0.184l-0.114,0.21
	l-0.072,0.232l-0.025,0.25l0.025,0.25l0.072,0.232l0.114,0.21l0.153,0.184l0.184,0.15l0.21,0.116l0.232,0.072l0.25,0.024
	l0.249-0.024l0.233-0.072l0.21-0.116l0.184-0.15l0.152-0.184l0.114-0.21l0.072-0.232l0.024-0.25l-0.024-0.25l-0.072-0.232
	l-0.114-0.21L29.9,45.51l-0.184-0.152l-0.21-0.114l-0.233-0.073l-0.249-0.025l-0.25,0.025L28.542,45.243z M73.186,42.763
	l-0.211,0.115l-0.184,0.151l-0.15,0.184l-0.116,0.209l-0.07,0.234l-0.026,0.248l0.026,0.251l0.07,0.231l0.116,0.211l0.15,0.185
	l0.184,0.15l0.211,0.115l0.233,0.072l0.25,0.024l0.248-0.024l0.232-0.072l0.211-0.115l0.185-0.15l0.151-0.185l0.114-0.211
	l0.073-0.231l0.025-0.251l-0.025-0.248l-0.073-0.234l-0.114-0.209l-0.151-0.184l-0.185-0.151l-0.211-0.115l-0.232-0.073
	l-0.248-0.024l-0.25,0.024L73.186,42.763z M63.265,35.321l-0.211,0.115l-0.182,0.152l-0.153,0.184l-0.113,0.211l-0.073,0.232
	l-0.024,0.249l0.024,0.25l0.073,0.232l0.113,0.211l0.153,0.184l0.182,0.152l0.211,0.115l0.232,0.071l0.25,0.025l0.251-0.025
	l0.231-0.071l0.211-0.115l0.183-0.152l0.151-0.184l0.115-0.211l0.072-0.232l0.025-0.25l-0.025-0.249l-0.072-0.232l-0.115-0.211
	l-0.151-0.184l-0.183-0.152l-0.211-0.115l-0.231-0.071l-0.251-0.026l-0.25,0.026L63.265,35.321z M22.824,37.704h32.242v-12.4H22.824
	V37.704z M27.868,3.025l-0.571,0.056l-0.562,0.077l-0.559,0.098l-0.548,0.119l-0.543,0.14l-0.534,0.159l-0.527,0.179l-0.518,0.198
	l-0.509,0.216l-0.498,0.234l-0.49,0.252l-0.479,0.27l-0.466,0.288l-0.458,0.304l-0.445,0.318l-0.432,0.336l-0.42,0.35l-0.406,0.366
	l-0.394,0.381l-0.379,0.393l-0.364,0.41l-0.35,0.421L17.08,9.024l-0.32,0.447l-0.302,0.457l-0.286,0.47l-0.271,0.482l-0.25,0.493
	l-0.234,0.502l-0.217,0.513l-0.194,0.521l-0.179,0.533l-0.158,0.54l-0.135,0.549l-0.118,0.558l-0.095,0.564l-0.075,0.572
	l-0.051,0.578l-0.093,1.313l-1.305-0.17l-0.031-0.005l-0.033-0.004l-0.032-0.003l-0.031-0.003l-0.032-0.005l-0.032-0.004
	l-0.03-0.003l-0.031-0.004l-0.03-0.002l-0.03-0.003l-0.031-0.004l-0.03-0.003l-0.03-0.002l-0.029-0.003l-0.028-0.002l-0.031-0.003
	l-0.028-0.002l-0.029-0.001l-0.029-0.004l-0.027-0.001l-0.028-0.001l-0.029-0.002l-0.027-0.001l-0.027-0.001l-0.028-0.002
	l-0.027-0.001L12,17.87h-0.027l-0.027-0.002l-0.027-0.001h-0.025l-0.027-0.001H11.84h-0.024l-0.027-0.002h-0.026h-0.025h-0.027
	h-0.024h-0.025l-0.358,0.008l-0.354,0.021l-0.35,0.035l-0.345,0.048L9.914,18.04l-0.335,0.075l-0.333,0.09L8.92,18.306l-0.32,0.114
	l-0.314,0.125l-0.31,0.137l-0.302,0.15L7.38,18.994l-0.288,0.172l-0.28,0.18l-0.273,0.193l-0.267,0.204l-0.257,0.21l-0.248,0.224
	l-0.242,0.23l-0.23,0.242l-0.221,0.248L4.86,21.154l-0.204,0.264l-0.191,0.273l-0.183,0.281l-0.171,0.289l-0.161,0.295L3.8,22.859
	l-0.137,0.307l-0.125,0.314l-0.114,0.322l-0.102,0.325l-0.09,0.332l-0.075,0.336l-0.063,0.341l-0.05,0.345l-0.035,0.35l-0.021,0.354
	L2.98,26.544l0.008,0.355l0.021,0.354l0.035,0.35l0.05,0.347l0.063,0.339l0.075,0.338l0.09,0.331l0.102,0.326l0.114,0.322
	l0.125,0.314L3.8,30.227l0.15,0.302l0.161,0.295l0.171,0.29l0.183,0.28l0.191,0.274l0.204,0.264l0.213,0.257l0.221,0.25l0.23,0.239
	l0.242,0.23l0.248,0.223l0.257,0.213l0.267,0.202l0.273,0.193l0.28,0.182l0.288,0.172l0.295,0.159l0.302,0.15l0.31,0.138
	l0.314,0.127l0.32,0.112l0.325,0.103l0.333,0.089l0.335,0.077l0.342,0.063l0.345,0.048l0.35,0.036l0.354,0.021l0.358,0.007h8.681
	V14.142l0.005-0.255l0.014-0.252l0.025-0.25l0.037-0.247l0.044-0.245l0.056-0.24l0.063-0.237l0.073-0.233l0.081-0.228l0.091-0.226
	l0.098-0.22l0.107-0.214l0.115-0.21l0.122-0.208l0.13-0.2l0.138-0.195l0.145-0.189l0.151-0.184l0.159-0.179l0.164-0.172l0.172-0.164
	l0.179-0.159l0.183-0.152l0.191-0.145l0.195-0.138l0.201-0.13l0.205-0.122l0.211-0.114l0.216-0.107l0.22-0.099l0.226-0.089
	l0.228-0.083l0.233-0.073l0.237-0.063l0.24-0.055l0.243-0.045l0.248-0.034l0.25-0.026l0.253-0.015l0.256-0.005h13.544l-0.213-0.232
	l-0.216-0.227l-0.22-0.224l-0.226-0.216L38.986,6.83l-0.234-0.207L38.513,6.42l-0.239-0.197l-0.244-0.193L37.78,5.845l-0.251-0.181
	l-0.256-0.175L37.014,5.32l-0.263-0.165l-0.264-0.159l-0.27-0.153l-0.271-0.148L35.67,4.553l-0.277-0.136l-0.281-0.13l-0.283-0.125
	l-0.287-0.118l-0.287-0.113l-0.293-0.105l-0.293-0.102l-0.296-0.093l-0.299-0.089l-0.3-0.081l-0.302-0.077l-0.306-0.07l-0.307-0.063
	l-0.308-0.057L31.24,3.145l-0.313-0.042l-0.313-0.038l-0.316-0.031l-0.316-0.023l-0.318-0.016l-0.32-0.011l-0.32-0.004l-0.58,0.011
	L27.868,3.025z M26.39,10.425l-0.151,0.009l-0.15,0.014l-0.148,0.021l-0.144,0.027l-0.145,0.032l-0.143,0.039l-0.14,0.043
	l-0.138,0.048l-0.134,0.056l-0.132,0.059l-0.129,0.063l-0.126,0.068l-0.124,0.073l-0.122,0.079l-0.116,0.082l-0.114,0.087
	l-0.111,0.091l-0.105,0.095l-0.104,0.098l-0.098,0.104l-0.097,0.106l-0.091,0.109l-0.086,0.114l-0.082,0.118l-0.08,0.12
	l-0.073,0.124l-0.07,0.127l-0.062,0.129l-0.059,0.132l-0.055,0.136l-0.048,0.135l-0.043,0.142l-0.04,0.141l-0.032,0.145
	l-0.027,0.146l-0.021,0.147l-0.015,0.15l-0.011,0.152l-0.001,0.154v8.681h32.242v-8.681l-0.003-0.154l-0.009-0.152l-0.015-0.15
	l-0.021-0.147l-0.026-0.146l-0.034-0.145l-0.038-0.141l-0.043-0.142l-0.049-0.135l-0.054-0.136l-0.06-0.132l-0.064-0.129
	l-0.067-0.127l-0.073-0.124l-0.079-0.12l-0.082-0.118l-0.088-0.114l-0.091-0.109l-0.096-0.106l-0.098-0.104l-0.104-0.098
	l-0.106-0.095l-0.111-0.091l-0.112-0.087l-0.118-0.082l-0.119-0.079l-0.124-0.073l-0.127-0.068l-0.129-0.063l-0.132-0.059
	l-0.137-0.056l-0.138-0.048l-0.138-0.043l-0.143-0.039l-0.145-0.032l-0.146-0.027l-0.148-0.021l-0.147-0.014L51.5,10.425
	l-0.153-0.004H26.544L26.39,10.425z M63.265,12.998l-0.211,0.117l-0.182,0.15l-0.153,0.184l-0.113,0.211l-0.073,0.232l-0.024,0.25
	l0.024,0.249l0.073,0.234l0.113,0.209l0.153,0.184l0.182,0.152l0.211,0.114l0.232,0.074l0.25,0.025l0.251-0.025l0.231-0.074
	l0.211-0.114l0.183-0.152l0.151-0.184l0.115-0.209l0.072-0.234l0.025-0.249l-0.025-0.25L64.89,13.66l-0.115-0.211l-0.151-0.184
	l-0.183-0.15l-0.211-0.117l-0.231-0.071l-0.251-0.025l-0.25,0.025L63.265,12.998z M70.707,3.079l-0.211,0.114l-0.185,0.152
	l-0.149,0.182l-0.117,0.211l-0.07,0.232l-0.025,0.25l0.025,0.25l0.07,0.232l0.117,0.211l0.149,0.182l0.185,0.152l0.211,0.115
	l0.232,0.073l0.25,0.025l0.248-0.025l0.234-0.073l0.209-0.115l0.185-0.152l0.151-0.182l0.114-0.211l0.073-0.232l0.024-0.25
	l-0.024-0.25l-0.073-0.232l-0.114-0.211l-0.151-0.182L71.88,3.193l-0.209-0.114l-0.234-0.073L71.189,2.98l-0.25,0.025L70.707,3.079z
	"/>
<path id="b5SPCsRUgL_5_" fill="#1D73F8" d="M48.866,47.625c5.47,0,9.922,4.451,9.922,9.922c0.248,0,2.231,0,2.479,0
	c0-6.839-5.563-12.402-12.401-12.402C48.866,45.642,48.866,47.377,48.866,47.625z"/>
<path id="b5SPCsRUgL_4_" fill="#1D73F8" fill-opacity="0" stroke="#000000" stroke-opacity="0" d="M48.866,47.625
	c5.47,0,9.922,4.451,9.922,9.922c0.248,0,2.231,0,2.479,0c0-6.839-5.563-12.402-12.401-12.402
	C48.866,45.642,48.866,47.377,48.866,47.625z"/>
<path id="d1dyHKhiVe_5_" fill="#1D73F8" d="M19.102,62.508c0-0.249,0-2.231,0-2.481c-3.419,0-6.2,2.783-6.2,6.201
	c0,3.419,2.781,6.202,6.2,6.202c1.157,0,6.945,0,17.362,0v-2.481c-10.417,0-16.205,0-17.362,0c-2.051,0-3.72-1.669-3.72-3.721
	C15.382,64.177,17.051,62.508,19.102,62.508z"/>
<path id="d1dyHKhiVe_4_" fill="#1D73F8" fill-opacity="0" stroke="#000000" stroke-opacity="0" d="M19.102,62.508
	c0-0.249,0-2.231,0-2.481c-3.419,0-6.2,2.783-6.2,6.201c0,3.419,2.781,6.202,6.2,6.202c1.157,0,6.945,0,17.362,0v-2.481
	c-10.417,0-16.205,0-17.362,0c-2.051,0-3.72-1.669-3.72-3.721C15.382,64.177,17.051,62.508,19.102,62.508z"/>
<path id="aja22cC81_5_" fill="#1D73F8" d="M38.944,69.948h2.48v2.481h-2.48V69.948z"/>
<path id="aja22cC81_4_" fill="#1D73F8" fill-opacity="0" stroke="#000000" stroke-opacity="0" d="M38.944,69.948h2.48v2.481h-2.48
	V69.948z"/>
<path id="bGcSC6Fvf_5_" fill="#1D73F8" d="M43.904,69.948h2.481v2.481h-2.481V69.948z"/>
<path id="bGcSC6Fvf_4_" fill="#1D73F8" fill-opacity="0" stroke="#000000" stroke-opacity="0" d="M43.904,69.948h2.481v2.481h-2.481
	V69.948z"/>
<path id="etHXqfDf_5_" fill="#1D73F8" d="M67.468,63.747c1.366,0,2.48,1.112,2.48,2.48c0.248,0,2.231,0,2.479,0
	c0-2.735-2.225-4.96-4.96-4.96C67.468,61.764,67.468,63.499,67.468,63.747z"/>
<path id="etHXqfDf_4_" fill="#1D73F8" fill-opacity="0" stroke="#000000" stroke-opacity="0" d="M67.468,63.747
	c1.366,0,2.48,1.112,2.48,2.48c0.248,0,2.231,0,2.479,0c0-2.735-2.225-4.96-4.96-4.96C67.468,61.764,67.468,63.499,67.468,63.747z"
	/>
<path id="b1wtLCDRxa_5_" fill="#1D73F8" d="M5.461,26.544c0,3.418,2.782,6.199,6.201,6.199c0.082,0,0.494,0,1.24,0v-2.48
	c-0.746,0-1.158,0-1.24,0c-2.052,0-3.721-1.669-3.721-3.719C7.444,26.544,5.709,26.544,5.461,26.544z"/>
<path id="b1wtLCDRxa_4_" fill="#1D73F8" fill-opacity="0" stroke="#000000" stroke-opacity="0" d="M5.461,26.544
	c0,3.418,2.782,6.199,6.201,6.199c0.082,0,0.494,0,1.24,0v-2.48c-0.746,0-1.158,0-1.24,0c-2.052,0-3.721-1.669-3.721-3.719
	C7.444,26.544,5.709,26.544,5.461,26.544z"/>
<path id="aBYr0bmfc_5_" fill="#1D73F8" d="M15.382,30.263h2.48v2.48h-2.48V30.263z"/>
<path id="aBYr0bmfc_4_" fill="#1D73F8" fill-opacity="0" stroke="#000000" stroke-opacity="0" d="M15.382,30.263h2.48v2.48h-2.48
	V30.263z"/>
</svg>
