<?xml version="1.0" encoding="utf-8"?>
<!-- Generator: Adobe Illustrator 15.0.0, SVG Export Plug-In  -->
<!DOCTYPE svg PUBLIC "-//W3C//DTD SVG 1.1//EN" "http://www.w3.org/Graphics/SVG/1.1/DTD/svg11.dtd" [
	<!ENTITY ns_flows "http://ns.adobe.com/Flows/1.0/">
]>
<svg version="1.1"
	 xmlns="http://www.w3.org/2000/svg" xmlns:xlink="http://www.w3.org/1999/xlink" xmlns:a="http://ns.adobe.com/AdobeSVGViewerExtensions/3.0/"
	 x="0px" y="0px" width="80px" height="80px" viewBox="-1.916 -7.195 80 80" enable-background="new -1.916 -7.195 80 80"
	 xml:space="preserve">
<defs>
</defs>
<rect x="66.228" y="27.757" fill="#1D73F8" width="2.262" height="4.851"/>
<path fill="#231F20" d="M69.218,10.123V2.938C69.218,1.318,67.899,0,66.28,0H43.547c-1.619,0-2.938,1.318-2.938,2.938v7.186h-5.727
	V2.938C34.883,1.318,33.564,0,31.943,0H9.212c-1.62,0-2.938,1.318-2.938,2.938v7.186H0V65.61h76.168V10.123H69.218z M42.872,2.938
	c0-0.372,0.303-0.675,0.675-0.675h22.732c0.372,0,0.676,0.304,0.676,0.675v7.186h-4.106V4.282h-2.262v5.841H42.872V2.938z
	 M8.535,2.938c0-0.372,0.304-0.675,0.677-0.675h22.731c0.373,0,0.676,0.304,0.676,0.675v7.186h-4.332V4.282h-2.264v5.841H8.535
	V2.938z M73.905,63.348H68.49V34.784h-2.262v28.564H2.263V12.386h4.011h28.609h5.727h28.608h4.688V63.348L73.905,63.348z"/>
<path fill="#1D73F8" d="M57.391,35.745c-0.153-0.012-0.308-0.018-0.46-0.018c-1.536,0-2.992,0.586-4.101,1.65
	c-0.008,0.008-0.016,0.016-0.023,0.023V25.346H40.753c0.007-0.008,0.015-0.016,0.021-0.023c1.167-1.214,1.762-2.876,1.634-4.561
	c-0.216-2.83-2.416-5.111-5.232-5.422c-0.223-0.023-0.447-0.037-0.67-0.037c-3.264,0-5.918,2.655-5.918,5.92
	c0,1.549,0.594,3.013,1.674,4.123H20.207v14.778h1.131c0.93,0,1.82-0.371,2.443-1.018c0.763-0.789,1.817-1.191,2.92-1.105
	c1.718,0.131,3.155,1.516,3.345,3.225c0.116,1.059-0.206,2.074-0.909,2.859c-0.693,0.773-1.686,1.219-2.725,1.219
	c-0.986,0-1.911-0.389-2.604-1.092c-0.475-0.48-1.068-0.811-1.717-0.959c-0.113-0.025-0.229-0.037-0.344-0.037
	c-0.85,0-1.541,0.689-1.541,1.537v13.193h13.238c0.848,0,1.539-0.689,1.539-1.539c0-0.93-0.371-1.82-1.018-2.443
	c-0.786-0.76-1.188-1.824-1.105-2.92c0.131-1.719,1.518-3.156,3.225-3.344c0.141-0.016,0.281-0.023,0.421-0.023
	c2.017,0,3.656,1.641,3.656,3.656c0,0.982-0.385,1.904-1.083,2.598c-0.678,0.672-1.051,1.545-1.051,2.465
	c0,0.855,0.696,1.551,1.552,1.551h13.226V45.891c1.11,1.08,2.574,1.674,4.124,1.674c1.681,0,3.288-0.719,4.41-1.971
	c1.121-1.252,1.657-2.936,1.472-4.617C62.501,38.161,60.221,35.959,57.391,35.745z M59.655,44.083
	c-0.693,0.775-1.687,1.221-2.725,1.221c-0.96,0-1.868-0.371-2.555-1.043c-0.721-0.703-1.679-1.092-2.7-1.092h-1.132v12.516h-10
	c0.038-0.051,0.081-0.102,0.129-0.148c1.131-1.119,1.754-2.611,1.754-4.203c0-3.264-2.656-5.92-5.92-5.92
	c-0.222,0-0.447,0.014-0.669,0.037c-2.816,0.313-5.018,2.592-5.232,5.422c-0.135,1.77,0.518,3.49,1.791,4.719
	c0.029,0.029,0.057,0.061,0.084,0.092H22.47v-9.623c1.086,0.975,2.472,1.506,3.942,1.506c1.682,0,3.289-0.719,4.41-1.971
	c1.122-1.252,1.658-2.936,1.472-4.617c-0.311-2.816-2.591-5.018-5.421-5.232c-0.152-0.012-0.309-0.018-0.461-0.018
	c-1.473,0-2.857,0.531-3.942,1.504v-9.624h12.515v-1.131c0-1.02-0.389-1.979-1.092-2.699c-0.672-0.688-1.041-1.594-1.041-2.555
	c0-2.017,1.639-3.658,3.655-3.658c0.14,0,0.281,0.009,0.421,0.023c1.708,0.189,3.094,1.627,3.226,3.346
	c0.079,1.059-0.278,2.061-1.01,2.82c-0.718,0.748-1.113,1.715-1.113,2.723v1.131h12.514v12.516h1.132
	c1.008,0,1.975-0.396,2.723-1.115c0.753-0.723,1.771-1.088,2.821-1.008c1.718,0.129,3.156,1.516,3.344,3.225
	C60.681,42.284,60.358,43.299,59.655,44.083z"/>
</svg>
