<svg width="68" height="68" viewBox="0 0 68 68" fill="none" xmlns="http://www.w3.org/2000/svg">
<path d="M61.1448 29.4932H59.125V33.8237H61.1448V29.4932Z" fill="black"/>
<path d="M61.7943 13.7511V7.33643C61.7943 5.8901 60.6178 4.71338 59.1714 4.71338H38.877C37.4307 4.71338 36.254 5.8901 36.254 7.33643V13.751H31.1409V7.33643C31.1409 5.8901 29.9642 4.71338 28.5179 4.71338H8.22348C6.77702 4.71338 5.60044 5.8901 5.60044 7.33643V13.751H0V63.287H68V13.7511H61.7943ZM38.2736 7.33643C38.2736 7.00373 38.5443 6.73319 38.8769 6.73319H59.1713C59.5039 6.73319 59.7744 7.00386 59.7744 7.33643V13.751H56.1093V8.53586H54.0895V13.7511H38.2736V7.33643ZM7.61998 7.33643C7.61998 7.00373 7.89066 6.73319 8.22322 6.73319H28.5175C28.8501 6.73319 29.1207 7.00386 29.1207 7.33643V13.751H25.2524V8.53586H23.2326V13.7511H7.61998V7.33643ZM65.9802 61.2673H61.1453V35.7664H59.1255V61.2673H2.01981V15.7708H5.6003H31.1408H36.2538H61.7943H65.9802V61.2673V61.2673Z" fill="black"/>
<path d="M51.2358 36.6241C51.0993 36.6137 50.9613 36.6084 50.8252 36.6084C49.4533 36.6084 48.1534 37.132 47.1646 38.0821C47.1574 38.0889 47.1506 38.0955 47.1435 38.102V27.3405H36.3821C36.3887 27.3333 36.3952 27.3266 36.4019 27.3195C37.4428 26.2363 37.9744 24.7523 37.8599 23.248C37.6674 20.7211 35.703 18.6855 33.1887 18.4079C32.9903 18.3862 32.7892 18.375 32.5911 18.375C29.6773 18.375 27.3069 20.7454 27.3069 23.6593C27.3069 25.0425 27.8373 26.3493 28.801 27.3408H18.0391V40.5336H19.049C19.8788 40.5336 20.6742 40.2026 21.2312 39.6258C21.9115 38.9215 22.8533 38.5625 23.8371 38.6383C25.3708 38.7549 26.6545 39.9925 26.8229 41.5168C26.9274 42.4625 26.6395 43.3692 26.0121 44.0698C25.393 44.761 24.5064 45.1574 23.5793 45.1574C22.6987 45.1574 21.8732 44.8119 21.2549 44.1842C20.8317 43.7549 20.3017 43.4586 19.7219 43.3277C19.6214 43.3048 19.5182 43.2933 19.4155 43.2933C18.6565 43.2933 18.0391 43.9094 18.0391 44.667V56.4449H29.8582C30.6156 56.4449 31.2319 55.8288 31.2319 55.0714C31.2319 54.2415 30.9009 53.446 30.324 52.889C29.622 52.2112 29.2623 51.2612 29.3365 50.2829C29.4532 48.7492 30.6908 47.4657 32.2152 47.2973C32.3404 47.2834 32.4669 47.2765 32.5912 47.2765C34.3912 47.2765 35.8557 48.741 35.8557 50.541C35.8557 51.4184 35.5124 52.2417 34.8887 52.8594C34.2838 53.4589 33.9504 54.2401 33.9504 55.0594C33.9504 55.8235 34.572 56.445 35.3362 56.445H47.1432V45.6831C48.1346 46.6467 49.4414 47.1772 50.8246 47.1772C52.3253 47.1772 53.7604 46.5358 54.762 45.4174C55.763 44.2997 56.2418 42.7972 56.0759 41.2953C55.7983 38.7807 53.7627 36.8164 51.2358 36.6241ZM53.2578 44.0696C52.6387 44.7609 51.7519 45.1573 50.825 45.1573C49.9675 45.1573 49.1573 44.8271 48.5441 44.2276C47.9009 43.5985 47.045 43.2522 46.1338 43.2522H45.1239V54.4252H36.1953C36.2301 54.3798 36.2685 54.3361 36.3106 54.2941C37.32 53.2943 37.8758 51.9614 37.8758 50.541C37.8758 47.6271 35.5054 45.2566 32.5915 45.2566C32.3934 45.2566 32.1924 45.2678 31.9938 45.2896C29.4795 45.5676 27.5151 47.603 27.3228 50.1295C27.2026 51.7097 27.7852 53.2451 28.9213 54.3421C28.9481 54.368 28.9732 54.3957 28.9969 54.4251H20.0593V45.8333C21.0288 46.7022 22.2664 47.177 23.5797 47.177C25.0803 47.177 26.5154 46.5355 27.5171 45.4171C28.5181 44.2995 28.9969 42.797 28.8309 41.2948C28.553 38.7807 26.5174 36.8164 23.9907 36.6241C23.8543 36.6137 23.716 36.6084 23.58 36.6084C22.2644 36.6084 21.0284 37.0827 20.0594 37.952V29.3605L31.2324 29.3598V28.3499C31.2324 27.4393 30.886 26.5836 30.257 25.9401C29.6574 25.3268 29.3272 24.5169 29.3272 23.6592C29.3272 21.8592 30.7916 20.3947 32.5916 20.3947C32.7159 20.3947 32.8423 20.4017 32.9676 20.4155C34.492 20.5838 35.7296 21.8674 35.8463 23.4013C35.9182 24.3465 35.5983 25.2409 34.9458 25.9199C34.3042 26.5875 33.9509 27.4506 33.9509 28.3504V29.3603H45.1239V40.5333H46.1338C47.0336 40.5333 47.8966 40.18 48.5644 39.5384C49.2366 38.8925 50.145 38.567 51.0829 38.6379C52.6167 38.7545 53.9003 39.9921 54.0687 41.5166C54.1731 42.4625 53.8852 43.369 53.2578 44.0696Z" fill="#1D73F8"/>
</svg>
