<svg width="68" height="68" viewBox="0 0 68 68" fill="none" xmlns="http://www.w3.org/2000/svg">
<path d="M11.6875 24.4375H9.5625V26.5625H11.6875V24.4375Z" fill="black"/>
<path d="M11.6875 56.3125H9.5625V58.4375H11.6875V56.3125Z" fill="black"/>
<path d="M27.625 27.625C24.8931 27.625 22.2226 28.4351 19.9512 29.9528C17.6797 31.4706 15.9094 33.6278 14.8639 36.1517C13.8185 38.6756 13.545 41.4528 14.0779 44.1322C14.6109 46.8115 15.9264 49.2727 17.8581 51.2044C19.7898 53.1361 22.251 54.4516 24.9303 54.9846C27.6097 55.5175 30.3869 55.244 32.9108 54.1986C35.4347 53.1531 37.5919 51.3828 39.1097 49.1113C40.6274 46.8398 41.4375 44.1693 41.4375 41.4375C41.4333 37.7755 39.9767 34.2647 37.3872 31.6752C34.7978 29.0858 31.287 27.6292 27.625 27.625V27.625ZM27.625 53.125C25.3134 53.125 23.0538 52.4395 21.1318 51.1553C19.2098 49.871 17.7118 48.0457 16.8272 45.9101C15.9426 43.7745 15.7111 41.4245 16.1621 39.1574C16.613 36.8902 17.7262 34.8077 19.3607 33.1732C20.9952 31.5387 23.0777 30.4255 25.3449 29.9746C27.612 29.5236 29.962 29.7551 32.0976 30.6397C34.2332 31.5243 36.0586 33.0223 37.3428 34.9443C38.627 36.8663 39.3125 39.1259 39.3125 41.4375C39.3088 44.5361 38.0763 47.5067 35.8853 49.6978C33.6942 51.8888 30.7236 53.1213 27.625 53.125V53.125Z" fill="#1D73F8"/>
<path d="M27.625 36.125C28.1886 36.125 28.7291 36.3489 29.1276 36.7474C29.5261 37.1459 29.75 37.6864 29.75 38.25H31.875C31.8715 37.3105 31.5568 36.3987 30.9801 35.657C30.4033 34.9154 29.5972 34.3857 28.6875 34.1509V31.875H26.5625V34.1509C25.562 34.4084 24.6899 35.0222 24.1099 35.8771C23.5298 36.7319 23.2817 37.7691 23.4122 38.794C23.5426 39.8188 24.0425 40.7608 24.8182 41.4431C25.5939 42.1255 26.5919 42.5013 27.625 42.5C28.0453 42.5 28.4561 42.6246 28.8056 42.8581C29.155 43.0916 29.4274 43.4235 29.5882 43.8118C29.7491 44.2001 29.7912 44.6274 29.7092 45.0396C29.6272 45.4518 29.4248 45.8304 29.1276 46.1276C28.8304 46.4248 28.4518 46.6272 28.0396 46.7092C27.6274 46.7912 27.2001 46.7491 26.8118 46.5882C26.4235 46.4274 26.0916 46.155 25.8581 45.8056C25.6246 45.4561 25.5 45.0453 25.5 44.625H23.375C23.3785 45.5645 23.6932 46.4763 24.2699 47.218C24.8467 47.9596 25.6528 48.4893 26.5625 48.7241V51H28.6875V48.7241C29.688 48.4666 30.5601 47.8528 31.1401 46.9979C31.7202 46.1431 31.9683 45.1059 31.8378 44.081C31.7074 43.0562 31.2075 42.1142 30.4318 41.4319C29.6561 40.7495 28.6581 40.3737 27.625 40.375C27.0614 40.375 26.5209 40.1511 26.1224 39.7526C25.7239 39.3541 25.5 38.8136 25.5 38.25C25.5 37.6864 25.7239 37.1459 26.1224 36.7474C26.5209 36.3489 27.0614 36.125 27.625 36.125Z" fill="#1D73F8"/>
<path d="M62.6875 33.9998H60.8812C62.2916 33.015 63.467 31.7309 64.3234 30.2392C65.1799 28.7475 65.6963 27.085 65.8357 25.3705C65.9751 23.6561 65.7341 21.932 65.1299 20.3215C64.5256 18.7111 63.5731 17.2539 62.3404 16.0543C61.1077 14.8546 59.6252 13.9421 57.9989 13.3818C56.3726 12.8216 54.6426 12.6275 52.9326 12.8135C51.2225 12.9994 49.5747 13.5608 48.1068 14.4575C46.6389 15.3542 45.3872 16.5641 44.4412 18.0006C42.8113 17.3423 41.0703 17.0025 39.3125 16.9998V14.063L44.5188 3.66221C44.5999 3.49978 44.6381 3.31926 44.6297 3.13787C44.6212 2.95649 44.5664 2.78029 44.4705 2.6261C44.3746 2.47191 44.2408 2.34487 44.0819 2.2571C43.9229 2.16934 43.7441 2.12378 43.5625 2.12478C42.3304 2.11525 41.1415 2.57884 40.2411 3.41996C39.9797 3.68297 39.6689 3.89169 39.3266 4.03412C38.9842 4.17655 38.6171 4.24988 38.2463 4.24988C37.8755 4.24988 37.5083 4.17655 37.166 4.03412C36.8236 3.89169 36.5128 3.68297 36.2514 3.41996C35.3461 2.58697 34.1608 2.12463 32.9306 2.12463C31.7004 2.12463 30.5151 2.58697 29.6098 3.41996C29.3489 3.68277 29.0386 3.89136 28.6968 4.03371C28.355 4.17605 27.9884 4.24934 27.6181 4.24934C27.2478 4.24934 26.8812 4.17605 26.5394 4.03371C26.1975 3.89136 25.8873 3.68277 25.6264 3.41996C24.7223 2.58635 23.5375 2.12354 22.3077 2.12354C21.0779 2.12354 19.8932 2.58635 18.989 3.41996C18.7283 3.68274 18.4181 3.89131 18.0763 4.03364C17.7346 4.17597 17.3681 4.24925 16.9979 4.24925C16.6277 4.24925 16.2612 4.17597 15.9194 4.03364C15.5777 3.89131 15.2675 3.68274 15.0067 3.41996C14.107 2.57916 12.9189 2.11558 11.6875 2.12478C11.5064 2.12469 11.3282 2.17091 11.17 2.25905C11.0117 2.34719 10.8787 2.47432 10.7834 2.62837C10.6881 2.78241 10.6338 2.95826 10.6256 3.1392C10.6174 3.32015 10.6556 3.50019 10.7366 3.66221L15.9375 14.063V16.9998C12.2755 17.004 8.76468 18.4606 6.17525 21.05C3.58581 23.6395 2.12922 27.1503 2.125 30.8123V52.0623C2.12922 55.7243 3.58581 59.2351 6.17525 61.8245C8.76468 64.414 12.2755 65.8706 15.9375 65.8748H62.6875C63.3026 65.8743 63.9045 65.6959 64.4205 65.3611C64.9365 65.0262 65.3446 64.5492 65.5955 63.9876C65.8465 63.4259 65.9295 62.8037 65.8347 62.1959C65.7399 61.5881 65.4712 61.0208 65.0611 60.5623C65.5851 59.9785 65.875 59.2217 65.875 58.4373C65.875 57.6528 65.5851 56.896 65.0611 56.3123C65.5851 55.7285 65.875 54.9717 65.875 54.1873C65.875 53.4028 65.5851 52.646 65.0611 52.0623C65.5851 51.4785 65.875 50.7217 65.875 49.9373C65.875 49.1528 65.5851 48.396 65.0611 47.8123C65.5851 47.2285 65.875 46.4717 65.875 45.6873C65.875 44.9028 65.5851 44.146 65.0611 43.5623C65.5851 42.9785 65.875 42.2217 65.875 41.4373C65.875 40.6528 65.5851 39.896 65.0611 39.3123C65.4712 38.8538 65.7399 38.2864 65.8347 37.6786C65.9295 37.0708 65.8465 36.4486 65.5955 35.887C65.3446 35.3254 64.9365 34.8483 64.4205 34.5135C63.9045 34.1786 63.3026 34.0002 62.6875 33.9998V33.9998ZM54.1875 14.8748C56.0788 14.8748 57.9276 15.4356 59.5001 16.4863C61.0727 17.5371 62.2983 19.0305 63.0221 20.7779C63.7459 22.5252 63.9352 24.4479 63.5663 26.3028C63.1973 28.1578 62.2865 29.8616 60.9492 31.199C59.6119 32.5363 57.908 33.4471 56.0531 33.816C54.1981 34.185 52.2754 33.9956 50.5281 33.2719C48.7808 32.5481 47.2873 31.3225 46.2366 29.7499C45.1858 28.1774 44.625 26.3286 44.625 24.4373C44.6278 21.902 45.6362 19.4714 47.4289 17.6787C49.2216 15.886 51.6522 14.8776 54.1875 14.8748V14.8748ZM13.9188 5.26765C14.7764 6.00013 15.8723 6.39388 17 6.37477C18.2314 6.38376 19.4194 5.92021 20.3193 5.07959C20.5799 4.81684 20.89 4.60829 21.2316 4.46598C21.5733 4.32366 21.9397 4.25039 22.3098 4.25039C22.6799 4.25039 23.0464 4.32366 23.388 4.46598C23.7297 4.60829 24.0398 4.81684 24.3004 5.07959C25.205 5.91281 26.3899 6.37536 27.6197 6.37536C28.8495 6.37536 30.0344 5.91281 30.9389 5.07959C31.2001 4.81665 31.5108 4.60797 31.8529 4.46557C32.1951 4.32316 32.5621 4.24985 32.9327 4.24985C33.3033 4.24985 33.6703 4.32316 34.0125 4.46557C34.3547 4.60797 34.6653 4.81665 34.9265 5.07959C35.8276 5.92103 37.0172 6.38463 38.25 6.37477C39.3816 6.39445 40.4813 5.99868 41.3408 5.26234L37.5934 12.7498H17.6566L13.9188 5.26765ZM18.0625 14.8748H37.1875V16.9998H18.0625V14.8748ZM4.25 52.0623V30.8123C4.25366 27.7137 5.48619 24.743 7.67723 22.552C9.86827 20.361 12.8389 19.1284 15.9375 19.1248H39.3125C40.718 19.1255 42.1117 19.3804 43.4265 19.877C42.3823 22.3405 42.2165 25.0881 42.957 27.6593C43.6975 30.2305 45.2992 32.469 47.4938 33.9998H45.6875C45.0724 34.0002 44.4705 34.1786 43.9545 34.5135C43.4385 34.8483 43.0304 35.3254 42.7795 35.887C42.5285 36.4486 42.4455 37.0708 42.5403 37.6786C42.6351 38.2864 42.9038 38.8538 43.3139 39.3123C42.7899 39.896 42.5 40.6528 42.5 41.4373C42.5 42.2217 42.7899 42.9785 43.3139 43.5623C42.7899 44.146 42.5 44.9028 42.5 45.6873C42.5 46.4717 42.7899 47.2285 43.3139 47.8123C42.7899 48.396 42.5 49.1528 42.5 49.9373C42.5 50.7217 42.7899 51.4785 43.3139 52.0623C42.7899 52.646 42.5 53.4028 42.5 54.1873C42.5 54.9717 42.7899 55.7285 43.3139 56.3123C42.7899 56.896 42.5 57.6528 42.5 58.4373C42.5 59.2217 42.7899 59.9785 43.3139 60.5623C42.9279 60.9855 42.666 61.5069 42.5569 62.0692C42.4479 62.6315 42.4958 63.2129 42.6955 63.7498H15.9375C12.8389 63.7461 9.86827 62.5136 7.67723 60.3225C5.48619 58.1315 4.25366 55.1609 4.25 52.0623V52.0623ZM62.6875 63.7498H45.6875C45.4057 63.7498 45.1355 63.6378 44.9362 63.4386C44.7369 63.2393 44.625 62.9691 44.625 62.6873C44.625 62.4055 44.7369 62.1352 44.9362 61.936C45.1355 61.7367 45.4057 61.6248 45.6875 61.6248H62.6875C62.9693 61.6248 63.2395 61.7367 63.4388 61.936C63.6381 62.1352 63.75 62.4055 63.75 62.6873C63.75 62.9691 63.6381 63.2393 63.4388 63.4386C63.2395 63.6378 62.9693 63.7498 62.6875 63.7498ZM62.6875 59.4998H45.6875C45.4057 59.4998 45.1355 59.3878 44.9362 59.1886C44.7369 58.9893 44.625 58.7191 44.625 58.4373C44.625 58.1555 44.7369 57.8852 44.9362 57.686C45.1355 57.4867 45.4057 57.3748 45.6875 57.3748H62.6875C62.9693 57.3748 63.2395 57.4867 63.4388 57.686C63.6381 57.8852 63.75 58.1555 63.75 58.4373C63.75 58.7191 63.6381 58.9893 63.4388 59.1886C63.2395 59.3878 62.9693 59.4998 62.6875 59.4998ZM62.6875 55.2498H45.6875C45.4057 55.2498 45.1355 55.1378 44.9362 54.9386C44.7369 54.7393 44.625 54.4691 44.625 54.1873C44.625 53.9055 44.7369 53.6352 44.9362 53.436C45.1355 53.2367 45.4057 53.1248 45.6875 53.1248H62.6875C62.9693 53.1248 63.2395 53.2367 63.4388 53.436C63.6381 53.6352 63.75 53.9055 63.75 54.1873C63.75 54.4691 63.6381 54.7393 63.4388 54.9386C63.2395 55.1378 62.9693 55.2498 62.6875 55.2498ZM62.6875 50.9998H45.6875C45.4057 50.9998 45.1355 50.8878 44.9362 50.6886C44.7369 50.4893 44.625 50.2191 44.625 49.9373C44.625 49.6555 44.7369 49.3852 44.9362 49.186C45.1355 48.9867 45.4057 48.8748 45.6875 48.8748H62.6875C62.9693 48.8748 63.2395 48.9867 63.4388 49.186C63.6381 49.3852 63.75 49.6555 63.75 49.9373C63.75 50.2191 63.6381 50.4893 63.4388 50.6886C63.2395 50.8878 62.9693 50.9998 62.6875 50.9998ZM62.6875 46.7498H45.6875C45.4057 46.7498 45.1355 46.6378 44.9362 46.4386C44.7369 46.2393 44.625 45.9691 44.625 45.6873C44.625 45.4055 44.7369 45.1352 44.9362 44.936C45.1355 44.7367 45.4057 44.6248 45.6875 44.6248H62.6875C62.9693 44.6248 63.2395 44.7367 63.4388 44.936C63.6381 45.1352 63.75 45.4055 63.75 45.6873C63.75 45.9691 63.6381 46.2393 63.4388 46.4386C63.2395 46.6378 62.9693 46.7498 62.6875 46.7498ZM62.6875 42.4998H45.6875C45.4057 42.4998 45.1355 42.3878 44.9362 42.1886C44.7369 41.9893 44.625 41.7191 44.625 41.4373C44.625 41.1555 44.7369 40.8852 44.9362 40.686C45.1355 40.4867 45.4057 40.3748 45.6875 40.3748H62.6875C62.9693 40.3748 63.2395 40.4867 63.4388 40.686C63.6381 40.8852 63.75 41.1555 63.75 41.4373C63.75 41.7191 63.6381 41.9893 63.4388 42.1886C63.2395 42.3878 62.9693 42.4998 62.6875 42.4998ZM62.6875 38.2498H45.6875C45.4057 38.2498 45.1355 38.1378 44.9362 37.9386C44.7369 37.7393 44.625 37.4691 44.625 37.1873C44.625 36.9055 44.7369 36.6352 44.9362 36.436C45.1355 36.2367 45.4057 36.1248 45.6875 36.1248H62.6875C62.9693 36.1248 63.2395 36.2367 63.4388 36.436C63.6381 36.6352 63.75 36.9055 63.75 37.1873C63.75 37.4691 63.6381 37.7393 63.4388 37.9386C63.2395 38.1378 62.9693 38.2498 62.6875 38.2498Z" fill="black"/>
<path d="M54.1875 27.625C53.9057 27.625 53.6355 27.5131 53.4362 27.3138C53.2369 27.1145 53.125 26.8443 53.125 26.5625H51C51.0027 27.2194 51.2083 27.8594 51.5887 28.395C51.9691 28.9306 52.5057 29.3355 53.125 29.5545V30.8125H55.25V29.5545C55.9583 29.305 56.5555 28.8129 56.9358 28.1652C57.3161 27.5176 57.4549 26.7563 57.3276 26.0162C57.2003 25.276 56.8152 24.6048 56.2405 24.1214C55.6658 23.638 54.9385 23.3736 54.1875 23.375C53.9774 23.375 53.7719 23.3127 53.5972 23.1959C53.4225 23.0792 53.2863 22.9132 53.2059 22.7191C53.1255 22.525 53.1044 22.3113 53.1454 22.1052C53.1864 21.8991 53.2876 21.7098 53.4362 21.5612C53.5848 21.4126 53.7741 21.3114 53.9802 21.2704C54.1863 21.2294 54.4 21.2505 54.5941 21.3309C54.7882 21.4113 54.9542 21.5475 55.0709 21.7222C55.1877 21.8969 55.25 22.1024 55.25 22.3125H57.375C57.3723 21.6556 57.1667 21.0156 56.7863 20.48C56.4059 19.9444 55.8693 19.5395 55.25 19.3205V18.0625H53.125V19.3205C52.4167 19.57 51.8195 20.0621 51.4392 20.7098C51.0589 21.3574 50.9201 22.1187 51.0474 22.8588C51.1747 23.599 51.5598 24.2702 52.1345 24.7536C52.7092 25.237 53.4365 25.5014 54.1875 25.5C54.4693 25.5 54.7395 25.6119 54.9388 25.8112C55.1381 26.0105 55.25 26.2807 55.25 26.5625C55.25 26.8443 55.1381 27.1145 54.9388 27.3138C54.7395 27.5131 54.4693 27.625 54.1875 27.625Z" fill="#1D73F8"/>
</svg>
