<svg width="89" height="89" viewBox="0 0 89 89" fill="none" xmlns="http://www.w3.org/2000/svg">
<path d="M86.8971 41.6432C85.5649 40.4142 83.7526 39.6551 81.9247 39.56C79.8489 39.4527 77.9042 40.1929 76.4559 41.6419L66.5599 51.434C66.3643 51.0952 66.1409 50.7753 65.8904 50.4786C64.6729 49.033 62.8925 48.2372 60.8779 48.2372H47.0246C44.4124 48.2372 41.8641 47.8983 39.4508 47.2309C33.1591 45.4906 27.1484 46.7617 22.0673 50.9091C20.0011 52.5958 18.4937 54.4305 17.5403 55.7681L15.0565 53.3576C14.7299 53.0405 14.2872 52.8606 13.8315 52.8606C13.8275 52.8606 13.8241 52.8606 13.82 52.8606C13.3481 52.864 12.8918 53.0602 12.5645 53.3997L0.489555 65.9351C0.166343 66.2705 -0.00952212 66.7214 0.000663128 67.1872C0.0108484 67.6537 0.205726 68.0964 0.543197 68.4175L20.966 87.8639C21.3048 88.1864 21.7394 88.3474 22.1733 88.3474C22.6289 88.3474 23.0845 88.1701 23.4274 87.8184L35.3896 75.5459C35.7162 75.2104 35.8975 74.7521 35.8887 74.2836C35.8799 73.8218 35.6864 73.3764 35.355 73.0545L34.3134 72.0442L36.6974 71.776C38.1397 71.6082 39.6063 71.5234 41.0581 71.5234H62.1354C65.5604 71.5234 68.4693 70.7744 70.782 69.2969C70.801 69.2846 70.82 69.2717 70.839 69.2588C71.6674 68.683 72.4191 68.0006 73.0723 67.2313L87.276 50.5214C89.7069 47.6621 89.5548 44.0938 86.8971 41.6432ZM22.1278 84.1354L4.23297 67.0962L13.873 57.0882L31.6632 74.3521L22.1278 84.1354ZM84.6081 48.2535L70.4045 64.9641C69.9536 65.4944 69.4369 65.9656 68.8672 66.3649C67.1309 67.4642 64.8664 68.0224 62.1354 68.0224H41.0574C39.4719 68.0224 37.8687 68.1154 36.2995 68.298L31.0589 68.8861L20.086 58.2377C20.8485 57.1072 22.2507 55.2799 24.2816 53.6218C28.5037 50.1751 33.2935 49.16 38.5172 50.6056C41.2346 51.3573 44.0967 51.7389 47.0246 51.7389H60.8779C63.3658 51.7389 64.0299 53.8941 64.0299 55.1672C64.0299 56.0975 63.7311 56.9829 63.2103 57.5967C62.6454 58.2615 61.8421 58.5983 60.8229 58.5983H48.7635C47.7966 58.5983 47.013 59.3826 47.013 60.3495C47.013 61.3164 47.7966 62.1 48.7635 62.1H60.8229C62.8586 62.1 64.6539 61.3055 65.8788 59.8633C66.898 58.6642 67.4793 57.0875 67.5282 55.4022L78.9254 44.1244C80.5544 42.4954 83.0994 42.9042 84.5233 44.2174C85.2593 44.8964 86.2493 46.323 84.6081 48.2535Z" fill="#333333"/>
<path d="M43.3036 59.8832C43.0829 58.9414 42.1411 58.3581 41.1993 58.5781C40.2582 58.7988 39.6736 59.7406 39.8949 60.6824L39.9112 60.7537C40.1007 61.5604 40.8197 62.105 41.6142 62.105C41.7466 62.105 41.881 62.09 42.0155 62.0588C42.9573 61.8381 43.5412 60.8956 43.3206 59.9545L43.3036 59.8832Z" fill="#333333"/>
<path d="M11.8339 37.6338H28.8935C29.8224 37.6338 30.682 37.3323 31.3814 36.8231C32.0808 37.3323 32.9404 37.6338 33.8693 37.6338H50.9296C51.8585 37.6338 52.7181 37.3323 53.4175 36.8231C54.1169 37.3323 54.9765 37.6338 55.9054 37.6338H72.965C75.3022 37.6338 77.2035 35.7319 77.2035 33.3947V25.4393C77.2035 21.8664 75.2038 18.7626 72.2107 17.2314C73.661 15.4823 74.5343 13.2388 74.5343 10.7943C74.5343 5.22571 70.0039 0.695312 64.4352 0.695312C58.8666 0.695312 54.3362 5.22571 54.3362 10.7943C54.3362 13.2388 55.2094 15.4829 56.6598 17.2314C55.3663 17.8941 54.2588 18.8509 53.4175 20.0113C52.5762 18.8502 51.4688 17.8934 50.1745 17.2314C51.6249 15.4829 52.4981 13.2388 52.4981 10.7943C52.4981 5.22571 47.9677 0.695312 42.3991 0.695312C36.8305 0.695312 32.3001 5.22571 32.3001 10.7943C32.3001 13.2388 33.174 15.4829 34.6244 17.2321C33.3302 17.8941 32.2227 18.8509 31.3814 20.012C30.5401 18.8509 29.4326 17.8941 28.1384 17.2314C29.5888 15.4829 30.462 13.2388 30.462 10.795C30.462 5.22571 25.9316 0.695312 20.363 0.695312C14.7951 0.695312 10.2647 5.22571 10.2647 10.795C10.2647 13.2388 11.1379 15.4829 12.5883 17.2321C9.59517 18.7633 7.59479 21.8677 7.59479 25.44V33.3947C7.59479 35.7319 9.49671 37.6338 11.8339 37.6338ZM64.4359 4.197C68.0734 4.197 71.0332 7.15615 71.0332 10.7943C71.0332 14.4318 68.0734 17.3916 64.4359 17.3916C60.7978 17.3916 57.8386 14.4325 57.8386 10.7943C57.8379 7.15615 60.7978 4.197 64.4359 4.197ZM59.8872 19.8069C61.2554 20.5002 62.8002 20.8933 64.4352 20.8933C66.071 20.8933 67.6158 20.5002 68.9833 19.8069C71.7041 20.2809 73.7025 22.6255 73.7025 25.4393V33.3947C73.7025 33.8014 73.3718 34.1321 72.965 34.1321H55.9054C55.4994 34.1321 55.1687 33.8014 55.1687 33.3947V25.4393C55.168 22.6262 57.1671 20.2809 59.8872 19.8069ZM42.3998 4.197C46.0373 4.197 48.9971 7.15615 48.9971 10.7943C48.9971 14.4318 46.0373 17.3916 42.3998 17.3916C38.7616 17.3916 35.8025 14.4325 35.8025 10.7943C35.8025 7.15615 38.7616 4.197 42.3998 4.197ZM37.8518 19.8069C39.2193 20.5002 40.7641 20.8933 42.3998 20.8933C44.0356 20.8933 45.5796 20.5002 46.9479 19.8069C49.668 20.2809 51.667 22.6255 51.667 25.4393V33.3947C51.667 33.8014 51.3363 34.1321 50.9296 34.1321H33.87C33.4633 34.1321 33.1326 33.8014 33.1326 33.3947V25.4393C33.1326 22.6262 35.1316 20.2809 37.8518 19.8069ZM20.3637 4.197C24.0012 4.197 26.961 7.15615 26.961 10.7943C26.961 14.4318 24.0012 17.3916 20.3637 17.3916C16.7262 17.3916 13.7664 14.4318 13.7664 10.7943C13.7664 7.15615 16.7262 4.197 20.3637 4.197ZM11.0965 25.4393C11.0965 22.6262 13.0955 20.2809 15.8156 19.8069C17.1839 20.5002 18.7279 20.8933 20.3637 20.8933C21.9994 20.8933 23.5435 20.5002 24.9117 19.8069C27.6326 20.2809 29.6309 22.6255 29.6309 25.4393V33.3947C29.6309 33.8014 29.3002 34.1321 28.8935 34.1321H11.8339C11.4272 34.1321 11.0965 33.8014 11.0965 33.3947V25.4393Z" fill="#1D73F8"/>
</svg>
