<svg width="90" height="90" viewBox="0 0 90 90" fill="none" xmlns="http://www.w3.org/2000/svg">
<path d="M85.7812 73.125H82.9322C83.8629 71.9151 84.3698 70.4327 84.375 68.9062V29.5312C84.3728 27.6671 83.6313 25.88 82.3131 24.5619C80.995 23.2437 79.2079 22.5022 77.3438 22.5H67.5V9.84375C67.4978 7.97963 66.7563 6.1925 65.4381 4.87437C64.12 3.55624 62.3329 2.81473 60.4688 2.8125H29.5312C27.6671 2.81473 25.88 3.55624 24.5619 4.87437C23.2437 6.1925 22.5022 7.97963 22.5 9.84375V22.5H12.6562C10.7921 22.5022 9.005 23.2437 7.68687 24.5619C6.36874 25.88 5.62723 27.6671 5.625 29.5312V68.9062C5.63017 70.4327 6.13715 71.9151 7.06781 73.125H4.21875C3.84579 73.125 3.4881 73.2732 3.22438 73.5369C2.96066 73.8006 2.8125 74.1583 2.8125 74.5312V80.1562C2.81473 82.0204 3.55624 83.8075 4.87437 85.1256C6.1925 86.4438 7.97963 87.1853 9.84375 87.1875H80.1562C82.0204 87.1853 83.8075 86.4438 85.1256 85.1256C86.4438 83.8075 87.1853 82.0204 87.1875 80.1562V74.5312C87.1875 74.1583 87.0393 73.8006 86.7756 73.5369C86.5119 73.2732 86.1542 73.125 85.7812 73.125ZM25.3125 9.84375C25.3125 8.72487 25.757 7.65181 26.5481 6.86064C27.3393 6.06947 28.4124 5.625 29.5312 5.625H60.4688C61.5876 5.625 62.6607 6.06947 63.4519 6.86064C64.243 7.65181 64.6875 8.72487 64.6875 9.84375V25.3125C64.6875 26.4314 64.243 27.5044 63.4519 28.2956C62.6607 29.0868 61.5876 29.5312 60.4688 29.5312H42.1875C41.9847 29.5313 41.7844 29.5751 41.6001 29.6598C41.4159 29.7446 41.2522 29.8681 41.1202 30.022L35.1562 36.9844V30.9375C35.1562 30.5645 35.0081 30.2069 34.7444 29.9431C34.4806 29.6794 34.123 29.5312 33.75 29.5312H29.5312C28.4124 29.5312 27.3393 29.0868 26.5481 28.2956C25.757 27.5044 25.3125 26.4314 25.3125 25.3125V9.84375ZM8.4375 68.9062V29.5312C8.4375 28.4124 8.88197 27.3393 9.67314 26.5481C10.4643 25.757 11.5374 25.3125 12.6562 25.3125H22.5C22.5022 27.1766 23.2437 28.9637 24.5619 30.2819C25.88 31.6 27.6671 32.3415 29.5312 32.3438H32.3438V40.7812C32.3438 41.0685 32.4318 41.3489 32.5959 41.5847C32.7601 41.8204 32.9925 42.0002 33.2619 42.0999C33.5313 42.1997 33.8248 42.2145 34.1029 42.1424C34.381 42.0703 34.6303 41.9148 34.8173 41.6967L42.8344 32.3438H60.4688C62.3329 32.3415 64.12 31.6 65.4381 30.2819C66.7563 28.9637 67.4978 27.1766 67.5 25.3125H77.3438C78.4626 25.3125 79.5357 25.757 80.3269 26.5481C81.118 27.3393 81.5625 28.4124 81.5625 29.5312V68.9062C81.5625 70.0251 81.118 71.0982 80.3269 71.8894C79.5357 72.6805 78.4626 73.125 77.3438 73.125H12.6562C11.5374 73.125 10.4643 72.6805 9.67314 71.8894C8.88197 71.0982 8.4375 70.0251 8.4375 68.9062ZM39.375 75.9375H50.625V77.3438C50.625 77.7167 50.4768 78.0744 50.2131 78.3381C49.9494 78.6018 49.5917 78.75 49.2188 78.75H40.7812C40.4083 78.75 40.0506 78.6018 39.7869 78.3381C39.5232 78.0744 39.375 77.7167 39.375 77.3438V75.9375ZM84.375 80.1562C84.375 81.2751 83.9305 82.3482 83.1394 83.1394C82.3482 83.9305 81.2751 84.375 80.1562 84.375H9.84375C8.72487 84.375 7.65181 83.9305 6.86064 83.1394C6.06947 82.3482 5.625 81.2751 5.625 80.1562V75.9375H36.5625V77.3438C36.5625 78.4626 37.007 79.5357 37.7981 80.3269C38.5893 81.118 39.6624 81.5625 40.7812 81.5625H49.2188C50.3376 81.5625 51.4107 81.118 52.2019 80.3269C52.993 79.5357 53.4375 78.4626 53.4375 77.3438V75.9375H84.375V80.1562Z" fill="black"/>
<path d="M78.75 68.9062V29.5312C78.75 29.1583 78.6018 28.8006 78.3381 28.5369C78.0744 28.2732 77.7167 28.125 77.3438 28.125H70.3125C69.9395 28.125 69.5819 28.2732 69.3181 28.5369C69.0544 28.8006 68.9062 29.1583 68.9062 29.5312C68.9062 29.9042 69.0544 30.2619 69.3181 30.5256C69.5819 30.7893 69.9395 30.9375 70.3125 30.9375H75.9375V67.5H14.0625V30.9375H19.6875C20.0605 30.9375 20.4181 30.7893 20.6819 30.5256C20.9456 30.2619 21.0938 29.9042 21.0938 29.5312C21.0938 29.1583 20.9456 28.8006 20.6819 28.5369C20.4181 28.2732 20.0605 28.125 19.6875 28.125H12.6562C12.2833 28.125 11.9256 28.2732 11.6619 28.5369C11.3982 28.8006 11.25 29.1583 11.25 29.5312V68.9062C11.25 69.2792 11.3982 69.6369 11.6619 69.9006C11.9256 70.1643 12.2833 70.3125 12.6562 70.3125H77.3438C77.7167 70.3125 78.0744 70.1643 78.3381 69.9006C78.6018 69.6369 78.75 69.2792 78.75 68.9062Z" fill="black"/>
<path d="M19.6875 40.7812C19.6875 41.1542 19.8357 41.5119 20.0994 41.7756C20.3631 42.0393 20.7208 42.1875 21.0938 42.1875H23.9062C24.2792 42.1875 24.6369 42.0393 24.9006 41.7756C25.1643 41.5119 25.3125 41.1542 25.3125 40.7812C25.3125 40.4083 25.1643 40.0506 24.9006 39.7869C24.6369 39.5232 24.2792 39.375 23.9062 39.375H21.0938C20.7208 39.375 20.3631 39.5232 20.0994 39.7869C19.8357 40.0506 19.6875 40.4083 19.6875 40.7812Z" fill="#1D73F8"/>
<path d="M23.9062 45H21.0938C20.7208 45 20.3631 45.1482 20.0994 45.4119C19.8357 45.6756 19.6875 46.0333 19.6875 46.4062C19.6875 46.7792 19.8357 47.1369 20.0994 47.4006C20.3631 47.6643 20.7208 47.8125 21.0938 47.8125H23.9062C24.2792 47.8125 24.6369 47.6643 24.9006 47.4006C25.1643 47.1369 25.3125 46.7792 25.3125 46.4062C25.3125 46.0333 25.1643 45.6756 24.9006 45.4119C24.6369 45.1482 24.2792 45 23.9062 45V45Z" fill="#1D73F8"/>
<path d="M23.9062 50.625H21.0938C20.7208 50.625 20.3631 50.7732 20.0994 51.0369C19.8357 51.3006 19.6875 51.6583 19.6875 52.0312C19.6875 52.4042 19.8357 52.7619 20.0994 53.0256C20.3631 53.2893 20.7208 53.4375 21.0938 53.4375H23.9062C24.2792 53.4375 24.6369 53.2893 24.9006 53.0256C25.1643 52.7619 25.3125 52.4042 25.3125 52.0312C25.3125 51.6583 25.1643 51.3006 24.9006 51.0369C24.6369 50.7732 24.2792 50.625 23.9062 50.625Z" fill="#1D73F8"/>
<path d="M23.9062 56.25H21.0938C20.7208 56.25 20.3631 56.3982 20.0994 56.6619C19.8357 56.9256 19.6875 57.2833 19.6875 57.6562C19.6875 58.0292 19.8357 58.3869 20.0994 58.6506C20.3631 58.9143 20.7208 59.0625 21.0938 59.0625H23.9062C24.2792 59.0625 24.6369 58.9143 24.9006 58.6506C25.1643 58.3869 25.3125 58.0292 25.3125 57.6562C25.3125 57.2833 25.1643 56.9256 24.9006 56.6619C24.6369 56.3982 24.2792 56.25 23.9062 56.25Z" fill="#1D73F8"/>
<path d="M23.9062 61.875H21.0938C20.7208 61.875 20.3631 62.0232 20.0994 62.2869C19.8357 62.5506 19.6875 62.9083 19.6875 63.2812C19.6875 63.6542 19.8357 64.0119 20.0994 64.2756C20.3631 64.5393 20.7208 64.6875 21.0938 64.6875H23.9062C24.2792 64.6875 24.6369 64.5393 24.9006 64.2756C25.1643 64.0119 25.3125 63.6542 25.3125 63.2812C25.3125 62.9083 25.1643 62.5506 24.9006 62.2869C24.6369 62.0232 24.2792 61.875 23.9062 61.875Z" fill="#1D73F8"/>
<path d="M42.1875 42.1875H68.9062C69.2792 42.1875 69.6369 42.0393 69.9006 41.7756C70.1643 41.5119 70.3125 41.1542 70.3125 40.7812C70.3125 40.4083 70.1643 40.0506 69.9006 39.7869C69.6369 39.5232 69.2792 39.375 68.9062 39.375H42.1875C41.8145 39.375 41.4569 39.5232 41.1931 39.7869C40.9294 40.0506 40.7812 40.4083 40.7812 40.7812C40.7812 41.1542 40.9294 41.5119 41.1931 41.7756C41.4569 42.0393 41.8145 42.1875 42.1875 42.1875Z" fill="#1D73F8"/>
<path d="M40.7812 47.8125H63.2812C63.6542 47.8125 64.0119 47.6643 64.2756 47.4006C64.5393 47.1369 64.6875 46.7792 64.6875 46.4062C64.6875 46.0333 64.5393 45.6756 64.2756 45.4119C64.0119 45.1482 63.6542 45 63.2812 45H40.7812C40.4083 45 40.0506 45.1482 39.7869 45.4119C39.5232 45.6756 39.375 46.0333 39.375 46.4062C39.375 46.7792 39.5232 47.1369 39.7869 47.4006C40.0506 47.6643 40.4083 47.8125 40.7812 47.8125Z" fill="#1D73F8"/>
<path d="M29.5312 53.4375H46.4062C46.7792 53.4375 47.1369 53.2893 47.4006 53.0256C47.6643 52.7619 47.8125 52.4042 47.8125 52.0312C47.8125 51.6583 47.6643 51.3006 47.4006 51.0369C47.1369 50.7732 46.7792 50.625 46.4062 50.625H29.5312C29.1583 50.625 28.8006 50.7732 28.5369 51.0369C28.2732 51.3006 28.125 51.6583 28.125 52.0312C28.125 52.4042 28.2732 52.7619 28.5369 53.0256C28.8006 53.2893 29.1583 53.4375 29.5312 53.4375Z" fill="#1D73F8"/>
<path d="M29.5312 59.0625H46.4062C46.7792 59.0625 47.1369 58.9143 47.4006 58.6506C47.6643 58.3869 47.8125 58.0292 47.8125 57.6562C47.8125 57.2833 47.6643 56.9256 47.4006 56.6619C47.1369 56.3982 46.7792 56.25 46.4062 56.25H29.5312C29.1583 56.25 28.8006 56.3982 28.5369 56.6619C28.2732 56.9256 28.125 57.2833 28.125 57.6562C28.125 58.0292 28.2732 58.3869 28.5369 58.6506C28.8006 58.9143 29.1583 59.0625 29.5312 59.0625Z" fill="#1D73F8"/>
<path d="M29.5312 64.6875H46.4062C46.7792 64.6875 47.1369 64.5393 47.4006 64.2756C47.6643 64.0119 47.8125 63.6542 47.8125 63.2812C47.8125 62.9083 47.6643 62.5506 47.4006 62.2869C47.1369 62.0232 46.7792 61.875 46.4062 61.875H29.5312C29.1583 61.875 28.8006 62.0232 28.5369 62.2869C28.2732 62.5506 28.125 62.9083 28.125 63.2812C28.125 63.6542 28.2732 64.0119 28.5369 64.2756C28.8006 64.5393 29.1583 64.6875 29.5312 64.6875Z" fill="#1D73F8"/>
<path d="M28.7505 18.045L37.188 23.67C37.3417 23.7725 37.514 23.8437 37.6952 23.8796C37.8764 23.9155 38.0628 23.9154 38.244 23.8792C38.4251 23.843 38.5973 23.7716 38.7508 23.6688C38.9043 23.5661 39.036 23.4341 39.1385 23.2805C39.241 23.1269 39.3122 22.9545 39.3481 22.7734C39.384 22.5922 39.3839 22.4057 39.3477 22.2246C39.3115 22.0435 39.24 21.8713 39.1373 21.7178C39.0346 21.5643 38.9026 21.4325 38.749 21.33L32.3266 17.0494L38.5971 13.9219C38.9309 13.7552 39.1848 13.4627 39.303 13.1088C39.4211 12.7549 39.3938 12.3685 39.2271 12.0347C39.0604 11.7009 38.7679 11.447 38.414 11.3289C38.0601 11.2107 37.6737 11.238 37.3399 11.4047L28.9024 15.6235C28.6819 15.7335 28.4942 15.8996 28.358 16.105C28.2219 16.3104 28.1421 16.548 28.1268 16.794C28.1114 17.04 28.1609 17.2857 28.2704 17.5065C28.3799 17.7273 28.5455 17.9154 28.7505 18.0521V18.045Z" fill="black"/>
<path d="M51.4028 13.9219L57.6732 17.0564L51.2509 21.3371C51.0972 21.4396 50.9653 21.5713 50.8625 21.7248C50.7598 21.8783 50.6883 22.0505 50.6522 22.2316C50.616 22.4127 50.6158 22.5992 50.6517 22.7804C50.6876 22.9616 50.7589 23.1339 50.8613 23.2875C50.9638 23.4412 51.0956 23.5731 51.2491 23.6759C51.4026 23.7786 51.5748 23.8501 51.7559 23.8863C51.937 23.9224 52.1235 23.9226 52.3047 23.8867C52.4858 23.8508 52.6582 23.7796 52.8118 23.6771L61.2493 18.0521C61.4544 17.9154 61.62 17.7273 61.7295 17.5065C61.8389 17.2857 61.8885 17.04 61.8731 16.794C61.8577 16.548 61.778 16.3104 61.6418 16.105C61.5057 15.8996 61.318 15.7335 61.0974 15.6235L52.6599 11.4047C52.3261 11.238 51.9398 11.2107 51.5859 11.3289C51.232 11.447 50.9395 11.7009 50.7728 12.0347C50.606 12.3685 50.5788 12.7549 50.6969 13.1088C50.8151 13.4627 51.069 13.7552 51.4028 13.9219V13.9219Z" fill="black"/>
<path d="M41.7067 26.6344C41.8804 26.6973 42.0648 26.7254 42.2493 26.717C42.4339 26.7087 42.615 26.6641 42.7822 26.5857C42.9495 26.5074 43.0997 26.3968 43.2243 26.2604C43.3488 26.124 43.4453 25.9643 43.5081 25.7906L49.1331 10.3219C49.2042 10.1468 49.2393 9.95917 49.2362 9.77023C49.2331 9.58129 49.192 9.39491 49.1153 9.22221C49.0386 9.04952 48.9279 8.89405 48.7898 8.7651C48.6516 8.63615 48.4889 8.53636 48.3114 8.47169C48.1338 8.40702 47.9451 8.3788 47.7564 8.38872C47.5676 8.39863 47.3829 8.44647 47.2131 8.52939C47.0433 8.6123 46.8919 8.72859 46.7681 8.8713C46.6442 9.01401 46.5504 9.18023 46.4922 9.36001L40.8672 24.8288C40.8035 25.0024 40.7747 25.1869 40.7825 25.3718C40.7902 25.5566 40.8344 25.738 40.9123 25.9058C40.9903 26.0735 41.1006 26.2242 41.237 26.3492C41.3733 26.4742 41.5329 26.5711 41.7067 26.6344V26.6344Z" fill="black"/>
<path d="M29.5312 47.8125H35.1562C35.5292 47.8125 35.8869 47.6643 36.1506 47.4006C36.4143 47.1369 36.5625 46.7792 36.5625 46.4062C36.5625 46.0333 36.4143 45.6756 36.1506 45.4119C35.8869 45.1482 35.5292 45 35.1562 45H29.5312C29.1583 45 28.8006 45.1482 28.5369 45.4119C28.2732 45.6756 28.125 46.0333 28.125 46.4062C28.125 46.7792 28.2732 47.1369 28.5369 47.4006C28.8006 47.6643 29.1583 47.8125 29.5312 47.8125Z" fill="#1D73F8"/>
<path d="M64.6875 52.0312C64.6875 51.6583 64.5393 51.3006 64.2756 51.0369C64.0119 50.7732 63.6542 50.625 63.2812 50.625H52.0312C51.6583 50.625 51.3006 50.7732 51.0369 51.0369C50.7732 51.3006 50.625 51.6583 50.625 52.0312C50.625 52.4042 50.7732 52.7619 51.0369 53.0256C51.3006 53.2893 51.6583 53.4375 52.0312 53.4375H63.2812C63.6542 53.4375 64.0119 53.2893 64.2756 53.0256C64.5393 52.7619 64.6875 52.4042 64.6875 52.0312Z" fill="#1D73F8"/>
<path d="M54.8438 56.25H52.0312C51.6583 56.25 51.3006 56.3982 51.0369 56.6619C50.7732 56.9256 50.625 57.2833 50.625 57.6562C50.625 58.0292 50.7732 58.3869 51.0369 58.6506C51.3006 58.9143 51.6583 59.0625 52.0312 59.0625H54.8438C55.2167 59.0625 55.5744 58.9143 55.8381 58.6506C56.1018 58.3869 56.25 58.0292 56.25 57.6562C56.25 57.2833 56.1018 56.9256 55.8381 56.6619C55.5744 56.3982 55.2167 56.25 54.8438 56.25Z" fill="#1D73F8"/>
<path d="M54.8438 61.875H52.0312C51.6583 61.875 51.3006 62.0232 51.0369 62.2869C50.7732 62.5506 50.625 62.9083 50.625 63.2812C50.625 63.6542 50.7732 64.0119 51.0369 64.2756C51.3006 64.5393 51.6583 64.6875 52.0312 64.6875H54.8438C55.2167 64.6875 55.5744 64.5393 55.8381 64.2756C56.1018 64.0119 56.25 63.6542 56.25 63.2812C56.25 62.9083 56.1018 62.5506 55.8381 62.2869C55.5744 62.0232 55.2167 61.875 54.8438 61.875Z" fill="#1D73F8"/>
</svg>
