<?xml version="1.0" encoding="utf-8"?>
<!-- Generator: Adobe Illustrator 15.0.0, SVG Export Plug-In  -->
<!DOCTYPE svg PUBLIC "-//W3C//DTD SVG 1.1//EN" "http://www.w3.org/Graphics/SVG/1.1/DTD/svg11.dtd" [
	<!ENTITY ns_flows "http://ns.adobe.com/Flows/1.0/">
]>
<svg version="1.1"
	 xmlns="http://www.w3.org/2000/svg" xmlns:xlink="http://www.w3.org/1999/xlink" xmlns:a="http://ns.adobe.com/AdobeSVGViewerExtensions/3.0/"
	 x="0px" y="0px" width="80px" height="80px" viewBox="-1.334 -5.237 80 80" enable-background="new -1.334 -5.237 80 80"
	 xml:space="preserve">
<defs>
</defs>
<path d="M77.332,43.671c0-0.002-0.001-0.004-0.001-0.006V6.137C77.331,2.753,74.579,0,71.194,0H6.137C2.753,0,0,2.753,0,6.137
	v37.529c0,0.002,0,0.003,0,0.005c0,0.001,0,0.004,0,0.005v5c0,3.385,2.753,6.137,6.137,6.137h7.972c0.625,0,1.133-0.506,1.133-1.133
	c0-0.626-0.507-1.133-1.133-1.133H6.137c-2.135,0-3.871-1.737-3.871-3.871v-3.872h72.799v3.872c0,2.134-1.736,3.871-3.871,3.871
	H48.025h-0.001h-6.853c-0.002,0-0.003,0-0.004,0s-0.002,0-0.003,0h-4.999c-0.001,0-0.001,0-0.003,0c0,0-0.001,0-0.002,0H18.648
	c-0.626,0-1.133,0.507-1.133,1.133c0,0.627,0.507,1.133,1.133,1.133H28l-0.968,7.744H21.15c-0.625,0-1.133,0.507-1.133,1.133v5.003
	c0,0.627,0.508,1.133,1.133,1.133h35.031c0.625,0,1.133-0.506,1.133-1.133v-5.003c0-0.626-0.508-1.133-1.133-1.133h-5.881
	l-0.968-7.744h21.861c3.385,0,6.137-2.752,6.137-6.137v-4.998C77.331,43.675,77.332,43.674,77.332,43.671z M37.296,54.813h2.739
	v2.739h-2.739V54.813z M55.049,67.56H22.283v-2.737h32.766V67.56z M48.018,62.557H29.314l0.968-7.744h4.748v3.872
	c0,0.625,0.508,1.133,1.133,1.133h5.004c0.626,0,1.133-0.508,1.133-1.133v-3.872h4.749L48.018,62.557z M70.062,42.538H7.27V7.27
	h62.792V42.538z M72.327,42.538V6.137c0-0.625-0.507-1.133-1.133-1.133H6.137c-0.625,0-1.133,0.508-1.133,1.133v36.401H2.266V6.137
	c0-2.135,1.736-3.872,3.871-3.872h65.057c2.135,0,3.871,1.736,3.871,3.872v36.401H72.327z"/>
<path fill="#1D73F8" d="M41.168,49.809c0.626,0,1.133-0.508,1.133-1.133c0-0.626-0.507-1.133-1.133-1.133h-5.004
	c-0.625,0-1.133,0.507-1.133,1.133c0,0.625,0.508,1.133,1.133,1.133H41.168z"/>
<path fill="#1D73F8" d="M38.666,39.8c8.213,0,14.895-6.683,14.895-14.895c0-8.213-6.682-14.895-14.895-14.895
	c-8.213,0-14.895,6.682-14.895,14.895C23.771,33.117,30.453,39.8,38.666,39.8z M28.346,32.171l9.188-5.305V37.48
	C33.742,37.142,30.429,35.121,28.346,32.171z M26.037,24.905c0-1.895,0.422-3.692,1.173-5.307l9.191,5.307l-9.191,5.306
	C26.459,28.596,26.037,26.799,26.037,24.905z M51.295,24.905c0,1.894-0.422,3.691-1.173,5.306l-9.19-5.306l9.19-5.307
	C50.873,21.212,51.295,23.01,51.295,24.905z M39.799,37.48V26.866l9.188,5.305C46.902,35.121,43.59,37.142,39.799,37.48z
	 M48.986,17.639l-9.188,5.304V12.329C43.59,12.667,46.902,14.688,48.986,17.639z M37.533,12.329v10.614l-9.188-5.304
	C30.429,14.688,33.742,12.667,37.533,12.329z"/>
<path fill="#1D73F8" d="M11.142,39.8h5.004c0.626,0,1.133-0.508,1.133-1.133v-5.005c0-0.626-0.507-1.133-1.133-1.133h-5.004
	c-0.625,0-1.133,0.507-1.133,1.133v5.005C10.009,39.292,10.516,39.8,11.142,39.8z M12.274,34.795h2.739v2.739h-2.739V34.795z"/>
</svg>
