<?xml version="1.0" encoding="utf-8"?>
<!-- Generator: Adobe Illustrator 15.0.0, SVG Export Plug-In  -->
<!DOCTYPE svg PUBLIC "-//W3C//DTD SVG 1.1//EN" "http://www.w3.org/Graphics/SVG/1.1/DTD/svg11.dtd" [
	<!ENTITY ns_flows "http://ns.adobe.com/Flows/1.0/">
]>
<svg version="1.1"
	 xmlns="http://www.w3.org/2000/svg" xmlns:xlink="http://www.w3.org/1999/xlink" xmlns:a="http://ns.adobe.com/AdobeSVGViewerExtensions/3.0/"
	 x="0px" y="0px" width="80px" height="80px" viewBox="-2.876 -1 80 80" enable-background="new -2.876 -1 80 80"
	 xml:space="preserve">
<defs>
</defs>
<path id="Shape_7_" d="M1.109,56.836c0.339,0.049,0.684-0.039,0.958-0.244c0.274-0.207,0.456-0.512,0.504-0.852
	c0.456-4.104,3.692-7.346,7.796-7.807c0.207,5.924,1.969,11.686,5.111,16.711c-2.873,1.537-6.435,4.805-6.435,11.584
	c0,0.715,0.579,1.293,1.292,1.293c0.714,0,1.292-0.578,1.292-1.293c0-5.486,2.725-8.15,5.333-9.445
	c4.758,6.615,12.36,10.596,20.507,10.738c8.146-0.143,15.749-4.123,20.507-10.738c2.608,1.295,5.333,3.959,5.333,9.445
	c0,0.715,0.578,1.293,1.292,1.293s1.292-0.578,1.292-1.293c0-6.779-3.563-10.047-6.435-11.584
	c3.142-5.025,4.905-10.787,5.111-16.711c4.105,0.461,7.343,3.705,7.796,7.811c0.102,0.707,0.757,1.197,1.463,1.096
	s1.197-0.756,1.096-1.463c-0.651-5.373-4.961-9.564-10.351-10.066c-0.17-6.031-1.954-11.908-5.168-17.016
	c3.64-2.108,6.049-5.833,6.479-10.018c0.065-0.457-0.118-0.914-0.48-1.2c-0.363-0.285-0.851-0.355-1.279-0.183
	c-0.429,0.171-0.733,0.559-0.799,1.016c-0.314,3.482-2.341,6.579-5.405,8.26c-1.644-2.166-3.586-4.088-5.77-5.709
	c2.073-6.079,0.163-12.806-4.796-16.887c0.874-0.656,1.941-1.004,3.034-0.988c4.119,0,5.195,2.882,5.235,2.992
	c0.146,0.438,0.515,0.766,0.967,0.859c0.453,0.093,0.921-0.063,1.228-0.408c0.307-0.346,0.406-0.829,0.26-1.267
	c-0.066-0.195-1.66-4.76-7.689-4.76c-1.95-0.03-3.835,0.705-5.25,2.048c-4.749-2.73-10.592-2.73-15.341,0
	c-1.415-1.343-3.299-2.078-5.25-2.048c-6.03,0-7.623,4.564-7.685,4.76c-0.226,0.678,0.141,1.41,0.819,1.636
	c0.678,0.225,1.41-0.142,1.635-0.819c0.005-0.03,1.042-2.992,5.23-2.992c1.094-0.018,2.162,0.329,3.038,0.984
	c-4.959,4.082-6.869,10.808-4.796,16.887c-2.183,1.621-4.125,3.543-5.769,5.709c-3.065-1.682-5.092-4.778-5.406-8.26
	c-0.102-0.706-0.756-1.197-1.462-1.095c-0.707,0.101-1.197,0.756-1.096,1.462c0.428,4.186,2.837,7.914,6.478,10.023
	c-3.213,5.108-4.998,10.984-5.168,17.017C4.979,45.813,0.667,50,0.013,55.373c-0.048,0.34,0.04,0.684,0.245,0.959
	C0.464,56.605,0.77,56.787,1.109,56.836L1.109,56.836z M14.631,56.918c1.582-1.449,3.896-1.764,5.809-0.793
	c1.912,0.971,3.022,3.025,2.787,5.158c-0.235,2.131-1.768,3.895-3.846,4.424C17.309,63.068,15.703,60.096,14.631,56.918
	L14.631,56.918z M37.469,64.602c0.713,0,1.292-0.58,1.292-1.293V49.613l5.813,24.1c-1.874,0.662-3.83,1.059-5.813,1.18V69.77
	c0-0.715-0.579-1.293-1.292-1.293c-0.714,0-1.292,0.578-1.292,1.293v5.127c-1.983-0.121-3.94-0.518-5.814-1.18l5.814-24.104v13.695
	C36.177,64.021,36.755,64.602,37.469,64.602z M55.557,65.707c-2.087-0.523-3.629-2.289-3.867-4.428
	c-0.239-2.139,0.876-4.199,2.796-5.17s4.241-0.648,5.822,0.813C59.236,60.1,57.629,63.07,55.557,65.707L55.557,65.707z
	 M56.91,29.186c-1.26,1.504-3.264,2.165-5.171,1.705s-3.391-1.959-3.828-3.872c-0.438-1.913,0.246-3.908,1.764-5.151
	C52.545,23.806,55.003,26.293,56.91,29.186L56.91,29.186z M49.546,10.957c-0.764,0.704-1.874,0.882-2.819,0.452
	c-0.945-0.429-1.542-1.383-1.515-2.421s0.674-1.958,1.641-2.337C48.027,7.894,48.943,9.357,49.546,10.957z M28.085,6.651
	c0.967,0.379,1.613,1.299,1.64,2.337s-0.569,1.992-1.515,2.421c-0.945,0.43-2.056,0.251-2.819-0.452
	C25.995,9.357,26.911,7.894,28.085,6.651z M24.549,15.505c0.005-0.634,0.057-1.268,0.155-1.894c2.396,1.279,5.374,0.481,6.81-1.824
	c1.437-2.305,0.839-5.329-1.365-6.916c4.405-3.048,10.236-3.048,14.641,0c-2.193,1.591-2.783,4.607-1.351,6.907
	s4.4,3.101,6.795,1.833c0.287,1.789,0.175,3.619-0.327,5.359c-7.648-4.621-17.228-4.621-24.876,0
	C24.713,17.842,24.551,16.677,24.549,15.505z M25.262,21.868c1.19,0.975,1.878,2.434,1.871,3.973
	c-0.002,2.165-1.354,4.1-3.386,4.846c-2.032,0.747-4.314,0.148-5.718-1.501C19.934,26.293,22.392,23.806,25.262,21.868
	L25.262,21.868z M16.646,31.484c2.252,2.123,5.55,2.704,8.391,1.477c2.841-1.227,4.68-4.025,4.679-7.12
	c-0.006-1.986-0.771-3.894-2.138-5.334c6.2-3.222,13.581-3.222,19.78,0c-2.138,2.244-2.732,5.547-1.511,8.396
	c1.223,2.849,4.025,4.694,7.125,4.691c1.978,0.006,3.882-0.749,5.317-2.109c2.47,4.623,3.75,9.787,3.727,15.029
	c0.001,2.604-0.312,5.199-0.931,7.729c-2.438-1.604-5.57-1.697-8.101-0.244s-4.026,4.207-3.871,7.121
	c0.155,2.912,1.938,5.49,4.607,6.666c-1.945,2.016-4.223,3.682-6.732,4.924l-8.269-34.251c-0.141-0.581-0.659-0.989-1.256-0.989
	s-1.116,0.408-1.256,0.989L27.94,72.709c-2.51-1.242-4.788-2.908-6.733-4.924c2.664-1.178,4.439-3.756,4.593-6.664
	c0.153-2.91-1.341-5.658-3.866-7.111c-2.525-1.453-5.653-1.363-8.091,0.232c-0.617-2.531-0.926-5.125-0.923-7.729
	C12.897,41.271,14.178,36.107,16.646,31.484L16.646,31.484z"/>
<path id="Shape_6_" fill="#1D73F8" d="M25.841,47.805c2.854,0,5.168-2.314,5.168-5.168c0-2.853-2.314-5.168-5.168-5.168
	c-2.854,0-5.168,2.315-5.168,5.168C20.673,45.49,22.986,47.805,25.841,47.805z M25.841,40.053c1.427,0,2.584,1.156,2.584,2.584
	s-1.157,2.584-2.584,2.584c-1.427,0-2.584-1.156-2.584-2.584S24.414,40.053,25.841,40.053z"/>
<path id="Shape_5_" fill="#1D73F8" d="M49.097,47.805c2.854,0,5.168-2.314,5.168-5.168c0-2.853-2.314-5.168-5.168-5.168
	c-2.854,0-5.168,2.315-5.168,5.168C43.929,45.49,46.243,47.805,49.097,47.805z M49.097,40.053c1.427,0,2.584,1.156,2.584,2.584
	s-1.157,2.584-2.584,2.584c-1.428,0-2.584-1.156-2.584-2.584S47.669,40.053,49.097,40.053z"/>
<path id="Shape_4_" fill="#1D73F8" d="M37.469,34.885c2.141,0,3.876-1.735,3.876-3.876s-1.735-3.876-3.876-3.876
	c-2.142,0-3.876,1.735-3.876,3.876S35.328,34.885,37.469,34.885z M37.469,29.717c0.713,0,1.292,0.578,1.292,1.292
	c0,0.713-0.579,1.292-1.292,1.292c-0.714,0-1.292-0.579-1.292-1.292C36.177,30.295,36.755,29.717,37.469,29.717z"/>
<path fill="#1D73F8" d="M27.94,72.709l8.269-34.252c0,0,0.922-2.292,2.512,0l8.269,34.252l-2.415,1.004l-5.813-24.1v13.695
	c0,0,0.036,1.258-1.402,1.287c0,0-1.027-0.08-1.178-1.221s-0.003-0.066-0.003-0.066V49.613l-5.814,24.104L27.94,72.709z"/>
</svg>
