<svg width="68" height="68" viewBox="0 0 68 68" fill="none" xmlns="http://www.w3.org/2000/svg">
<path d="M10.625 53.125H12.75V55.25H10.625V53.125Z" fill="black"/>
<path d="M14.875 53.125H17V55.25H14.875V53.125Z" fill="black"/>
<path d="M51 53.125H53.125V55.25H51V53.125Z" fill="black"/>
<path d="M55.25 53.125H57.375V55.25H55.25V53.125Z" fill="black"/>
<path d="M15.9375 48.875H18.0625V51H15.9375V48.875Z" fill="black"/>
<path d="M11.6875 48.875H13.8125V51H11.6875V48.875Z" fill="black"/>
<path d="M20.1875 48.875H22.3125V51H20.1875V48.875Z" fill="black"/>
<path d="M24.4375 48.875H26.5625V51H24.4375V48.875Z" fill="black"/>
<path d="M28.6875 48.875H30.8125V51H28.6875V48.875Z" fill="black"/>
<path d="M32.9375 48.875H35.0625V51H32.9375V48.875Z" fill="black"/>
<path d="M37.1875 48.875H39.3125V51H37.1875V48.875Z" fill="black"/>
<path d="M41.4375 48.875H43.5625V51H41.4375V48.875Z" fill="black"/>
<path d="M45.6875 48.875H47.8125V51H45.6875V48.875Z" fill="black"/>
<path d="M49.9375 48.875H52.0625V51H49.9375V48.875Z" fill="black"/>
<path d="M54.1875 48.875H56.3125V51H54.1875V48.875Z" fill="black"/>
<path d="M19.125 53.125H23.375V55.25H19.125V53.125Z" fill="black"/>
<path d="M44.625 53.125H48.875V55.25H44.625V53.125Z" fill="black"/>
<path d="M25.5 53.125H42.5V55.25H25.5V53.125Z" fill="black"/>
<path d="M64.8125 42.5002C65.0943 42.5002 65.3645 42.3883 65.5638 42.189C65.7631 41.9898 65.875 41.7195 65.875 41.4377V32.9377C65.875 32.6559 65.7631 32.3857 65.5638 32.1864C65.3645 31.9872 65.0943 31.8752 64.8125 31.8752H60.5625V13.8127C60.56 12.9681 60.2233 12.1588 59.6261 11.5616C59.0289 10.9644 58.2196 10.6277 57.375 10.6252H54.8569C53.655 8.08273 51.7556 5.93398 49.3799 4.42919C47.0041 2.9244 44.2497 2.12549 41.4375 2.12549C38.6253 2.12549 35.8709 2.9244 33.4951 4.42919C31.1194 5.93398 29.22 8.08273 28.0181 10.6252H20.6231L16.6919 6.68334C16.4893 6.48763 16.2192 6.37731 15.9375 6.37521H5.3125C4.4679 6.37773 3.65861 6.71437 3.06138 7.3116C2.46416 7.90882 2.12752 8.71811 2.125 9.56271V28.6877C2.12752 29.5323 2.46416 30.3416 3.06138 30.9388C3.65861 31.5361 4.4679 31.8727 5.3125 31.8752H7.4375V45.4752L2.21 58.034C2.15556 58.1617 2.12668 58.2989 2.125 58.4377V62.6877C2.12752 63.5323 2.46416 64.3416 3.06138 64.9388C3.65861 65.5361 4.4679 65.8727 5.3125 65.8752H62.6875C63.5321 65.8727 64.3414 65.5361 64.9386 64.9388C65.5358 64.3416 65.8725 63.5323 65.875 62.6877V58.4377C65.8733 58.2989 65.8444 58.1617 65.79 58.034L60.5625 45.4752V42.5002H64.8125ZM41.4375 4.25021C43.9592 4.25021 46.4243 4.99799 48.521 6.39897C50.6177 7.79996 52.2519 9.79124 53.217 12.121C54.182 14.4508 54.4345 17.0144 53.9425 19.4876C53.4506 21.9609 52.2362 24.2327 50.4531 26.0158C48.67 27.7989 46.3982 29.0133 43.9249 29.5052C41.4516 29.9972 38.888 29.7447 36.5583 28.7797C34.2285 27.8147 32.2373 26.1805 30.8363 24.0837C29.4353 21.987 28.6875 19.5219 28.6875 17.0002C28.6903 13.6196 30.0345 10.3782 32.425 7.98771C34.8155 5.59723 38.0569 4.25303 41.4375 4.25021ZM23.0669 13.0583L22.7481 12.7502H27.1894C26.5233 14.9713 26.3857 17.3173 26.7876 19.6009C27.1895 21.8846 28.1196 24.0427 29.5039 25.903C30.8881 27.7632 32.6881 29.2741 34.7601 30.315C36.8321 31.3559 39.1187 31.898 41.4375 31.898C43.7563 31.898 46.0429 31.3559 48.1149 30.315C50.1869 29.2741 51.9869 27.7632 53.3711 25.903C54.7554 24.0427 55.6855 21.8846 56.0874 19.6009C56.4893 17.3173 56.3517 14.9713 55.6856 12.7502H57.375C57.6568 12.7502 57.927 12.8622 58.1263 13.0614C58.3256 13.2607 58.4375 13.5309 58.4375 13.8127V31.8752H26.5625C26.2807 31.8752 26.0105 31.9872 25.8112 32.1864C25.6119 32.3857 25.5 32.6559 25.5 32.9377V41.4377C25.5 41.7195 25.6119 41.9898 25.8112 42.189C26.0105 42.3883 26.2807 42.5002 26.5625 42.5002H58.4375V44.6252H9.5625V31.8752H20.1875C21.0321 31.8727 21.8414 31.5361 22.4386 30.9388C23.0358 30.3416 23.3725 29.5323 23.375 28.6877V13.8127C23.3729 13.531 23.2626 13.2609 23.0669 13.0583ZM17 9.99834L19.7519 12.7502H18.0625C17.7807 12.7502 17.5105 12.6383 17.3112 12.439C17.1119 12.2398 17 11.9695 17 11.6877V9.99834ZM5.3125 29.7502C5.03071 29.7502 4.76046 29.6383 4.5612 29.439C4.36194 29.2398 4.25 28.9695 4.25 28.6877V9.56271C4.25 9.28092 4.36194 9.01067 4.5612 8.81141C4.76046 8.61215 5.03071 8.50021 5.3125 8.50021H14.875V11.6877C14.8775 12.5323 15.2142 13.3416 15.8114 13.9388C16.4086 14.5361 17.2179 14.8727 18.0625 14.8752H21.25V28.6877C21.25 28.9695 21.1381 29.2398 20.9388 29.439C20.7395 29.6383 20.4693 29.7502 20.1875 29.7502H5.3125ZM63.75 62.6877C63.75 62.9695 63.6381 63.2398 63.4388 63.439C63.2395 63.6383 62.9693 63.7502 62.6875 63.7502H5.3125C5.03071 63.7502 4.76046 63.6383 4.5612 63.439C4.36194 63.2398 4.25 62.9695 4.25 62.6877V59.5002H63.75V62.6877ZM63.2188 57.3752H4.78125L9.21187 46.7502H58.7881L63.2188 57.3752ZM59.5 40.3752V36.1252H57.375V40.3752H55.25V38.2502H53.125V40.3752H51V38.2502H48.875V40.3752H46.75V36.1252H44.625V40.3752H42.5V38.2502H40.375V40.3752H38.25V38.2502H36.125V40.3752H34V36.1252H31.875V40.3752H27.625V34.0002H63.75V40.3752H59.5Z" fill="black"/>
<path d="M47.4513 18.6681L44.5081 16.7131C45.2612 15.9349 45.6838 14.8954 45.6875 13.8125V10.625C45.6875 9.49783 45.2397 8.41683 44.4427 7.6198C43.6457 6.82277 42.5647 6.375 41.4375 6.375C40.3103 6.375 39.2293 6.82277 38.4323 7.6198C37.6353 8.41683 37.1875 9.49783 37.1875 10.625V13.8125C37.1862 14.8975 37.6051 15.9408 38.3562 16.7238L35.4238 18.6681C34.9861 18.9595 34.6272 19.3544 34.3789 19.8178C34.1305 20.2811 34.0004 20.7986 34 21.3244V24.4375C34 24.7193 34.1119 24.9895 34.3112 25.1888C34.5105 25.3881 34.7807 25.5 35.0625 25.5H47.8125C48.0943 25.5 48.3645 25.3881 48.5638 25.1888C48.7631 24.9895 48.875 24.7193 48.875 24.4375V21.3244C48.8746 20.7986 48.7445 20.2811 48.4961 19.8178C48.2478 19.3544 47.8889 18.9595 47.4513 18.6681ZM39.3125 10.625C39.3141 10.1071 39.5048 9.60752 39.8488 9.22029C40.1928 8.83306 40.6664 8.58479 41.1805 8.52215C41.6947 8.45952 42.214 8.58682 42.6409 8.88013C43.0678 9.17345 43.3728 9.61258 43.4987 10.115L43.2544 9.87063C43.0538 9.67156 42.7826 9.55986 42.5 9.55986C42.2174 9.55986 41.9462 9.67156 41.7456 9.87063L40.2475 11.3687C40.1491 11.4691 40.0317 11.549 39.9023 11.6037C39.7728 11.6584 39.6337 11.6869 39.4931 11.6875H39.3125V10.625ZM39.4931 13.8125C39.9134 13.8135 40.3297 13.7315 40.7181 13.571C41.1064 13.4105 41.4593 13.1748 41.7562 12.8775L42.5 12.1231L43.5625 13.1856V13.8125C43.5632 14.1118 43.5001 14.4079 43.3774 14.6809C43.2546 14.9539 43.075 15.1975 42.8506 15.3956C42.458 15.7349 41.9564 15.9217 41.4375 15.9217C40.9186 15.9217 40.417 15.7349 40.0244 15.3956L39.9394 15.3106C39.741 15.1148 39.5834 14.8815 39.4758 14.6244C39.3682 14.3672 39.3127 14.0913 39.3125 13.8125H39.4931ZM42.7125 18.0625L41.4375 18.9125L40.1625 18.0625L40.3963 17.9138C41.0763 18.1121 41.7987 18.1121 42.4787 17.9138L42.7125 18.0625ZM46.75 23.375H36.125V21.3244C36.1259 21.1494 36.17 20.9773 36.2534 20.8235C36.3368 20.6696 36.457 20.5387 36.6031 20.4425L38.25 19.3375L40.8531 21.0694C41.0253 21.187 41.229 21.2499 41.4375 21.2499C41.646 21.2499 41.8497 21.187 42.0219 21.0694L44.625 19.3375L46.2719 20.4425C46.418 20.5387 46.5382 20.6696 46.6216 20.8235C46.705 20.9773 46.7491 21.1494 46.75 21.3244V23.375Z" fill="#1D73F8"/>
<path d="M6.375 17H19.125V19.125H6.375V17Z" fill="#1D73F8"/>
<path d="M6.375 21.25H19.125V23.375H6.375V21.25Z" fill="#1D73F8"/>
<path d="M6.375 25.5H19.125V27.625H6.375V25.5Z" fill="#1D73F8"/>
<path d="M6.375 12.75H12.75V14.875H6.375V12.75Z" fill="#1D73F8"/>
</svg>
