<?xml version="1.0" encoding="utf-8"?>
<!-- Generator: Adobe Illustrator 15.0.0, SVG Export Plug-In  -->
<!DOCTYPE svg PUBLIC "-//W3C//DTD SVG 1.1//EN" "http://www.w3.org/Graphics/SVG/1.1/DTD/svg11.dtd" [
	<!ENTITY ns_flows "http://ns.adobe.com/Flows/1.0/">
]>
<svg version="1.1"
	 xmlns="http://www.w3.org/2000/svg" xmlns:xlink="http://www.w3.org/1999/xlink" xmlns:a="http://ns.adobe.com/AdobeSVGViewerExtensions/3.0/"
	 x="0px" y="0px" width="80px" height="80px" viewBox="-0.51 -1.716 80 80" enable-background="new -0.51 -1.716 80 80"
	 xml:space="preserve">
<defs>
</defs>
<path d="M79.5,33.527c0-2.962-0.935-5.777-2.703-8.143c-1.53-2.046-3.642-3.642-6.013-4.561
	c-0.137-6.015-5.071-10.866-11.119-10.866c-1.355,0-2.677,0.244-3.939,0.729c-2.011-3.071-4.72-5.648-7.886-7.497
	C44.265,1.103,40.176,0,36.017,0c-4.481,0-8.84,1.267-12.604,3.663c-3.475,2.212-6.31,5.29-8.229,8.928
	c-4.059,0.505-7.8,2.426-10.593,5.453C1.63,21.251,0,25.424,0,29.792c0,6.408,3.493,12.014,8.674,15.018
	c0.04,1.229,0.1,3.219,0.181,4.069c0.103,1.075,0.926,1.951,2.002,2.133l3.46,0.581c0.658,3.004,1.823,5.821,3.47,8.396l-2.03,2.851
	c-0.634,0.888-0.595,2.091,0.092,2.924c0.63,0.763,1.287,1.487,1.955,2.155c0.667,0.667,1.392,1.325,2.155,1.954
	c0.833,0.688,2.035,0.727,2.924,0.093l2.851-2.03c2.575,1.646,5.393,2.812,8.397,3.471l0.58,3.46
	c0.181,1.074,1.058,1.898,2.133,2.001c0.986,0.095,1.964,0.143,2.906,0.143s1.921-0.048,2.906-0.143
	c1.075-0.103,1.952-0.927,2.133-2.001l0.581-3.46c3.005-0.659,5.821-1.824,8.396-3.471l2.851,2.03
	c0.889,0.634,2.091,0.595,2.923-0.092c0.764-0.63,1.489-1.288,2.157-1.955c0.667-0.667,1.324-1.393,1.954-2.155
	c0.687-0.833,0.726-2.035,0.093-2.924l-2.032-2.851c1.648-2.575,2.813-5.393,3.471-8.396l3.46-0.58
	c1.076-0.182,1.899-1.059,2.003-2.134c0.086-0.898,0.13-1.788,0.139-2.652C75.878,44.257,79.5,39.307,79.5,33.527z M65.889,44.81
	h-42.32c-0.643,0-1.165,0.521-1.165,1.164s0.521,1.165,1.165,1.165h1.371c0.595,7.649,7.01,13.69,14.81,13.69
	c7.801,0,14.215-6.041,14.811-13.69h11.328c0.872,0,1.724-0.085,2.551-0.241c-0.02,0.578-0.057,1.168-0.113,1.761
	c-0.002,0.022-0.03,0.051-0.069,0.058l-4.249,0.714c-0.481,0.081-0.862,0.455-0.952,0.935c-0.608,3.255-1.86,6.28-3.717,8.993
	c-0.275,0.402-0.271,0.935,0.014,1.333l2.494,3.502c0.022,0.032,0.022,0.072,0.008,0.09c-0.583,0.706-1.19,1.376-1.805,1.99
	c-0.615,0.615-1.285,1.223-1.991,1.806c-0.019,0.016-0.059,0.016-0.09-0.008l-3.503-2.494c-0.396-0.283-0.931-0.289-1.332-0.013
	c-2.713,1.857-5.738,3.107-8.993,3.717c-0.479,0.09-0.854,0.47-0.935,0.951l-0.714,4.249c-0.007,0.039-0.035,0.066-0.058,0.069
	c-0.912,0.088-1.815,0.132-2.685,0.132s-1.772-0.044-2.685-0.132c-0.023-0.003-0.052-0.03-0.058-0.069l-0.715-4.249
	c-0.081-0.481-0.454-0.861-0.934-0.951c-3.255-0.609-6.281-1.859-8.993-3.717c-0.403-0.276-0.936-0.271-1.334,0.013l-3.501,2.494
	c-0.032,0.023-0.072,0.023-0.09,0.008c-0.707-0.583-1.377-1.19-1.991-1.806c-0.615-0.614-1.223-1.284-1.805-1.99
	c-0.014-0.018-0.015-0.059,0.008-0.091l2.494-3.501c0.283-0.398,0.289-0.931,0.013-1.334c-1.857-2.712-3.107-5.737-3.717-8.992
	c-0.089-0.48-0.47-0.854-0.951-0.935l-4.249-0.714c-0.039-0.007-0.067-0.035-0.069-0.058c-0.073-0.758-0.115-1.856-0.126-2.703
	c1.953,0.763,4.077,1.183,6.298,1.183h1.244c0.643,0,1.165-0.521,1.165-1.165c0-0.643-0.521-1.164-1.165-1.164h-1.244
	C9.065,44.81,2.329,38.072,2.329,29.792c0-3.781,1.411-7.392,3.973-10.169c2.546-2.759,6.002-4.458,9.732-4.78
	c0.405-0.036,0.763-0.28,0.944-0.646c1.73-3.508,4.388-6.471,7.685-8.57c3.39-2.158,7.315-3.298,11.354-3.298
	c3.748,0,7.43,0.993,10.65,2.872c3.121,1.821,5.75,4.432,7.603,7.548c0.311,0.523,0.97,0.719,1.516,0.45
	c1.228-0.605,2.532-0.913,3.88-0.913c4.849,0,8.793,3.944,8.793,8.793c0,0.093-0.007,0.202-0.016,0.316
	c-0.004,0.06-0.008,0.121-0.011,0.18c-0.029,0.533,0.307,1.018,0.816,1.177c4.738,1.475,7.923,5.805,7.923,10.774
	C77.171,39.748,72.109,44.81,65.889,44.81z M52.221,47.139C51.632,53.502,46.265,58.5,39.75,58.5
	c-6.515,0-11.881-4.998-12.471-11.361H52.221z"/>
<path fill="#1D73F8" d="M21.432,49.831c-0.62,0.171-0.984,0.813-0.813,1.432C22.982,59.827,30.846,65.81,39.74,65.81
	s16.758-5.981,19.121-14.547c0.171-0.619-0.192-1.261-0.813-1.432c-0.619-0.171-1.262,0.192-1.433,0.813
	C54.53,58.201,47.591,63.48,39.74,63.48c-7.85,0-14.791-5.279-16.876-12.837C22.693,50.023,22.051,49.66,21.432,49.831z"/>
<text transform="matrix(1 0 0 1 27.647 36.5142)" fill="#1D73F8" font-family="'OpenSans-Bold'" font-size="25">CI</text>
</svg>
