<?xml version="1.0" encoding="utf-8"?>
<!-- Generator: Adobe Illustrator 24.1.1, SVG Export Plug-In . SVG Version: 6.00 Build 0)  -->
<svg version="1.1" id="Layer_1" xmlns="http://www.w3.org/2000/svg" xmlns:xlink="http://www.w3.org/1999/xlink" x="0px" y="0px"
	 viewBox="0 0 80 80" style="enable-background:new 0 0 80 80;" xml:space="preserve">
<style type="text/css">
	.st0{fill:none;stroke:#1D73F8;stroke-width:3;stroke-miterlimit:10;}
	.st1{fill:#1D73F8;}
</style>
<g>
	<path class="st0" d="M54.7,24.1c-4.2,0-7.5-3.4-7.5-7.5s3.4-7.5,7.5-7.5s7.5,3.4,7.5,7.5S58.9,24.1,54.7,24.1z"/>
	<path class="st0" d="M29.6,57.3H12V39.7h17.6V57.3z"/>
	<path class="st0" d="M63.5,74.4H45.9V56.8h17.6V74.4z"/>
</g>
<path d="M66.2,21.6c0.1-0.2,0.2-0.4,0.3-0.7l3.3-0.9v-6.9l-3.3-0.9c-0.1-0.3-0.2-0.6-0.4-0.9l1.7-3l-4.9-4.9l-3,1.7
	c-0.3-0.1-0.6-0.3-0.9-0.4l-0.9-3.3h-6.9l-0.9,3.3c-0.3,0.1-0.6,0.2-0.9,0.4l-3-1.7l-4.9,4.9l1.7,3c-0.1,0.3-0.3,0.6-0.4,0.9
	l-3.3,0.9v6.9L43,21c0.1,0.2,0.2,0.4,0.3,0.7H0.7v57.8h77.8V21.6H66.2z M76.1,31.7H61v-3.1l1.9,1.1l4.9-4.9l-0.4-0.7h8.6V31.7z
	 M57.4,45.5l-2.7,4l-2.7-4H57.4z M58.5,43H56V29.2h2.5V43z M42.2,18.2V15l2.8-0.8l0.2-0.7c0.2-0.6,0.4-1.2,0.7-1.7l0.3-0.6l-1.4-2.5
	l2.2-2.2L49.4,8L50,7.7c0.6-0.3,1.1-0.5,1.7-0.7l0.7-0.2L53.2,4h3.1L57,6.8L57.7,7c0.6,0.2,1.2,0.4,1.7,0.7L60,8l2.5-1.4l2.2,2.2
	l-1.4,2.5l0.3,0.6c0.3,0.6,0.5,1.1,0.7,1.7l0.2,0.7l2.8,0.8v3.1l-2.8,0.8l-0.2,0.7c-0.2,0.6-0.4,1.2-0.7,1.7l-0.3,0.6l1.4,2.5
	l-2.2,2.2l-1.9-1.1L60,25.2l-1.5,0.8v0.7H51v-0.7l-1.5-0.8L47,26.6l-2.2-2.2l1.4-2.5l-0.3-0.6c-0.3-0.6-0.5-1.1-0.7-1.7l-0.2-0.7
	L42.2,18.2z M42,24.1l-0.4,0.7l4.9,4.9l1.9-1.1v3.1H3.3v-7.5H42z M3.3,76.9V34.2H51v-5h2.5V43H51v-6.3h-2.5v7.9l6.3,9.4l6.3-9.4
	V34.2h15.1v42.7H3.3z"/>
<path class="st1" d="M5.8,26.6h2.5v2.5H5.8V26.6z"/>
<path class="st1" d="M10.8,26.6h2.5v2.5h-2.5V26.6z"/>
<path class="st1" d="M15.8,26.6h2.5v2.5h-2.5V26.6z"/>
<path class="st1" d="M33.6,35.9l-1.8-1.3L21.2,48.9l-2.4-2.4L17.2,48l4.3,4.2L33.6,35.9z"/>
<path d="M5.8,61.8h2.5v2.5H5.8V61.8z"/>
<path d="M10.8,61.8h25.1v2.5H10.8V61.8z"/>
<path d="M5.8,66.8h30.1v2.5H5.8V66.8z"/>
<path d="M5.8,71.8h25.1v2.5H5.8V71.8z"/>
<path d="M33.4,71.8h2.5v2.5h-2.5V71.8z"/>
</svg>
