<?xml version="1.0" encoding="utf-8"?>
<!-- Generator: Adobe Illustrator 15.0.0, SVG Export Plug-In  -->
<!DOCTYPE svg PUBLIC "-//W3C//DTD SVG 1.1//EN" "http://www.w3.org/Graphics/SVG/1.1/DTD/svg11.dtd" [
	<!ENTITY ns_flows "http://ns.adobe.com/Flows/1.0/">
]>
<svg version="1.1"
	 xmlns="http://www.w3.org/2000/svg" xmlns:xlink="http://www.w3.org/1999/xlink" xmlns:a="http://ns.adobe.com/AdobeSVGViewerExtensions/3.0/"
	 x="0px" y="0px" width="80px" height="80px" viewBox="-3 -1.666 80 80" enable-background="new -3 -1.666 80 80"
	 xml:space="preserve">
<defs>
</defs>
<path d="M5.022,75.334h60.267c2.772,0,5.022-2.249,5.022-5.022v-3.767c0-0.693-0.562-1.256-1.256-1.256h-2.511V45.2h-2.512v20.09
	h-2.511V45.2h-2.512v20.09H42.985c-1.337-0.005-2.562,0.751-3.153,1.95c-0.171,0.345-0.524,0.563-0.91,0.562h-7.236
	c-0.385,0.002-0.738-0.217-0.908-0.562c-0.594-1.199-1.817-1.955-3.155-1.95H11.3V33.901c0-0.694,0.562-1.256,1.256-1.256h22.6
	v-2.511h-22.6c-2.08,0-3.767,1.687-3.767,3.767V65.29H6.278v-33.9c0-2.08,1.687-3.767,3.767-3.767h25.111v-2.511H10.044
	c-3.465,0.004-6.273,2.813-6.278,6.278v33.9H1.255C0.562,65.29,0,65.852,0,66.545v3.767C0,73.085,2.249,75.334,5.022,75.334z
	 M2.511,67.801h25.111c0.385-0.002,0.737,0.215,0.909,0.559c0.593,1.199,1.817,1.957,3.154,1.952h7.236
	c1.339,0.005,2.563-0.753,3.156-1.952c0.169-0.344,0.523-0.562,0.907-0.559h24.815v2.511c0,1.387-1.124,2.512-2.512,2.512H5.022
	c-1.387,0-2.511-1.125-2.511-2.512V67.801z"/>
<path d="M16.322,46.456V56.5c0,0.693,0.562,1.256,1.256,1.256h35.155c0.693,0,1.256-0.563,1.256-1.256V46.456
	c0-0.693-0.563-1.256-1.256-1.256H17.578C16.884,45.2,16.322,45.762,16.322,46.456z M18.833,47.711h32.644v7.533H18.833V47.711z"/>
<path fill="#1D73F8" d="M21.345,50.222h2.511v2.512h-2.511V50.222z"/>
<path fill="#1D73F8" d="M26.367,50.222h2.511v2.512h-2.511V50.222z"/>
<path fill="#1D73F8" d="M31.389,50.222H33.9v2.512h-2.511V50.222z"/>
<path fill="#1D73F8" d="M36.412,50.222h2.51v2.512h-2.51V50.222z"/>
<path fill="#1D73F8" d="M71.567,18.88v-3.813C71.567,6.746,64.822,0,56.5,0S41.433,6.746,41.433,15.067v3.813
	c-2.136,0.228-3.758,2.026-3.766,4.174v15.414c0.003,2.33,1.892,4.219,4.222,4.221h29.223c2.331-0.002,4.219-1.891,4.223-4.221
	V23.055C75.326,20.906,73.704,19.108,71.567,18.88z M43.944,15.067c0-6.935,5.621-12.556,12.556-12.556s12.556,5.621,12.556,12.556
	v3.767h-2.511v-3.767c0-5.548-4.498-10.044-10.045-10.044S46.455,9.519,46.455,15.067v3.767h-2.511V15.067z M48.967,18.833v-3.767
	c0-4.16,3.373-7.533,7.533-7.533s7.533,3.373,7.533,7.533v3.767H48.967z M72.823,38.468c-0.002,0.944-0.769,1.71-1.712,1.71H41.889
	c-0.943,0-1.71-0.766-1.711-1.71V23.055c0.001-0.944,0.768-1.709,1.711-1.71h29.223c0.943,0,1.71,0.766,1.712,1.71V38.468z"/>
<path fill="#1D73F8" d="M56.5,26.367c-1.832-0.004-3.399,1.315-3.711,3.121c-0.31,1.806,0.727,3.572,2.455,4.181v2.743h2.512v-2.743
	c1.729-0.608,2.765-2.375,2.455-4.181C59.899,27.682,58.332,26.363,56.5,26.367z M56.5,31.39c-0.693,0-1.256-0.562-1.256-1.256
	c0-0.693,0.563-1.255,1.256-1.255s1.256,0.562,1.256,1.255C57.756,30.828,57.193,31.39,56.5,31.39z"/>
<path fill="#1D73F8" d="M22.6,20.089h2.511V22.6H22.6V20.089z"/>
<path fill="#1D73F8" d="M22.6,15.067h2.511v2.511H22.6V15.067z"/>
<path fill="#1D73F8" d="M22.6,10.044h2.511v2.511H22.6V10.044z"/>
<path fill="#1D73F8" d="M22.6,5.022h2.511v2.511H22.6V5.022z"/>
<path fill="#1D73F8" d="M27.623,5.022h2.511v2.511h-2.511V5.022z"/>
<path fill="#1D73F8" d="M32.645,5.022h2.511v2.511h-2.511V5.022z"/>
<path fill="#1D73F8" d="M37.667,5.022h2.511v2.511h-2.511V5.022z"/>
</svg>
