<svg width="68" height="68" viewBox="0 0 68 68" fill="none" xmlns="http://www.w3.org/2000/svg">
<g clip-path="url(#clip0)">
<path d="M30.6984 65.9627L30.6929 65.9578L5.23137 43.3202C5.23032 43.3193 5.22927 43.3183 5.22822 43.3173C3.6884 41.9143 3.19082 39.7954 3.92872 37.8893L3.92881 37.889C4.66853 35.9763 6.46423 34.745 8.51405 34.745H12.7579H13.5079V33.995V5.66584C13.5079 2.95527 15.7132 0.75 18.4237 0.75H49.5859C52.2964 0.75 54.5017 2.95527 54.5017 5.66584V33.995V34.745H55.2517H59.4955C61.5453 34.745 63.3412 35.9763 64.0823 37.8894C64.821 39.7978 64.3207 41.9161 62.8068 43.296C62.8058 43.297 62.8048 43.2979 62.8037 43.2989L37.2952 65.9778L37.2895 65.983C36.3599 66.8268 35.1884 67.2498 34.0117 67.2498C32.8309 67.2498 31.6478 66.8236 30.6984 65.9627ZM18.4237 4.91584H17.6737V5.66584V33.995C17.6737 36.7056 15.4685 38.9109 12.7579 38.9109H8.51405H6.54165L8.01573 40.2214L33.4837 62.8633L33.9815 63.306L34.4798 62.8638L60.0176 40.2004L61.5061 38.8795L59.516 38.8895L55.2517 38.9109C55.251 38.9109 55.2503 38.9109 55.2495 38.9109C52.54 38.9097 50.3359 36.7049 50.3359 33.995V5.66584V4.91584H49.5859H18.4237Z" fill="black" stroke="white" stroke-width="1.5"/>
<path d="M36.6943 48.6793L36.3376 48.7859V49.1583V50.9925C36.3376 52.2801 35.2923 53.3255 34.0046 53.3255C32.7169 53.3255 31.6716 52.2801 31.6716 50.9925V49.1583V48.786L31.3149 48.6793C27.4301 47.5177 24.5893 43.9159 24.5893 39.6608C24.5893 38.3731 25.6346 37.3278 26.9223 37.3278C28.21 37.3278 29.2553 38.3731 29.2553 39.6608C29.2553 42.2795 31.3859 44.4101 34.0046 44.4101C36.6232 44.4101 38.7539 42.2795 38.7539 39.6608C38.7539 37.0421 36.6232 34.9115 34.0046 34.9115C28.8147 34.9115 24.5893 30.6874 24.5893 25.4962C24.5893 21.2424 27.4301 17.6393 31.3149 16.4777L31.6716 16.371V15.9987V14.1645C31.6716 12.8768 32.7169 11.8315 34.0046 11.8315C35.2923 11.8315 36.3376 12.8768 36.3376 14.1645V15.9987V16.3711L36.6943 16.4777C40.5804 17.6393 43.4199 21.241 43.4199 25.4962C43.4199 26.7839 42.3746 27.8292 41.0869 27.8292C39.7992 27.8292 38.7539 26.7839 38.7539 25.4962C38.7539 22.8775 36.6232 20.7469 34.0046 20.7469C31.3859 20.7469 29.2553 22.8775 29.2553 25.4962C29.2553 28.1149 31.3859 30.2455 34.0046 30.2455C39.1945 30.2455 43.4199 34.4696 43.4199 39.6608C43.4199 43.9147 40.5803 47.5177 36.6943 48.6793Z" fill="#1D73F8" stroke="white" stroke-width="0.999854"/>
</g>
<defs>
<clipPath id="clip0">
<rect width="68" height="68" fill="white"/>
</clipPath>
</defs>
</svg>
