<svg width="68" height="68" viewBox="0 0 68 68" fill="none" xmlns="http://www.w3.org/2000/svg">
<path d="M50.5367 47.6019C50.6671 47.6593 50.8031 47.6864 50.937 47.6864C51.32 47.6864 51.6854 47.464 51.8494 47.0908L59.3938 29.9285C59.5293 29.6205 59.4999 29.265 59.3161 28.9832C59.1323 28.7013 58.8184 28.5316 58.482 28.5316H49.0405C48.4904 28.5316 48.0444 28.9776 48.0444 29.5277C48.0444 30.0778 48.4904 30.5238 49.0405 30.5238H56.956L50.0256 46.2892C49.8042 46.7928 50.033 47.3805 50.5367 47.6019Z" fill="#1D73F8"/>
<path d="M18.9542 34.7228C18.9617 34.6901 18.9677 34.6572 18.9718 34.6241L19.0552 33.9715C19.0607 33.9296 19.0633 33.8874 19.0633 33.8452C19.0633 30.9152 16.6796 28.5316 13.7498 28.5316C11.2162 28.5316 9.02363 30.3336 8.53594 32.8164C8.42995 33.3562 8.78164 33.8797 9.32139 33.9858C9.86061 34.0915 10.3847 33.7403 10.4908 33.2004C10.7953 31.6495 12.1661 30.5239 13.7499 30.5239C15.5616 30.5239 17.0391 31.9818 17.0707 33.7861L17.0025 34.3197C16.7716 35.2754 16.2239 36.3754 15.3739 37.59C12.6902 41.4244 11.0878 43.5226 10.227 44.6497C9.21448 45.9755 8.97396 46.2905 9.16149 46.8998C9.26495 47.2361 9.523 47.4952 9.86938 47.6107C10.0063 47.6562 10.227 47.7299 13.3969 47.7299C14.664 47.7299 16.4027 47.7181 18.7952 47.6881C19.3453 47.6812 19.7856 47.2296 19.7787 46.6795C19.7717 46.1336 19.3272 45.6959 18.7828 45.6959C18.7786 45.6959 18.7743 45.6959 18.7701 45.6959C16.2845 45.7272 13.571 45.7436 11.908 45.7307C12.799 44.5637 14.3971 42.4599 17.0062 38.732C18.0169 37.2878 18.6723 35.9388 18.9542 34.7228Z" fill="#1D73F8"/>
<path d="M30.9337 30.6372C30.8513 29.6506 30.2862 28.8545 29.4939 28.6091C29.123 28.4943 28.1598 28.3509 27.2246 29.4984C26.252 30.6916 21.0508 40.1031 20.4609 41.1722C20.2906 41.4807 20.2961 41.8563 20.4752 42.1598C20.6544 42.4633 20.9806 42.6495 21.3329 42.6495H28.9337C28.9236 44.0752 28.9127 45.4686 28.9019 46.7222C28.8971 47.2723 29.3393 47.722 29.8894 47.7268H29.8981C30.4441 47.7268 30.8893 47.2865 30.894 46.7392C30.8981 46.2676 30.9116 44.6693 30.9258 42.6493H32.136C32.6861 42.6493 33.1321 42.2034 33.1321 41.6533C33.1321 41.1031 32.6861 40.6572 32.136 40.6572H30.9391C30.9662 36.343 30.9859 31.2636 30.9337 30.6372ZM28.9469 40.6573H23.0235C25.2221 36.7021 28.1975 31.4579 28.7688 30.7569C28.823 30.6905 28.8699 30.6418 28.9083 30.6064C28.9258 30.6568 28.9416 30.7221 28.9484 30.8027C28.9902 31.3056 28.9766 35.8917 28.9469 40.6573Z" fill="#1D73F8"/>
<path d="M35.9854 51.6971C36.4024 51.6971 36.791 51.4331 36.9302 51.0158L44.8701 27.196C45.0441 26.6742 44.762 26.11 44.2401 25.936C43.7183 25.7621 43.1541 26.0441 42.9801 26.566L35.0402 50.3859C34.8662 50.9078 35.1483 51.4719 35.6702 51.6458C35.7747 51.6806 35.881 51.6971 35.9854 51.6971Z" fill="#1D73F8"/>
<path d="M62.7454 18.6312H59.483V15.1365C60.7192 14.7196 61.6122 13.5499 61.6122 12.1748C61.6122 10.4514 60.2101 9.04944 58.4869 9.04944C56.7637 9.04944 55.3616 10.4515 55.3616 12.1748C55.3616 13.5498 56.2546 14.7195 57.4908 15.1365V18.6312H15.9006C15.3505 18.6312 14.9045 19.0772 14.9045 19.6273C14.9045 20.1774 15.3505 20.6234 15.9006 20.6234H62.7453C64.5442 20.6234 66.0077 22.087 66.0077 23.8858V53.6958C66.0077 55.4948 64.5441 56.9582 62.7453 56.9582H5.25459C3.45578 56.9584 1.99219 55.4948 1.99219 53.6958V23.8859C1.99219 22.087 3.45578 20.6235 5.25459 20.6235H11.6425C12.1926 20.6235 12.6386 20.1775 12.6386 19.6274C12.6386 19.0773 12.1926 18.6313 11.6425 18.6313H10.5093V15.1366C11.7455 14.7197 12.6386 13.5501 12.6386 12.1749C12.6386 10.4515 11.2365 9.04957 9.51323 9.04957C7.78998 9.04957 6.38788 10.4515 6.38788 12.1748C6.38788 13.5498 7.28091 14.7195 8.51713 15.1365V18.6312H5.25459C2.35729 18.6312 0 20.9885 0 23.8859V53.6959C0 56.5934 2.35729 58.9505 5.25459 58.9505H62.7453C65.6427 58.9505 67.9999 56.5933 67.9999 53.6959V23.8859C68 20.9885 65.6427 18.6312 62.7454 18.6312ZM58.4868 11.0416C59.1117 11.0416 59.6199 11.55 59.6199 12.1748C59.6199 12.7995 59.1115 13.3079 58.4868 13.3079C57.862 13.3079 57.3536 12.7995 57.3536 12.1748C57.3536 11.55 57.862 11.0416 58.4868 11.0416ZM9.51323 11.0416C10.1381 11.0416 10.6464 11.55 10.6464 12.1748C10.6464 12.7995 10.138 13.3079 9.51323 13.3079C8.88848 13.3079 8.38007 12.7995 8.38007 12.1748C8.38007 11.55 8.88834 11.0416 9.51323 11.0416Z" fill="black"/>
</svg>
