<svg width="90" height="90" viewBox="0 0 90 90" fill="none" xmlns="http://www.w3.org/2000/svg">
<path d="M75 15.891V7.5C74.9948 3.36 71.64 0.00525 67.5 0H7.5C3.36 0.00525 0.00525 3.36 0 7.5V40.5C0.011625 44.3306 2.91525 47.5343 6.726 47.9228L12.3645 62.5594C13.854 66.4241 18.1943 68.3494 22.0594 66.8618L57.27 53.298C54.837 59.6531 55.5293 66.7823 59.1383 72.5509L60 73.929V88.5C60 89.3288 60.6713 90 61.5 90H88.5C89.3288 90 90 89.3288 90 88.5V38.9869C89.9858 33.7995 87.9206 28.8293 84.2531 25.1606L75 15.891ZM75 24.8618L79.5525 36.6795C80.4446 38.9993 79.2885 41.6021 76.9691 42.495L74.367 43.5C74.7825 42.5543 74.9978 41.532 75 40.5V24.8618ZM3 40.5V7.5C3 5.01525 5.01525 3 7.5 3H67.5C69.9848 3 72 5.01525 72 7.5V17.034H71.9869L72 17.0681V40.5C71.9884 40.7618 71.9543 41.0213 71.898 41.277L58.158 27.5355C55.0695 24.5183 50.1458 24.495 47.0295 27.4808C43.9125 30.4684 43.7254 35.3884 46.608 38.6021L52.4655 45H7.5C5.01525 45 3 42.9848 3 40.5ZM22.2165 48L11.55 52.1066L9.972 48H22.2165ZM20.9805 64.0616C18.6615 64.9556 16.0571 63.7995 15.1635 61.4805L12.633 54.9L30.5385 48V47.991H55.215L57.1646 50.1165L20.9805 64.0616ZM87 87H63V75H87V87ZM87 72H62.3325L61.6819 70.9605C58.0245 65.1158 57.879 57.7335 61.302 51.75C61.626 51.1838 61.5465 50.4728 61.1055 49.992L48.8134 36.582C46.9804 34.5758 47.0835 31.4741 49.0459 29.595C51.009 27.7155 54.1121 27.7463 56.0366 29.6633L79.9395 53.5605L82.0605 51.4395L76.5105 45.8895L78.0495 45.2895C81.9113 43.7996 83.8358 39.4631 82.35 35.5991L77.2729 22.4156L82.1321 27.285C85.2371 30.3893 86.988 34.596 87 38.9869V72Z" fill="black"/>
<path d="M17.1 21C19.254 21 21 19.254 21 17.1V9.9C21 7.746 19.254 6 17.1 6H9.9C7.746 6 6 7.746 6 9.9V17.1C6 19.254 7.746 21 9.9 21H17.1ZM9 17.1V15H12V12H9V9.9C9 9.40313 9.40313 9 9.9 9H17.1C17.5969 9 18 9.40313 18 9.9V12H15V15H18V17.1C18 17.5969 17.5969 18 17.1 18H9.9C9.40313 18 9 17.5969 9 17.1Z" fill="#1D73F8"/>
<path d="M7.5 25.5H13.5V28.5H7.5V25.5Z" fill="#1D73F8"/>
<path d="M7.5 34.5H13.5V37.5H7.5V34.5Z" fill="#1D73F8"/>
<path d="M34.5 34.5H40.5V37.5H34.5V34.5Z" fill="#1D73F8"/>
<path d="M16.5 25.5H22.5V28.5H16.5V25.5Z" fill="#1D73F8"/>
<path d="M25.5 25.5H31.5V28.5H25.5V25.5Z" fill="#1D73F8"/>
<path d="M34.5 25.5H40.5V28.5H34.5V25.5Z" fill="#1D73F8"/>
<path d="M63 7.5H66V12H63V7.5Z" fill="black"/>
<path d="M57 7.5H60V12H57V7.5Z" fill="black"/>
<path d="M51 7.5H54V12H51V7.5Z" fill="black"/>
<path d="M45 7.5H48V12H45V7.5Z" fill="black"/>
<path d="M66 78H69V81H66V78Z" fill="black"/>
</svg>
