<svg width="73" height="75" viewBox="0 0 73 75" fill="none" xmlns="http://www.w3.org/2000/svg">
<path d="M57.6929 57.693V63.7723H48.7073V45.1711C50.9599 45.9946 53.1639 46.4065 55.2468 46.4065C59.4611 46.4065 63.3121 44.6626 66.0977 41.5139C68.3746 38.9224 69.8035 35.4831 69.8035 32.5523C69.8035 26.8362 65.904 22.0163 60.4785 20.6115C61.0114 18.8193 61.2535 16.93 61.1325 15.0648C60.8902 11.0446 59.0737 7.26614 56.0462 4.43239C53.0185 1.59844 49.0946 0.0243558 45.0257 0H44.9047C41.1746 0 37.5415 1.28366 34.6594 3.58473C32.5279 5.30421 30.8567 7.55675 29.8395 10.0516C27.7084 8.40441 25.0682 7.48424 22.3069 7.48424C21.9195 7.48424 21.5076 7.48424 21.096 7.53258C16.4457 7.9684 12.401 11.1169 10.7538 15.5735C10.0516 17.4871 9.85763 19.473 10.1726 21.4591C5.95831 23.5179 3.22142 27.8049 3.22142 32.5035C3.22142 39.1399 8.16251 44.0083 15.0895 44.3229C16.8817 47.0358 20.4664 48.077 22.5009 48.077C23.1306 48.077 23.7362 48.0527 24.293 48.0043V63.7718H15.3071V57.6928H0V73H15.3072V66.9207H27.4416V47.2299C28.5073 46.7696 29.5731 46.0917 30.8082 45.0501C32.1644 46.3338 34.7802 48.0776 38.8493 48.0776C41.7558 48.0776 43.984 47.2299 45.5584 46.2854V66.9212H57.6928V73.0004H73V57.6932L57.6929 57.693ZM12.1587 69.8517H3.14872V60.8417H12.1587V69.8517ZM46.7696 40.884L45.9946 41.877C45.5829 42.3857 43.3546 44.9289 38.8495 44.9289C34.2475 44.9289 32.3341 42.0708 32.2616 41.9499L31.2444 40.3029L29.8395 41.6351C26.715 44.6384 25.2619 44.9292 22.5007 44.9292C21.3139 44.9292 18.4073 44.2026 17.4627 42.1198L17.0511 41.1997H15.8158C10.2451 41.1997 6.36977 37.6149 6.36977 32.5046C6.36977 28.6537 8.84023 25.1902 12.5216 23.8823L13.9022 23.398L13.5147 21.9931C13.006 20.1522 13.0787 18.4084 13.7084 16.6645C14.9198 13.3461 17.9473 10.9725 21.3868 10.6575C21.7017 10.6331 21.9923 10.6092 22.3069 10.6092C25.0436 10.6092 27.6355 11.8201 29.3793 13.9033L31.4381 16.3737L32.1404 13.2494C33.4482 7.38811 38.8253 3.12511 44.9288 3.12511H45.0259C51.7833 3.17345 57.5963 8.59907 58.0081 15.2353C58.1533 17.2697 57.7658 19.3044 56.9423 21.1692L56.046 23.1795L58.2258 23.3974C63.0457 23.8578 66.6787 27.7815 66.6787 32.5528C66.6787 34.7327 65.5161 37.4212 63.7479 39.4313C62.1978 41.1751 59.4609 43.2581 55.2467 43.2581C52.9698 43.2581 50.4993 42.6284 47.9078 41.4172L46.7696 40.884ZM69.8516 69.8517H60.8417V60.8417H69.8516V69.8517Z" fill="#333333"/>
<path d="M49.5684 29.2588L48.0684 25.0597L49.109 22.5637L54.3311 34.4812H51.3133L50.4742 32.1461L50.3553 31.8152H50.0037H45.3931L46.1398 29.927H49.0975H49.8071L49.5684 29.2588Z" stroke="#1D73F8"/>
<path d="M49.1788 21.7954L43.5804 35.6806H40.3593L37.7683 27.4049L37.3025 25.9171L36.8161 27.3983L34.0964 35.6806H30.8302L29.0564 32.6362L30.6128 27.841L32.2764 31.1397L32.8225 32.2225L33.1983 31.0695L36.2204 21.7954H38.5451L41.3568 31.0598L41.7558 32.3744L42.2951 31.1108L46.2709 21.7954H49.1788Z" stroke="#1D73F8"/>
<path d="M25.0513 28.6826V28.1826V24.1836V23.6836H25.5513H26.978C27.8801 23.6836 28.6533 23.8677 29.1499 24.3675L25.0513 28.6826ZM25.0513 28.6826H25.5513M25.0513 28.6826H25.5513M25.5513 28.6826H26.9676C27.9264 28.6826 28.7462 28.4829 29.2355 27.922C29.6482 27.4535 29.8281 26.8455 29.8281 26.1553C29.8281 25.4507 29.6156 24.8361 29.1499 24.3675L25.5513 28.6826ZM25.5513 30.5708H25.0513V31.0708V35.6806H22.2744V21.7954H27.9361C29.5903 21.7954 30.7682 22.2675 31.5571 23.1406L31.5581 23.1417C31.6596 23.2534 31.7534 23.3693 31.8397 23.4893L30.1434 28.7152L29.5944 30.4068C29.1274 30.5146 28.5977 30.5708 28.002 30.5708H25.5513Z" stroke="#1D73F8"/>
<rect x="32.5" y="63.5" width="8" height="10" fill="white" stroke="#333333" stroke-width="3"/>
<rect x="35" y="46" width="3" height="16" fill="#333333"/>
</svg>
