<?xml version="1.0" encoding="utf-8"?>
<!-- Generator: Adobe Illustrator 15.0.0, SVG Export Plug-In  -->
<!DOCTYPE svg PUBLIC "-//W3C//DTD SVG 1.1//EN" "http://www.w3.org/Graphics/SVG/1.1/DTD/svg11.dtd" [
	<!ENTITY ns_flows "http://ns.adobe.com/Flows/1.0/">
]>
<svg version="1.1"
	 xmlns="http://www.w3.org/2000/svg" xmlns:xlink="http://www.w3.org/1999/xlink" xmlns:a="http://ns.adobe.com/AdobeSVGViewerExtensions/3.0/"
	 x="0px" y="0px" width="80px" height="80px" viewBox="-3.778 -1 80 80" enable-background="new -3.778 -1 80 80"
	 xml:space="preserve">
<defs>
</defs>
<path fill="#1D73F8" d="M30.955,11.953l0.469,2.556c0.781-0.143,1.572-0.214,2.365-0.214c2.054-0.006,4.079,0.479,5.907,1.417
	l1.183-2.314c-1.412-0.724-2.925-1.225-4.491-1.486V9.097h2.6c0.718,0,1.3-0.583,1.3-1.3l0,0V1.299c0-0.718-0.582-1.299-1.3-1.299
	l0,0h-6.498c-0.717,0-1.299,0.582-1.299,1.299l0,0v6.498c0,0.717,0.582,1.3,1.299,1.3l0,0h1.3v2.599
	C32.839,11.696,31.89,11.782,30.955,11.953z M33.789,2.599h3.899v3.898h-3.899V2.599z"/>
<path fill="#1D73F8" d="M12.996,20.793H6.498c-0.718,0-1.3,0.582-1.3,1.299v0.001v6.497c0,0.718,0.582,1.3,1.3,1.3l0,0h6.498
	c0.718,0,1.3-0.582,1.3-1.299V28.59v-2.599h3.954c-0.035,0.43-0.055,0.863-0.055,1.3c0,0.473,0.021,0.949,0.063,1.416l2.589-0.233
	c-0.036-0.39-0.054-0.788-0.054-1.183c-0.011-4.888,2.73-9.367,7.09-11.58L26.7,13.397c-1.067,0.545-2.068,1.21-2.984,1.983
	l-4.222-4.223V1.299c0-0.718-0.582-1.299-1.3-1.299l0,0H7.797C7.08,0,6.498,0.582,6.498,1.299l0,0v10.397
	c0,0.718,0.582,1.299,1.299,1.299l0,0h9.858l4.22,4.22c-1.518,1.791-2.609,3.903-3.19,6.177h-4.39v-1.299
	C14.295,21.375,13.713,20.793,12.996,20.793L12.996,20.793z M11.696,27.291H7.797v-3.899h3.898V27.291z M16.895,10.396H9.097V2.599
	h7.797V10.396z"/>
<path d="M57.182,20.793h14.295c0.718,0,1.3-0.582,1.3-1.299l0,0V5.198c0-0.717-0.582-1.3-1.3-1.3l0,0H57.182
	c-0.717,0-1.299,0.582-1.299,1.3l0,0v8.377l-8.826,5.515c-0.898-1.45-2.026-2.744-3.343-3.829l-1.656,2.004
	c5.209,4.296,6.261,11.865,2.419,17.417l-2.598-0.866c3.604-4.468,2.904-11.014-1.563-14.618c-4.47-3.604-11.015-2.903-14.619,1.565
	c-1.491,1.849-2.305,4.153-2.305,6.527c0,0.497,0.035,0.992,0.105,1.484l2.574-0.369c-0.052-0.369-0.08-0.742-0.08-1.115
	c-0.001-4.307,3.489-7.798,7.796-7.8c4.306-0.001,7.799,3.489,7.799,7.796c0.002,2.126-0.866,4.161-2.401,5.631l-0.436-0.146
	l-1.95-6.826c-0.534-1.87-2.484-2.953-4.354-2.418c-1.511,0.432-2.554,1.814-2.554,3.386v7.133
	c-1.146-0.663-2.104-1.605-2.786-2.739l-2.226,1.341c1.161,1.933,2.921,3.437,5.012,4.282v1.518l-0.917,0.916
	c-3.347-1.329-5.991-3.991-7.295-7.348l-2.421,0.946c0.111,0.285,0.231,0.565,0.358,0.842l-8.292,5.183H1.299
	c-0.718,0-1.299,0.582-1.299,1.3l0,0v10.396c0,0.718,0.582,1.3,1.299,1.3l0,0h10.396c0.718,0,1.3-0.582,1.3-1.3l0,0v-9.677
	l7.898-4.936c1.536,2.263,3.645,4.079,6.109,5.266l-1.93,1.93c-0.244,0.244-0.381,0.574-0.381,0.919v7.798
	c0,0.304,0.106,0.598,0.301,0.832l6.197,7.436v16.425c0,0.717,0.582,1.299,1.299,1.299l0,0h16.895c0.717,0,1.299-0.582,1.299-1.299
	l0,0V60.088l3.762-7.523c0.092-0.181,0.138-0.38,0.138-0.581V41.681c0.002-2.169-1.385-4.094-3.442-4.777l-4.113-1.371
	c1.017-1.639,1.724-3.451,2.082-5.346l8.073,2.019v4.183c0,0.717,0.582,1.299,1.299,1.299l0,0h7.799
	c0.717,0,1.299-0.582,1.299-1.299l0,0V28.59c0-0.717-0.582-1.299-1.299-1.299l0,0H58.48c-0.717,0-1.299,0.582-1.299,1.299l0,0v0.935
	l-7.805-1.951c0.003-0.094,0.007-0.189,0.007-0.283c0.002-2.014-0.387-4.008-1.144-5.875l7.643-4.777v2.854
	C55.883,20.211,56.465,20.793,57.182,20.793L57.182,20.793z M10.396,49.385H2.599v-7.799h7.797V49.385z M51.983,41.681v9.995
	L48.223,59.2c-0.092,0.18-0.138,0.379-0.138,0.58v15.596H33.789V59.78c0-0.304-0.107-0.598-0.302-0.832l-6.196-7.437v-6.787
	l2.599-2.6v7.26h2.599V26.914c0-0.51,0.413-0.923,0.923-0.923c0.412,0,0.774,0.273,0.888,0.669l2.088,7.311v8.916h2.6v-7.294
	l2.599,0.866v6.428h2.6v-5.563l2.601,0.867v4.695h2.598v-3.83l0.934,0.312C51.313,39.699,51.983,40.631,51.983,41.681z M59.78,29.89
	h5.2v5.198h-5.2V29.89z M58.48,6.498h11.697v11.697H58.48V6.498z"/>
</svg>
