<?xml version="1.0" encoding="utf-8"?>
<!-- Generator: Adobe Illustrator 15.0.0, SVG Export Plug-In  -->
<!DOCTYPE svg PUBLIC "-//W3C//DTD SVG 1.1//EN" "http://www.w3.org/Graphics/SVG/1.1/DTD/svg11.dtd" [
	<!ENTITY ns_flows "http://ns.adobe.com/Flows/1.0/">
]>
<svg version="1.1"
	 xmlns="http://www.w3.org/2000/svg" xmlns:xlink="http://www.w3.org/1999/xlink" xmlns:a="http://ns.adobe.com/AdobeSVGViewerExtensions/3.0/"
	 x="0px" y="0px" width="80px" height="80px" viewBox="-1.107 -6.873 80 80" enable-background="new -1.107 -6.873 80 80"
	 xml:space="preserve">
<defs>
</defs>
<path fill="#1D73F8" d="M30.69,49.926c-0.294,0-0.589-0.102-0.831-0.308l-8.31-7.075c-0.287-0.245-0.452-0.602-0.452-0.979
	s0.166-0.733,0.452-0.978l8.31-7.076c0.54-0.46,1.35-0.395,1.81,0.145c0.459,0.541,0.395,1.35-0.146,1.81l-7.161,6.099l7.161,6.099
	c0.541,0.46,0.605,1.27,0.146,1.811C31.415,49.772,31.054,49.926,30.69,49.926z"/>
<path fill="#1D73F8" d="M47.096,49.926c-0.363,0-0.726-0.153-0.979-0.452c-0.46-0.541-0.395-1.351,0.145-1.811l7.161-6.099
	l-7.161-6.099c-0.539-0.46-0.604-1.27-0.145-1.81c0.46-0.54,1.271-0.605,1.81-0.145l8.31,7.076c0.287,0.244,0.452,0.601,0.452,0.978
	s-0.165,0.733-0.452,0.979l-8.31,7.075C47.686,49.824,47.389,49.926,47.096,49.926z"/>
<path fill="#1D73F8" d="M35.951,55.232c-0.088,0-0.177-0.009-0.267-0.027c-0.694-0.146-1.138-0.828-0.992-1.521l5.179-24.59
	c0.146-0.694,0.827-1.138,1.521-0.992c0.694,0.146,1.139,0.827,0.992,1.521l-5.179,24.591
	C37.078,54.818,36.545,55.232,35.951,55.232z"/>
<path d="M69.165,68.63H8.623C3.868,68.63,0,64.762,0,60.007V8.623C0,3.869,3.868,0,8.623,0h60.542c4.753,0,8.621,3.869,8.621,8.623
	v51.384C77.786,64.762,73.917,68.63,69.165,68.63z M8.623,2.569c-3.338,0-6.054,2.716-6.054,6.054v51.384
	c0,3.339,2.716,6.055,6.054,6.055h60.542c3.338,0,6.054-2.716,6.054-6.055V8.623c0-3.338-2.716-6.054-6.054-6.054H8.623z"/>
<path d="M76.502,20.564H1.284C0.575,20.564,0,19.989,0,19.28c0-0.708,0.575-1.284,1.284-1.284h75.218
	c0.709,0,1.283,0.576,1.283,1.284C77.786,19.989,77.211,20.564,76.502,20.564z"/>
<path fill="#1D73F8" d="M21.942,14.419c-2.24,0-4.064-1.824-4.064-4.064c0-2.241,1.824-4.064,4.064-4.064
	c2.241,0,4.064,1.823,4.064,4.064C26.006,12.595,24.183,14.419,21.942,14.419z M21.942,8.859c-0.824,0-1.496,0.671-1.496,1.496
	s0.671,1.496,1.496,1.496c0.825,0,1.496-0.671,1.496-1.496S22.767,8.859,21.942,8.859z"/>
<path fill="#1D73F8" d="M9.455,14.379c-2.241,0-4.064-1.823-4.064-4.064c0-2.241,1.823-4.064,4.064-4.064
	c2.241,0,4.064,1.823,4.064,4.064C13.519,12.557,11.696,14.379,9.455,14.379z M9.455,8.82c-0.824,0-1.496,0.671-1.496,1.496
	c0,0.825,0.671,1.496,1.496,1.496c0.825,0,1.496-0.67,1.496-1.496C10.951,9.491,10.28,8.82,9.455,8.82z"/>
<path fill="#1D73F8" d="M34.428,14.458c-2.24,0-4.063-1.824-4.063-4.064c0-2.241,1.823-4.063,4.063-4.063
	c2.241,0,4.064,1.823,4.064,4.063C38.492,12.634,36.669,14.458,34.428,14.458z M34.428,8.898c-0.824,0-1.495,0.671-1.495,1.496
	c0,0.824,0.671,1.495,1.495,1.495c0.825,0,1.496-0.671,1.496-1.495C35.924,9.569,35.253,8.898,34.428,8.898z"/>
</svg>
