<svg width="90" height="90" viewBox="0 0 90 90" fill="none" xmlns="http://www.w3.org/2000/svg">
<g clip-path="url(#clip0)">
<path d="M34.5978 40.1905C34.9356 40.1905 35.2728 40.0621 35.5303 39.8046L39.2121 36.1228C39.727 35.6078 39.727 34.7729 39.2121 34.2586C38.6971 33.7436 37.8628 33.7429 37.3471 34.2586L33.666 37.9397C33.151 38.4547 33.151 39.2896 33.666 39.8046C33.9235 40.0621 34.2607 40.1905 34.5978 40.1905Z" fill="#1D73F8"/>
<path d="M29.324 44.3498C29.8892 44.908 30.4776 45.4299 31.0853 45.9153C31.6222 46.3445 32.1777 46.7489 32.7497 47.1252C32.7669 47.1369 32.7847 47.1478 32.8026 47.1581C36.494 49.569 40.7478 50.7747 45.0022 50.7747C50.7165 50.7747 56.4315 48.5994 60.782 44.2488C64.9974 40.0335 67.3182 34.4298 67.3182 28.4683C67.3182 22.5076 64.9974 16.9032 60.782 12.6885C56.5674 8.47321 50.963 6.15234 45.0022 6.15234C39.0415 6.15234 33.4371 8.47389 29.2217 12.6885C25.0071 16.9032 22.6855 22.5076 22.6855 28.4683C22.6855 34.4298 25.0071 40.0335 29.2217 44.2488C29.2561 44.2825 29.2897 44.3161 29.324 44.3498ZM25.323 28.4683C25.323 23.2121 27.3698 18.2703 31.0867 14.5528C34.8035 10.836 39.746 8.78906 45.0022 8.78906C50.2585 8.78906 55.201 10.836 58.9178 14.5528C62.6346 18.2703 64.6822 23.2121 64.6822 28.4683C64.6822 33.7253 62.6346 38.6671 58.9178 42.3839C55.201 46.1014 50.2585 48.1483 45.0022 48.1483C41.6624 48.1483 38.4496 47.3216 35.5972 45.7656L39.9451 41.4185C41.2813 40.0816 43.0501 39.2116 44.9246 38.9692L53.3594 37.8781C53.3985 37.8733 53.437 37.8665 53.4761 37.8575C55.0376 37.5108 56.222 36.2679 56.4946 34.6921L58.113 25.3153C58.2366 24.6025 58.0046 23.8719 57.493 23.3604L56.9162 22.7843C56.4953 22.3634 55.9364 22.1313 55.3411 22.1313C54.7457 22.1313 54.1861 22.3634 53.7652 22.7843L48.3345 28.215C47.9232 28.6256 47.3767 28.8522 46.7957 28.8522C46.2142 28.8522 45.6683 28.6256 45.257 28.2143C44.8457 27.803 44.6191 27.2571 44.6191 26.6762C44.6191 26.0946 44.8457 25.5487 45.2563 25.1374L50.6877 19.706C51.5563 18.8374 51.5563 17.4236 50.6877 16.555L50.1109 15.9782C49.5993 15.4667 48.8687 15.2346 48.156 15.3582L38.7792 16.9766C37.2033 17.2492 35.9605 18.4337 35.6137 19.9951C35.6048 20.0336 35.5979 20.0727 35.5931 20.1119L34.502 28.5466C34.2597 30.4212 33.3897 32.1893 32.0535 33.5262L27.7056 37.8733C26.149 35.021 25.323 31.8082 25.323 28.4683ZM33.917 35.3904C35.6632 33.6443 36.7996 31.3337 37.1168 28.8844L38.1983 20.519C38.3267 20.0301 38.7256 19.6621 39.2275 19.5749L48.3956 17.9922L48.5336 18.1302L43.3914 23.2732C42.4822 24.1816 41.9817 25.3901 41.9817 26.6762C41.9817 27.9609 42.4829 29.1694 43.392 30.0792C44.3012 30.9883 45.5097 31.4889 46.7957 31.4889C48.0812 31.4889 49.2896 30.9883 50.1988 30.0792L55.3404 24.9369L55.4784 25.0756L53.8957 34.2437C53.8092 34.745 53.4411 35.1439 52.9515 35.2723L44.5861 36.3545C42.1375 36.671 39.8263 37.8074 38.0802 39.5535L33.3231 44.3106C32.6817 43.8368 32.0672 43.3219 31.4849 42.7712C31.4849 42.7712 31.4842 42.7705 31.4835 42.7698C31.4018 42.6922 31.3201 42.6139 31.2391 42.535C31.2247 42.5205 31.2103 42.5061 31.1958 42.4924C31.1684 42.4649 31.1409 42.4375 31.1134 42.41C31.1045 42.4018 31.0956 42.3928 31.0873 42.3839C31.0784 42.3757 31.0695 42.3667 31.0606 42.3578C31.0331 42.3297 31.005 42.3015 30.9775 42.2733C30.9644 42.2603 30.9514 42.2473 30.9383 42.2342C30.8594 42.1532 30.7811 42.0722 30.7028 41.9898C30.7015 41.9877 30.6994 41.9863 30.698 41.9843C30.1487 41.4027 29.6344 40.7888 29.1599 40.1475L33.917 35.3904Z" fill="#1D73F8"/>
<path d="M89.0545 54.3643C87.3647 51.8807 83.9617 51.2236 81.4705 52.8976L64.235 64.4319L60.5567 64.2259L60.4626 63.2838C60.0959 59.5945 57.2759 56.655 53.6051 56.1359C53.5941 56.1338 53.5824 56.1324 53.5714 56.131L39.5329 54.5147C36.4513 54.0766 33.5269 53.0576 30.84 51.4859C26.7833 49.1128 22.1546 47.8583 17.4545 47.8583H13.2887V46.1479C13.2887 44.6393 12.0616 43.4116 10.5531 43.4116H2.7356C1.22704 43.4116 0 44.6393 0 46.1479V77.6931C0 79.2017 1.22704 80.4287 2.7356 80.4287H10.5531C12.0616 80.4287 13.2887 79.2017 13.2887 77.6931V75.9779L33.6367 83.6834C33.6724 83.6971 33.7088 83.7088 33.7452 83.7191C34.5479 83.9457 35.3499 84.0597 36.1444 84.0597C36.5756 84.0597 37.0054 84.026 37.4318 83.9587C37.4325 83.9587 37.4339 83.9581 37.4352 83.9581L64.3882 80.073C64.395 80.0723 64.4012 80.071 64.4081 80.0703C66.7118 79.7022 68.885 78.7279 70.6936 77.2537C70.7101 77.2399 70.7259 77.2262 70.7417 77.2118L77.0362 71.5511C77.5772 71.0642 77.6219 70.2306 77.135 69.6889C76.6482 69.1478 75.8146 69.1032 75.2729 69.5907L69.0031 75.2294C67.5618 76.3974 65.8335 77.1706 64.0016 77.4645L37.048 81.3495C37.0425 81.3502 37.0178 81.3543 37.0116 81.355C36.2055 81.4827 35.3657 81.4291 34.5143 81.1957L13.2887 73.1585V58.695C13.2887 57.9671 12.6988 57.3766 11.9703 57.3766C11.2425 57.3766 10.6519 57.9671 10.6519 58.695V77.6931C10.6519 77.748 10.608 77.792 10.5531 77.792H2.7356C2.68135 77.792 2.63672 77.748 2.63672 77.6931V46.1479C2.63672 46.093 2.68135 46.0483 2.7356 46.0483H10.5531C10.608 46.0483 10.6519 46.093 10.6519 46.1479V52.5605C10.6519 53.289 11.2425 53.8789 11.9703 53.8789C12.6988 53.8789 13.2887 53.289 13.2887 52.5605V50.4951H17.4545C21.687 50.4951 25.855 51.6253 29.5086 53.7621C32.4976 55.5103 35.7516 56.6426 39.18 57.1281C39.191 57.1301 39.2027 57.1315 39.2137 57.1322L53.2514 58.7485C55.7076 59.1035 57.5924 61.0735 57.8382 63.5441L57.9014 64.1772L33.0936 64.4635C32.6466 64.4196 32.2428 64.2053 31.9551 63.8599C31.4889 63.301 30.6574 63.2255 30.0984 63.6924C29.5395 64.1586 29.464 64.9902 29.9302 65.5491C30.6725 66.439 31.7169 66.9869 32.8745 67.092C32.9178 67.0954 32.9604 67.0982 33.0036 67.1002C33.0215 67.1009 33.04 67.1009 33.0579 67.1009H33.0737L59.3262 66.7974L64.5275 67.0892C64.8152 67.105 65.0968 67.0281 65.335 66.8688L82.9393 55.0873C84.2322 54.2181 85.9976 54.5593 86.8744 55.8475C87.6758 57.0251 87.4766 58.6263 86.4055 59.5773L79.8796 65.4468C79.3385 65.9336 79.2939 66.7672 79.7807 67.309C80.0416 67.598 80.4007 67.7457 80.7612 67.7457C81.0757 67.7457 81.3909 67.6337 81.6429 67.4071L88.1626 61.5432C90.2157 59.7208 90.5995 56.6344 89.0545 54.3643Z" fill="black"/>
</g>
<defs>
<clipPath id="clip0">
<rect width="90" height="90" fill="white"/>
</clipPath>
</defs>
</svg>
