<svg width="86" height="88" viewBox="0 0 86 88" fill="none" xmlns="http://www.w3.org/2000/svg">
<path d="M0.387078 8.01911L6.10504 18.1602C6.29791 18.5029 6.62074 18.7508 6.99825 18.8467L12.3328 20.1984L30.6293 38.7421L32.6509 36.6937L14.0681 17.8604C13.8852 17.6745 13.6559 17.5427 13.4048 17.479L8.27897 16.1756L3.41071 7.53637L7.58452 3.30616L16.1121 8.24498L17.3987 13.4401C17.461 13.6951 17.5915 13.9282 17.7744 14.1135L36.3572 32.9474L38.3783 30.8985L20.0818 12.3548L18.7482 6.95113C18.6535 6.56792 18.4089 6.24013 18.0708 6.04406L8.06434 0.249419C7.50631 -0.0724061 6.80421 0.0229495 6.34907 0.482444L0.631697 6.27768C0.171861 6.73598 0.0718964 7.44876 0.387078 8.01911Z" fill="#333333"/>
<path d="M59.8159 28.6004L28.3689 60.4729L26.3472 58.424L57.7949 26.552L59.8159 28.6004Z" fill="#1D73F8"/>
<path d="M22.8648 61.6006C22.6061 61.1643 22.1415 60.8979 21.6394 60.8979H13.063C12.5614 60.8979 12.0963 61.1643 11.8382 61.6006L7.54968 68.8441C7.27743 69.303 7.27743 69.8769 7.54968 70.3364L11.8382 77.5798C12.0963 78.0155 12.5614 78.2825 13.063 78.2825H21.6394C22.1415 78.2825 22.6061 78.0155 22.8648 77.5798L27.1527 70.3364C27.4249 69.8769 27.4249 69.303 27.1527 68.8441L22.8648 61.6006ZM20.8308 75.3849H13.8721L10.4416 69.5902L13.8721 63.795H20.8308L24.2614 69.5902L20.8308 75.3849Z" fill="#1D73F8"/>
<path d="M68.8103 34.8204C78.251 34.8526 85.9307 27.1216 85.9624 17.5533C85.9671 16.0967 85.7907 14.6461 85.4373 13.2343C85.2468 12.4577 84.4712 11.9851 83.705 12.1782C83.4533 12.242 83.224 12.3737 83.0405 12.5591L74.1425 21.5713L67.0827 19.1869L64.7282 12.0334L73.6262 3.01337C74.1843 2.4472 74.1837 1.53 73.625 0.964423C73.441 0.777884 73.2093 0.645578 72.9559 0.582405C63.8003 -1.76751 54.4995 3.84952 52.1809 13.1282C51.8287 14.5359 51.6529 15.9829 51.6576 17.4353C51.6611 18.576 51.7769 19.7131 52.0051 20.83L20.7004 52.5571C19.5984 52.3265 18.4764 52.2091 17.3515 52.2049C7.87786 52.2049 0.198242 59.9883 0.198242 69.59C0.198242 79.1911 7.87786 86.9745 17.3515 86.9745C26.8246 86.9745 34.5043 79.1911 34.5043 69.59C34.5007 68.4493 34.3843 67.3122 34.1567 66.1953L41.6511 58.5997L44.9288 61.9216C45.4874 62.4872 46.3918 62.4872 46.9504 61.9216L47.6649 61.1969C48.2917 60.5658 49.3049 60.5658 49.9317 61.1969C50.558 61.8298 50.5591 62.8573 49.9347 63.492C49.9341 63.4926 49.9329 63.4938 49.9317 63.495L49.2173 64.2191C48.6592 64.7847 48.6592 65.7019 49.2173 66.2674L66.2688 83.5494C70.7537 88.1366 78.0582 88.17 82.5842 83.6245C87.1097 79.079 87.1426 71.6753 82.6577 67.0887C82.6336 67.0637 82.6089 67.0386 82.5842 67.0136L65.5326 49.7322C64.9746 49.1666 64.0696 49.1666 63.5116 49.7322L62.7971 50.4563C62.1697 51.088 61.1571 51.088 60.5297 50.4563C59.904 49.8234 59.9023 48.7959 60.5268 48.1618C60.5279 48.1606 60.5291 48.16 60.5297 48.1588L61.2447 47.4341C61.8028 46.8686 61.8028 45.9514 61.2447 45.3858L57.9671 42.0638L65.4615 34.4682C66.5634 34.6988 67.6854 34.8168 68.8103 34.8204ZM74.4265 84.0774C73.3881 84.0757 72.3584 83.8855 71.3864 83.5154L82.5501 72.2003C84.2348 76.7422 81.968 81.808 77.4866 83.5154C76.5087 83.8879 75.472 84.0786 74.4265 84.0774ZM58.2329 46.4246C56.6499 48.3382 56.8981 51.1905 58.7862 52.7943C60.4456 54.2038 62.8642 54.2026 64.5218 52.7901L80.5632 69.0625C80.7372 69.2395 80.9001 69.4261 81.0577 69.6156L68.8362 82.0023C68.6486 81.8432 68.4645 81.6781 68.2899 81.5011L52.2362 65.2292C53.8192 63.3156 53.571 60.4633 51.6829 58.8595C50.0234 57.4494 47.6043 57.4512 45.9467 58.8631L43.6598 56.5453L55.9455 44.1122L58.2329 46.4246ZM64.0049 31.8536L31.5782 64.7119C31.2225 65.0719 31.0796 65.5946 31.2007 66.0886C33.1618 73.8941 28.5082 81.833 20.8062 83.82C13.1048 85.8076 5.27173 81.091 3.31066 73.285C1.35018 65.4796 6.00382 57.5406 13.7058 55.5531C16.0355 54.9523 18.4764 54.9523 20.8062 55.5531C21.2937 55.674 21.8082 55.5292 22.1645 55.171L54.5836 22.3121C54.9388 21.9522 55.0816 21.4295 54.9593 20.936C53.0118 13.2218 57.6031 5.36806 65.2145 3.3936C66.6528 3.02112 68.1405 2.87809 69.6224 2.97166L62.0821 10.6168C61.6993 11.0042 61.5652 11.5781 61.7363 12.0984L64.5947 20.7912C64.7376 21.2233 65.0728 21.563 65.4997 21.7066L74.0766 24.6042C74.5894 24.7777 75.1557 24.6424 75.5385 24.255L83.0787 16.6129C83.0958 16.8894 83.1046 17.1629 83.1046 17.4353C83.1446 25.3957 76.8104 31.8817 68.9561 31.9228C67.7418 31.9287 66.5317 31.7774 65.3556 31.4722C64.8682 31.3489 64.3525 31.4931 63.9973 31.853H64.0049V31.8536Z" fill="#333333"/>
<path d="M74.1108 72.9115L72.0892 74.9604L57.7955 60.4735L59.8165 58.4246L74.1108 72.9115Z" fill="#1D73F8"/>
</svg>
