<svg width="68" height="68" viewBox="0 0 68 68" fill="none" xmlns="http://www.w3.org/2000/svg">
<path d="M63.75 47.8125H57.9062C57.613 47.8125 57.375 47.5745 57.375 47.2812C57.375 47.1654 57.4122 47.0549 57.4812 46.9625C59.4692 44.3137 60.5625 41.0306 60.5625 37.7188V37.1875C60.5625 34.2582 58.1793 31.875 55.25 31.875C54.0781 31.875 53.125 32.8281 53.125 34V35.8328C53.125 38.4784 52.0944 40.9647 50.2244 42.8358C49.6018 43.4573 48.8994 43.9949 48.1355 44.4306L42.2174 47.8125H39.3125V45.6875H20.1673C21.5071 43.9089 22.3125 41.7063 22.3125 39.3125C22.3125 33.4539 17.5461 28.6875 11.6875 28.6875C5.82888 28.6875 1.0625 33.4539 1.0625 39.3125C1.0625 45.1711 5.82888 49.9375 11.6875 49.9375C13.1984 49.9375 14.6349 49.6156 15.9375 49.0439V66.9375H39.3125V64.8125H42.296L47.6085 66.9375H63.75C65.5074 66.9375 66.9375 65.5074 66.9375 63.75C66.9375 62.9308 66.6177 62.1902 66.1087 61.625C66.6187 61.0598 66.9375 60.3192 66.9375 59.5C66.9375 58.6808 66.6177 57.9402 66.1087 57.375C66.6187 56.8098 66.9375 56.0692 66.9375 55.25C66.9375 54.4308 66.6177 53.6902 66.1087 53.125C66.6187 52.5598 66.9375 51.8192 66.9375 51C66.9375 49.2426 65.5074 47.8125 63.75 47.8125ZM3.1875 39.3125C3.1875 34.6258 7.00081 30.8125 11.6875 30.8125C16.3742 30.8125 20.1875 34.6258 20.1875 39.3125C20.1875 41.3238 19.482 43.1726 18.309 44.6293C17.4675 43.5816 16.4007 42.7561 15.1948 42.2089C16.2934 41.2346 17 39.8299 17 38.25C17 35.3207 14.6168 32.9375 11.6875 32.9375C8.75819 32.9375 6.375 35.3207 6.375 38.25C6.375 39.8299 7.08156 41.2346 8.18019 42.2089C6.97425 42.7571 5.9075 43.5827 5.066 44.6293C3.893 43.1726 3.1875 41.3238 3.1875 39.3125ZM8.5 38.25C8.5 36.4926 9.93012 35.0625 11.6875 35.0625C13.4449 35.0625 14.875 36.4926 14.875 38.25C14.875 40.0074 13.4449 41.4375 11.6875 41.4375C9.93012 41.4375 8.5 40.0074 8.5 38.25ZM6.596 46.1029C7.79131 44.5177 9.67194 43.5625 11.6875 43.5625C13.7031 43.5625 15.5837 44.5187 16.779 46.1029C15.3574 47.1707 13.5979 47.8125 11.6875 47.8125C9.77713 47.8125 8.01763 47.1707 6.596 46.1029ZM18.0625 47.8125H32.9375V64.8125H18.0625V47.8125ZM37.1875 64.8125H35.0625V47.8125H37.1875V64.8125ZM63.75 64.8125H48.0165L42.704 62.6875H39.3125V49.9375H42.7826L49.1895 46.2761C50.1171 45.7459 50.9713 45.0946 51.7267 44.3381C53.9984 42.0665 55.25 39.0458 55.25 35.8328V34C57.0074 34 58.4375 35.4301 58.4375 37.1875V37.7188C58.4375 40.5737 57.494 43.4042 55.7802 45.6886C55.4381 46.1454 55.25 46.7107 55.25 47.2812C55.25 48.7454 56.4421 49.9375 57.9062 49.9375H63.75C64.3354 49.9375 64.8125 50.4146 64.8125 51C64.8125 51.5854 64.3354 52.0625 63.75 52.0625H58.4375V54.1875H63.75C64.3354 54.1875 64.8125 54.6646 64.8125 55.25C64.8125 55.8354 64.3354 56.3125 63.75 56.3125H58.4375V58.4375H63.75C64.3354 58.4375 64.8125 58.9146 64.8125 59.5C64.8125 60.0854 64.3354 60.5625 63.75 60.5625H58.4375V62.6875H63.75C64.3354 62.6875 64.8125 63.1646 64.8125 63.75C64.8125 64.3354 64.3354 64.8125 63.75 64.8125Z" fill="black"/>
<path d="M56.3125 29.75C62.1711 29.75 66.9375 24.9836 66.9375 19.125C66.9375 13.2664 62.1711 8.5 56.3125 8.5C50.4539 8.5 45.6875 13.2664 45.6875 19.125C45.6875 24.9836 50.4539 29.75 56.3125 29.75ZM51.221 25.9154C52.4163 24.3302 54.2969 23.375 56.3125 23.375C58.3281 23.375 60.2087 24.3313 61.404 25.9154C59.9824 26.9833 58.2229 27.625 56.3125 27.625C54.4021 27.625 52.6426 26.9833 51.221 25.9154ZM53.125 18.0625C53.125 16.3051 54.5551 14.875 56.3125 14.875C58.0699 14.875 59.5 16.3051 59.5 18.0625C59.5 19.8199 58.0699 21.25 56.3125 21.25C54.5551 21.25 53.125 19.8199 53.125 18.0625ZM56.3125 10.625C60.9992 10.625 64.8125 14.4383 64.8125 19.125C64.8125 21.1363 64.107 22.9851 62.934 24.4417C62.0925 23.3941 61.0257 22.5686 59.8198 22.0214C60.9184 21.0471 61.625 19.6424 61.625 18.0625C61.625 15.1332 59.2418 12.75 56.3125 12.75C53.3832 12.75 51 15.1332 51 18.0625C51 19.6424 51.7066 21.0471 52.8052 22.0214C51.5993 22.5696 50.5325 23.3952 49.691 24.4417C48.518 22.9851 47.8125 21.1363 47.8125 19.125C47.8125 14.4383 51.6258 10.625 56.3125 10.625Z" fill="black"/>
<path d="M28.6875 30.8125C36.89 30.8125 43.5625 24.14 43.5625 15.9375C43.5625 7.735 36.89 1.0625 28.6875 1.0625C20.485 1.0625 13.8125 7.735 13.8125 15.9375C13.8125 24.14 20.485 30.8125 28.6875 30.8125ZM28.6875 28.6875C25.1069 28.6875 21.8705 27.1979 19.5521 24.8126C20.0494 23.1859 20.9483 21.7653 22.1308 20.6539L23.7947 27.3094L28.6875 23.6406L33.5803 27.3105L35.2442 20.655C36.4257 21.7664 37.3246 23.1869 37.8229 24.8136C35.5045 27.1979 32.2681 28.6875 28.6875 28.6875V28.6875ZM24.4375 11.6875C24.4375 9.34362 26.3436 7.4375 28.6875 7.4375C31.0314 7.4375 32.9375 9.34362 32.9375 11.6875C32.9375 14.0314 31.0314 15.9375 28.6875 15.9375C26.3436 15.9375 24.4375 14.0314 24.4375 11.6875ZM28.6875 20.6529L26.7059 18.275C27.3477 18.1411 28.0096 18.0625 28.6875 18.0625C29.3654 18.0625 30.0273 18.1411 30.6691 18.275L28.6875 20.6529ZM32.827 19.0049C33.0193 19.0963 33.2084 19.1919 33.3933 19.2961L32.2947 23.6906L30.2196 22.134L32.827 19.0049ZM24.548 19.0049L27.1554 22.134L25.0803 23.6906L23.9817 19.2961C24.1666 19.1909 24.3557 19.0963 24.548 19.0049V19.0049ZM28.6875 3.1875C35.7181 3.1875 41.4375 8.90694 41.4375 15.9375C41.4375 18.4971 40.6725 20.8771 39.3688 22.8767C38.0747 19.9484 35.649 17.7151 32.6899 16.6419C34.136 15.4721 35.0625 13.6871 35.0625 11.6875C35.0625 8.17169 32.2033 5.3125 28.6875 5.3125C25.1717 5.3125 22.3125 8.17169 22.3125 11.6875C22.3125 13.6871 23.239 15.4721 24.684 16.6419C21.7249 17.714 19.2992 19.9484 18.0051 22.8767C16.7025 20.8771 15.9375 18.4971 15.9375 15.9375C15.9375 8.90694 21.6569 3.1875 28.6875 3.1875V3.1875Z" fill="black"/>
<path d="M24.4375 32.9375H26.5625V35.0625H24.4375V32.9375Z" fill="#1D73F8"/>
<path d="M28.6875 32.9375H45.6875V35.0625H28.6875V32.9375Z" fill="#1D73F8"/>
<path d="M24.4375 37.1875H45.6875V39.3125H24.4375V37.1875Z" fill="#1D73F8"/>
<path d="M24.4375 41.4375H43.5625V43.5625H24.4375V41.4375Z" fill="#1D73F8"/>
<path d="M20.1875 60.5625H22.3125V62.6875H20.1875V60.5625Z" fill="#1D73F8"/>
<path d="M24.4375 60.5625H26.5625V62.6875H24.4375V60.5625Z" fill="#1D73F8"/>
<path d="M28.6875 60.5625H30.8125V62.6875H28.6875V60.5625Z" fill="#1D73F8"/>
</svg>
