<?xml version="1.0" encoding="utf-8"?>
<!-- Generator: Adobe Illustrator 24.1.1, SVG Export Plug-In . SVG Version: 6.00 Build 0)  -->
<svg version="1.1" id="Layer_1" xmlns="http://www.w3.org/2000/svg" xmlns:xlink="http://www.w3.org/1999/xlink" x="0px" y="0px"
	 viewBox="0 0 80 80" style="enable-background:new 0 0 80 80;" xml:space="preserve">
<style type="text/css">
	.st0{fill:#1D73F8;}
</style>
<g id="Electric_Plug">
	<path d="M48.7,67.7h9.1c2.1,0,3.9-1.7,3.9-3.9V53.3c2.3-0.6,3.9-2.6,3.9-5v-2.7c7.3-0.7,13-6.8,13-14.2V21c0-2.1-1.7-3.9-3.9-3.9
		h-1.3V6.7c0-2.9-2.3-5.2-5.2-5.2S63,3.8,63,6.7v10.4h-5.2V6.7c0-2.9-2.3-5.2-5.2-5.2c-2.9,0-5.2,2.3-5.2,5.2v10.4h-1.3
		c-2.1,0-3.9,1.7-3.9,3.9v10.4c0,7.4,5.6,13.5,13,14.2v2.7c0,2.4,1.6,4.4,3.9,5v10.6c0,0.7-0.6,1.3-1.3,1.3h-9.1
		c-2.1,0-3.9,1.7-3.9,3.9c0,0.3,0,0.7,0.1,1c0.5,1.8,2.1,3,3.9,2.9h25.8c0.7,0,1.3,0.6,1.3,1.3v1.3c0,0.7-0.6,1.3-1.3,1.3H28
		c-5,0-9.1-4.1-9.1-9.1V43.1h11.7c2.1,0,3.9-1.7,3.9-3.9V5.4c0-2.1-1.7-3.9-3.9-3.9h-26c-2.1,0-3.9,1.7-3.9,3.9v33.7
		c0,2.1,1.7,3.9,3.9,3.9h11.7v24.7c0,6.4,5.2,11.7,11.7,11.7h46.7c2.1,0,3.9-1.7,3.9-3.9v-1.3c0-2.1-1.7-3.9-3.9-3.9H48.9
		c-0.6,0-1.2-0.4-1.4-1c-0.1-0.5,0-0.9,0.4-1.2C48.1,67.8,48.4,67.7,48.7,67.7z M65.6,6.7c0-1.4,1.2-2.6,2.6-2.6
		c1.4,0,2.6,1.2,2.6,2.6V21h-5.2V6.7z M50,6.7c0-1.4,1.2-2.6,2.6-2.6s2.6,1.2,2.6,2.6V21H50V6.7z M55.3,43
		c-5.9-0.7-10.4-5.7-10.4-11.6V21c0-0.7,0.6-1.3,1.3-1.3h1.3v2.6c0,0.7,0.6,1.3,1.3,1.3h7.8c0.7,0,1.3-0.6,1.3-1.3v-2.6H63v2.6
		c0,0.7,0.6,1.3,1.3,1.3h7.8c0.7,0,1.3-0.6,1.3-1.3v-2.6h1.3c0.7,0,1.3,0.6,1.3,1.3v10.4c0,6-4.5,10.9-10.4,11.6
		c0-2.9-2.3-5.2-5.2-5.2C57.6,37.8,55.3,40.1,55.3,43L55.3,43z M57.8,48.2v-5.2c0-1.4,1.2-2.6,2.6-2.6s2.6,1.2,2.6,2.6v5.2
		c0,1.4-1.2,2.6-2.6,2.6S57.8,49.7,57.8,48.2z M4.6,40.5c-0.7,0-1.3-0.6-1.3-1.3V5.4c0-0.7,0.6-1.3,1.3-1.3h26
		c0.7,0,1.3,0.6,1.3,1.3v33.7c0,0.7-0.6,1.3-1.3,1.3H4.6z"/>
	<rect x="59.1" y="44.4" class="st0" width="2.6" height="2.6"/>
	<path class="st0" d="M26.5,19c-0.2-0.4-0.7-0.6-1.1-0.6h-6.5V9.3c0-0.6-0.4-1.1-1-1.3c-0.6-0.1-1.2,0.1-1.5,0.7L8.7,24.3
		c-0.3,0.6-0.1,1.4,0.6,1.7c0.2,0.1,0.4,0.1,0.6,0.1h6.5v9.1c0,0.6,0.4,1.1,1,1.3c0.1,0,0.2,0,0.3,0c0.5,0,0.9-0.3,1.2-0.7l7.8-15.6
		C26.7,19.9,26.7,19.4,26.5,19z M18.9,29.8v-4.9c0-0.7-0.6-1.3-1.3-1.3h-5.7l4.4-8.8v4.9c0,0.7,0.6,1.3,1.3,1.3h5.7L18.9,29.8z"/>
</g>
</svg>
