<svg width="68" height="68" viewBox="0 0 68 68" fill="none" xmlns="http://www.w3.org/2000/svg">
<g clip-path="url(#clip0)">
<path d="M61.7347 5.27985L52.8208 0.133409C52.783 0.111628 52.7439 0.0923704 52.7036 0.0757689C52.6858 0.0684643 52.6674 0.0635503 52.6493 0.0571753C52.6265 0.0492066 52.604 0.0403083 52.5805 0.0339333C52.5569 0.0275584 52.5326 0.0241053 52.5085 0.0194569C52.4899 0.0160038 52.4717 0.0109569 52.453 0.00856634C52.3665 -0.00285545 52.2789 -0.00285545 52.1924 0.00856634C52.1736 0.0110898 52.1554 0.0160038 52.1368 0.0195897C52.1127 0.0241053 52.0886 0.0276912 52.0648 0.0340661C52.0413 0.0403083 52.0189 0.0493395 51.996 0.0573081C51.9779 0.0635503 51.9595 0.0684643 51.9417 0.0759017C51.9014 0.0925032 51.8623 0.111761 51.8245 0.133542L42.9106 5.27999C42.6025 5.45795 42.4126 5.78666 42.4126 6.1426V16.4355C42.4126 16.479 42.4155 16.5225 42.4212 16.5658C42.4238 16.5846 42.4287 16.6028 42.4323 16.6214C42.4368 16.6455 42.4404 16.6696 42.4467 16.6934C42.453 16.7169 42.462 16.7394 42.47 16.7622C42.4762 16.7803 42.4811 16.7987 42.4886 16.8165C42.5219 16.897 42.5657 16.973 42.6189 17.042C42.6307 17.0573 42.6442 17.0709 42.6567 17.0853C42.6725 17.1037 42.6875 17.1225 42.7047 17.1398C42.7218 17.1569 42.7408 17.1719 42.7591 17.1877C42.7736 17.2002 42.7871 17.2139 42.8024 17.2256C42.8369 17.2521 42.8732 17.2764 42.9109 17.2982L51.8248 22.4447C51.9789 22.5337 52.1509 22.5781 52.3229 22.5781C52.4948 22.5781 52.6668 22.5337 52.8209 22.4447L61.7348 17.2982C61.7484 17.2904 61.7602 17.2808 61.7733 17.2725C61.7968 17.2575 61.8206 17.243 61.8428 17.226C61.8639 17.2098 61.8829 17.1914 61.9025 17.1738C61.915 17.1625 61.9286 17.1523 61.9405 17.1403C61.9638 17.1172 61.9845 17.0921 62.0052 17.0669C62.012 17.0586 62.0198 17.0513 62.0263 17.0427C62.0794 16.9731 62.1235 16.8967 62.157 16.8156C62.1602 16.808 62.1621 16.8001 62.165 16.7923C62.1776 16.7595 62.1896 16.7265 62.1987 16.6923C62.202 16.6796 62.2036 16.6664 62.2066 16.6536C62.2132 16.6242 62.2201 16.5949 62.2241 16.5647C62.2262 16.5486 62.2259 16.5326 62.2273 16.5164C62.2295 16.4894 62.2327 16.4627 62.2327 16.4354V6.14246C62.2327 5.78653 62.0428 5.45795 61.7347 5.27985ZM52.3226 20.4318L47.1261 17.4316H57.5191L52.3226 20.4318ZM45.1339 15.4395L47.7321 10.9392C48.0071 10.4628 47.8439 9.85361 47.3675 9.57856C46.8909 9.30364 46.2817 9.4666 46.0069 9.94313L44.4048 12.7182V6.7178L49.6012 3.71759L47.999 6.49269C47.724 6.96908 47.8872 7.57829 48.3636 7.85334C48.8401 8.12799 49.4492 7.96517 49.7243 7.48877L52.3225 2.98846L59.511 15.4395H45.1339ZM60.2404 12.7184L55.0439 3.71759L60.2404 6.7178V12.7184Z" fill="#1D73F8"/>
<path d="M53.0268 24.8621C52.6378 24.4732 52.0072 24.4732 51.6181 24.8621C49.4465 27.0338 46.5593 28.2295 43.4883 28.2295C40.5385 28.2295 37.7603 27.1236 35.6209 25.1119C35.3964 23.3118 33.8577 21.9139 31.9978 21.9139H27.6815V19.8491C28.0103 19.8964 28.3427 19.9218 28.6776 19.9218C32.5222 19.9218 35.6502 16.7938 35.6502 12.9492C35.6502 9.10454 32.5222 5.97656 28.6776 5.97656C24.8329 5.97656 21.705 9.10454 21.705 12.9492C21.705 13.2726 21.7285 13.5938 21.7728 13.912H6.76366C6.21343 13.912 5.76758 14.3579 5.76758 14.9081V40.8064C5.76758 41.3566 6.21343 41.8025 6.76366 41.8025H15.7284V42.1345C15.7284 42.6847 16.1743 43.1306 16.7245 43.1306C17.2748 43.1306 17.7206 42.6847 17.7206 42.1345V41.8025H22.3634C22.701 42.524 23.1546 43.1711 23.6971 43.7246V64.9575L20.3938 66.0585C19.8719 66.2325 19.5899 66.7966 19.7639 67.3185C19.9031 67.7359 20.2917 67.9998 20.7087 67.9998C20.8131 67.9998 20.9194 67.9832 21.0239 67.9484L25.0082 66.6203C25.415 66.4847 25.6893 66.104 25.6893 65.6753V45.1452C26.6041 45.5799 27.6202 45.8201 28.6776 45.8201C29.7464 45.8201 30.7595 45.5778 31.6658 45.146V65.6754C31.6658 66.1043 31.9401 66.4849 32.3469 66.6204L36.3312 67.9485C36.4357 67.9833 36.542 67.9999 36.6464 67.9999C37.0635 67.9999 37.452 67.736 37.5912 67.3186C37.7652 66.7966 37.4832 66.2325 36.9613 66.0586L33.658 64.9576V43.7205C34.8891 42.4625 35.6502 40.7425 35.6502 38.8474V27.7138C37.922 29.3426 40.6374 30.2217 43.4883 30.2217C47.0915 30.2217 50.479 28.8187 53.0268 26.2708C53.4158 25.8817 53.4158 25.251 53.0268 24.8621ZM28.6776 7.96887C31.4238 7.96887 33.658 10.203 33.658 12.9493C33.658 15.6956 31.4238 17.9297 28.6776 17.9297C28.3413 17.9297 28.0082 17.8953 27.6815 17.8287V14.9081C27.6815 14.3579 27.2356 13.912 26.6854 13.912H23.792C23.7297 13.5957 23.6971 13.2739 23.6971 12.9492C23.6971 10.2029 25.9313 7.96887 28.6776 7.96887ZM17.7206 39.8103V39.4776C17.7206 38.9275 17.2748 38.4815 16.7245 38.4815C16.1743 38.4815 15.7284 38.9273 15.7284 39.4776V39.8103H7.75975V15.9042H25.6893V39.8103H17.7206ZM28.6776 43.8278C27.0685 43.8278 25.5918 43.0521 24.6696 41.8025H26.6854C27.2356 41.8025 27.6815 41.3566 27.6815 40.8064V39.8435H33.5577C33.095 42.114 31.0828 43.8278 28.6776 43.8278ZM33.658 37.8513H27.6815V23.9061H31.9978C32.9132 23.9061 33.6579 24.6507 33.658 25.566V37.8513Z" fill="black"/>
<path d="M16.7246 17.8965C15.0769 17.8965 13.7363 19.2371 13.7363 20.8847C13.7363 22.5324 15.0769 23.873 16.7246 23.873C18.3722 23.873 19.7128 22.5324 19.7128 20.8847C19.7128 19.2371 18.3722 17.8965 16.7246 17.8965ZM16.7246 21.8808C16.1753 21.8808 15.7285 21.434 15.7285 20.8847C15.7285 20.3354 16.1754 19.8887 16.7246 19.8887C17.2739 19.8887 17.7207 20.3354 17.7207 20.8847C17.7207 21.4342 17.2739 21.8808 16.7246 21.8808Z" fill="#1D73F8"/>
<path d="M16.7246 25.2012C15.0769 25.2012 13.7363 26.5418 13.7363 28.1894V36.8222C13.7363 37.3724 14.1822 37.8183 14.7324 37.8183C15.2826 37.8183 15.7285 37.3724 15.7285 36.8222V33.1699H17.7207V36.8222C17.7207 37.3724 18.1665 37.8183 18.7168 37.8183C19.267 37.8183 19.7128 37.3724 19.7128 36.8222V28.1894C19.7128 26.5418 18.3722 25.2012 16.7246 25.2012ZM17.7207 31.1777H15.7285V28.1894C15.7285 27.6401 16.1753 27.1933 16.7246 27.1933C17.2739 27.1933 17.7207 27.6401 17.7207 28.1894V31.1777Z" fill="#1D73F8"/>
</g>
<defs>
<clipPath id="clip0">
<rect width="68" height="68" fill="white"/>
</clipPath>
</defs>
</svg>
