<?xml version="1.0" encoding="utf-8"?>
<!-- Generator: Adobe Illustrator 24.1.1, SVG Export Plug-In . SVG Version: 6.00 Build 0)  -->
<svg version="1.1" id="Layer_1" xmlns="http://www.w3.org/2000/svg" xmlns:xlink="http://www.w3.org/1999/xlink" x="0px" y="0px"
	 viewBox="0 0 80 80" style="enable-background:new 0 0 80 80;" xml:space="preserve">
<style type="text/css">
	.st0{fill:#1D73F8;}
</style>
<g>
	<path d="M73.1,1.6H6.2c-2.8,0-5.2,2.3-5.2,5.1l0,55c0,4.4,3.6,8,8,8h10.4l1.1,1.3c1.2,1.5,3.3,1.9,5.1,1.1l1.9-0.9
		c1.9,1.3,4,2.3,6.2,2.9l0.5,2c0.4,1.9,2.1,3.2,4.1,3.2l2.7,0c0,0,0,0,0,0c1.9,0,3.6-1.3,4.1-3.2l0.5-2c2.1-0.6,4.1-1.5,5.9-2.7
		l1.8,0.9c1.7,0.9,3.8,0.5,5.1-0.9l1.5-1.7h10.4c4.4,0,8-3.6,8-8l0-55C78.3,3.9,76,1.6,73.1,1.6z M43.6,70.7
		c-0.7,0.1-1.2,0.7-1.4,1.4l-0.8,3.1c0,0.2-0.2,0.4-0.4,0.4l-2.7,0c-0.2,0-0.4-0.1-0.4-0.4l-0.7-3.1c-0.2-0.7-0.7-1.2-1.4-1.4
		c-1.1-0.2-2.1-0.6-3.1-1c-1.4-0.6-2.6-1.3-3.8-2.2c-0.3-0.2-0.7-0.4-1.1-0.4c-0.3,0-0.6,0.1-0.8,0.2L24,68.8
		c-0.2,0.1-0.4,0-0.6-0.1l-1.7-2c-0.1-0.2-0.1-0.4,0-0.6l0,0l1.8-2.5c0.4-0.6,0.5-1.3,0.1-2c-0.7-1.4-1.3-2.9-1.6-4.4
		c-0.2-0.7-0.7-1.2-1.4-1.4l-3.1-0.8c-0.2,0-0.3-0.2-0.3-0.5l0-2.7c0-0.2,0.1-0.4,0.4-0.5l3.1-0.7c0.7-0.2,1.2-0.7,1.4-1.4
		c0.4-1.7,1-3.3,1.8-4.8c0.3-0.6,0.3-1.4-0.1-2L22,39.9c-0.1-0.2-0.1-0.4,0-0.6l1.8-2c0.1-0.2,0.4-0.2,0.6-0.1l2.8,1.5
		c0.6,0.3,1.4,0.3,2-0.1c2-1.4,4.2-2.4,6.6-3c0.7-0.1,1.2-0.7,1.4-1.4l0.8-3.1c0-0.2,0.2-0.4,0.5-0.4H41c0.2,0,0.4,0.1,0.5,0.4
		l0.8,3.1c0.2,0.7,0.7,1.2,1.4,1.4c2.5,0.6,4.8,1.6,6.9,3.2c0.6,0.4,1.3,0.5,2,0.2l2.9-1.4c0.2-0.1,0.4,0,0.6,0.1l1.7,2
		c0.1,0.2,0.1,0.4,0,0.6l-1.9,2.6c-0.4,0.6-0.5,1.3-0.1,2c0.7,1.4,1.3,2.9,1.6,4.4c0.2,0.7,0.7,1.2,1.4,1.4l3.1,0.8
		c0.2,0,0.4,0.2,0.4,0.5v2.7c0,0.2-0.1,0.4-0.4,0.5l-3.1,0.8c-0.7,0.2-1.2,0.7-1.4,1.4c-0.4,1.6-1,3.2-1.8,4.7
		c-0.3,0.6-0.3,1.4,0.1,1.9l1.5,2.2l0.3,0.4c0.1,0.2,0.1,0.4,0,0.6l-1.8,2c-0.1,0.2-0.4,0.2-0.6,0.1l-2.8-1.5
		c-0.6-0.3-1.4-0.3-2,0.1c-1.1,0.8-2.3,1.5-3.6,2C45.7,70.2,44.7,70.5,43.6,70.7z M74.5,61.8c0,2.3-1.9,4.2-4.3,4.2h-9.2
		c-0.1-0.6-0.3-1.2-0.7-1.7l-1.2-1.7c0.5-1.1,1-2.3,1.3-3.5l2-0.5c1.9-0.5,3.2-2.1,3.2-4.1v-2.7c0-1.9-1.3-3.6-3.2-4.1l-2-0.5
		c-0.3-1.1-0.7-2.2-1.2-3.2l1.2-1.7c1.1-1.6,1.1-3.7-0.2-5.2l-1.7-2c-1.3-1.5-3.3-1.9-5.1-1l-1.9,0.9c-1.9-1.3-4-2.3-6.2-2.9l-0.5-2
		C44.6,28.3,42.9,27,41,27h-2.7c-1.9,0-3.6,1.3-4.1,3.2l-0.5,2c-2.1,0.6-4,1.5-5.9,2.6l-1.8-1c-1.7-0.9-3.8-0.5-5.1,0.9l-1.8,2
		c-1.3,1.5-1.4,3.6-0.3,5.2l1.2,1.7c-0.6,1.2-1,2.3-1.4,3.6l-2,0.5c-1.9,0.5-3.2,2.1-3.2,4.1l0,2.7c0,1.9,1.3,3.6,3.2,4.1l2,0.5
		c0.3,1.1,0.7,2.2,1.2,3.2l-1.2,1.6c-0.5,0.7-0.8,1.4-0.8,2.2H9.1c-2.3,0-4.3-1.9-4.3-4.2V18.2h69.7L74.5,61.8L74.5,61.8z
		 M74.6,14.5H4.8V6.8c0-0.8,0.6-1.4,1.4-1.4h66.9c0.8,0,1.4,0.6,1.4,1.4V14.5z"/>
	<path class="st0" d="M54.3,8.1c-1,0-1.8,0.8-1.8,1.8s0.8,1.8,1.8,1.8s1.8-0.8,1.8-1.8S55.3,8.1,54.3,8.1z"/>
	<path class="st0" d="M61.1,8.1c-1,0-1.8,0.8-1.8,1.8s0.8,1.8,1.8,1.8c1,0,1.8-0.8,1.8-1.8C62.9,8.9,62.1,8.1,61.1,8.1z"/>
	<path class="st0" d="M67.9,8.1c-1,0-1.8,0.8-1.8,1.8s0.8,1.8,1.8,1.8c1,0,1.8-0.8,1.8-1.8S68.9,8.1,67.9,8.1z"/>
	<path class="st0" d="M38.5,8.1H9.6c-1,0-1.9,0.8-1.9,1.9s0.8,1.9,1.9,1.9h28.9c1,0,1.9-0.8,1.9-1.9S39.5,8.1,38.5,8.1z"/>
	<path class="st0" d="M39.7,43.7c-5.2,0-9.5,4.2-9.5,9.5c0,5.2,4.2,9.4,9.5,9.4c5.2,0,9.4-4.2,9.4-9.4
		C49.1,47.9,44.9,43.7,39.7,43.7z M39.7,58.9c-3.2,0-5.7-2.6-5.7-5.7s2.6-5.7,5.7-5.7c3.2,0,5.7,2.6,5.7,5.7
		C45.4,56.3,42.8,58.9,39.7,58.9z"/>
</g>
</svg>
