<svg width="86" height="92" viewBox="0 0 86 92" fill="none" xmlns="http://www.w3.org/2000/svg">
<path d="M41.4124 60.0142L32.4178 56.0737L29.264 51.8691C31.3984 50.6341 32.8375 48.3255 32.8375 45.687V32.8376C32.8375 28.9013 29.6352 25.699 25.6989 25.699H19.9881C16.0518 25.699 12.8495 28.9013 12.8495 32.8376V35.693C12.8495 36.3084 13.2421 36.8523 13.826 37.0479L22.3923 39.9034C22.8121 40.0433 23.2704 39.9819 23.6359 39.7363L27.919 36.8809L26.3357 34.5051L22.6336 36.9737L15.7049 34.6636V32.8376C15.7049 30.4761 17.6266 28.5544 19.9881 28.5544H25.6989C28.0604 28.5544 29.9821 30.4761 29.9821 32.8376V45.687C29.9821 48.0485 28.0604 49.9702 25.6989 49.9702H19.9881C17.6266 49.9702 15.7049 48.0485 15.7049 45.687V39.9762H12.8495V45.687C12.8495 48.3255 14.2886 50.6341 16.4231 51.8691L13.2878 56.0494L4.48304 59.5787C1.75895 60.6695 0 63.2708 0 66.2048V89.9463C0 90.7344 0.638191 91.3741 1.42772 91.3741H5.71088V88.5186H2.85544V66.2048C2.85544 64.4444 3.91052 62.8839 5.54526 62.2286L12.4369 59.466L11.4417 65.4395C11.3604 65.9221 11.5331 66.4132 11.8986 66.7402C12.1642 66.9772 12.504 67.1028 12.8495 67.1028C12.9808 67.1028 13.1136 67.0843 13.2407 67.0471L19.6783 65.2082L17.1441 85.4861C17.0884 85.9302 17.244 86.3742 17.5652 86.6869L21.9669 90.97C22.2324 91.2284 22.5894 91.3741 22.962 91.3741H22.982C23.3618 91.3683 23.723 91.2127 23.9857 90.9415L28.1503 86.6583C28.453 86.3471 28.5972 85.9159 28.543 85.4861L26.0088 65.2082L32.4463 67.0471C32.5734 67.0843 32.7062 67.1028 32.8375 67.1028C33.183 67.1028 33.5228 66.9772 33.7884 66.7402C34.1539 66.4132 34.3267 65.9235 34.2453 65.4395L33.2659 59.563L40.266 62.6298C41.825 63.3122 42.8316 64.8527 42.8316 66.5532V77.0969H45.687V66.5532C45.687 63.7191 44.0094 61.1521 41.4124 60.0142ZM19.2742 52.8256H26.4128L29.361 56.7576L26.1016 58.9306L22.8435 61.1036L19.584 58.9306L16.3245 56.7576L19.2742 52.8256ZM15.3109 59.5959L19.397 62.32L14.6298 63.682L15.3109 59.5959ZM25.6247 85.1592L22.9335 87.9261L20.0637 85.1349L22.6622 64.3559L22.765 64.3259C22.8164 64.3288 22.8692 64.3288 22.9206 64.3259L23.0234 64.3559L25.6247 85.1592ZM26.29 62.32L30.3762 59.5959L31.0586 63.682L26.29 62.32Z" fill="#333333"/>
<path d="M42.8315 88.5185H39.9761V91.3739H44.2592C45.0488 91.3739 45.687 90.7343 45.687 89.9462V79.9521H42.8315V88.5185Z" fill="#333333"/>
<path d="M8.56628 71.386H11.4217V91.3741H8.56628V71.386Z" fill="#1D73F8"/>
<path d="M34.2653 71.386H37.1207V91.3741H34.2653V71.386Z" fill="#1D73F8"/>
<path d="M37.1207 19.988H39.9762V37.1207H37.1207V19.988Z" fill="#1D73F8"/>
<path d="M45.687 19.988H48.5424V37.1207H45.687V19.988Z" fill="#1D73F8"/>
<path d="M37.1207 42.8315H39.9762V54.2533H37.1207V42.8315Z" fill="#1D73F8"/>
<path d="M45.687 42.8315H48.5424V59.9642H45.687V42.8315Z" fill="#1D73F8"/>
<path d="M28.5544 19.988H31.4099V22.8435H28.5544V19.988Z" fill="#1D73F8"/>
<path d="M61.392 48.5425H78.5246C79.3141 48.5425 79.9523 47.9029 79.9523 47.1148V29.9822C79.9523 29.1941 79.3141 28.5544 78.5246 28.5544H61.392C60.6024 28.5544 59.9642 29.1941 59.9642 29.9822V47.1148C59.9642 47.9029 60.6024 48.5425 61.392 48.5425ZM77.0969 45.6871H71.386V31.4099H77.0969V45.6871ZM62.8197 31.4099H68.5305V45.6871H62.8197V31.4099Z" fill="#1D73F8"/>
<path d="M85.6632 17.1326V14.2772H57.1089V12.8495C57.1089 12.0614 56.4707 11.4218 55.6811 11.4218H51.398V1.42772C51.398 0.639618 50.7598 0 49.9703 0H31.4099C30.9987 0 30.6075 0.178465 30.3348 0.486852L20.3408 11.9086C20.1138 12.1699 19.9882 12.504 19.9882 12.8495V22.8435H22.8436V14.2772H44.2594V11.4218H24.5626L32.0581 2.85544H48.5425V12.8495C48.5425 13.6376 49.1807 14.2772 49.9703 14.2772H54.2534V88.5186H48.5425V91.374H84.2355C85.025 91.374 85.6632 90.7344 85.6632 89.9463V21.4158C85.6632 20.632 85.0322 19.9938 84.2484 19.9881L81.3801 19.9638V17.1326H85.6632ZM69.9583 19.8681V17.1326H72.8138V19.8924L69.9583 19.8681ZM64.2475 19.821V17.1326H67.1029V19.8439L64.2475 19.821ZM61.392 17.1326V19.7968L57.1089 19.7611V17.1326H61.392ZM65.6752 88.5186V71.386H74.2415V88.5186H65.6752ZM77.0969 88.5186V69.9582C77.0969 69.1701 76.4587 68.5305 75.6692 68.5305H64.2475C63.4579 68.5305 62.8197 69.1701 62.8197 69.9582V88.5186H57.1089V62.8196H82.8078V88.5186H77.0969ZM82.8078 54.2533H77.0969V57.1088H82.8078V59.9642H57.1089V57.1088H74.2415V54.2533H57.1089V22.6165L82.8078 22.8321V54.2533ZM78.5246 19.9395L75.6692 19.9153V17.1326H78.5246V19.9395Z" fill="#333333"/>
</svg>
