<svg width="94" height="91" viewBox="0 0 94 91" fill="none" xmlns="http://www.w3.org/2000/svg">
<path d="M85.8487 47.2514C85.7094 42.8767 82.1255 39.4013 77.749 39.3969H65.504C65.4899 39.396 65.4758 39.3899 65.4669 39.3793L61.9774 35.5609V23.4745C61.9721 19.0399 58.4068 15.4313 53.973 15.3714C53.832 10.9967 50.2472 7.52126 45.8699 7.51597H33.6248C33.6107 7.51685 33.5966 7.51068 33.5878 7.5001L29.1443 2.63874C27.6076 0.959223 25.437 0.00176339 23.1606 0H8.52278C4.04758 0.00528972 0.421401 3.63147 0.416992 8.10667V50.8626C0.421401 55.3369 4.04758 58.9631 8.52278 58.9684H32.2953V82.7427C32.3015 87.217 35.9276 90.8432 40.402 90.8476H85.7517C90.226 90.8423 93.8513 87.217 93.8566 82.7427V55.3528C93.8504 50.9173 90.2842 47.3087 85.8487 47.2514ZM8.52278 55.8086C5.79234 55.806 3.57943 53.5931 3.57679 50.8626V8.10667C3.57943 5.37623 5.79234 3.16332 8.52278 3.15979H23.1606C24.5492 3.16067 25.8734 3.7452 26.8106 4.76967L31.2549 9.63102C31.8633 10.2958 32.7229 10.6749 33.6248 10.6749H45.8699C48.5033 10.6784 50.673 12.7406 50.8097 15.3696H22.2587C17.7853 15.374 14.1582 18.9993 14.1529 23.4736V50.8626C14.1503 53.5922 11.9382 55.8051 9.20869 55.8086H8.52278ZM32.2953 39.9858V55.8095H15.6226C16.7203 54.3936 17.3145 52.6532 17.3136 50.8626V23.4745C17.3171 20.7441 19.5292 18.532 22.2596 18.5303H53.8734C56.6029 18.5329 58.815 20.745 58.8176 23.4745V32.8181C57.6539 32.2045 56.3578 31.8827 55.0416 31.8809H40.402C35.9268 31.8853 32.3006 35.5106 32.2953 39.9858ZM40.402 87.6878C37.6715 87.6851 35.4586 85.474 35.4551 82.7436V39.9858C35.4586 37.2554 37.6715 35.0443 40.402 35.0416H55.0416C56.4293 35.0425 57.7535 35.6261 58.6915 36.6488L63.1332 41.5102C63.7425 42.1749 64.6021 42.5549 65.5031 42.5567H77.749C80.3807 42.5585 82.5513 44.6206 82.6889 47.2497H54.1379C49.6636 47.2541 46.0383 50.8794 46.0339 55.3537V82.7427C46.0294 85.4731 43.8174 87.6851 41.087 87.6878H40.402ZM90.6968 82.7436C90.6933 85.4731 88.4812 87.6851 85.7517 87.6878H47.5062C47.5221 87.6684 47.5362 87.6481 47.552 87.6287C47.5767 87.5952 47.6005 87.5626 47.6252 87.5291C47.6737 87.4638 47.7213 87.3968 47.7672 87.329C47.791 87.2955 47.8148 87.2619 47.8377 87.2267C47.8853 87.1544 47.932 87.0821 47.9779 87.008C47.9964 86.9781 48.0149 86.949 48.0334 86.9181C48.1595 86.7092 48.2759 86.4949 48.3834 86.2754L48.4257 86.1828C48.4637 86.1026 48.5007 86.0224 48.5359 85.9413C48.5518 85.9025 48.5686 85.8637 48.5844 85.8249C48.6153 85.7491 48.6462 85.6724 48.6744 85.5948C48.6894 85.5551 48.7043 85.5145 48.7193 85.4749C48.7493 85.3929 48.7766 85.3109 48.8031 85.228C48.8145 85.1927 48.826 85.1584 48.8375 85.1222C48.9106 84.8868 48.9724 84.6461 49.0235 84.4002C49.0314 84.364 49.0376 84.3261 49.0447 84.2899C49.0614 84.2035 49.0773 84.1171 49.0905 84.0299C49.0976 83.9849 49.1037 83.9399 49.1099 83.895C49.1222 83.8139 49.1319 83.7319 49.1416 83.6499C49.1469 83.6049 49.1522 83.5573 49.1566 83.5115C49.1646 83.4242 49.1707 83.3369 49.176 83.2496C49.1787 83.2091 49.1822 83.1685 49.184 83.1279C49.1901 83.0001 49.1937 82.8714 49.1937 82.7418V55.3528C49.1972 52.6232 51.4092 50.4112 54.1379 50.4086H85.7517C88.4812 50.4112 90.6933 52.6232 90.6968 55.3528V82.7436Z" fill="#565656"/>
<path d="M6.22261 72.6447C4.2495 70.6769 3.14657 68.0011 3.1598 65.2143C3.1598 64.7964 2.99229 64.3961 2.69606 64.1008C2.39982 63.8063 1.9978 63.6414 1.5799 63.6441C0.706196 63.6485 3.64676e-06 64.3582 3.64676e-06 65.2319C-0.00264128 68.8519 1.43355 72.3238 3.99295 74.8832C6.55234 77.4435 10.0251 78.8805 13.6442 78.8779H22.7921L18.6431 83.1468C18.0348 83.7727 18.0489 84.7734 18.6749 85.3808C19.3 85.9892 20.3006 85.9751 20.909 85.3491L27.5389 78.5279C28.1331 77.916 28.1357 76.9436 27.5433 76.33L20.9134 69.4497C20.3077 68.8219 19.3079 68.8034 18.6793 69.4082C18.0507 70.0139 18.0322 71.0146 18.6379 71.6423L22.5656 75.7181H13.6275C10.8477 75.7243 8.18161 74.6169 6.22261 72.6447Z" fill="#1D73F8"/>
</svg>
