<svg width="90" height="90" viewBox="0 0 90 90" fill="none" xmlns="http://www.w3.org/2000/svg">
<g clip-path="url(#clip0)">
<path d="M40.8235 7.03125C41.5997 7.03125 42.2297 6.40266 42.2297 5.625C42.2297 4.84734 41.5997 4.21875 40.8235 4.21875H40.8094C40.0332 4.21875 39.4116 4.84734 39.4116 5.625C39.4116 6.40266 40.0472 7.03125 40.8235 7.03125Z" fill="black"/>
<path d="M45 7.03125H49.2188C49.9964 7.03125 50.625 6.40266 50.625 5.625C50.625 4.84734 49.9964 4.21875 49.2188 4.21875H45C44.2223 4.21875 43.5938 4.84734 43.5938 5.625C43.5938 6.40266 44.2223 7.03125 45 7.03125Z" fill="black"/>
<path d="M70.3125 80.1562V8.44031C70.3125 3.79266 66.5367 0.0140625 61.8933 0.00421875C61.8877 0.00421875 61.882 0 61.875 0H28.125C23.4717 0 19.6875 3.78422 19.6875 8.4375V80.1562C19.6875 85.583 24.1045 90 29.5312 90H60.4688C65.8955 90 70.3125 85.583 70.3125 80.1562ZM67.5 70.3125H22.5V11.2528H67.5V70.3125ZM22.5 73.125H45H67.5V74.5312C67.5 78.4083 64.3458 81.5625 60.4688 81.5625H45H29.5312C25.6542 81.5625 22.5 78.4083 22.5 74.5312V73.125ZM28.125 2.8125H61.8609C61.8666 2.8125 61.8694 2.81531 61.875 2.81531C64.9772 2.81531 67.5 5.33812 67.5 8.44031H22.5V8.4375C22.5 5.33531 25.0228 2.8125 28.125 2.8125V2.8125ZM60.4688 87.1875H29.5312C26.1309 87.1875 23.2903 84.7603 22.6406 81.5484C24.4181 83.2936 26.8509 84.375 29.5312 84.375H60.4688C63.1491 84.375 65.5819 83.2936 67.3594 81.5484C66.7097 84.7603 63.8691 87.1875 60.4688 87.1875Z" fill="black"/>
<path d="M40.7812 77.3438C40.7812 79.6697 42.6741 81.5625 45 81.5625C47.3259 81.5625 49.2188 79.6697 49.2188 77.3438C49.2188 75.0178 47.3259 73.125 45 73.125C42.6741 73.125 40.7812 75.0178 40.7812 77.3438ZM45 75.9375C45.7762 75.9375 46.4062 76.5675 46.4062 77.3438C46.4062 78.12 45.7762 78.75 45 78.75C44.2238 78.75 43.5938 78.12 43.5938 77.3438C43.5938 76.5675 44.2238 75.9375 45 75.9375Z" fill="black"/>
<path d="M32.3438 60.4659H57.6562C61.5333 60.4659 64.6875 57.3117 64.6875 53.4347V28.1222C64.6875 24.2451 61.5333 21.0909 57.6562 21.0909H32.3438C28.4667 21.0909 25.3125 24.2451 25.3125 28.1222V53.4347C25.3125 57.3117 28.4667 60.4659 32.3438 60.4659ZM28.125 28.1222C28.125 25.7962 30.0178 23.9034 32.3438 23.9034H57.6562C59.9822 23.9034 61.875 25.7962 61.875 28.1222V53.4347C61.875 55.7606 59.9822 57.6534 57.6562 57.6534H32.3438C30.0178 57.6534 28.125 55.7606 28.125 53.4347V28.1222Z" fill="#1D73F8"/>
<path d="M39.3764 45.0028C39.7364 45.0028 40.0964 44.865 40.3706 44.5908C40.9205 44.0409 40.9205 43.1522 40.3706 42.6024L38.5537 40.7855L40.3706 38.9672C40.9205 38.4173 40.9205 37.5286 40.3706 36.9788C39.8208 36.4289 38.932 36.4289 38.3822 36.9788L35.5711 39.7913C35.0212 40.3411 35.0212 41.2298 35.5711 41.7797L38.3822 44.5908C38.6564 44.865 39.0164 45.0028 39.3764 45.0028Z" fill="#1D73F8"/>
<path d="M49.6392 44.5908C49.9134 44.865 50.2734 45.0028 50.6334 45.0028C50.9934 45.0028 51.3534 44.865 51.6276 44.5908L54.4387 41.7797C54.9886 41.2298 54.9886 40.3411 54.4387 39.7913L51.6276 36.9788C51.0778 36.4289 50.189 36.4289 49.6392 36.9788C49.0893 37.5286 49.0893 38.4173 49.6392 38.9672L51.4561 40.7855L49.6392 42.6024C49.0893 43.1522 49.0893 44.0409 49.6392 44.5908V44.5908Z" fill="#1D73F8"/>
<path d="M43.1537 46.3373C43.3013 46.3866 43.4518 46.4105 43.5981 46.4105C44.1873 46.4105 44.7371 46.0378 44.9326 45.4486L47.7423 37.0111C47.9884 36.2742 47.5904 35.4769 46.8535 35.2322C46.1124 34.9861 45.3193 35.3841 45.0746 36.1209L42.2635 44.5584C42.0188 45.2967 42.4168 46.0927 43.1537 46.3373V46.3373Z" fill="#1D73F8"/>
<path d="M45 56.25C53.5289 56.25 60.4688 49.3102 60.4688 40.7812C60.4688 32.2523 53.5289 25.3125 45 25.3125C36.4711 25.3125 29.5312 32.2523 29.5312 40.7812C29.5312 49.3102 36.4711 56.25 45 56.25ZM45 28.125C51.9792 28.125 57.6562 33.802 57.6562 40.7812C57.6562 47.7605 51.9792 53.4375 45 53.4375C38.0208 53.4375 32.3438 47.7605 32.3438 40.7812C32.3438 33.802 38.0208 28.125 45 28.125Z" fill="#1D73F8"/>
</g>
<defs>
<clipPath id="clip0">
<rect width="90" height="90" fill="white"/>
</clipPath>
</defs>
</svg>
