<svg width="90" height="90" viewBox="0 0 90 90" fill="none" xmlns="http://www.w3.org/2000/svg">
<path d="M70.3125 54.8438H67.5V53.4375H64.6875V54.8438H11.25V26.7188H68.9062C70.3981 26.7188 71.8288 27.3114 72.8837 28.3663C73.9386 29.4212 74.5312 30.8519 74.5312 32.3438C74.5312 33.8356 73.9386 35.2663 72.8837 36.3212C71.8288 37.3761 70.3981 37.9688 68.9062 37.9688H37.9688V40.7812H68.9062C71.144 40.7812 73.2901 39.8923 74.8725 38.31C76.4548 36.7276 77.3438 34.5815 77.3438 32.3438C77.3438 30.106 76.4548 27.9599 74.8725 26.3775C73.2901 24.7952 71.144 23.9062 68.9062 23.9062H11.25C10.5043 23.9071 9.78947 24.2037 9.2622 24.731C8.73494 25.2582 8.43835 25.9731 8.4375 26.7188V54.8438H5.625V25.3125C5.62626 24.194 6.07115 23.1217 6.86204 22.3308C7.65294 21.5399 8.72526 21.095 9.84375 21.0938H52.0312V18.2812H9.84375C7.9796 18.2834 6.1924 19.0248 4.87424 20.343C3.55609 21.6612 2.81462 23.4483 2.8125 25.3125V59.0625C2.81462 60.9267 3.55609 62.7138 4.87424 64.032C6.1924 65.3502 7.9796 66.0916 9.84375 66.0938H32.3438V68.9062C32.3425 70.0247 31.8976 71.0971 31.1067 71.888C30.3158 72.6789 29.2435 73.1237 28.125 73.125C27.752 73.125 27.3944 73.2732 27.1306 73.5369C26.8669 73.8006 26.7188 74.1583 26.7188 74.5312C26.7188 74.9042 26.8669 75.2619 27.1306 75.5256C27.3944 75.7893 27.752 75.9375 28.125 75.9375H50.625C50.998 75.9375 51.3556 75.7893 51.6194 75.5256C51.8831 75.2619 52.0312 74.9042 52.0312 74.5312C52.0312 74.1583 51.8831 73.8006 51.6194 73.5369C51.3556 73.2732 50.998 73.125 50.625 73.125C49.5065 73.1237 48.4342 72.6789 47.6433 71.888C46.8524 71.0971 46.4075 70.0247 46.4062 68.9062V66.0938H66.0938C67.9579 66.0916 69.7451 65.3502 71.0633 64.032C72.3814 62.7138 73.1229 60.9267 73.125 59.0625V53.4375H70.3125V54.8438ZM45.0033 73.125H33.7467C34.663 71.9096 35.1579 70.4284 35.1562 68.9062V66.0938H43.5938V68.9062C43.5921 70.4284 44.087 71.9096 45.0033 73.125ZM66.0938 63.2812H9.84375C8.72526 63.28 7.65294 62.8351 6.86204 62.0442C6.07115 61.2533 5.62626 60.181 5.625 59.0625V57.6562H70.3125V59.0625C70.3112 60.181 69.8664 61.2533 69.0755 62.0442C68.2846 62.8351 67.2122 63.28 66.0938 63.2812Z" fill="black"/>
<path d="M39.375 61.875C40.1517 61.875 40.7812 61.2454 40.7812 60.4688C40.7812 59.6921 40.1517 59.0625 39.375 59.0625C38.5983 59.0625 37.9688 59.6921 37.9688 60.4688C37.9688 61.2454 38.5983 61.875 39.375 61.875Z" fill="black"/>
<path d="M58.0682 28.5366L55.2557 31.3491C55.1251 31.4797 55.0215 31.6347 54.9508 31.8054C54.8801 31.976 54.8438 32.1589 54.8438 32.3436C54.8438 32.5282 54.8801 32.7111 54.9508 32.8817C55.0215 33.0524 55.1251 33.2074 55.2557 33.338L58.0682 36.1505L60.0569 34.1616L58.2387 32.3436L60.0569 30.5255L58.0682 28.5366Z" fill="#1D73F8"/>
<path d="M68.4946 36.1505L71.3071 33.338C71.4377 33.2074 71.5412 33.0524 71.6119 32.8817C71.6826 32.7111 71.719 32.5282 71.719 32.3436C71.719 32.1589 71.6826 31.976 71.6119 31.8054C71.5412 31.6347 71.4377 31.4797 71.3071 31.3491L68.4946 28.5366L66.5059 30.5255L68.324 32.3436L66.5059 34.1616L68.4946 36.1505Z" fill="#1D73F8"/>
<path d="M63.4297 28.9024L60.6172 34.5273L63.1328 35.7851L65.9453 30.1601L63.4297 28.9024Z" fill="#1D73F8"/>
<path d="M85.7815 28.125H83.7922C83.465 26.9673 83.0022 25.8522 82.4135 24.803L83.822 23.3945C83.9526 23.2639 84.0562 23.1089 84.1269 22.9383C84.1976 22.7677 84.2339 22.5848 84.2339 22.4001C84.2339 22.2154 84.1976 22.0325 84.1269 21.8619C84.0562 21.6913 83.9526 21.5362 83.822 21.4057L79.8445 17.4281C79.5807 17.1644 79.2231 17.0163 78.8501 17.0163C78.4772 17.0163 78.1195 17.1644 77.8558 17.4281L76.4472 18.8367C75.398 18.248 74.283 17.7852 73.1252 17.458V15.4688C73.1252 15.0958 72.977 14.7381 72.7133 14.4744C72.4496 14.2107 72.0919 14.0625 71.719 14.0625H66.094C65.721 14.0625 65.3633 14.2107 65.0996 14.4744C64.8359 14.7381 64.6877 15.0958 64.6877 15.4688V17.458C63.53 17.7852 62.4149 18.248 61.3657 18.8367L59.9571 17.4281C59.6934 17.1644 59.3357 17.0163 58.9628 17.0163C58.5899 17.0163 58.2322 17.1644 57.9685 17.4281L55.2559 20.1407L57.2446 22.1296L58.9628 20.4112L60.1588 21.6074C60.3882 21.8367 60.6897 21.9796 61.0125 22.0121C61.3352 22.0445 61.6592 21.9644 61.9296 21.7854C63.2779 20.8893 64.7871 20.2631 66.3737 19.9412C66.6916 19.8767 66.9774 19.7043 67.1827 19.4531C67.388 19.2019 67.5002 18.8875 67.5002 18.5631V16.875H70.3127V18.5631C70.3127 18.8875 70.4249 19.2019 70.6302 19.4531C70.8355 19.7043 71.1213 19.8767 71.4392 19.9412C73.0258 20.2631 74.535 20.8893 75.8833 21.7854C76.1537 21.9645 76.4777 22.0446 76.8005 22.0122C77.1232 21.9797 77.4248 21.8367 77.6541 21.6074L78.8501 20.4112L80.839 22.4001L79.6429 23.5961C79.4136 23.8254 79.2705 24.1271 79.2381 24.4498C79.2056 24.7726 79.2857 25.0966 79.4648 25.3671C80.3609 26.7153 80.9872 28.2245 81.309 29.8111C81.3735 30.129 81.546 30.4148 81.7971 30.6201C82.0483 30.8254 82.3627 30.9375 82.6871 30.9375H84.3752V33.75H82.6871C82.3627 33.75 82.0483 33.8621 81.7971 34.0674C81.546 34.2727 81.3735 34.5585 81.309 34.8764C80.9872 36.4631 80.3609 37.9724 79.4648 39.3208C79.2857 39.5912 79.2056 39.9152 79.2381 40.2379C79.2706 40.5607 79.4136 40.8623 79.6429 41.0916L80.8389 42.2874L78.8501 44.2763L77.6541 43.0801C77.4248 42.8507 77.1232 42.7077 76.8005 42.6753C76.4777 42.6428 76.1537 42.723 75.8833 42.9021C74.535 43.7982 73.0258 44.4244 71.4392 44.7463C71.1213 44.8108 70.8355 44.9833 70.6302 45.2344C70.4249 45.4856 70.3127 45.8 70.3127 46.1244V47.8125H67.5002V46.1244C67.5002 45.8 67.388 45.4856 67.1827 45.2344C66.9774 44.9832 66.6916 44.8108 66.3737 44.7463C64.7871 44.4244 63.2779 43.7982 61.9296 42.9021C61.6592 42.723 61.3352 42.6429 61.0125 42.6754C60.6897 42.7078 60.3881 42.8508 60.1588 43.0801L58.9628 44.2763L57.2859 42.5993L55.2972 44.5882L57.9685 47.2594C58.2322 47.5231 58.5899 47.6712 58.9628 47.6712C59.3357 47.6712 59.6934 47.5231 59.9571 47.2594L61.3657 45.8508C62.4149 46.4395 63.53 46.9023 64.6877 47.2295V49.2188C64.6877 49.5917 64.8359 49.9494 65.0996 50.2131C65.3633 50.4768 65.721 50.625 66.094 50.625H71.719C72.0919 50.625 72.4496 50.4768 72.7133 50.2131C72.977 49.9494 73.1252 49.5917 73.1252 49.2188V47.2295C74.283 46.9023 75.398 46.4395 76.4472 45.8508L77.8558 47.2594C78.1195 47.5231 78.4772 47.6712 78.8501 47.6712C79.2231 47.6712 79.5807 47.5231 79.8445 47.2594L83.822 43.2818C84.0858 43.0181 84.2339 42.6604 84.2339 42.2874C84.2339 41.9144 84.0858 41.5567 83.822 41.293L82.4135 39.8847C83.0022 38.8354 83.465 37.7203 83.7922 36.5625H85.7815C86.1544 36.5625 86.5121 36.4143 86.7758 36.1506C87.0395 35.8869 87.1877 35.5292 87.1877 35.1562V29.5312C87.1877 29.1583 87.0395 28.8006 86.7758 28.5369C86.5121 28.2732 86.1544 28.125 85.7815 28.125Z" fill="black"/>
<path d="M39.375 29.5312H15.4688C15.0958 29.5313 14.7381 29.6794 14.4744 29.9431C14.2107 30.2069 14.0625 30.5645 14.0625 30.9375V52.0312H16.875V32.3438H39.375V29.5312Z" fill="black"/>
<path d="M19.6875 36.5625C20.4642 36.5625 21.0938 35.9329 21.0938 35.1562C21.0938 34.3796 20.4642 33.75 19.6875 33.75C18.9108 33.75 18.2812 34.3796 18.2812 35.1562C18.2812 35.9329 18.9108 36.5625 19.6875 36.5625Z" fill="#1D73F8"/>
<path d="M23.9062 36.5625C24.6829 36.5625 25.3125 35.9329 25.3125 35.1562C25.3125 34.3796 24.6829 33.75 23.9062 33.75C23.1296 33.75 22.5 34.3796 22.5 35.1562C22.5 35.9329 23.1296 36.5625 23.9062 36.5625Z" fill="#1D73F8"/>
<path d="M28.125 36.5625C28.9017 36.5625 29.5312 35.9329 29.5312 35.1562C29.5312 34.3796 28.9017 33.75 28.125 33.75C27.3483 33.75 26.7188 34.3796 26.7188 35.1562C26.7188 35.9329 27.3483 36.5625 28.125 36.5625Z" fill="#1D73F8"/>
<path d="M32.3438 37.9688H19.6875V40.7812H32.3438V37.9688Z" fill="#1D73F8"/>
</svg>
