<svg width="66" height="70" viewBox="0 0 66 70" fill="none" xmlns="http://www.w3.org/2000/svg">
<path d="M46.9299 40.5481C46.9294 39.0247 46.4117 37.5467 45.4615 36.3561C44.5113 35.1654 43.1849 34.3327 41.6997 33.9943L49.5221 26.1718L50.3155 26.9642C50.5257 27.1743 50.8107 27.2923 51.1079 27.2923C51.405 27.2923 51.69 27.1743 51.9002 26.9642L59.0334 19.8321L59.8257 20.6244C60.0359 20.8345 60.3209 20.9526 60.618 20.9526C60.9152 20.9526 61.2002 20.8345 61.4104 20.6244L64.5808 17.4551C64.685 17.351 64.7677 17.2274 64.8241 17.0914C64.8805 16.9553 64.9095 16.8095 64.9095 16.6622C64.9095 16.515 64.8805 16.3691 64.8241 16.2331C64.7677 16.097 64.685 15.9734 64.5808 15.8693L63.7336 15.0221C65.0764 13.299 65.7431 11.1445 65.6084 8.96411C65.4736 6.78372 64.5466 4.72775 63.0018 3.1831C61.4571 1.63845 59.401 0.711643 57.2206 0.577077C55.0402 0.442512 52.8858 1.10947 51.1628 2.45244L50.3155 1.6052C50.1011 1.4029 49.8175 1.29022 49.5226 1.29022C49.2278 1.29022 48.9442 1.4029 48.7298 1.6052L45.5605 4.77563C45.3504 4.9858 45.2323 5.2708 45.2323 5.56796C45.2323 5.86513 45.3504 6.15013 45.5605 6.36029L46.3528 7.15262L39.2207 14.2847C39.0106 14.4948 38.8926 14.7798 38.8926 15.077C38.8926 15.3742 39.0106 15.6592 39.2207 15.8693L40.013 16.6628L25.7489 30.9258L24.1654 29.3412C24.045 29.2206 23.8987 29.1291 23.7377 29.0736C23.5766 29.018 23.405 29 23.2359 29.0207C23.0668 29.0415 22.9047 29.1005 22.7618 29.1933C22.619 29.2861 22.4992 29.4103 22.4115 29.5563L20.0334 33.5191C19.9049 33.7333 19.8517 33.9843 19.8821 34.2322C19.9126 34.4801 20.025 34.7107 20.2015 34.8874L21.8556 36.5416L14.5868 45.265C14.4076 45.4799 14.3152 45.7541 14.3278 46.0336C14.3405 46.3132 14.4572 46.5779 14.6552 46.7757L13.0705 48.3604C12.4384 47.7383 11.586 47.3912 10.6991 47.3947C9.81213 47.3982 8.96252 47.752 8.33529 48.3791C7.70806 49.0062 7.35403 49.8557 7.35031 50.7426C7.34659 51.6296 7.6935 52.482 8.31545 53.1143L13.0705 57.8694C13.3818 58.1858 13.7527 58.4373 14.1617 58.6096C14.5707 58.7819 15.0098 58.8715 15.4536 58.8733C15.8974 58.875 16.3372 58.7889 16.7475 58.6199C17.1579 58.4508 17.5307 58.2022 17.8445 57.8883C18.1583 57.5744 18.4068 57.2016 18.5758 56.7912C18.7447 56.3808 18.8308 55.941 18.8289 55.4972C18.8271 55.0533 18.7373 54.6143 18.565 54.2053C18.3926 53.7964 18.1409 53.4256 17.8245 53.1143L19.4092 51.5308C19.607 51.7288 19.8717 51.8456 20.1512 51.8582C20.4308 51.8709 20.705 51.7785 20.9198 51.5992L29.6433 44.3304L31.2974 45.9845C31.4742 46.161 31.7048 46.2734 31.9527 46.3039C32.2006 46.3343 32.4516 46.2811 32.6658 46.1526L34.9811 44.763C35.2883 45.1473 35.6366 45.4968 36.02 45.8052L21.339 67.9467L23.2061 69.1862L37.9924 46.8844C38.3472 47.0102 38.712 47.1058 39.0829 47.1702V68.5653H41.3242V47.1713C41.697 47.1086 42.0636 47.0141 42.4203 46.8889L57.2033 69.185L59.0704 67.9456L44.3893 45.803C45.1811 45.1749 45.8209 44.376 46.2608 43.4661C46.7007 42.5562 46.9294 41.5587 46.9299 40.5481V40.5481ZM40.2058 36.0653C40.9542 36.0633 41.6911 36.2486 42.3495 36.6045C43.0079 36.9603 43.5667 37.4753 43.9749 38.1025C44.3832 38.7297 44.628 39.4491 44.6869 40.1952C44.7458 40.9412 44.617 41.6902 44.3122 42.3737C44.0074 43.0572 43.5363 43.6535 42.942 44.1082C42.3476 44.563 41.6489 44.8617 40.9094 44.9771C40.17 45.0926 39.4135 45.0211 38.7088 44.7691C38.0041 44.5171 37.3737 44.0928 36.8751 43.5347C37.0287 43.3737 37.1292 43.1695 37.1631 42.9497C37.1841 42.7806 37.1663 42.6089 37.1109 42.4477C37.0556 42.2865 36.9642 42.1401 36.8437 42.0195L35.2591 40.436L39.5603 36.1359C39.7735 36.0973 39.9892 36.0737 40.2058 36.0653ZM56.6553 2.80546C57.8904 2.8035 59.1022 3.14212 60.1574 3.78411C61.2126 4.42609 62.0704 5.34658 62.6364 6.4444C63.2025 7.54221 63.4549 8.77484 63.3659 10.0068C63.2769 11.2387 62.85 12.4223 62.1321 13.4274L52.7631 4.05839C53.8975 3.24381 55.2588 2.80559 56.6553 2.80546V2.80546ZM49.5221 3.98219L62.2027 16.6628L60.6169 18.2463L47.9386 5.56796L49.5221 3.98219ZM47.9386 8.73727L57.4476 18.2463L51.1079 24.5861L41.5977 15.0759L47.9386 8.73727ZM41.5977 18.2463L47.9386 24.5872L33.6744 38.8502L27.3347 32.5105L41.5977 18.2463ZM16.2398 56.2848C16.0297 56.4949 15.7447 56.6129 15.4475 56.6129C15.1504 56.6129 14.8654 56.4949 14.6552 56.2848L9.90011 51.5308C9.68997 51.3205 9.57197 51.0354 9.57208 50.7381C9.57218 50.4408 9.69038 50.1557 9.90067 49.9456C10.111 49.7355 10.3961 49.6175 10.6934 49.6176C10.9907 49.6177 11.2757 49.7359 11.4859 49.9462L16.2398 54.7001C16.4499 54.9103 16.568 55.1953 16.568 55.4924C16.568 55.7896 16.4499 56.0746 16.2398 56.2848V56.2848ZM16.2398 51.5297L14.6541 49.945L16.2387 48.3604L17.8234 49.945L16.2398 51.5297ZM20.2743 49.2211L16.9672 45.9139L23.4515 38.1341L28.0542 42.7368L20.2743 49.2211ZM32.2657 43.779L22.4036 33.9169L23.5927 31.9356L34.2392 42.5821L32.2657 43.779Z" fill="#333333"/>
<path d="M62.6196 24.8584C61.9547 24.8584 61.3046 25.0556 60.7517 25.425C60.1989 25.7944 59.7679 26.3195 59.5135 26.9339C59.259 27.5482 59.1924 28.2242 59.3221 28.8764C59.4519 29.5286 59.7721 30.1276 60.2423 30.5978C60.7125 31.068 61.3115 31.3882 61.9637 31.5179C62.6159 31.6477 63.2919 31.5811 63.9062 31.3266C64.5206 31.0721 65.0456 30.6412 65.4151 30.0883C65.7845 29.5354 65.9817 28.8854 65.9817 28.2205C65.9817 27.3288 65.6275 26.4736 64.997 25.8431C64.3664 25.2126 63.5113 24.8584 62.6196 24.8584ZM62.6196 29.3412C62.398 29.3412 62.1813 29.2754 61.997 29.1523C61.8127 29.0291 61.6691 28.8541 61.5842 28.6493C61.4994 28.4446 61.4772 28.2192 61.5205 28.0018C61.5637 27.7844 61.6704 27.5847 61.8272 27.428C61.9839 27.2713 62.1836 27.1646 62.401 27.1213C62.6184 27.0781 62.8437 27.1003 63.0485 27.1851C63.2533 27.2699 63.4283 27.4135 63.5514 27.5978C63.6746 27.7821 63.7403 27.9988 63.7403 28.2205C63.7403 28.5177 63.6222 28.8027 63.4121 29.0129C63.2019 29.2231 62.9168 29.3412 62.6196 29.3412Z" fill="#333333"/>
<path d="M12.1885 34.9448C12.8535 34.9448 13.5035 34.7477 14.0564 34.3782C14.6093 34.0088 15.0402 33.4837 15.2947 32.8694C15.5492 32.255 15.6157 31.579 15.486 30.9269C15.3563 30.2747 15.0361 29.6756 14.5659 29.2054C14.0957 28.7352 13.4966 28.415 12.8445 28.2853C12.1923 28.1556 11.5163 28.2222 10.9019 28.4766C10.2876 28.7311 9.76252 29.162 9.39309 29.7149C9.02366 30.2678 8.82648 30.9178 8.82648 31.5828C8.82648 32.4745 9.18069 33.3296 9.8112 33.9601C10.4417 34.5906 11.2969 34.9448 12.1885 34.9448ZM12.1885 30.4621C12.4102 30.4621 12.6269 30.5278 12.8112 30.651C12.9955 30.7741 13.1391 30.9491 13.2239 31.1539C13.3087 31.3587 13.3309 31.584 13.2877 31.8014C13.2445 32.0188 13.1377 32.2185 12.981 32.3752C12.8243 32.532 12.6246 32.6387 12.4072 32.6819C12.1898 32.7252 11.9645 32.703 11.7597 32.6182C11.5549 32.5333 11.3799 32.3897 11.2567 32.2054C11.1336 32.0211 11.0679 31.8044 11.0679 31.5828C11.0679 31.2855 11.1859 31.0005 11.3961 30.7903C11.6063 30.5802 11.8913 30.4621 12.1885 30.4621V30.4621Z" fill="#333333"/>
<path d="M28.9989 18.1343C29.6639 18.1343 30.3139 17.9371 30.8668 17.5677C31.4197 17.1983 31.8506 16.6732 32.1051 16.0588C32.3595 15.4445 32.4261 14.7685 32.2964 14.1163C32.1667 13.4641 31.8464 12.8651 31.3763 12.3949C30.9061 11.9247 30.307 11.6045 29.6548 11.4748C29.0026 11.345 28.3266 11.4116 27.7123 11.6661C27.098 11.9205 26.5729 12.3515 26.2035 12.9044C25.834 13.4572 25.6368 14.1073 25.6368 14.7722C25.6368 15.6639 25.9911 16.5191 26.6216 17.1496C27.2521 17.7801 28.1072 18.1343 28.9989 18.1343V18.1343ZM28.9989 13.6515C29.2206 13.6515 29.4372 13.7173 29.6215 13.8404C29.8058 13.9635 29.9495 14.1386 30.0343 14.3434C30.1191 14.5481 30.1413 14.7735 30.0981 14.9909C30.0548 15.2083 29.9481 15.4079 29.7914 15.5647C29.6346 15.7214 29.4349 15.8281 29.2175 15.8714C29.0002 15.9146 28.7748 15.8924 28.57 15.8076C28.3653 15.7228 28.1902 15.5791 28.0671 15.3948C27.9439 15.2106 27.8782 14.9939 27.8782 14.7722C27.8782 14.475 27.9963 14.1899 28.2065 13.9798C28.4166 13.7696 28.7017 13.6515 28.9989 13.6515Z" fill="#333333"/>
<path d="M40.2058 43.9099C40.8708 43.9099 41.5208 43.7128 42.0737 43.3433C42.6266 42.9739 43.0575 42.4488 43.312 41.8345C43.5664 41.2201 43.633 40.5441 43.5033 39.892C43.3736 39.2398 43.0534 38.6407 42.5832 38.1705C42.113 37.7003 41.5139 37.3801 40.8617 37.2504C40.2095 37.1207 39.5336 37.1872 38.9192 37.4417C38.3049 37.6962 37.7798 38.1271 37.4104 38.68C37.0409 39.2329 36.8438 39.8829 36.8438 40.5479C36.8438 41.4395 37.198 42.2947 37.8285 42.9252C38.459 43.5557 39.3141 43.9099 40.2058 43.9099ZM40.2058 39.4272C40.4275 39.4272 40.6441 39.4929 40.8284 39.616C41.0127 39.7392 41.1564 39.9142 41.2412 40.119C41.326 40.3238 41.3482 40.5491 41.305 40.7665C41.2617 40.9839 41.155 41.1836 40.9983 41.3403C40.8415 41.497 40.6419 41.6038 40.4245 41.647C40.2071 41.6903 39.9817 41.6681 39.777 41.5832C39.5722 41.4984 39.3971 41.3548 39.274 41.1705C39.1509 40.9862 39.0851 40.7695 39.0851 40.5479C39.0851 40.2506 39.2032 39.9656 39.4134 39.7554C39.6235 39.5452 39.9086 39.4272 40.2058 39.4272Z" fill="#1D73F8"/>
<path d="M50.2921 37.1858H52.5334V39.4272H50.2921V37.1858Z" fill="#1D73F8"/>
<path d="M52.5334 34.9446H54.7747V37.186H52.5334V34.9446Z" fill="#1D73F8"/>
<path d="M52.5334 39.4275H54.7747V41.6689H52.5334V39.4275Z" fill="#1D73F8"/>
<path d="M54.7748 37.1858H57.0162V39.4272H54.7748V37.1858Z" fill="#1D73F8"/>
<path d="M16.6713 20.3755H18.9127V22.6169H16.6713V20.3755Z" fill="#1D73F8"/>
<path d="M18.9127 18.1343H21.1541V20.3757H18.9127V18.1343Z" fill="#1D73F8"/>
<path d="M18.9127 22.6172H21.1541V24.8586H18.9127V22.6172Z" fill="#1D73F8"/>
<path d="M21.1541 20.3755H23.3955V22.6169H21.1541V20.3755Z" fill="#1D73F8"/>
<path d="M35.723 3.56543H37.9644V5.80681H35.723V3.56543Z" fill="#1D73F8"/>
<path d="M37.9644 1.32397H40.2058V3.56535H37.9644V1.32397Z" fill="#1D73F8"/>
<path d="M37.9644 5.80688H40.2058V8.04826H37.9644V5.80688Z" fill="#1D73F8"/>
<path d="M40.2057 3.56543H42.4471V5.80681H40.2057V3.56543Z" fill="#1D73F8"/>
<path d="M0.981689 42.7898H3.22307V45.0312H0.981689V42.7898Z" fill="#1D73F8"/>
<path d="M3.22311 40.5481H5.46449V42.7895H3.22311V40.5481Z" fill="#1D73F8"/>
<path d="M3.22311 45.031H5.46449V47.2724H3.22311V45.031Z" fill="#1D73F8"/>
<path d="M5.46442 42.7898H7.7058V45.0312H5.46442V42.7898Z" fill="#1D73F8"/>
<path d="M0.981689 64.0828H3.22307V66.3241H0.981689V64.0828Z" fill="#1D73F8"/>
<path d="M3.22311 61.8413H5.46449V64.0827H3.22311V61.8413Z" fill="#1D73F8"/>
<path d="M3.22311 66.3242H5.46449V68.5656H3.22311V66.3242Z" fill="#1D73F8"/>
<path d="M5.46442 64.0828H7.7058V66.3241H5.46442V64.0828Z" fill="#1D73F8"/>
<path d="M12.1886 62.9619H14.4299V65.2033H12.1886V62.9619Z" fill="#1D73F8"/>
<path d="M14.43 60.7207H16.6714V62.9621H14.43V60.7207Z" fill="#1D73F8"/>
<path d="M14.43 65.2034H16.6714V67.4447H14.43V65.2034Z" fill="#1D73F8"/>
<path d="M16.6713 62.9619H18.9127V65.2033H16.6713V62.9619Z" fill="#1D73F8"/>
</svg>
