<svg width="90" height="90" viewBox="0 0 90 90" fill="none" xmlns="http://www.w3.org/2000/svg">
<g clip-path="url(#clip0)">
<path d="M0.284464 8.25586L6.28674 18.7592C6.48921 19.1142 6.82809 19.3709 7.22437 19.4703L12.8242 20.8703L32.0304 40.0765L34.1525 37.9549L14.6457 18.4487C14.4538 18.2562 14.213 18.1197 13.9495 18.0537L8.56877 16.7037L3.45844 7.75587L7.83978 3.37453L16.7914 8.4898L18.1419 13.8705C18.2074 14.1347 18.3444 14.376 18.5364 14.568L38.0432 34.0748L40.1647 31.9526L20.9585 12.7465L19.5586 7.14972C19.4592 6.75282 19.2024 6.41332 18.8475 6.21024L8.34347 0.208577C7.75769 -0.124746 7.02067 -0.0259837 6.54291 0.449927L0.541246 6.45221C0.0585451 6.92689 -0.0463899 7.66513 0.284464 8.25586V8.25586Z" fill="black"/>
<path d="M62.6685 29.5725L29.6578 62.5838L27.5356 60.4616L60.547 27.4509L62.6685 29.5725Z" fill="#1D73F8"/>
<path d="M23.8804 63.7517C23.6088 63.2998 23.1211 63.0239 22.594 63.0239H13.5912C13.0646 63.0239 12.5764 63.2998 12.3054 63.7517L7.8037 71.2539C7.51791 71.7292 7.51791 72.3236 7.8037 72.7996L12.3054 80.3018C12.5764 80.753 13.0646 81.0296 13.5912 81.0296H22.594C23.1211 81.0296 23.6088 80.753 23.8804 80.3018L28.3815 72.7996C28.6672 72.3236 28.6672 71.7292 28.3815 71.2539L23.8804 63.7517ZM21.7452 78.0284H14.4405L10.8394 72.0267L14.4405 66.0245H21.7452L25.3464 72.0267L21.7452 78.0284Z" fill="#1D73F8"/>
<path d="M72.1101 36.0149C82.0203 36.0482 90.0818 28.041 90.1151 18.1309C90.12 16.6223 89.9349 15.1199 89.5639 13.6576C89.3639 12.8533 88.5497 12.3638 87.7454 12.5638C87.4812 12.6298 87.2405 12.7662 87.0479 12.9582L77.7075 22.2925L70.2966 19.8228L67.8251 12.4138L77.1655 3.07147C77.7513 2.48507 77.7507 1.5351 77.1643 0.949318C76.9711 0.756114 76.7279 0.619082 76.4618 0.553651C66.851 -1.88022 57.0877 3.93749 54.6539 13.5477C54.2841 15.0057 54.0996 16.5044 54.1045 18.0086C54.1082 19.1901 54.2298 20.3678 54.4693 21.5246L21.608 54.3853C20.4512 54.1464 19.2735 54.0248 18.0927 54.0205C8.1479 54.0205 0.0864258 62.0819 0.0864258 72.0267C0.0864258 81.9708 8.1479 90.0323 18.0927 90.0323C28.0368 90.0323 36.0983 81.9708 36.0983 72.0267C36.0946 70.8452 35.9723 69.6675 35.7335 68.5107L43.6005 60.6437L47.0411 64.0843C47.6275 64.6701 48.5769 64.6701 49.1633 64.0843L49.9133 63.3337C50.5713 62.6801 51.6348 62.6801 52.2928 63.3337C52.9502 63.9893 52.9514 65.0534 52.2959 65.7108C52.2953 65.7114 52.2941 65.7127 52.2928 65.7139L51.5428 66.4639C50.9571 67.0497 50.9571 67.9996 51.5428 68.5854L69.4423 86.4849C74.1502 91.2359 81.8178 91.2705 86.5689 86.5626C91.3194 81.8548 91.354 74.1865 86.6461 69.436C86.6208 69.4101 86.5948 69.3842 86.5689 69.3582L68.6695 51.4594C68.0837 50.8737 67.1337 50.8737 66.5479 51.4594L65.798 52.2094C65.1393 52.8637 64.0764 52.8637 63.4178 52.2094C62.761 51.5539 62.7592 50.4897 63.4147 49.8329C63.4159 49.8317 63.4172 49.8311 63.4178 49.8299L64.1684 49.0793C64.7542 48.4935 64.7542 47.5435 64.1684 46.9577L60.7277 43.5171L68.5948 35.6501C69.7515 35.8889 70.9293 36.0112 72.1101 36.0149V36.0149ZM78.0056 87.0318C76.9155 87.0299 75.8347 86.833 74.8143 86.4497L86.5331 74.7303C88.3016 79.4345 85.922 84.6812 81.2178 86.4497C80.1913 86.8355 79.1031 87.033 78.0056 87.0318ZM61.0067 48.0336C59.3451 50.0157 59.6056 52.9699 61.5876 54.6309C63.3295 56.0908 65.8683 56.0895 67.6084 54.6266L84.4474 71.4804C84.6301 71.6637 84.8011 71.8569 84.9665 72.0532L72.1373 84.8824C71.9404 84.7176 71.7472 84.5466 71.5638 84.3633L54.7119 67.5102C56.3736 65.5281 56.1131 62.5739 54.131 60.9128C52.3891 59.4524 49.8497 59.4542 48.1096 60.9165L45.7091 58.516L58.6056 45.6386L61.0067 48.0336ZM67.0658 32.9421L33.0268 66.9744C32.6533 67.3472 32.5033 67.8885 32.6305 68.4003C34.6891 76.4846 29.804 84.7071 21.7191 86.7651C13.6348 88.8237 5.41219 83.9386 3.35361 75.8537C1.29565 67.7694 6.18068 59.5468 14.2656 57.4883C16.7112 56.8661 19.2735 56.8661 21.7191 57.4883C22.2308 57.6136 22.7709 57.4636 23.145 57.0926L57.176 23.0597C57.5488 22.6869 57.6988 22.1456 57.5704 21.6345C55.5261 13.6446 60.3457 5.51028 68.3355 3.46529C69.8454 3.0795 71.407 2.93135 72.9625 3.02826L65.0474 10.9465C64.6455 11.3478 64.5048 11.9422 64.6844 12.481L67.6849 21.4845C67.8349 21.932 68.1868 22.2838 68.6349 22.4326L77.6383 25.4337C78.1766 25.6133 78.771 25.4732 79.1728 25.072L87.088 17.1568C87.1059 17.4432 87.1152 17.7266 87.1152 18.0086C87.1572 26.2534 80.508 32.9711 72.2632 33.0137C70.9885 33.0199 69.7182 32.8631 68.4837 32.5471C67.972 32.4193 67.4306 32.5687 67.0578 32.9415H67.0658V32.9421Z" fill="black"/>
<path d="M77.674 75.4669L75.5518 77.589L60.5474 62.5846L62.6689 60.4624L77.674 75.4669Z" fill="#1D73F8"/>
</g>
<defs>
<clipPath id="clip0">
<rect width="90" height="90" fill="white"/>
</clipPath>
</defs>
</svg>
