<?xml version="1.0" encoding="utf-8"?>
<!-- Generator: Adobe Illustrator 15.0.0, SVG Export Plug-In  -->
<!DOCTYPE svg PUBLIC "-//W3C//DTD SVG 1.1//EN" "http://www.w3.org/Graphics/SVG/1.1/DTD/svg11.dtd" [
	<!ENTITY ns_flows "http://ns.adobe.com/Flows/1.0/">
]>
<svg version="1.1"
	 xmlns="http://www.w3.org/2000/svg" xmlns:xlink="http://www.w3.org/1999/xlink" xmlns:a="http://ns.adobe.com/AdobeSVGViewerExtensions/3.0/"
	 x="0px" y="0px" width="80px" height="80px" viewBox="-1.167 -2 80 80" enable-background="new -1.167 -2 80 80"
	 xml:space="preserve">
<defs>
</defs>
<path fill="#1D73F8" d="M9.144,3.408c-1.824,0-3.307,1.484-3.307,3.307s1.483,3.307,3.307,3.307c1.823,0,3.307-1.484,3.307-3.307
	S10.967,3.408,9.144,3.408z M9.144,7.769c-0.581,0-1.054-0.473-1.054-1.053s0.473-1.053,1.054-1.053s1.053,0.472,1.053,1.053
	S9.725,7.769,9.144,7.769z"/>
<path fill="#1D73F8" d="M17.564,3.408c-1.824,0-3.308,1.484-3.308,3.307s1.484,3.307,3.308,3.307s3.307-1.484,3.307-3.307
	S19.388,3.408,17.564,3.408z M17.564,7.769c-0.581,0-1.053-0.473-1.053-1.053s0.472-1.053,1.053-1.053
	c0.581,0,1.053,0.472,1.053,1.053S18.145,7.769,17.564,7.769z"/>
<path fill="#1D73F8" d="M25.983,3.408c-1.823,0-3.307,1.484-3.307,3.307s1.483,3.307,3.307,3.307c1.824,0,3.308-1.484,3.308-3.307
	S27.807,3.408,25.983,3.408z M25.983,7.769c-0.58,0-1.053-0.473-1.053-1.053s0.473-1.053,1.053-1.053
	c0.581,0,1.053,0.472,1.053,1.053S26.564,7.769,25.983,7.769z"/>
<path d="M75.787,22.231c0.623,0,1.127-0.504,1.127-1.127L77,4.959C77,2.224,74.774,0,72.041,0H4.96C2.226,0,0,2.225,0,4.959v54.527
	c0,2.479,1.828,4.538,4.206,4.902c0.246,0.038,0.499,0.058,0.754,0.058h21.928v4.041h-3.402c-2.27,0-4.117,1.847-4.117,4.116v2.436
	c0,1.036,0.842,1.878,1.878,1.878h5.374c0.622,0,1.126-0.504,1.126-1.128c0-0.621-0.504-1.126-1.126-1.126h-4.998v-2.06
	c0-1.027,0.835-1.862,1.862-1.862h29.945c1.026,0,1.861,0.835,1.861,1.862v2.06H33.617c-0.622,0-1.127,0.505-1.127,1.126
	c0,0.624,0.505,1.128,1.127,1.128h22.05c1.036,0,1.879-0.842,1.879-1.878v-2.436c0-2.27-1.846-4.116-4.117-4.116h-3.402v-4.041
	h21.929c0.255,0,0.509-0.02,0.754-0.058c2.378-0.364,4.205-2.424,4.205-4.902V28.091c0-0.622-0.504-1.127-1.127-1.127
	c-0.622,0-1.127,0.505-1.127,1.127v24.866H39.434V15.329H74.66v5.775C74.66,21.727,75.165,22.231,75.787,22.231z M2.337,15.329
	H37.18v37.548H2.337V15.329z M47.772,68.487H29.142v-4.041h18.631V68.487z M74.66,55.211v4.275c0,1.399-1.065,2.553-2.429,2.692
	c-0.092,0.009-0.183,0.014-0.276,0.014H4.96c-0.093,0-0.186-0.005-0.276-0.014c-1.363-0.14-2.43-1.293-2.43-2.692v-4.275H74.66z
	 M38.307,13.075H2.337V4.959c0-1.492,1.214-2.705,2.706-2.705h66.912c1.492,0,2.705,1.213,2.705,2.706v8.115H38.307z"/>
<path fill="#1D73F8" d="M7.887,18.903h5.709c0.622,0,1.127-0.504,1.127-1.126c0-0.622-0.505-1.127-1.127-1.127H7.887
	c-0.623,0-1.127,0.505-1.127,1.127C6.76,18.399,7.265,18.903,7.887,18.903z"/>
<path d="M17.503,18.903h2.705c0.622,0,1.126-0.504,1.126-1.126c0-0.622-0.504-1.127-1.126-1.127h-2.705
	c-0.623,0-1.127,0.505-1.127,1.127C16.376,18.399,16.88,18.903,17.503,18.903z"/>
<path d="M16.451,20.627h-3.756c-0.622,0-1.126,0.504-1.126,1.127c0,0.622,0.504,1.126,1.126,1.126h3.756
	c0.623,0,1.127-0.504,1.127-1.126C17.579,21.132,17.074,20.627,16.451,20.627z"/>
<path d="M34.182,24.748h-3.756c-0.622,0-1.126,0.504-1.126,1.127c0,0.622,0.504,1.126,1.126,1.126h3.756
	c0.623,0,1.126-0.504,1.126-1.126C35.308,25.252,34.804,24.748,34.182,24.748z"/>
<path d="M18.78,21.755c0,0.622,0.505,1.126,1.127,1.126h9.016c0.623,0,1.127-0.504,1.127-1.126c0-0.623-0.504-1.127-1.127-1.127
	h-9.016C19.285,20.627,18.78,21.132,18.78,21.755z"/>
<path d="M15.174,25.875c0,0.622,0.504,1.126,1.127,1.126h1.954c0.622,0,1.126-0.504,1.126-1.126c0-0.623-0.504-1.127-1.126-1.127
	h-1.954C15.679,24.748,15.174,25.252,15.174,25.875z"/>
<path fill="#1D73F8" d="M26.969,27.001c0.623,0,1.127-0.504,1.127-1.126c0-0.623-0.504-1.127-1.127-1.127H21.56
	c-0.622,0-1.127,0.504-1.127,1.127c0,0.622,0.505,1.126,1.127,1.126H26.969z"/>
<path d="M14.724,40.48c0-0.623-0.505-1.126-1.127-1.126H7.887c-0.623,0-1.127,0.503-1.127,1.126c0,0.622,0.504,1.127,1.127,1.127
	h5.709C14.219,41.607,14.724,41.103,14.724,40.48z"/>
<path d="M17.503,39.354c-0.623,0-1.127,0.503-1.127,1.126c0,0.622,0.504,1.127,1.127,1.127h2.705c0.622,0,1.126-0.505,1.126-1.127
	c0-0.623-0.504-1.126-1.126-1.126H17.503z"/>
<path d="M17.579,44.458c0-0.621-0.504-1.126-1.127-1.126h-3.756c-0.622,0-1.126,0.505-1.126,1.126c0,0.623,0.504,1.128,1.126,1.128
	h3.756C17.074,45.586,17.579,45.081,17.579,44.458z"/>
<path d="M18.255,47.451h-1.954c-0.623,0-1.127,0.505-1.127,1.127c0,0.623,0.504,1.127,1.127,1.127h1.954
	c0.622,0,1.126-0.504,1.126-1.127C19.381,47.956,18.877,47.451,18.255,47.451z"/>
<path d="M34.182,47.451h-3.756c-0.622,0-1.126,0.505-1.126,1.127c0,0.623,0.504,1.127,1.126,1.127h3.756
	c0.623,0,1.126-0.504,1.126-1.127C35.308,47.956,34.804,47.451,34.182,47.451z"/>
<path fill="#1D73F8" d="M30.05,44.458c0-0.621-0.504-1.126-1.127-1.126h-9.016c-0.622,0-1.127,0.505-1.127,1.126
	c0,0.623,0.505,1.128,1.127,1.128h9.016C29.545,45.586,30.05,45.081,30.05,44.458z"/>
<path d="M26.969,47.451H21.56c-0.622,0-1.127,0.505-1.127,1.127c0,0.623,0.505,1.127,1.127,1.127h5.409
	c0.623,0,1.127-0.504,1.127-1.127C28.097,47.956,27.592,47.451,26.969,47.451z"/>
<path d="M7.887,32.165h3.155c0.622,0,1.127-0.505,1.127-1.127s-0.505-1.126-1.127-1.126H7.887c-0.623,0-1.127,0.504-1.127,1.126
	S7.265,32.165,7.887,32.165z"/>
<path d="M26.894,31.038c0-0.622-0.504-1.126-1.126-1.126h-11.57c-0.622,0-1.127,0.504-1.127,1.126s0.505,1.127,1.127,1.127h11.57
	C26.39,32.165,26.894,31.66,26.894,31.038z"/>
<path fill="#1D73F8" d="M24.791,35.016c0-0.621-0.505-1.127-1.127-1.127H12.695c-0.622,0-1.126,0.506-1.126,1.127
	c0,0.623,0.504,1.128,1.126,1.128h10.969C24.286,36.144,24.791,35.639,24.791,35.016z"/>
<path d="M26.82,36.144h2.103c0.623,0,1.127-0.505,1.127-1.128c0-0.621-0.504-1.127-1.127-1.127H26.82
	c-0.623,0-1.127,0.506-1.127,1.127C25.692,35.639,26.197,36.144,26.82,36.144z"/>
<path d="M52.419,42.644h-7.211c-0.623,0-1.127,0.505-1.127,1.127c0,0.623,0.504,1.126,1.127,1.126h7.211
	c0.622,0,1.127-0.503,1.127-1.126C53.546,43.148,53.041,42.644,52.419,42.644z"/>
<path d="M70.751,42.644H56.476c-0.62,0-1.127,0.505-1.127,1.127c0,0.623,0.507,1.126,1.127,1.126h14.275
	c0.623,0,1.127-0.503,1.127-1.126C71.878,43.148,71.374,42.644,70.751,42.644z"/>
<path d="M52.419,47h-7.211c-0.623,0-1.127,0.506-1.127,1.128s0.504,1.127,1.127,1.127h7.211c0.622,0,1.127-0.505,1.127-1.127
	S53.041,47,52.419,47z"/>
<path d="M70.751,47H56.476c-0.62,0-1.127,0.506-1.127,1.128s0.507,1.127,1.127,1.127h14.275c0.623,0,1.127-0.505,1.127-1.127
	S71.374,47,70.751,47z"/>
<path fill="#1D73F8" d="M71.912,19.562c0-1.605-1.306-2.912-2.912-2.912H46.957c-1.604,0-2.91,1.307-2.91,2.912v15.262v0.002v2.669
	c0,1.606,1.306,2.913,2.91,2.913H69c1.606,0,2.912-1.307,2.912-2.913V19.562z M69.658,37.494c0,0.364-0.295,0.658-0.658,0.658
	H46.957c-0.363,0-0.656-0.294-0.656-0.658v-2.202l8.252-8.25l5.698,6.42c0.413,0.466,1.125,0.508,1.589,0.095
	c0.467-0.413,0.509-1.125,0.096-1.591l-0.516-0.582l2.547-2.546l5.691,6.415V37.494z M69.658,31.856l-4.336-4.888
	c-0.326-0.366-0.792-0.584-1.283-0.599c-0.491-0.014-0.967,0.176-1.313,0.522l-2.805,2.803l-4.013-4.521
	c-0.325-0.367-0.792-0.585-1.281-0.599s-0.969,0.175-1.315,0.521l-7.011,7.01V19.562c0-0.363,0.293-0.659,0.656-0.659H69
	c0.363,0,0.658,0.296,0.658,0.659V31.856z"/>
</svg>
