<?xml version="1.0" encoding="utf-8"?>
<!-- Generator: Adobe Illustrator 15.0.0, SVG Export Plug-In  -->
<!DOCTYPE svg PUBLIC "-//W3C//DTD SVG 1.1//EN" "http://www.w3.org/Graphics/SVG/1.1/DTD/svg11.dtd" [
	<!ENTITY ns_flows "http://ns.adobe.com/Flows/1.0/">
]>
<svg version="1.1"
	 xmlns="http://www.w3.org/2000/svg" xmlns:xlink="http://www.w3.org/1999/xlink" xmlns:a="http://ns.adobe.com/AdobeSVGViewerExtensions/3.0/"
	 x="0px" y="0px" width="80px" height="80px" viewBox="-2 -2 80 80" enable-background="new -2 -2 80 80" xml:space="preserve">
<defs>
</defs>
<path d="M72.2,0H3.8C1.701,0,0,1.701,0,3.8v68.4C0,74.299,1.701,76,3.8,76h68.4c2.099,0,3.8-1.701,3.8-3.8V3.8
	C76,1.701,74.299,0,72.2,0z M2.533,3.8c0-0.699,0.567-1.267,1.267-1.267h68.4c0.699,0,1.267,0.567,1.267,1.267v11.4H2.533V3.8z
	 M73.467,72.2c0,0.699-0.567,1.267-1.267,1.267H3.8c-0.699,0-1.267-0.567-1.267-1.267V17.733h70.934V72.2z"/>
<path d="M67.134,12.667h-30.4c-2.099,0-3.8-1.701-3.8-3.8s1.702-3.8,3.8-3.8h30.4c2.099,0,3.8,1.701,3.8,3.8
	S69.232,12.667,67.134,12.667L67.134,12.667z M36.733,7.6c-0.7,0-1.267,0.567-1.267,1.267s0.567,1.267,1.267,1.267h30.4
	c0.699,0,1.267-0.567,1.267-1.267S67.833,7.6,67.134,7.6H36.733z"/>
<path fill="#1D73F8" d="M8.867,12.667c-2.099,0-3.8-1.701-3.8-3.8s1.701-3.8,3.8-3.8s3.8,1.701,3.8,3.8S10.965,12.667,8.867,12.667z
	 M8.867,7.6C8.167,7.6,7.6,8.167,7.6,8.867s0.567,1.267,1.267,1.267s1.267-0.567,1.267-1.267S9.566,7.6,8.867,7.6z"/>
<path fill="#1D73F8" d="M17.733,12.667c-2.099,0-3.8-1.701-3.8-3.8s1.702-3.8,3.8-3.8s3.8,1.701,3.8,3.8
	S19.832,12.667,17.733,12.667z M17.733,7.6c-0.7,0-1.267,0.567-1.267,1.267s0.567,1.267,1.267,1.267S19,9.566,19,8.867
	S18.433,7.6,17.733,7.6z"/>
<path fill="#1D73F8" d="M26.6,12.667c-2.099,0-3.8-1.701-3.8-3.8s1.702-3.8,3.8-3.8s3.8,1.701,3.8,3.8S28.699,12.667,26.6,12.667z
	 M26.6,7.6c-0.7,0-1.267,0.567-1.267,1.267s0.567,1.267,1.267,1.267c0.699,0,1.267-0.567,1.267-1.267S27.299,7.6,26.6,7.6z"/>
<path fill="#1D73F8" d="M31.667,40.533H11.4c-0.7,0-1.267-0.566-1.267-1.267v-15.2c0-0.7,0.567-1.267,1.267-1.267h20.267
	c0.7,0,1.267,0.567,1.267,1.267v15.2C32.933,39.967,32.366,40.533,31.667,40.533z M12.667,38H30.4V25.333H12.667V38z"/>
<path fill="#1D73F8" d="M64.6,27.867H39.267C38.567,27.867,38,27.299,38,26.6c0-0.7,0.567-1.267,1.267-1.267H64.6
	c0.7,0,1.267,0.567,1.267,1.267C65.866,27.299,65.3,27.867,64.6,27.867z"/>
<path fill="#1D73F8" d="M64.6,32.933H39.267c-0.699,0-1.267-0.567-1.267-1.267c0-0.699,0.567-1.267,1.267-1.267H64.6
	c0.7,0,1.267,0.567,1.267,1.267C65.866,32.366,65.3,32.933,64.6,32.933z"/>
<path fill="#1D73F8" d="M64.6,38H39.267C38.567,38,38,37.433,38,36.733c0-0.7,0.567-1.267,1.267-1.267H64.6
	c0.7,0,1.267,0.567,1.267,1.267C65.866,37.433,65.3,38,64.6,38z"/>
<path d="M64.6,50.667H51.934c-0.7,0-1.267-0.567-1.267-1.267v-5.067c0-0.699,0.566-1.267,1.267-1.267H64.6
	c0.7,0,1.267,0.567,1.267,1.267V49.4C65.866,50.1,65.3,50.667,64.6,50.667z M53.2,48.134h10.133V45.6H53.2V48.134z"/>
<path d="M24.067,50.667H11.4c-0.7,0-1.267-0.567-1.267-1.267v-5.067c0-0.699,0.567-1.267,1.267-1.267h12.667
	c0.699,0,1.267,0.567,1.267,1.267V49.4C25.333,50.1,24.766,50.667,24.067,50.667z M12.667,48.134H22.8V45.6H12.667V48.134z"/>
<path d="M44.333,50.667H31.667c-0.699,0-1.267-0.567-1.267-1.267v-5.067c0-0.699,0.567-1.267,1.267-1.267h12.667
	c0.7,0,1.267,0.567,1.267,1.267V49.4C45.6,50.1,45.033,50.667,44.333,50.667z M32.933,48.134h10.133V45.6H32.933V48.134z"/>
<path fill="#1D73F8" d="M64.6,68.4H11.4c-0.7,0-1.267-0.567-1.267-1.267V54.467c0-0.699,0.567-1.267,1.267-1.267h53.2
	c0.7,0,1.267,0.567,1.267,1.267v12.667C65.866,67.833,65.3,68.4,64.6,68.4z M12.667,65.866h50.667V55.733H12.667V65.866z"/>
</svg>
