<svg width="90" height="90" viewBox="0 0 90 90" fill="none" xmlns="http://www.w3.org/2000/svg">
<path fill-rule="evenodd" clip-rule="evenodd" d="M88.2422 43.4159H82.4393V38.2022C82.4393 37.2313 81.6525 36.4444 80.6815 36.4444H76.6832C75.9629 33.8242 74.9213 31.3124 73.5741 28.9462L76.4037 26.1166C76.7333 25.787 76.9187 25.3393 76.9187 24.8737C76.9187 24.4075 76.7333 23.9605 76.4037 23.6302L66.5435 13.77C65.8575 13.084 64.7445 13.084 64.0578 13.77L61.2275 16.6003C58.8613 15.2525 56.3489 14.2108 53.73 13.4905V9.49219C53.73 8.52127 52.9431 7.73438 51.9722 7.73438H38.0278C37.0569 7.73438 36.27 8.52127 36.27 9.49219V13.4905C33.6504 14.2108 31.138 15.2525 28.7718 16.6003L25.9422 13.77C25.2555 13.084 24.1425 13.084 23.4558 13.77L13.5956 23.6302C13.266 23.9598 13.0806 24.4068 13.0806 24.873C13.0806 25.3393 13.266 25.7863 13.5956 26.1159L16.4259 28.9462C15.0774 31.3138 14.0357 33.8262 13.3161 36.4437H9.31847C8.34755 36.4437 7.56065 37.2313 7.56065 38.2015V43.4159H1.75781C0.786896 43.4159 0 44.2035 0 45.1737C0 46.1446 0.786896 46.9315 1.75781 46.9315H37.9688C38.9397 46.9315 39.7266 46.1446 39.7266 45.1737C39.7266 44.2035 38.9397 43.4159 37.9688 43.4159H30.3889C31.2609 36.1258 37.4785 30.4541 45 30.4541C52.5215 30.4541 58.7391 36.1258 59.6111 43.4159H52.0312C51.0603 43.4159 50.2734 44.2035 50.2734 45.1737C50.2734 46.1446 51.0603 46.9315 52.0312 46.9315H88.2422C89.2131 46.9315 90 46.1446 90 45.1737C90 44.2035 89.2131 43.4159 88.2422 43.4159V43.4159ZM45 26.9385C35.538 26.9385 27.7364 34.1833 26.8492 43.4159H11.0763V39.96H14.686C15.5058 39.96 16.2165 39.3935 16.3998 38.5943C17.1284 35.411 18.3829 32.387 20.127 29.6061C20.5623 28.9119 20.4607 28.0083 19.8811 27.4287L17.3248 24.873L24.6993 17.4992L27.255 20.0549C27.8352 20.6344 28.7382 20.736 29.4324 20.3007C32.2105 18.5573 35.2345 17.3035 38.4206 16.5729C39.2191 16.3902 39.7856 15.6796 39.7856 14.8597V11.25H50.2144V14.8597C50.2144 15.6796 50.7809 16.3902 51.5794 16.5736C54.7648 17.3035 57.7895 18.558 60.5683 20.3007C61.2625 20.7367 62.1655 20.6344 62.745 20.0549L65.3007 17.4992L72.6752 24.8737L70.1196 27.4287C69.54 28.009 69.4377 28.9119 69.8737 29.6061C71.6164 32.3843 72.8703 35.4082 73.6008 38.595C73.7835 39.3935 74.4942 39.96 75.314 39.96H78.9244V43.4166H63.1508C62.2636 34.1833 54.462 26.9385 45 26.9385Z" fill="black"/>
<path fill-rule="evenodd" clip-rule="evenodd" d="M17.6999 56.9304H21.4078C23.4883 56.9304 25.1802 58.623 25.1802 60.7035C25.1802 61.6738 25.9678 62.4613 26.938 62.4613C27.9089 62.4613 28.6958 61.6738 28.6958 60.7035C28.6958 56.6846 25.4267 53.4148 21.4078 53.4148H17.6999C13.6809 53.4148 10.4111 56.6846 10.4111 60.7035V74.1529C10.4111 78.1718 13.6809 81.4416 17.6999 81.4416H21.4078C25.4267 81.4416 28.6958 78.1718 28.6958 74.1529C28.6958 73.1826 27.9089 72.3951 26.938 72.3951C25.9678 72.3951 25.1802 73.1826 25.1802 74.1529C25.1802 76.2334 23.4883 77.926 21.4078 77.926H17.6999C15.6193 77.926 13.9268 76.2334 13.9268 74.1529V60.7035C13.9268 58.623 15.6193 56.9304 17.6999 56.9304Z" fill="#1D73F8"/>
<path fill-rule="evenodd" clip-rule="evenodd" d="M57.1088 53.7671C56.3357 53.5652 55.5227 53.9099 55.132 54.6075L45.9845 70.9133L36.837 54.6075C36.4456 53.9099 35.6326 53.5645 34.8595 53.7671C34.0856 53.9689 33.5459 54.6679 33.5459 55.4679V79.3885C33.5459 80.3595 34.3328 81.1464 35.3037 81.1464C36.2746 81.1464 37.0615 80.3595 37.0615 79.3885V62.1936L44.4512 75.3662C44.7623 75.9203 45.348 76.2636 45.9838 76.2636C46.6196 76.2636 47.206 75.9203 47.5171 75.3662L54.9068 62.1936V79.3885C54.9068 80.3595 55.6936 81.1464 56.6646 81.1464C57.6355 81.1464 58.4224 80.3595 58.4224 79.3885V55.4679C58.4224 54.6679 57.8827 53.9689 57.1088 53.7671V53.7671Z" fill="#1D73F8"/>
<path fill-rule="evenodd" clip-rule="evenodd" d="M71.3162 65.6707C68.6932 65.6707 66.5591 63.5366 66.5591 60.913C66.5591 58.29 68.6932 56.1559 71.3162 56.1559C72.8501 56.1559 74.2983 56.9023 75.1916 58.1526C75.7553 58.943 76.8533 59.1256 77.6429 58.5619C78.4332 57.9975 78.6166 56.9002 78.0522 56.1099C76.501 53.9373 73.9831 52.6403 71.3162 52.6403C66.7548 52.6403 63.0435 56.3516 63.0435 60.913C63.0435 65.475 66.7548 69.1864 71.3162 69.1864C73.9391 69.1864 76.0732 71.3198 76.0732 73.9427C76.0732 76.5664 73.9391 78.7005 71.3162 78.7005C69.5419 78.7005 67.9269 77.7234 67.1008 76.1517C66.6497 75.292 65.5868 74.9617 64.7278 75.4129C63.8681 75.8647 63.5372 76.9269 63.989 77.7866C65.4241 80.5188 68.2318 82.2161 71.3162 82.2161C75.8775 82.2161 79.5889 78.5048 79.5889 73.9427C79.5889 69.3814 75.8775 65.6707 71.3162 65.6707V65.6707Z" fill="#1D73F8"/>
<path fill-rule="evenodd" clip-rule="evenodd" d="M46.7578 45.1737C46.7578 44.2062 45.9682 43.4159 45 43.4159C44.0318 43.4159 43.2422 44.2062 43.2422 45.1737C43.2422 46.1419 44.0318 46.9315 45 46.9315C45.9682 46.9315 46.7578 46.1419 46.7578 45.1737Z" fill="black"/>
</svg>
