<svg width="90" height="90" viewBox="0 0 90 90" fill="none" xmlns="http://www.w3.org/2000/svg">
<g clip-path="url(#clip0)">
<path d="M49.3548 75.4839H2.90323V11.6129H49.3548V20.2354H52.2581V7.25806C52.2581 3.25621 49.0019 0 45 0H7.25806C3.25621 0 0 3.25621 0 7.25806V82.7419C0 86.7438 3.25621 90 7.25806 90H45C49.0019 90 52.2581 86.7438 52.2581 82.7419V56.6129H49.3548V75.4839ZM7.25806 2.90323H45C47.4007 2.90323 49.3548 4.85737 49.3548 7.25806V8.70968H2.90323V7.25806C2.90323 4.85737 4.85737 2.90323 7.25806 2.90323ZM45 87.0968H7.25806C4.85737 87.0968 2.90323 85.1426 2.90323 82.7419V78.3871H49.3548V82.7419C49.3548 85.1426 47.4007 87.0968 45 87.0968Z" fill="black"/>
<path d="M21.7744 81.2903H30.4841V84.1935H21.7744V81.2903Z" fill="#1D73F8"/>
<path d="M74.0321 20.3225C73.2311 20.3225 72.5805 19.6719 72.5805 18.8709H69.6772C69.6772 20.7606 70.895 22.3575 72.5805 22.9585V26.129H75.4837V22.9585C77.1692 22.3575 78.3869 20.7606 78.3869 18.8709C78.3869 16.4702 76.4328 14.5161 74.0321 14.5161C73.2311 14.5161 72.5805 13.8654 72.5805 13.0645C72.5805 12.2635 73.2311 11.6128 74.0321 11.6128C74.833 11.6128 75.4837 12.2635 75.4837 13.0645H78.3869C78.3869 11.1748 77.1692 9.5779 75.4837 8.97684V5.8064H72.5805V8.97684C70.895 9.5779 69.6772 11.1748 69.6772 13.0645C69.6772 15.4652 71.6314 17.4193 74.0321 17.4193C74.833 17.4193 75.4837 18.07 75.4837 18.8709C75.4837 19.6719 74.833 20.3225 74.0321 20.3225Z" fill="#1D73F8"/>
<path d="M74.032 43.5484C67.9498 43.5484 62.6544 46.9683 59.9589 51.9852L44.875 45.6039C45.9084 43.1508 46.4514 40.4914 46.4514 37.7419C46.4514 35.0159 45.8836 32.3537 44.8502 29.8899L59.9589 23.4987C62.6544 28.5155 67.9498 31.9355 74.032 31.9355C82.8359 31.9355 89.9997 24.7717 89.9997 15.9677C89.9997 7.1638 82.8359 0 74.032 0C65.2281 0 58.0643 7.1638 58.0643 15.9677C58.0643 17.6618 58.3343 19.292 58.8248 20.8251L43.5396 27.2915C42.497 25.5542 41.2034 23.9573 39.6639 22.5815C35.3552 18.7328 29.5664 16.9041 23.7685 17.5512C14.6668 18.5804 7.18977 25.91 5.98907 34.9812C5.13284 41.4482 7.30105 47.7494 11.9394 52.2694C12.3193 52.6401 12.6546 53.0477 12.9615 53.4772C12.1336 54.2703 11.6126 55.3789 11.6126 56.6129C11.6126 58.628 12.9948 60.3114 14.8554 60.8068C16.1057 65.9336 20.7682 69.6774 26.1288 69.6774C31.4894 69.6774 36.1519 65.9336 37.4022 60.8068C39.2628 60.3114 40.6449 58.628 40.6449 56.6129C40.6449 55.3761 40.1211 54.264 39.2904 53.4715C39.5881 53.0562 39.9148 52.6628 40.282 52.3063C41.5621 51.063 42.6366 49.6731 43.534 48.191L58.8248 54.6602C58.3343 56.1919 58.0643 57.8221 58.0643 59.5161C58.0643 65.706 61.6118 71.0723 66.7739 73.7218V89.4457L74.032 85.8167L81.2901 89.4457V73.7218C86.4522 71.0723 89.9997 65.7075 89.9997 59.5161C89.9997 50.7122 82.8359 43.5484 74.032 43.5484ZM74.032 2.90323C81.2362 2.90323 87.0965 8.76355 87.0965 15.9677C87.0965 23.1719 81.2362 29.0323 74.032 29.0323C66.8278 29.0323 60.9675 23.1719 60.9675 15.9677C60.9675 8.76355 66.8278 2.90323 74.032 2.90323ZM26.1288 66.7742C22.4126 66.7742 19.1521 64.3685 17.9401 60.9677H34.3175C33.1054 64.3685 29.845 66.7742 26.1288 66.7742ZM36.2901 58.0645H15.9675C15.1665 58.0645 14.5159 57.4138 14.5159 56.6129C14.5159 55.812 15.1665 55.1613 15.9675 55.1613H36.2901C37.091 55.1613 37.7417 55.812 37.7417 56.6129C37.7417 57.4138 37.091 58.0645 36.2901 58.0645ZM26.1288 40.6452C24.5276 40.6452 23.2256 39.3431 23.2256 37.7419C23.2256 36.1408 24.5276 34.8387 26.1288 34.8387C27.7299 34.8387 29.032 36.1408 29.032 37.7419C29.032 39.3431 27.7299 40.6452 26.1288 40.6452ZM38.2584 50.2231C37.624 50.8398 37.0946 51.5464 36.6182 52.2914C36.5077 52.2829 36.4021 52.2581 36.2901 52.2581H27.5804V43.3421C30.0789 42.6936 31.9352 40.4403 31.9352 37.7419C31.9352 34.5396 29.3311 31.9355 26.1288 31.9355C22.9264 31.9355 20.3223 34.5396 20.3223 37.7419C20.3223 40.4403 22.1787 42.6936 24.6772 43.3421V52.2581H15.9675C15.8527 52.2581 15.7442 52.2829 15.6308 52.2914C15.1474 51.5365 14.6101 50.8192 13.9658 50.1912C9.99093 46.3169 8.13176 40.9095 8.86607 35.3597C9.89524 27.5934 16.2985 21.317 24.0938 20.4388C29.1426 19.8597 33.9808 21.3999 37.7289 24.7469C38.9452 25.8342 39.9715 27.0873 40.8278 28.4397L35.7252 30.5987L36.8564 33.2723L42.1794 31.0211C43.0619 33.1305 43.5481 35.4093 43.5481 37.7419C43.5481 40.0951 43.0839 42.3711 42.1993 44.4734L36.8564 42.213L35.7252 44.8866L40.832 47.047C40.1048 48.1832 39.2557 49.2563 38.2584 50.2231ZM78.3868 84.7478L74.032 82.5704L69.6772 84.7478V74.8658C71.0636 75.2592 72.5208 75.4839 74.032 75.4839C75.5431 75.4839 77.0004 75.2592 78.3868 74.8658V84.7478ZM74.032 72.5807C66.8278 72.5807 60.9675 66.7203 60.9675 59.5161C60.9675 52.3119 66.8278 46.4516 74.032 46.4516C81.2362 46.4516 87.0965 52.3119 87.0965 59.5161C87.0965 66.7203 81.2362 72.5807 74.032 72.5807Z" fill="black"/>
<path d="M26 32.0378C22.9675 32.0378 20.5 34.5053 20.5 37.5378C20.5 40.5703 22.9675 43.0378 26 43.0378C29.0325 43.0378 31.5 40.5703 31.5 37.5378C31.5 34.5053 29.0325 32.0378 26 32.0378ZM26 40.8378C24.1808 40.8378 22.7 39.357 22.7 37.5378C22.7 35.7186 24.1808 34.2378 26 34.2378C27.8192 34.2378 29.3 35.7186 29.3 37.5378C29.3 39.357 27.8192 40.8378 26 40.8378Z" fill="#1D73F8"/>
<path d="M74.0325 52.2581C70.0306 52.2581 66.7744 55.5143 66.7744 59.5161C66.7744 63.518 70.0306 66.7742 74.0325 66.7742C78.0343 66.7742 81.2905 63.518 81.2905 59.5161C81.2905 55.5143 78.0343 52.2581 74.0325 52.2581ZM74.0325 63.871C71.6318 63.871 69.6776 61.9168 69.6776 59.5161C69.6776 57.1154 71.6318 55.1613 74.0325 55.1613C76.4332 55.1613 78.3873 57.1154 78.3873 59.5161C78.3873 61.9168 76.4332 63.871 74.0325 63.871Z" fill="#1D73F8"/>
</g>
<defs>
<clipPath id="clip0">
<rect width="90" height="90" fill="white"/>
</clipPath>
</defs>
</svg>
