<svg width="90" height="90" viewBox="0 0 90 90" fill="none" xmlns="http://www.w3.org/2000/svg">
<g clip-path="url(#clip0)">
<path d="M8.4375 56.2507H11.25V81.5629H8.4375V56.2507Z" fill="#1D73F8"/>
<path d="M14.0625 56.2507H16.875V81.5629H14.0625V56.2507Z" fill="#1D73F8"/>
<path d="M19.687 56.2505H22.4995V81.5628H19.687V56.2505Z" fill="#1D73F8"/>
<path d="M25.312 75.9379H28.1245V81.5629H25.312V75.9379Z" fill="#1D73F8"/>
<path d="M30.937 75.9379H33.7495V81.5629H30.937V75.9379Z" fill="#1D73F8"/>
<path d="M84.8705 65.9534L80.6869 62.1309C80.7219 61.5953 80.7404 61.0666 80.7404 60.5489C80.7404 60.0319 80.7219 59.5032 80.6869 58.9683L85.724 54.3644L83.8372 48.5726L77.0614 47.8131C76.4991 46.9233 75.879 46.0711 75.2054 45.2623L76.5739 38.5827L71.6431 34.9895L65.7106 38.3492C64.7308 37.9544 63.7262 37.6255 62.7024 37.3646L59.8549 31.0887H53.818L50.9705 37.3646C49.9468 37.6255 48.9422 37.9544 47.9624 38.3492L46.4058 37.4689V0.00115967H0V90.0002H46.4058V83.6282L47.9637 82.7452C48.9429 83.14 49.9474 83.4689 50.9705 83.7298L53.818 90.0002H59.8522L62.6997 83.7236C63.7235 83.4627 64.728 83.1338 65.7078 82.7397L70.537 85.4745C74.6273 88.6091 80.2563 88.8027 84.5526 85.9573L86.2404 84.8435L78.4072 79.1074L81.815 74.4554L89.4662 80.0604L89.8391 77.8034C90.5937 73.2263 88.6642 68.621 84.8719 65.9493L84.8705 65.9534ZM47.788 41.4851L48.432 41.2036C49.668 40.6652 50.9534 40.2471 52.2696 39.9546L52.9563 39.8028L55.628 33.9094H58.034L60.7057 39.8028L61.3923 39.9546C62.7086 40.2471 63.9933 40.6652 65.2299 41.2036L65.874 41.4851L71.5546 38.2689C72.2117 38.7063 72.853 39.1732 73.4703 39.6655L72.1581 46.0636L72.6237 46.5896C73.5177 47.5989 74.3135 48.692 74.9987 49.8531L75.3558 50.4567L81.8486 51.1811C82.1295 51.9165 82.3691 52.6656 82.5785 53.4223L77.7645 57.8284L77.8325 58.5316C77.897 59.2175 77.9293 59.898 77.9293 60.5537C77.9293 61.2088 77.897 61.8892 77.8325 62.5759L77.7645 63.279L78.2726 63.7438C78.1319 63.7438 78.0069 63.7232 77.8703 63.7232C76.1441 63.7232 74.4378 64.0913 72.8654 64.8033L69.3498 62.3692C70.068 57.6128 68.015 52.8634 64.0585 50.1285C60.1028 47.3929 54.9345 47.1492 50.7384 49.5002L47.5957 47.3277C47.9981 45.2534 47.8374 43.109 47.1315 41.1177L47.788 41.4851ZM66.6781 60.5139L53.4129 51.3438C56.4245 50.1978 59.8069 50.6078 62.4573 52.4397C65.1077 54.2723 66.6863 57.2922 66.6781 60.5139ZM2.81247 2.81363H43.5933V11.251H16.8748V8.43857H2.81247V2.81363ZM2.81247 11.251H14.0624V14.0635H2.81247V11.251ZM2.81247 16.876H16.8748V14.0635H43.5933V25.3134H16.8748V22.5009H2.81247V16.876ZM2.81247 25.3134H14.0624V28.1259H2.81247V25.3134ZM43.5933 87.1877H2.81247V30.9383H16.8748V28.1259H43.5933V35.8753L43.5075 35.8279C39.4041 32.3404 33.4894 31.9861 28.9995 34.9586L27.3117 36.0723L35.1449 41.8085L31.7371 46.4605L24.0886 40.8548L23.7165 43.1117C22.9667 47.6463 24.8549 52.2131 28.5875 54.8944L28.5607 54.9253L32.982 58.9669C32.9483 59.4977 32.9298 60.0264 32.9298 60.5475C32.9298 61.0694 32.9483 61.5995 32.982 62.1282L27.9448 66.7321L28.1432 67.5409C28.4941 68.9794 28.9528 70.3898 29.5151 71.7596L29.8331 72.5287L36.6115 73.284C37.1739 74.1739 37.7939 75.026 38.4675 75.8348L37.0991 82.5145L37.7335 83.0548C38.8637 84.0134 40.0633 84.8875 41.3219 85.6689L42.025 86.1076L43.5933 85.2184V87.1877ZM65.8822 79.612L65.2382 79.8936C64.0022 80.4326 62.7169 80.8507 61.4006 81.1419L60.7139 81.2957L58.0381 87.1877H55.6321L52.9604 81.2957L52.2696 81.1405C50.9534 80.8494 49.6687 80.4312 48.4334 79.8922L47.7893 79.6107L42.1081 82.8282C41.4524 82.3922 40.8131 81.9267 40.1917 81.4316L41.5038 75.0335L41.0383 74.5076C40.1443 73.4982 39.3492 72.4058 38.6632 71.2454L38.3062 70.6404L31.8133 69.916C31.5318 69.182 31.2942 68.4329 31.0834 67.6748L35.9057 63.2673L35.8377 62.5642C35.7745 61.8878 35.7423 61.2074 35.7423 60.542C35.7423 59.8767 35.7745 59.1976 35.8377 58.5199L35.9057 57.8168L35.2026 57.1727C35.3626 57.1727 35.5212 57.1967 35.6846 57.1967C37.3799 57.196 39.0567 56.8404 40.6064 56.153L44.3301 58.7279C44.2408 59.3267 44.1934 59.9309 44.1893 60.5365C44.1701 65.0175 46.5314 69.1717 50.3917 71.4472C54.2527 73.7227 59.031 73.777 62.9414 71.5894L65.9537 73.6706C65.8589 74.2 65.7999 74.7355 65.7779 75.2725C65.7628 75.4696 65.7511 75.6591 65.7511 75.8348C65.7511 76.2262 65.7738 76.6128 65.8102 76.9953C65.8205 77.1092 65.8397 77.2184 65.8541 77.3297C65.8857 77.6057 65.9269 77.8783 65.9777 78.1481C66.0004 78.2607 66.0271 78.372 66.0525 78.4846C66.1123 78.7592 66.1816 79.0298 66.2606 79.2955C66.2887 79.3854 66.3155 79.4754 66.345 79.564C66.3828 79.6855 66.4137 79.8077 66.4556 79.9258L65.8822 79.612ZM46.9935 60.5832L60.2573 69.7499C57.2464 70.8965 53.864 70.4866 51.2136 68.6547C48.5632 66.8227 46.9853 63.8036 46.9935 60.5819V60.5832ZM81.206 70.5292L74.4755 79.7178L81.1105 84.5778C78.0309 85.7183 74.5785 85.1511 72.0263 83.0857C71.8388 82.9354 71.6644 82.7747 71.4914 82.6133C71.3836 82.5103 71.2751 82.408 71.1707 82.2995C70.995 82.1169 70.8233 81.9308 70.6647 81.7372C70.5521 81.5964 70.4498 81.4557 70.3454 81.3149C70.2623 81.2009 70.1765 81.0869 70.0982 80.9688C69.9966 80.8157 69.9039 80.6571 69.8167 80.4964C69.7467 80.377 69.6759 80.2575 69.6141 80.1339C69.531 79.9746 69.4541 79.8118 69.3793 79.6471C69.3189 79.507 69.2626 79.3758 69.2076 79.2364C69.1527 79.0977 69.0854 78.9199 69.0319 78.7572C68.9783 78.5938 68.935 78.4324 68.8918 78.269C68.8478 78.1062 68.8101 77.9751 68.7778 77.8261C68.7339 77.6235 68.703 77.4169 68.6721 77.2115C68.6549 77.0921 68.6316 76.974 68.6171 76.8531C68.5807 76.518 68.5622 76.1816 68.5608 75.8451C68.5608 75.644 68.589 75.4387 68.6034 75.2347C68.6508 74.787 68.7311 74.27 68.8087 73.8285C68.8396 73.696 68.8533 73.5641 68.8884 73.4316L69.1458 72.4758L40.8186 52.8963L40.0619 53.3001C37.3277 54.7564 34.0476 54.7571 31.3121 53.3028C28.5765 51.8478 26.7439 49.1281 26.4218 46.0464L32.3434 50.3908L39.078 41.2036L32.443 36.3449C35.7224 35.1165 39.4144 35.8347 41.9934 38.2043C44.5717 40.5732 45.6003 44.1911 44.6535 47.5625L44.3864 48.5245L72.6601 68.0628L73.4209 67.6405C76.1571 66.1553 79.4537 66.1347 82.2091 67.5842C84.9639 69.0344 86.813 71.7645 87.1371 74.8605L81.206 70.5292Z" fill="black"/>
</g>
<defs>
<clipPath id="clip0">
<rect width="90" height="90" fill="white"/>
</clipPath>
</defs>
</svg>
