<svg width="68" height="68" viewBox="0 0 68 68" fill="none" xmlns="http://www.w3.org/2000/svg">
<g clip-path="url(#clip0)">
<path d="M39.0389 67.063L39.0389 67.063C38.7592 67.3428 38.3797 67.5 37.9841 67.5L18.0614 67.4964C17.2374 67.4963 16.5695 66.8282 16.5695 66.0042C16.5693 56.79 13.8263 47.5783 8.84022 40.0616L8.42355 40.338L8.84022 40.0616C6.07679 35.8957 4.61622 31.0444 4.61622 26.0303C4.61622 11.0139 17.6415 -1.07307 32.9797 0.667216C39.9038 1.4528 45.4488 5.04113 49.2679 9.41139C53.0979 13.7942 55.1486 18.9116 55.1486 22.6936V22.6937V22.6939V22.6948V22.6984V22.7126V22.7691L55.1485 22.9918L55.1484 23.8564C55.1483 24.6116 55.1481 25.7144 55.1476 27.105L55.1476 27.2574L55.2325 27.384L63.1324 39.1483C63.1326 39.1485 63.1327 39.1488 63.1329 39.1491C63.4376 39.6067 63.4659 40.1952 63.2065 40.6802C62.9467 41.1653 62.441 41.4682 61.8908 41.4682C58.3191 41.4682 55.4141 44.3732 55.4141 47.9449V57.906C55.4141 58.7301 54.7459 59.3982 53.9218 59.3982H45.9529C42.4267 59.3982 39.4762 62.4303 39.4762 66.0078C39.4762 66.4034 39.3189 66.7831 39.0389 67.063ZM32.6431 3.63253L32.5868 4.12935L32.6431 3.63253C18.8992 2.07342 7.60066 12.9664 7.60066 26.0303C7.60066 30.4545 8.88935 34.7365 11.3274 38.4119C16.4146 46.0814 19.1665 55.0528 19.5158 64.0371L19.5344 64.5176L20.0153 64.5177L36.1882 64.5206L36.5983 64.5207L36.6786 64.1186C37.5351 59.8326 41.3168 56.4138 45.953 56.4138H51.9297H52.4297V55.9138V47.9449C52.4297 43.8413 55.057 40.3372 58.7201 39.0301L59.3259 38.814L58.967 38.2802L52.4146 28.5357C52.4144 28.5355 52.4143 28.5353 52.4141 28.535C52.2509 28.2898 52.1639 28.0021 52.164 27.7076C52.1649 25.0475 52.165 23.3017 52.165 22.8254V22.7915L52.1605 22.758C50.8057 12.7996 42.6549 4.76844 32.6431 3.63253Z" fill="black" stroke="white" stroke-width="1.00002"/>
<path d="M29.5232 36.1531V35.847L29.2506 35.7078C26.2818 34.1918 22.7127 34.3745 19.8898 36.2564C19.4318 36.5616 18.8433 36.5901 18.3578 36.3304C17.8729 36.0707 17.57 35.5651 17.5698 35.0148C17.5698 35.0148 17.5698 35.0147 17.5698 35.0147V18.9441C17.5698 18.4453 17.8192 17.9793 18.2344 17.7025L18.2344 17.7025C22.0226 15.1769 26.8234 14.9677 30.7808 17.0703L31.0154 17.195L31.25 17.0703C35.2075 14.9677 40.0082 15.1769 43.7965 17.7025L44.0728 17.288L43.7965 17.7025C44.2116 17.9793 44.461 18.4453 44.461 18.9441V35.0148C44.461 35.5651 44.1581 36.0708 43.673 36.3304C43.1878 36.5901 42.599 36.5616 42.1411 36.2564C39.3183 34.3746 35.749 34.1911 32.7803 35.707L32.5077 35.8462V36.1523V42.0636V42.9316L33.2585 42.4961C34.3582 41.8583 35.6323 41.4915 36.9921 41.4915H38.9844C39.8084 41.4915 40.4766 42.1596 40.4766 42.9837V44.9759C40.4766 49.0938 37.1256 52.4448 33.0077 52.4448H29.0232C24.9053 52.4448 21.5543 49.0938 21.5543 44.9759V42.9837C21.5543 42.1596 22.2224 41.4915 23.0465 41.4915H25.0387C26.3985 41.4915 27.6727 41.8583 28.7723 42.4961L29.5232 42.9316V42.0636V36.1531ZM25.0389 44.4759H24.5389V44.9759C24.5389 47.4491 26.5502 49.4604 29.0233 49.4604H29.5233V48.9604C29.5233 46.4872 27.5121 44.4759 25.0389 44.4759ZM37.4923 44.9759V44.4759H36.9923C34.5191 44.4759 32.5078 46.4872 32.5078 48.9604V49.4604H33.0078C35.481 49.4604 37.4923 47.4491 37.4923 44.9759ZM41.4767 20.0817V19.7756L41.2041 19.6364C38.5552 18.2838 35.4286 18.2852 32.7804 19.6376L32.5078 19.7768V20.0829V31.8477V32.5391L33.1644 32.3225C35.6512 31.5021 38.3337 31.5009 40.82 32.3213L41.4767 32.538V31.8465V20.0817ZM20.827 19.6364L20.5544 19.7756V20.0817V31.8465V32.538L21.2111 32.3213C23.6978 31.5009 26.3806 31.5011 28.8667 32.3213L29.5233 32.538V31.8465V20.0817V19.7756L29.2507 19.6364C26.6023 18.284 23.4754 18.284 20.827 19.6364Z" fill="#1D73F8" stroke="white" stroke-width="1.00002"/>
</g>
<defs>
<clipPath id="clip0">
<rect width="68" height="68" fill="white"/>
</clipPath>
</defs>
</svg>
