<svg width="68" height="69" viewBox="0 0 68 69" fill="none" xmlns="http://www.w3.org/2000/svg">
<path d="M61.625 1.70703H6.375C3.44569 1.70703 1.0625 4.09022 1.0625 7.01953V32.5195C1.0625 35.4488 3.44569 37.832 6.375 37.832H8.5V51.8262C8.5 54.0479 9.36487 56.1368 10.9363 57.7082C12.5067 59.2797 14.5945 60.1445 16.8173 60.1445H21.25V67.582H46.75V60.1445H51.1828C53.4055 60.1445 55.4944 59.2797 57.0637 57.7082C58.6351 56.1368 59.5 54.0479 59.5 51.8262V37.832H61.625C64.5543 37.832 66.9375 35.4488 66.9375 32.5195V7.01953C66.9375 4.09022 64.5543 1.70703 61.625 1.70703ZM3.1875 32.5195V7.01953C3.1875 5.26216 4.61762 3.83203 6.375 3.83203H61.625C63.3824 3.83203 64.8125 5.26216 64.8125 7.01953V14.457H61.625C60.4244 14.457 59.3279 14.8725 58.4375 15.5472V8.08203C58.4375 6.91009 57.4844 5.95703 56.3125 5.95703H11.6875C10.5156 5.95703 9.5625 6.91009 9.5625 8.08203V31.457C9.5625 32.629 10.5156 33.582 11.6875 33.582H21.3669C21.2914 33.9826 21.25 34.3927 21.25 34.8103C21.25 35.112 21.2808 35.4106 21.3223 35.707H6.375C4.61762 35.707 3.1875 34.2769 3.1875 32.5195ZM48.9005 37.832C48.9632 38.868 49.3797 39.838 50.1203 40.5797L51 41.4594V50.7573C51 51.2982 50.5293 51.7338 49.9545 51.6297L39.1149 49.6587L38.7207 48.083C40.1253 47.1417 41.2303 45.7923 41.8752 44.207H42.5C44.8439 44.207 46.75 42.3009 46.75 39.957C46.75 39.1793 46.5247 38.46 46.1592 37.832H48.9005ZM17 41.4594L17.8797 40.5797C18.6214 39.838 19.0368 38.869 19.0995 37.832H21.8407C21.4753 38.46 21.25 39.1793 21.25 39.957C21.25 42.3009 23.1561 44.207 25.5 44.207H26.1258C26.7697 45.7923 27.8758 47.1417 29.2804 48.083L28.8862 49.6587L18.0434 51.6297C17.4994 51.7242 17 51.2982 17 50.7584V41.4594ZM23.375 34.8103C23.375 33.616 23.8404 32.4951 24.6829 31.6515L25.5 30.8344V30.3945C25.5 27.4652 27.8832 25.082 30.8125 25.082H37.7326C39.1893 25.082 40.375 26.2678 40.375 27.7245C40.375 28.8635 39.6482 29.8718 38.5698 30.2309L37.9153 30.4487L38.5858 32.4643L39.2413 32.2465C40.4993 31.8268 41.4842 30.9173 42.0293 29.7751C43.6337 30.6942 44.625 32.3718 44.625 34.2376C44.625 34.874 44.4996 35.5094 44.2691 36.1033C43.7283 35.8558 43.1333 35.707 42.5 35.707V33.582H37.689C34.7448 33.582 31.7964 32.8861 29.1635 31.5686L28.6875 31.3317L28.2126 31.5697C26.6156 32.3676 25.6063 33.939 25.517 35.707H25.5C24.8115 35.707 24.1698 35.8877 23.5939 36.1798C23.4504 35.7368 23.375 35.2767 23.375 34.8103ZM42.5 41.0195V37.832C43.6719 37.832 44.625 38.7851 44.625 39.957C44.625 41.129 43.6719 42.082 42.5 42.082H42.4267C42.4702 41.7335 42.5 41.3797 42.5 41.0195ZM34 47.3945C30.4842 47.3945 27.625 44.5353 27.625 41.0195V35.9578C27.625 35.0632 28.0447 34.245 28.7449 33.7265C31.5339 35.0238 34.6131 35.707 37.689 35.707H40.375V41.0195C40.375 44.5353 37.5158 47.3945 34 47.3945ZM25.5 37.832V41.0195C25.5 41.3797 25.5298 41.7335 25.5733 42.082H25.5C24.3281 42.082 23.375 41.129 23.375 39.957C23.375 38.7851 24.3281 37.832 25.5 37.832ZM32.4976 54.832L30.5628 56.7679L30.0783 52.4127L32.4976 54.832ZM30.9262 50.2558L31.229 49.0457C32.0992 49.3474 33.0289 49.5195 34 49.5195C34.9711 49.5195 35.9008 49.3474 36.771 49.0467L37.0738 50.2569L34 53.3297L30.9262 50.2558ZM37.9217 52.4127L37.4372 56.7679L35.5024 54.832L37.9217 52.4127ZM42.7242 27.7245L42.4883 27.6065C42.4246 25.0332 40.3208 22.957 37.7326 22.957H30.8125C26.8632 22.957 23.6236 26.05 23.3888 29.9408L23.1816 30.148C22.7853 30.5443 22.4517 30.9863 22.1733 31.457H11.6875V8.08203H56.3125V31.457H46.1933C45.5377 29.8643 44.3328 28.5298 42.7242 27.7245ZM64.8125 16.582V22.957H61.625C59.8676 22.957 58.4375 21.5269 58.4375 19.7695C58.4375 18.0122 59.8676 16.582 61.625 16.582H64.8125ZM16.9745 37.832C16.9171 38.3006 16.7163 38.7373 16.3774 39.0773L15.4976 39.957H10.625V37.832H16.9745ZM55.5613 56.2058C54.3915 57.3757 52.8371 58.0195 51.1828 58.0195H44.625V65.457H23.375V58.0195H16.8173C15.1629 58.0195 13.6074 57.3757 12.4387 56.2058C11.2689 55.036 10.625 53.4805 10.625 51.8262V42.082H14.875V50.7584C14.875 52.4191 16.2254 53.7695 17.8872 53.7695C18.0678 53.7695 18.2506 53.7536 18.4259 53.7207L27.8938 51.9994L28.9372 61.3962L34 56.3344L39.0628 61.3962L40.1062 51.9994L49.5709 53.7207C49.7494 53.7536 49.9322 53.7695 50.1128 53.7695C51.7746 53.7695 53.125 52.4191 53.125 50.7584V42.082H57.375V51.8262C57.375 53.4805 56.7311 55.036 55.5613 56.2058ZM57.375 39.957H52.5024L51.6226 39.0773C51.2826 38.7373 51.0818 38.3006 51.0255 37.832H57.375V39.957ZM61.625 35.707H46.5906C46.6905 35.2236 46.75 34.7317 46.75 34.2387C46.75 34.0166 46.7234 33.7998 46.7043 33.582H56.3125C57.4844 33.582 58.4375 32.629 58.4375 31.457V23.9919C59.3279 24.6666 60.4244 25.082 61.625 25.082H64.8125V32.5195C64.8125 34.2769 63.3824 35.707 61.625 35.707Z" fill="black"/>
<path d="M61.625 20.832C62.2118 20.832 62.6875 20.3563 62.6875 19.7695C62.6875 19.1827 62.2118 18.707 61.625 18.707C61.0382 18.707 60.5625 19.1827 60.5625 19.7695C60.5625 20.3563 61.0382 20.832 61.625 20.832Z" fill="black"/>
<path d="M61.625 33.582C62.2118 33.582 62.6875 33.1063 62.6875 32.5195C62.6875 31.9327 62.2118 31.457 61.625 31.457C61.0382 31.457 60.5625 31.9327 60.5625 32.5195C60.5625 33.1063 61.0382 33.582 61.625 33.582Z" fill="black"/>
<path d="M5.3125 15.5195H7.4375V24.0195H5.3125V15.5195Z" fill="black"/>
<path d="M5.3125 8.08203H7.4375V10.207H5.3125V8.08203Z" fill="black"/>
<path d="M5.3125 29.332H7.4375V31.457H5.3125V29.332Z" fill="black"/>
<path d="M13.8125 20.832H32.9375V10.207H13.8125V20.832ZM15.9375 12.332H30.8125V18.707H15.9375V12.332Z" fill="#1D73F8"/>
<path d="M35.0625 10.207H54.1875V12.332H35.0625V10.207Z" fill="#1D73F8"/>
<path d="M52.0625 14.457H54.1875V16.582H52.0625V14.457Z" fill="black"/>
<path d="M35.0625 14.457H49.9375V16.582H35.0625V14.457Z" fill="#1D73F8"/>
<path d="M35.0625 18.707H54.1875V20.832H35.0625V18.707Z" fill="#1D73F8"/>
<path d="M47.8125 22.957H54.1875V25.082H47.8125V22.957Z" fill="#1D73F8"/>
<path d="M47.8125 27.207H54.1875V29.332H47.8125V27.207Z" fill="#1D73F8"/>
</svg>
