<svg width="90" height="90" viewBox="0 0 90 90" fill="none" xmlns="http://www.w3.org/2000/svg">
<path d="M88.5938 16.875H77.3438V14.0625C77.3453 12.0872 76.8263 10.1464 75.839 8.43557C74.8518 6.7247 73.4312 5.30415 71.7203 4.317C70.0094 3.32984 68.0686 2.81092 66.0933 2.8125C64.1181 2.81408 62.1781 3.33611 60.4688 4.326C58.7594 3.33611 56.8194 2.81408 54.8442 2.8125C52.8689 2.81092 50.9281 3.32984 49.2172 4.317C47.5063 5.30415 46.0857 6.7247 45.0985 8.43557C44.1112 10.1464 43.5922 12.0872 43.5938 14.0625V16.875H32.3438C31.9708 16.875 31.6131 17.0232 31.3494 17.2869C31.0857 17.5506 30.9375 17.9083 30.9375 18.2813V53.4375H33.75V19.6875H43.5938V26.7188H46.4062V19.6875H63.2812V26.7188H66.0938V19.6875H75.9375V75.9375H53.4375V78.75H88.5938C88.9667 78.75 89.3244 78.6018 89.5881 78.3381C89.8518 78.0744 90 77.7167 90 77.3438V18.2813C90 17.9083 89.8518 17.5506 89.5881 17.2869C89.3244 17.0232 88.9667 16.875 88.5938 16.875ZM87.1875 73.3348L84.375 69.8192V28.125H81.5625V69.8192L78.75 73.3348V19.6875H87.1875V73.3348ZM82.9688 72.5636L85.6679 75.9375H80.2696L82.9688 72.5636ZM46.4062 14.0625C46.4056 12.6801 46.7447 11.3187 47.3939 10.0981C48.0431 8.87759 48.9823 7.83536 50.129 7.06318C51.2757 6.29101 52.5946 5.81257 53.9697 5.66998C55.3448 5.5274 56.7338 5.72504 58.0145 6.24551C55.98 8.3389 54.8425 11.1434 54.8438 14.0625V16.875H46.4062V14.0625ZM57.6562 16.875V14.0625C57.6559 12.8763 57.9063 11.7034 58.391 10.6208C58.8757 9.53813 59.5838 8.57015 60.4688 7.7803C61.3537 8.57015 62.0618 9.53813 62.5465 10.6208C63.0312 11.7034 63.2816 12.8763 63.2812 14.0625V16.875H57.6562ZM62.923 6.24551C64.2037 5.72504 65.5927 5.5274 66.9678 5.66998C68.3429 5.81257 69.6618 6.29101 70.8085 7.06318C71.9552 7.83536 72.8944 8.87759 73.5436 10.0981C74.1928 11.3187 74.5319 12.6801 74.5312 14.0625V16.875H66.0938V14.0625C66.095 11.1434 64.9575 8.3389 62.923 6.24551Z" fill="black"/>
<path d="M49.2188 56.25H4.21875C3.84579 56.25 3.48811 56.3982 3.22439 56.6619C2.96066 56.9256 2.8125 57.2833 2.8125 57.6562V85.7812C2.8125 86.1542 2.96066 86.5119 3.22439 86.7756C3.48811 87.0393 3.84579 87.1875 4.21875 87.1875H49.2188C49.5917 87.1875 49.9494 87.0393 50.2131 86.7756C50.4768 86.5119 50.625 86.1542 50.625 85.7812V57.6562C50.625 57.2833 50.4768 56.9256 50.2131 56.6619C49.9494 56.3982 49.5917 56.25 49.2188 56.25V56.25ZM47.8125 84.375H5.625V59.0625H47.8125V84.375Z" fill="#1D73F8"/>
<path d="M11.25 71.7188H18.2812C18.6542 71.7187 19.0119 71.5706 19.2756 71.3069C19.5393 71.0431 19.6875 70.6855 19.6875 70.3125V64.6875C19.6875 64.3145 19.5393 63.9569 19.2756 63.6931C19.0119 63.4294 18.6542 63.2813 18.2812 63.2812H11.25C10.877 63.2813 10.5194 63.4294 10.2556 63.6931C9.99191 63.9569 9.84375 64.3145 9.84375 64.6875V70.3125C9.84375 70.6855 9.99191 71.0431 10.2556 71.3069C10.5194 71.5706 10.877 71.7187 11.25 71.7188ZM12.6562 66.0938H16.875V68.9062H12.6562V66.0938Z" fill="#1D73F8"/>
<path d="M8.4375 74.5312H14.0625V77.3438H8.4375V74.5312Z" fill="black"/>
<path d="M16.875 74.5312H22.5V77.3438H16.875V74.5312Z" fill="black"/>
<path d="M25.3125 74.5312H30.9375V77.3438H25.3125V74.5312Z" fill="black"/>
<path d="M8.4375 78.75H16.875V81.5625H8.4375V78.75Z" fill="black"/>
<path d="M19.6875 78.75H28.125V81.5625H19.6875V78.75Z" fill="black"/>
<path d="M32.5101 75.2739C32.39 75.4984 32.3331 75.7512 32.3454 76.0054C32.3577 76.2596 32.4388 76.5057 32.5799 76.7175L35.3924 80.9363C35.5209 81.1289 35.6948 81.2869 35.8989 81.3961C36.1031 81.5053 36.331 81.5625 36.5625 81.5625H45C45.2545 81.5625 45.5043 81.4934 45.7227 81.3627C45.941 81.2319 46.1198 81.0443 46.2399 80.8198C46.36 80.5954 46.4169 80.3426 46.4046 80.0884C46.3923 79.8341 46.3112 79.588 46.17 79.3762L43.3575 75.1575C43.2291 74.9648 43.0551 74.8069 42.851 74.6976C42.6469 74.5884 42.419 74.5312 42.1875 74.5313H33.75C33.4955 74.5313 33.2457 74.6004 33.0273 74.7311C32.809 74.8619 32.6302 75.0495 32.5101 75.2739ZM41.4349 77.3438L42.3724 78.75H37.3151L36.3776 77.3438H41.4349Z" fill="#1D73F8"/>
<path d="M30.9375 61.875H39.375V64.6875H30.9375V61.875Z" fill="black"/>
<path d="M43.5938 64.6875C44.3704 64.6875 45 64.0579 45 63.2812C45 62.5046 44.3704 61.875 43.5938 61.875C42.8171 61.875 42.1875 62.5046 42.1875 63.2812C42.1875 64.0579 42.8171 64.6875 43.5938 64.6875Z" fill="black"/>
</svg>
