<svg width="90" height="90" viewBox="0 0 90 90" fill="none" xmlns="http://www.w3.org/2000/svg">
<path d="M46.4062 29.5312H43.5938C42.0427 29.5312 40.7812 30.7927 40.7812 32.3438V43.5938C40.7812 45.1448 42.0427 46.4062 43.5938 46.4062H46.4062C47.9573 46.4062 49.2188 45.1448 49.2188 43.5938V32.3438C49.2188 30.7927 47.9573 29.5312 46.4062 29.5312ZM43.5938 43.5938V32.3438H46.4062L46.4077 43.5938H43.5938Z" fill="#1D73F8"/>
<path d="M45 49.2188C42.6741 49.2188 40.7812 51.1116 40.7812 53.4375C40.7812 55.7634 42.6741 57.6562 45 57.6562C47.3259 57.6562 49.2188 55.7634 49.2188 53.4375C49.2188 51.1116 47.3259 49.2188 45 49.2188ZM45 54.8438C44.2252 54.8438 43.5938 54.2137 43.5938 53.4375C43.5938 52.6613 44.2252 52.0312 45 52.0312C45.7748 52.0312 46.4062 52.6613 46.4062 53.4375C46.4062 54.2137 45.7748 54.8438 45 54.8438Z" fill="#1D73F8"/>
<path d="M84.375 1.40625H5.625C3.29906 1.40625 1.40625 3.29906 1.40625 5.625V52.0312C1.40625 53.5823 2.66766 54.8438 4.21875 54.8438H7.03125V73.125C7.03125 77.002 10.1855 80.1562 14.0625 80.1562H33.75V85.7812H25.3125V88.5938H64.6875V85.7812H54.8438V80.1562H75.9375C79.8145 80.1562 82.9688 77.002 82.9688 73.125V54.8438H85.7812C87.3323 54.8438 88.5938 53.5823 88.5938 52.0312V5.625C88.5938 3.29906 86.7009 1.40625 84.375 1.40625ZM5.625 4.21875H84.375C85.1498 4.21875 85.7812 4.84875 85.7812 5.625V12.6562H4.21875V5.625C4.21875 4.84875 4.85016 4.21875 5.625 4.21875ZM52.0312 85.7812H36.5625V80.1562H52.0312V85.7812ZM75.9375 77.3438H14.0625C11.7366 77.3438 9.84375 75.4509 9.84375 73.125V68.9062H80.1562V73.125C80.1562 75.4509 78.2634 77.3438 75.9375 77.3438ZM80.1562 66.0938H9.84375V54.8438H20.3091C19.9097 55.6495 19.6875 56.5355 19.6875 57.4383C19.6875 60.66 22.3088 63.2812 25.5305 63.2812H64.4681C67.6913 63.2812 70.3125 60.66 70.3125 57.4383C70.3125 56.5369 70.0903 55.6495 69.6909 54.8438H80.1562V66.0938ZM67.5 57.4383C67.5 59.1089 66.1402 60.4688 64.4695 60.4688H25.5305C23.8598 60.4688 22.5 59.1089 22.5 57.4383C22.5 56.9081 22.6406 56.385 22.9064 55.9252L42.0005 22.8277C42.6164 21.7575 43.7667 21.0938 45 21.0938C46.2333 21.0938 47.3836 21.7575 47.9995 22.8263L67.0936 55.9238C67.3594 56.385 67.5 56.9081 67.5 57.4383ZM68.0962 52.0312L50.4366 21.42C49.3186 19.4836 47.2359 18.2812 45 18.2812C42.7641 18.2812 40.6814 19.4836 39.5634 21.42L21.9038 52.0312H4.21875V15.4688H85.7812V52.0312H68.0962Z" fill="black"/>
<path d="M7.03125 7.03125H9.84375V9.84375H7.03125V7.03125Z" fill="black"/>
<path d="M12.6562 7.03125H15.4688V9.84375H12.6562V7.03125Z" fill="black"/>
<path d="M18.2812 7.03125H21.0938V9.84375H18.2812V7.03125Z" fill="black"/>
<path d="M57.6562 26.7188H82.9688V18.2812H57.6562V26.7188ZM60.4688 21.0938H80.1562V23.9062H60.4688V21.0938Z" fill="#1D73F8"/>
<path d="M66.0938 35.1562H82.9688V37.9688H66.0938V35.1562Z" fill="#1D73F8"/>
<path d="M66.0938 29.5312H82.9688V32.3438H66.0938V29.5312Z" fill="#1D73F8"/>
<path d="M66.0938 40.7812H82.9688V43.5938H66.0938V40.7812Z" fill="#1D73F8"/>
<path d="M80.1562 46.4062H82.9688V49.2188H80.1562V46.4062Z" fill="#1D73F8"/>
<path d="M74.5312 46.4062H77.3438V49.2188H74.5312V46.4062Z" fill="#1D73F8"/>
<path d="M7.03125 32.3438H29.5312V18.2812H7.03125V32.3438ZM9.84375 21.0938H26.7188V29.5312H9.84375V21.0938Z" fill="#1D73F8"/>
<path d="M7.03125 35.1562H18.2812V37.9688H7.03125V35.1562Z" fill="#1D73F8"/>
<path d="M7.03125 40.7812H18.2812V43.5938H7.03125V40.7812Z" fill="#1D73F8"/>
<path d="M21.0938 35.1562H23.9062V37.9688H21.0938V35.1562Z" fill="#1D73F8"/>
<path d="M21.0938 40.7812H23.9062V43.5938H21.0938V40.7812Z" fill="#1D73F8"/>
<path d="M26.7188 35.1562H29.5312V37.9688H26.7188V35.1562Z" fill="#1D73F8"/>
<path d="M71.7188 71.7188H74.5312V74.5312H71.7188V71.7188Z" fill="black"/>
<path d="M66.0938 71.7188H68.9062V74.5312H66.0938V71.7188Z" fill="black"/>
<path d="M60.4688 71.7188H63.2812V74.5312H60.4688V71.7188Z" fill="black"/>
</svg>
