<svg width="68" height="68" viewBox="0 0 68 68" fill="none" xmlns="http://www.w3.org/2000/svg">
<path d="M36.125 29.75H13.5796L11.3766 20.9385L13.9162 18.3989C14.4857 18.8675 15.2 19.1241 15.9375 19.125H18.0625C18.7973 19.125 19.5096 18.8712 20.0787 18.4064C20.6479 17.9416 21.0389 17.2945 21.1857 16.5745C21.3325 15.8545 21.2261 15.1058 20.8843 14.4553C20.5426 13.8048 19.9866 13.2924 19.3104 13.0047L21.6901 10.625H35.6849L38.0636 13.0037C37.3876 13.2917 36.8318 13.8044 36.4903 14.455C36.1488 15.1056 36.0425 15.8542 36.1894 16.5742C36.3363 17.2941 36.7273 17.9412 37.2964 18.4061C37.8655 18.8709 38.5777 19.1248 39.3125 19.125H41.4375C42.1758 19.1269 42.8915 18.8709 43.4612 18.4014L44.9361 19.8763L46.4389 18.3737L35.4115 7.34639C35.3009 7.23576 35.2131 7.10443 35.1532 6.95989C35.0934 6.81535 35.0625 6.66043 35.0625 6.50397C35.0625 6.188 35.188 5.88496 35.4115 5.66153C35.6349 5.43809 35.9379 5.31256 36.2539 5.31255C36.5699 5.31254 36.8729 5.43804 37.0963 5.66146L51.3111 19.8763L52.8139 18.3737L49.6266 15.1865L50.767 10.625H51C52.1272 10.625 53.2082 10.1772 54.0052 9.3802C54.8022 8.58317 55.25 7.50217 55.25 6.375C55.25 5.24783 54.8022 4.16683 54.0052 3.3698C53.2082 2.57277 52.1272 2.125 51 2.125H6.375C5.24783 2.125 4.16683 2.57277 3.3698 3.3698C2.57277 4.16683 2.125 5.24783 2.125 6.375C2.125 7.50217 2.57277 8.58317 3.3698 9.3802C4.16683 10.1772 5.24783 10.625 6.375 10.625H6.60797L7.74839 15.1865L3.09632 19.8385C2.4753 20.4607 2.12669 21.304 2.1271 22.183C2.1275 23.0621 2.47689 23.905 3.09849 24.5266C3.72008 25.1482 4.56303 25.4975 5.44208 25.4979C6.32114 25.4983 7.16439 25.1496 7.78652 24.5286L9.62437 22.6908L11.7193 31.0702C11.7767 31.3001 11.9094 31.5042 12.0961 31.65C12.2829 31.7958 12.5131 31.875 12.75 31.875H36.125V29.75ZM18.0625 14.875C18.3443 14.875 18.6145 14.9869 18.8138 15.1862C19.0131 15.3855 19.125 15.6557 19.125 15.9375C19.125 16.2193 19.0131 16.4895 18.8138 16.6888C18.6145 16.8881 18.3443 17 18.0625 17H15.9375C15.7642 16.9992 15.5938 16.956 15.4412 16.8739L17.4401 14.875H18.0625ZM23.7695 8.5C24.2382 7.87877 24.4731 7.11237 24.4331 6.33524C24.3931 5.5581 24.0808 4.81986 23.5509 4.25H33.8241C33.2942 4.81986 32.9819 5.5581 32.9419 6.33524C32.9019 7.11237 33.1368 7.87877 33.6055 8.5H23.7695ZM41.4375 17H39.3125C39.0307 17 38.7605 16.8881 38.5612 16.6888C38.3619 16.4895 38.25 16.2193 38.25 15.9375C38.25 15.6557 38.3619 15.3855 38.5612 15.1862C38.7605 14.9869 39.0307 14.875 39.3125 14.875H39.9349L41.9363 16.8765C41.7827 16.9579 41.6114 17.0003 41.4375 17ZM47.8744 13.4342L45.0651 10.625H48.5767L47.8744 13.4342ZM53.125 6.375C53.1249 6.93857 52.901 7.47904 52.5025 7.87754C52.104 8.27604 51.5636 8.49994 51 8.5H42.9401L38.6901 4.25H51C51.5634 4.25064 52.1035 4.47473 52.5019 4.87311C52.9003 5.27149 53.1244 5.81161 53.125 6.375ZM4.25 6.375C4.25006 5.81143 4.47396 5.27096 4.87246 4.87246C5.27096 4.47396 5.81143 4.25006 6.375 4.25H18.6849L14.4349 8.5H6.375C5.81161 8.49936 5.27149 8.27527 4.87311 7.87689C4.47473 7.47852 4.25064 6.93839 4.25 6.375ZM8.79828 10.625H12.3099L9.5006 13.4342L8.79828 10.625ZM6.28382 23.026C6.06039 23.2495 5.75735 23.375 5.44137 23.375C5.1254 23.3749 4.82237 23.2494 4.59896 23.026C4.37554 22.8025 4.25003 22.4995 4.25004 22.1835C4.25005 21.8676 4.37559 21.5645 4.59902 21.3411L20.2787 5.66146C20.3893 5.55083 20.5207 5.46308 20.6652 5.40321C20.8097 5.34335 20.9647 5.31254 21.1211 5.31254C21.2776 5.31255 21.4325 5.34337 21.577 5.40325C21.7216 5.46313 21.8529 5.55089 21.9635 5.66152C22.0742 5.77216 22.1619 5.9035 22.2218 6.04805C22.2817 6.19259 22.3125 6.34752 22.3125 6.50397C22.3125 6.66043 22.2816 6.81535 22.2218 6.95989C22.1619 7.10443 22.0741 7.23576 21.9635 7.34639L6.28382 23.026Z" fill="#1D73F8"/>
<path d="M29.75 12.75H27.625C26.7796 12.75 25.9689 13.0858 25.3711 13.6836C24.7733 14.2814 24.4375 15.0921 24.4375 15.9375C24.4375 16.7829 24.7733 17.5936 25.3711 18.1914C25.9689 18.7892 26.7796 19.125 27.625 19.125H29.75C30.5954 19.125 31.4061 18.7892 32.0039 18.1914C32.6017 17.5936 32.9375 16.7829 32.9375 15.9375C32.9375 15.0921 32.6017 14.2814 32.0039 13.6836C31.4061 13.0858 30.5954 12.75 29.75 12.75ZM29.75 17H27.625C27.3432 17 27.073 16.8881 26.8737 16.6888C26.6744 16.4895 26.5625 16.2193 26.5625 15.9375C26.5625 15.6557 26.6744 15.3855 26.8737 15.1862C27.073 14.9869 27.3432 14.875 27.625 14.875H29.75C30.0318 14.875 30.302 14.9869 30.5013 15.1862C30.7006 15.3855 30.8125 15.6557 30.8125 15.9375C30.8125 16.2193 30.7006 16.4895 30.5013 16.6888C30.302 16.8881 30.0318 17 29.75 17Z" fill="#1D73F8"/>
<path d="M17 21.25C16.1546 21.25 15.3439 21.5858 14.7461 22.1836C14.1483 22.7814 13.8125 23.5921 13.8125 24.4375C13.8125 25.2829 14.1483 26.0936 14.7461 26.6914C15.3439 27.2892 16.1546 27.625 17 27.625H19.125C19.9704 27.625 20.7811 27.2892 21.3789 26.6914C21.9767 26.0936 22.3125 25.2829 22.3125 24.4375C22.3125 23.5921 21.9767 22.7814 21.3789 22.1836C20.7811 21.5858 19.9704 21.25 19.125 21.25H17ZM20.1875 24.4375C20.1872 24.7192 20.0751 24.9893 19.8759 25.1884C19.6768 25.3876 19.4067 25.4997 19.125 25.5H17C16.7182 25.5 16.448 25.3881 16.2487 25.1888C16.0494 24.9895 15.9375 24.7193 15.9375 24.4375C15.9375 24.1557 16.0494 23.8855 16.2487 23.6862C16.448 23.4869 16.7182 23.375 17 23.375H19.125C19.4067 23.3753 19.6768 23.4874 19.8759 23.6866C20.0751 23.8857 20.1872 24.1558 20.1875 24.4375Z" fill="#1D73F8"/>
<path d="M29.75 21.25H27.625C26.7796 21.25 25.9689 21.5858 25.3711 22.1836C24.7733 22.7814 24.4375 23.5921 24.4375 24.4375C24.4375 25.2829 24.7733 26.0936 25.3711 26.6914C25.9689 27.2892 26.7796 27.625 27.625 27.625H29.75C30.5954 27.625 31.4061 27.2892 32.0039 26.6914C32.6017 26.0936 32.9375 25.2829 32.9375 24.4375C32.9375 23.5921 32.6017 22.7814 32.0039 22.1836C31.4061 21.5858 30.5954 21.25 29.75 21.25ZM29.75 25.5H27.625C27.3432 25.5 27.073 25.3881 26.8737 25.1888C26.6744 24.9895 26.5625 24.7193 26.5625 24.4375C26.5625 24.1557 26.6744 23.8855 26.8737 23.6862C27.073 23.4869 27.3432 23.375 27.625 23.375H29.75C30.0318 23.375 30.302 23.4869 30.5013 23.6862C30.7006 23.8855 30.8125 24.1557 30.8125 24.4375C30.8125 24.7193 30.7006 24.9895 30.5013 25.1888C30.302 25.3881 30.0318 25.5 29.75 25.5Z" fill="#1D73F8"/>
<path d="M64.8125 21.25H39.3125C39.0307 21.25 38.7605 21.3619 38.5612 21.5612C38.3619 21.7605 38.25 22.0307 38.25 22.3125V31.875H40.375V23.375H63.75V46.75C63.75 47.8772 63.3022 48.9582 62.5052 49.7552C61.7082 50.5522 60.6272 51 59.5 51C58.3728 51 57.2918 50.5522 56.4948 49.7552C55.6978 48.9582 55.25 47.8772 55.25 46.75V40.375C55.2481 38.6848 54.5758 37.0644 53.3807 35.8693C52.1856 34.6742 50.5652 34.0019 48.875 34H21.25C19.5598 34.0019 17.9394 34.6742 16.7443 35.8693C15.5492 37.0644 14.8769 38.6848 14.875 40.375V64.8125C14.875 65.0943 14.9869 65.3645 15.1862 65.5638C15.3855 65.7631 15.6557 65.875 15.9375 65.875H43.5625C43.8443 65.875 44.1145 65.7631 44.3138 65.5638C44.5131 65.3645 44.625 65.0943 44.625 64.8125V40.375C44.625 39.2478 45.0728 38.1668 45.8698 37.3698C46.6668 36.5728 47.7478 36.125 48.875 36.125C50.0022 36.125 51.0832 36.5728 51.8802 37.3698C52.6772 38.1668 53.125 39.2478 53.125 40.375V46.75C53.1239 48.3192 53.704 49.8333 54.7534 51H46.75V53.125H59.5C61.1902 53.1231 62.8106 52.4508 64.0057 51.2557C65.2008 50.0606 65.8731 48.4402 65.875 46.75V22.3125C65.875 22.0307 65.7631 21.7605 65.5638 21.5612C65.3645 21.3619 65.0943 21.25 64.8125 21.25ZM42.5 40.375V63.75H17V40.375C17.0013 39.2482 17.4495 38.168 18.2462 37.3712C19.043 36.5745 20.1232 36.1263 21.25 36.125H44.1272C43.0783 37.292 42.4987 38.8059 42.5 40.375Z" fill="black"/>
<path d="M46.75 25.5H57.375V27.625H46.75V25.5Z" fill="black"/>
<path d="M42.5 29.75H51V31.875H42.5V29.75Z" fill="black"/>
<path d="M53.125 29.75H61.625V31.875H53.125V29.75Z" fill="black"/>
<path d="M57.375 34H61.625V36.125H57.375V34Z" fill="black"/>
<path d="M57.375 38.25H61.625V40.375H57.375V38.25Z" fill="black"/>
<path d="M57.375 42.5H61.625V44.625H57.375V42.5Z" fill="black"/>
<path d="M57.375 46.75H61.625V48.875H57.375V46.75Z" fill="black"/>
<path d="M35.0625 42.5H39.3125V44.625H35.0625V42.5Z" fill="black"/>
<path d="M19.125 46.75H39.3125V48.875H19.125V46.75Z" fill="black"/>
<path d="M35.0625 51H39.3125V53.125H35.0625V51Z" fill="black"/>
<path d="M19.125 42.5H28.6875V44.625H19.125V42.5Z" fill="black"/>
<path d="M21.25 38.25H38.25V40.375H21.25V38.25Z" fill="black"/>
<path d="M19.125 55.25H21.25V61.625H19.125V55.25Z" fill="black"/>
<path d="M22.3125 55.25H24.4375V57.375H22.3125V55.25Z" fill="black"/>
<path d="M25.5 55.25H27.625V57.375H25.5V55.25Z" fill="black"/>
<path d="M31.875 55.25H34V57.375H31.875V55.25Z" fill="black"/>
<path d="M28.6875 55.25H30.8125V61.625H28.6875V55.25Z" fill="black"/>
<path d="M35.0625 55.25H37.1875V57.375H35.0625V55.25Z" fill="black"/>
<path d="M22.3125 59.5H24.4375V61.625H22.3125V59.5Z" fill="black"/>
<path d="M25.5 59.5H27.625V61.625H25.5V59.5Z" fill="black"/>
<path d="M31.875 59.5H34V61.625H31.875V59.5Z" fill="black"/>
<path d="M35.0625 59.5H37.1875V61.625H35.0625V59.5Z" fill="black"/>
<path d="M38.25 55.25H40.375V61.625H38.25V55.25Z" fill="black"/>
</svg>
