<?xml version="1.0" encoding="utf-8"?>
<!-- Generator: Adobe Illustrator 15.0.0, SVG Export Plug-In  -->
<!DOCTYPE svg PUBLIC "-//W3C//DTD SVG 1.1//EN" "http://www.w3.org/Graphics/SVG/1.1/DTD/svg11.dtd" [
	<!ENTITY ns_flows "http://ns.adobe.com/Flows/1.0/">
]>
<svg version="1.1"
	 xmlns="http://www.w3.org/2000/svg" xmlns:xlink="http://www.w3.org/1999/xlink" xmlns:a="http://ns.adobe.com/AdobeSVGViewerExtensions/3.0/"
	 x="0px" y="0px" width="80px" height="80px" viewBox="-0.743 -2.584 80 80" enable-background="new -0.743 -2.584 80 80"
	 xml:space="preserve">
<defs>
</defs>
<path id="XMLID_19_" d="M78.362,41.309c-0.706-7.09-3.873-13.775-8.921-18.822c-4.313-4.313-9.593-7.085-15.148-8.317v-3.896
	c2.27-0.564,3.956-2.618,3.956-5.059c0-2.875-2.34-5.214-5.214-5.214H41.994c-2.875,0-5.214,2.338-5.214,5.214
	c0,2.441,1.687,4.495,3.956,5.059v3.907c-5.538,1.238-10.8,4.006-15.101,8.307c-0.941,0.941-1.81,1.929-2.604,2.955
	c-0.039-0.003-0.077-0.006-0.117-0.006H11.987c-0.847,0-1.534,0.687-1.534,1.534s0.687,1.533,1.534,1.533h8.957
	c-1.124,1.882-2.031,3.859-2.721,5.894H1.533C0.687,34.397,0,35.083,0,35.931c0,0.847,0.687,1.533,1.533,1.533h15.823
	c-0.442,1.94-0.696,3.914-0.761,5.896H9.814c-0.847,0-1.533,0.686-1.533,1.533c0,0.847,0.687,1.534,1.533,1.534h6.83
	c0.129,1.983,0.449,3.958,0.958,5.893H7.667c-0.846,0-1.533,0.688-1.533,1.534c0,0.848,0.687,1.533,1.533,1.533h10.914
	c1.504,3.979,3.855,7.71,7.054,10.908c5.052,5.052,11.744,8.221,18.841,8.922c1.014,0.101,2.028,0.149,3.039,0.149
	c5.984,0,11.893-1.731,16.905-4.996c0.71-0.462,0.91-1.412,0.447-2.122c-0.462-0.71-1.411-0.911-2.121-0.448
	c-10.973,7.146-25.669,5.601-34.943-3.674c-10.882-10.882-10.882-28.588,0-39.47c10.881-10.882,28.586-10.882,39.47,0
	c9.261,9.262,10.815,23.946,3.692,34.913c-0.461,0.71-0.259,1.661,0.452,2.121c0.71,0.462,1.66,0.259,2.12-0.45
	C77.344,55.379,79.057,48.301,78.362,41.309z M39.848,5.214c0-1.184,0.962-2.147,2.146-2.147h11.041
	c1.184,0,2.146,0.963,2.146,2.147c0,1.184-0.963,2.146-2.146,2.146H52.76H42.269h-0.274C40.81,7.36,39.848,6.397,39.848,5.214z
	 M43.803,13.653v-3.225h7.424v3.22C48.761,13.354,46.268,13.356,43.803,13.653z"/>
<path id="XMLID_18_" fill="#1D73F8" d="M68.357,63.675c-0.404,0-0.798,0.165-1.084,0.449c-0.286,0.286-0.449,0.682-0.449,1.084
	c0,0.404,0.163,0.8,0.449,1.085c0.286,0.287,0.68,0.448,1.084,0.448s0.798-0.161,1.085-0.448c0.284-0.285,0.448-0.681,0.448-1.085
	c0-0.402-0.164-0.798-0.448-1.084C69.155,63.84,68.762,63.675,68.357,63.675z"/>
<path id="XMLID_17_" d="M47.537,20.602c-13.116,0-23.788,10.671-23.788,23.79c0,13.117,10.671,23.788,23.788,23.788
	c13.118,0,23.79-10.671,23.79-23.788C71.327,31.273,60.655,20.602,47.537,20.602z M47.537,65.112
	c-11.425,0-20.721-9.296-20.721-20.721c0-11.426,9.295-20.723,20.721-20.723c11.427,0,20.723,9.296,20.723,20.723
	C68.26,55.816,58.964,65.112,47.537,65.112z"/>
<path id="XMLID_16_" fill="#1D73F8" d="M57.237,32.521l-7.595,7.595c-0.635-0.313-1.349-0.492-2.105-0.492
	c-0.754,0-1.469,0.179-2.104,0.492l-3.4-3.399c-0.599-0.599-1.569-0.599-2.168,0c-0.599,0.599-0.599,1.57,0,2.169l3.399,3.399
	c-0.315,0.635-0.491,1.349-0.491,2.105c0,2.626,2.137,4.764,4.764,4.764c2.628,0,4.767-2.138,4.767-4.764
	c0-0.757-0.179-1.471-0.492-2.105l7.372-7.373l0,0l0.224-0.223c0.599-0.599,0.599-1.57,0-2.169
	C58.809,31.923,57.837,31.923,57.237,32.521z M47.537,46.088c-0.936,0-1.696-0.762-1.696-1.697c0-0.937,0.761-1.699,1.696-1.699
	c0.938,0,1.699,0.763,1.699,1.699C49.236,45.327,48.475,46.088,47.537,46.088z"/>
<path id="XMLID_15_" fill="#1D73F8" d="M63.933,42.876h-1.419c-0.848,0-1.533,0.686-1.533,1.533c0,0.847,0.686,1.533,1.533,1.533
	h1.419c0.848,0,1.534-0.687,1.534-1.533C65.467,43.562,64.78,42.876,63.933,42.876z"/>
<path id="XMLID_14_" fill="#1D73F8" d="M32.563,42.838h-1.421c-0.847,0-1.534,0.687-1.534,1.534c0,0.847,0.687,1.533,1.534,1.533
	h1.421c0.847,0,1.534-0.687,1.534-1.533C34.097,43.525,33.41,42.838,32.563,42.838z"/>
<path id="XMLID_13_" fill="#1D73F8" d="M47.557,30.949c0.847,0,1.533-0.687,1.533-1.533v-1.42c0-0.847-0.687-1.534-1.533-1.534
	s-1.534,0.687-1.534,1.534v1.42C46.022,30.262,46.71,30.949,47.557,30.949z"/>
<path id="XMLID_12_" fill="#1D73F8" d="M47.519,57.832c-0.846,0-1.533,0.687-1.533,1.533v1.422c0,0.847,0.688,1.533,1.533,1.533
	c0.848,0,1.534-0.687,1.534-1.533v-1.422C49.053,58.518,48.366,57.832,47.519,57.832z"/>
<path id="XMLID_11_" fill="#1D73F8" d="M1.533,52.319c-0.403,0-0.799,0.164-1.084,0.449S0,53.449,0,53.853s0.164,0.798,0.449,1.084
	c0.285,0.284,0.681,0.449,1.084,0.449c0.404,0,0.799-0.165,1.084-0.449c0.285-0.286,0.45-0.682,0.45-1.084
	c0-0.404-0.165-0.8-0.45-1.085S1.937,52.319,1.533,52.319z"/>
</svg>
