<svg width="90" height="90" viewBox="0 0 90 90" fill="none" xmlns="http://www.w3.org/2000/svg">
<path d="M73.8545 17.1372C73.1521 16.9456 72.427 17.3583 72.2347 18.0608C72.0424 18.7625 72.4551 19.4876 73.1576 19.6806C82.0531 22.1182 87.3636 25.5775 87.3636 28.9331V28.9524C87.3636 30.2961 86.4703 32.3897 82.2144 34.7298C78.8561 36.5762 74.0983 38.1583 68.4018 39.3276C68.0221 39.4052 67.6383 39.4814 67.2503 39.5556C66.6296 39.6744 66.1798 40.2182 66.1798 40.8506V52.8292C63.9688 52.4447 61.661 52.124 59.2866 51.8665L59.8256 44.1596C59.8764 43.4331 59.3292 42.8034 58.6027 42.7526C57.8776 42.7025 57.2465 43.2491 57.1957 43.9756L56.4775 54.2444C56.3759 55.6843 55.1667 56.8124 53.7254 56.8124H53.0243C52.3425 56.8124 51.7733 57.3322 51.7115 58.0113L49.5705 81.5407H40.4298L38.2896 58.0113C38.2278 57.3322 37.6585 56.8124 36.9767 56.8124H36.2756C34.8337 56.8124 33.6252 55.6843 33.5235 54.2464L32.1262 34.2739C31.9985 32.4454 32.6172 30.6999 33.8669 29.3596C35.1166 28.0199 36.8133 27.2824 38.6446 27.2824H51.3558C53.1871 27.2824 54.8838 28.0199 56.1335 29.3596C57.3839 30.6999 58.0025 32.4454 57.8748 34.2732L57.5652 38.6973C57.5143 39.4238 58.0616 40.0534 58.7881 40.1042C59.5125 40.153 60.1442 39.6078 60.195 38.8813L60.5047 34.4572C60.6812 31.9283 59.7906 29.4152 58.0616 27.5612C56.4679 25.8535 54.2658 24.8188 51.947 24.6677C54.1477 22.7423 55.5457 19.9223 55.5643 16.7802C59.9911 17.1338 64.2277 17.7065 68.1141 18.4906C68.8282 18.6341 69.5231 18.172 69.6666 17.4586C69.8108 16.7451 69.3494 16.0496 68.6353 15.9061C64.4907 15.0697 59.9643 14.4668 55.2374 14.1098C54.0619 9.50581 49.839 6.15222 45.0002 6.15222C40.1614 6.15222 35.9392 9.50581 34.7643 14.1057C26.8679 14.7003 19.6114 15.9809 13.7131 17.8561C4.74199 20.7085 0 24.5386 0 28.9331V66.3363C0 70.0599 3.5431 72.7894 6.51492 74.4243C10.3368 76.5254 15.7792 78.2908 22.2543 79.5295C22.3367 79.5453 22.4197 79.5529 22.5021 79.5529C22.8063 79.5529 23.1037 79.4478 23.3419 79.2507C23.6447 79.0001 23.8205 78.6279 23.8205 78.2345V68.9565C23.8205 68.2287 23.23 67.6388 22.5021 67.6388C21.7743 67.6388 21.1838 68.2287 21.1838 68.9565V76.6257C15.6707 75.4659 11.0619 73.9155 7.78522 72.1137C3.52937 69.7736 2.63673 67.68 2.63673 66.3363V34.2794C2.63742 34.2808 2.63879 34.2815 2.64016 34.2828C2.77406 34.4112 2.91207 34.5362 3.05146 34.6591C3.07 34.6756 3.08854 34.6928 3.10777 34.7085C3.24235 34.826 3.379 34.9406 3.5177 35.0532C3.5431 35.0738 3.56851 35.0944 3.5946 35.115C3.73262 35.2263 3.8727 35.3348 4.01415 35.4405C4.03612 35.457 4.05878 35.4735 4.08144 35.49C4.22907 35.5998 4.37807 35.7083 4.52844 35.8127C4.52982 35.8134 4.53119 35.8147 4.53256 35.8161C4.68363 35.9205 4.83538 36.0221 4.98713 36.1217C5.00773 36.1361 5.02901 36.1498 5.0503 36.1642C5.19655 36.259 5.34212 36.351 5.48838 36.441C5.51447 36.4574 5.54125 36.4732 5.56734 36.4897C5.71291 36.579 5.85848 36.6655 6.00268 36.75C6.02396 36.7616 6.04456 36.7733 6.06516 36.7857C6.21623 36.8729 6.3666 36.958 6.51492 37.0397C8.54534 38.1562 11.0331 39.1779 13.8895 40.0761C14.8419 40.3755 15.8348 40.6604 16.8661 40.9316C17.5535 41.1122 18.2573 41.2866 18.9776 41.4535C19.6972 41.6203 20.4333 41.781 21.1838 41.9341V63.6837C21.1838 64.4123 21.7743 65.0021 22.5021 65.0021C23.23 65.0021 23.8205 64.4123 23.8205 63.6837V55.5071C26.0837 55.102 28.454 54.7642 30.8992 54.4971C31.1161 57.1098 33.2008 59.1834 35.7703 59.4251L37.9133 82.9785C37.9751 83.6576 38.5443 84.1774 39.2262 84.1774H50.7735C51.4554 84.1774 52.0246 83.6576 52.0864 82.9785L54.2294 59.4251C56.7988 59.1827 58.8828 57.1104 59.1005 54.4971C61.5463 54.7642 63.916 55.102 66.1798 55.5071V78.2352C66.1798 78.6279 66.3549 79.0001 66.6577 79.2507C66.896 79.4478 67.194 79.5535 67.4975 79.5535C67.5799 79.5535 67.663 79.5453 67.7454 79.5295C74.2212 78.2908 79.6636 76.5254 83.4847 74.4243C86.4572 72.7901 89.9997 70.0599 89.9997 66.3363V28.9331C90.0004 24.1802 84.2662 19.9909 73.8545 17.1372ZM37.158 15.5517C37.7245 11.6955 41.0959 8.78826 45.0002 8.78826C48.9045 8.78826 52.2759 11.6955 52.8438 15.5566C52.9001 15.9328 52.9289 16.3229 52.9289 16.717C52.9289 21.0889 49.3721 24.6457 45.0002 24.6457C40.6283 24.6457 37.0714 21.0889 37.0714 16.717C37.0714 16.3229 37.1003 15.9328 37.158 15.5517ZM22.75 39.5556C16.5427 38.3684 11.3681 36.6991 7.7859 34.7291C3.52937 32.389 2.63673 30.2961 2.63673 28.9524V28.9331C2.63673 25.9346 7.07591 22.7327 14.5116 20.3686C20.0927 18.5936 26.9509 17.3686 34.4368 16.7747C34.4533 19.9188 35.852 22.741 38.054 24.667C35.7345 24.8188 33.5325 25.8528 31.9394 27.5612C30.2105 29.4145 29.3199 31.9283 29.4957 34.4572L30.7138 51.8665C28.34 52.124 26.0315 52.4447 23.8205 52.8292V40.8506C23.8205 40.2182 23.3714 39.6744 22.75 39.5556ZM87.3636 66.3363C87.3636 67.68 86.4703 69.7736 82.2144 72.1137C78.9378 73.9155 74.329 75.4659 68.8166 76.6257V41.9341C74.822 40.7092 79.8764 39.0241 83.4854 37.0397C83.6331 36.9587 83.7821 36.8742 83.9324 36.787C83.9544 36.774 83.9771 36.7616 83.999 36.7486C84.1426 36.6655 84.2868 36.579 84.4316 36.4911C84.4591 36.4739 84.4859 36.4574 84.5133 36.4403C84.6589 36.351 84.8045 36.259 84.9494 36.1642C84.9713 36.1505 84.9926 36.1361 85.0146 36.1217C85.1657 36.0228 85.3167 35.9212 85.4671 35.8168C85.4685 35.8154 85.4705 35.8141 85.4726 35.8127C85.6223 35.7083 85.7706 35.6005 85.9189 35.4913C85.9416 35.4742 85.9642 35.4577 85.9869 35.4405C86.1277 35.3348 86.267 35.2263 86.4057 35.1157C86.4312 35.0951 86.4572 35.0738 86.4833 35.0532C86.6214 34.9406 86.758 34.8266 86.8926 34.7092C86.9118 34.6928 86.931 34.6756 86.9503 34.6584C87.0883 34.5362 87.2249 34.4126 87.3574 34.2856C87.3595 34.2835 87.3623 34.2815 87.3643 34.2801L87.3636 66.3363Z" fill="black"/>
<g clip-path="url(#clip0)">
<path d="M79.8874 56.5494C79.7253 56.3642 79.4916 56.2581 79.2456 56.2581C79.203 56.2581 79.1609 56.2643 79.1189 56.2707L77.2554 54.4073C76.6182 53.7701 75.7713 53.4194 74.8704 53.4194H74.6123V53.6774C74.6123 54.3278 74.7975 54.9484 75.1388 55.4839H75.1284V60.1291C75.1284 60.5558 75.4758 60.9032 75.9026 60.9032C76.3294 60.9032 76.6768 60.5558 76.6768 60.1291V59.3549C76.6768 59.2125 76.7925 59.0968 76.9349 59.0968C77.0773 59.0968 77.1929 59.2125 77.1929 59.3549V62.1936C77.1929 62.6204 77.5404 62.9678 77.9671 62.9678C78.3939 62.9678 78.7413 62.6204 78.7413 62.1936V59.5688L81.4835 61.9683C81.6497 62.1133 81.8629 62.1936 82.0836 62.1936C82.3269 62.1936 82.5557 62.0988 82.728 61.9267L83.1196 61.535C83.2917 61.3628 83.3865 61.1342 83.3865 60.8906C83.3865 60.67 83.3062 60.4565 83.1612 60.2906L79.8874 56.5494ZM76.8905 54.7722L78.6345 56.5161L78.3542 56.7964L76.3432 54.7853L75.9782 55.1502L77.9893 57.1613L77.7091 57.4416L75.9651 55.6976C75.4897 55.2222 75.2028 54.609 75.141 53.9481C75.8019 54.0098 76.4151 54.2968 76.8905 54.7722ZM78.2252 62.1936C78.2252 62.336 78.1095 62.4516 77.9671 62.4516C77.8248 62.4516 77.7091 62.336 77.7091 62.1936V59.3549C77.7091 58.9281 77.3617 58.5807 76.9349 58.5807C76.5081 58.5807 76.1607 58.9281 76.1607 59.3549V60.1291C76.1607 60.2714 76.045 60.3871 75.9026 60.3871C75.7602 60.3871 75.6446 60.2714 75.6446 60.1291V56.1069L77.4636 57.9259C77.4572 57.968 77.451 58.0101 77.451 58.0527C77.451 58.2987 77.5571 58.5324 77.7423 58.6944L78.2252 59.1172V62.1936ZM82.7547 61.1701L82.3631 61.5618C82.2208 61.7043 81.9748 61.7122 81.8231 61.5797L78.0819 58.3061C78.009 58.2421 77.9671 58.1497 77.9671 58.0527C77.9671 57.9641 78.0033 57.8774 78.0657 57.8148L79.0077 56.8727C79.0703 56.8104 79.157 56.7742 79.2456 56.7742C79.3426 56.7742 79.435 56.816 79.4988 56.889L82.7726 60.6302C82.8356 60.7025 82.8704 60.7949 82.8704 60.8906C82.8704 60.9961 82.8293 61.0955 82.7547 61.1701Z" fill="#1D73F8"/>
<path d="M80.8066 59.6129H81.3228V60.129H80.8066V59.6129Z" fill="#1D73F8"/>
<path d="M79.7744 58.5806H80.2905V59.0968H79.7744V58.5806Z" fill="#1D73F8"/>
<path d="M84.9349 61.1295V51.5654C85.2346 51.4585 85.4511 51.1746 85.4511 50.8387C85.4511 50.5028 85.2346 50.2189 84.9349 50.112V48.7742C84.9349 48.3474 84.5875 48 84.1608 48H73.8382C73.4114 48 73.064 48.3474 73.064 48.7742V50.112C72.7643 50.2189 72.5479 50.5028 72.5479 50.8387C72.5479 51.1746 72.7643 51.4585 73.064 51.5654V61.1295L72.569 63.1086C72.5548 63.1654 72.5479 63.2238 72.5479 63.2824C72.5479 63.6779 72.8699 64 73.2655 64H84.7335C85.129 64 85.4511 63.6779 85.4511 63.2824C85.4511 63.2238 85.4441 63.1654 85.4297 63.1084L84.9349 61.1295ZM73.8382 48.5161H84.1608C84.3031 48.5161 84.4188 48.6318 84.4188 48.7742V50.0645H73.5801V48.7742C73.5801 48.6318 73.6958 48.5161 73.8382 48.5161ZM73.322 50.5806H84.6769C84.8193 50.5806 84.9349 50.6963 84.9349 50.8387C84.9349 50.9811 84.8193 51.0968 84.6769 51.0968H73.322C73.1797 51.0968 73.064 50.9811 73.064 50.8387C73.064 50.6963 73.1797 50.5806 73.322 50.5806ZM84.7335 63.4839H73.2655C73.1546 63.4839 73.064 63.3933 73.064 63.2824C73.064 63.2658 73.066 63.249 73.0697 63.2335L73.5801 61.193V51.6129H84.4188V61.1613L84.929 63.233C84.9329 63.249 84.9349 63.2655 84.9349 63.2824C84.9349 63.3933 84.8443 63.4839 84.7335 63.4839V63.4839Z" fill="#1D73F8"/>
<path d="M79.774 52.129H78.2256V53.6774H79.774V52.129ZM79.2578 53.1613H78.7417V52.6452H79.2578V53.1613Z" fill="#1D73F8"/>
<path d="M80.29 52.129H83.9029V52.6452H80.29V52.129Z" fill="#1D73F8"/>
<path d="M80.29 53.1613H83.9029V53.6774H80.29V53.1613Z" fill="#1D73F8"/>
<path d="M78.2256 54.1935H78.7417V54.7097H78.2256V54.1935Z" fill="#1D73F8"/>
<path d="M79.2578 54.1935H83.903V54.7097H79.2578V54.1935Z" fill="#1D73F8"/>
</g>
<g clip-path="url(#clip1)">
<path d="M11.8874 56.5494C11.7253 56.3642 11.4916 56.2581 11.2456 56.2581C11.203 56.2581 11.1609 56.2643 11.1189 56.2707L9.25545 54.4073C8.61823 53.7701 7.77133 53.4194 6.87037 53.4194H6.6123V53.6774C6.6123 54.3278 6.79754 54.9484 7.13877 55.4839H7.12843V60.1291C7.12843 60.5558 7.47584 60.9032 7.90263 60.9032C8.32942 60.9032 8.67682 60.5558 8.67682 60.1291V59.3549C8.67682 59.2125 8.7925 59.0968 8.93489 59.0968C9.07727 59.0968 9.19295 59.2125 9.19295 59.3549V62.1936C9.19295 62.6204 9.54035 62.9678 9.96714 62.9678C10.3939 62.9678 10.7413 62.6204 10.7413 62.1936V59.5688L13.4835 61.9683C13.6497 62.1133 13.8629 62.1936 14.0836 62.1936C14.3269 62.1936 14.5557 62.0988 14.728 61.9267L15.1196 61.535C15.2917 61.3628 15.3865 61.1342 15.3865 60.8906C15.3865 60.67 15.3062 60.4565 15.1612 60.2906L11.8874 56.5494ZM8.89053 54.7722L10.6345 56.5161L10.3542 56.7964L8.34315 54.7853L7.97823 55.1502L9.98932 57.1613L9.70908 57.4416L7.96513 55.6976C7.4897 55.2222 7.20278 54.609 7.14103 53.9481C7.80195 54.0098 8.4151 54.2968 8.89053 54.7722ZM10.2252 62.1936C10.2252 62.336 10.1095 62.4516 9.96714 62.4516C9.82475 62.4516 9.70908 62.336 9.70908 62.1936V59.3549C9.70908 58.9281 9.36167 58.5807 8.93489 58.5807C8.5081 58.5807 8.16069 58.9281 8.16069 59.3549V60.1291C8.16069 60.2714 8.04502 60.3871 7.90263 60.3871C7.76024 60.3871 7.64456 60.2714 7.64456 60.1291V56.1069L9.46362 57.9259C9.45719 57.968 9.45101 58.0101 9.45101 58.0527C9.45101 58.2987 9.55711 58.5324 9.74234 58.6944L10.2252 59.1172V62.1936ZM14.7547 61.1701L14.3631 61.5618C14.2208 61.7043 13.9748 61.7122 13.8231 61.5797L10.0819 58.3061C10.009 58.2421 9.96714 58.1497 9.96714 58.0527C9.96714 57.9641 10.0033 57.8774 10.0657 57.8148L11.0077 56.8727C11.0703 56.8104 11.157 56.7742 11.2456 56.7742C11.3426 56.7742 11.435 56.816 11.4988 56.889L14.7726 60.6302C14.8356 60.7025 14.8704 60.7949 14.8704 60.8906C14.8704 60.9961 14.8293 61.0955 14.7547 61.1701Z" fill="#1D73F8"/>
<path d="M12.8066 59.6129H13.3228V60.129H12.8066V59.6129Z" fill="#1D73F8"/>
<path d="M11.7744 58.5806H12.2905V59.0968H11.7744V58.5806Z" fill="#1D73F8"/>
<path d="M16.9349 61.1295V51.5654C17.2346 51.4585 17.4511 51.1746 17.4511 50.8387C17.4511 50.5028 17.2346 50.2189 16.9349 50.112V48.7742C16.9349 48.3474 16.5875 48 16.1608 48H5.83817C5.41138 48 5.06398 48.3474 5.06398 48.7742V50.112C4.76433 50.2189 4.54785 50.5028 4.54785 50.8387C4.54785 51.1746 4.76433 51.4585 5.06398 51.5654V61.1295L4.56902 63.1086C4.55478 63.1654 4.54785 63.2238 4.54785 63.2824C4.54785 63.6779 4.86993 64 5.26547 64H16.7335C17.129 64 17.4511 63.6779 17.4511 63.2824C17.4511 63.2238 17.4441 63.1654 17.4297 63.1084L16.9349 61.1295ZM5.83817 48.5161H16.1608C16.3031 48.5161 16.4188 48.6318 16.4188 48.7742V50.0645H5.58011V48.7742C5.58011 48.6318 5.69579 48.5161 5.83817 48.5161ZM5.32205 50.5806H16.6769C16.8193 50.5806 16.9349 50.6963 16.9349 50.8387C16.9349 50.9811 16.8193 51.0968 16.6769 51.0968H5.32205C5.17966 51.0968 5.06398 50.9811 5.06398 50.8387C5.06398 50.6963 5.17966 50.5806 5.32205 50.5806ZM16.7335 63.4839H5.26547C5.15458 63.4839 5.06398 63.3933 5.06398 63.2824C5.06398 63.2658 5.066 63.249 5.06965 63.2335L5.58011 61.193V51.6129H16.4188V61.1613L16.929 63.233C16.9329 63.249 16.9349 63.2655 16.9349 63.2824C16.9349 63.3933 16.8443 63.4839 16.7335 63.4839V63.4839Z" fill="#1D73F8"/>
<path d="M11.774 52.129H10.2256V53.6774H11.774V52.129ZM11.2578 53.1613H10.7417V52.6452H11.2578V53.1613Z" fill="#1D73F8"/>
<path d="M12.29 52.129H15.9029V52.6452H12.29V52.129Z" fill="#1D73F8"/>
<path d="M12.29 53.1613H15.9029V53.6774H12.29V53.1613Z" fill="#1D73F8"/>
<path d="M10.2256 54.1935H10.7417V54.7097H10.2256V54.1935Z" fill="#1D73F8"/>
<path d="M11.2578 54.1935H15.903V54.7097H11.2578V54.1935Z" fill="#1D73F8"/>
</g>
<defs>
<clipPath id="clip0">
<rect x="71" y="48" width="16" height="16" fill="white"/>
</clipPath>
<clipPath id="clip1">
<rect x="3" y="48" width="16" height="16" fill="white"/>
</clipPath>
</defs>
</svg>
