<svg width="68" height="75" viewBox="0 0 68 75" fill="none" xmlns="http://www.w3.org/2000/svg">
<path d="M60.8683 17.7334H58.0654V15.931L59.8143 14.0049C60.7222 13.005 61.2221 11.7107 61.2221 10.36V5.79234C61.2221 2.59843 58.6236 0 55.4296 0H52.7653C49.5714 0 46.973 2.59856 46.973 5.79234V10.36C46.973 11.7107 47.473 13.0051 48.3807 14.0049L50.1298 15.9312V17.7334H47.3269C44.6038 17.7334 42.3215 19.653 41.7593 22.21C41.4732 22.1699 41.1814 22.1478 40.8844 22.1478H37.6012V19.9429L39.604 17.7374C40.6053 16.6346 41.1568 15.2069 41.1568 13.7173V8.57253C41.1568 5.04486 38.2869 2.17522 34.7594 2.17522C34.2065 2.17522 33.7586 2.62313 33.7586 3.17597C33.7586 3.72881 34.2065 4.17673 34.7594 4.17673C37.1833 4.17673 39.1553 6.14859 39.1553 8.57253V13.7171C39.1553 14.7083 38.7884 15.658 38.1223 16.3917L36.06 18.663C35.7833 18.841 35.5999 19.1516 35.5999 19.5053V23.1487C35.5999 23.7015 36.0479 24.1494 36.6007 24.1494H40.8847C43.2519 24.1494 45.178 26.0754 45.178 28.4428V34.7224H21.34V28.4428C21.34 26.5971 22.5109 25.0199 24.1487 24.4143C24.2256 24.3982 24.299 24.3726 24.3683 24.3398C24.7683 24.2163 25.1932 24.1493 25.6332 24.1493H29.9172C30.4699 24.1493 30.918 23.7014 30.918 23.1486V19.5052C30.918 19.1517 30.7346 18.8409 30.458 18.6629L28.3956 16.3916C27.7294 15.6579 27.3623 14.708 27.3623 13.717V8.57253C27.3623 6.14872 29.3342 4.17673 31.7583 4.17673C32.311 4.17673 32.759 3.72881 32.759 3.17597C32.759 2.62313 32.311 2.17522 31.7583 2.17522C28.2306 2.17522 25.3608 5.04499 25.3608 8.57253V13.7171C25.3608 15.2066 25.9124 16.6344 26.9136 17.7373L28.9162 19.9427V22.1477H25.633C25.3533 22.1477 25.0784 22.1678 24.8084 22.2035C24.2438 19.6498 21.9634 17.7334 19.2425 17.7334H16.4396V15.931L18.1885 14.0049C19.0964 13.005 19.5963 11.7107 19.5963 10.36V5.79234C19.5963 2.59843 16.9978 0 13.8038 0H11.1398C7.94584 0 5.34742 2.59856 5.34742 5.79234V10.36C5.34742 11.7107 5.84734 13.0051 6.75526 14.0049L8.50427 15.9311V17.7334H5.70133C2.5576 17.7334 0 20.291 0 23.4347V29.8988C0 30.4516 0.448045 30.8995 1.00076 30.8995H16.5716C17.1243 30.8995 17.5723 30.4516 17.5723 29.8988C17.5723 29.3459 17.1243 28.898 16.5716 28.898H2.00151V23.4347C2.00151 21.3947 3.6612 19.7349 5.70133 19.7349H9.50503C10.0577 19.7349 10.5058 19.287 10.5058 18.7342V15.4993C10.5058 15.1512 10.328 14.8446 10.0584 14.6653L8.23696 12.6594C7.66422 12.0287 7.3488 11.2122 7.3488 10.3602V5.79234C7.3488 3.70203 9.04931 2.00151 11.1396 2.00151H13.804C15.8943 2.00151 17.5949 3.70203 17.5949 5.79234V10.36C17.5949 11.212 17.2795 12.0287 16.7068 12.6593L14.8852 14.6653C14.6157 14.8446 14.4381 15.1512 14.4381 15.4992V18.734C14.4381 19.2869 14.8861 19.7348 15.4388 19.7348H19.2425C21.0595 19.7348 22.5737 21.0517 22.8833 22.7811C20.7865 23.8036 19.3384 25.9567 19.3384 28.4424V35.7228C19.3384 36.2757 19.7864 36.7236 20.3391 36.7236H46.1785C46.7314 36.7236 47.1793 36.2757 47.1793 35.7228V28.4424C47.1793 25.9758 45.7526 23.8373 43.6817 22.8054C43.9814 21.0642 45.5013 19.7348 47.3269 19.7348H51.1306C51.6834 19.7348 52.1313 19.2869 52.1313 18.734V15.4992C52.1313 15.151 51.9536 14.8444 51.6838 14.6651L49.8625 12.6593C49.2898 12.0287 48.9745 11.212 48.9745 10.36V5.79234C48.9745 3.70203 50.675 2.00151 52.7653 2.00151H55.4296C57.52 2.00151 59.2206 3.70203 59.2206 5.79234V10.36C59.2206 11.212 58.9052 12.0287 58.3324 12.6593L56.511 14.6653C56.2414 14.8446 56.0637 15.1512 56.0637 15.4992V18.734C56.0637 19.2869 56.5117 19.7348 57.0645 19.7348H60.8682C62.9082 19.7348 64.568 21.3945 64.568 23.4346V28.8979H50.1701C49.6173 28.8979 49.1694 29.3458 49.1694 29.8986C49.1694 30.4515 49.6173 30.8994 50.1701 30.8994H65.5688C66.1216 30.8994 66.5695 30.4515 66.5695 29.8986V23.4346C66.5697 20.291 64.0121 17.7334 60.8683 17.7334Z" fill="black"/>
<path d="M23.38 60.7674L23.92 61.4874V60.5874V53.6531C23.92 53.0532 24.4071 52.5662 25.0069 52.5662C25.6068 52.5662 26.0939 53.0531 26.0939 53.6531V64.748C26.0939 65.2149 25.7941 65.6302 25.3504 65.7781L25.3503 65.7781L25.3472 65.7792C25.2369 65.8174 25.1233 65.8349 25.0069 65.8349C24.6723 65.8349 24.346 65.6781 24.1375 65.4001L24.1375 65.4001L18.3127 57.6337L17.7727 56.9137V57.8137V64.748C17.7727 65.3478 17.2856 65.8349 16.6857 65.8349C16.0859 65.8349 15.5988 65.3478 15.5988 64.748V53.6531C15.5988 53.1862 15.8986 52.7708 16.3423 52.6229L16.3423 52.6229L16.3436 52.6225C16.7854 52.4731 17.2743 52.6265 17.5552 53.0009C17.5552 53.001 17.5552 53.001 17.5552 53.001L23.38 60.7674Z" fill="#1D73F8" stroke="white" stroke-width="0.6"/>
<path d="M31.6413 63.361V63.661H31.9413H36.1019C36.7018 63.661 37.1888 64.148 37.1888 64.7478C37.1888 65.3477 36.7018 65.8347 36.1019 65.8347H30.5544C29.9545 65.8347 29.4675 65.3477 29.4675 64.7478V53.6529C29.4675 53.053 29.9545 52.566 30.5544 52.566H36.1019C36.7018 52.566 37.1888 53.053 37.1888 53.6529C37.1888 54.2528 36.7018 54.7398 36.1019 54.7398H31.9413H31.6413V55.0398V63.361Z" fill="#1D73F8" stroke="white" stroke-width="0.6"/>
<path d="M30.5544 58.1135H36.1019C36.7018 58.1135 37.1888 58.6006 37.1888 59.2004C37.1888 59.8003 36.7018 60.2874 36.1019 60.2874H30.5544C29.9545 60.2874 29.4675 59.8003 29.4675 59.2004C29.4675 58.6006 29.9545 58.1135 30.5544 58.1135Z" fill="#1D73F8" stroke="white" stroke-width="0.6"/>
<path d="M42.9945 53.3173L44.4788 59.2493L44.3298 59.6964L44.6144 59.7912L44.9054 59.7184L44.791 59.2613L45.8819 55.9884C46.2591 54.8567 48.137 54.8567 48.5114 55.9884L49.6023 59.2613L49.4879 59.7184L49.779 59.7912L50.0636 59.6964L49.9146 59.2493L51.3989 53.3173C51.5819 52.5713 52.3364 52.1191 53.0798 52.3077L42.9945 53.3173ZM42.9945 53.3173C42.8087 52.5711 42.0542 52.1218 41.3136 52.3077L42.9945 53.3173ZM53.006 52.5985L53.007 52.5988C53.59 52.7445 53.9439 53.3335 53.7982 53.9159L53.7982 53.916L51.0245 65.0109C50.9071 65.4806 50.4942 65.8149 50.0122 65.8323L49.9932 65.833L49.9823 65.8348L49.9804 65.8348L49.9704 65.8348C49.5053 65.8348 49.088 65.5368 48.9403 65.0917L48.9402 65.0913L47.4813 60.7171L47.1967 59.8639L46.9121 60.7171L45.453 65.0912L45.4528 65.0917C45.2944 65.5694 44.863 65.8846 44.4032 65.8338L44.3921 65.8326L44.381 65.8322C43.8996 65.8148 43.4861 65.4783 43.3686 65.0104L40.595 53.9158L40.595 53.9158C40.4494 53.3336 40.8034 52.7445 41.3863 52.5988L41.3866 52.5987C41.9667 52.4531 42.5577 52.805 42.7033 53.3898L42.7034 53.3901L44.3233 59.864L44.5733 60.8631L44.899 59.8861L46.1665 56.0833L46.1665 56.0833C46.3022 55.6763 46.7204 55.4397 47.1977 55.4397C47.675 55.4397 48.0921 55.6763 48.2266 56.0827L48.2268 56.0833L49.4944 59.8861L49.82 60.8631L50.07 59.864L51.6899 53.3901L51.6902 53.3888C51.8336 52.8047 52.424 52.4508 53.006 52.5985Z" fill="#1D73F8" stroke="white" stroke-width="0.6"/>
<path d="M66.6129 43.9449H2.81709C2.05154 43.9449 1.43018 44.5662 1.43018 45.3317C1.43018 46.0973 2.05154 46.7186 2.81709 46.7186H66.6131C67.3786 46.7186 68 46.0973 68 45.3317C68 44.5662 67.3785 43.9449 66.6129 43.9449Z" fill="black"/>
<path d="M66.6129 71.6823H2.81709C2.05154 71.6823 1.43018 72.3036 1.43018 73.0692C1.43018 73.8347 2.05154 74.4561 2.81709 74.4561H66.6131C67.3786 74.4561 68 73.8347 68 73.0692C68 72.3036 67.3785 71.6823 66.6129 71.6823Z" fill="black"/>
</svg>
