<svg width="66" height="66" viewBox="0 0 66 66" fill="none" xmlns="http://www.w3.org/2000/svg">
<path d="M55.901 57.152H33.5313L25.4063 50.652H36.401C37.263 50.652 38.0896 50.3096 38.6991 49.7001C39.3086 49.0906 39.651 48.264 39.651 47.402V45.2354C39.651 45.0391 39.5976 44.8466 39.4967 44.6783C39.3958 44.51 39.251 44.3723 39.0779 44.2799L22.8279 35.6132C22.6826 35.5356 22.5215 35.4921 22.3569 35.4861C22.1923 35.4801 22.0284 35.5117 21.8778 35.5785L13.651 39.2348V38.7354C13.651 38.448 13.5369 38.1725 13.3337 37.9693C13.1305 37.7662 12.855 37.652 12.5677 37.652H8.23434C7.94703 37.652 7.67148 37.7662 7.46831 37.9693C7.26515 38.1725 7.15101 38.448 7.15101 38.7354V39.8187H1.73434C1.44703 39.8187 1.17148 39.9328 0.968313 40.136C0.765148 40.3392 0.651012 40.6147 0.651012 40.902V56.0687C0.651012 56.356 0.765148 56.6316 0.968313 56.8347C1.17148 57.0379 1.44703 57.152 1.73434 57.152H7.15101V58.2354C7.15101 58.5227 7.26515 58.7982 7.46831 59.0014C7.67148 59.2046 7.94703 59.3187 8.23434 59.3187H12.5677C12.8402 59.3173 13.1021 59.2125 13.3004 59.0255C13.4987 58.8385 13.6186 58.5832 13.6358 58.3112L22.7239 65.5814C22.9161 65.7351 23.1549 65.8188 23.401 65.8187H58.0677C58.355 65.8187 58.6305 65.7046 58.8337 65.5014C59.0369 65.2982 59.151 65.0227 59.151 64.7354V60.402C59.151 59.5401 58.8086 58.7134 58.1991 58.1039C57.5896 57.4944 56.7629 57.152 55.901 57.152ZM2.81768 54.9854V41.9854H7.15101V54.9854H2.81768ZM11.4843 57.152H9.31768V39.8187H11.4843V57.152ZM56.9843 63.652H23.7813L13.651 55.5476V41.6062L22.2743 37.7734L37.4843 45.8854V47.402C37.4843 47.6893 37.3702 47.9649 37.167 48.1681C36.9639 48.3712 36.6883 48.4854 36.401 48.4854H22.3177C22.0931 48.4853 21.8741 48.5549 21.6909 48.6847C21.5077 48.8146 21.3693 48.9981 21.2949 49.21C21.2206 49.4218 21.2139 49.6516 21.2758 49.8674C21.3378 50.0833 21.4652 50.2745 21.6406 50.4148L32.4739 59.0814C32.6661 59.2351 32.9049 59.3188 33.151 59.3187H55.901C56.1883 59.3187 56.4639 59.4328 56.667 59.636C56.8702 59.8392 56.9843 60.1147 56.9843 60.402V63.652Z" fill="#333333"/>
<path d="M42.901 19.2351H40.7343V21.4018H42.901V19.2351Z" fill="#1D73F8"/>
<path d="M47.2343 19.2351H45.0677V21.4018H47.2343V19.2351Z" fill="#1D73F8"/>
<path d="M51.5677 19.2351H49.401V21.4018H51.5677V19.2351Z" fill="#1D73F8"/>
<path d="M62.9351 15.6982L61.0674 15.3873C60.8887 15.3592 60.7202 15.2856 60.5783 15.1734C60.4363 15.0613 60.3257 14.9144 60.2571 14.747C60.1953 14.591 60.1314 14.4372 60.0653 14.2834C59.9958 14.1164 59.9703 13.9343 59.9913 13.7547C60.0124 13.575 60.0793 13.4038 60.1856 13.2574L61.2862 11.718C61.7354 11.0925 61.9471 10.3276 61.8836 9.56015C61.8201 8.79274 61.4854 8.073 60.9396 7.52986L58.9397 5.52895C58.3964 4.98345 57.6766 4.64913 56.9092 4.58581C56.1419 4.5225 55.377 4.73431 54.7516 5.18336L53.2122 6.28403C53.0658 6.39022 52.8946 6.45712 52.715 6.47836C52.5354 6.4996 52.3534 6.47447 52.1862 6.40536C52.0331 6.33964 51.8786 6.27536 51.7226 6.21253C51.5551 6.14394 51.4082 6.03316 51.2962 5.89097C51.1842 5.74878 51.1109 5.58002 51.0834 5.40111L50.7714 3.53453C50.6468 2.77482 50.2558 2.08428 49.6685 1.58662C49.0811 1.08897 48.3357 0.816705 47.5658 0.818614H44.7362C43.9665 0.816663 43.2212 1.08877 42.6339 1.58621C42.0465 2.08365 41.6554 2.77393 41.5306 3.53345L41.2186 5.4022C41.1907 5.58111 41.1172 5.74981 41.005 5.89196C40.8928 6.03411 40.7459 6.1449 40.5783 6.21361C40.4234 6.27536 40.2685 6.33928 40.1157 6.40536C39.9485 6.47411 39.7664 6.49895 39.5869 6.47753C39.4073 6.4561 39.2362 6.38912 39.0898 6.28295L37.5504 5.18336C36.9249 4.73424 36.16 4.52247 35.3925 4.586C34.6251 4.64952 33.9054 4.98417 33.3622 5.53003L33.1282 5.76403L28.5003 1.13603C28.2971 0.932852 28.0216 0.818675 27.7343 0.818614H4.98434C4.69702 0.818614 4.42147 0.93275 4.21831 1.13591C4.01514 1.33908 3.90101 1.61463 3.90101 1.90195V7.47245C2.87979 7.73612 1.9898 8.36319 1.39786 9.23612C0.805909 10.109 0.552648 11.1679 0.685546 12.2142C0.818443 13.2605 1.32837 14.2224 2.11976 14.9196C2.91114 15.6168 3.92964 16.0015 4.98434 16.0015C6.03904 16.0015 7.05754 15.6168 7.84892 14.9196C8.64031 14.2224 9.15024 13.2605 9.28313 12.2142C9.41603 11.1679 9.16277 10.109 8.57082 9.23612C7.97888 8.36319 7.08889 7.73612 6.06767 7.47245V2.98528H27.2858L31.5964 7.29586L31.3624 7.52986C30.8166 8.07283 30.482 8.79237 30.4185 9.5596C30.355 10.3268 30.5667 11.0916 31.0157 11.7169L32.1164 13.2585C32.2228 13.4048 32.2898 13.5761 32.3108 13.7557C32.3319 13.9354 32.3063 14.1175 32.2367 14.2844C32.1709 14.4376 32.107 14.5917 32.0449 14.747C31.9763 14.9144 31.8657 15.0613 31.7237 15.1734C31.5818 15.2856 31.4133 15.3592 31.2346 15.3873L29.3669 15.6982C28.6072 15.8228 27.9167 16.2138 27.419 16.8012C26.9214 17.3885 26.6491 18.1339 26.651 18.9038V19.2353H10.401C10.1137 19.2353 9.83814 19.3494 9.63497 19.5526C9.43181 19.7557 9.31767 20.0313 9.31767 20.3186V23.7224C8.29646 23.9861 7.40647 24.6132 6.81452 25.4861C6.22257 26.359 5.96931 27.4179 6.10221 28.4642C6.23511 29.5105 6.74504 30.4724 7.53642 31.1696C8.3278 31.8668 9.3463 32.2515 10.401 32.2515C11.4557 32.2515 12.4742 31.8668 13.2656 31.1696C14.057 30.4724 14.5669 29.5105 14.6998 28.4642C14.8327 27.4179 14.5794 26.359 13.9875 25.4861C13.3955 24.6132 12.5056 23.9861 11.4843 23.7224V21.4019H26.651V21.7334C26.6491 22.5033 26.9214 23.2487 27.419 23.8361C27.9167 24.4234 28.6072 24.8144 29.3669 24.939L31.2346 25.2499C31.4133 25.278 31.5818 25.3516 31.7237 25.4638C31.8657 25.5759 31.9763 25.7228 32.0449 25.8902C32.1067 26.0462 32.1706 26.2 32.2367 26.3539C32.3062 26.5208 32.3317 26.7029 32.3107 26.8825C32.2896 27.0622 32.2227 27.2334 32.1164 27.3798L31.0157 28.9192C30.5666 29.5447 30.3549 30.3096 30.4184 31.0771C30.4819 31.8445 30.8166 32.5642 31.3624 33.1074L33.3677 35.1083C33.9111 35.6538 34.6308 35.9881 35.3982 36.0514C36.1655 36.1147 36.9304 35.9029 37.5558 35.4539L39.0952 34.3543C39.2415 34.2479 39.4127 34.1808 39.5923 34.1594C39.7719 34.1379 39.954 34.1629 40.1212 34.2318C40.2743 34.2976 40.4288 34.3619 40.5848 34.4247C40.7523 34.4933 40.8992 34.6041 41.0112 34.7462C41.1233 34.8884 41.1965 35.0572 41.224 35.2361L41.536 37.1027C41.6604 37.8615 42.0506 38.5513 42.6369 39.0488C43.2232 39.5464 43.9672 39.8192 44.7362 39.8186H45.0677V51.7353C45.0677 52.0226 45.1818 52.2981 45.385 52.5013C45.5881 52.7045 45.8637 52.8186 46.151 52.8186H56.0548C56.3185 53.8398 56.9456 54.7298 57.8185 55.3217C58.6914 55.9137 59.7503 56.167 60.7966 56.0341C61.8429 55.9012 62.8048 55.3912 63.502 54.5998C64.1992 53.8085 64.5839 52.79 64.5839 51.7353C64.5839 50.6806 64.1992 49.6621 63.502 48.8707C62.8048 48.0793 61.8429 47.5694 60.7966 47.4365C59.7503 47.3036 58.6914 47.5568 57.8185 48.1488C56.9456 48.7407 56.3185 49.6307 56.0548 50.6519H47.2343V39.8186H47.5658C48.3355 39.8206 49.0808 39.5484 49.6681 39.051C50.2555 38.5536 50.6466 37.8633 50.7714 37.1038L51.0834 35.235C51.1113 35.0561 51.1848 34.8874 51.297 34.7452C51.4092 34.6031 51.5561 34.4923 51.7237 34.4236C51.8786 34.3619 52.0335 34.2979 52.1862 34.2318C52.3534 34.1624 52.5355 34.1371 52.7152 34.1586C52.895 34.18 53.0661 34.2474 53.2122 34.3543L54.7516 35.4539C55.3772 35.9028 56.1421 36.1144 56.9094 36.0509C57.6768 35.9874 58.3965 35.6528 58.9397 35.1072L60.9396 33.1074C61.4853 32.5644 61.82 31.8448 61.8835 31.0776C61.947 30.3104 61.7353 29.5456 61.2862 28.9203L60.1856 27.3787C60.0792 27.2324 60.0122 27.0611 59.9912 26.8815C59.9701 26.7018 59.9956 26.5197 60.0653 26.3528C60.1318 26.1997 60.1957 26.0455 60.2571 25.8902C60.3257 25.7228 60.4363 25.5759 60.5783 25.4638C60.7202 25.3516 60.8887 25.278 61.0674 25.2499L62.9351 24.939C63.6948 24.8144 64.3853 24.4234 64.883 23.8361C65.3806 23.2487 65.6529 22.5033 65.651 21.7334V18.9038C65.6529 18.1339 65.3806 17.3885 64.883 16.8012C64.3853 16.2138 63.6948 15.8228 62.9351 15.6982ZM7.15101 11.6519C7.15101 12.0805 7.02393 12.4994 6.78586 12.8557C6.54778 13.212 6.20939 13.4897 5.81349 13.6537C5.41758 13.8177 4.98194 13.8606 4.56164 13.777C4.14135 13.6934 3.75529 13.487 3.45228 13.184C3.14926 12.881 2.94291 12.4949 2.85931 12.0746C2.7757 11.6543 2.81861 11.2187 2.9826 10.8228C3.14659 10.4269 3.4243 10.0885 3.7806 9.85043C4.13691 9.61235 4.55581 9.48528 4.98434 9.48528C5.55898 9.48528 6.11008 9.71355 6.5164 10.1199C6.92273 10.5262 7.15101 11.0773 7.15101 11.6519ZM12.5677 27.9019C12.5677 28.3305 12.4406 28.7494 12.2025 29.1057C11.9644 29.462 11.6261 29.7397 11.2302 29.9037C10.8342 30.0677 10.3986 30.1106 9.97831 30.027C9.55802 29.9434 9.17195 29.737 8.86894 29.434C8.56593 29.131 8.35957 28.7449 8.27597 28.3246C8.19237 27.9043 8.23528 27.4687 8.39927 27.0728C8.56326 26.6769 8.84096 26.3385 9.19727 26.1004C9.55358 25.8623 9.97248 25.7353 10.401 25.7353C10.9756 25.7353 11.5267 25.9635 11.9331 26.3699C12.3394 26.7762 12.5677 27.3273 12.5677 27.9019ZM60.2343 49.5686C60.6629 49.5686 61.0818 49.6957 61.4381 49.9337C61.7944 50.1718 62.0721 50.5102 62.2361 50.9061C62.4001 51.302 62.443 51.7377 62.3594 52.158C62.2758 52.5783 62.0694 52.9643 61.7664 53.2673C61.4634 53.5703 61.0773 53.7767 60.657 53.8603C60.2367 53.9439 59.8011 53.901 59.4052 53.737C59.0093 53.573 58.6709 53.2953 58.4328 52.939C58.1947 52.5827 58.0677 52.1638 58.0677 51.7353C58.0677 51.1606 58.2959 50.6095 58.7023 50.2032C59.1086 49.7969 59.6597 49.5686 60.2343 49.5686ZM63.4843 21.7334C63.4843 21.9897 63.3933 22.2377 63.2277 22.4332C63.0621 22.6288 62.8325 22.7593 62.5797 22.8016L60.711 23.1136C60.1636 23.2041 59.6486 23.434 59.2158 23.7813C58.783 24.1285 58.4469 24.5813 58.2399 25.0961C58.1868 25.2304 58.1316 25.3626 58.0763 25.4926C57.8604 26.0021 57.7788 26.5586 57.8395 27.1087C57.9002 27.6588 58.1011 28.1841 58.423 28.6343L59.5237 30.1769C59.6726 30.3856 59.7426 30.6404 59.7214 30.8958C59.7002 31.1513 59.589 31.391 59.4077 31.5723L57.4079 33.5721C57.2265 33.7535 56.9865 33.8646 56.7308 33.8857C56.475 33.9067 56.2202 33.8363 56.0115 33.6869L54.471 32.5906C54.021 32.2683 53.4957 32.0672 52.9455 32.0065C52.3953 31.9458 51.8388 32.0275 51.3293 32.2439C51.1993 32.3014 51.0661 32.3523 50.9328 32.4075C50.418 32.6142 49.9651 32.95 49.6179 33.3827C49.2706 33.8153 49.0407 34.3302 48.9503 34.8775L48.6383 36.7474C48.596 37.0001 48.4655 37.2297 48.27 37.3953C48.0744 37.5609 47.8264 37.6519 47.5702 37.6519H44.7362C44.4797 37.6518 44.2317 37.5607 44.0361 37.3949C43.8405 37.2291 43.7101 36.9992 43.668 36.7463L43.356 34.8786C43.266 34.3313 43.0364 33.8164 42.6893 33.3837C42.3422 32.951 41.8894 32.6152 41.3746 32.4086C41.2402 32.3555 41.107 32.3003 40.977 32.2439C40.5802 32.0729 40.1524 31.9852 39.7203 31.9861C39.0429 31.9858 38.3824 32.1971 37.831 32.5906L36.2927 33.6902C36.084 33.8395 35.8291 33.9099 35.5734 33.8889C35.3177 33.8679 35.0777 33.7568 34.8962 33.5754L32.8964 31.5755C32.7148 31.3942 32.6035 31.1543 32.5823 30.8986C32.5611 30.6428 32.6313 30.3879 32.7805 30.1791L33.8812 28.6386C34.2033 28.1885 34.4044 27.6632 34.4651 27.1131C34.5258 26.5629 34.4441 26.0064 34.2278 25.4969C34.1715 25.3648 34.1195 25.2326 34.0642 25.0983C33.8572 24.5835 33.5211 24.1307 33.0883 23.7834C32.6555 23.4362 32.1406 23.2063 31.5932 23.1158L29.7244 22.8038C29.4709 22.7619 29.2405 22.6312 29.0744 22.4352C28.9083 22.2391 28.8173 21.9904 28.8177 21.7334V18.9038C28.8177 18.6475 28.9087 18.3996 29.0743 18.204C29.2399 18.0084 29.4695 17.8779 29.7222 17.8356L31.591 17.5236C32.1384 17.4331 32.6533 17.2032 33.0861 16.8559C33.5189 16.5087 33.855 16.0559 34.0621 15.5411C34.1152 15.4068 34.1704 15.2746 34.2257 15.1446C34.4416 14.6351 34.5232 14.0786 34.4625 13.5285C34.4018 12.9784 34.2009 12.4531 33.879 12.0029L32.7783 10.4603C32.6294 10.2516 32.5594 9.99685 32.5806 9.74137C32.6018 9.48588 32.713 9.2462 32.8942 9.06494L34.8941 7.06511C35.0753 6.88265 35.3154 6.77058 35.5717 6.74895C35.8279 6.72732 36.0835 6.79753 36.2927 6.94703L37.831 8.04661C38.2811 8.36868 38.8064 8.5697 39.3565 8.63041C39.9067 8.69111 40.4632 8.60946 40.9727 8.39328C41.1027 8.33586 41.2359 8.28494 41.3692 8.22969C41.884 8.02302 42.3369 7.68716 42.6841 7.25452C43.0314 6.82188 43.2613 6.30705 43.3517 5.7597L43.6637 3.88986C43.7061 3.63637 43.8372 3.4062 44.0337 3.24049C44.2302 3.07479 44.4791 2.98433 44.7362 2.98528H47.5658C47.8223 2.9854 48.0703 3.07648 48.2659 3.24231C48.4615 3.40815 48.5919 3.63799 48.634 3.89095L48.946 5.75861C49.036 6.30596 49.2656 6.82085 49.6127 7.25353C49.9598 7.68621 50.4126 8.02205 50.9274 8.22861C51.0617 8.28169 51.195 8.33694 51.325 8.39328C51.8346 8.60915 52.391 8.69063 52.9411 8.62993C53.4911 8.56924 54.0164 8.36839 54.4667 8.04661L56.0093 6.94703C56.218 6.7977 56.4729 6.72728 56.7286 6.7483C56.9843 6.76933 57.2243 6.88045 57.4057 7.06186L59.4056 9.06169C59.5872 9.24302 59.6985 9.48291 59.7197 9.73864C59.7409 9.99437 59.6707 10.2493 59.5215 10.4581L58.423 11.9986C58.1008 12.4487 57.8997 12.974 57.839 13.5241C57.7783 14.0743 57.86 14.6308 58.0763 15.1403C58.1327 15.2724 58.1847 15.4046 58.2399 15.5389C58.4469 16.0537 58.783 16.5065 59.2158 16.8538C59.6486 17.201 60.1636 17.4309 60.711 17.5214L62.5797 17.8334C62.8325 17.8757 63.0621 18.0062 63.2277 18.2018C63.3933 18.3974 63.4843 18.6453 63.4843 18.9016V21.7334Z" fill="#333333"/>
<path d="M46.151 10.5686C44.2226 10.5686 42.3376 11.1404 40.7342 12.2118C39.1308 13.2831 37.8811 14.8059 37.1432 16.5874C36.4052 18.369 36.2121 20.3294 36.5883 22.2207C36.9646 24.112 37.8932 25.8493 39.2567 27.2129C40.6203 28.5765 42.3576 29.505 44.2489 29.8813C46.1402 30.2575 48.1006 30.0644 49.8822 29.3264C51.6637 28.5885 53.1865 27.3388 54.2578 25.7354C55.3292 24.132 55.901 22.247 55.901 20.3186C55.8981 17.7336 54.87 15.2553 53.0421 13.4275C51.2143 11.5996 48.736 10.5715 46.151 10.5686V10.5686ZM46.151 27.9019C44.6512 27.9019 43.185 27.4572 41.9379 26.6239C40.6909 25.7906 39.7189 24.6063 39.1449 23.2206C38.571 21.8349 38.4208 20.3102 38.7134 18.8392C39.006 17.3681 39.7282 16.0169 40.7888 14.9564C41.8493 13.8958 43.2005 13.1736 44.6716 12.881C46.1426 12.5884 47.6673 12.7386 49.053 13.3125C50.4387 13.8865 51.623 14.8585 52.4563 16.1055C53.2896 17.3526 53.7343 18.8188 53.7343 20.3186C53.732 22.3291 52.9323 24.2566 51.5107 25.6783C50.089 27.0999 48.1615 27.8996 46.151 27.9019V27.9019Z" fill="#1D73F8"/>
</svg>
