<svg width="90" height="90" viewBox="0 0 90 90" fill="none" xmlns="http://www.w3.org/2000/svg">
<path d="M70.3125 52.0312C60.7078 52.0312 52.8258 59.483 52.103 68.9062H50.625C49.8487 68.9062 49.2188 68.2748 49.2188 67.5V45C49.2188 44.2252 49.8487 43.5938 50.625 43.5938H71.7188C75.5114 43.5938 79.072 41.9133 81.488 38.9841C83.9025 36.0548 84.8644 32.2017 84.1289 28.4133C83.16 23.4197 79.1452 19.44 74.1389 18.5077C73.0884 18.3108 72.0323 18.2475 70.9889 18.3066C69.2536 13.3861 64.5708 9.84375 59.0625 9.84375C57.5452 9.84375 56.0672 10.1123 54.6539 10.6439C51.0638 4.91484 44.7848 1.40625 37.9688 1.40625C28.1545 1.40625 19.8703 8.72016 18.4978 18.2925C17.5894 18.2756 16.6725 18.3487 15.757 18.5273C10.8056 19.4892 6.83156 23.4619 5.87109 28.4119C5.13563 32.2017 6.0975 36.0548 8.51203 38.9841C10.928 41.9133 14.4886 43.5938 18.2812 43.5938H39.375C40.1513 43.5938 40.7812 44.2252 40.7812 45V64.6875C40.7812 65.4623 40.1513 66.0938 39.375 66.0938H37.9688V53.4375C37.9688 49.5605 34.8145 46.4062 30.9375 46.4062H8.4375C4.56047 46.4062 1.40625 49.5605 1.40625 53.4375V81.5625C1.40625 85.4395 4.56047 88.5938 8.4375 88.5938H30.9375C34.8145 88.5938 37.9688 85.4395 37.9688 81.5625V68.9062H39.375C41.7009 68.9062 43.5938 67.0134 43.5938 64.6875V45C43.5938 42.6741 41.7009 40.7812 39.375 40.7812H18.2812C15.3295 40.7812 12.5606 39.4734 10.6819 37.1953C8.80313 34.9172 8.05641 31.9106 8.63156 28.9491C9.37688 25.1128 12.4566 22.0345 16.2928 21.2878C19.2558 20.7141 22.2595 21.4594 24.5377 23.3381C26.8172 25.2169 28.125 27.9872 28.125 30.9375H30.9375C30.9375 27.1434 29.257 23.5828 26.3278 21.1683C24.8414 19.9434 23.1173 19.0955 21.2836 18.6511C22.4761 10.4667 29.5706 4.21875 37.9688 4.21875C44.183 4.21875 49.8769 7.62047 52.83 13.0978L53.4755 14.2945L54.6933 13.6898C56.0742 13.0036 57.5437 12.6562 59.0625 12.6562C64.4892 12.6562 68.9062 17.0719 68.9062 22.5C68.9062 27.9281 64.4892 32.3438 59.0625 32.3438V35.1562C66.0417 35.1562 71.7188 29.4778 71.7188 22.5C71.7188 22.0303 71.6892 21.5691 71.6386 21.112C72.2981 21.1064 72.9605 21.1472 73.6242 21.2709C77.5041 21.9938 80.6175 25.0791 81.3684 28.9477C81.9436 31.9092 81.1969 34.9158 79.3181 37.1939C77.4394 39.4734 74.6705 40.7812 71.7188 40.7812H50.625C48.2991 40.7812 46.4062 42.6741 46.4062 45V67.5C46.4062 69.8259 48.2991 71.7188 50.625 71.7188H52.103C52.8258 81.142 60.7078 88.5938 70.3125 88.5938C80.3925 88.5938 88.5938 80.3925 88.5938 70.3125C88.5938 60.2325 80.3925 52.0312 70.3125 52.0312ZM8.4375 49.2188H30.9375C33.2634 49.2188 35.1562 51.1116 35.1562 53.4375V74.5312H4.21875V53.4375C4.21875 51.1116 6.11156 49.2188 8.4375 49.2188ZM30.9375 85.7812H8.4375C6.11156 85.7812 4.21875 83.8884 4.21875 81.5625V77.3438H35.1562V81.5625C35.1562 83.8884 33.2634 85.7812 30.9375 85.7812ZM70.3125 54.8438C78.8414 54.8438 85.7812 61.7836 85.7812 70.3125C85.7812 73.5047 84.8081 76.4733 83.1459 78.9398C81.6905 75.8545 79.0678 73.5145 75.8827 72.4162C77.6362 70.868 78.75 68.6109 78.75 66.0938C78.75 61.4405 74.9658 57.6562 70.3125 57.6562C65.6592 57.6562 61.875 61.4405 61.875 66.0938C61.875 68.6109 62.9888 70.868 64.7438 72.4162C61.5586 73.5159 58.9373 75.8559 57.4805 78.9398C55.8169 76.4733 54.8438 73.5047 54.8438 70.3125C54.8438 61.7836 61.7836 54.8438 70.3125 54.8438ZM64.6875 66.0938C64.6875 62.9916 67.2103 60.4688 70.3125 60.4688C73.4147 60.4688 75.9375 62.9916 75.9375 66.0938C75.9375 69.1959 73.4147 71.7188 70.3125 71.7188C67.2103 71.7188 64.6875 69.1959 64.6875 66.0938ZM59.5547 81.405C60.8414 77.3311 64.5666 74.5312 68.9062 74.5312H71.7188C76.0613 74.5312 79.7864 77.3311 81.0703 81.405C78.2831 84.1078 74.4919 85.7812 70.3125 85.7812C66.1331 85.7812 62.3419 84.1078 59.5547 81.405Z" fill="black"/>
<path d="M9.84375 60.4688H29.5312C31.0823 60.4688 32.3438 59.2073 32.3438 57.6562V54.8438C32.3438 53.2927 31.0823 52.0312 29.5312 52.0312H9.84375C8.29266 52.0312 7.03125 53.2927 7.03125 54.8438V57.6562C7.03125 59.2073 8.29266 60.4688 9.84375 60.4688ZM9.84375 54.8438H29.5312L29.5327 57.6562H9.84375V54.8438Z" fill="#1D73F8"/>
<path d="M9.84375 71.7188H29.5312C31.0823 71.7188 32.3438 70.4573 32.3438 68.9062V66.0938C32.3438 64.5427 31.0823 63.2812 29.5312 63.2812H9.84375C8.29266 63.2812 7.03125 64.5427 7.03125 66.0938V68.9062C7.03125 70.4573 8.29266 71.7188 9.84375 71.7188ZM9.84375 66.0938H29.5312L29.5327 68.9062H9.84375V66.0938Z" fill="#1D73F8"/>
<path d="M29.5312 80.1562H32.3438V82.9688H29.5312V80.1562Z" fill="#1D73F8"/>
<path d="M23.9062 80.1562H26.7188V82.9688H23.9062V80.1562Z" fill="#1D73F8"/>
<path d="M18.2812 80.1562H21.0938V82.9688H18.2812V80.1562Z" fill="#1D73F8"/>
<path d="M22.5 30.9375H25.3125C25.3125 27.0605 22.1583 23.9062 18.2812 23.9062V26.7188C20.6072 26.7188 22.5 28.6116 22.5 30.9375Z" fill="#1D73F8"/>
<path d="M50.5687 14.8416C48.1739 10.0237 43.3462 7.03125 37.9688 7.03125V9.84375C42.2719 9.84375 46.1348 12.2386 48.0502 16.0945L50.5687 14.8416Z" fill="#1D73F8"/>
<path d="M63.2812 22.5C63.2812 24.8259 61.3884 26.7188 59.0625 26.7188V29.5312C62.9395 29.5312 66.0938 26.377 66.0938 22.5H63.2812Z" fill="#1D73F8"/>
<path d="M18.2812 35.1562H21.0938V37.9688H18.2812V35.1562Z" fill="#1D73F8"/>
<path d="M23.9062 35.1562H26.7188V37.9688H23.9062V35.1562Z" fill="#1D73F8"/>
<path d="M29.5312 35.1562H32.3438V37.9688H29.5312V35.1562Z" fill="#1D73F8"/>
</svg>
