<svg width="90" height="90" viewBox="0 0 90 90" fill="none" xmlns="http://www.w3.org/2000/svg">
<path d="M75.9375 32.3438H84.375C86.7009 32.3438 88.5938 30.4509 88.5938 28.125V5.625C88.5938 3.29906 86.7009 1.40625 84.375 1.40625H47.8125C45.4866 1.40625 43.5938 3.29906 43.5938 5.625V16.875H39.7673L38.5453 20.5397C36.3502 21.1177 34.2464 21.9909 32.2734 23.1441L29.5312 21.7716V1.40625H1.40625V32.3438H23.1061C21.9741 34.297 21.112 36.3769 20.5411 38.5453L16.875 39.7673V49.2188H5.625C3.29906 49.2188 1.40625 51.1116 1.40625 53.4375V75.9375C1.40625 78.2634 3.29906 80.1562 5.625 80.1562H14.0625V80.3981C14.0625 82.4006 13.3411 84.2892 12.0361 85.7812H8.4375V88.5938H39.375V85.7812H35.7764C34.4714 84.2878 33.75 82.4006 33.75 80.3981V80.1562H42.1875C44.5134 80.1562 46.4062 78.2634 46.4062 75.9375V73.125H50.2327L51.4547 69.4603C53.6498 68.8823 55.7536 68.0091 57.7266 66.8559L60.4688 68.2284V88.5938H88.5938V57.6562H66.8939C68.0259 55.703 68.888 53.6231 69.4589 51.4547L73.125 50.2327V40.7812H81.5625V37.9688H77.9639C76.6589 36.4753 75.9375 34.5881 75.9375 32.5856V32.3438ZM84.375 29.5312H47.8125C47.0377 29.5312 46.4062 28.9013 46.4062 28.125V23.9062H85.7812V28.125C85.7812 28.9013 85.1498 29.5312 84.375 29.5312ZM54.2236 37.9688H50.625V40.7812H61.3336C61.688 42.1523 61.875 43.5656 61.875 45C61.875 53.8313 55.0533 61.0847 46.4062 61.8033V53.4375C46.4062 51.1116 44.5134 49.2188 42.1875 49.2188H28.6664C28.312 47.8462 28.125 46.433 28.125 45C28.125 36.1673 34.9495 28.9111 43.6008 28.1953C43.6402 30.4889 45.5105 32.3438 47.8125 32.3438H56.25V32.5856C56.25 34.5881 55.5286 36.4753 54.2236 37.9688ZM47.8125 4.21875H84.375C85.1498 4.21875 85.7812 4.84875 85.7812 5.625V21.0938H46.4062V5.625C46.4062 4.84875 47.0377 4.21875 47.8125 4.21875ZM4.21875 4.21875H26.7188V23.5069L23.9062 26.3194V18.2812H7.03125V26.7188H23.5069L21.413 28.8127L21.7716 29.5312H4.21875V4.21875ZM21.0938 21.0938V23.9062H9.84375V21.0938H21.0938ZM19.6875 41.7952L22.9134 40.7194L23.0892 39.9487C23.6461 37.523 24.6052 35.2139 25.9383 33.0848L26.3573 32.4141L24.8344 29.3667L29.3667 24.833L32.4155 26.3573L33.0848 25.9383C35.2139 24.6052 37.523 23.6461 39.9487 23.0892L40.718 22.912L41.7952 19.6875H43.5938V25.3842C33.3942 26.1098 25.3125 34.6191 25.3125 45C25.3125 46.4273 25.4756 47.8378 25.778 49.2188H19.6875V41.7952ZM5.625 52.0312H42.1875C42.9623 52.0312 43.5938 52.6612 43.5938 53.4375V68.9062H4.21875V53.4375C4.21875 52.6612 4.85016 52.0312 5.625 52.0312ZM32.348 85.7812H15.4645C16.38 84.1556 16.875 82.3162 16.875 80.3981V80.1562H30.9375V80.3981C30.9375 82.3162 31.4325 84.1556 32.348 85.7812ZM42.1875 77.3438H5.625C4.85016 77.3438 4.21875 76.7138 4.21875 75.9375V71.7188H43.5938V75.9375C43.5938 76.7138 42.9623 77.3438 42.1875 77.3438ZM85.7812 85.7812H63.2812V66.4945L66.0938 63.6806V71.7188H82.9688V63.2812H66.4931L68.587 61.1873L68.2284 60.4688H85.7812V85.7812ZM68.9062 68.9062V66.0938H80.1562V68.9062H68.9062ZM70.3125 48.2048L67.0866 49.2806L66.9108 50.0513C66.3539 52.477 65.3948 54.7861 64.0617 56.9152L63.6427 57.5859L65.1656 60.6333L60.6333 65.167L57.5845 63.6427L56.9152 64.0617C54.7861 65.3948 52.477 66.3539 50.0513 66.9108L49.282 67.088L48.2048 70.3125H46.4062V64.6158C56.6058 63.8902 64.6875 55.3809 64.6875 45C64.6875 43.5712 64.5244 42.1608 64.2234 40.7812H70.3125V48.2048ZM57.652 37.9688C58.5675 36.3431 59.0625 34.5038 59.0625 32.5856V32.3438H73.125V32.5856C73.125 34.5038 73.62 36.3431 74.5355 37.9688H57.652Z" fill="black"/>
<path d="M66.0938 74.5312H82.9688V77.3438H66.0938V74.5312Z" fill="#1D73F8"/>
<path d="M66.0938 80.1562H68.9062V82.9688H66.0938V80.1562Z" fill="#1D73F8"/>
<path d="M71.7188 80.1562H82.9688V82.9688H71.7188V80.1562Z" fill="#1D73F8"/>
<path d="M7.03125 12.6562H23.9062V15.4688H7.03125V12.6562Z" fill="#1D73F8"/>
<path d="M21.0938 7.03125H23.9062V9.84375H21.0938V7.03125Z" fill="#1D73F8"/>
<path d="M7.03125 7.03125H18.2812V9.84375H7.03125V7.03125Z" fill="#1D73F8"/>
<path d="M58.9768 46.5537C59.033 46.0433 59.0626 45.5258 59.0626 44.9998C59.0626 44.4725 59.033 43.9508 58.9754 43.4375L56.1812 43.7511C56.2262 44.1589 56.2501 44.5766 56.2501 44.9998C56.2501 45.4217 56.2262 45.838 56.1812 46.2472L58.9768 46.5537Z" fill="#1D73F8"/>
<path d="M58.2932 49.5985L55.634 48.6802C55.3626 49.4677 55.0012 50.2242 54.561 50.9316L56.9488 52.418C57.5001 51.5306 57.9515 50.5828 58.2932 49.5985V49.5985Z" fill="#1D73F8"/>
<path d="M55.0225 54.8649L53.0172 52.8933C52.4814 53.4375 51.8865 53.9297 51.2495 54.3558L52.8133 56.693C53.6092 56.1614 54.3517 55.5455 55.0225 54.8649Z" fill="#1D73F8"/>
</svg>
