<svg width="68" height="68" viewBox="0 0 68 68" fill="none" xmlns="http://www.w3.org/2000/svg">
<g clip-path="url(#clip0)">
<path d="M61.9429 11.742C52.5869 9.17849 43.176 5.18682 34.7274 0.198659C34.2786 -0.0663011 33.7217 -0.0663011 33.2731 0.198659C24.5808 5.33013 15.6784 9.10585 6.0568 11.742C5.43524 11.9122 5.00439 12.4772 5.00439 13.1217V27.7371C5.00439 42.7878 11.9477 52.7503 17.7726 58.4574C24.0434 64.602 31.3481 68 34.0002 68C36.6521 68 43.9568 64.602 50.2276 58.4574C56.0524 52.7505 62.9953 42.788 62.9953 27.7371V13.1216C62.9953 12.4772 62.5644 11.9122 61.9429 11.742ZM60.1345 27.737C60.1345 41.7943 53.6584 51.0905 48.2253 56.4138C42.0587 62.4561 35.4655 65.1389 34.0002 65.1389C32.5349 65.1389 25.9413 62.4561 19.7746 56.4138C14.3416 51.0903 7.8653 41.7943 7.8653 27.737V14.2074C17.0663 11.595 25.6351 7.94918 34.0005 3.08786C42.157 7.82022 51.1533 11.6473 60.1345 14.2069V27.737Z" fill="black"/>
<path d="M21.3215 14.0474C21.0319 13.3122 20.2015 12.9511 19.4662 13.2408C16.9109 14.2476 14.2881 15.1744 11.6708 15.9955C11.0743 16.1827 10.6685 16.7352 10.6685 17.3602V22.884C10.6685 23.674 11.309 24.3144 12.0988 24.3144C12.8887 24.3144 13.5292 23.674 13.5292 22.884V18.4056C15.8772 17.6459 18.2227 16.8056 20.5149 15.9024C21.25 15.613 21.6111 14.7825 21.3215 14.0474Z" fill="#1D73F8"/>
<path d="M24.0386 14.3187C24.2305 14.3187 24.4254 14.2801 24.6122 14.1985L24.6385 14.1871C25.3622 13.87 25.6882 13.0275 25.371 12.3041C25.0536 11.5804 24.2064 11.253 23.4835 11.5699L23.4604 11.5799C22.7363 11.8961 22.4093 12.7379 22.7255 13.4617C22.9602 13.999 23.4868 14.3187 24.0386 14.3187Z" fill="black"/>
<path d="M51.0423 46.1234C50.3813 45.6914 49.4949 45.8772 49.0623 46.5384C47.8836 48.3425 46.5008 50.0702 44.9516 51.6728C43.6777 52.9906 42.2973 54.2188 40.8487 55.3232C40.2206 55.8021 40.0997 56.6996 40.5785 57.328C40.8602 57.697 41.2862 57.8912 41.717 57.8912C42.0195 57.8912 42.3244 57.7957 42.5833 57.5981C44.1459 56.4066 45.6347 55.0821 47.0082 53.6613C48.6831 51.9289 50.1799 50.0589 51.4573 48.1032C51.8896 47.4418 51.7036 46.5554 51.0423 46.1234Z" fill="#1D73F8"/>
<path d="M37.5271 57.5665L37.445 57.6149C36.7614 58.0108 36.5278 58.8858 36.9236 59.5693C37.1888 60.0275 37.6689 60.2833 38.1629 60.2833C38.4059 60.2833 38.6527 60.2213 38.878 60.0905L38.9727 60.0349C39.6545 59.6356 39.8834 58.7594 39.4842 58.0777C39.0847 57.3963 38.2084 57.1677 37.5271 57.5665Z" fill="black"/>
<path d="M24.2499 31.0805C23.3716 30.2021 22.2035 29.7187 20.9612 29.7187C19.7189 29.7187 18.5507 30.2023 17.672 31.0805C15.8587 32.8942 15.8587 35.8453 17.672 37.6589L26.1183 46.1049C26.9967 46.9831 28.1648 47.4667 29.4073 47.4667C30.6497 47.4667 31.8178 46.9831 32.6964 46.1047L50.3286 28.4722C52.1418 26.6582 52.1418 23.7075 50.3284 21.8944C49.45 21.016 48.2819 20.5326 47.0393 20.5326C45.7968 20.5326 44.6287 21.0162 43.7502 21.8944L29.4071 36.2375L24.2499 31.0805ZM45.7732 23.9174C46.1112 23.5794 46.561 23.3934 47.0394 23.3934C47.5181 23.3934 47.9675 23.5794 48.3058 23.9174C49.0037 24.6154 49.0037 25.7515 48.3055 26.4496L39.4895 35.2657L30.6735 44.0818C30.3355 44.4198 29.8857 44.6059 29.4073 44.6059C28.9289 44.6059 28.479 44.4198 28.1409 44.0818L19.6948 35.636C18.9966 34.9378 18.9966 33.8017 19.6946 33.1038C20.0327 32.7658 20.4825 32.5795 20.9611 32.5795C21.4396 32.5795 21.8892 32.7655 22.2272 33.1035L28.3956 39.2721C28.664 39.5403 29.0277 39.691 29.4071 39.691C29.7866 39.691 30.1502 39.5404 30.4184 39.2721L45.7732 23.9174Z" fill="#1D73F8"/>
</g>
<defs>
<clipPath id="clip0">
<rect width="68" height="68" fill="white"/>
</clipPath>
</defs>
</svg>
