<svg width="68" height="68" viewBox="0 0 68 68" fill="none" xmlns="http://www.w3.org/2000/svg">
<g clip-path="url(#clip0)">
<path d="M52.1329 34.1411C52.1501 25.5365 46.1281 18.1 37.7078 16.327C29.288 14.5545 20.7785 18.9312 17.3243 26.812C13.87 34.6934 16.4178 43.9167 23.4281 48.9071C30.4379 53.897 39.9872 53.2855 46.3035 47.4423C50.0179 44.0163 52.1313 39.1941 52.1329 34.1411ZM18.192 33.0078C18.4576 29.3393 19.9933 25.8785 22.5339 23.2194C23.354 23.8946 24.2328 24.495 25.1597 25.0146C24.3506 27.605 23.9035 30.295 23.8316 33.0078H18.192ZM49.812 35.2744C49.5464 38.9428 48.0107 42.4037 45.4701 45.0633C44.6517 44.3882 43.7751 43.7877 42.8499 43.2681C43.6561 40.6772 44.0994 37.9871 44.168 35.2744H49.812ZM40.7724 42.2549C38.9728 41.5343 37.0686 41.1088 35.1329 40.9942V35.2744H41.9036C41.8266 37.6402 41.4448 39.9865 40.768 42.2549H40.7724ZM35.1329 43.2609C36.8035 43.3782 38.4443 43.7606 39.9938 44.3943C38.7642 47.2503 37.0476 49.2453 35.1329 49.823V43.2609ZM35.1329 33.0078V27.2879C37.0669 27.1728 38.9695 26.7473 40.768 26.0279C41.4442 28.2962 41.825 30.642 41.9013 33.0078H35.1329ZM32.8662 25.0213C31.1961 24.9039 29.5553 24.5216 28.0058 23.8879C29.2354 21.0319 30.952 19.0375 32.8662 18.4592V25.0213ZM35.1329 25.0213V18.4636C37.0487 19.0419 38.7598 21.0363 39.9938 23.8923C38.4438 24.5243 36.803 24.9056 35.1329 25.0213ZM40.0608 19.4874C41.3978 20.0408 42.6512 20.7768 43.7862 21.6744C43.2306 22.1127 42.6451 22.5128 42.0353 22.8713C41.5156 21.6677 40.8527 20.5316 40.0608 19.4874ZM25.9643 22.8713C25.3539 22.5122 24.7685 22.1127 24.2123 21.6744C25.3479 20.7768 26.6024 20.0402 27.9399 19.4863C27.1475 20.5311 26.4845 21.6677 25.9643 22.8713ZM27.2316 26.0279C29.0301 26.7473 30.9326 27.1728 32.8662 27.2879V33.0078H26.096C26.173 30.642 26.5548 28.2962 27.2316 26.0279ZM32.8662 35.2744V40.9942C30.9326 41.1093 29.0301 41.5349 27.2316 42.2549C26.5553 39.9865 26.1746 37.6402 26.0982 35.2744H32.8662ZM32.8662 43.2609V49.8186C30.9509 49.2408 29.2398 47.2459 28.0058 44.3898C29.5558 43.7579 31.1966 43.3766 32.8662 43.2609ZM27.9388 48.7953C26.6018 48.2414 25.3484 47.5054 24.2134 46.6078C24.769 46.1695 25.3539 45.77 25.9643 45.4114C26.484 46.6144 27.1469 47.7506 27.9388 48.7953ZM42.0353 45.4114C42.6457 45.77 43.2311 46.1701 43.7873 46.6078C42.6517 47.506 41.3972 48.2425 40.0597 48.7965C40.8521 47.7517 41.5151 46.615 42.0353 45.4114ZM49.8076 33.0078H44.168C44.0977 30.295 43.6528 27.605 42.8454 25.0146C43.7701 24.495 44.6473 23.894 45.4657 23.2194C48.0069 25.8779 49.5425 29.3393 49.8076 33.0078ZM18.1876 35.2744H23.8271C23.9002 37.9877 24.349 40.6777 25.1597 43.2681C24.235 43.7877 23.3579 44.3882 22.5394 45.0633C19.996 42.4054 18.4587 38.9439 18.192 35.2744H18.1876Z" fill="#1D73F8"/>
<path d="M67.9997 34.1411C67.9948 31.9475 66.4198 30.0721 64.2599 29.6886C63.5328 24.6887 61.5666 19.9501 58.5401 15.9048C59.8135 14.1079 59.6032 11.6537 58.0426 10.0998C56.4633 8.59786 54.0533 8.39255 52.2431 9.60669C48.1962 6.57744 43.4553 4.60904 38.4527 3.88134C38.0736 1.7187 36.1954 0.141541 33.9996 0.141541C31.8043 0.141541 29.9261 1.7187 29.547 3.88134C24.5433 4.60849 19.8013 6.57689 15.7533 9.60669C13.9432 8.39255 11.5332 8.59786 9.95379 10.0998C8.39268 11.6537 8.18239 14.1079 9.45629 15.9048C6.43092 19.9506 4.46584 24.6887 3.73979 29.6886C1.57716 30.0676 0 31.9458 0 34.1411C0 36.3364 1.57716 38.2146 3.73979 38.5942C4.46695 43.5936 6.43313 48.3322 9.45961 52.378C8.18571 54.1754 8.39323 56.6303 9.95157 58.1886C11.5099 59.7464 13.9642 59.9545 15.7621 58.68C19.808 61.707 24.5466 63.6738 29.547 64.4015C29.9261 66.5636 31.8043 68.1413 33.9996 68.1413C36.1954 68.1413 38.0736 66.5636 38.4527 64.4015C43.4526 63.6743 48.1907 61.7076 52.2365 58.6817C54.0344 59.9556 56.4887 59.7475 58.0471 58.1897C59.6048 56.6314 59.8129 54.1771 58.539 52.3791C61.5661 48.3333 63.5328 43.5941 64.2599 38.5942C66.4198 38.2102 67.9948 36.3348 67.9997 34.1411ZM65.7331 34.1411C65.7331 35.3929 64.7187 36.4078 63.4664 36.4078C62.2146 36.4078 61.1997 35.3929 61.1997 34.1411C61.1997 32.8894 62.2146 31.8745 63.4664 31.8745C64.7187 31.8745 65.7331 32.8894 65.7331 34.1411ZM54.8363 11.0383C55.7533 11.0377 56.58 11.59 56.9309 12.4367C57.2817 13.2839 57.088 14.259 56.44 14.9076C55.5435 15.7637 54.1313 15.7637 53.2348 14.9076C52.5868 14.259 52.3931 13.2845 52.7439 12.4373C53.0942 11.5906 53.921 11.0383 54.8374 11.0383H54.8363ZM33.9996 2.40766C35.2519 2.40766 36.2663 3.42258 36.2663 4.67434C36.2663 5.9261 35.2519 6.94102 33.9996 6.94102C32.7478 6.94102 31.7329 5.9261 31.7329 4.67434C31.7329 3.42258 32.7478 2.40766 33.9996 2.40766ZM11.5597 11.7013C12.1286 11.1119 12.9714 10.8756 13.7639 11.0831C14.5569 11.2906 15.1756 11.9093 15.3831 12.7018C15.5906 13.4942 15.3543 14.337 14.7649 14.9065C13.8685 15.7626 12.4562 15.7626 11.5597 14.9065C10.6749 14.0211 10.6749 12.5861 11.5597 11.7013ZM2.26612 34.1411C2.26612 32.8894 3.28104 31.8745 4.5328 31.8745C5.78512 31.8745 6.79948 32.8894 6.79948 34.1411C6.79948 35.3929 5.78512 36.4078 4.5328 36.4078C3.28104 36.4078 2.26612 35.3929 2.26612 34.1411ZM11.5597 56.5816C10.6743 55.6961 10.6743 54.2607 11.5592 53.3758C12.4446 52.4904 13.8801 52.4904 14.7649 53.3758C15.6504 54.2607 15.6504 55.6961 14.7649 56.5816C13.8685 57.4382 12.4562 57.4382 11.5597 56.5816ZM33.9996 65.8746C32.7478 65.8746 31.7329 64.8597 31.7329 63.6079C31.7329 62.3562 32.7478 61.3413 33.9996 61.3413C35.2519 61.3413 36.2663 62.3562 36.2663 63.6079C36.2663 64.8597 35.2519 65.8746 33.9996 65.8746ZM33.9996 59.0746C32.0699 59.0801 30.3561 60.3086 29.7319 62.1348C25.2018 61.453 20.9081 59.6717 17.2264 56.9463C18.0853 55.2164 17.7377 53.1312 16.3653 51.7726C14.9813 50.4578 12.9343 50.123 11.2039 50.9282C8.47347 47.2431 6.6888 42.945 6.00647 38.4094C7.83708 37.7913 9.07003 36.0736 9.07003 34.1411C9.07003 32.2087 7.83708 30.4915 6.00647 29.8729C6.68769 25.3434 8.4696 21.0496 11.195 17.368C12.9255 18.2196 15.0062 17.8754 16.3703 16.5119C17.7344 15.1478 18.0786 13.067 17.2264 11.336C20.9081 8.61059 25.2018 6.82923 29.7319 6.14801C30.35 7.97862 32.0672 9.21101 33.9996 9.21101C35.9326 9.21101 37.6497 7.97862 38.2679 6.14801C42.7979 6.82923 47.0916 8.61059 50.7733 11.336C49.9211 13.067 50.2653 15.1478 51.6294 16.5119C52.9935 17.8754 55.0743 18.2196 56.8047 17.368C59.5301 21.0496 61.312 25.3434 61.9933 29.8729C60.1627 30.4915 58.9297 32.2087 58.9297 34.1411C58.9297 36.0736 60.1627 37.7913 61.9933 38.4094C61.3093 42.9455 59.5218 47.2443 56.7892 50.9282C55.0582 50.123 53.0112 50.4578 51.6278 51.7726C50.2548 53.1312 49.9078 55.2164 50.7667 56.9463C47.0867 59.6706 42.7957 61.4519 38.2679 62.1348C37.6437 60.3086 35.9298 59.0801 33.9996 59.0746ZM56.44 56.5816C55.5435 57.4382 54.1313 57.4382 53.2348 56.5816C52.3494 55.6961 52.3494 54.2607 53.2348 53.3758C54.1197 52.4904 55.5552 52.4904 56.44 53.3758C57.3254 54.2607 57.3254 55.6961 56.44 56.5816Z" fill="black"/>
</g>
<defs>
<clipPath id="clip0">
<rect width="68" height="68" fill="white"/>
</clipPath>
</defs>
</svg>
