<svg width="68" height="68" viewBox="0 0 68 68" fill="none" xmlns="http://www.w3.org/2000/svg">
<path d="M1.13333 0C0.50745 0 0 0.50745 0 1.13333V13.6H2.26667V2.26667H13.6V0H1.13333Z" fill="#1D73F8"/>
<path d="M66.8666 0H54.3999V2.26667H65.7332V13.6H67.9999V1.13333C67.9999 0.50745 67.4925 0 66.8666 0Z" fill="#1D73F8"/>
<path d="M2.26667 65.7334V54.4H0V66.8667C0 67.4926 0.50745 68 1.13333 68H13.6V65.7334H2.26667Z" fill="#1D73F8"/>
<path d="M65.7332 54.4V65.7334H54.3999V68H66.8666C67.4925 68 67.9999 67.4926 67.9999 66.8667V54.4H65.7332Z" fill="#1D73F8"/>
<path d="M65.705 32.8667C65.0924 16.2428 51.7572 2.90757 35.1333 2.295V0H32.8667V2.295C16.2428 2.90757 2.90757 16.2428 2.295 32.8667H0V35.1333H2.295C2.90757 51.7572 16.2428 65.0924 32.8667 65.705V68H35.1333V65.705C51.7572 65.0924 65.0924 51.7572 65.705 35.1333H68V32.8667H65.705ZM9.95407 51C9.20947 49.9497 8.53457 48.8518 7.93333 47.7133V43.4067C7.93333 41.3412 9.60783 39.6667 11.6733 39.6667H14.1927L12.5483 43.7784C12.3798 44.1996 12.4788 44.6807 12.7999 45.0013L15.0665 47.2679C15.5091 47.7104 16.2265 47.7104 16.6691 47.2679L18.9357 45.0013C19.2568 44.6807 19.3558 44.1996 19.1873 43.7784L17.5406 39.6667H20.06C22.1255 39.6667 23.8 41.3412 23.8 43.4067V51H9.95407ZM17.4295 29.9132L21.4801 32.3442C21.0256 35.1186 17.6063 37.4 15.8667 37.4C13.3389 36.9695 11.2361 35.2166 10.3575 32.8077C12.2978 32.6479 15.8009 32.0597 17.4295 29.9132ZM10.2625 30.5343C10.5665 26.7362 12.3538 24.9333 15.8667 24.9333C19.0831 24.9333 20.8533 26.4543 21.3599 29.6276L17.5837 27.3609C17.0469 27.0389 16.3507 27.213 16.0287 27.7498C15.9862 27.8206 15.9517 27.8957 15.9256 27.9741C15.3521 29.6933 12.256 30.345 10.2625 30.5343ZM16.8028 43.9269L15.8667 44.8641L14.9305 43.9269L15.8667 41.5843L16.8028 43.9269ZM35.1333 63.4383V61.2H32.8667V63.4383C24.7163 63.1257 17.0622 59.4416 11.7334 53.2667H24.9333C25.5592 53.2667 26.0667 52.7592 26.0667 52.1333V46.4667H41.9333V52.1333C41.9333 52.7592 42.4408 53.2667 43.0667 53.2667H56.2666C50.9378 59.4416 43.2837 63.1257 35.1333 63.4383ZM35.5629 23.1132L39.6134 25.5442C39.1589 28.3186 35.7397 30.6 34 30.6C31.4722 30.1695 29.3695 28.4166 28.4909 26.0077C30.4311 25.8479 33.9343 25.2597 35.5629 23.1132ZM28.3958 23.7343C28.6998 19.9362 30.4871 18.1333 34 18.1333C37.2164 18.1333 38.9867 19.6543 39.4933 22.8276L35.717 20.5609C35.1802 20.2389 34.4841 20.413 34.1621 20.9498C34.1196 21.0206 34.085 21.0957 34.0589 21.1741C33.4855 22.8933 30.3893 23.545 28.3958 23.7343ZM34.9361 37.1269L34 38.0641L33.0639 37.1269L34 34.7843L34.9361 37.1269ZM32.3261 32.8667L30.6816 36.9784C30.5132 37.3996 30.6122 37.8807 30.9332 38.2013L33.1999 40.4679C33.6424 40.9104 34.3598 40.9104 34.8024 40.4679L37.0691 38.2013C37.3901 37.8807 37.4891 37.3996 37.3207 36.9784L35.6739 32.8667H38.1933C40.2588 32.8667 41.9333 34.5412 41.9333 36.6067V44.2H26.0667V36.6067C26.0667 34.5412 27.7412 32.8667 29.8067 32.8667H32.3261ZM60.0667 47.7133C59.4654 48.8518 58.7905 49.9497 58.0459 51H44.2V43.4067C44.2 41.3412 45.8745 39.6667 47.94 39.6667H50.4594L48.8149 43.7784C48.6465 44.1996 48.7455 44.6807 49.0665 45.0013L51.3332 47.2679C51.7758 47.7104 52.4932 47.7104 52.9357 47.2679L55.2024 45.0013C55.5234 44.6807 55.6224 44.1996 55.454 43.7784L53.8073 39.6667H56.3267C58.3922 39.6667 60.0667 41.3412 60.0667 43.4067V47.7133ZM53.6962 29.9132L57.7467 32.3442C57.2923 35.1186 53.873 37.4 52.1333 37.4C49.6056 36.9695 47.5028 35.2166 46.6242 32.8077C48.5645 32.6479 52.0676 32.0597 53.6962 29.9132ZM46.5291 30.5343C46.8332 26.7362 48.6204 24.9333 52.1333 24.9333C55.3497 24.9333 57.12 26.4543 57.6266 29.6276L53.8503 27.3609C53.3136 27.0389 52.6174 27.213 52.2954 27.7498C52.2529 27.8206 52.2183 27.8957 52.1923 27.9741C51.6188 29.6933 48.5227 30.345 46.5291 30.5343ZM53.0695 43.9269L52.1333 44.8641L51.1972 43.9269L52.1333 41.5843L53.0695 43.9269ZM63.4383 35.1333C63.3461 37.5979 62.9432 40.0411 62.2393 42.4048C61.8085 39.7922 59.7064 37.7765 57.0781 37.4555C58.8469 36.0635 59.9349 33.9804 60.0667 31.7333C60.0667 24.2397 55.7521 22.6667 52.1333 22.6667C48.5146 22.6667 44.2 24.2397 44.2 31.7333C44.3317 33.9804 45.4198 36.0635 47.1886 37.4555C46.2664 37.5691 45.3832 37.8958 44.6091 38.4098C44.4652 38.5061 44.3337 38.6138 44.2 38.7215V36.6067C44.2061 33.5784 41.9502 31.0224 38.9447 30.6521C40.7127 29.2608 41.8006 27.1792 41.9333 24.9333C41.9333 17.4397 37.6187 15.8667 34 15.8667C30.3813 15.8667 26.0667 17.4397 26.0667 24.9333C26.1984 27.1804 27.2864 29.2635 29.0553 30.6555C26.0511 31.0257 23.7956 33.5797 23.8 36.6067V38.7169C23.6663 38.6104 23.5348 38.5016 23.3909 38.4053C22.6168 37.8913 21.7337 37.5645 20.8114 37.451C22.5791 36.06 23.667 33.9789 23.8 31.7333C23.8 24.2397 19.4854 22.6667 15.8667 22.6667C12.2479 22.6667 7.93333 24.2397 7.93333 31.7333C8.06508 33.9804 9.15308 36.0635 10.9219 37.4555C8.29359 37.7765 6.19154 39.7922 5.76073 42.4048C5.05679 40.0411 4.65389 37.5979 4.56167 35.1333H6.8V32.8667H4.56167C5.17083 17.4937 17.4937 5.17083 32.8667 4.56167V6.8H35.1333V4.56167C50.5063 5.17083 62.8292 17.4937 63.4383 32.8667H61.2V35.1333H63.4383Z" fill="black"/>
</svg>
