<svg width="90" height="90" viewBox="0 0 90 90" fill="none" xmlns="http://www.w3.org/2000/svg">
<g clip-path="url(#clip0)">
<path d="M5.99991 78H29.0733L27.5729 81H27.0003C22.3036 81 19.5 83.2426 19.5 86.9999C19.5 88.6568 20.8431 89.9999 22.5 89.9999H67.5C69.1569 89.9999 70.5 88.6568 70.5 86.9999C70.5 83.2426 67.6964 81 62.9997 81H62.4271L60.9267 78H84.0001C87.3138 78 90 75.3139 90 72.0001V19.4999C90 16.1862 87.3138 13.5 84.0001 13.5H67.5C66.6719 13.5 65.9997 14.1715 65.9997 14.9996C65.9997 15.8284 66.6719 16.5 67.5 16.5H84.0001C85.657 16.5 87 17.843 87 19.4999V72.0001C87 73.657 85.657 75.0001 84.0001 75.0001H5.99991C4.34303 75.0001 2.99995 73.657 2.99995 72.0001V19.4999C2.99995 17.843 4.34303 16.5 5.99991 16.5H22.5C23.3281 16.5 24.0003 15.8284 24.0003 14.9996C24.0003 14.1715 23.3281 13.5 22.5 13.5H5.99991C2.68616 13.5 0 16.1862 0 19.4999V72.0001C0 75.3139 2.68616 78 5.99991 78V78ZM67.5 86.9999H22.5C22.5 86.2576 22.5 84 27.0003 84H62.9997C67.5 84 67.5 86.2576 67.5 86.9999ZM57.5718 78L59.0714 81H30.9272L32.4268 78H57.5718Z" fill="black"/>
<path d="M79.4999 62.9997H10.5003C9.67149 62.9997 8.99995 62.3281 8.99995 61.5V24.0003C8.99995 23.1715 9.67149 22.5 10.5003 22.5H14.9999C15.8286 22.5 16.5002 21.8284 16.5002 20.9996C16.5002 20.1715 15.8286 19.5 14.9999 19.5H10.5003C8.01462 19.5 6 21.5146 6 24.0003V61.5C6 63.985 8.01462 65.9996 10.5003 65.9996H79.4999C81.9856 65.9996 84.0002 63.985 84.0002 61.5V24.0003C84.0002 21.5146 81.9856 19.5 79.4999 19.5H75.0003C74.1715 19.5 73.5 20.1715 73.5 20.9996C73.5 21.8284 74.1715 22.5 75.0003 22.5H79.4999C80.3287 22.5 81.0002 23.1715 81.0002 24.0003V61.5C81.0002 62.3281 80.3287 62.9997 79.4999 62.9997V62.9997Z" fill="black"/>
<path d="M37.4996 69.0005C36.6715 69.0005 36 69.672 36 70.5001C36 71.3289 36.6715 72.0004 37.4996 72.0004H52.5001C53.3282 72.0004 53.9997 71.3289 53.9997 70.5001C53.9997 69.672 53.3282 69.0005 52.5001 69.0005H37.4996Z" fill="black"/>
<path d="M64.2837 8.71971L61.7823 6.2162C60.7681 5.20546 59.1812 5.05234 57.9927 5.85022L54.2429 8.32626C53.0831 7.7021 51.8595 7.20291 50.5934 6.8383L49.7097 2.41631C49.4316 1.0128 48.2011 0.00137329 46.7701 0H43.2298C41.8002 0 40.569 1.00868 40.2882 2.41081L39.3811 6.82663C38.1177 7.20085 36.8989 7.70828 35.7433 8.34137L32.0086 5.85022C30.8187 5.05371 29.2318 5.20958 28.2197 6.22169L25.7141 8.7252C24.7123 9.74007 24.5599 11.3194 25.3502 12.5072L27.8276 16.257C27.2042 17.4175 26.7057 18.6411 26.3397 19.9065L21.9177 20.7882C20.5162 21.0697 19.5055 22.2988 19.5 23.7284V27.2715C19.5034 28.7004 20.5114 29.9295 21.9122 30.2131L26.3266 31.1133C26.7015 32.3753 27.209 33.5948 27.84 34.7504L25.3502 38.4927C24.5578 39.684 24.7144 41.2681 25.7238 42.2823L28.2252 44.7837C29.238 45.7965 30.8242 45.9517 32.0141 45.1559L35.7646 42.6798C36.9243 43.304 38.1479 43.8025 39.4141 44.1678L40.2971 48.5898C40.578 49.9878 41.8036 50.9958 43.2298 50.9999H46.7701C48.1997 50.9999 49.4309 49.9912 49.7117 48.5898L50.6188 44.1733C51.8822 43.7997 53.101 43.2916 54.2566 42.6585L57.9913 45.1559C59.1819 45.9531 60.7695 45.7972 61.7823 44.7837L64.2858 42.2823C65.2938 41.2674 65.4489 39.684 64.6572 38.4927L62.1791 34.7429C62.8006 33.588 63.3032 32.3733 63.6795 31.1174L62.2423 30.6903L63.6733 31.0934L68.0953 30.2117C69.4919 29.9247 70.4958 28.697 70.4999 27.2715V23.7284C70.4965 22.2995 69.4885 21.0704 68.0877 20.7868L63.6733 19.8873C63.2984 18.6246 62.7909 17.4051 62.1599 16.2495L64.6572 12.5127C65.4558 11.3214 65.2993 9.73251 64.2837 8.71971V8.71971ZM59.664 14.5782C59.0528 15.5072 59.0034 16.6965 59.5349 17.6729C60.0588 18.6486 60.4824 19.6745 60.7983 20.736C61.1073 21.8092 61.9869 22.6215 63.0807 22.8447L67.5 23.7284V27.2715L63.0807 28.1552C61.9869 28.3784 61.1073 29.1907 60.7983 30.2639C60.4818 31.3255 60.0588 32.3527 59.5349 33.3284C59.0013 34.3041 59.0515 35.4955 59.6653 36.4231L62.1627 40.1598L59.6591 42.6627L55.9231 40.1653C54.9948 39.5535 53.8041 39.5027 52.827 40.0335C51.8513 40.5581 50.8241 40.9818 49.7625 41.2983C48.6941 41.6114 47.8859 42.4889 47.6628 43.5793L46.7701 48H43.2298L42.3447 43.578C42.1188 42.4848 41.3065 41.6073 40.2346 41.2962C39.1738 40.9811 38.1479 40.5581 37.1729 40.0349C36.7272 39.7945 36.2287 39.6682 35.7227 39.6675C35.1349 39.6661 34.5609 39.8392 34.0727 40.1653L30.336 42.6627L27.8324 40.1598L30.3311 36.4217C30.9423 35.4927 30.9917 34.3034 30.4602 33.327C29.9363 32.3513 29.5134 31.3255 29.1975 30.2639C28.8885 29.1907 28.0089 28.3784 26.9144 28.1552L22.5 27.2715V23.7284L26.9192 22.8447C28.013 22.6215 28.8926 21.8092 29.2016 20.736C29.5182 19.6745 29.9411 18.6479 30.465 17.6715C30.9986 16.6958 30.9484 15.5045 30.3346 14.5768L27.8372 10.8408L30.3408 8.33725L34.0768 10.8346C35.0045 11.4491 36.1965 11.4999 37.1729 10.9664C38.1486 10.4418 39.1758 10.0182 40.2374 9.7023C41.3085 9.39125 42.1202 8.51303 42.3447 7.42058L43.2298 2.99995H46.7701L47.6552 7.42195C47.8811 8.51509 48.6934 9.39331 49.7653 9.70367C50.8261 10.0188 51.852 10.4418 52.827 10.965C53.8034 11.4993 54.9948 11.4491 55.9231 10.8346L59.6591 8.33725L62.1627 10.8408L59.664 14.5782Z" fill="#1D73F8"/>
<path d="M44.9998 13.5C38.3723 13.5 33 18.8723 33 25.4998C33 32.1273 38.3723 37.4996 44.9998 37.4996C51.6273 37.4996 56.9996 32.1273 56.9996 25.4998C56.9921 18.8757 51.6239 13.5076 44.9998 13.5ZM44.9998 34.4997C40.0292 34.4997 36 30.4704 36 25.4998C36 20.5292 40.0292 16.5 44.9998 16.5C49.9704 16.5 53.9997 20.5292 53.9997 25.4998C53.9949 30.4684 49.9684 34.4949 44.9998 34.4997V34.4997Z" fill="#1D73F8"/>
<path d="M46.5002 25.5001C46.5002 26.3289 45.8279 27.0004 44.9998 27.0004C44.1717 27.0004 43.4995 26.3289 43.4995 25.5001C43.4995 24.672 44.1717 24.0005 44.9998 24.0005C45.8279 24.0005 46.5002 24.672 46.5002 25.5001Z" fill="#1D73F8"/>
</g>
<defs>
<clipPath id="clip0">
<rect width="90" height="90" fill="white"/>
</clipPath>
</defs>
</svg>
